M48
; DRILL file {KiCad (5.1.2)-1} date 6/11/2019 6:42:15 PM
; FORMAT={-:-/ absolute / inch / decimal}
; #@! TF.CreationDate,2019-06-11T18:42:15-07:00
; #@! TF.GenerationSoftware,Kicad,Pcbnew,(5.1.2)-1
; #@! TF.FileFunction,Plated,1,2,PTH
FMAT,2
INCH
T1C0.0118
T2C0.0157
T3C0.0295
T4C0.0315
T5C0.0354
T6C0.0394
T7C0.0469
T8C0.0492
T9C0.0512
T10C0.0938
T11C0.1875
%
G90
G05
T1
X5.6234Y-3.8067
X5.6234Y-3.85
X5.6234Y-3.8933
X5.6667Y-3.8067
X5.6667Y-3.85
X5.6667Y-3.8933
X5.71Y-3.8067
X5.71Y-3.85
X5.71Y-3.8933
X5.7533Y-3.8067
X5.7533Y-3.85
X5.7533Y-3.8933
X5.7966Y-3.8067
X5.7966Y-3.85
X5.7966Y-3.8933
T2
X3.98Y-2.9
X4.075Y-3.225
X4.075Y-3.375
X4.08Y-2.8
X4.08Y-3.0
X4.18Y-2.9
X4.225Y-3.225
X4.225Y-3.375
X4.5Y-3.325
X4.55Y-4.275
X4.75Y-3.8
X4.826Y-4.088
X5.0Y-3.31
X5.04Y-3.3925
X5.04Y-4.2125
X5.06Y-4.39
X5.225Y-3.25
X5.66Y-3.1924
X5.7652Y-3.4335
X5.81Y-3.1925
X5.815Y-3.425
X6.3Y-3.475
X6.3Y-4.225
X6.375Y-3.3
X6.375Y-3.65
X6.375Y-4.05
X6.375Y-4.4
X6.5Y-2.5
X6.55Y-3.225
X6.55Y-3.725
X6.55Y-3.975
X6.55Y-4.475
X6.725Y-3.3
X6.725Y-3.65
X6.725Y-4.05
X6.725Y-4.4
X6.8Y-3.475
X6.8Y-4.225
T3
X4.28Y-3.83
X4.33Y-3.83
X4.38Y-3.83
X4.28Y-4.35
X4.33Y-4.35
X4.38Y-4.35
T4
X6.11Y-3.1516
X6.11Y-3.25
X4.95Y-3.2475
X5.35Y-3.2475
X4.55Y-4.025
X4.55Y-4.1234
X4.8831Y-5.155
X4.9619Y-5.155
X5.0406Y-5.155
X5.1194Y-5.155
X5.1981Y-5.155
X5.2769Y-5.155
X5.51Y-3.1516
X5.51Y-3.25
X5.8Y-4.875
X5.8Y-4.9734
X4.0Y-4.15
X4.4Y-4.15
X5.5577Y-5.155
X5.6364Y-5.155
X5.7152Y-5.155
X5.7939Y-5.155
X5.8726Y-5.155
X5.9514Y-5.155
X5.9616Y-4.52
X6.06Y-4.52
X4.55Y-3.5
X4.55Y-3.9
X6.245Y-4.905
X6.645Y-4.905
X4.0Y-4.02
X4.4Y-4.02
X5.175Y-2.995
X5.2734Y-2.995
X5.1Y-4.525
X5.1Y-4.925
T5
X4.0Y-3.83
X4.1Y-3.83
X4.0Y-4.35
X4.1Y-4.35
T6
X5.375Y-4.875
X5.375Y-4.975
X6.395Y-5.055
X6.495Y-5.055
X5.8Y-4.625
X5.8Y-4.725
T7
X6.8Y-2.7937
X6.8Y-2.9812
T8
X5.475Y-5.155
X6.0341Y-5.155
X4.8005Y-5.155
X5.3595Y-5.155
T9
X4.5563Y-3.0
X4.7531Y-3.0
X4.95Y-3.0
X4.225Y-4.7325
X4.4219Y-4.7325
X4.6187Y-4.7325
X6.725Y-4.63
X6.725Y-4.73
X6.4Y-5.225
X6.5Y-5.225
X4.15Y-3.3031
X4.15Y-3.5
X6.2Y-2.5
X6.3Y-2.5
X5.55Y-3.0
X5.7469Y-3.0
X5.9437Y-3.0
T10
X6.3Y-2.7
X6.3Y-2.8875
X6.3Y-3.075
T11
X6.55Y-3.475
X6.55Y-4.225
T6
G00X4.08Y-2.8606
M15
G01X4.08Y-2.9394
M16
G05
G00X4.1587Y-3.085
M15
G01X4.2375Y-3.085
M16
G05
G00X4.3162Y-2.8606
M15
G01X4.3162Y-2.9394
M16
G05
T0
M30
