G04 #@! TF.GenerationSoftware,KiCad,Pcbnew,(5.1.2)-1*
G04 #@! TF.CreationDate,2019-06-11T18:42:14-07:00*
G04 #@! TF.ProjectId,psu,7073752e-6b69-4636-9164-5f7063625858,rev?*
G04 #@! TF.SameCoordinates,Original*
G04 #@! TF.FileFunction,Copper,L1,Top*
G04 #@! TF.FilePolarity,Positive*
%FSLAX46Y46*%
G04 Gerber Fmt 4.6, Leading zero omitted, Abs format (unit mm)*
G04 Created by KiCad (PCBNEW (5.1.2)-1) date 2019-06-11 18:42:14*
%MOMM*%
%LPD*%
G04 APERTURE LIST*
%ADD10C,1.500000*%
%ADD11C,1.600000*%
%ADD12O,1.600000X1.600000*%
%ADD13R,1.700000X1.700000*%
%ADD14O,1.700000X1.700000*%
%ADD15C,2.600000*%
%ADD16C,1.000000*%
%ADD17R,2.600000X2.600000*%
%ADD18R,3.500000X3.500000*%
%ADD19C,0.100000*%
%ADD20C,3.000000*%
%ADD21C,3.500000*%
%ADD22C,0.600000*%
%ADD23C,2.340000*%
%ADD24R,1.700000X0.800000*%
%ADD25R,0.450000X2.250000*%
%ADD26R,5.000000X3.400000*%
%ADD27R,1.200000X3.200000*%
%ADD28R,1.600000X3.500000*%
%ADD29R,3.200000X1.200000*%
%ADD30R,3.500000X1.600000*%
%ADD31O,1.050000X1.500000*%
%ADD32R,1.050000X1.500000*%
%ADD33R,1.800000X1.800000*%
%ADD34C,1.800000*%
%ADD35C,11.112500*%
%ADD36C,1.425000*%
%ADD37O,6.350000X3.175000*%
%ADD38C,2.382520*%
%ADD39O,1.800000X3.000000*%
%ADD40O,1.200000X2.000000*%
%ADD41C,0.800000*%
%ADD42C,0.500000*%
%ADD43C,1.000000*%
%ADD44C,0.250000*%
%ADD45C,2.000000*%
%ADD46C,0.254000*%
G04 APERTURE END LIST*
D10*
X147574000Y-104140000D03*
X147574000Y-110998000D03*
D11*
X111760000Y-105410000D03*
D12*
X101600000Y-105410000D03*
D11*
X111760000Y-102108000D03*
D12*
X101600000Y-102108000D03*
D11*
X125730000Y-82486500D03*
D12*
X135890000Y-82486500D03*
D11*
X115570000Y-88900000D03*
D12*
X115570000Y-99060000D03*
D11*
X129540000Y-114935000D03*
D12*
X129540000Y-125095000D03*
D13*
X136525000Y-126365000D03*
D14*
X136525000Y-123825000D03*
D15*
X157480000Y-63500000D03*
X160020000Y-63500000D03*
X162560000Y-132715000D03*
X165100000Y-132715000D03*
D11*
X168783000Y-124587000D03*
D12*
X158623000Y-124587000D03*
D13*
X162433000Y-128397000D03*
D14*
X164973000Y-128397000D03*
D15*
X170815000Y-117602000D03*
X170815000Y-120142000D03*
D11*
X155194000Y-80050000D03*
X155194000Y-82550000D03*
X139954000Y-80050000D03*
X139954000Y-82550000D03*
X131445000Y-76073000D03*
X133945000Y-76073000D03*
X115570000Y-104735000D03*
X115570000Y-102235000D03*
X147320000Y-126325000D03*
X147320000Y-123825000D03*
X153924000Y-114808000D03*
X151424000Y-114808000D03*
D16*
X146431000Y-87198200D03*
X147701000Y-86995000D03*
D17*
X105410000Y-88900000D03*
D15*
X105410000Y-83900000D03*
D18*
X109632000Y-73660000D03*
D19*
G36*
X104455513Y-71913611D02*
G01*
X104528318Y-71924411D01*
X104599714Y-71942295D01*
X104669013Y-71967090D01*
X104735548Y-71998559D01*
X104798678Y-72036398D01*
X104857795Y-72080242D01*
X104912330Y-72129670D01*
X104961758Y-72184205D01*
X105005602Y-72243322D01*
X105043441Y-72306452D01*
X105074910Y-72372987D01*
X105099705Y-72442286D01*
X105117589Y-72513682D01*
X105128389Y-72586487D01*
X105132000Y-72660000D01*
X105132000Y-74660000D01*
X105128389Y-74733513D01*
X105117589Y-74806318D01*
X105099705Y-74877714D01*
X105074910Y-74947013D01*
X105043441Y-75013548D01*
X105005602Y-75076678D01*
X104961758Y-75135795D01*
X104912330Y-75190330D01*
X104857795Y-75239758D01*
X104798678Y-75283602D01*
X104735548Y-75321441D01*
X104669013Y-75352910D01*
X104599714Y-75377705D01*
X104528318Y-75395589D01*
X104455513Y-75406389D01*
X104382000Y-75410000D01*
X102882000Y-75410000D01*
X102808487Y-75406389D01*
X102735682Y-75395589D01*
X102664286Y-75377705D01*
X102594987Y-75352910D01*
X102528452Y-75321441D01*
X102465322Y-75283602D01*
X102406205Y-75239758D01*
X102351670Y-75190330D01*
X102302242Y-75135795D01*
X102258398Y-75076678D01*
X102220559Y-75013548D01*
X102189090Y-74947013D01*
X102164295Y-74877714D01*
X102146411Y-74806318D01*
X102135611Y-74733513D01*
X102132000Y-74660000D01*
X102132000Y-72660000D01*
X102135611Y-72586487D01*
X102146411Y-72513682D01*
X102164295Y-72442286D01*
X102189090Y-72372987D01*
X102220559Y-72306452D01*
X102258398Y-72243322D01*
X102302242Y-72184205D01*
X102351670Y-72129670D01*
X102406205Y-72080242D01*
X102465322Y-72036398D01*
X102528452Y-71998559D01*
X102594987Y-71967090D01*
X102664286Y-71942295D01*
X102735682Y-71924411D01*
X102808487Y-71913611D01*
X102882000Y-71910000D01*
X104382000Y-71910000D01*
X104455513Y-71913611D01*
X104455513Y-71913611D01*
G37*
D20*
X103632000Y-73660000D03*
D19*
G36*
X107592765Y-76614213D02*
G01*
X107677704Y-76626813D01*
X107760999Y-76647677D01*
X107841848Y-76676605D01*
X107919472Y-76713319D01*
X107993124Y-76757464D01*
X108062094Y-76808616D01*
X108125718Y-76866282D01*
X108183384Y-76929906D01*
X108234536Y-76998876D01*
X108278681Y-77072528D01*
X108315395Y-77150152D01*
X108344323Y-77231001D01*
X108365187Y-77314296D01*
X108377787Y-77399235D01*
X108382000Y-77485000D01*
X108382000Y-79235000D01*
X108377787Y-79320765D01*
X108365187Y-79405704D01*
X108344323Y-79488999D01*
X108315395Y-79569848D01*
X108278681Y-79647472D01*
X108234536Y-79721124D01*
X108183384Y-79790094D01*
X108125718Y-79853718D01*
X108062094Y-79911384D01*
X107993124Y-79962536D01*
X107919472Y-80006681D01*
X107841848Y-80043395D01*
X107760999Y-80072323D01*
X107677704Y-80093187D01*
X107592765Y-80105787D01*
X107507000Y-80110000D01*
X105757000Y-80110000D01*
X105671235Y-80105787D01*
X105586296Y-80093187D01*
X105503001Y-80072323D01*
X105422152Y-80043395D01*
X105344528Y-80006681D01*
X105270876Y-79962536D01*
X105201906Y-79911384D01*
X105138282Y-79853718D01*
X105080616Y-79790094D01*
X105029464Y-79721124D01*
X104985319Y-79647472D01*
X104948605Y-79569848D01*
X104919677Y-79488999D01*
X104898813Y-79405704D01*
X104886213Y-79320765D01*
X104882000Y-79235000D01*
X104882000Y-77485000D01*
X104886213Y-77399235D01*
X104898813Y-77314296D01*
X104919677Y-77231001D01*
X104948605Y-77150152D01*
X104985319Y-77072528D01*
X105029464Y-76998876D01*
X105080616Y-76929906D01*
X105138282Y-76866282D01*
X105201906Y-76808616D01*
X105270876Y-76757464D01*
X105344528Y-76713319D01*
X105422152Y-76676605D01*
X105503001Y-76647677D01*
X105586296Y-76626813D01*
X105671235Y-76614213D01*
X105757000Y-76610000D01*
X107507000Y-76610000D01*
X107592765Y-76614213D01*
X107592765Y-76614213D01*
G37*
D21*
X106632000Y-78360000D03*
D19*
G36*
X166952703Y-121112722D02*
G01*
X166967264Y-121114882D01*
X166981543Y-121118459D01*
X166995403Y-121123418D01*
X167008710Y-121129712D01*
X167021336Y-121137280D01*
X167033159Y-121146048D01*
X167044066Y-121155934D01*
X167053952Y-121166841D01*
X167062720Y-121178664D01*
X167070288Y-121191290D01*
X167076582Y-121204597D01*
X167081541Y-121218457D01*
X167085118Y-121232736D01*
X167087278Y-121247297D01*
X167088000Y-121262000D01*
X167088000Y-121562000D01*
X167087278Y-121576703D01*
X167085118Y-121591264D01*
X167081541Y-121605543D01*
X167076582Y-121619403D01*
X167070288Y-121632710D01*
X167062720Y-121645336D01*
X167053952Y-121657159D01*
X167044066Y-121668066D01*
X167033159Y-121677952D01*
X167021336Y-121686720D01*
X167008710Y-121694288D01*
X166995403Y-121700582D01*
X166981543Y-121705541D01*
X166967264Y-121709118D01*
X166952703Y-121711278D01*
X166938000Y-121712000D01*
X165288000Y-121712000D01*
X165273297Y-121711278D01*
X165258736Y-121709118D01*
X165244457Y-121705541D01*
X165230597Y-121700582D01*
X165217290Y-121694288D01*
X165204664Y-121686720D01*
X165192841Y-121677952D01*
X165181934Y-121668066D01*
X165172048Y-121657159D01*
X165163280Y-121645336D01*
X165155712Y-121632710D01*
X165149418Y-121619403D01*
X165144459Y-121605543D01*
X165140882Y-121591264D01*
X165138722Y-121576703D01*
X165138000Y-121562000D01*
X165138000Y-121262000D01*
X165138722Y-121247297D01*
X165140882Y-121232736D01*
X165144459Y-121218457D01*
X165149418Y-121204597D01*
X165155712Y-121191290D01*
X165163280Y-121178664D01*
X165172048Y-121166841D01*
X165181934Y-121155934D01*
X165192841Y-121146048D01*
X165204664Y-121137280D01*
X165217290Y-121129712D01*
X165230597Y-121123418D01*
X165244457Y-121118459D01*
X165258736Y-121114882D01*
X165273297Y-121112722D01*
X165288000Y-121112000D01*
X166938000Y-121112000D01*
X166952703Y-121112722D01*
X166952703Y-121112722D01*
G37*
D22*
X166113000Y-121412000D03*
D19*
G36*
X166952703Y-119842722D02*
G01*
X166967264Y-119844882D01*
X166981543Y-119848459D01*
X166995403Y-119853418D01*
X167008710Y-119859712D01*
X167021336Y-119867280D01*
X167033159Y-119876048D01*
X167044066Y-119885934D01*
X167053952Y-119896841D01*
X167062720Y-119908664D01*
X167070288Y-119921290D01*
X167076582Y-119934597D01*
X167081541Y-119948457D01*
X167085118Y-119962736D01*
X167087278Y-119977297D01*
X167088000Y-119992000D01*
X167088000Y-120292000D01*
X167087278Y-120306703D01*
X167085118Y-120321264D01*
X167081541Y-120335543D01*
X167076582Y-120349403D01*
X167070288Y-120362710D01*
X167062720Y-120375336D01*
X167053952Y-120387159D01*
X167044066Y-120398066D01*
X167033159Y-120407952D01*
X167021336Y-120416720D01*
X167008710Y-120424288D01*
X166995403Y-120430582D01*
X166981543Y-120435541D01*
X166967264Y-120439118D01*
X166952703Y-120441278D01*
X166938000Y-120442000D01*
X165288000Y-120442000D01*
X165273297Y-120441278D01*
X165258736Y-120439118D01*
X165244457Y-120435541D01*
X165230597Y-120430582D01*
X165217290Y-120424288D01*
X165204664Y-120416720D01*
X165192841Y-120407952D01*
X165181934Y-120398066D01*
X165172048Y-120387159D01*
X165163280Y-120375336D01*
X165155712Y-120362710D01*
X165149418Y-120349403D01*
X165144459Y-120335543D01*
X165140882Y-120321264D01*
X165138722Y-120306703D01*
X165138000Y-120292000D01*
X165138000Y-119992000D01*
X165138722Y-119977297D01*
X165140882Y-119962736D01*
X165144459Y-119948457D01*
X165149418Y-119934597D01*
X165155712Y-119921290D01*
X165163280Y-119908664D01*
X165172048Y-119896841D01*
X165181934Y-119885934D01*
X165192841Y-119876048D01*
X165204664Y-119867280D01*
X165217290Y-119859712D01*
X165230597Y-119853418D01*
X165244457Y-119848459D01*
X165258736Y-119844882D01*
X165273297Y-119842722D01*
X165288000Y-119842000D01*
X166938000Y-119842000D01*
X166952703Y-119842722D01*
X166952703Y-119842722D01*
G37*
D22*
X166113000Y-120142000D03*
D19*
G36*
X166952703Y-118572722D02*
G01*
X166967264Y-118574882D01*
X166981543Y-118578459D01*
X166995403Y-118583418D01*
X167008710Y-118589712D01*
X167021336Y-118597280D01*
X167033159Y-118606048D01*
X167044066Y-118615934D01*
X167053952Y-118626841D01*
X167062720Y-118638664D01*
X167070288Y-118651290D01*
X167076582Y-118664597D01*
X167081541Y-118678457D01*
X167085118Y-118692736D01*
X167087278Y-118707297D01*
X167088000Y-118722000D01*
X167088000Y-119022000D01*
X167087278Y-119036703D01*
X167085118Y-119051264D01*
X167081541Y-119065543D01*
X167076582Y-119079403D01*
X167070288Y-119092710D01*
X167062720Y-119105336D01*
X167053952Y-119117159D01*
X167044066Y-119128066D01*
X167033159Y-119137952D01*
X167021336Y-119146720D01*
X167008710Y-119154288D01*
X166995403Y-119160582D01*
X166981543Y-119165541D01*
X166967264Y-119169118D01*
X166952703Y-119171278D01*
X166938000Y-119172000D01*
X165288000Y-119172000D01*
X165273297Y-119171278D01*
X165258736Y-119169118D01*
X165244457Y-119165541D01*
X165230597Y-119160582D01*
X165217290Y-119154288D01*
X165204664Y-119146720D01*
X165192841Y-119137952D01*
X165181934Y-119128066D01*
X165172048Y-119117159D01*
X165163280Y-119105336D01*
X165155712Y-119092710D01*
X165149418Y-119079403D01*
X165144459Y-119065543D01*
X165140882Y-119051264D01*
X165138722Y-119036703D01*
X165138000Y-119022000D01*
X165138000Y-118722000D01*
X165138722Y-118707297D01*
X165140882Y-118692736D01*
X165144459Y-118678457D01*
X165149418Y-118664597D01*
X165155712Y-118651290D01*
X165163280Y-118638664D01*
X165172048Y-118626841D01*
X165181934Y-118615934D01*
X165192841Y-118606048D01*
X165204664Y-118597280D01*
X165217290Y-118589712D01*
X165230597Y-118583418D01*
X165244457Y-118578459D01*
X165258736Y-118574882D01*
X165273297Y-118572722D01*
X165288000Y-118572000D01*
X166938000Y-118572000D01*
X166952703Y-118572722D01*
X166952703Y-118572722D01*
G37*
D22*
X166113000Y-118872000D03*
D19*
G36*
X166952703Y-117302722D02*
G01*
X166967264Y-117304882D01*
X166981543Y-117308459D01*
X166995403Y-117313418D01*
X167008710Y-117319712D01*
X167021336Y-117327280D01*
X167033159Y-117336048D01*
X167044066Y-117345934D01*
X167053952Y-117356841D01*
X167062720Y-117368664D01*
X167070288Y-117381290D01*
X167076582Y-117394597D01*
X167081541Y-117408457D01*
X167085118Y-117422736D01*
X167087278Y-117437297D01*
X167088000Y-117452000D01*
X167088000Y-117752000D01*
X167087278Y-117766703D01*
X167085118Y-117781264D01*
X167081541Y-117795543D01*
X167076582Y-117809403D01*
X167070288Y-117822710D01*
X167062720Y-117835336D01*
X167053952Y-117847159D01*
X167044066Y-117858066D01*
X167033159Y-117867952D01*
X167021336Y-117876720D01*
X167008710Y-117884288D01*
X166995403Y-117890582D01*
X166981543Y-117895541D01*
X166967264Y-117899118D01*
X166952703Y-117901278D01*
X166938000Y-117902000D01*
X165288000Y-117902000D01*
X165273297Y-117901278D01*
X165258736Y-117899118D01*
X165244457Y-117895541D01*
X165230597Y-117890582D01*
X165217290Y-117884288D01*
X165204664Y-117876720D01*
X165192841Y-117867952D01*
X165181934Y-117858066D01*
X165172048Y-117847159D01*
X165163280Y-117835336D01*
X165155712Y-117822710D01*
X165149418Y-117809403D01*
X165144459Y-117795543D01*
X165140882Y-117781264D01*
X165138722Y-117766703D01*
X165138000Y-117752000D01*
X165138000Y-117452000D01*
X165138722Y-117437297D01*
X165140882Y-117422736D01*
X165144459Y-117408457D01*
X165149418Y-117394597D01*
X165155712Y-117381290D01*
X165163280Y-117368664D01*
X165172048Y-117356841D01*
X165181934Y-117345934D01*
X165192841Y-117336048D01*
X165204664Y-117327280D01*
X165217290Y-117319712D01*
X165230597Y-117313418D01*
X165244457Y-117308459D01*
X165258736Y-117304882D01*
X165273297Y-117302722D01*
X165288000Y-117302000D01*
X166938000Y-117302000D01*
X166952703Y-117302722D01*
X166952703Y-117302722D01*
G37*
D22*
X166113000Y-117602000D03*
D19*
G36*
X162002703Y-117302722D02*
G01*
X162017264Y-117304882D01*
X162031543Y-117308459D01*
X162045403Y-117313418D01*
X162058710Y-117319712D01*
X162071336Y-117327280D01*
X162083159Y-117336048D01*
X162094066Y-117345934D01*
X162103952Y-117356841D01*
X162112720Y-117368664D01*
X162120288Y-117381290D01*
X162126582Y-117394597D01*
X162131541Y-117408457D01*
X162135118Y-117422736D01*
X162137278Y-117437297D01*
X162138000Y-117452000D01*
X162138000Y-117752000D01*
X162137278Y-117766703D01*
X162135118Y-117781264D01*
X162131541Y-117795543D01*
X162126582Y-117809403D01*
X162120288Y-117822710D01*
X162112720Y-117835336D01*
X162103952Y-117847159D01*
X162094066Y-117858066D01*
X162083159Y-117867952D01*
X162071336Y-117876720D01*
X162058710Y-117884288D01*
X162045403Y-117890582D01*
X162031543Y-117895541D01*
X162017264Y-117899118D01*
X162002703Y-117901278D01*
X161988000Y-117902000D01*
X160338000Y-117902000D01*
X160323297Y-117901278D01*
X160308736Y-117899118D01*
X160294457Y-117895541D01*
X160280597Y-117890582D01*
X160267290Y-117884288D01*
X160254664Y-117876720D01*
X160242841Y-117867952D01*
X160231934Y-117858066D01*
X160222048Y-117847159D01*
X160213280Y-117835336D01*
X160205712Y-117822710D01*
X160199418Y-117809403D01*
X160194459Y-117795543D01*
X160190882Y-117781264D01*
X160188722Y-117766703D01*
X160188000Y-117752000D01*
X160188000Y-117452000D01*
X160188722Y-117437297D01*
X160190882Y-117422736D01*
X160194459Y-117408457D01*
X160199418Y-117394597D01*
X160205712Y-117381290D01*
X160213280Y-117368664D01*
X160222048Y-117356841D01*
X160231934Y-117345934D01*
X160242841Y-117336048D01*
X160254664Y-117327280D01*
X160267290Y-117319712D01*
X160280597Y-117313418D01*
X160294457Y-117308459D01*
X160308736Y-117304882D01*
X160323297Y-117302722D01*
X160338000Y-117302000D01*
X161988000Y-117302000D01*
X162002703Y-117302722D01*
X162002703Y-117302722D01*
G37*
D22*
X161163000Y-117602000D03*
D19*
G36*
X162002703Y-118572722D02*
G01*
X162017264Y-118574882D01*
X162031543Y-118578459D01*
X162045403Y-118583418D01*
X162058710Y-118589712D01*
X162071336Y-118597280D01*
X162083159Y-118606048D01*
X162094066Y-118615934D01*
X162103952Y-118626841D01*
X162112720Y-118638664D01*
X162120288Y-118651290D01*
X162126582Y-118664597D01*
X162131541Y-118678457D01*
X162135118Y-118692736D01*
X162137278Y-118707297D01*
X162138000Y-118722000D01*
X162138000Y-119022000D01*
X162137278Y-119036703D01*
X162135118Y-119051264D01*
X162131541Y-119065543D01*
X162126582Y-119079403D01*
X162120288Y-119092710D01*
X162112720Y-119105336D01*
X162103952Y-119117159D01*
X162094066Y-119128066D01*
X162083159Y-119137952D01*
X162071336Y-119146720D01*
X162058710Y-119154288D01*
X162045403Y-119160582D01*
X162031543Y-119165541D01*
X162017264Y-119169118D01*
X162002703Y-119171278D01*
X161988000Y-119172000D01*
X160338000Y-119172000D01*
X160323297Y-119171278D01*
X160308736Y-119169118D01*
X160294457Y-119165541D01*
X160280597Y-119160582D01*
X160267290Y-119154288D01*
X160254664Y-119146720D01*
X160242841Y-119137952D01*
X160231934Y-119128066D01*
X160222048Y-119117159D01*
X160213280Y-119105336D01*
X160205712Y-119092710D01*
X160199418Y-119079403D01*
X160194459Y-119065543D01*
X160190882Y-119051264D01*
X160188722Y-119036703D01*
X160188000Y-119022000D01*
X160188000Y-118722000D01*
X160188722Y-118707297D01*
X160190882Y-118692736D01*
X160194459Y-118678457D01*
X160199418Y-118664597D01*
X160205712Y-118651290D01*
X160213280Y-118638664D01*
X160222048Y-118626841D01*
X160231934Y-118615934D01*
X160242841Y-118606048D01*
X160254664Y-118597280D01*
X160267290Y-118589712D01*
X160280597Y-118583418D01*
X160294457Y-118578459D01*
X160308736Y-118574882D01*
X160323297Y-118572722D01*
X160338000Y-118572000D01*
X161988000Y-118572000D01*
X162002703Y-118572722D01*
X162002703Y-118572722D01*
G37*
D22*
X161163000Y-118872000D03*
D19*
G36*
X162002703Y-119842722D02*
G01*
X162017264Y-119844882D01*
X162031543Y-119848459D01*
X162045403Y-119853418D01*
X162058710Y-119859712D01*
X162071336Y-119867280D01*
X162083159Y-119876048D01*
X162094066Y-119885934D01*
X162103952Y-119896841D01*
X162112720Y-119908664D01*
X162120288Y-119921290D01*
X162126582Y-119934597D01*
X162131541Y-119948457D01*
X162135118Y-119962736D01*
X162137278Y-119977297D01*
X162138000Y-119992000D01*
X162138000Y-120292000D01*
X162137278Y-120306703D01*
X162135118Y-120321264D01*
X162131541Y-120335543D01*
X162126582Y-120349403D01*
X162120288Y-120362710D01*
X162112720Y-120375336D01*
X162103952Y-120387159D01*
X162094066Y-120398066D01*
X162083159Y-120407952D01*
X162071336Y-120416720D01*
X162058710Y-120424288D01*
X162045403Y-120430582D01*
X162031543Y-120435541D01*
X162017264Y-120439118D01*
X162002703Y-120441278D01*
X161988000Y-120442000D01*
X160338000Y-120442000D01*
X160323297Y-120441278D01*
X160308736Y-120439118D01*
X160294457Y-120435541D01*
X160280597Y-120430582D01*
X160267290Y-120424288D01*
X160254664Y-120416720D01*
X160242841Y-120407952D01*
X160231934Y-120398066D01*
X160222048Y-120387159D01*
X160213280Y-120375336D01*
X160205712Y-120362710D01*
X160199418Y-120349403D01*
X160194459Y-120335543D01*
X160190882Y-120321264D01*
X160188722Y-120306703D01*
X160188000Y-120292000D01*
X160188000Y-119992000D01*
X160188722Y-119977297D01*
X160190882Y-119962736D01*
X160194459Y-119948457D01*
X160199418Y-119934597D01*
X160205712Y-119921290D01*
X160213280Y-119908664D01*
X160222048Y-119896841D01*
X160231934Y-119885934D01*
X160242841Y-119876048D01*
X160254664Y-119867280D01*
X160267290Y-119859712D01*
X160280597Y-119853418D01*
X160294457Y-119848459D01*
X160308736Y-119844882D01*
X160323297Y-119842722D01*
X160338000Y-119842000D01*
X161988000Y-119842000D01*
X162002703Y-119842722D01*
X162002703Y-119842722D01*
G37*
D22*
X161163000Y-120142000D03*
D19*
G36*
X162002703Y-121112722D02*
G01*
X162017264Y-121114882D01*
X162031543Y-121118459D01*
X162045403Y-121123418D01*
X162058710Y-121129712D01*
X162071336Y-121137280D01*
X162083159Y-121146048D01*
X162094066Y-121155934D01*
X162103952Y-121166841D01*
X162112720Y-121178664D01*
X162120288Y-121191290D01*
X162126582Y-121204597D01*
X162131541Y-121218457D01*
X162135118Y-121232736D01*
X162137278Y-121247297D01*
X162138000Y-121262000D01*
X162138000Y-121562000D01*
X162137278Y-121576703D01*
X162135118Y-121591264D01*
X162131541Y-121605543D01*
X162126582Y-121619403D01*
X162120288Y-121632710D01*
X162112720Y-121645336D01*
X162103952Y-121657159D01*
X162094066Y-121668066D01*
X162083159Y-121677952D01*
X162071336Y-121686720D01*
X162058710Y-121694288D01*
X162045403Y-121700582D01*
X162031543Y-121705541D01*
X162017264Y-121709118D01*
X162002703Y-121711278D01*
X161988000Y-121712000D01*
X160338000Y-121712000D01*
X160323297Y-121711278D01*
X160308736Y-121709118D01*
X160294457Y-121705541D01*
X160280597Y-121700582D01*
X160267290Y-121694288D01*
X160254664Y-121686720D01*
X160242841Y-121677952D01*
X160231934Y-121668066D01*
X160222048Y-121657159D01*
X160213280Y-121645336D01*
X160205712Y-121632710D01*
X160199418Y-121619403D01*
X160194459Y-121605543D01*
X160190882Y-121591264D01*
X160188722Y-121576703D01*
X160188000Y-121562000D01*
X160188000Y-121262000D01*
X160188722Y-121247297D01*
X160190882Y-121232736D01*
X160194459Y-121218457D01*
X160199418Y-121204597D01*
X160205712Y-121191290D01*
X160213280Y-121178664D01*
X160222048Y-121166841D01*
X160231934Y-121155934D01*
X160242841Y-121146048D01*
X160254664Y-121137280D01*
X160267290Y-121129712D01*
X160280597Y-121123418D01*
X160294457Y-121118459D01*
X160308736Y-121114882D01*
X160323297Y-121112722D01*
X160338000Y-121112000D01*
X161988000Y-121112000D01*
X162002703Y-121112722D01*
X162002703Y-121112722D01*
G37*
D22*
X161163000Y-121412000D03*
D23*
X140970000Y-76200000D03*
X145970000Y-76200000D03*
X150970000Y-76200000D03*
X115730000Y-76200000D03*
X120730000Y-76200000D03*
X125730000Y-76200000D03*
X107315000Y-120205500D03*
X112315000Y-120205500D03*
X117315000Y-120205500D03*
D19*
G36*
X118909703Y-104940722D02*
G01*
X118924264Y-104942882D01*
X118938543Y-104946459D01*
X118952403Y-104951418D01*
X118965710Y-104957712D01*
X118978336Y-104965280D01*
X118990159Y-104974048D01*
X119001066Y-104983934D01*
X119010952Y-104994841D01*
X119019720Y-105006664D01*
X119027288Y-105019290D01*
X119033582Y-105032597D01*
X119038541Y-105046457D01*
X119042118Y-105060736D01*
X119044278Y-105075297D01*
X119045000Y-105090000D01*
X119045000Y-106740000D01*
X119044278Y-106754703D01*
X119042118Y-106769264D01*
X119038541Y-106783543D01*
X119033582Y-106797403D01*
X119027288Y-106810710D01*
X119019720Y-106823336D01*
X119010952Y-106835159D01*
X119001066Y-106846066D01*
X118990159Y-106855952D01*
X118978336Y-106864720D01*
X118965710Y-106872288D01*
X118952403Y-106878582D01*
X118938543Y-106883541D01*
X118924264Y-106887118D01*
X118909703Y-106889278D01*
X118895000Y-106890000D01*
X118595000Y-106890000D01*
X118580297Y-106889278D01*
X118565736Y-106887118D01*
X118551457Y-106883541D01*
X118537597Y-106878582D01*
X118524290Y-106872288D01*
X118511664Y-106864720D01*
X118499841Y-106855952D01*
X118488934Y-106846066D01*
X118479048Y-106835159D01*
X118470280Y-106823336D01*
X118462712Y-106810710D01*
X118456418Y-106797403D01*
X118451459Y-106783543D01*
X118447882Y-106769264D01*
X118445722Y-106754703D01*
X118445000Y-106740000D01*
X118445000Y-105090000D01*
X118445722Y-105075297D01*
X118447882Y-105060736D01*
X118451459Y-105046457D01*
X118456418Y-105032597D01*
X118462712Y-105019290D01*
X118470280Y-105006664D01*
X118479048Y-104994841D01*
X118488934Y-104983934D01*
X118499841Y-104974048D01*
X118511664Y-104965280D01*
X118524290Y-104957712D01*
X118537597Y-104951418D01*
X118551457Y-104946459D01*
X118565736Y-104942882D01*
X118580297Y-104940722D01*
X118595000Y-104940000D01*
X118895000Y-104940000D01*
X118909703Y-104940722D01*
X118909703Y-104940722D01*
G37*
D22*
X118745000Y-105915000D03*
D19*
G36*
X120179703Y-104940722D02*
G01*
X120194264Y-104942882D01*
X120208543Y-104946459D01*
X120222403Y-104951418D01*
X120235710Y-104957712D01*
X120248336Y-104965280D01*
X120260159Y-104974048D01*
X120271066Y-104983934D01*
X120280952Y-104994841D01*
X120289720Y-105006664D01*
X120297288Y-105019290D01*
X120303582Y-105032597D01*
X120308541Y-105046457D01*
X120312118Y-105060736D01*
X120314278Y-105075297D01*
X120315000Y-105090000D01*
X120315000Y-106740000D01*
X120314278Y-106754703D01*
X120312118Y-106769264D01*
X120308541Y-106783543D01*
X120303582Y-106797403D01*
X120297288Y-106810710D01*
X120289720Y-106823336D01*
X120280952Y-106835159D01*
X120271066Y-106846066D01*
X120260159Y-106855952D01*
X120248336Y-106864720D01*
X120235710Y-106872288D01*
X120222403Y-106878582D01*
X120208543Y-106883541D01*
X120194264Y-106887118D01*
X120179703Y-106889278D01*
X120165000Y-106890000D01*
X119865000Y-106890000D01*
X119850297Y-106889278D01*
X119835736Y-106887118D01*
X119821457Y-106883541D01*
X119807597Y-106878582D01*
X119794290Y-106872288D01*
X119781664Y-106864720D01*
X119769841Y-106855952D01*
X119758934Y-106846066D01*
X119749048Y-106835159D01*
X119740280Y-106823336D01*
X119732712Y-106810710D01*
X119726418Y-106797403D01*
X119721459Y-106783543D01*
X119717882Y-106769264D01*
X119715722Y-106754703D01*
X119715000Y-106740000D01*
X119715000Y-105090000D01*
X119715722Y-105075297D01*
X119717882Y-105060736D01*
X119721459Y-105046457D01*
X119726418Y-105032597D01*
X119732712Y-105019290D01*
X119740280Y-105006664D01*
X119749048Y-104994841D01*
X119758934Y-104983934D01*
X119769841Y-104974048D01*
X119781664Y-104965280D01*
X119794290Y-104957712D01*
X119807597Y-104951418D01*
X119821457Y-104946459D01*
X119835736Y-104942882D01*
X119850297Y-104940722D01*
X119865000Y-104940000D01*
X120165000Y-104940000D01*
X120179703Y-104940722D01*
X120179703Y-104940722D01*
G37*
D22*
X120015000Y-105915000D03*
D19*
G36*
X121449703Y-104940722D02*
G01*
X121464264Y-104942882D01*
X121478543Y-104946459D01*
X121492403Y-104951418D01*
X121505710Y-104957712D01*
X121518336Y-104965280D01*
X121530159Y-104974048D01*
X121541066Y-104983934D01*
X121550952Y-104994841D01*
X121559720Y-105006664D01*
X121567288Y-105019290D01*
X121573582Y-105032597D01*
X121578541Y-105046457D01*
X121582118Y-105060736D01*
X121584278Y-105075297D01*
X121585000Y-105090000D01*
X121585000Y-106740000D01*
X121584278Y-106754703D01*
X121582118Y-106769264D01*
X121578541Y-106783543D01*
X121573582Y-106797403D01*
X121567288Y-106810710D01*
X121559720Y-106823336D01*
X121550952Y-106835159D01*
X121541066Y-106846066D01*
X121530159Y-106855952D01*
X121518336Y-106864720D01*
X121505710Y-106872288D01*
X121492403Y-106878582D01*
X121478543Y-106883541D01*
X121464264Y-106887118D01*
X121449703Y-106889278D01*
X121435000Y-106890000D01*
X121135000Y-106890000D01*
X121120297Y-106889278D01*
X121105736Y-106887118D01*
X121091457Y-106883541D01*
X121077597Y-106878582D01*
X121064290Y-106872288D01*
X121051664Y-106864720D01*
X121039841Y-106855952D01*
X121028934Y-106846066D01*
X121019048Y-106835159D01*
X121010280Y-106823336D01*
X121002712Y-106810710D01*
X120996418Y-106797403D01*
X120991459Y-106783543D01*
X120987882Y-106769264D01*
X120985722Y-106754703D01*
X120985000Y-106740000D01*
X120985000Y-105090000D01*
X120985722Y-105075297D01*
X120987882Y-105060736D01*
X120991459Y-105046457D01*
X120996418Y-105032597D01*
X121002712Y-105019290D01*
X121010280Y-105006664D01*
X121019048Y-104994841D01*
X121028934Y-104983934D01*
X121039841Y-104974048D01*
X121051664Y-104965280D01*
X121064290Y-104957712D01*
X121077597Y-104951418D01*
X121091457Y-104946459D01*
X121105736Y-104942882D01*
X121120297Y-104940722D01*
X121135000Y-104940000D01*
X121435000Y-104940000D01*
X121449703Y-104940722D01*
X121449703Y-104940722D01*
G37*
D22*
X121285000Y-105915000D03*
D19*
G36*
X122719703Y-104940722D02*
G01*
X122734264Y-104942882D01*
X122748543Y-104946459D01*
X122762403Y-104951418D01*
X122775710Y-104957712D01*
X122788336Y-104965280D01*
X122800159Y-104974048D01*
X122811066Y-104983934D01*
X122820952Y-104994841D01*
X122829720Y-105006664D01*
X122837288Y-105019290D01*
X122843582Y-105032597D01*
X122848541Y-105046457D01*
X122852118Y-105060736D01*
X122854278Y-105075297D01*
X122855000Y-105090000D01*
X122855000Y-106740000D01*
X122854278Y-106754703D01*
X122852118Y-106769264D01*
X122848541Y-106783543D01*
X122843582Y-106797403D01*
X122837288Y-106810710D01*
X122829720Y-106823336D01*
X122820952Y-106835159D01*
X122811066Y-106846066D01*
X122800159Y-106855952D01*
X122788336Y-106864720D01*
X122775710Y-106872288D01*
X122762403Y-106878582D01*
X122748543Y-106883541D01*
X122734264Y-106887118D01*
X122719703Y-106889278D01*
X122705000Y-106890000D01*
X122405000Y-106890000D01*
X122390297Y-106889278D01*
X122375736Y-106887118D01*
X122361457Y-106883541D01*
X122347597Y-106878582D01*
X122334290Y-106872288D01*
X122321664Y-106864720D01*
X122309841Y-106855952D01*
X122298934Y-106846066D01*
X122289048Y-106835159D01*
X122280280Y-106823336D01*
X122272712Y-106810710D01*
X122266418Y-106797403D01*
X122261459Y-106783543D01*
X122257882Y-106769264D01*
X122255722Y-106754703D01*
X122255000Y-106740000D01*
X122255000Y-105090000D01*
X122255722Y-105075297D01*
X122257882Y-105060736D01*
X122261459Y-105046457D01*
X122266418Y-105032597D01*
X122272712Y-105019290D01*
X122280280Y-105006664D01*
X122289048Y-104994841D01*
X122298934Y-104983934D01*
X122309841Y-104974048D01*
X122321664Y-104965280D01*
X122334290Y-104957712D01*
X122347597Y-104951418D01*
X122361457Y-104946459D01*
X122375736Y-104942882D01*
X122390297Y-104940722D01*
X122405000Y-104940000D01*
X122705000Y-104940000D01*
X122719703Y-104940722D01*
X122719703Y-104940722D01*
G37*
D22*
X122555000Y-105915000D03*
D19*
G36*
X122719703Y-99990722D02*
G01*
X122734264Y-99992882D01*
X122748543Y-99996459D01*
X122762403Y-100001418D01*
X122775710Y-100007712D01*
X122788336Y-100015280D01*
X122800159Y-100024048D01*
X122811066Y-100033934D01*
X122820952Y-100044841D01*
X122829720Y-100056664D01*
X122837288Y-100069290D01*
X122843582Y-100082597D01*
X122848541Y-100096457D01*
X122852118Y-100110736D01*
X122854278Y-100125297D01*
X122855000Y-100140000D01*
X122855000Y-101790000D01*
X122854278Y-101804703D01*
X122852118Y-101819264D01*
X122848541Y-101833543D01*
X122843582Y-101847403D01*
X122837288Y-101860710D01*
X122829720Y-101873336D01*
X122820952Y-101885159D01*
X122811066Y-101896066D01*
X122800159Y-101905952D01*
X122788336Y-101914720D01*
X122775710Y-101922288D01*
X122762403Y-101928582D01*
X122748543Y-101933541D01*
X122734264Y-101937118D01*
X122719703Y-101939278D01*
X122705000Y-101940000D01*
X122405000Y-101940000D01*
X122390297Y-101939278D01*
X122375736Y-101937118D01*
X122361457Y-101933541D01*
X122347597Y-101928582D01*
X122334290Y-101922288D01*
X122321664Y-101914720D01*
X122309841Y-101905952D01*
X122298934Y-101896066D01*
X122289048Y-101885159D01*
X122280280Y-101873336D01*
X122272712Y-101860710D01*
X122266418Y-101847403D01*
X122261459Y-101833543D01*
X122257882Y-101819264D01*
X122255722Y-101804703D01*
X122255000Y-101790000D01*
X122255000Y-100140000D01*
X122255722Y-100125297D01*
X122257882Y-100110736D01*
X122261459Y-100096457D01*
X122266418Y-100082597D01*
X122272712Y-100069290D01*
X122280280Y-100056664D01*
X122289048Y-100044841D01*
X122298934Y-100033934D01*
X122309841Y-100024048D01*
X122321664Y-100015280D01*
X122334290Y-100007712D01*
X122347597Y-100001418D01*
X122361457Y-99996459D01*
X122375736Y-99992882D01*
X122390297Y-99990722D01*
X122405000Y-99990000D01*
X122705000Y-99990000D01*
X122719703Y-99990722D01*
X122719703Y-99990722D01*
G37*
D22*
X122555000Y-100965000D03*
D19*
G36*
X121449703Y-99990722D02*
G01*
X121464264Y-99992882D01*
X121478543Y-99996459D01*
X121492403Y-100001418D01*
X121505710Y-100007712D01*
X121518336Y-100015280D01*
X121530159Y-100024048D01*
X121541066Y-100033934D01*
X121550952Y-100044841D01*
X121559720Y-100056664D01*
X121567288Y-100069290D01*
X121573582Y-100082597D01*
X121578541Y-100096457D01*
X121582118Y-100110736D01*
X121584278Y-100125297D01*
X121585000Y-100140000D01*
X121585000Y-101790000D01*
X121584278Y-101804703D01*
X121582118Y-101819264D01*
X121578541Y-101833543D01*
X121573582Y-101847403D01*
X121567288Y-101860710D01*
X121559720Y-101873336D01*
X121550952Y-101885159D01*
X121541066Y-101896066D01*
X121530159Y-101905952D01*
X121518336Y-101914720D01*
X121505710Y-101922288D01*
X121492403Y-101928582D01*
X121478543Y-101933541D01*
X121464264Y-101937118D01*
X121449703Y-101939278D01*
X121435000Y-101940000D01*
X121135000Y-101940000D01*
X121120297Y-101939278D01*
X121105736Y-101937118D01*
X121091457Y-101933541D01*
X121077597Y-101928582D01*
X121064290Y-101922288D01*
X121051664Y-101914720D01*
X121039841Y-101905952D01*
X121028934Y-101896066D01*
X121019048Y-101885159D01*
X121010280Y-101873336D01*
X121002712Y-101860710D01*
X120996418Y-101847403D01*
X120991459Y-101833543D01*
X120987882Y-101819264D01*
X120985722Y-101804703D01*
X120985000Y-101790000D01*
X120985000Y-100140000D01*
X120985722Y-100125297D01*
X120987882Y-100110736D01*
X120991459Y-100096457D01*
X120996418Y-100082597D01*
X121002712Y-100069290D01*
X121010280Y-100056664D01*
X121019048Y-100044841D01*
X121028934Y-100033934D01*
X121039841Y-100024048D01*
X121051664Y-100015280D01*
X121064290Y-100007712D01*
X121077597Y-100001418D01*
X121091457Y-99996459D01*
X121105736Y-99992882D01*
X121120297Y-99990722D01*
X121135000Y-99990000D01*
X121435000Y-99990000D01*
X121449703Y-99990722D01*
X121449703Y-99990722D01*
G37*
D22*
X121285000Y-100965000D03*
D19*
G36*
X120179703Y-99990722D02*
G01*
X120194264Y-99992882D01*
X120208543Y-99996459D01*
X120222403Y-100001418D01*
X120235710Y-100007712D01*
X120248336Y-100015280D01*
X120260159Y-100024048D01*
X120271066Y-100033934D01*
X120280952Y-100044841D01*
X120289720Y-100056664D01*
X120297288Y-100069290D01*
X120303582Y-100082597D01*
X120308541Y-100096457D01*
X120312118Y-100110736D01*
X120314278Y-100125297D01*
X120315000Y-100140000D01*
X120315000Y-101790000D01*
X120314278Y-101804703D01*
X120312118Y-101819264D01*
X120308541Y-101833543D01*
X120303582Y-101847403D01*
X120297288Y-101860710D01*
X120289720Y-101873336D01*
X120280952Y-101885159D01*
X120271066Y-101896066D01*
X120260159Y-101905952D01*
X120248336Y-101914720D01*
X120235710Y-101922288D01*
X120222403Y-101928582D01*
X120208543Y-101933541D01*
X120194264Y-101937118D01*
X120179703Y-101939278D01*
X120165000Y-101940000D01*
X119865000Y-101940000D01*
X119850297Y-101939278D01*
X119835736Y-101937118D01*
X119821457Y-101933541D01*
X119807597Y-101928582D01*
X119794290Y-101922288D01*
X119781664Y-101914720D01*
X119769841Y-101905952D01*
X119758934Y-101896066D01*
X119749048Y-101885159D01*
X119740280Y-101873336D01*
X119732712Y-101860710D01*
X119726418Y-101847403D01*
X119721459Y-101833543D01*
X119717882Y-101819264D01*
X119715722Y-101804703D01*
X119715000Y-101790000D01*
X119715000Y-100140000D01*
X119715722Y-100125297D01*
X119717882Y-100110736D01*
X119721459Y-100096457D01*
X119726418Y-100082597D01*
X119732712Y-100069290D01*
X119740280Y-100056664D01*
X119749048Y-100044841D01*
X119758934Y-100033934D01*
X119769841Y-100024048D01*
X119781664Y-100015280D01*
X119794290Y-100007712D01*
X119807597Y-100001418D01*
X119821457Y-99996459D01*
X119835736Y-99992882D01*
X119850297Y-99990722D01*
X119865000Y-99990000D01*
X120165000Y-99990000D01*
X120179703Y-99990722D01*
X120179703Y-99990722D01*
G37*
D22*
X120015000Y-100965000D03*
D19*
G36*
X118909703Y-99990722D02*
G01*
X118924264Y-99992882D01*
X118938543Y-99996459D01*
X118952403Y-100001418D01*
X118965710Y-100007712D01*
X118978336Y-100015280D01*
X118990159Y-100024048D01*
X119001066Y-100033934D01*
X119010952Y-100044841D01*
X119019720Y-100056664D01*
X119027288Y-100069290D01*
X119033582Y-100082597D01*
X119038541Y-100096457D01*
X119042118Y-100110736D01*
X119044278Y-100125297D01*
X119045000Y-100140000D01*
X119045000Y-101790000D01*
X119044278Y-101804703D01*
X119042118Y-101819264D01*
X119038541Y-101833543D01*
X119033582Y-101847403D01*
X119027288Y-101860710D01*
X119019720Y-101873336D01*
X119010952Y-101885159D01*
X119001066Y-101896066D01*
X118990159Y-101905952D01*
X118978336Y-101914720D01*
X118965710Y-101922288D01*
X118952403Y-101928582D01*
X118938543Y-101933541D01*
X118924264Y-101937118D01*
X118909703Y-101939278D01*
X118895000Y-101940000D01*
X118595000Y-101940000D01*
X118580297Y-101939278D01*
X118565736Y-101937118D01*
X118551457Y-101933541D01*
X118537597Y-101928582D01*
X118524290Y-101922288D01*
X118511664Y-101914720D01*
X118499841Y-101905952D01*
X118488934Y-101896066D01*
X118479048Y-101885159D01*
X118470280Y-101873336D01*
X118462712Y-101860710D01*
X118456418Y-101847403D01*
X118451459Y-101833543D01*
X118447882Y-101819264D01*
X118445722Y-101804703D01*
X118445000Y-101790000D01*
X118445000Y-100140000D01*
X118445722Y-100125297D01*
X118447882Y-100110736D01*
X118451459Y-100096457D01*
X118456418Y-100082597D01*
X118462712Y-100069290D01*
X118470280Y-100056664D01*
X118479048Y-100044841D01*
X118488934Y-100033934D01*
X118499841Y-100024048D01*
X118511664Y-100015280D01*
X118524290Y-100007712D01*
X118537597Y-100001418D01*
X118551457Y-99996459D01*
X118565736Y-99992882D01*
X118580297Y-99990722D01*
X118595000Y-99990000D01*
X118895000Y-99990000D01*
X118909703Y-99990722D01*
X118909703Y-99990722D01*
G37*
D22*
X118745000Y-100965000D03*
D24*
X115970000Y-86487000D03*
X115970000Y-84587000D03*
X113170000Y-85537000D03*
D25*
X142759000Y-101165000D03*
X143409000Y-101165000D03*
X144059000Y-101165000D03*
X144709000Y-101165000D03*
X145359000Y-101165000D03*
X146009000Y-101165000D03*
X146659000Y-101165000D03*
X147309000Y-101165000D03*
X147309000Y-94415000D03*
X146659000Y-94415000D03*
X146009000Y-94415000D03*
X145359000Y-94415000D03*
X144709000Y-94415000D03*
X144059000Y-94415000D03*
X143409000Y-94415000D03*
X142759000Y-94415000D03*
D26*
X145034000Y-97790000D03*
D22*
X147234000Y-98890000D03*
X147234000Y-97790000D03*
X147234000Y-96690000D03*
X146134000Y-96690000D03*
X146134000Y-97790000D03*
X146134000Y-98890000D03*
X145034000Y-96690000D03*
X145034000Y-97790000D03*
X145034000Y-98890000D03*
X143934000Y-96690000D03*
X143934000Y-97790000D03*
X143934000Y-98890000D03*
X142834000Y-96690000D03*
X142834000Y-97790000D03*
X142834000Y-98890000D03*
D27*
X137525000Y-115310000D03*
X135525000Y-115310000D03*
D28*
X136525000Y-120560000D03*
D29*
X118105500Y-116951000D03*
X118105500Y-114951000D03*
D30*
X112855500Y-115951000D03*
D31*
X109982000Y-97282000D03*
X111252000Y-97282000D03*
D32*
X108712000Y-97282000D03*
D33*
X101600000Y-110490000D03*
D34*
X104140000Y-110490000D03*
D10*
X145288000Y-104140000D03*
X145288000Y-114300000D03*
D35*
X166370000Y-107315000D03*
X166370000Y-88265000D03*
D31*
X109982000Y-110490000D03*
X111252000Y-110490000D03*
D32*
X108712000Y-110490000D03*
D33*
X101600000Y-97282000D03*
D34*
X104140000Y-97282000D03*
D19*
G36*
X140984504Y-117598704D02*
G01*
X141008773Y-117602304D01*
X141032571Y-117608265D01*
X141055671Y-117616530D01*
X141077849Y-117627020D01*
X141098893Y-117639633D01*
X141118598Y-117654247D01*
X141136777Y-117670723D01*
X141153253Y-117688902D01*
X141167867Y-117708607D01*
X141180480Y-117729651D01*
X141190970Y-117751829D01*
X141199235Y-117774929D01*
X141205196Y-117798727D01*
X141208796Y-117822996D01*
X141210000Y-117847500D01*
X141210000Y-118772500D01*
X141208796Y-118797004D01*
X141205196Y-118821273D01*
X141199235Y-118845071D01*
X141190970Y-118868171D01*
X141180480Y-118890349D01*
X141167867Y-118911393D01*
X141153253Y-118931098D01*
X141136777Y-118949277D01*
X141118598Y-118965753D01*
X141098893Y-118980367D01*
X141077849Y-118992980D01*
X141055671Y-119003470D01*
X141032571Y-119011735D01*
X141008773Y-119017696D01*
X140984504Y-119021296D01*
X140960000Y-119022500D01*
X139710000Y-119022500D01*
X139685496Y-119021296D01*
X139661227Y-119017696D01*
X139637429Y-119011735D01*
X139614329Y-119003470D01*
X139592151Y-118992980D01*
X139571107Y-118980367D01*
X139551402Y-118965753D01*
X139533223Y-118949277D01*
X139516747Y-118931098D01*
X139502133Y-118911393D01*
X139489520Y-118890349D01*
X139479030Y-118868171D01*
X139470765Y-118845071D01*
X139464804Y-118821273D01*
X139461204Y-118797004D01*
X139460000Y-118772500D01*
X139460000Y-117847500D01*
X139461204Y-117822996D01*
X139464804Y-117798727D01*
X139470765Y-117774929D01*
X139479030Y-117751829D01*
X139489520Y-117729651D01*
X139502133Y-117708607D01*
X139516747Y-117688902D01*
X139533223Y-117670723D01*
X139551402Y-117654247D01*
X139571107Y-117639633D01*
X139592151Y-117627020D01*
X139614329Y-117616530D01*
X139637429Y-117608265D01*
X139661227Y-117602304D01*
X139685496Y-117598704D01*
X139710000Y-117597500D01*
X140960000Y-117597500D01*
X140984504Y-117598704D01*
X140984504Y-117598704D01*
G37*
D36*
X140335000Y-118310000D03*
D19*
G36*
X140984504Y-120573704D02*
G01*
X141008773Y-120577304D01*
X141032571Y-120583265D01*
X141055671Y-120591530D01*
X141077849Y-120602020D01*
X141098893Y-120614633D01*
X141118598Y-120629247D01*
X141136777Y-120645723D01*
X141153253Y-120663902D01*
X141167867Y-120683607D01*
X141180480Y-120704651D01*
X141190970Y-120726829D01*
X141199235Y-120749929D01*
X141205196Y-120773727D01*
X141208796Y-120797996D01*
X141210000Y-120822500D01*
X141210000Y-121747500D01*
X141208796Y-121772004D01*
X141205196Y-121796273D01*
X141199235Y-121820071D01*
X141190970Y-121843171D01*
X141180480Y-121865349D01*
X141167867Y-121886393D01*
X141153253Y-121906098D01*
X141136777Y-121924277D01*
X141118598Y-121940753D01*
X141098893Y-121955367D01*
X141077849Y-121967980D01*
X141055671Y-121978470D01*
X141032571Y-121986735D01*
X141008773Y-121992696D01*
X140984504Y-121996296D01*
X140960000Y-121997500D01*
X139710000Y-121997500D01*
X139685496Y-121996296D01*
X139661227Y-121992696D01*
X139637429Y-121986735D01*
X139614329Y-121978470D01*
X139592151Y-121967980D01*
X139571107Y-121955367D01*
X139551402Y-121940753D01*
X139533223Y-121924277D01*
X139516747Y-121906098D01*
X139502133Y-121886393D01*
X139489520Y-121865349D01*
X139479030Y-121843171D01*
X139470765Y-121820071D01*
X139464804Y-121796273D01*
X139461204Y-121772004D01*
X139460000Y-121747500D01*
X139460000Y-120822500D01*
X139461204Y-120797996D01*
X139464804Y-120773727D01*
X139470765Y-120749929D01*
X139479030Y-120726829D01*
X139489520Y-120704651D01*
X139502133Y-120683607D01*
X139516747Y-120663902D01*
X139533223Y-120645723D01*
X139551402Y-120629247D01*
X139571107Y-120614633D01*
X139592151Y-120602020D01*
X139614329Y-120591530D01*
X139637429Y-120583265D01*
X139661227Y-120577304D01*
X139685496Y-120573704D01*
X139710000Y-120572500D01*
X140960000Y-120572500D01*
X140984504Y-120573704D01*
X140984504Y-120573704D01*
G37*
D36*
X140335000Y-121285000D03*
D19*
G36*
X140984504Y-123313704D02*
G01*
X141008773Y-123317304D01*
X141032571Y-123323265D01*
X141055671Y-123331530D01*
X141077849Y-123342020D01*
X141098893Y-123354633D01*
X141118598Y-123369247D01*
X141136777Y-123385723D01*
X141153253Y-123403902D01*
X141167867Y-123423607D01*
X141180480Y-123444651D01*
X141190970Y-123466829D01*
X141199235Y-123489929D01*
X141205196Y-123513727D01*
X141208796Y-123537996D01*
X141210000Y-123562500D01*
X141210000Y-124487500D01*
X141208796Y-124512004D01*
X141205196Y-124536273D01*
X141199235Y-124560071D01*
X141190970Y-124583171D01*
X141180480Y-124605349D01*
X141167867Y-124626393D01*
X141153253Y-124646098D01*
X141136777Y-124664277D01*
X141118598Y-124680753D01*
X141098893Y-124695367D01*
X141077849Y-124707980D01*
X141055671Y-124718470D01*
X141032571Y-124726735D01*
X141008773Y-124732696D01*
X140984504Y-124736296D01*
X140960000Y-124737500D01*
X139710000Y-124737500D01*
X139685496Y-124736296D01*
X139661227Y-124732696D01*
X139637429Y-124726735D01*
X139614329Y-124718470D01*
X139592151Y-124707980D01*
X139571107Y-124695367D01*
X139551402Y-124680753D01*
X139533223Y-124664277D01*
X139516747Y-124646098D01*
X139502133Y-124626393D01*
X139489520Y-124605349D01*
X139479030Y-124583171D01*
X139470765Y-124560071D01*
X139464804Y-124536273D01*
X139461204Y-124512004D01*
X139460000Y-124487500D01*
X139460000Y-123562500D01*
X139461204Y-123537996D01*
X139464804Y-123513727D01*
X139470765Y-123489929D01*
X139479030Y-123466829D01*
X139489520Y-123444651D01*
X139502133Y-123423607D01*
X139516747Y-123403902D01*
X139533223Y-123385723D01*
X139551402Y-123369247D01*
X139571107Y-123354633D01*
X139592151Y-123342020D01*
X139614329Y-123331530D01*
X139637429Y-123323265D01*
X139661227Y-123317304D01*
X139685496Y-123313704D01*
X139710000Y-123312500D01*
X140960000Y-123312500D01*
X140984504Y-123313704D01*
X140984504Y-123313704D01*
G37*
D36*
X140335000Y-124025000D03*
D19*
G36*
X140984504Y-126288704D02*
G01*
X141008773Y-126292304D01*
X141032571Y-126298265D01*
X141055671Y-126306530D01*
X141077849Y-126317020D01*
X141098893Y-126329633D01*
X141118598Y-126344247D01*
X141136777Y-126360723D01*
X141153253Y-126378902D01*
X141167867Y-126398607D01*
X141180480Y-126419651D01*
X141190970Y-126441829D01*
X141199235Y-126464929D01*
X141205196Y-126488727D01*
X141208796Y-126512996D01*
X141210000Y-126537500D01*
X141210000Y-127462500D01*
X141208796Y-127487004D01*
X141205196Y-127511273D01*
X141199235Y-127535071D01*
X141190970Y-127558171D01*
X141180480Y-127580349D01*
X141167867Y-127601393D01*
X141153253Y-127621098D01*
X141136777Y-127639277D01*
X141118598Y-127655753D01*
X141098893Y-127670367D01*
X141077849Y-127682980D01*
X141055671Y-127693470D01*
X141032571Y-127701735D01*
X141008773Y-127707696D01*
X140984504Y-127711296D01*
X140960000Y-127712500D01*
X139710000Y-127712500D01*
X139685496Y-127711296D01*
X139661227Y-127707696D01*
X139637429Y-127701735D01*
X139614329Y-127693470D01*
X139592151Y-127682980D01*
X139571107Y-127670367D01*
X139551402Y-127655753D01*
X139533223Y-127639277D01*
X139516747Y-127621098D01*
X139502133Y-127601393D01*
X139489520Y-127580349D01*
X139479030Y-127558171D01*
X139470765Y-127535071D01*
X139464804Y-127511273D01*
X139461204Y-127487004D01*
X139460000Y-127462500D01*
X139460000Y-126537500D01*
X139461204Y-126512996D01*
X139464804Y-126488727D01*
X139470765Y-126464929D01*
X139479030Y-126441829D01*
X139489520Y-126419651D01*
X139502133Y-126398607D01*
X139516747Y-126378902D01*
X139533223Y-126360723D01*
X139551402Y-126344247D01*
X139571107Y-126329633D01*
X139592151Y-126317020D01*
X139614329Y-126306530D01*
X139637429Y-126298265D01*
X139661227Y-126292304D01*
X139685496Y-126288704D01*
X139710000Y-126287500D01*
X140960000Y-126287500D01*
X140984504Y-126288704D01*
X140984504Y-126288704D01*
G37*
D36*
X140335000Y-127000000D03*
D19*
G36*
X144794504Y-117598704D02*
G01*
X144818773Y-117602304D01*
X144842571Y-117608265D01*
X144865671Y-117616530D01*
X144887849Y-117627020D01*
X144908893Y-117639633D01*
X144928598Y-117654247D01*
X144946777Y-117670723D01*
X144963253Y-117688902D01*
X144977867Y-117708607D01*
X144990480Y-117729651D01*
X145000970Y-117751829D01*
X145009235Y-117774929D01*
X145015196Y-117798727D01*
X145018796Y-117822996D01*
X145020000Y-117847500D01*
X145020000Y-118772500D01*
X145018796Y-118797004D01*
X145015196Y-118821273D01*
X145009235Y-118845071D01*
X145000970Y-118868171D01*
X144990480Y-118890349D01*
X144977867Y-118911393D01*
X144963253Y-118931098D01*
X144946777Y-118949277D01*
X144928598Y-118965753D01*
X144908893Y-118980367D01*
X144887849Y-118992980D01*
X144865671Y-119003470D01*
X144842571Y-119011735D01*
X144818773Y-119017696D01*
X144794504Y-119021296D01*
X144770000Y-119022500D01*
X143520000Y-119022500D01*
X143495496Y-119021296D01*
X143471227Y-119017696D01*
X143447429Y-119011735D01*
X143424329Y-119003470D01*
X143402151Y-118992980D01*
X143381107Y-118980367D01*
X143361402Y-118965753D01*
X143343223Y-118949277D01*
X143326747Y-118931098D01*
X143312133Y-118911393D01*
X143299520Y-118890349D01*
X143289030Y-118868171D01*
X143280765Y-118845071D01*
X143274804Y-118821273D01*
X143271204Y-118797004D01*
X143270000Y-118772500D01*
X143270000Y-117847500D01*
X143271204Y-117822996D01*
X143274804Y-117798727D01*
X143280765Y-117774929D01*
X143289030Y-117751829D01*
X143299520Y-117729651D01*
X143312133Y-117708607D01*
X143326747Y-117688902D01*
X143343223Y-117670723D01*
X143361402Y-117654247D01*
X143381107Y-117639633D01*
X143402151Y-117627020D01*
X143424329Y-117616530D01*
X143447429Y-117608265D01*
X143471227Y-117602304D01*
X143495496Y-117598704D01*
X143520000Y-117597500D01*
X144770000Y-117597500D01*
X144794504Y-117598704D01*
X144794504Y-117598704D01*
G37*
D36*
X144145000Y-118310000D03*
D19*
G36*
X144794504Y-120573704D02*
G01*
X144818773Y-120577304D01*
X144842571Y-120583265D01*
X144865671Y-120591530D01*
X144887849Y-120602020D01*
X144908893Y-120614633D01*
X144928598Y-120629247D01*
X144946777Y-120645723D01*
X144963253Y-120663902D01*
X144977867Y-120683607D01*
X144990480Y-120704651D01*
X145000970Y-120726829D01*
X145009235Y-120749929D01*
X145015196Y-120773727D01*
X145018796Y-120797996D01*
X145020000Y-120822500D01*
X145020000Y-121747500D01*
X145018796Y-121772004D01*
X145015196Y-121796273D01*
X145009235Y-121820071D01*
X145000970Y-121843171D01*
X144990480Y-121865349D01*
X144977867Y-121886393D01*
X144963253Y-121906098D01*
X144946777Y-121924277D01*
X144928598Y-121940753D01*
X144908893Y-121955367D01*
X144887849Y-121967980D01*
X144865671Y-121978470D01*
X144842571Y-121986735D01*
X144818773Y-121992696D01*
X144794504Y-121996296D01*
X144770000Y-121997500D01*
X143520000Y-121997500D01*
X143495496Y-121996296D01*
X143471227Y-121992696D01*
X143447429Y-121986735D01*
X143424329Y-121978470D01*
X143402151Y-121967980D01*
X143381107Y-121955367D01*
X143361402Y-121940753D01*
X143343223Y-121924277D01*
X143326747Y-121906098D01*
X143312133Y-121886393D01*
X143299520Y-121865349D01*
X143289030Y-121843171D01*
X143280765Y-121820071D01*
X143274804Y-121796273D01*
X143271204Y-121772004D01*
X143270000Y-121747500D01*
X143270000Y-120822500D01*
X143271204Y-120797996D01*
X143274804Y-120773727D01*
X143280765Y-120749929D01*
X143289030Y-120726829D01*
X143299520Y-120704651D01*
X143312133Y-120683607D01*
X143326747Y-120663902D01*
X143343223Y-120645723D01*
X143361402Y-120629247D01*
X143381107Y-120614633D01*
X143402151Y-120602020D01*
X143424329Y-120591530D01*
X143447429Y-120583265D01*
X143471227Y-120577304D01*
X143495496Y-120573704D01*
X143520000Y-120572500D01*
X144770000Y-120572500D01*
X144794504Y-120573704D01*
X144794504Y-120573704D01*
G37*
D36*
X144145000Y-121285000D03*
D19*
G36*
X144794504Y-123313704D02*
G01*
X144818773Y-123317304D01*
X144842571Y-123323265D01*
X144865671Y-123331530D01*
X144887849Y-123342020D01*
X144908893Y-123354633D01*
X144928598Y-123369247D01*
X144946777Y-123385723D01*
X144963253Y-123403902D01*
X144977867Y-123423607D01*
X144990480Y-123444651D01*
X145000970Y-123466829D01*
X145009235Y-123489929D01*
X145015196Y-123513727D01*
X145018796Y-123537996D01*
X145020000Y-123562500D01*
X145020000Y-124487500D01*
X145018796Y-124512004D01*
X145015196Y-124536273D01*
X145009235Y-124560071D01*
X145000970Y-124583171D01*
X144990480Y-124605349D01*
X144977867Y-124626393D01*
X144963253Y-124646098D01*
X144946777Y-124664277D01*
X144928598Y-124680753D01*
X144908893Y-124695367D01*
X144887849Y-124707980D01*
X144865671Y-124718470D01*
X144842571Y-124726735D01*
X144818773Y-124732696D01*
X144794504Y-124736296D01*
X144770000Y-124737500D01*
X143520000Y-124737500D01*
X143495496Y-124736296D01*
X143471227Y-124732696D01*
X143447429Y-124726735D01*
X143424329Y-124718470D01*
X143402151Y-124707980D01*
X143381107Y-124695367D01*
X143361402Y-124680753D01*
X143343223Y-124664277D01*
X143326747Y-124646098D01*
X143312133Y-124626393D01*
X143299520Y-124605349D01*
X143289030Y-124583171D01*
X143280765Y-124560071D01*
X143274804Y-124536273D01*
X143271204Y-124512004D01*
X143270000Y-124487500D01*
X143270000Y-123562500D01*
X143271204Y-123537996D01*
X143274804Y-123513727D01*
X143280765Y-123489929D01*
X143289030Y-123466829D01*
X143299520Y-123444651D01*
X143312133Y-123423607D01*
X143326747Y-123403902D01*
X143343223Y-123385723D01*
X143361402Y-123369247D01*
X143381107Y-123354633D01*
X143402151Y-123342020D01*
X143424329Y-123331530D01*
X143447429Y-123323265D01*
X143471227Y-123317304D01*
X143495496Y-123313704D01*
X143520000Y-123312500D01*
X144770000Y-123312500D01*
X144794504Y-123313704D01*
X144794504Y-123313704D01*
G37*
D36*
X144145000Y-124025000D03*
D19*
G36*
X144794504Y-126288704D02*
G01*
X144818773Y-126292304D01*
X144842571Y-126298265D01*
X144865671Y-126306530D01*
X144887849Y-126317020D01*
X144908893Y-126329633D01*
X144928598Y-126344247D01*
X144946777Y-126360723D01*
X144963253Y-126378902D01*
X144977867Y-126398607D01*
X144990480Y-126419651D01*
X145000970Y-126441829D01*
X145009235Y-126464929D01*
X145015196Y-126488727D01*
X145018796Y-126512996D01*
X145020000Y-126537500D01*
X145020000Y-127462500D01*
X145018796Y-127487004D01*
X145015196Y-127511273D01*
X145009235Y-127535071D01*
X145000970Y-127558171D01*
X144990480Y-127580349D01*
X144977867Y-127601393D01*
X144963253Y-127621098D01*
X144946777Y-127639277D01*
X144928598Y-127655753D01*
X144908893Y-127670367D01*
X144887849Y-127682980D01*
X144865671Y-127693470D01*
X144842571Y-127701735D01*
X144818773Y-127707696D01*
X144794504Y-127711296D01*
X144770000Y-127712500D01*
X143520000Y-127712500D01*
X143495496Y-127711296D01*
X143471227Y-127707696D01*
X143447429Y-127701735D01*
X143424329Y-127693470D01*
X143402151Y-127682980D01*
X143381107Y-127670367D01*
X143361402Y-127655753D01*
X143343223Y-127639277D01*
X143326747Y-127621098D01*
X143312133Y-127601393D01*
X143299520Y-127580349D01*
X143289030Y-127558171D01*
X143280765Y-127535071D01*
X143274804Y-127511273D01*
X143271204Y-127487004D01*
X143270000Y-127462500D01*
X143270000Y-126537500D01*
X143271204Y-126512996D01*
X143274804Y-126488727D01*
X143280765Y-126464929D01*
X143289030Y-126441829D01*
X143299520Y-126419651D01*
X143312133Y-126398607D01*
X143326747Y-126378902D01*
X143343223Y-126360723D01*
X143361402Y-126344247D01*
X143381107Y-126329633D01*
X143402151Y-126317020D01*
X143424329Y-126306530D01*
X143447429Y-126298265D01*
X143471227Y-126292304D01*
X143495496Y-126288704D01*
X143520000Y-126287500D01*
X144770000Y-126287500D01*
X144794504Y-126288704D01*
X144794504Y-126288704D01*
G37*
D36*
X144145000Y-127000000D03*
D37*
X160020000Y-73342500D03*
X160020000Y-78105000D03*
X160020000Y-68580000D03*
D19*
G36*
X173374012Y-69772858D02*
G01*
X173431832Y-69781435D01*
X173488532Y-69795638D01*
X173543568Y-69815330D01*
X173596408Y-69840321D01*
X173646544Y-69870372D01*
X173693494Y-69905192D01*
X173736804Y-69944446D01*
X173776058Y-69987756D01*
X173810878Y-70034706D01*
X173840929Y-70084842D01*
X173865920Y-70137682D01*
X173885612Y-70192718D01*
X173899815Y-70249418D01*
X173908392Y-70307238D01*
X173911260Y-70365620D01*
X173911260Y-71556880D01*
X173908392Y-71615262D01*
X173899815Y-71673082D01*
X173885612Y-71729782D01*
X173865920Y-71784818D01*
X173840929Y-71837658D01*
X173810878Y-71887794D01*
X173776058Y-71934744D01*
X173736804Y-71978054D01*
X173693494Y-72017308D01*
X173646544Y-72052128D01*
X173596408Y-72082179D01*
X173543568Y-72107170D01*
X173488532Y-72126862D01*
X173431832Y-72141065D01*
X173374012Y-72149642D01*
X173315630Y-72152510D01*
X172124370Y-72152510D01*
X172065988Y-72149642D01*
X172008168Y-72141065D01*
X171951468Y-72126862D01*
X171896432Y-72107170D01*
X171843592Y-72082179D01*
X171793456Y-72052128D01*
X171746506Y-72017308D01*
X171703196Y-71978054D01*
X171663942Y-71934744D01*
X171629122Y-71887794D01*
X171599071Y-71837658D01*
X171574080Y-71784818D01*
X171554388Y-71729782D01*
X171540185Y-71673082D01*
X171531608Y-71615262D01*
X171528740Y-71556880D01*
X171528740Y-70365620D01*
X171531608Y-70307238D01*
X171540185Y-70249418D01*
X171554388Y-70192718D01*
X171574080Y-70137682D01*
X171599071Y-70084842D01*
X171629122Y-70034706D01*
X171663942Y-69987756D01*
X171703196Y-69944446D01*
X171746506Y-69905192D01*
X171793456Y-69870372D01*
X171843592Y-69840321D01*
X171896432Y-69815330D01*
X171951468Y-69795638D01*
X172008168Y-69781435D01*
X172065988Y-69772858D01*
X172124370Y-69769990D01*
X173315630Y-69769990D01*
X173374012Y-69772858D01*
X173374012Y-69772858D01*
G37*
D38*
X172720000Y-70961250D03*
D19*
G36*
X173374012Y-74535358D02*
G01*
X173431832Y-74543935D01*
X173488532Y-74558138D01*
X173543568Y-74577830D01*
X173596408Y-74602821D01*
X173646544Y-74632872D01*
X173693494Y-74667692D01*
X173736804Y-74706946D01*
X173776058Y-74750256D01*
X173810878Y-74797206D01*
X173840929Y-74847342D01*
X173865920Y-74900182D01*
X173885612Y-74955218D01*
X173899815Y-75011918D01*
X173908392Y-75069738D01*
X173911260Y-75128120D01*
X173911260Y-76319380D01*
X173908392Y-76377762D01*
X173899815Y-76435582D01*
X173885612Y-76492282D01*
X173865920Y-76547318D01*
X173840929Y-76600158D01*
X173810878Y-76650294D01*
X173776058Y-76697244D01*
X173736804Y-76740554D01*
X173693494Y-76779808D01*
X173646544Y-76814628D01*
X173596408Y-76844679D01*
X173543568Y-76869670D01*
X173488532Y-76889362D01*
X173431832Y-76903565D01*
X173374012Y-76912142D01*
X173315630Y-76915010D01*
X172124370Y-76915010D01*
X172065988Y-76912142D01*
X172008168Y-76903565D01*
X171951468Y-76889362D01*
X171896432Y-76869670D01*
X171843592Y-76844679D01*
X171793456Y-76814628D01*
X171746506Y-76779808D01*
X171703196Y-76740554D01*
X171663942Y-76697244D01*
X171629122Y-76650294D01*
X171599071Y-76600158D01*
X171574080Y-76547318D01*
X171554388Y-76492282D01*
X171540185Y-76435582D01*
X171531608Y-76377762D01*
X171528740Y-76319380D01*
X171528740Y-75128120D01*
X171531608Y-75069738D01*
X171540185Y-75011918D01*
X171554388Y-74955218D01*
X171574080Y-74900182D01*
X171599071Y-74847342D01*
X171629122Y-74797206D01*
X171663942Y-74750256D01*
X171703196Y-74706946D01*
X171746506Y-74667692D01*
X171793456Y-74632872D01*
X171843592Y-74602821D01*
X171896432Y-74577830D01*
X171951468Y-74558138D01*
X172008168Y-74543935D01*
X172065988Y-74535358D01*
X172124370Y-74532490D01*
X173315630Y-74532490D01*
X173374012Y-74535358D01*
X173374012Y-74535358D01*
G37*
D38*
X172720000Y-75723750D03*
D39*
X153265000Y-130937000D03*
X139065000Y-130937000D03*
D40*
X141165000Y-130937000D03*
X143165000Y-130937000D03*
X145165000Y-130937000D03*
X147165000Y-130937000D03*
X149165000Y-130937000D03*
X151165000Y-130937000D03*
D39*
X136132000Y-130937000D03*
X121932000Y-130937000D03*
D40*
X124032000Y-130937000D03*
X126032000Y-130937000D03*
X128032000Y-130937000D03*
X130032000Y-130937000D03*
X132032000Y-130937000D03*
X134032000Y-130937000D03*
D19*
G36*
X144413504Y-81864104D02*
G01*
X144437773Y-81867704D01*
X144461571Y-81873665D01*
X144484671Y-81881930D01*
X144506849Y-81892420D01*
X144527893Y-81905033D01*
X144547598Y-81919647D01*
X144565777Y-81936123D01*
X144582253Y-81954302D01*
X144596867Y-81974007D01*
X144609480Y-81995051D01*
X144619970Y-82017229D01*
X144628235Y-82040329D01*
X144634196Y-82064127D01*
X144637796Y-82088396D01*
X144639000Y-82112900D01*
X144639000Y-83037900D01*
X144637796Y-83062404D01*
X144634196Y-83086673D01*
X144628235Y-83110471D01*
X144619970Y-83133571D01*
X144609480Y-83155749D01*
X144596867Y-83176793D01*
X144582253Y-83196498D01*
X144565777Y-83214677D01*
X144547598Y-83231153D01*
X144527893Y-83245767D01*
X144506849Y-83258380D01*
X144484671Y-83268870D01*
X144461571Y-83277135D01*
X144437773Y-83283096D01*
X144413504Y-83286696D01*
X144389000Y-83287900D01*
X143139000Y-83287900D01*
X143114496Y-83286696D01*
X143090227Y-83283096D01*
X143066429Y-83277135D01*
X143043329Y-83268870D01*
X143021151Y-83258380D01*
X143000107Y-83245767D01*
X142980402Y-83231153D01*
X142962223Y-83214677D01*
X142945747Y-83196498D01*
X142931133Y-83176793D01*
X142918520Y-83155749D01*
X142908030Y-83133571D01*
X142899765Y-83110471D01*
X142893804Y-83086673D01*
X142890204Y-83062404D01*
X142889000Y-83037900D01*
X142889000Y-82112900D01*
X142890204Y-82088396D01*
X142893804Y-82064127D01*
X142899765Y-82040329D01*
X142908030Y-82017229D01*
X142918520Y-81995051D01*
X142931133Y-81974007D01*
X142945747Y-81954302D01*
X142962223Y-81936123D01*
X142980402Y-81919647D01*
X143000107Y-81905033D01*
X143021151Y-81892420D01*
X143043329Y-81881930D01*
X143066429Y-81873665D01*
X143090227Y-81867704D01*
X143114496Y-81864104D01*
X143139000Y-81862900D01*
X144389000Y-81862900D01*
X144413504Y-81864104D01*
X144413504Y-81864104D01*
G37*
D36*
X143764000Y-82575400D03*
D19*
G36*
X144413504Y-78889104D02*
G01*
X144437773Y-78892704D01*
X144461571Y-78898665D01*
X144484671Y-78906930D01*
X144506849Y-78917420D01*
X144527893Y-78930033D01*
X144547598Y-78944647D01*
X144565777Y-78961123D01*
X144582253Y-78979302D01*
X144596867Y-78999007D01*
X144609480Y-79020051D01*
X144619970Y-79042229D01*
X144628235Y-79065329D01*
X144634196Y-79089127D01*
X144637796Y-79113396D01*
X144639000Y-79137900D01*
X144639000Y-80062900D01*
X144637796Y-80087404D01*
X144634196Y-80111673D01*
X144628235Y-80135471D01*
X144619970Y-80158571D01*
X144609480Y-80180749D01*
X144596867Y-80201793D01*
X144582253Y-80221498D01*
X144565777Y-80239677D01*
X144547598Y-80256153D01*
X144527893Y-80270767D01*
X144506849Y-80283380D01*
X144484671Y-80293870D01*
X144461571Y-80302135D01*
X144437773Y-80308096D01*
X144413504Y-80311696D01*
X144389000Y-80312900D01*
X143139000Y-80312900D01*
X143114496Y-80311696D01*
X143090227Y-80308096D01*
X143066429Y-80302135D01*
X143043329Y-80293870D01*
X143021151Y-80283380D01*
X143000107Y-80270767D01*
X142980402Y-80256153D01*
X142962223Y-80239677D01*
X142945747Y-80221498D01*
X142931133Y-80201793D01*
X142918520Y-80180749D01*
X142908030Y-80158571D01*
X142899765Y-80135471D01*
X142893804Y-80111673D01*
X142890204Y-80087404D01*
X142889000Y-80062900D01*
X142889000Y-79137900D01*
X142890204Y-79113396D01*
X142893804Y-79089127D01*
X142899765Y-79065329D01*
X142908030Y-79042229D01*
X142918520Y-79020051D01*
X142931133Y-78999007D01*
X142945747Y-78979302D01*
X142962223Y-78961123D01*
X142980402Y-78944647D01*
X143000107Y-78930033D01*
X143021151Y-78917420D01*
X143043329Y-78906930D01*
X143066429Y-78898665D01*
X143090227Y-78892704D01*
X143114496Y-78889104D01*
X143139000Y-78887900D01*
X144389000Y-78887900D01*
X144413504Y-78889104D01*
X144413504Y-78889104D01*
G37*
D36*
X143764000Y-79600400D03*
D19*
G36*
X152033504Y-81865704D02*
G01*
X152057773Y-81869304D01*
X152081571Y-81875265D01*
X152104671Y-81883530D01*
X152126849Y-81894020D01*
X152147893Y-81906633D01*
X152167598Y-81921247D01*
X152185777Y-81937723D01*
X152202253Y-81955902D01*
X152216867Y-81975607D01*
X152229480Y-81996651D01*
X152239970Y-82018829D01*
X152248235Y-82041929D01*
X152254196Y-82065727D01*
X152257796Y-82089996D01*
X152259000Y-82114500D01*
X152259000Y-83039500D01*
X152257796Y-83064004D01*
X152254196Y-83088273D01*
X152248235Y-83112071D01*
X152239970Y-83135171D01*
X152229480Y-83157349D01*
X152216867Y-83178393D01*
X152202253Y-83198098D01*
X152185777Y-83216277D01*
X152167598Y-83232753D01*
X152147893Y-83247367D01*
X152126849Y-83259980D01*
X152104671Y-83270470D01*
X152081571Y-83278735D01*
X152057773Y-83284696D01*
X152033504Y-83288296D01*
X152009000Y-83289500D01*
X150759000Y-83289500D01*
X150734496Y-83288296D01*
X150710227Y-83284696D01*
X150686429Y-83278735D01*
X150663329Y-83270470D01*
X150641151Y-83259980D01*
X150620107Y-83247367D01*
X150600402Y-83232753D01*
X150582223Y-83216277D01*
X150565747Y-83198098D01*
X150551133Y-83178393D01*
X150538520Y-83157349D01*
X150528030Y-83135171D01*
X150519765Y-83112071D01*
X150513804Y-83088273D01*
X150510204Y-83064004D01*
X150509000Y-83039500D01*
X150509000Y-82114500D01*
X150510204Y-82089996D01*
X150513804Y-82065727D01*
X150519765Y-82041929D01*
X150528030Y-82018829D01*
X150538520Y-81996651D01*
X150551133Y-81975607D01*
X150565747Y-81955902D01*
X150582223Y-81937723D01*
X150600402Y-81921247D01*
X150620107Y-81906633D01*
X150641151Y-81894020D01*
X150663329Y-81883530D01*
X150686429Y-81875265D01*
X150710227Y-81869304D01*
X150734496Y-81865704D01*
X150759000Y-81864500D01*
X152009000Y-81864500D01*
X152033504Y-81865704D01*
X152033504Y-81865704D01*
G37*
D36*
X151384000Y-82577000D03*
D19*
G36*
X152033504Y-78890704D02*
G01*
X152057773Y-78894304D01*
X152081571Y-78900265D01*
X152104671Y-78908530D01*
X152126849Y-78919020D01*
X152147893Y-78931633D01*
X152167598Y-78946247D01*
X152185777Y-78962723D01*
X152202253Y-78980902D01*
X152216867Y-79000607D01*
X152229480Y-79021651D01*
X152239970Y-79043829D01*
X152248235Y-79066929D01*
X152254196Y-79090727D01*
X152257796Y-79114996D01*
X152259000Y-79139500D01*
X152259000Y-80064500D01*
X152257796Y-80089004D01*
X152254196Y-80113273D01*
X152248235Y-80137071D01*
X152239970Y-80160171D01*
X152229480Y-80182349D01*
X152216867Y-80203393D01*
X152202253Y-80223098D01*
X152185777Y-80241277D01*
X152167598Y-80257753D01*
X152147893Y-80272367D01*
X152126849Y-80284980D01*
X152104671Y-80295470D01*
X152081571Y-80303735D01*
X152057773Y-80309696D01*
X152033504Y-80313296D01*
X152009000Y-80314500D01*
X150759000Y-80314500D01*
X150734496Y-80313296D01*
X150710227Y-80309696D01*
X150686429Y-80303735D01*
X150663329Y-80295470D01*
X150641151Y-80284980D01*
X150620107Y-80272367D01*
X150600402Y-80257753D01*
X150582223Y-80241277D01*
X150565747Y-80223098D01*
X150551133Y-80203393D01*
X150538520Y-80182349D01*
X150528030Y-80160171D01*
X150519765Y-80137071D01*
X150513804Y-80113273D01*
X150510204Y-80089004D01*
X150509000Y-80064500D01*
X150509000Y-79139500D01*
X150510204Y-79114996D01*
X150513804Y-79090727D01*
X150519765Y-79066929D01*
X150528030Y-79043829D01*
X150538520Y-79021651D01*
X150551133Y-79000607D01*
X150565747Y-78980902D01*
X150582223Y-78962723D01*
X150600402Y-78946247D01*
X150620107Y-78931633D01*
X150641151Y-78919020D01*
X150663329Y-78908530D01*
X150686429Y-78900265D01*
X150710227Y-78894304D01*
X150734496Y-78890704D01*
X150759000Y-78889500D01*
X152009000Y-78889500D01*
X152033504Y-78890704D01*
X152033504Y-78890704D01*
G37*
D36*
X151384000Y-79602000D03*
D19*
G36*
X148223504Y-81865704D02*
G01*
X148247773Y-81869304D01*
X148271571Y-81875265D01*
X148294671Y-81883530D01*
X148316849Y-81894020D01*
X148337893Y-81906633D01*
X148357598Y-81921247D01*
X148375777Y-81937723D01*
X148392253Y-81955902D01*
X148406867Y-81975607D01*
X148419480Y-81996651D01*
X148429970Y-82018829D01*
X148438235Y-82041929D01*
X148444196Y-82065727D01*
X148447796Y-82089996D01*
X148449000Y-82114500D01*
X148449000Y-83039500D01*
X148447796Y-83064004D01*
X148444196Y-83088273D01*
X148438235Y-83112071D01*
X148429970Y-83135171D01*
X148419480Y-83157349D01*
X148406867Y-83178393D01*
X148392253Y-83198098D01*
X148375777Y-83216277D01*
X148357598Y-83232753D01*
X148337893Y-83247367D01*
X148316849Y-83259980D01*
X148294671Y-83270470D01*
X148271571Y-83278735D01*
X148247773Y-83284696D01*
X148223504Y-83288296D01*
X148199000Y-83289500D01*
X146949000Y-83289500D01*
X146924496Y-83288296D01*
X146900227Y-83284696D01*
X146876429Y-83278735D01*
X146853329Y-83270470D01*
X146831151Y-83259980D01*
X146810107Y-83247367D01*
X146790402Y-83232753D01*
X146772223Y-83216277D01*
X146755747Y-83198098D01*
X146741133Y-83178393D01*
X146728520Y-83157349D01*
X146718030Y-83135171D01*
X146709765Y-83112071D01*
X146703804Y-83088273D01*
X146700204Y-83064004D01*
X146699000Y-83039500D01*
X146699000Y-82114500D01*
X146700204Y-82089996D01*
X146703804Y-82065727D01*
X146709765Y-82041929D01*
X146718030Y-82018829D01*
X146728520Y-81996651D01*
X146741133Y-81975607D01*
X146755747Y-81955902D01*
X146772223Y-81937723D01*
X146790402Y-81921247D01*
X146810107Y-81906633D01*
X146831151Y-81894020D01*
X146853329Y-81883530D01*
X146876429Y-81875265D01*
X146900227Y-81869304D01*
X146924496Y-81865704D01*
X146949000Y-81864500D01*
X148199000Y-81864500D01*
X148223504Y-81865704D01*
X148223504Y-81865704D01*
G37*
D36*
X147574000Y-82577000D03*
D19*
G36*
X148223504Y-78890704D02*
G01*
X148247773Y-78894304D01*
X148271571Y-78900265D01*
X148294671Y-78908530D01*
X148316849Y-78919020D01*
X148337893Y-78931633D01*
X148357598Y-78946247D01*
X148375777Y-78962723D01*
X148392253Y-78980902D01*
X148406867Y-79000607D01*
X148419480Y-79021651D01*
X148429970Y-79043829D01*
X148438235Y-79066929D01*
X148444196Y-79090727D01*
X148447796Y-79114996D01*
X148449000Y-79139500D01*
X148449000Y-80064500D01*
X148447796Y-80089004D01*
X148444196Y-80113273D01*
X148438235Y-80137071D01*
X148429970Y-80160171D01*
X148419480Y-80182349D01*
X148406867Y-80203393D01*
X148392253Y-80223098D01*
X148375777Y-80241277D01*
X148357598Y-80257753D01*
X148337893Y-80272367D01*
X148316849Y-80284980D01*
X148294671Y-80295470D01*
X148271571Y-80303735D01*
X148247773Y-80309696D01*
X148223504Y-80313296D01*
X148199000Y-80314500D01*
X146949000Y-80314500D01*
X146924496Y-80313296D01*
X146900227Y-80309696D01*
X146876429Y-80303735D01*
X146853329Y-80295470D01*
X146831151Y-80284980D01*
X146810107Y-80272367D01*
X146790402Y-80257753D01*
X146772223Y-80241277D01*
X146755747Y-80223098D01*
X146741133Y-80203393D01*
X146728520Y-80182349D01*
X146718030Y-80160171D01*
X146709765Y-80137071D01*
X146703804Y-80113273D01*
X146700204Y-80089004D01*
X146699000Y-80064500D01*
X146699000Y-79139500D01*
X146700204Y-79114996D01*
X146703804Y-79090727D01*
X146709765Y-79066929D01*
X146718030Y-79043829D01*
X146728520Y-79021651D01*
X146741133Y-79000607D01*
X146755747Y-78980902D01*
X146772223Y-78962723D01*
X146790402Y-78946247D01*
X146810107Y-78931633D01*
X146831151Y-78919020D01*
X146853329Y-78908530D01*
X146876429Y-78900265D01*
X146900227Y-78894304D01*
X146924496Y-78890704D01*
X146949000Y-78889500D01*
X148199000Y-78889500D01*
X148223504Y-78890704D01*
X148223504Y-78890704D01*
G37*
D36*
X147574000Y-79602000D03*
D19*
G36*
X117581004Y-110886204D02*
G01*
X117605273Y-110889804D01*
X117629071Y-110895765D01*
X117652171Y-110904030D01*
X117674349Y-110914520D01*
X117695393Y-110927133D01*
X117715098Y-110941747D01*
X117733277Y-110958223D01*
X117749753Y-110976402D01*
X117764367Y-110996107D01*
X117776980Y-111017151D01*
X117787470Y-111039329D01*
X117795735Y-111062429D01*
X117801696Y-111086227D01*
X117805296Y-111110496D01*
X117806500Y-111135000D01*
X117806500Y-112385000D01*
X117805296Y-112409504D01*
X117801696Y-112433773D01*
X117795735Y-112457571D01*
X117787470Y-112480671D01*
X117776980Y-112502849D01*
X117764367Y-112523893D01*
X117749753Y-112543598D01*
X117733277Y-112561777D01*
X117715098Y-112578253D01*
X117695393Y-112592867D01*
X117674349Y-112605480D01*
X117652171Y-112615970D01*
X117629071Y-112624235D01*
X117605273Y-112630196D01*
X117581004Y-112633796D01*
X117556500Y-112635000D01*
X116631500Y-112635000D01*
X116606996Y-112633796D01*
X116582727Y-112630196D01*
X116558929Y-112624235D01*
X116535829Y-112615970D01*
X116513651Y-112605480D01*
X116492607Y-112592867D01*
X116472902Y-112578253D01*
X116454723Y-112561777D01*
X116438247Y-112543598D01*
X116423633Y-112523893D01*
X116411020Y-112502849D01*
X116400530Y-112480671D01*
X116392265Y-112457571D01*
X116386304Y-112433773D01*
X116382704Y-112409504D01*
X116381500Y-112385000D01*
X116381500Y-111135000D01*
X116382704Y-111110496D01*
X116386304Y-111086227D01*
X116392265Y-111062429D01*
X116400530Y-111039329D01*
X116411020Y-111017151D01*
X116423633Y-110996107D01*
X116438247Y-110976402D01*
X116454723Y-110958223D01*
X116472902Y-110941747D01*
X116492607Y-110927133D01*
X116513651Y-110914520D01*
X116535829Y-110904030D01*
X116558929Y-110895765D01*
X116582727Y-110889804D01*
X116606996Y-110886204D01*
X116631500Y-110885000D01*
X117556500Y-110885000D01*
X117581004Y-110886204D01*
X117581004Y-110886204D01*
G37*
D36*
X117094000Y-111760000D03*
D19*
G36*
X114606004Y-110886204D02*
G01*
X114630273Y-110889804D01*
X114654071Y-110895765D01*
X114677171Y-110904030D01*
X114699349Y-110914520D01*
X114720393Y-110927133D01*
X114740098Y-110941747D01*
X114758277Y-110958223D01*
X114774753Y-110976402D01*
X114789367Y-110996107D01*
X114801980Y-111017151D01*
X114812470Y-111039329D01*
X114820735Y-111062429D01*
X114826696Y-111086227D01*
X114830296Y-111110496D01*
X114831500Y-111135000D01*
X114831500Y-112385000D01*
X114830296Y-112409504D01*
X114826696Y-112433773D01*
X114820735Y-112457571D01*
X114812470Y-112480671D01*
X114801980Y-112502849D01*
X114789367Y-112523893D01*
X114774753Y-112543598D01*
X114758277Y-112561777D01*
X114740098Y-112578253D01*
X114720393Y-112592867D01*
X114699349Y-112605480D01*
X114677171Y-112615970D01*
X114654071Y-112624235D01*
X114630273Y-112630196D01*
X114606004Y-112633796D01*
X114581500Y-112635000D01*
X113656500Y-112635000D01*
X113631996Y-112633796D01*
X113607727Y-112630196D01*
X113583929Y-112624235D01*
X113560829Y-112615970D01*
X113538651Y-112605480D01*
X113517607Y-112592867D01*
X113497902Y-112578253D01*
X113479723Y-112561777D01*
X113463247Y-112543598D01*
X113448633Y-112523893D01*
X113436020Y-112502849D01*
X113425530Y-112480671D01*
X113417265Y-112457571D01*
X113411304Y-112433773D01*
X113407704Y-112409504D01*
X113406500Y-112385000D01*
X113406500Y-111135000D01*
X113407704Y-111110496D01*
X113411304Y-111086227D01*
X113417265Y-111062429D01*
X113425530Y-111039329D01*
X113436020Y-111017151D01*
X113448633Y-110996107D01*
X113463247Y-110976402D01*
X113479723Y-110958223D01*
X113497902Y-110941747D01*
X113517607Y-110927133D01*
X113538651Y-110914520D01*
X113560829Y-110904030D01*
X113583929Y-110895765D01*
X113607727Y-110889804D01*
X113631996Y-110886204D01*
X113656500Y-110885000D01*
X114581500Y-110885000D01*
X114606004Y-110886204D01*
X114606004Y-110886204D01*
G37*
D36*
X114119000Y-111760000D03*
D19*
G36*
X119649504Y-95646204D02*
G01*
X119673773Y-95649804D01*
X119697571Y-95655765D01*
X119720671Y-95664030D01*
X119742849Y-95674520D01*
X119763893Y-95687133D01*
X119783598Y-95701747D01*
X119801777Y-95718223D01*
X119818253Y-95736402D01*
X119832867Y-95756107D01*
X119845480Y-95777151D01*
X119855970Y-95799329D01*
X119864235Y-95822429D01*
X119870196Y-95846227D01*
X119873796Y-95870496D01*
X119875000Y-95895000D01*
X119875000Y-97145000D01*
X119873796Y-97169504D01*
X119870196Y-97193773D01*
X119864235Y-97217571D01*
X119855970Y-97240671D01*
X119845480Y-97262849D01*
X119832867Y-97283893D01*
X119818253Y-97303598D01*
X119801777Y-97321777D01*
X119783598Y-97338253D01*
X119763893Y-97352867D01*
X119742849Y-97365480D01*
X119720671Y-97375970D01*
X119697571Y-97384235D01*
X119673773Y-97390196D01*
X119649504Y-97393796D01*
X119625000Y-97395000D01*
X118700000Y-97395000D01*
X118675496Y-97393796D01*
X118651227Y-97390196D01*
X118627429Y-97384235D01*
X118604329Y-97375970D01*
X118582151Y-97365480D01*
X118561107Y-97352867D01*
X118541402Y-97338253D01*
X118523223Y-97321777D01*
X118506747Y-97303598D01*
X118492133Y-97283893D01*
X118479520Y-97262849D01*
X118469030Y-97240671D01*
X118460765Y-97217571D01*
X118454804Y-97193773D01*
X118451204Y-97169504D01*
X118450000Y-97145000D01*
X118450000Y-95895000D01*
X118451204Y-95870496D01*
X118454804Y-95846227D01*
X118460765Y-95822429D01*
X118469030Y-95799329D01*
X118479520Y-95777151D01*
X118492133Y-95756107D01*
X118506747Y-95736402D01*
X118523223Y-95718223D01*
X118541402Y-95701747D01*
X118561107Y-95687133D01*
X118582151Y-95674520D01*
X118604329Y-95664030D01*
X118627429Y-95655765D01*
X118651227Y-95649804D01*
X118675496Y-95646204D01*
X118700000Y-95645000D01*
X119625000Y-95645000D01*
X119649504Y-95646204D01*
X119649504Y-95646204D01*
G37*
D36*
X119162500Y-96520000D03*
D19*
G36*
X122624504Y-95646204D02*
G01*
X122648773Y-95649804D01*
X122672571Y-95655765D01*
X122695671Y-95664030D01*
X122717849Y-95674520D01*
X122738893Y-95687133D01*
X122758598Y-95701747D01*
X122776777Y-95718223D01*
X122793253Y-95736402D01*
X122807867Y-95756107D01*
X122820480Y-95777151D01*
X122830970Y-95799329D01*
X122839235Y-95822429D01*
X122845196Y-95846227D01*
X122848796Y-95870496D01*
X122850000Y-95895000D01*
X122850000Y-97145000D01*
X122848796Y-97169504D01*
X122845196Y-97193773D01*
X122839235Y-97217571D01*
X122830970Y-97240671D01*
X122820480Y-97262849D01*
X122807867Y-97283893D01*
X122793253Y-97303598D01*
X122776777Y-97321777D01*
X122758598Y-97338253D01*
X122738893Y-97352867D01*
X122717849Y-97365480D01*
X122695671Y-97375970D01*
X122672571Y-97384235D01*
X122648773Y-97390196D01*
X122624504Y-97393796D01*
X122600000Y-97395000D01*
X121675000Y-97395000D01*
X121650496Y-97393796D01*
X121626227Y-97390196D01*
X121602429Y-97384235D01*
X121579329Y-97375970D01*
X121557151Y-97365480D01*
X121536107Y-97352867D01*
X121516402Y-97338253D01*
X121498223Y-97321777D01*
X121481747Y-97303598D01*
X121467133Y-97283893D01*
X121454520Y-97262849D01*
X121444030Y-97240671D01*
X121435765Y-97217571D01*
X121429804Y-97193773D01*
X121426204Y-97169504D01*
X121425000Y-97145000D01*
X121425000Y-95895000D01*
X121426204Y-95870496D01*
X121429804Y-95846227D01*
X121435765Y-95822429D01*
X121444030Y-95799329D01*
X121454520Y-95777151D01*
X121467133Y-95756107D01*
X121481747Y-95736402D01*
X121498223Y-95718223D01*
X121516402Y-95701747D01*
X121536107Y-95687133D01*
X121557151Y-95674520D01*
X121579329Y-95664030D01*
X121602429Y-95655765D01*
X121626227Y-95649804D01*
X121650496Y-95646204D01*
X121675000Y-95645000D01*
X122600000Y-95645000D01*
X122624504Y-95646204D01*
X122624504Y-95646204D01*
G37*
D36*
X122137500Y-96520000D03*
D19*
G36*
X119649504Y-92471204D02*
G01*
X119673773Y-92474804D01*
X119697571Y-92480765D01*
X119720671Y-92489030D01*
X119742849Y-92499520D01*
X119763893Y-92512133D01*
X119783598Y-92526747D01*
X119801777Y-92543223D01*
X119818253Y-92561402D01*
X119832867Y-92581107D01*
X119845480Y-92602151D01*
X119855970Y-92624329D01*
X119864235Y-92647429D01*
X119870196Y-92671227D01*
X119873796Y-92695496D01*
X119875000Y-92720000D01*
X119875000Y-93970000D01*
X119873796Y-93994504D01*
X119870196Y-94018773D01*
X119864235Y-94042571D01*
X119855970Y-94065671D01*
X119845480Y-94087849D01*
X119832867Y-94108893D01*
X119818253Y-94128598D01*
X119801777Y-94146777D01*
X119783598Y-94163253D01*
X119763893Y-94177867D01*
X119742849Y-94190480D01*
X119720671Y-94200970D01*
X119697571Y-94209235D01*
X119673773Y-94215196D01*
X119649504Y-94218796D01*
X119625000Y-94220000D01*
X118700000Y-94220000D01*
X118675496Y-94218796D01*
X118651227Y-94215196D01*
X118627429Y-94209235D01*
X118604329Y-94200970D01*
X118582151Y-94190480D01*
X118561107Y-94177867D01*
X118541402Y-94163253D01*
X118523223Y-94146777D01*
X118506747Y-94128598D01*
X118492133Y-94108893D01*
X118479520Y-94087849D01*
X118469030Y-94065671D01*
X118460765Y-94042571D01*
X118454804Y-94018773D01*
X118451204Y-93994504D01*
X118450000Y-93970000D01*
X118450000Y-92720000D01*
X118451204Y-92695496D01*
X118454804Y-92671227D01*
X118460765Y-92647429D01*
X118469030Y-92624329D01*
X118479520Y-92602151D01*
X118492133Y-92581107D01*
X118506747Y-92561402D01*
X118523223Y-92543223D01*
X118541402Y-92526747D01*
X118561107Y-92512133D01*
X118582151Y-92499520D01*
X118604329Y-92489030D01*
X118627429Y-92480765D01*
X118651227Y-92474804D01*
X118675496Y-92471204D01*
X118700000Y-92470000D01*
X119625000Y-92470000D01*
X119649504Y-92471204D01*
X119649504Y-92471204D01*
G37*
D36*
X119162500Y-93345000D03*
D19*
G36*
X122624504Y-92471204D02*
G01*
X122648773Y-92474804D01*
X122672571Y-92480765D01*
X122695671Y-92489030D01*
X122717849Y-92499520D01*
X122738893Y-92512133D01*
X122758598Y-92526747D01*
X122776777Y-92543223D01*
X122793253Y-92561402D01*
X122807867Y-92581107D01*
X122820480Y-92602151D01*
X122830970Y-92624329D01*
X122839235Y-92647429D01*
X122845196Y-92671227D01*
X122848796Y-92695496D01*
X122850000Y-92720000D01*
X122850000Y-93970000D01*
X122848796Y-93994504D01*
X122845196Y-94018773D01*
X122839235Y-94042571D01*
X122830970Y-94065671D01*
X122820480Y-94087849D01*
X122807867Y-94108893D01*
X122793253Y-94128598D01*
X122776777Y-94146777D01*
X122758598Y-94163253D01*
X122738893Y-94177867D01*
X122717849Y-94190480D01*
X122695671Y-94200970D01*
X122672571Y-94209235D01*
X122648773Y-94215196D01*
X122624504Y-94218796D01*
X122600000Y-94220000D01*
X121675000Y-94220000D01*
X121650496Y-94218796D01*
X121626227Y-94215196D01*
X121602429Y-94209235D01*
X121579329Y-94200970D01*
X121557151Y-94190480D01*
X121536107Y-94177867D01*
X121516402Y-94163253D01*
X121498223Y-94146777D01*
X121481747Y-94128598D01*
X121467133Y-94108893D01*
X121454520Y-94087849D01*
X121444030Y-94065671D01*
X121435765Y-94042571D01*
X121429804Y-94018773D01*
X121426204Y-93994504D01*
X121425000Y-93970000D01*
X121425000Y-92720000D01*
X121426204Y-92695496D01*
X121429804Y-92671227D01*
X121435765Y-92647429D01*
X121444030Y-92624329D01*
X121454520Y-92602151D01*
X121467133Y-92581107D01*
X121481747Y-92561402D01*
X121498223Y-92543223D01*
X121516402Y-92526747D01*
X121536107Y-92512133D01*
X121557151Y-92499520D01*
X121579329Y-92489030D01*
X121602429Y-92480765D01*
X121626227Y-92474804D01*
X121650496Y-92471204D01*
X121675000Y-92470000D01*
X122600000Y-92470000D01*
X122624504Y-92471204D01*
X122624504Y-92471204D01*
G37*
D36*
X122137500Y-93345000D03*
D19*
G36*
X117544504Y-107711204D02*
G01*
X117568773Y-107714804D01*
X117592571Y-107720765D01*
X117615671Y-107729030D01*
X117637849Y-107739520D01*
X117658893Y-107752133D01*
X117678598Y-107766747D01*
X117696777Y-107783223D01*
X117713253Y-107801402D01*
X117727867Y-107821107D01*
X117740480Y-107842151D01*
X117750970Y-107864329D01*
X117759235Y-107887429D01*
X117765196Y-107911227D01*
X117768796Y-107935496D01*
X117770000Y-107960000D01*
X117770000Y-109210000D01*
X117768796Y-109234504D01*
X117765196Y-109258773D01*
X117759235Y-109282571D01*
X117750970Y-109305671D01*
X117740480Y-109327849D01*
X117727867Y-109348893D01*
X117713253Y-109368598D01*
X117696777Y-109386777D01*
X117678598Y-109403253D01*
X117658893Y-109417867D01*
X117637849Y-109430480D01*
X117615671Y-109440970D01*
X117592571Y-109449235D01*
X117568773Y-109455196D01*
X117544504Y-109458796D01*
X117520000Y-109460000D01*
X116595000Y-109460000D01*
X116570496Y-109458796D01*
X116546227Y-109455196D01*
X116522429Y-109449235D01*
X116499329Y-109440970D01*
X116477151Y-109430480D01*
X116456107Y-109417867D01*
X116436402Y-109403253D01*
X116418223Y-109386777D01*
X116401747Y-109368598D01*
X116387133Y-109348893D01*
X116374520Y-109327849D01*
X116364030Y-109305671D01*
X116355765Y-109282571D01*
X116349804Y-109258773D01*
X116346204Y-109234504D01*
X116345000Y-109210000D01*
X116345000Y-107960000D01*
X116346204Y-107935496D01*
X116349804Y-107911227D01*
X116355765Y-107887429D01*
X116364030Y-107864329D01*
X116374520Y-107842151D01*
X116387133Y-107821107D01*
X116401747Y-107801402D01*
X116418223Y-107783223D01*
X116436402Y-107766747D01*
X116456107Y-107752133D01*
X116477151Y-107739520D01*
X116499329Y-107729030D01*
X116522429Y-107720765D01*
X116546227Y-107714804D01*
X116570496Y-107711204D01*
X116595000Y-107710000D01*
X117520000Y-107710000D01*
X117544504Y-107711204D01*
X117544504Y-107711204D01*
G37*
D36*
X117057500Y-108585000D03*
D19*
G36*
X114569504Y-107711204D02*
G01*
X114593773Y-107714804D01*
X114617571Y-107720765D01*
X114640671Y-107729030D01*
X114662849Y-107739520D01*
X114683893Y-107752133D01*
X114703598Y-107766747D01*
X114721777Y-107783223D01*
X114738253Y-107801402D01*
X114752867Y-107821107D01*
X114765480Y-107842151D01*
X114775970Y-107864329D01*
X114784235Y-107887429D01*
X114790196Y-107911227D01*
X114793796Y-107935496D01*
X114795000Y-107960000D01*
X114795000Y-109210000D01*
X114793796Y-109234504D01*
X114790196Y-109258773D01*
X114784235Y-109282571D01*
X114775970Y-109305671D01*
X114765480Y-109327849D01*
X114752867Y-109348893D01*
X114738253Y-109368598D01*
X114721777Y-109386777D01*
X114703598Y-109403253D01*
X114683893Y-109417867D01*
X114662849Y-109430480D01*
X114640671Y-109440970D01*
X114617571Y-109449235D01*
X114593773Y-109455196D01*
X114569504Y-109458796D01*
X114545000Y-109460000D01*
X113620000Y-109460000D01*
X113595496Y-109458796D01*
X113571227Y-109455196D01*
X113547429Y-109449235D01*
X113524329Y-109440970D01*
X113502151Y-109430480D01*
X113481107Y-109417867D01*
X113461402Y-109403253D01*
X113443223Y-109386777D01*
X113426747Y-109368598D01*
X113412133Y-109348893D01*
X113399520Y-109327849D01*
X113389030Y-109305671D01*
X113380765Y-109282571D01*
X113374804Y-109258773D01*
X113371204Y-109234504D01*
X113370000Y-109210000D01*
X113370000Y-107960000D01*
X113371204Y-107935496D01*
X113374804Y-107911227D01*
X113380765Y-107887429D01*
X113389030Y-107864329D01*
X113399520Y-107842151D01*
X113412133Y-107821107D01*
X113426747Y-107801402D01*
X113443223Y-107783223D01*
X113461402Y-107766747D01*
X113481107Y-107752133D01*
X113502151Y-107739520D01*
X113524329Y-107729030D01*
X113547429Y-107720765D01*
X113571227Y-107714804D01*
X113595496Y-107711204D01*
X113620000Y-107710000D01*
X114545000Y-107710000D01*
X114569504Y-107711204D01*
X114569504Y-107711204D01*
G37*
D36*
X114082500Y-108585000D03*
D19*
G36*
X123259504Y-107711204D02*
G01*
X123283773Y-107714804D01*
X123307571Y-107720765D01*
X123330671Y-107729030D01*
X123352849Y-107739520D01*
X123373893Y-107752133D01*
X123393598Y-107766747D01*
X123411777Y-107783223D01*
X123428253Y-107801402D01*
X123442867Y-107821107D01*
X123455480Y-107842151D01*
X123465970Y-107864329D01*
X123474235Y-107887429D01*
X123480196Y-107911227D01*
X123483796Y-107935496D01*
X123485000Y-107960000D01*
X123485000Y-109210000D01*
X123483796Y-109234504D01*
X123480196Y-109258773D01*
X123474235Y-109282571D01*
X123465970Y-109305671D01*
X123455480Y-109327849D01*
X123442867Y-109348893D01*
X123428253Y-109368598D01*
X123411777Y-109386777D01*
X123393598Y-109403253D01*
X123373893Y-109417867D01*
X123352849Y-109430480D01*
X123330671Y-109440970D01*
X123307571Y-109449235D01*
X123283773Y-109455196D01*
X123259504Y-109458796D01*
X123235000Y-109460000D01*
X122310000Y-109460000D01*
X122285496Y-109458796D01*
X122261227Y-109455196D01*
X122237429Y-109449235D01*
X122214329Y-109440970D01*
X122192151Y-109430480D01*
X122171107Y-109417867D01*
X122151402Y-109403253D01*
X122133223Y-109386777D01*
X122116747Y-109368598D01*
X122102133Y-109348893D01*
X122089520Y-109327849D01*
X122079030Y-109305671D01*
X122070765Y-109282571D01*
X122064804Y-109258773D01*
X122061204Y-109234504D01*
X122060000Y-109210000D01*
X122060000Y-107960000D01*
X122061204Y-107935496D01*
X122064804Y-107911227D01*
X122070765Y-107887429D01*
X122079030Y-107864329D01*
X122089520Y-107842151D01*
X122102133Y-107821107D01*
X122116747Y-107801402D01*
X122133223Y-107783223D01*
X122151402Y-107766747D01*
X122171107Y-107752133D01*
X122192151Y-107739520D01*
X122214329Y-107729030D01*
X122237429Y-107720765D01*
X122261227Y-107714804D01*
X122285496Y-107711204D01*
X122310000Y-107710000D01*
X123235000Y-107710000D01*
X123259504Y-107711204D01*
X123259504Y-107711204D01*
G37*
D36*
X122772500Y-108585000D03*
D19*
G36*
X120284504Y-107711204D02*
G01*
X120308773Y-107714804D01*
X120332571Y-107720765D01*
X120355671Y-107729030D01*
X120377849Y-107739520D01*
X120398893Y-107752133D01*
X120418598Y-107766747D01*
X120436777Y-107783223D01*
X120453253Y-107801402D01*
X120467867Y-107821107D01*
X120480480Y-107842151D01*
X120490970Y-107864329D01*
X120499235Y-107887429D01*
X120505196Y-107911227D01*
X120508796Y-107935496D01*
X120510000Y-107960000D01*
X120510000Y-109210000D01*
X120508796Y-109234504D01*
X120505196Y-109258773D01*
X120499235Y-109282571D01*
X120490970Y-109305671D01*
X120480480Y-109327849D01*
X120467867Y-109348893D01*
X120453253Y-109368598D01*
X120436777Y-109386777D01*
X120418598Y-109403253D01*
X120398893Y-109417867D01*
X120377849Y-109430480D01*
X120355671Y-109440970D01*
X120332571Y-109449235D01*
X120308773Y-109455196D01*
X120284504Y-109458796D01*
X120260000Y-109460000D01*
X119335000Y-109460000D01*
X119310496Y-109458796D01*
X119286227Y-109455196D01*
X119262429Y-109449235D01*
X119239329Y-109440970D01*
X119217151Y-109430480D01*
X119196107Y-109417867D01*
X119176402Y-109403253D01*
X119158223Y-109386777D01*
X119141747Y-109368598D01*
X119127133Y-109348893D01*
X119114520Y-109327849D01*
X119104030Y-109305671D01*
X119095765Y-109282571D01*
X119089804Y-109258773D01*
X119086204Y-109234504D01*
X119085000Y-109210000D01*
X119085000Y-107960000D01*
X119086204Y-107935496D01*
X119089804Y-107911227D01*
X119095765Y-107887429D01*
X119104030Y-107864329D01*
X119114520Y-107842151D01*
X119127133Y-107821107D01*
X119141747Y-107801402D01*
X119158223Y-107783223D01*
X119176402Y-107766747D01*
X119196107Y-107752133D01*
X119217151Y-107739520D01*
X119239329Y-107729030D01*
X119262429Y-107720765D01*
X119286227Y-107714804D01*
X119310496Y-107711204D01*
X119335000Y-107710000D01*
X120260000Y-107710000D01*
X120284504Y-107711204D01*
X120284504Y-107711204D01*
G37*
D36*
X119797500Y-108585000D03*
D19*
G36*
X154954504Y-123313704D02*
G01*
X154978773Y-123317304D01*
X155002571Y-123323265D01*
X155025671Y-123331530D01*
X155047849Y-123342020D01*
X155068893Y-123354633D01*
X155088598Y-123369247D01*
X155106777Y-123385723D01*
X155123253Y-123403902D01*
X155137867Y-123423607D01*
X155150480Y-123444651D01*
X155160970Y-123466829D01*
X155169235Y-123489929D01*
X155175196Y-123513727D01*
X155178796Y-123537996D01*
X155180000Y-123562500D01*
X155180000Y-124487500D01*
X155178796Y-124512004D01*
X155175196Y-124536273D01*
X155169235Y-124560071D01*
X155160970Y-124583171D01*
X155150480Y-124605349D01*
X155137867Y-124626393D01*
X155123253Y-124646098D01*
X155106777Y-124664277D01*
X155088598Y-124680753D01*
X155068893Y-124695367D01*
X155047849Y-124707980D01*
X155025671Y-124718470D01*
X155002571Y-124726735D01*
X154978773Y-124732696D01*
X154954504Y-124736296D01*
X154930000Y-124737500D01*
X153680000Y-124737500D01*
X153655496Y-124736296D01*
X153631227Y-124732696D01*
X153607429Y-124726735D01*
X153584329Y-124718470D01*
X153562151Y-124707980D01*
X153541107Y-124695367D01*
X153521402Y-124680753D01*
X153503223Y-124664277D01*
X153486747Y-124646098D01*
X153472133Y-124626393D01*
X153459520Y-124605349D01*
X153449030Y-124583171D01*
X153440765Y-124560071D01*
X153434804Y-124536273D01*
X153431204Y-124512004D01*
X153430000Y-124487500D01*
X153430000Y-123562500D01*
X153431204Y-123537996D01*
X153434804Y-123513727D01*
X153440765Y-123489929D01*
X153449030Y-123466829D01*
X153459520Y-123444651D01*
X153472133Y-123423607D01*
X153486747Y-123403902D01*
X153503223Y-123385723D01*
X153521402Y-123369247D01*
X153541107Y-123354633D01*
X153562151Y-123342020D01*
X153584329Y-123331530D01*
X153607429Y-123323265D01*
X153631227Y-123317304D01*
X153655496Y-123313704D01*
X153680000Y-123312500D01*
X154930000Y-123312500D01*
X154954504Y-123313704D01*
X154954504Y-123313704D01*
G37*
D36*
X154305000Y-124025000D03*
D19*
G36*
X154954504Y-126288704D02*
G01*
X154978773Y-126292304D01*
X155002571Y-126298265D01*
X155025671Y-126306530D01*
X155047849Y-126317020D01*
X155068893Y-126329633D01*
X155088598Y-126344247D01*
X155106777Y-126360723D01*
X155123253Y-126378902D01*
X155137867Y-126398607D01*
X155150480Y-126419651D01*
X155160970Y-126441829D01*
X155169235Y-126464929D01*
X155175196Y-126488727D01*
X155178796Y-126512996D01*
X155180000Y-126537500D01*
X155180000Y-127462500D01*
X155178796Y-127487004D01*
X155175196Y-127511273D01*
X155169235Y-127535071D01*
X155160970Y-127558171D01*
X155150480Y-127580349D01*
X155137867Y-127601393D01*
X155123253Y-127621098D01*
X155106777Y-127639277D01*
X155088598Y-127655753D01*
X155068893Y-127670367D01*
X155047849Y-127682980D01*
X155025671Y-127693470D01*
X155002571Y-127701735D01*
X154978773Y-127707696D01*
X154954504Y-127711296D01*
X154930000Y-127712500D01*
X153680000Y-127712500D01*
X153655496Y-127711296D01*
X153631227Y-127707696D01*
X153607429Y-127701735D01*
X153584329Y-127693470D01*
X153562151Y-127682980D01*
X153541107Y-127670367D01*
X153521402Y-127655753D01*
X153503223Y-127639277D01*
X153486747Y-127621098D01*
X153472133Y-127601393D01*
X153459520Y-127580349D01*
X153449030Y-127558171D01*
X153440765Y-127535071D01*
X153434804Y-127511273D01*
X153431204Y-127487004D01*
X153430000Y-127462500D01*
X153430000Y-126537500D01*
X153431204Y-126512996D01*
X153434804Y-126488727D01*
X153440765Y-126464929D01*
X153449030Y-126441829D01*
X153459520Y-126419651D01*
X153472133Y-126398607D01*
X153486747Y-126378902D01*
X153503223Y-126360723D01*
X153521402Y-126344247D01*
X153541107Y-126329633D01*
X153562151Y-126317020D01*
X153584329Y-126306530D01*
X153607429Y-126298265D01*
X153631227Y-126292304D01*
X153655496Y-126288704D01*
X153680000Y-126287500D01*
X154930000Y-126287500D01*
X154954504Y-126288704D01*
X154954504Y-126288704D01*
G37*
D36*
X154305000Y-127000000D03*
D19*
G36*
X151144504Y-123313704D02*
G01*
X151168773Y-123317304D01*
X151192571Y-123323265D01*
X151215671Y-123331530D01*
X151237849Y-123342020D01*
X151258893Y-123354633D01*
X151278598Y-123369247D01*
X151296777Y-123385723D01*
X151313253Y-123403902D01*
X151327867Y-123423607D01*
X151340480Y-123444651D01*
X151350970Y-123466829D01*
X151359235Y-123489929D01*
X151365196Y-123513727D01*
X151368796Y-123537996D01*
X151370000Y-123562500D01*
X151370000Y-124487500D01*
X151368796Y-124512004D01*
X151365196Y-124536273D01*
X151359235Y-124560071D01*
X151350970Y-124583171D01*
X151340480Y-124605349D01*
X151327867Y-124626393D01*
X151313253Y-124646098D01*
X151296777Y-124664277D01*
X151278598Y-124680753D01*
X151258893Y-124695367D01*
X151237849Y-124707980D01*
X151215671Y-124718470D01*
X151192571Y-124726735D01*
X151168773Y-124732696D01*
X151144504Y-124736296D01*
X151120000Y-124737500D01*
X149870000Y-124737500D01*
X149845496Y-124736296D01*
X149821227Y-124732696D01*
X149797429Y-124726735D01*
X149774329Y-124718470D01*
X149752151Y-124707980D01*
X149731107Y-124695367D01*
X149711402Y-124680753D01*
X149693223Y-124664277D01*
X149676747Y-124646098D01*
X149662133Y-124626393D01*
X149649520Y-124605349D01*
X149639030Y-124583171D01*
X149630765Y-124560071D01*
X149624804Y-124536273D01*
X149621204Y-124512004D01*
X149620000Y-124487500D01*
X149620000Y-123562500D01*
X149621204Y-123537996D01*
X149624804Y-123513727D01*
X149630765Y-123489929D01*
X149639030Y-123466829D01*
X149649520Y-123444651D01*
X149662133Y-123423607D01*
X149676747Y-123403902D01*
X149693223Y-123385723D01*
X149711402Y-123369247D01*
X149731107Y-123354633D01*
X149752151Y-123342020D01*
X149774329Y-123331530D01*
X149797429Y-123323265D01*
X149821227Y-123317304D01*
X149845496Y-123313704D01*
X149870000Y-123312500D01*
X151120000Y-123312500D01*
X151144504Y-123313704D01*
X151144504Y-123313704D01*
G37*
D36*
X150495000Y-124025000D03*
D19*
G36*
X151144504Y-126288704D02*
G01*
X151168773Y-126292304D01*
X151192571Y-126298265D01*
X151215671Y-126306530D01*
X151237849Y-126317020D01*
X151258893Y-126329633D01*
X151278598Y-126344247D01*
X151296777Y-126360723D01*
X151313253Y-126378902D01*
X151327867Y-126398607D01*
X151340480Y-126419651D01*
X151350970Y-126441829D01*
X151359235Y-126464929D01*
X151365196Y-126488727D01*
X151368796Y-126512996D01*
X151370000Y-126537500D01*
X151370000Y-127462500D01*
X151368796Y-127487004D01*
X151365196Y-127511273D01*
X151359235Y-127535071D01*
X151350970Y-127558171D01*
X151340480Y-127580349D01*
X151327867Y-127601393D01*
X151313253Y-127621098D01*
X151296777Y-127639277D01*
X151278598Y-127655753D01*
X151258893Y-127670367D01*
X151237849Y-127682980D01*
X151215671Y-127693470D01*
X151192571Y-127701735D01*
X151168773Y-127707696D01*
X151144504Y-127711296D01*
X151120000Y-127712500D01*
X149870000Y-127712500D01*
X149845496Y-127711296D01*
X149821227Y-127707696D01*
X149797429Y-127701735D01*
X149774329Y-127693470D01*
X149752151Y-127682980D01*
X149731107Y-127670367D01*
X149711402Y-127655753D01*
X149693223Y-127639277D01*
X149676747Y-127621098D01*
X149662133Y-127601393D01*
X149649520Y-127580349D01*
X149639030Y-127558171D01*
X149630765Y-127535071D01*
X149624804Y-127511273D01*
X149621204Y-127487004D01*
X149620000Y-127462500D01*
X149620000Y-126537500D01*
X149621204Y-126512996D01*
X149624804Y-126488727D01*
X149630765Y-126464929D01*
X149639030Y-126441829D01*
X149649520Y-126419651D01*
X149662133Y-126398607D01*
X149676747Y-126378902D01*
X149693223Y-126360723D01*
X149711402Y-126344247D01*
X149731107Y-126329633D01*
X149752151Y-126317020D01*
X149774329Y-126306530D01*
X149797429Y-126298265D01*
X149821227Y-126292304D01*
X149845496Y-126288704D01*
X149870000Y-126287500D01*
X151120000Y-126287500D01*
X151144504Y-126288704D01*
X151144504Y-126288704D01*
G37*
D36*
X150495000Y-127000000D03*
D19*
G36*
X133364504Y-123313704D02*
G01*
X133388773Y-123317304D01*
X133412571Y-123323265D01*
X133435671Y-123331530D01*
X133457849Y-123342020D01*
X133478893Y-123354633D01*
X133498598Y-123369247D01*
X133516777Y-123385723D01*
X133533253Y-123403902D01*
X133547867Y-123423607D01*
X133560480Y-123444651D01*
X133570970Y-123466829D01*
X133579235Y-123489929D01*
X133585196Y-123513727D01*
X133588796Y-123537996D01*
X133590000Y-123562500D01*
X133590000Y-124487500D01*
X133588796Y-124512004D01*
X133585196Y-124536273D01*
X133579235Y-124560071D01*
X133570970Y-124583171D01*
X133560480Y-124605349D01*
X133547867Y-124626393D01*
X133533253Y-124646098D01*
X133516777Y-124664277D01*
X133498598Y-124680753D01*
X133478893Y-124695367D01*
X133457849Y-124707980D01*
X133435671Y-124718470D01*
X133412571Y-124726735D01*
X133388773Y-124732696D01*
X133364504Y-124736296D01*
X133340000Y-124737500D01*
X132090000Y-124737500D01*
X132065496Y-124736296D01*
X132041227Y-124732696D01*
X132017429Y-124726735D01*
X131994329Y-124718470D01*
X131972151Y-124707980D01*
X131951107Y-124695367D01*
X131931402Y-124680753D01*
X131913223Y-124664277D01*
X131896747Y-124646098D01*
X131882133Y-124626393D01*
X131869520Y-124605349D01*
X131859030Y-124583171D01*
X131850765Y-124560071D01*
X131844804Y-124536273D01*
X131841204Y-124512004D01*
X131840000Y-124487500D01*
X131840000Y-123562500D01*
X131841204Y-123537996D01*
X131844804Y-123513727D01*
X131850765Y-123489929D01*
X131859030Y-123466829D01*
X131869520Y-123444651D01*
X131882133Y-123423607D01*
X131896747Y-123403902D01*
X131913223Y-123385723D01*
X131931402Y-123369247D01*
X131951107Y-123354633D01*
X131972151Y-123342020D01*
X131994329Y-123331530D01*
X132017429Y-123323265D01*
X132041227Y-123317304D01*
X132065496Y-123313704D01*
X132090000Y-123312500D01*
X133340000Y-123312500D01*
X133364504Y-123313704D01*
X133364504Y-123313704D01*
G37*
D36*
X132715000Y-124025000D03*
D19*
G36*
X133364504Y-126288704D02*
G01*
X133388773Y-126292304D01*
X133412571Y-126298265D01*
X133435671Y-126306530D01*
X133457849Y-126317020D01*
X133478893Y-126329633D01*
X133498598Y-126344247D01*
X133516777Y-126360723D01*
X133533253Y-126378902D01*
X133547867Y-126398607D01*
X133560480Y-126419651D01*
X133570970Y-126441829D01*
X133579235Y-126464929D01*
X133585196Y-126488727D01*
X133588796Y-126512996D01*
X133590000Y-126537500D01*
X133590000Y-127462500D01*
X133588796Y-127487004D01*
X133585196Y-127511273D01*
X133579235Y-127535071D01*
X133570970Y-127558171D01*
X133560480Y-127580349D01*
X133547867Y-127601393D01*
X133533253Y-127621098D01*
X133516777Y-127639277D01*
X133498598Y-127655753D01*
X133478893Y-127670367D01*
X133457849Y-127682980D01*
X133435671Y-127693470D01*
X133412571Y-127701735D01*
X133388773Y-127707696D01*
X133364504Y-127711296D01*
X133340000Y-127712500D01*
X132090000Y-127712500D01*
X132065496Y-127711296D01*
X132041227Y-127707696D01*
X132017429Y-127701735D01*
X131994329Y-127693470D01*
X131972151Y-127682980D01*
X131951107Y-127670367D01*
X131931402Y-127655753D01*
X131913223Y-127639277D01*
X131896747Y-127621098D01*
X131882133Y-127601393D01*
X131869520Y-127580349D01*
X131859030Y-127558171D01*
X131850765Y-127535071D01*
X131844804Y-127511273D01*
X131841204Y-127487004D01*
X131840000Y-127462500D01*
X131840000Y-126537500D01*
X131841204Y-126512996D01*
X131844804Y-126488727D01*
X131850765Y-126464929D01*
X131859030Y-126441829D01*
X131869520Y-126419651D01*
X131882133Y-126398607D01*
X131896747Y-126378902D01*
X131913223Y-126360723D01*
X131931402Y-126344247D01*
X131951107Y-126329633D01*
X131972151Y-126317020D01*
X131994329Y-126306530D01*
X132017429Y-126298265D01*
X132041227Y-126292304D01*
X132065496Y-126288704D01*
X132090000Y-126287500D01*
X133340000Y-126287500D01*
X133364504Y-126288704D01*
X133364504Y-126288704D01*
G37*
D36*
X132715000Y-127000000D03*
D19*
G36*
X127014504Y-126288704D02*
G01*
X127038773Y-126292304D01*
X127062571Y-126298265D01*
X127085671Y-126306530D01*
X127107849Y-126317020D01*
X127128893Y-126329633D01*
X127148598Y-126344247D01*
X127166777Y-126360723D01*
X127183253Y-126378902D01*
X127197867Y-126398607D01*
X127210480Y-126419651D01*
X127220970Y-126441829D01*
X127229235Y-126464929D01*
X127235196Y-126488727D01*
X127238796Y-126512996D01*
X127240000Y-126537500D01*
X127240000Y-127462500D01*
X127238796Y-127487004D01*
X127235196Y-127511273D01*
X127229235Y-127535071D01*
X127220970Y-127558171D01*
X127210480Y-127580349D01*
X127197867Y-127601393D01*
X127183253Y-127621098D01*
X127166777Y-127639277D01*
X127148598Y-127655753D01*
X127128893Y-127670367D01*
X127107849Y-127682980D01*
X127085671Y-127693470D01*
X127062571Y-127701735D01*
X127038773Y-127707696D01*
X127014504Y-127711296D01*
X126990000Y-127712500D01*
X125740000Y-127712500D01*
X125715496Y-127711296D01*
X125691227Y-127707696D01*
X125667429Y-127701735D01*
X125644329Y-127693470D01*
X125622151Y-127682980D01*
X125601107Y-127670367D01*
X125581402Y-127655753D01*
X125563223Y-127639277D01*
X125546747Y-127621098D01*
X125532133Y-127601393D01*
X125519520Y-127580349D01*
X125509030Y-127558171D01*
X125500765Y-127535071D01*
X125494804Y-127511273D01*
X125491204Y-127487004D01*
X125490000Y-127462500D01*
X125490000Y-126537500D01*
X125491204Y-126512996D01*
X125494804Y-126488727D01*
X125500765Y-126464929D01*
X125509030Y-126441829D01*
X125519520Y-126419651D01*
X125532133Y-126398607D01*
X125546747Y-126378902D01*
X125563223Y-126360723D01*
X125581402Y-126344247D01*
X125601107Y-126329633D01*
X125622151Y-126317020D01*
X125644329Y-126306530D01*
X125667429Y-126298265D01*
X125691227Y-126292304D01*
X125715496Y-126288704D01*
X125740000Y-126287500D01*
X126990000Y-126287500D01*
X127014504Y-126288704D01*
X127014504Y-126288704D01*
G37*
D36*
X126365000Y-127000000D03*
D19*
G36*
X127014504Y-123313704D02*
G01*
X127038773Y-123317304D01*
X127062571Y-123323265D01*
X127085671Y-123331530D01*
X127107849Y-123342020D01*
X127128893Y-123354633D01*
X127148598Y-123369247D01*
X127166777Y-123385723D01*
X127183253Y-123403902D01*
X127197867Y-123423607D01*
X127210480Y-123444651D01*
X127220970Y-123466829D01*
X127229235Y-123489929D01*
X127235196Y-123513727D01*
X127238796Y-123537996D01*
X127240000Y-123562500D01*
X127240000Y-124487500D01*
X127238796Y-124512004D01*
X127235196Y-124536273D01*
X127229235Y-124560071D01*
X127220970Y-124583171D01*
X127210480Y-124605349D01*
X127197867Y-124626393D01*
X127183253Y-124646098D01*
X127166777Y-124664277D01*
X127148598Y-124680753D01*
X127128893Y-124695367D01*
X127107849Y-124707980D01*
X127085671Y-124718470D01*
X127062571Y-124726735D01*
X127038773Y-124732696D01*
X127014504Y-124736296D01*
X126990000Y-124737500D01*
X125740000Y-124737500D01*
X125715496Y-124736296D01*
X125691227Y-124732696D01*
X125667429Y-124726735D01*
X125644329Y-124718470D01*
X125622151Y-124707980D01*
X125601107Y-124695367D01*
X125581402Y-124680753D01*
X125563223Y-124664277D01*
X125546747Y-124646098D01*
X125532133Y-124626393D01*
X125519520Y-124605349D01*
X125509030Y-124583171D01*
X125500765Y-124560071D01*
X125494804Y-124536273D01*
X125491204Y-124512004D01*
X125490000Y-124487500D01*
X125490000Y-123562500D01*
X125491204Y-123537996D01*
X125494804Y-123513727D01*
X125500765Y-123489929D01*
X125509030Y-123466829D01*
X125519520Y-123444651D01*
X125532133Y-123423607D01*
X125546747Y-123403902D01*
X125563223Y-123385723D01*
X125581402Y-123369247D01*
X125601107Y-123354633D01*
X125622151Y-123342020D01*
X125644329Y-123331530D01*
X125667429Y-123323265D01*
X125691227Y-123317304D01*
X125715496Y-123313704D01*
X125740000Y-123312500D01*
X126990000Y-123312500D01*
X127014504Y-123313704D01*
X127014504Y-123313704D01*
G37*
D36*
X126365000Y-124025000D03*
D19*
G36*
X123204504Y-123313704D02*
G01*
X123228773Y-123317304D01*
X123252571Y-123323265D01*
X123275671Y-123331530D01*
X123297849Y-123342020D01*
X123318893Y-123354633D01*
X123338598Y-123369247D01*
X123356777Y-123385723D01*
X123373253Y-123403902D01*
X123387867Y-123423607D01*
X123400480Y-123444651D01*
X123410970Y-123466829D01*
X123419235Y-123489929D01*
X123425196Y-123513727D01*
X123428796Y-123537996D01*
X123430000Y-123562500D01*
X123430000Y-124487500D01*
X123428796Y-124512004D01*
X123425196Y-124536273D01*
X123419235Y-124560071D01*
X123410970Y-124583171D01*
X123400480Y-124605349D01*
X123387867Y-124626393D01*
X123373253Y-124646098D01*
X123356777Y-124664277D01*
X123338598Y-124680753D01*
X123318893Y-124695367D01*
X123297849Y-124707980D01*
X123275671Y-124718470D01*
X123252571Y-124726735D01*
X123228773Y-124732696D01*
X123204504Y-124736296D01*
X123180000Y-124737500D01*
X121930000Y-124737500D01*
X121905496Y-124736296D01*
X121881227Y-124732696D01*
X121857429Y-124726735D01*
X121834329Y-124718470D01*
X121812151Y-124707980D01*
X121791107Y-124695367D01*
X121771402Y-124680753D01*
X121753223Y-124664277D01*
X121736747Y-124646098D01*
X121722133Y-124626393D01*
X121709520Y-124605349D01*
X121699030Y-124583171D01*
X121690765Y-124560071D01*
X121684804Y-124536273D01*
X121681204Y-124512004D01*
X121680000Y-124487500D01*
X121680000Y-123562500D01*
X121681204Y-123537996D01*
X121684804Y-123513727D01*
X121690765Y-123489929D01*
X121699030Y-123466829D01*
X121709520Y-123444651D01*
X121722133Y-123423607D01*
X121736747Y-123403902D01*
X121753223Y-123385723D01*
X121771402Y-123369247D01*
X121791107Y-123354633D01*
X121812151Y-123342020D01*
X121834329Y-123331530D01*
X121857429Y-123323265D01*
X121881227Y-123317304D01*
X121905496Y-123313704D01*
X121930000Y-123312500D01*
X123180000Y-123312500D01*
X123204504Y-123313704D01*
X123204504Y-123313704D01*
G37*
D36*
X122555000Y-124025000D03*
D19*
G36*
X123204504Y-126288704D02*
G01*
X123228773Y-126292304D01*
X123252571Y-126298265D01*
X123275671Y-126306530D01*
X123297849Y-126317020D01*
X123318893Y-126329633D01*
X123338598Y-126344247D01*
X123356777Y-126360723D01*
X123373253Y-126378902D01*
X123387867Y-126398607D01*
X123400480Y-126419651D01*
X123410970Y-126441829D01*
X123419235Y-126464929D01*
X123425196Y-126488727D01*
X123428796Y-126512996D01*
X123430000Y-126537500D01*
X123430000Y-127462500D01*
X123428796Y-127487004D01*
X123425196Y-127511273D01*
X123419235Y-127535071D01*
X123410970Y-127558171D01*
X123400480Y-127580349D01*
X123387867Y-127601393D01*
X123373253Y-127621098D01*
X123356777Y-127639277D01*
X123338598Y-127655753D01*
X123318893Y-127670367D01*
X123297849Y-127682980D01*
X123275671Y-127693470D01*
X123252571Y-127701735D01*
X123228773Y-127707696D01*
X123204504Y-127711296D01*
X123180000Y-127712500D01*
X121930000Y-127712500D01*
X121905496Y-127711296D01*
X121881227Y-127707696D01*
X121857429Y-127701735D01*
X121834329Y-127693470D01*
X121812151Y-127682980D01*
X121791107Y-127670367D01*
X121771402Y-127655753D01*
X121753223Y-127639277D01*
X121736747Y-127621098D01*
X121722133Y-127601393D01*
X121709520Y-127580349D01*
X121699030Y-127558171D01*
X121690765Y-127535071D01*
X121684804Y-127511273D01*
X121681204Y-127487004D01*
X121680000Y-127462500D01*
X121680000Y-126537500D01*
X121681204Y-126512996D01*
X121684804Y-126488727D01*
X121690765Y-126464929D01*
X121699030Y-126441829D01*
X121709520Y-126419651D01*
X121722133Y-126398607D01*
X121736747Y-126378902D01*
X121753223Y-126360723D01*
X121771402Y-126344247D01*
X121791107Y-126329633D01*
X121812151Y-126317020D01*
X121834329Y-126306530D01*
X121857429Y-126298265D01*
X121881227Y-126292304D01*
X121905496Y-126288704D01*
X121930000Y-126287500D01*
X123180000Y-126287500D01*
X123204504Y-126288704D01*
X123204504Y-126288704D01*
G37*
D36*
X122555000Y-127000000D03*
D19*
G36*
X154954504Y-117598704D02*
G01*
X154978773Y-117602304D01*
X155002571Y-117608265D01*
X155025671Y-117616530D01*
X155047849Y-117627020D01*
X155068893Y-117639633D01*
X155088598Y-117654247D01*
X155106777Y-117670723D01*
X155123253Y-117688902D01*
X155137867Y-117708607D01*
X155150480Y-117729651D01*
X155160970Y-117751829D01*
X155169235Y-117774929D01*
X155175196Y-117798727D01*
X155178796Y-117822996D01*
X155180000Y-117847500D01*
X155180000Y-118772500D01*
X155178796Y-118797004D01*
X155175196Y-118821273D01*
X155169235Y-118845071D01*
X155160970Y-118868171D01*
X155150480Y-118890349D01*
X155137867Y-118911393D01*
X155123253Y-118931098D01*
X155106777Y-118949277D01*
X155088598Y-118965753D01*
X155068893Y-118980367D01*
X155047849Y-118992980D01*
X155025671Y-119003470D01*
X155002571Y-119011735D01*
X154978773Y-119017696D01*
X154954504Y-119021296D01*
X154930000Y-119022500D01*
X153680000Y-119022500D01*
X153655496Y-119021296D01*
X153631227Y-119017696D01*
X153607429Y-119011735D01*
X153584329Y-119003470D01*
X153562151Y-118992980D01*
X153541107Y-118980367D01*
X153521402Y-118965753D01*
X153503223Y-118949277D01*
X153486747Y-118931098D01*
X153472133Y-118911393D01*
X153459520Y-118890349D01*
X153449030Y-118868171D01*
X153440765Y-118845071D01*
X153434804Y-118821273D01*
X153431204Y-118797004D01*
X153430000Y-118772500D01*
X153430000Y-117847500D01*
X153431204Y-117822996D01*
X153434804Y-117798727D01*
X153440765Y-117774929D01*
X153449030Y-117751829D01*
X153459520Y-117729651D01*
X153472133Y-117708607D01*
X153486747Y-117688902D01*
X153503223Y-117670723D01*
X153521402Y-117654247D01*
X153541107Y-117639633D01*
X153562151Y-117627020D01*
X153584329Y-117616530D01*
X153607429Y-117608265D01*
X153631227Y-117602304D01*
X153655496Y-117598704D01*
X153680000Y-117597500D01*
X154930000Y-117597500D01*
X154954504Y-117598704D01*
X154954504Y-117598704D01*
G37*
D36*
X154305000Y-118310000D03*
D19*
G36*
X154954504Y-120573704D02*
G01*
X154978773Y-120577304D01*
X155002571Y-120583265D01*
X155025671Y-120591530D01*
X155047849Y-120602020D01*
X155068893Y-120614633D01*
X155088598Y-120629247D01*
X155106777Y-120645723D01*
X155123253Y-120663902D01*
X155137867Y-120683607D01*
X155150480Y-120704651D01*
X155160970Y-120726829D01*
X155169235Y-120749929D01*
X155175196Y-120773727D01*
X155178796Y-120797996D01*
X155180000Y-120822500D01*
X155180000Y-121747500D01*
X155178796Y-121772004D01*
X155175196Y-121796273D01*
X155169235Y-121820071D01*
X155160970Y-121843171D01*
X155150480Y-121865349D01*
X155137867Y-121886393D01*
X155123253Y-121906098D01*
X155106777Y-121924277D01*
X155088598Y-121940753D01*
X155068893Y-121955367D01*
X155047849Y-121967980D01*
X155025671Y-121978470D01*
X155002571Y-121986735D01*
X154978773Y-121992696D01*
X154954504Y-121996296D01*
X154930000Y-121997500D01*
X153680000Y-121997500D01*
X153655496Y-121996296D01*
X153631227Y-121992696D01*
X153607429Y-121986735D01*
X153584329Y-121978470D01*
X153562151Y-121967980D01*
X153541107Y-121955367D01*
X153521402Y-121940753D01*
X153503223Y-121924277D01*
X153486747Y-121906098D01*
X153472133Y-121886393D01*
X153459520Y-121865349D01*
X153449030Y-121843171D01*
X153440765Y-121820071D01*
X153434804Y-121796273D01*
X153431204Y-121772004D01*
X153430000Y-121747500D01*
X153430000Y-120822500D01*
X153431204Y-120797996D01*
X153434804Y-120773727D01*
X153440765Y-120749929D01*
X153449030Y-120726829D01*
X153459520Y-120704651D01*
X153472133Y-120683607D01*
X153486747Y-120663902D01*
X153503223Y-120645723D01*
X153521402Y-120629247D01*
X153541107Y-120614633D01*
X153562151Y-120602020D01*
X153584329Y-120591530D01*
X153607429Y-120583265D01*
X153631227Y-120577304D01*
X153655496Y-120573704D01*
X153680000Y-120572500D01*
X154930000Y-120572500D01*
X154954504Y-120573704D01*
X154954504Y-120573704D01*
G37*
D36*
X154305000Y-121285000D03*
D19*
G36*
X151144504Y-117598704D02*
G01*
X151168773Y-117602304D01*
X151192571Y-117608265D01*
X151215671Y-117616530D01*
X151237849Y-117627020D01*
X151258893Y-117639633D01*
X151278598Y-117654247D01*
X151296777Y-117670723D01*
X151313253Y-117688902D01*
X151327867Y-117708607D01*
X151340480Y-117729651D01*
X151350970Y-117751829D01*
X151359235Y-117774929D01*
X151365196Y-117798727D01*
X151368796Y-117822996D01*
X151370000Y-117847500D01*
X151370000Y-118772500D01*
X151368796Y-118797004D01*
X151365196Y-118821273D01*
X151359235Y-118845071D01*
X151350970Y-118868171D01*
X151340480Y-118890349D01*
X151327867Y-118911393D01*
X151313253Y-118931098D01*
X151296777Y-118949277D01*
X151278598Y-118965753D01*
X151258893Y-118980367D01*
X151237849Y-118992980D01*
X151215671Y-119003470D01*
X151192571Y-119011735D01*
X151168773Y-119017696D01*
X151144504Y-119021296D01*
X151120000Y-119022500D01*
X149870000Y-119022500D01*
X149845496Y-119021296D01*
X149821227Y-119017696D01*
X149797429Y-119011735D01*
X149774329Y-119003470D01*
X149752151Y-118992980D01*
X149731107Y-118980367D01*
X149711402Y-118965753D01*
X149693223Y-118949277D01*
X149676747Y-118931098D01*
X149662133Y-118911393D01*
X149649520Y-118890349D01*
X149639030Y-118868171D01*
X149630765Y-118845071D01*
X149624804Y-118821273D01*
X149621204Y-118797004D01*
X149620000Y-118772500D01*
X149620000Y-117847500D01*
X149621204Y-117822996D01*
X149624804Y-117798727D01*
X149630765Y-117774929D01*
X149639030Y-117751829D01*
X149649520Y-117729651D01*
X149662133Y-117708607D01*
X149676747Y-117688902D01*
X149693223Y-117670723D01*
X149711402Y-117654247D01*
X149731107Y-117639633D01*
X149752151Y-117627020D01*
X149774329Y-117616530D01*
X149797429Y-117608265D01*
X149821227Y-117602304D01*
X149845496Y-117598704D01*
X149870000Y-117597500D01*
X151120000Y-117597500D01*
X151144504Y-117598704D01*
X151144504Y-117598704D01*
G37*
D36*
X150495000Y-118310000D03*
D19*
G36*
X151144504Y-120573704D02*
G01*
X151168773Y-120577304D01*
X151192571Y-120583265D01*
X151215671Y-120591530D01*
X151237849Y-120602020D01*
X151258893Y-120614633D01*
X151278598Y-120629247D01*
X151296777Y-120645723D01*
X151313253Y-120663902D01*
X151327867Y-120683607D01*
X151340480Y-120704651D01*
X151350970Y-120726829D01*
X151359235Y-120749929D01*
X151365196Y-120773727D01*
X151368796Y-120797996D01*
X151370000Y-120822500D01*
X151370000Y-121747500D01*
X151368796Y-121772004D01*
X151365196Y-121796273D01*
X151359235Y-121820071D01*
X151350970Y-121843171D01*
X151340480Y-121865349D01*
X151327867Y-121886393D01*
X151313253Y-121906098D01*
X151296777Y-121924277D01*
X151278598Y-121940753D01*
X151258893Y-121955367D01*
X151237849Y-121967980D01*
X151215671Y-121978470D01*
X151192571Y-121986735D01*
X151168773Y-121992696D01*
X151144504Y-121996296D01*
X151120000Y-121997500D01*
X149870000Y-121997500D01*
X149845496Y-121996296D01*
X149821227Y-121992696D01*
X149797429Y-121986735D01*
X149774329Y-121978470D01*
X149752151Y-121967980D01*
X149731107Y-121955367D01*
X149711402Y-121940753D01*
X149693223Y-121924277D01*
X149676747Y-121906098D01*
X149662133Y-121886393D01*
X149649520Y-121865349D01*
X149639030Y-121843171D01*
X149630765Y-121820071D01*
X149624804Y-121796273D01*
X149621204Y-121772004D01*
X149620000Y-121747500D01*
X149620000Y-120822500D01*
X149621204Y-120797996D01*
X149624804Y-120773727D01*
X149630765Y-120749929D01*
X149639030Y-120726829D01*
X149649520Y-120704651D01*
X149662133Y-120683607D01*
X149676747Y-120663902D01*
X149693223Y-120645723D01*
X149711402Y-120629247D01*
X149731107Y-120614633D01*
X149752151Y-120602020D01*
X149774329Y-120591530D01*
X149797429Y-120583265D01*
X149821227Y-120577304D01*
X149845496Y-120573704D01*
X149870000Y-120572500D01*
X151120000Y-120572500D01*
X151144504Y-120573704D01*
X151144504Y-120573704D01*
G37*
D36*
X150495000Y-121285000D03*
D19*
G36*
X133364504Y-117598704D02*
G01*
X133388773Y-117602304D01*
X133412571Y-117608265D01*
X133435671Y-117616530D01*
X133457849Y-117627020D01*
X133478893Y-117639633D01*
X133498598Y-117654247D01*
X133516777Y-117670723D01*
X133533253Y-117688902D01*
X133547867Y-117708607D01*
X133560480Y-117729651D01*
X133570970Y-117751829D01*
X133579235Y-117774929D01*
X133585196Y-117798727D01*
X133588796Y-117822996D01*
X133590000Y-117847500D01*
X133590000Y-118772500D01*
X133588796Y-118797004D01*
X133585196Y-118821273D01*
X133579235Y-118845071D01*
X133570970Y-118868171D01*
X133560480Y-118890349D01*
X133547867Y-118911393D01*
X133533253Y-118931098D01*
X133516777Y-118949277D01*
X133498598Y-118965753D01*
X133478893Y-118980367D01*
X133457849Y-118992980D01*
X133435671Y-119003470D01*
X133412571Y-119011735D01*
X133388773Y-119017696D01*
X133364504Y-119021296D01*
X133340000Y-119022500D01*
X132090000Y-119022500D01*
X132065496Y-119021296D01*
X132041227Y-119017696D01*
X132017429Y-119011735D01*
X131994329Y-119003470D01*
X131972151Y-118992980D01*
X131951107Y-118980367D01*
X131931402Y-118965753D01*
X131913223Y-118949277D01*
X131896747Y-118931098D01*
X131882133Y-118911393D01*
X131869520Y-118890349D01*
X131859030Y-118868171D01*
X131850765Y-118845071D01*
X131844804Y-118821273D01*
X131841204Y-118797004D01*
X131840000Y-118772500D01*
X131840000Y-117847500D01*
X131841204Y-117822996D01*
X131844804Y-117798727D01*
X131850765Y-117774929D01*
X131859030Y-117751829D01*
X131869520Y-117729651D01*
X131882133Y-117708607D01*
X131896747Y-117688902D01*
X131913223Y-117670723D01*
X131931402Y-117654247D01*
X131951107Y-117639633D01*
X131972151Y-117627020D01*
X131994329Y-117616530D01*
X132017429Y-117608265D01*
X132041227Y-117602304D01*
X132065496Y-117598704D01*
X132090000Y-117597500D01*
X133340000Y-117597500D01*
X133364504Y-117598704D01*
X133364504Y-117598704D01*
G37*
D36*
X132715000Y-118310000D03*
D19*
G36*
X133364504Y-120573704D02*
G01*
X133388773Y-120577304D01*
X133412571Y-120583265D01*
X133435671Y-120591530D01*
X133457849Y-120602020D01*
X133478893Y-120614633D01*
X133498598Y-120629247D01*
X133516777Y-120645723D01*
X133533253Y-120663902D01*
X133547867Y-120683607D01*
X133560480Y-120704651D01*
X133570970Y-120726829D01*
X133579235Y-120749929D01*
X133585196Y-120773727D01*
X133588796Y-120797996D01*
X133590000Y-120822500D01*
X133590000Y-121747500D01*
X133588796Y-121772004D01*
X133585196Y-121796273D01*
X133579235Y-121820071D01*
X133570970Y-121843171D01*
X133560480Y-121865349D01*
X133547867Y-121886393D01*
X133533253Y-121906098D01*
X133516777Y-121924277D01*
X133498598Y-121940753D01*
X133478893Y-121955367D01*
X133457849Y-121967980D01*
X133435671Y-121978470D01*
X133412571Y-121986735D01*
X133388773Y-121992696D01*
X133364504Y-121996296D01*
X133340000Y-121997500D01*
X132090000Y-121997500D01*
X132065496Y-121996296D01*
X132041227Y-121992696D01*
X132017429Y-121986735D01*
X131994329Y-121978470D01*
X131972151Y-121967980D01*
X131951107Y-121955367D01*
X131931402Y-121940753D01*
X131913223Y-121924277D01*
X131896747Y-121906098D01*
X131882133Y-121886393D01*
X131869520Y-121865349D01*
X131859030Y-121843171D01*
X131850765Y-121820071D01*
X131844804Y-121796273D01*
X131841204Y-121772004D01*
X131840000Y-121747500D01*
X131840000Y-120822500D01*
X131841204Y-120797996D01*
X131844804Y-120773727D01*
X131850765Y-120749929D01*
X131859030Y-120726829D01*
X131869520Y-120704651D01*
X131882133Y-120683607D01*
X131896747Y-120663902D01*
X131913223Y-120645723D01*
X131931402Y-120629247D01*
X131951107Y-120614633D01*
X131972151Y-120602020D01*
X131994329Y-120591530D01*
X132017429Y-120583265D01*
X132041227Y-120577304D01*
X132065496Y-120573704D01*
X132090000Y-120572500D01*
X133340000Y-120572500D01*
X133364504Y-120573704D01*
X133364504Y-120573704D01*
G37*
D36*
X132715000Y-121285000D03*
D19*
G36*
X127014504Y-117598704D02*
G01*
X127038773Y-117602304D01*
X127062571Y-117608265D01*
X127085671Y-117616530D01*
X127107849Y-117627020D01*
X127128893Y-117639633D01*
X127148598Y-117654247D01*
X127166777Y-117670723D01*
X127183253Y-117688902D01*
X127197867Y-117708607D01*
X127210480Y-117729651D01*
X127220970Y-117751829D01*
X127229235Y-117774929D01*
X127235196Y-117798727D01*
X127238796Y-117822996D01*
X127240000Y-117847500D01*
X127240000Y-118772500D01*
X127238796Y-118797004D01*
X127235196Y-118821273D01*
X127229235Y-118845071D01*
X127220970Y-118868171D01*
X127210480Y-118890349D01*
X127197867Y-118911393D01*
X127183253Y-118931098D01*
X127166777Y-118949277D01*
X127148598Y-118965753D01*
X127128893Y-118980367D01*
X127107849Y-118992980D01*
X127085671Y-119003470D01*
X127062571Y-119011735D01*
X127038773Y-119017696D01*
X127014504Y-119021296D01*
X126990000Y-119022500D01*
X125740000Y-119022500D01*
X125715496Y-119021296D01*
X125691227Y-119017696D01*
X125667429Y-119011735D01*
X125644329Y-119003470D01*
X125622151Y-118992980D01*
X125601107Y-118980367D01*
X125581402Y-118965753D01*
X125563223Y-118949277D01*
X125546747Y-118931098D01*
X125532133Y-118911393D01*
X125519520Y-118890349D01*
X125509030Y-118868171D01*
X125500765Y-118845071D01*
X125494804Y-118821273D01*
X125491204Y-118797004D01*
X125490000Y-118772500D01*
X125490000Y-117847500D01*
X125491204Y-117822996D01*
X125494804Y-117798727D01*
X125500765Y-117774929D01*
X125509030Y-117751829D01*
X125519520Y-117729651D01*
X125532133Y-117708607D01*
X125546747Y-117688902D01*
X125563223Y-117670723D01*
X125581402Y-117654247D01*
X125601107Y-117639633D01*
X125622151Y-117627020D01*
X125644329Y-117616530D01*
X125667429Y-117608265D01*
X125691227Y-117602304D01*
X125715496Y-117598704D01*
X125740000Y-117597500D01*
X126990000Y-117597500D01*
X127014504Y-117598704D01*
X127014504Y-117598704D01*
G37*
D36*
X126365000Y-118310000D03*
D19*
G36*
X127014504Y-120573704D02*
G01*
X127038773Y-120577304D01*
X127062571Y-120583265D01*
X127085671Y-120591530D01*
X127107849Y-120602020D01*
X127128893Y-120614633D01*
X127148598Y-120629247D01*
X127166777Y-120645723D01*
X127183253Y-120663902D01*
X127197867Y-120683607D01*
X127210480Y-120704651D01*
X127220970Y-120726829D01*
X127229235Y-120749929D01*
X127235196Y-120773727D01*
X127238796Y-120797996D01*
X127240000Y-120822500D01*
X127240000Y-121747500D01*
X127238796Y-121772004D01*
X127235196Y-121796273D01*
X127229235Y-121820071D01*
X127220970Y-121843171D01*
X127210480Y-121865349D01*
X127197867Y-121886393D01*
X127183253Y-121906098D01*
X127166777Y-121924277D01*
X127148598Y-121940753D01*
X127128893Y-121955367D01*
X127107849Y-121967980D01*
X127085671Y-121978470D01*
X127062571Y-121986735D01*
X127038773Y-121992696D01*
X127014504Y-121996296D01*
X126990000Y-121997500D01*
X125740000Y-121997500D01*
X125715496Y-121996296D01*
X125691227Y-121992696D01*
X125667429Y-121986735D01*
X125644329Y-121978470D01*
X125622151Y-121967980D01*
X125601107Y-121955367D01*
X125581402Y-121940753D01*
X125563223Y-121924277D01*
X125546747Y-121906098D01*
X125532133Y-121886393D01*
X125519520Y-121865349D01*
X125509030Y-121843171D01*
X125500765Y-121820071D01*
X125494804Y-121796273D01*
X125491204Y-121772004D01*
X125490000Y-121747500D01*
X125490000Y-120822500D01*
X125491204Y-120797996D01*
X125494804Y-120773727D01*
X125500765Y-120749929D01*
X125509030Y-120726829D01*
X125519520Y-120704651D01*
X125532133Y-120683607D01*
X125546747Y-120663902D01*
X125563223Y-120645723D01*
X125581402Y-120629247D01*
X125601107Y-120614633D01*
X125622151Y-120602020D01*
X125644329Y-120591530D01*
X125667429Y-120583265D01*
X125691227Y-120577304D01*
X125715496Y-120573704D01*
X125740000Y-120572500D01*
X126990000Y-120572500D01*
X127014504Y-120573704D01*
X127014504Y-120573704D01*
G37*
D36*
X126365000Y-121285000D03*
D19*
G36*
X123204504Y-120573704D02*
G01*
X123228773Y-120577304D01*
X123252571Y-120583265D01*
X123275671Y-120591530D01*
X123297849Y-120602020D01*
X123318893Y-120614633D01*
X123338598Y-120629247D01*
X123356777Y-120645723D01*
X123373253Y-120663902D01*
X123387867Y-120683607D01*
X123400480Y-120704651D01*
X123410970Y-120726829D01*
X123419235Y-120749929D01*
X123425196Y-120773727D01*
X123428796Y-120797996D01*
X123430000Y-120822500D01*
X123430000Y-121747500D01*
X123428796Y-121772004D01*
X123425196Y-121796273D01*
X123419235Y-121820071D01*
X123410970Y-121843171D01*
X123400480Y-121865349D01*
X123387867Y-121886393D01*
X123373253Y-121906098D01*
X123356777Y-121924277D01*
X123338598Y-121940753D01*
X123318893Y-121955367D01*
X123297849Y-121967980D01*
X123275671Y-121978470D01*
X123252571Y-121986735D01*
X123228773Y-121992696D01*
X123204504Y-121996296D01*
X123180000Y-121997500D01*
X121930000Y-121997500D01*
X121905496Y-121996296D01*
X121881227Y-121992696D01*
X121857429Y-121986735D01*
X121834329Y-121978470D01*
X121812151Y-121967980D01*
X121791107Y-121955367D01*
X121771402Y-121940753D01*
X121753223Y-121924277D01*
X121736747Y-121906098D01*
X121722133Y-121886393D01*
X121709520Y-121865349D01*
X121699030Y-121843171D01*
X121690765Y-121820071D01*
X121684804Y-121796273D01*
X121681204Y-121772004D01*
X121680000Y-121747500D01*
X121680000Y-120822500D01*
X121681204Y-120797996D01*
X121684804Y-120773727D01*
X121690765Y-120749929D01*
X121699030Y-120726829D01*
X121709520Y-120704651D01*
X121722133Y-120683607D01*
X121736747Y-120663902D01*
X121753223Y-120645723D01*
X121771402Y-120629247D01*
X121791107Y-120614633D01*
X121812151Y-120602020D01*
X121834329Y-120591530D01*
X121857429Y-120583265D01*
X121881227Y-120577304D01*
X121905496Y-120573704D01*
X121930000Y-120572500D01*
X123180000Y-120572500D01*
X123204504Y-120573704D01*
X123204504Y-120573704D01*
G37*
D36*
X122555000Y-121285000D03*
D19*
G36*
X123204504Y-117598704D02*
G01*
X123228773Y-117602304D01*
X123252571Y-117608265D01*
X123275671Y-117616530D01*
X123297849Y-117627020D01*
X123318893Y-117639633D01*
X123338598Y-117654247D01*
X123356777Y-117670723D01*
X123373253Y-117688902D01*
X123387867Y-117708607D01*
X123400480Y-117729651D01*
X123410970Y-117751829D01*
X123419235Y-117774929D01*
X123425196Y-117798727D01*
X123428796Y-117822996D01*
X123430000Y-117847500D01*
X123430000Y-118772500D01*
X123428796Y-118797004D01*
X123425196Y-118821273D01*
X123419235Y-118845071D01*
X123410970Y-118868171D01*
X123400480Y-118890349D01*
X123387867Y-118911393D01*
X123373253Y-118931098D01*
X123356777Y-118949277D01*
X123338598Y-118965753D01*
X123318893Y-118980367D01*
X123297849Y-118992980D01*
X123275671Y-119003470D01*
X123252571Y-119011735D01*
X123228773Y-119017696D01*
X123204504Y-119021296D01*
X123180000Y-119022500D01*
X121930000Y-119022500D01*
X121905496Y-119021296D01*
X121881227Y-119017696D01*
X121857429Y-119011735D01*
X121834329Y-119003470D01*
X121812151Y-118992980D01*
X121791107Y-118980367D01*
X121771402Y-118965753D01*
X121753223Y-118949277D01*
X121736747Y-118931098D01*
X121722133Y-118911393D01*
X121709520Y-118890349D01*
X121699030Y-118868171D01*
X121690765Y-118845071D01*
X121684804Y-118821273D01*
X121681204Y-118797004D01*
X121680000Y-118772500D01*
X121680000Y-117847500D01*
X121681204Y-117822996D01*
X121684804Y-117798727D01*
X121690765Y-117774929D01*
X121699030Y-117751829D01*
X121709520Y-117729651D01*
X121722133Y-117708607D01*
X121736747Y-117688902D01*
X121753223Y-117670723D01*
X121771402Y-117654247D01*
X121791107Y-117639633D01*
X121812151Y-117627020D01*
X121834329Y-117616530D01*
X121857429Y-117608265D01*
X121881227Y-117602304D01*
X121905496Y-117598704D01*
X121930000Y-117597500D01*
X123180000Y-117597500D01*
X123204504Y-117598704D01*
X123204504Y-117598704D01*
G37*
D36*
X122555000Y-118310000D03*
D13*
X147320000Y-120015000D03*
D14*
X147320000Y-117475000D03*
D19*
G36*
X165749504Y-64276204D02*
G01*
X165773773Y-64279804D01*
X165797571Y-64285765D01*
X165820671Y-64294030D01*
X165842849Y-64304520D01*
X165863893Y-64317133D01*
X165883598Y-64331747D01*
X165901777Y-64348223D01*
X165918253Y-64366402D01*
X165932867Y-64386107D01*
X165945480Y-64407151D01*
X165955970Y-64429329D01*
X165964235Y-64452429D01*
X165970196Y-64476227D01*
X165973796Y-64500496D01*
X165975000Y-64525000D01*
X165975000Y-65450000D01*
X165973796Y-65474504D01*
X165970196Y-65498773D01*
X165964235Y-65522571D01*
X165955970Y-65545671D01*
X165945480Y-65567849D01*
X165932867Y-65588893D01*
X165918253Y-65608598D01*
X165901777Y-65626777D01*
X165883598Y-65643253D01*
X165863893Y-65657867D01*
X165842849Y-65670480D01*
X165820671Y-65680970D01*
X165797571Y-65689235D01*
X165773773Y-65695196D01*
X165749504Y-65698796D01*
X165725000Y-65700000D01*
X164475000Y-65700000D01*
X164450496Y-65698796D01*
X164426227Y-65695196D01*
X164402429Y-65689235D01*
X164379329Y-65680970D01*
X164357151Y-65670480D01*
X164336107Y-65657867D01*
X164316402Y-65643253D01*
X164298223Y-65626777D01*
X164281747Y-65608598D01*
X164267133Y-65588893D01*
X164254520Y-65567849D01*
X164244030Y-65545671D01*
X164235765Y-65522571D01*
X164229804Y-65498773D01*
X164226204Y-65474504D01*
X164225000Y-65450000D01*
X164225000Y-64525000D01*
X164226204Y-64500496D01*
X164229804Y-64476227D01*
X164235765Y-64452429D01*
X164244030Y-64429329D01*
X164254520Y-64407151D01*
X164267133Y-64386107D01*
X164281747Y-64366402D01*
X164298223Y-64348223D01*
X164316402Y-64331747D01*
X164336107Y-64317133D01*
X164357151Y-64304520D01*
X164379329Y-64294030D01*
X164402429Y-64285765D01*
X164426227Y-64279804D01*
X164450496Y-64276204D01*
X164475000Y-64275000D01*
X165725000Y-64275000D01*
X165749504Y-64276204D01*
X165749504Y-64276204D01*
G37*
D36*
X165100000Y-64987500D03*
D19*
G36*
X165749504Y-61301204D02*
G01*
X165773773Y-61304804D01*
X165797571Y-61310765D01*
X165820671Y-61319030D01*
X165842849Y-61329520D01*
X165863893Y-61342133D01*
X165883598Y-61356747D01*
X165901777Y-61373223D01*
X165918253Y-61391402D01*
X165932867Y-61411107D01*
X165945480Y-61432151D01*
X165955970Y-61454329D01*
X165964235Y-61477429D01*
X165970196Y-61501227D01*
X165973796Y-61525496D01*
X165975000Y-61550000D01*
X165975000Y-62475000D01*
X165973796Y-62499504D01*
X165970196Y-62523773D01*
X165964235Y-62547571D01*
X165955970Y-62570671D01*
X165945480Y-62592849D01*
X165932867Y-62613893D01*
X165918253Y-62633598D01*
X165901777Y-62651777D01*
X165883598Y-62668253D01*
X165863893Y-62682867D01*
X165842849Y-62695480D01*
X165820671Y-62705970D01*
X165797571Y-62714235D01*
X165773773Y-62720196D01*
X165749504Y-62723796D01*
X165725000Y-62725000D01*
X164475000Y-62725000D01*
X164450496Y-62723796D01*
X164426227Y-62720196D01*
X164402429Y-62714235D01*
X164379329Y-62705970D01*
X164357151Y-62695480D01*
X164336107Y-62682867D01*
X164316402Y-62668253D01*
X164298223Y-62651777D01*
X164281747Y-62633598D01*
X164267133Y-62613893D01*
X164254520Y-62592849D01*
X164244030Y-62570671D01*
X164235765Y-62547571D01*
X164229804Y-62523773D01*
X164226204Y-62499504D01*
X164225000Y-62475000D01*
X164225000Y-61550000D01*
X164226204Y-61525496D01*
X164229804Y-61501227D01*
X164235765Y-61477429D01*
X164244030Y-61454329D01*
X164254520Y-61432151D01*
X164267133Y-61411107D01*
X164281747Y-61391402D01*
X164298223Y-61373223D01*
X164316402Y-61356747D01*
X164336107Y-61342133D01*
X164357151Y-61329520D01*
X164379329Y-61319030D01*
X164402429Y-61310765D01*
X164426227Y-61304804D01*
X164450496Y-61301204D01*
X164475000Y-61300000D01*
X165725000Y-61300000D01*
X165749504Y-61301204D01*
X165749504Y-61301204D01*
G37*
D36*
X165100000Y-62012500D03*
D19*
G36*
X131878004Y-78501204D02*
G01*
X131902273Y-78504804D01*
X131926071Y-78510765D01*
X131949171Y-78519030D01*
X131971349Y-78529520D01*
X131992393Y-78542133D01*
X132012098Y-78556747D01*
X132030277Y-78573223D01*
X132046753Y-78591402D01*
X132061367Y-78611107D01*
X132073980Y-78632151D01*
X132084470Y-78654329D01*
X132092735Y-78677429D01*
X132098696Y-78701227D01*
X132102296Y-78725496D01*
X132103500Y-78750000D01*
X132103500Y-80000000D01*
X132102296Y-80024504D01*
X132098696Y-80048773D01*
X132092735Y-80072571D01*
X132084470Y-80095671D01*
X132073980Y-80117849D01*
X132061367Y-80138893D01*
X132046753Y-80158598D01*
X132030277Y-80176777D01*
X132012098Y-80193253D01*
X131992393Y-80207867D01*
X131971349Y-80220480D01*
X131949171Y-80230970D01*
X131926071Y-80239235D01*
X131902273Y-80245196D01*
X131878004Y-80248796D01*
X131853500Y-80250000D01*
X130928500Y-80250000D01*
X130903996Y-80248796D01*
X130879727Y-80245196D01*
X130855929Y-80239235D01*
X130832829Y-80230970D01*
X130810651Y-80220480D01*
X130789607Y-80207867D01*
X130769902Y-80193253D01*
X130751723Y-80176777D01*
X130735247Y-80158598D01*
X130720633Y-80138893D01*
X130708020Y-80117849D01*
X130697530Y-80095671D01*
X130689265Y-80072571D01*
X130683304Y-80048773D01*
X130679704Y-80024504D01*
X130678500Y-80000000D01*
X130678500Y-78750000D01*
X130679704Y-78725496D01*
X130683304Y-78701227D01*
X130689265Y-78677429D01*
X130697530Y-78654329D01*
X130708020Y-78632151D01*
X130720633Y-78611107D01*
X130735247Y-78591402D01*
X130751723Y-78573223D01*
X130769902Y-78556747D01*
X130789607Y-78542133D01*
X130810651Y-78529520D01*
X130832829Y-78519030D01*
X130855929Y-78510765D01*
X130879727Y-78504804D01*
X130903996Y-78501204D01*
X130928500Y-78500000D01*
X131853500Y-78500000D01*
X131878004Y-78501204D01*
X131878004Y-78501204D01*
G37*
D36*
X131391000Y-79375000D03*
D19*
G36*
X134853004Y-78501204D02*
G01*
X134877273Y-78504804D01*
X134901071Y-78510765D01*
X134924171Y-78519030D01*
X134946349Y-78529520D01*
X134967393Y-78542133D01*
X134987098Y-78556747D01*
X135005277Y-78573223D01*
X135021753Y-78591402D01*
X135036367Y-78611107D01*
X135048980Y-78632151D01*
X135059470Y-78654329D01*
X135067735Y-78677429D01*
X135073696Y-78701227D01*
X135077296Y-78725496D01*
X135078500Y-78750000D01*
X135078500Y-80000000D01*
X135077296Y-80024504D01*
X135073696Y-80048773D01*
X135067735Y-80072571D01*
X135059470Y-80095671D01*
X135048980Y-80117849D01*
X135036367Y-80138893D01*
X135021753Y-80158598D01*
X135005277Y-80176777D01*
X134987098Y-80193253D01*
X134967393Y-80207867D01*
X134946349Y-80220480D01*
X134924171Y-80230970D01*
X134901071Y-80239235D01*
X134877273Y-80245196D01*
X134853004Y-80248796D01*
X134828500Y-80250000D01*
X133903500Y-80250000D01*
X133878996Y-80248796D01*
X133854727Y-80245196D01*
X133830929Y-80239235D01*
X133807829Y-80230970D01*
X133785651Y-80220480D01*
X133764607Y-80207867D01*
X133744902Y-80193253D01*
X133726723Y-80176777D01*
X133710247Y-80158598D01*
X133695633Y-80138893D01*
X133683020Y-80117849D01*
X133672530Y-80095671D01*
X133664265Y-80072571D01*
X133658304Y-80048773D01*
X133654704Y-80024504D01*
X133653500Y-80000000D01*
X133653500Y-78750000D01*
X133654704Y-78725496D01*
X133658304Y-78701227D01*
X133664265Y-78677429D01*
X133672530Y-78654329D01*
X133683020Y-78632151D01*
X133695633Y-78611107D01*
X133710247Y-78591402D01*
X133726723Y-78573223D01*
X133744902Y-78556747D01*
X133764607Y-78542133D01*
X133785651Y-78529520D01*
X133807829Y-78519030D01*
X133830929Y-78510765D01*
X133854727Y-78504804D01*
X133878996Y-78501204D01*
X133903500Y-78500000D01*
X134828500Y-78500000D01*
X134853004Y-78501204D01*
X134853004Y-78501204D01*
G37*
D36*
X134366000Y-79375000D03*
D41*
X103632000Y-71120000D03*
X103632000Y-76200000D03*
X106172000Y-73660000D03*
X101092000Y-73660000D03*
X166370000Y-94615000D03*
X166370000Y-81915000D03*
X160020000Y-88265000D03*
X172720000Y-88265000D03*
X170815000Y-92710000D03*
X161925000Y-92710000D03*
X161925000Y-83820000D03*
X170815000Y-83820000D03*
X114300000Y-84455000D03*
X115570000Y-108585000D03*
X165100000Y-63500000D03*
X107315000Y-81915000D03*
X107315000Y-85725000D03*
X103505000Y-85725000D03*
X103505000Y-81915000D03*
X120650000Y-96520000D03*
X122580400Y-103835200D03*
X166370000Y-113665000D03*
X170815000Y-111760000D03*
X161925000Y-102870000D03*
X161925000Y-111760000D03*
X160020000Y-107315000D03*
X170815000Y-102870000D03*
X166370000Y-100965000D03*
X172720000Y-107315000D03*
X128016000Y-86169500D03*
X128016000Y-106997500D03*
X128524000Y-111506000D03*
X127000000Y-84074000D03*
X132715000Y-82550000D03*
X143764000Y-81087900D03*
X146435167Y-87210514D03*
X147574000Y-81089500D03*
X147701000Y-86995000D03*
D42*
X147320000Y-123825000D02*
X147320000Y-120015000D01*
X146037999Y-115049999D02*
X145288000Y-114300000D01*
X147269003Y-115500001D02*
X146488001Y-115500001D01*
X147320000Y-120015000D02*
X154940000Y-120015000D01*
X154940000Y-120015000D02*
X156210000Y-118745000D01*
X146488001Y-115500001D02*
X146037999Y-115049999D01*
X155575000Y-116840000D02*
X148609002Y-116840000D01*
X156210000Y-118745000D02*
X156210000Y-117475000D01*
X156210000Y-117475000D02*
X155575000Y-116840000D01*
X148609002Y-116840000D02*
X147269003Y-115500001D01*
X145165000Y-131337000D02*
X145165000Y-130937000D01*
X143614990Y-132887010D02*
X145165000Y-131337000D01*
X134482010Y-132887010D02*
X143614990Y-132887010D01*
X134032000Y-132437000D02*
X134482010Y-132887010D01*
X134032000Y-130937000D02*
X134032000Y-132437000D01*
X145165000Y-130937000D02*
X147165000Y-130937000D01*
X147320000Y-126325000D02*
X147320000Y-128905000D01*
X147165000Y-129060000D02*
X147165000Y-130937000D01*
X147320000Y-128905000D02*
X147165000Y-129060000D01*
X122772500Y-108585000D02*
X123585000Y-108585000D01*
X123585000Y-108585000D02*
X127889000Y-108585000D01*
X127889000Y-108585000D02*
X127635000Y-108585000D01*
X128905000Y-108585000D02*
X129032000Y-108458000D01*
X129032000Y-108458000D02*
X129032000Y-108331000D01*
X128270000Y-108585000D02*
X129032000Y-107823000D01*
X129032000Y-108331000D02*
X129032000Y-107823000D01*
X128270000Y-108585000D02*
X128905000Y-108585000D01*
X127889000Y-108585000D02*
X128270000Y-108585000D01*
X128270000Y-108585000D02*
X129032000Y-109347000D01*
X129032000Y-109347000D02*
X129032000Y-108458000D01*
X129032000Y-77470000D02*
X127762000Y-76200000D01*
X127762000Y-76200000D02*
X127384629Y-76200000D01*
X127384629Y-76200000D02*
X125730000Y-76200000D01*
X129032000Y-84886800D02*
X129032000Y-77470000D01*
X129032000Y-107823000D02*
X129032000Y-84886800D01*
X129032000Y-110490000D02*
X129032000Y-109347000D01*
X147574000Y-110998000D02*
X129540000Y-110998000D01*
X129540000Y-110998000D02*
X129032000Y-110490000D01*
X147574000Y-110998000D02*
X147614000Y-110998000D01*
X151384000Y-114808000D02*
X151424000Y-114808000D01*
X147574000Y-110998000D02*
X151384000Y-114808000D01*
D43*
X105490000Y-83900000D02*
X107315000Y-85725000D01*
X105410000Y-83900000D02*
X105490000Y-83900000D01*
X105330000Y-83900000D02*
X103505000Y-85725000D01*
X105410000Y-83900000D02*
X105330000Y-83900000D01*
X105410000Y-83900000D02*
X105410000Y-83820000D01*
X140970000Y-76200000D02*
X145970000Y-76200000D01*
D42*
X114432000Y-84587000D02*
X114300000Y-84455000D01*
X115570000Y-84587000D02*
X114432000Y-84587000D01*
X114082500Y-108585000D02*
X115570000Y-108585000D01*
X165100000Y-62012500D02*
X165100000Y-63500000D01*
X134366000Y-79375000D02*
X134366000Y-77851000D01*
X133945000Y-77430000D02*
X133945000Y-76073000D01*
X134366000Y-77851000D02*
X133945000Y-77430000D01*
X147574000Y-79602000D02*
X151384000Y-79602000D01*
D43*
X140970000Y-79034000D02*
X139954000Y-80050000D01*
X140970000Y-76200000D02*
X140970000Y-79034000D01*
D42*
X147572400Y-79600400D02*
X147574000Y-79602000D01*
X143764000Y-79600400D02*
X147572400Y-79600400D01*
X140403600Y-79600400D02*
X139954000Y-80050000D01*
X141264000Y-79034000D02*
X141830400Y-79600400D01*
X140970000Y-79034000D02*
X141264000Y-79034000D01*
X143764000Y-79600400D02*
X141830400Y-79600400D01*
X141830400Y-79600400D02*
X140403600Y-79600400D01*
X154746000Y-79602000D02*
X155194000Y-80050000D01*
X151384000Y-79602000D02*
X154746000Y-79602000D01*
D43*
X105410000Y-83820000D02*
X107315000Y-81915000D01*
X105410000Y-83820000D02*
X103505000Y-81915000D01*
X107315000Y-81915000D02*
X107315000Y-81915000D01*
X107315000Y-85725000D02*
X107315000Y-85725000D01*
X103505000Y-85725000D02*
X103505000Y-85725000D01*
X103505000Y-81915000D02*
X103505000Y-81915000D01*
D42*
X120650000Y-96520000D02*
X122137500Y-96520000D01*
D43*
X103632000Y-73660000D02*
X103632000Y-71120000D01*
X103632000Y-73660000D02*
X103632000Y-76200000D01*
X103632000Y-73660000D02*
X101092000Y-73660000D01*
X103632000Y-73660000D02*
X106172000Y-73660000D01*
D42*
X161925000Y-92710000D02*
X166370000Y-88265000D01*
X172720000Y-88265000D02*
X166370000Y-88265000D01*
X170815000Y-83820000D02*
X166370000Y-88265000D01*
X166370000Y-81915000D02*
X166370000Y-88265000D01*
X161925000Y-83820000D02*
X166370000Y-88265000D01*
X160020000Y-88265000D02*
X166370000Y-88265000D01*
X170415001Y-92310001D02*
X166370000Y-88265000D01*
X170815000Y-92710000D02*
X170415001Y-92310001D01*
X166370000Y-94615000D02*
X166370000Y-94049315D01*
X166370000Y-94049315D02*
X166370000Y-88265000D01*
X122555000Y-103860600D02*
X122580400Y-103835200D01*
X122555000Y-105915000D02*
X122555000Y-103860600D01*
D44*
X127635000Y-107950000D02*
X123825000Y-107950000D01*
X127635000Y-109220000D02*
X123825000Y-109220000D01*
D42*
X137525000Y-117410000D02*
X136525000Y-118410000D01*
X137525000Y-116310000D02*
X137525000Y-117410000D01*
X136525000Y-118410000D02*
X136525000Y-119560000D01*
X136525000Y-123825000D02*
X136525000Y-119560000D01*
D43*
X166370000Y-107315000D02*
X171091998Y-107315000D01*
X167005000Y-107315000D02*
X170180000Y-110490000D01*
X166370000Y-107315000D02*
X167005000Y-107315000D01*
D42*
X166370000Y-107315000D02*
X169760001Y-103924999D01*
X111776500Y-120205500D02*
X112470498Y-120205500D01*
X136475000Y-119560000D02*
X136525000Y-119560000D01*
X133755000Y-116840000D02*
X136475000Y-119560000D01*
X120015000Y-118110000D02*
X121285000Y-116840000D01*
X113992000Y-115941500D02*
X113982500Y-115951000D01*
X113865000Y-115941500D02*
X113855500Y-115951000D01*
X112605500Y-115951000D02*
X113855500Y-115951000D01*
X114855500Y-116951000D02*
X113855500Y-115951000D01*
X117105500Y-116951000D02*
X114855500Y-116951000D01*
X113855500Y-115951000D02*
X113855500Y-113982500D01*
X114119000Y-113719000D02*
X114119000Y-111760000D01*
X113855500Y-113982500D02*
X114119000Y-113719000D01*
X128016000Y-116840000D02*
X133755000Y-116840000D01*
X125730000Y-116840000D02*
X126365000Y-116840000D01*
X121285000Y-116840000D02*
X125730000Y-116840000D01*
X126365000Y-116840000D02*
X127000000Y-116840000D01*
X127000000Y-116840000D02*
X128016000Y-116840000D01*
X131391000Y-76127000D02*
X131445000Y-76073000D01*
X131391000Y-79375000D02*
X131391000Y-76127000D01*
D44*
X127635000Y-109220000D02*
X128016000Y-109601000D01*
X127635000Y-107950000D02*
X128016000Y-107569000D01*
X128143000Y-85471000D02*
X128143000Y-85471000D01*
D42*
X137525000Y-115310000D02*
X137525000Y-113210000D01*
X137525000Y-113210000D02*
X137525000Y-112919000D01*
X137525000Y-112919000D02*
X137668000Y-112776000D01*
X137668000Y-112776000D02*
X137668000Y-112522000D01*
X137668000Y-112522000D02*
X137668000Y-112268000D01*
X137668000Y-112268000D02*
X137922000Y-112014000D01*
X137668000Y-112268000D02*
X137414000Y-112014000D01*
X126365000Y-116205000D02*
X125730000Y-116840000D01*
X126365000Y-116840000D02*
X126365000Y-116205000D01*
X126365000Y-116205000D02*
X127000000Y-116840000D01*
X170815000Y-117602000D02*
X170815000Y-120142000D01*
X126365000Y-113665000D02*
X128524000Y-111506000D01*
X126365000Y-116205000D02*
X126365000Y-113665000D01*
D45*
X144059000Y-101165000D02*
X143075000Y-101165000D01*
X143075000Y-101165000D02*
X141605000Y-99695000D01*
X141605000Y-99695000D02*
X141605000Y-93345000D01*
D44*
X142759000Y-93461000D02*
X142240000Y-92942000D01*
X142494000Y-92688000D02*
X142494000Y-91440000D01*
X142759000Y-92826000D02*
X142356000Y-92826000D01*
X141605000Y-93345000D02*
X142240000Y-93345000D01*
X142240000Y-92942000D02*
X142356000Y-92826000D01*
X142356000Y-92826000D02*
X142494000Y-92688000D01*
X142759000Y-93461000D02*
X142759000Y-92826000D01*
X142759000Y-94415000D02*
X142759000Y-93461000D01*
X142557500Y-93313500D02*
X142557500Y-93027500D01*
X142759000Y-94415000D02*
X142759000Y-93515000D01*
X142240000Y-93345000D02*
X142557500Y-93027500D01*
X142759000Y-93515000D02*
X142557500Y-93313500D01*
X142557500Y-93027500D02*
X142759000Y-92826000D01*
D45*
X146794002Y-97790000D02*
X148336000Y-96248002D01*
X145034000Y-97790000D02*
X146794002Y-97790000D01*
X148336000Y-96248002D02*
X148336000Y-92456000D01*
X141605000Y-96121002D02*
X141605000Y-93345000D01*
X145034000Y-97790000D02*
X143273998Y-97790000D01*
X146794002Y-97790000D02*
X148336000Y-99331998D01*
X148336000Y-99331998D02*
X148336000Y-102108000D01*
X143409000Y-101165000D02*
X143409000Y-102463000D01*
X143409000Y-102463000D02*
X143054000Y-102108000D01*
X143054000Y-102108000D02*
X141732000Y-102108000D01*
D43*
X144709000Y-101165000D02*
X144709000Y-102179000D01*
X144709000Y-102179000D02*
X144272000Y-102616000D01*
X144059000Y-101165000D02*
X144199000Y-101165000D01*
X144199000Y-101165000D02*
X144780000Y-100584000D01*
X145034000Y-100330000D02*
X145034000Y-99822000D01*
X144780000Y-100584000D02*
X145034000Y-100330000D01*
X145034000Y-99822000D02*
X144780000Y-99568000D01*
X143409000Y-100431000D02*
X144272000Y-99568000D01*
X143409000Y-101165000D02*
X143409000Y-100431000D01*
X144780000Y-99568000D02*
X144272000Y-99568000D01*
X144272000Y-99568000D02*
X143256000Y-99568000D01*
X144709000Y-100005000D02*
X144272000Y-99568000D01*
X144709000Y-101165000D02*
X144709000Y-100005000D01*
X145709736Y-98890000D02*
X146134000Y-98890000D01*
X145034000Y-99565736D02*
X145709736Y-98890000D01*
X145034000Y-99822000D02*
X145034000Y-99565736D01*
D44*
X144734001Y-97490001D02*
X145034000Y-97790000D01*
X144459001Y-97490001D02*
X144734001Y-97490001D01*
X142759000Y-95790000D02*
X144459001Y-97490001D01*
X142759000Y-94415000D02*
X142759000Y-95315000D01*
X141867999Y-96206001D02*
X141867999Y-96384001D01*
D45*
X143273998Y-97790000D02*
X141867999Y-96384001D01*
X141867999Y-96384001D02*
X141605000Y-96121002D01*
D44*
X142659000Y-96515000D02*
X142659000Y-95415000D01*
X143934000Y-97790000D02*
X142659000Y-96515000D01*
X145034000Y-97790000D02*
X143934000Y-97790000D01*
X142759000Y-95315000D02*
X142659000Y-95415000D01*
X142659000Y-95415000D02*
X141867999Y-96206001D01*
X145333999Y-97490001D02*
X145034000Y-97790000D01*
X145608999Y-97490001D02*
X145333999Y-97490001D01*
X147309000Y-94415000D02*
X147309000Y-95790000D01*
X145333999Y-98089999D02*
X145034000Y-97790000D01*
X145608999Y-98089999D02*
X145333999Y-98089999D01*
X147309000Y-101165000D02*
X147309000Y-99790000D01*
X145359000Y-99665000D02*
X146134000Y-98890000D01*
X145359000Y-101165000D02*
X145359000Y-99665000D01*
X145718500Y-99430500D02*
X146949500Y-99430500D01*
X145359000Y-101165000D02*
X145359000Y-99790000D01*
X145359000Y-99790000D02*
X145718500Y-99430500D01*
X147309000Y-99790000D02*
X146949500Y-99430500D01*
X146949500Y-99430500D02*
X145608999Y-98089999D01*
X142759000Y-95790000D02*
X143118500Y-96149500D01*
X142759000Y-94415000D02*
X142759000Y-95790000D01*
X147309000Y-95790000D02*
X146949500Y-96149500D01*
X143118500Y-96149500D02*
X146949500Y-96149500D01*
X146949500Y-96149500D02*
X145608999Y-97490001D01*
D42*
X114410500Y-118110000D02*
X112315000Y-120205500D01*
X120015000Y-118110000D02*
X114410500Y-118110000D01*
X112315000Y-116491500D02*
X112855500Y-115951000D01*
X112315000Y-120205500D02*
X112315000Y-116491500D01*
X107315000Y-120205500D02*
X112315000Y-120205500D01*
X128016000Y-86169500D02*
X128016000Y-77978000D01*
X128016000Y-77978000D02*
X128016000Y-77724000D01*
X128016000Y-77724000D02*
X127254000Y-76962000D01*
X128165991Y-75184000D02*
X127254000Y-75184000D01*
X130048000Y-77066009D02*
X128165991Y-75184000D01*
D44*
X130048000Y-84988400D02*
X129946400Y-84988400D01*
D42*
X130048000Y-84988400D02*
X130048000Y-77066009D01*
X130048000Y-85471000D02*
X130048000Y-84988400D01*
D44*
X129946400Y-84988400D02*
X130149600Y-84988400D01*
X130149600Y-84988400D02*
X130352800Y-85191600D01*
X131391000Y-84909000D02*
X131346600Y-84909000D01*
D42*
X131391000Y-84909000D02*
X131391000Y-85671000D01*
X131391000Y-79375000D02*
X131391000Y-84909000D01*
D44*
X131346600Y-84909000D02*
X131013200Y-85242400D01*
X131391000Y-84909000D02*
X131441800Y-84909000D01*
X131441800Y-84909000D02*
X131775200Y-85242400D01*
D42*
X116840000Y-100965000D02*
X115570000Y-102235000D01*
X118745000Y-100965000D02*
X116840000Y-100965000D01*
X113665000Y-104140000D02*
X115570000Y-102235000D01*
D45*
X160020000Y-73342500D02*
X160020000Y-78105000D01*
D42*
X115570000Y-102235000D02*
X115570000Y-99060000D01*
D45*
X160020000Y-72707500D02*
X158432500Y-72707500D01*
D42*
X118745000Y-99695000D02*
X118745000Y-100965000D01*
X116332000Y-97282000D02*
X118745000Y-99695000D01*
X111252000Y-97282000D02*
X116332000Y-97282000D01*
X113665000Y-104140000D02*
X113665000Y-105355002D01*
X111252000Y-107768002D02*
X113665000Y-105355002D01*
X111252000Y-110490000D02*
X111252000Y-107768002D01*
D44*
X143409000Y-95015000D02*
X144059000Y-95015000D01*
X144709000Y-95015000D02*
X145359000Y-95015000D01*
X143536600Y-94361000D02*
X144399000Y-94361000D01*
X143409000Y-94488600D02*
X143536600Y-94361000D01*
X143409000Y-95015000D02*
X143409000Y-94488600D01*
X145226800Y-94361000D02*
X144399000Y-94361000D01*
X145359000Y-94493200D02*
X145226800Y-94361000D01*
X145359000Y-95015000D02*
X145359000Y-94493200D01*
D45*
X144399000Y-86741000D02*
X144399000Y-94361000D01*
X156419499Y-85293001D02*
X145846999Y-85293001D01*
X160020000Y-78105000D02*
X160020000Y-81692500D01*
X160020000Y-81692500D02*
X156419499Y-85293001D01*
D42*
X165100000Y-69850000D02*
X165100000Y-65800000D01*
X165100000Y-65800000D02*
X165100000Y-64987500D01*
X161607500Y-73342500D02*
X165100000Y-69850000D01*
X160020000Y-73342500D02*
X161607500Y-73342500D01*
X161507500Y-64987500D02*
X160020000Y-63500000D01*
X165100000Y-64987500D02*
X161507500Y-64987500D01*
X159829500Y-73152000D02*
X160020000Y-73342500D01*
X159880300Y-73202800D02*
X160020000Y-73342500D01*
X160020000Y-63500000D02*
X157480000Y-63500000D01*
X119380000Y-102870000D02*
X118745000Y-102235000D01*
X122555000Y-102870000D02*
X119380000Y-102870000D01*
X118745000Y-102235000D02*
X118745000Y-100965000D01*
X127000000Y-98425000D02*
X122555000Y-102870000D01*
X127000000Y-84074000D02*
X127000000Y-98425000D01*
X132715000Y-82550000D02*
X134493000Y-84328000D01*
X134493000Y-84328000D02*
X143433800Y-84328000D01*
D45*
X145846999Y-85293001D02*
X145122900Y-86017100D01*
D44*
X144297400Y-85826600D02*
X144805400Y-86334600D01*
X144297400Y-85191600D02*
X144297400Y-85826600D01*
D45*
X144805400Y-86334600D02*
X144399000Y-86741000D01*
X145122900Y-86017100D02*
X144805400Y-86334600D01*
D42*
X144297400Y-85191600D02*
X145122900Y-86017100D01*
X143433800Y-84328000D02*
X144297400Y-85191600D01*
D44*
X145745598Y-85191600D02*
X145846999Y-85293001D01*
X144297400Y-85191600D02*
X145745598Y-85191600D01*
D42*
X101600000Y-111506000D02*
X101600000Y-110490000D01*
X102108000Y-112014000D02*
X101600000Y-111506000D01*
X112522000Y-111252000D02*
X111760000Y-112014000D01*
X112522000Y-107696000D02*
X112522000Y-111252000D01*
X111760000Y-112014000D02*
X102108000Y-112014000D01*
X118745000Y-105915000D02*
X118240000Y-105915000D01*
X118240000Y-105915000D02*
X117475000Y-106680000D01*
X117475000Y-106680000D02*
X113538000Y-106680000D01*
X113538000Y-106680000D02*
X112522000Y-107696000D01*
X120015000Y-99890000D02*
X120015000Y-100965000D01*
X115375000Y-95250000D02*
X120015000Y-99890000D01*
X102232000Y-95250000D02*
X103124000Y-95250000D01*
X101600000Y-95882000D02*
X102232000Y-95250000D01*
X101600000Y-97282000D02*
X101600000Y-95882000D01*
X102616000Y-95250000D02*
X103124000Y-95250000D01*
X103124000Y-95250000D02*
X115375000Y-95250000D01*
D45*
X112776000Y-73660000D02*
X108870000Y-73660000D01*
X154099762Y-68580000D02*
X151662381Y-71017381D01*
X160020000Y-68580000D02*
X154099762Y-68580000D01*
X108710000Y-88900000D02*
X105410000Y-88900000D01*
X109632000Y-87978000D02*
X108710000Y-88900000D01*
X109632000Y-73660000D02*
X109632000Y-87978000D01*
X115418619Y-71017381D02*
X112776000Y-73660000D01*
X151662381Y-71017381D02*
X115418619Y-71017381D01*
D42*
X122555000Y-118310000D02*
X126365000Y-118310000D01*
X126365000Y-118310000D02*
X132715000Y-118310000D01*
X140335000Y-118310000D02*
X138865000Y-118310000D01*
X138865000Y-118310000D02*
X138430000Y-118745000D01*
X137875000Y-126365000D02*
X136525000Y-126365000D01*
X138430000Y-125810000D02*
X137875000Y-126365000D01*
X138430000Y-118745000D02*
X138430000Y-125810000D01*
X132715000Y-118310000D02*
X133785000Y-118310000D01*
X134620000Y-119145000D02*
X134620000Y-125810000D01*
X134620000Y-125810000D02*
X135175000Y-126365000D01*
X135175000Y-126365000D02*
X136525000Y-126365000D01*
X133785000Y-118310000D02*
X134620000Y-119145000D01*
X140335000Y-118310000D02*
X144145000Y-118310000D01*
X150495000Y-118310000D02*
X154305000Y-118310000D01*
X150495000Y-118310000D02*
X148155000Y-118310000D01*
X148155000Y-118310000D02*
X147320000Y-117475000D01*
X146485000Y-118310000D02*
X147320000Y-117475000D01*
X144145000Y-118310000D02*
X146485000Y-118310000D01*
X120659500Y-120205500D02*
X122555000Y-118310000D01*
X120659500Y-120205500D02*
X117315000Y-120205500D01*
X166113000Y-118872000D02*
X161163000Y-118872000D01*
X166113000Y-120142000D02*
X166113000Y-118872000D01*
X161163000Y-120142000D02*
X161163000Y-118872000D01*
X158623000Y-124587000D02*
X160528000Y-124587000D01*
X164973000Y-120142000D02*
X166113000Y-120142000D01*
X160528000Y-124587000D02*
X164973000Y-120142000D01*
X158623000Y-127127000D02*
X158623000Y-124587000D01*
X162433000Y-128397000D02*
X159893000Y-128397000D01*
X159893000Y-128397000D02*
X158623000Y-127127000D01*
X122555000Y-121285000D02*
X122555000Y-124025000D01*
X126365000Y-121285000D02*
X126365000Y-124025000D01*
X132715000Y-121285000D02*
X132715000Y-124025000D01*
X140335000Y-121285000D02*
X140335000Y-124025000D01*
X144145000Y-121285000D02*
X144145000Y-124025000D01*
X150495000Y-121285000D02*
X150495000Y-124025000D01*
X154305000Y-121285000D02*
X154305000Y-124025000D01*
X124032000Y-130527798D02*
X124032000Y-130937000D01*
X123952000Y-130857000D02*
X124032000Y-130937000D01*
X124032000Y-129747000D02*
X124032000Y-130937000D01*
X122555000Y-127000000D02*
X122555000Y-128270000D01*
X122555000Y-128270000D02*
X124032000Y-129747000D01*
X126365000Y-130604000D02*
X126032000Y-130937000D01*
X126365000Y-127000000D02*
X126365000Y-128270000D01*
X126032000Y-128603000D02*
X126032000Y-130937000D01*
X126365000Y-128270000D02*
X126032000Y-128603000D01*
X132080000Y-130889000D02*
X132032000Y-130937000D01*
X132032000Y-128953000D02*
X132032000Y-130937000D01*
X132715000Y-127000000D02*
X132715000Y-128270000D01*
X132715000Y-128270000D02*
X132032000Y-128953000D01*
X140335000Y-127000000D02*
X140335000Y-128270000D01*
X141165000Y-129100000D02*
X141165000Y-130937000D01*
X140335000Y-128270000D02*
X141165000Y-129100000D01*
X144145000Y-127000000D02*
X144145000Y-128270000D01*
X143165000Y-129250000D02*
X143165000Y-130937000D01*
X144145000Y-128270000D02*
X143165000Y-129250000D01*
X149165000Y-130537000D02*
X149165000Y-130937000D01*
X149165000Y-129600000D02*
X149165000Y-130937000D01*
X150495000Y-127000000D02*
X150495000Y-128270000D01*
X150495000Y-128270000D02*
X149165000Y-129600000D01*
X151165000Y-128870000D02*
X151165000Y-130937000D01*
X154305000Y-127000000D02*
X153035000Y-127000000D01*
X153035000Y-127000000D02*
X151165000Y-128870000D01*
X115570000Y-88900000D02*
X118110000Y-91440000D01*
X120232500Y-91440000D02*
X122137500Y-93345000D01*
X118110000Y-91440000D02*
X120232500Y-91440000D01*
X115570000Y-88900000D02*
X115570000Y-86487000D01*
X130032000Y-130537000D02*
X130032000Y-130937000D01*
X128032000Y-130937000D02*
X130032000Y-130937000D01*
X130032000Y-129397000D02*
X130032000Y-130937000D01*
X129540000Y-127000000D02*
X129540000Y-128905000D01*
X129540000Y-128905000D02*
X130032000Y-129397000D01*
X129540000Y-127000000D02*
X129540000Y-125095000D01*
X135525000Y-115205000D02*
X135525000Y-116310000D01*
X129540000Y-114935000D02*
X135255000Y-114935000D01*
X135255000Y-114935000D02*
X135525000Y-115205000D01*
X120015000Y-108367500D02*
X119797500Y-108585000D01*
X120015000Y-105915000D02*
X120015000Y-108367500D01*
X117057500Y-108585000D02*
X119797500Y-108585000D01*
X119162500Y-96520000D02*
X119162500Y-93345000D01*
X121285000Y-99695000D02*
X121285000Y-100965000D01*
X119162500Y-96520000D02*
X119162500Y-97572500D01*
X119162500Y-97572500D02*
X121285000Y-99695000D01*
X121285000Y-111998500D02*
X118332500Y-114951000D01*
X121285000Y-105915000D02*
X121285000Y-111998500D01*
X118332500Y-114951000D02*
X117105500Y-114951000D01*
X117105500Y-111771500D02*
X117094000Y-111760000D01*
X117105500Y-114951000D02*
X117105500Y-111771500D01*
X139979400Y-82575400D02*
X139954000Y-82550000D01*
X143764000Y-82575400D02*
X139979400Y-82575400D01*
D44*
X146009000Y-95015000D02*
X146009000Y-94240000D01*
D42*
X135953500Y-82550000D02*
X135890000Y-82486500D01*
X139954000Y-82550000D02*
X135953500Y-82550000D01*
X143764000Y-82575400D02*
X143764000Y-81087900D01*
X143764000Y-81087900D02*
X143764000Y-81087900D01*
D44*
X146009000Y-87636681D02*
X146009000Y-87639800D01*
X146435167Y-87210514D02*
X146009000Y-87636681D01*
X146009000Y-94240000D02*
X146009000Y-87639800D01*
D42*
X123190000Y-99060000D02*
X122555000Y-99695000D01*
X122555000Y-99695000D02*
X122555000Y-100965000D01*
X125730000Y-96520000D02*
X122555000Y-99695000D01*
X125730000Y-82486500D02*
X125730000Y-96520000D01*
X166113000Y-123187000D02*
X166113000Y-121412000D01*
X168783000Y-124587000D02*
X167513000Y-124587000D01*
X167513000Y-124587000D02*
X166113000Y-123187000D01*
X151384000Y-82577000D02*
X147574000Y-82577000D01*
X151411000Y-82550000D02*
X151384000Y-82577000D01*
X155167000Y-82577000D02*
X155194000Y-82550000D01*
X151384000Y-82577000D02*
X155167000Y-82577000D01*
X147547006Y-82550006D02*
X147574000Y-82577000D01*
X147574000Y-81089500D02*
X147574000Y-82577000D01*
D44*
X147701000Y-87096600D02*
X147701000Y-86995000D01*
X146672308Y-88125292D02*
X147701000Y-87096600D01*
X146659000Y-95015000D02*
X146672308Y-88150708D01*
X146672308Y-88150708D02*
X146672308Y-88125292D01*
D43*
X120730000Y-76200000D02*
X115730000Y-76200000D01*
D42*
X150970000Y-74770000D02*
X150970000Y-76200000D01*
X150279999Y-74079999D02*
X150970000Y-74770000D01*
X121195372Y-74079999D02*
X150279999Y-74079999D01*
X120730000Y-76200000D02*
X120730000Y-74545371D01*
X120730000Y-74545371D02*
X121195372Y-74079999D01*
X104140000Y-110490000D02*
X108712000Y-110490000D01*
X104140000Y-106426000D02*
X104140000Y-110490000D01*
X101600000Y-105410000D02*
X103124000Y-105410000D01*
X103124000Y-105410000D02*
X104140000Y-106426000D01*
X104140000Y-101092000D02*
X104140000Y-97282000D01*
X101600000Y-102108000D02*
X103124000Y-102108000D01*
X103124000Y-102108000D02*
X104140000Y-101092000D01*
X104140000Y-97282000D02*
X108712000Y-97282000D01*
D44*
X146009000Y-103419000D02*
X145288000Y-104140000D01*
X146009000Y-101165000D02*
X146009000Y-103419000D01*
X146659000Y-103225000D02*
X147574000Y-104140000D01*
X146659000Y-101165000D02*
X146659000Y-103225000D01*
D42*
X109982000Y-107188000D02*
X111760000Y-105410000D01*
X109982000Y-110490000D02*
X109982000Y-107188000D01*
X109982000Y-100330000D02*
X111760000Y-102108000D01*
X109982000Y-96774000D02*
X109982000Y-100330000D01*
D46*
G36*
X134493000Y-85217281D02*
G01*
X134495853Y-85217000D01*
X143071222Y-85217000D01*
X143340992Y-85486770D01*
X143299687Y-85528075D01*
X143237286Y-85579286D01*
X143032969Y-85828249D01*
X142881148Y-86112286D01*
X142787657Y-86420485D01*
X142764548Y-86655116D01*
X142756089Y-86741000D01*
X142764000Y-86821320D01*
X142764001Y-92813222D01*
X142732815Y-92838815D01*
X142661000Y-92926322D01*
X142661000Y-92813750D01*
X142502250Y-92655000D01*
X142402639Y-92665596D01*
X142283348Y-92703221D01*
X142173689Y-92763396D01*
X142077877Y-92843807D01*
X141999594Y-92941366D01*
X141941847Y-93052322D01*
X141906856Y-93172413D01*
X141895967Y-93297022D01*
X141899000Y-94129250D01*
X142057750Y-94288000D01*
X142545928Y-94288000D01*
X142545928Y-94542000D01*
X142057750Y-94542000D01*
X141899000Y-94700750D01*
X141895967Y-95532978D01*
X141906856Y-95657587D01*
X141941847Y-95777678D01*
X141961124Y-95814716D01*
X141944498Y-95845820D01*
X141908188Y-95965518D01*
X141895928Y-96090000D01*
X141899000Y-97504250D01*
X141931243Y-97536493D01*
X141905836Y-97662998D01*
X141899000Y-97662998D01*
X141899000Y-97788534D01*
X141898829Y-97880355D01*
X141899000Y-97881223D01*
X141899000Y-97917002D01*
X141906048Y-97917002D01*
X141931013Y-98043737D01*
X141899000Y-98075750D01*
X141895928Y-99490000D01*
X141908188Y-99614482D01*
X141944498Y-99734180D01*
X141961124Y-99765284D01*
X141941847Y-99802322D01*
X141906856Y-99922413D01*
X141895967Y-100047022D01*
X141899000Y-100879250D01*
X142057750Y-101038000D01*
X142661000Y-101038000D01*
X142661000Y-101018000D01*
X142687750Y-101018000D01*
X142707750Y-101038000D01*
X144856000Y-101038000D01*
X144856000Y-101292000D01*
X142707750Y-101292000D01*
X142661000Y-101338750D01*
X142661000Y-101292000D01*
X142057750Y-101292000D01*
X141899000Y-101450750D01*
X141895967Y-102282978D01*
X141906856Y-102407587D01*
X141941847Y-102527678D01*
X141999594Y-102638634D01*
X142077877Y-102736193D01*
X142173689Y-102816604D01*
X142283348Y-102876779D01*
X142402639Y-102914404D01*
X142502250Y-102925000D01*
X142661000Y-102766250D01*
X142661000Y-102652849D01*
X142727877Y-102736193D01*
X142823689Y-102816604D01*
X142933348Y-102876779D01*
X142983277Y-102892527D01*
X143015750Y-102925000D01*
X143084000Y-102917740D01*
X143152250Y-102925000D01*
X143184723Y-102892527D01*
X143234652Y-102876779D01*
X143344311Y-102816604D01*
X143409000Y-102762313D01*
X143473689Y-102816604D01*
X143583348Y-102876779D01*
X143633277Y-102892527D01*
X143665750Y-102925000D01*
X143734000Y-102917740D01*
X143802250Y-102925000D01*
X143834723Y-102892527D01*
X143884652Y-102876779D01*
X143994311Y-102816604D01*
X144059000Y-102762313D01*
X144123689Y-102816604D01*
X144233348Y-102876779D01*
X144283277Y-102892527D01*
X144315750Y-102925000D01*
X144384000Y-102917740D01*
X144452250Y-102925000D01*
X144484723Y-102892527D01*
X144534652Y-102876779D01*
X144581998Y-102850798D01*
X144581998Y-102925000D01*
X144613443Y-102925000D01*
X144405114Y-103064201D01*
X144212201Y-103257114D01*
X144060629Y-103483957D01*
X143956225Y-103736011D01*
X143903000Y-104003589D01*
X143903000Y-104276411D01*
X143956225Y-104543989D01*
X144060629Y-104796043D01*
X144212201Y-105022886D01*
X144405114Y-105215799D01*
X144631957Y-105367371D01*
X144884011Y-105471775D01*
X145151589Y-105525000D01*
X145424411Y-105525000D01*
X145691989Y-105471775D01*
X145944043Y-105367371D01*
X146170886Y-105215799D01*
X146363799Y-105022886D01*
X146431000Y-104922313D01*
X146498201Y-105022886D01*
X146691114Y-105215799D01*
X146917957Y-105367371D01*
X147170011Y-105471775D01*
X147437589Y-105525000D01*
X147710411Y-105525000D01*
X147977989Y-105471775D01*
X148230043Y-105367371D01*
X148456886Y-105215799D01*
X148649799Y-105022886D01*
X148801371Y-104796043D01*
X148905775Y-104543989D01*
X148959000Y-104276411D01*
X148959000Y-104003589D01*
X148905775Y-103736011D01*
X148801371Y-103483957D01*
X148649799Y-103257114D01*
X148456886Y-103064201D01*
X148270009Y-102939333D01*
X162173939Y-102939333D01*
X166370000Y-107135395D01*
X170566061Y-102939333D01*
X169923226Y-102208338D01*
X168858691Y-101613261D01*
X167698518Y-101237298D01*
X166487290Y-101094899D01*
X165271555Y-101191534D01*
X164098032Y-101523491D01*
X163011820Y-102078013D01*
X162816774Y-102208338D01*
X162173939Y-102939333D01*
X148270009Y-102939333D01*
X148230043Y-102912629D01*
X147977989Y-102808225D01*
X147918415Y-102796375D01*
X147990123Y-102736193D01*
X148068406Y-102638634D01*
X148126153Y-102527678D01*
X148161144Y-102407587D01*
X148172033Y-102282978D01*
X148169000Y-101450750D01*
X148010250Y-101292000D01*
X147522072Y-101292000D01*
X147522072Y-101038000D01*
X148010250Y-101038000D01*
X148169000Y-100879250D01*
X148172033Y-100047022D01*
X148161144Y-99922413D01*
X148126153Y-99802322D01*
X148106876Y-99765284D01*
X148123502Y-99734180D01*
X148159812Y-99614482D01*
X148172072Y-99490000D01*
X148169000Y-98075750D01*
X148136757Y-98043507D01*
X148162164Y-97917002D01*
X148169000Y-97917002D01*
X148169000Y-97791466D01*
X148169171Y-97699645D01*
X148169000Y-97698777D01*
X148169000Y-97662998D01*
X148161952Y-97662998D01*
X148136987Y-97536263D01*
X148169000Y-97504250D01*
X148172072Y-96090000D01*
X148159812Y-95965518D01*
X148123502Y-95845820D01*
X148106876Y-95814716D01*
X148126153Y-95777678D01*
X148161144Y-95657587D01*
X148172033Y-95532978D01*
X148169000Y-94700750D01*
X148010250Y-94542000D01*
X147522072Y-94542000D01*
X147522072Y-94288000D01*
X148010250Y-94288000D01*
X148169000Y-94129250D01*
X148172033Y-93297022D01*
X148161144Y-93172413D01*
X148126153Y-93052322D01*
X148068406Y-92941366D01*
X147990123Y-92843807D01*
X147894311Y-92763396D01*
X147784652Y-92703221D01*
X147665361Y-92665596D01*
X147565750Y-92655000D01*
X147436002Y-92784748D01*
X147436002Y-92655000D01*
X147423576Y-92655000D01*
X147431746Y-88440655D01*
X147742402Y-88130000D01*
X147812788Y-88130000D01*
X148032067Y-88086383D01*
X148238624Y-88000824D01*
X148424520Y-87876612D01*
X148582612Y-87718520D01*
X148706824Y-87532624D01*
X148792383Y-87326067D01*
X148836000Y-87106788D01*
X148836000Y-86928001D01*
X153346068Y-86928001D01*
X153370031Y-86930701D01*
X153384250Y-86931500D01*
X156374705Y-86931500D01*
X156419499Y-86935912D01*
X156464293Y-86931500D01*
X157696016Y-86931500D01*
X157881760Y-86949794D01*
X158054367Y-87002154D01*
X158213452Y-87087187D01*
X158352884Y-87201616D01*
X158467313Y-87341048D01*
X158552346Y-87500133D01*
X158604706Y-87672740D01*
X158623000Y-87858484D01*
X158623000Y-90194404D01*
X158623246Y-90202302D01*
X158642891Y-90517593D01*
X158644851Y-90533266D01*
X158703481Y-90843681D01*
X158707372Y-90858989D01*
X158804080Y-91159724D01*
X158809842Y-91174431D01*
X158943133Y-91460837D01*
X158950675Y-91474715D01*
X159118486Y-91742360D01*
X159127692Y-91755195D01*
X159327429Y-91999939D01*
X159338158Y-92011531D01*
X159566730Y-92229589D01*
X159572614Y-92234863D01*
X165560859Y-97274969D01*
X165566801Y-97279674D01*
X165809889Y-97460643D01*
X165822561Y-97468951D01*
X166085473Y-97619680D01*
X166099045Y-97626418D01*
X166378037Y-97744762D01*
X166392315Y-97749837D01*
X166683416Y-97834110D01*
X166698196Y-97837448D01*
X166997262Y-97886451D01*
X167012335Y-97888004D01*
X167315109Y-97901039D01*
X167322688Y-97901139D01*
X171405904Y-97833086D01*
X171703945Y-97846324D01*
X171994327Y-97895126D01*
X172276590Y-97978932D01*
X172546538Y-98096493D01*
X172800173Y-98246072D01*
X173033686Y-98425422D01*
X173243619Y-98631884D01*
X173426841Y-98862384D01*
X173580617Y-99113478D01*
X173702665Y-99381438D01*
X173791164Y-99662267D01*
X173844797Y-99951796D01*
X173863000Y-100249558D01*
X173863000Y-116328168D01*
X173845177Y-116622821D01*
X173792657Y-116909412D01*
X173705974Y-117187586D01*
X173586401Y-117453267D01*
X173435668Y-117702610D01*
X173255988Y-117931955D01*
X173049955Y-118137988D01*
X172820610Y-118317668D01*
X172571267Y-118468401D01*
X172537598Y-118483554D01*
X172630159Y-118298955D01*
X172731250Y-117931443D01*
X172758701Y-117551271D01*
X172711457Y-117173049D01*
X172591333Y-116811310D01*
X172459312Y-116564317D01*
X172164224Y-116432381D01*
X170994605Y-117602000D01*
X171008748Y-117616143D01*
X170829143Y-117795748D01*
X170815000Y-117781605D01*
X170800858Y-117795748D01*
X170621253Y-117616143D01*
X170635395Y-117602000D01*
X169465776Y-116432381D01*
X169170688Y-116564317D01*
X168999841Y-116905045D01*
X168898750Y-117272557D01*
X168871299Y-117652729D01*
X168918543Y-118030951D01*
X169038667Y-118392690D01*
X169170688Y-118639683D01*
X169406240Y-118745000D01*
X168820049Y-118745000D01*
X168584935Y-118721843D01*
X168364852Y-118655081D01*
X168162019Y-118546665D01*
X167777447Y-118231055D01*
X167756746Y-118217223D01*
X167665576Y-118168492D01*
X167677502Y-118146180D01*
X167713812Y-118026482D01*
X167726072Y-117902000D01*
X167723000Y-117887750D01*
X167564250Y-117729000D01*
X166240000Y-117729000D01*
X166240000Y-117749000D01*
X165986000Y-117749000D01*
X165986000Y-117729000D01*
X164661750Y-117729000D01*
X164503000Y-117887750D01*
X164499928Y-117902000D01*
X164506416Y-117967876D01*
X164448419Y-117963314D01*
X164209170Y-117905906D01*
X163981854Y-117811802D01*
X163772036Y-117683304D01*
X163584894Y-117523587D01*
X163421777Y-117332771D01*
X163399399Y-117302000D01*
X164499928Y-117302000D01*
X164503000Y-117316250D01*
X164661750Y-117475000D01*
X165986000Y-117475000D01*
X165986000Y-116825750D01*
X166240000Y-116825750D01*
X166240000Y-117475000D01*
X167564250Y-117475000D01*
X167723000Y-117316250D01*
X167726072Y-117302000D01*
X167713812Y-117177518D01*
X167677502Y-117057820D01*
X167618537Y-116947506D01*
X167539185Y-116850815D01*
X167442494Y-116771463D01*
X167332180Y-116712498D01*
X167212482Y-116676188D01*
X167088000Y-116663928D01*
X166398750Y-116667000D01*
X166240000Y-116825750D01*
X165986000Y-116825750D01*
X165827250Y-116667000D01*
X165138000Y-116663928D01*
X165013518Y-116676188D01*
X164893820Y-116712498D01*
X164783506Y-116771463D01*
X164686815Y-116850815D01*
X164607463Y-116947506D01*
X164548498Y-117057820D01*
X164512188Y-117177518D01*
X164499928Y-117302000D01*
X163399399Y-117302000D01*
X162992295Y-116742233D01*
X162988390Y-116737139D01*
X162827114Y-116537436D01*
X162822956Y-116532545D01*
X162572637Y-116252776D01*
X169645381Y-116252776D01*
X170815000Y-117422395D01*
X171984619Y-116252776D01*
X171852683Y-115957688D01*
X171511955Y-115786841D01*
X171144443Y-115685750D01*
X170764271Y-115658299D01*
X170386049Y-115705543D01*
X170024310Y-115825667D01*
X169777317Y-115957688D01*
X169645381Y-116252776D01*
X162572637Y-116252776D01*
X161943921Y-115550095D01*
X161937978Y-115543890D01*
X161692170Y-115303991D01*
X161685822Y-115298201D01*
X160350137Y-114160395D01*
X160343813Y-114155347D01*
X160084681Y-113961670D01*
X160071134Y-113952831D01*
X159789486Y-113793662D01*
X159782318Y-113789907D01*
X158318233Y-113081478D01*
X158307472Y-113076870D01*
X157869465Y-112912775D01*
X157858326Y-112909178D01*
X156095342Y-112428364D01*
X156090020Y-112427035D01*
X155876071Y-112378505D01*
X155870695Y-112377408D01*
X154807055Y-112184019D01*
X154795742Y-112182483D01*
X154341373Y-112141513D01*
X154329968Y-112141000D01*
X149968578Y-112141000D01*
X149518245Y-111690667D01*
X162173939Y-111690667D01*
X162816774Y-112421662D01*
X163881309Y-113016739D01*
X165041482Y-113392702D01*
X166252710Y-113535101D01*
X167468445Y-113438466D01*
X168641968Y-113106509D01*
X169728180Y-112551987D01*
X169923226Y-112421662D01*
X170566061Y-111690667D01*
X166370000Y-107494605D01*
X162173939Y-111690667D01*
X149518245Y-111690667D01*
X148959000Y-111131422D01*
X148959000Y-110861589D01*
X148905775Y-110594011D01*
X148801371Y-110341957D01*
X148649799Y-110115114D01*
X148456886Y-109922201D01*
X148230043Y-109770629D01*
X147977989Y-109666225D01*
X147710411Y-109613000D01*
X147437589Y-109613000D01*
X147170011Y-109666225D01*
X146917957Y-109770629D01*
X146691114Y-109922201D01*
X146500315Y-110113000D01*
X129917000Y-110113000D01*
X129917000Y-109390469D01*
X129921281Y-109347000D01*
X129917000Y-109303531D01*
X129917000Y-108501467D01*
X129921281Y-108458001D01*
X129917000Y-108414535D01*
X129917000Y-107866469D01*
X129921281Y-107823000D01*
X129917000Y-107779531D01*
X129917000Y-107197710D01*
X160149899Y-107197710D01*
X160246534Y-108413445D01*
X160578491Y-109586968D01*
X161133013Y-110673180D01*
X161263338Y-110868226D01*
X161994333Y-111511061D01*
X166190395Y-107315000D01*
X166549605Y-107315000D01*
X170745667Y-111511061D01*
X171476662Y-110868226D01*
X172071739Y-109803691D01*
X172447702Y-108643518D01*
X172590101Y-107432290D01*
X172493466Y-106216555D01*
X172161509Y-105043032D01*
X171606987Y-103956820D01*
X171476662Y-103761774D01*
X170745667Y-103118939D01*
X166549605Y-107315000D01*
X166190395Y-107315000D01*
X161994333Y-103118939D01*
X161263338Y-103761774D01*
X160668261Y-104826309D01*
X160292298Y-105986482D01*
X160149899Y-107197710D01*
X129917000Y-107197710D01*
X129917000Y-85252082D01*
X130011179Y-85234823D01*
X130305832Y-85217000D01*
X134490147Y-85217000D01*
X134493000Y-85217281D01*
X134493000Y-85217281D01*
G37*
X134493000Y-85217281D02*
X134495853Y-85217000D01*
X143071222Y-85217000D01*
X143340992Y-85486770D01*
X143299687Y-85528075D01*
X143237286Y-85579286D01*
X143032969Y-85828249D01*
X142881148Y-86112286D01*
X142787657Y-86420485D01*
X142764548Y-86655116D01*
X142756089Y-86741000D01*
X142764000Y-86821320D01*
X142764001Y-92813222D01*
X142732815Y-92838815D01*
X142661000Y-92926322D01*
X142661000Y-92813750D01*
X142502250Y-92655000D01*
X142402639Y-92665596D01*
X142283348Y-92703221D01*
X142173689Y-92763396D01*
X142077877Y-92843807D01*
X141999594Y-92941366D01*
X141941847Y-93052322D01*
X141906856Y-93172413D01*
X141895967Y-93297022D01*
X141899000Y-94129250D01*
X142057750Y-94288000D01*
X142545928Y-94288000D01*
X142545928Y-94542000D01*
X142057750Y-94542000D01*
X141899000Y-94700750D01*
X141895967Y-95532978D01*
X141906856Y-95657587D01*
X141941847Y-95777678D01*
X141961124Y-95814716D01*
X141944498Y-95845820D01*
X141908188Y-95965518D01*
X141895928Y-96090000D01*
X141899000Y-97504250D01*
X141931243Y-97536493D01*
X141905836Y-97662998D01*
X141899000Y-97662998D01*
X141899000Y-97788534D01*
X141898829Y-97880355D01*
X141899000Y-97881223D01*
X141899000Y-97917002D01*
X141906048Y-97917002D01*
X141931013Y-98043737D01*
X141899000Y-98075750D01*
X141895928Y-99490000D01*
X141908188Y-99614482D01*
X141944498Y-99734180D01*
X141961124Y-99765284D01*
X141941847Y-99802322D01*
X141906856Y-99922413D01*
X141895967Y-100047022D01*
X141899000Y-100879250D01*
X142057750Y-101038000D01*
X142661000Y-101038000D01*
X142661000Y-101018000D01*
X142687750Y-101018000D01*
X142707750Y-101038000D01*
X144856000Y-101038000D01*
X144856000Y-101292000D01*
X142707750Y-101292000D01*
X142661000Y-101338750D01*
X142661000Y-101292000D01*
X142057750Y-101292000D01*
X141899000Y-101450750D01*
X141895967Y-102282978D01*
X141906856Y-102407587D01*
X141941847Y-102527678D01*
X141999594Y-102638634D01*
X142077877Y-102736193D01*
X142173689Y-102816604D01*
X142283348Y-102876779D01*
X142402639Y-102914404D01*
X142502250Y-102925000D01*
X142661000Y-102766250D01*
X142661000Y-102652849D01*
X142727877Y-102736193D01*
X142823689Y-102816604D01*
X142933348Y-102876779D01*
X142983277Y-102892527D01*
X143015750Y-102925000D01*
X143084000Y-102917740D01*
X143152250Y-102925000D01*
X143184723Y-102892527D01*
X143234652Y-102876779D01*
X143344311Y-102816604D01*
X143409000Y-102762313D01*
X143473689Y-102816604D01*
X143583348Y-102876779D01*
X143633277Y-102892527D01*
X143665750Y-102925000D01*
X143734000Y-102917740D01*
X143802250Y-102925000D01*
X143834723Y-102892527D01*
X143884652Y-102876779D01*
X143994311Y-102816604D01*
X144059000Y-102762313D01*
X144123689Y-102816604D01*
X144233348Y-102876779D01*
X144283277Y-102892527D01*
X144315750Y-102925000D01*
X144384000Y-102917740D01*
X144452250Y-102925000D01*
X144484723Y-102892527D01*
X144534652Y-102876779D01*
X144581998Y-102850798D01*
X144581998Y-102925000D01*
X144613443Y-102925000D01*
X144405114Y-103064201D01*
X144212201Y-103257114D01*
X144060629Y-103483957D01*
X143956225Y-103736011D01*
X143903000Y-104003589D01*
X143903000Y-104276411D01*
X143956225Y-104543989D01*
X144060629Y-104796043D01*
X144212201Y-105022886D01*
X144405114Y-105215799D01*
X144631957Y-105367371D01*
X144884011Y-105471775D01*
X145151589Y-105525000D01*
X145424411Y-105525000D01*
X145691989Y-105471775D01*
X145944043Y-105367371D01*
X146170886Y-105215799D01*
X146363799Y-105022886D01*
X146431000Y-104922313D01*
X146498201Y-105022886D01*
X146691114Y-105215799D01*
X146917957Y-105367371D01*
X147170011Y-105471775D01*
X147437589Y-105525000D01*
X147710411Y-105525000D01*
X147977989Y-105471775D01*
X148230043Y-105367371D01*
X148456886Y-105215799D01*
X148649799Y-105022886D01*
X148801371Y-104796043D01*
X148905775Y-104543989D01*
X148959000Y-104276411D01*
X148959000Y-104003589D01*
X148905775Y-103736011D01*
X148801371Y-103483957D01*
X148649799Y-103257114D01*
X148456886Y-103064201D01*
X148270009Y-102939333D01*
X162173939Y-102939333D01*
X166370000Y-107135395D01*
X170566061Y-102939333D01*
X169923226Y-102208338D01*
X168858691Y-101613261D01*
X167698518Y-101237298D01*
X166487290Y-101094899D01*
X165271555Y-101191534D01*
X164098032Y-101523491D01*
X163011820Y-102078013D01*
X162816774Y-102208338D01*
X162173939Y-102939333D01*
X148270009Y-102939333D01*
X148230043Y-102912629D01*
X147977989Y-102808225D01*
X147918415Y-102796375D01*
X147990123Y-102736193D01*
X148068406Y-102638634D01*
X148126153Y-102527678D01*
X148161144Y-102407587D01*
X148172033Y-102282978D01*
X148169000Y-101450750D01*
X148010250Y-101292000D01*
X147522072Y-101292000D01*
X147522072Y-101038000D01*
X148010250Y-101038000D01*
X148169000Y-100879250D01*
X148172033Y-100047022D01*
X148161144Y-99922413D01*
X148126153Y-99802322D01*
X148106876Y-99765284D01*
X148123502Y-99734180D01*
X148159812Y-99614482D01*
X148172072Y-99490000D01*
X148169000Y-98075750D01*
X148136757Y-98043507D01*
X148162164Y-97917002D01*
X148169000Y-97917002D01*
X148169000Y-97791466D01*
X148169171Y-97699645D01*
X148169000Y-97698777D01*
X148169000Y-97662998D01*
X148161952Y-97662998D01*
X148136987Y-97536263D01*
X148169000Y-97504250D01*
X148172072Y-96090000D01*
X148159812Y-95965518D01*
X148123502Y-95845820D01*
X148106876Y-95814716D01*
X148126153Y-95777678D01*
X148161144Y-95657587D01*
X148172033Y-95532978D01*
X148169000Y-94700750D01*
X148010250Y-94542000D01*
X147522072Y-94542000D01*
X147522072Y-94288000D01*
X148010250Y-94288000D01*
X148169000Y-94129250D01*
X148172033Y-93297022D01*
X148161144Y-93172413D01*
X148126153Y-93052322D01*
X148068406Y-92941366D01*
X147990123Y-92843807D01*
X147894311Y-92763396D01*
X147784652Y-92703221D01*
X147665361Y-92665596D01*
X147565750Y-92655000D01*
X147436002Y-92784748D01*
X147436002Y-92655000D01*
X147423576Y-92655000D01*
X147431746Y-88440655D01*
X147742402Y-88130000D01*
X147812788Y-88130000D01*
X148032067Y-88086383D01*
X148238624Y-88000824D01*
X148424520Y-87876612D01*
X148582612Y-87718520D01*
X148706824Y-87532624D01*
X148792383Y-87326067D01*
X148836000Y-87106788D01*
X148836000Y-86928001D01*
X153346068Y-86928001D01*
X153370031Y-86930701D01*
X153384250Y-86931500D01*
X156374705Y-86931500D01*
X156419499Y-86935912D01*
X156464293Y-86931500D01*
X157696016Y-86931500D01*
X157881760Y-86949794D01*
X158054367Y-87002154D01*
X158213452Y-87087187D01*
X158352884Y-87201616D01*
X158467313Y-87341048D01*
X158552346Y-87500133D01*
X158604706Y-87672740D01*
X158623000Y-87858484D01*
X158623000Y-90194404D01*
X158623246Y-90202302D01*
X158642891Y-90517593D01*
X158644851Y-90533266D01*
X158703481Y-90843681D01*
X158707372Y-90858989D01*
X158804080Y-91159724D01*
X158809842Y-91174431D01*
X158943133Y-91460837D01*
X158950675Y-91474715D01*
X159118486Y-91742360D01*
X159127692Y-91755195D01*
X159327429Y-91999939D01*
X159338158Y-92011531D01*
X159566730Y-92229589D01*
X159572614Y-92234863D01*
X165560859Y-97274969D01*
X165566801Y-97279674D01*
X165809889Y-97460643D01*
X165822561Y-97468951D01*
X166085473Y-97619680D01*
X166099045Y-97626418D01*
X166378037Y-97744762D01*
X166392315Y-97749837D01*
X166683416Y-97834110D01*
X166698196Y-97837448D01*
X166997262Y-97886451D01*
X167012335Y-97888004D01*
X167315109Y-97901039D01*
X167322688Y-97901139D01*
X171405904Y-97833086D01*
X171703945Y-97846324D01*
X171994327Y-97895126D01*
X172276590Y-97978932D01*
X172546538Y-98096493D01*
X172800173Y-98246072D01*
X173033686Y-98425422D01*
X173243619Y-98631884D01*
X173426841Y-98862384D01*
X173580617Y-99113478D01*
X173702665Y-99381438D01*
X173791164Y-99662267D01*
X173844797Y-99951796D01*
X173863000Y-100249558D01*
X173863000Y-116328168D01*
X173845177Y-116622821D01*
X173792657Y-116909412D01*
X173705974Y-117187586D01*
X173586401Y-117453267D01*
X173435668Y-117702610D01*
X173255988Y-117931955D01*
X173049955Y-118137988D01*
X172820610Y-118317668D01*
X172571267Y-118468401D01*
X172537598Y-118483554D01*
X172630159Y-118298955D01*
X172731250Y-117931443D01*
X172758701Y-117551271D01*
X172711457Y-117173049D01*
X172591333Y-116811310D01*
X172459312Y-116564317D01*
X172164224Y-116432381D01*
X170994605Y-117602000D01*
X171008748Y-117616143D01*
X170829143Y-117795748D01*
X170815000Y-117781605D01*
X170800858Y-117795748D01*
X170621253Y-117616143D01*
X170635395Y-117602000D01*
X169465776Y-116432381D01*
X169170688Y-116564317D01*
X168999841Y-116905045D01*
X168898750Y-117272557D01*
X168871299Y-117652729D01*
X168918543Y-118030951D01*
X169038667Y-118392690D01*
X169170688Y-118639683D01*
X169406240Y-118745000D01*
X168820049Y-118745000D01*
X168584935Y-118721843D01*
X168364852Y-118655081D01*
X168162019Y-118546665D01*
X167777447Y-118231055D01*
X167756746Y-118217223D01*
X167665576Y-118168492D01*
X167677502Y-118146180D01*
X167713812Y-118026482D01*
X167726072Y-117902000D01*
X167723000Y-117887750D01*
X167564250Y-117729000D01*
X166240000Y-117729000D01*
X166240000Y-117749000D01*
X165986000Y-117749000D01*
X165986000Y-117729000D01*
X164661750Y-117729000D01*
X164503000Y-117887750D01*
X164499928Y-117902000D01*
X164506416Y-117967876D01*
X164448419Y-117963314D01*
X164209170Y-117905906D01*
X163981854Y-117811802D01*
X163772036Y-117683304D01*
X163584894Y-117523587D01*
X163421777Y-117332771D01*
X163399399Y-117302000D01*
X164499928Y-117302000D01*
X164503000Y-117316250D01*
X164661750Y-117475000D01*
X165986000Y-117475000D01*
X165986000Y-116825750D01*
X166240000Y-116825750D01*
X166240000Y-117475000D01*
X167564250Y-117475000D01*
X167723000Y-117316250D01*
X167726072Y-117302000D01*
X167713812Y-117177518D01*
X167677502Y-117057820D01*
X167618537Y-116947506D01*
X167539185Y-116850815D01*
X167442494Y-116771463D01*
X167332180Y-116712498D01*
X167212482Y-116676188D01*
X167088000Y-116663928D01*
X166398750Y-116667000D01*
X166240000Y-116825750D01*
X165986000Y-116825750D01*
X165827250Y-116667000D01*
X165138000Y-116663928D01*
X165013518Y-116676188D01*
X164893820Y-116712498D01*
X164783506Y-116771463D01*
X164686815Y-116850815D01*
X164607463Y-116947506D01*
X164548498Y-117057820D01*
X164512188Y-117177518D01*
X164499928Y-117302000D01*
X163399399Y-117302000D01*
X162992295Y-116742233D01*
X162988390Y-116737139D01*
X162827114Y-116537436D01*
X162822956Y-116532545D01*
X162572637Y-116252776D01*
X169645381Y-116252776D01*
X170815000Y-117422395D01*
X171984619Y-116252776D01*
X171852683Y-115957688D01*
X171511955Y-115786841D01*
X171144443Y-115685750D01*
X170764271Y-115658299D01*
X170386049Y-115705543D01*
X170024310Y-115825667D01*
X169777317Y-115957688D01*
X169645381Y-116252776D01*
X162572637Y-116252776D01*
X161943921Y-115550095D01*
X161937978Y-115543890D01*
X161692170Y-115303991D01*
X161685822Y-115298201D01*
X160350137Y-114160395D01*
X160343813Y-114155347D01*
X160084681Y-113961670D01*
X160071134Y-113952831D01*
X159789486Y-113793662D01*
X159782318Y-113789907D01*
X158318233Y-113081478D01*
X158307472Y-113076870D01*
X157869465Y-112912775D01*
X157858326Y-112909178D01*
X156095342Y-112428364D01*
X156090020Y-112427035D01*
X155876071Y-112378505D01*
X155870695Y-112377408D01*
X154807055Y-112184019D01*
X154795742Y-112182483D01*
X154341373Y-112141513D01*
X154329968Y-112141000D01*
X149968578Y-112141000D01*
X149518245Y-111690667D01*
X162173939Y-111690667D01*
X162816774Y-112421662D01*
X163881309Y-113016739D01*
X165041482Y-113392702D01*
X166252710Y-113535101D01*
X167468445Y-113438466D01*
X168641968Y-113106509D01*
X169728180Y-112551987D01*
X169923226Y-112421662D01*
X170566061Y-111690667D01*
X166370000Y-107494605D01*
X162173939Y-111690667D01*
X149518245Y-111690667D01*
X148959000Y-111131422D01*
X148959000Y-110861589D01*
X148905775Y-110594011D01*
X148801371Y-110341957D01*
X148649799Y-110115114D01*
X148456886Y-109922201D01*
X148230043Y-109770629D01*
X147977989Y-109666225D01*
X147710411Y-109613000D01*
X147437589Y-109613000D01*
X147170011Y-109666225D01*
X146917957Y-109770629D01*
X146691114Y-109922201D01*
X146500315Y-110113000D01*
X129917000Y-110113000D01*
X129917000Y-109390469D01*
X129921281Y-109347000D01*
X129917000Y-109303531D01*
X129917000Y-108501467D01*
X129921281Y-108458001D01*
X129917000Y-108414535D01*
X129917000Y-107866469D01*
X129921281Y-107823000D01*
X129917000Y-107779531D01*
X129917000Y-107197710D01*
X160149899Y-107197710D01*
X160246534Y-108413445D01*
X160578491Y-109586968D01*
X161133013Y-110673180D01*
X161263338Y-110868226D01*
X161994333Y-111511061D01*
X166190395Y-107315000D01*
X166549605Y-107315000D01*
X170745667Y-111511061D01*
X171476662Y-110868226D01*
X172071739Y-109803691D01*
X172447702Y-108643518D01*
X172590101Y-107432290D01*
X172493466Y-106216555D01*
X172161509Y-105043032D01*
X171606987Y-103956820D01*
X171476662Y-103761774D01*
X170745667Y-103118939D01*
X166549605Y-107315000D01*
X166190395Y-107315000D01*
X161994333Y-103118939D01*
X161263338Y-103761774D01*
X160668261Y-104826309D01*
X160292298Y-105986482D01*
X160149899Y-107197710D01*
X129917000Y-107197710D01*
X129917000Y-85252082D01*
X130011179Y-85234823D01*
X130305832Y-85217000D01*
X134490147Y-85217000D01*
X134493000Y-85217281D01*
G36*
X128147001Y-109713579D02*
G01*
X128147000Y-110446530D01*
X128142719Y-110490000D01*
X128147000Y-110533469D01*
X128147000Y-110533476D01*
X128152962Y-110594011D01*
X128159234Y-110657687D01*
X128159805Y-110663489D01*
X128210411Y-110830312D01*
X128292589Y-110984058D01*
X128403183Y-111118817D01*
X128436956Y-111146534D01*
X128883466Y-111593044D01*
X128911183Y-111626817D01*
X129045941Y-111737411D01*
X129199687Y-111819589D01*
X129366510Y-111870195D01*
X129496523Y-111883000D01*
X129496533Y-111883000D01*
X129539999Y-111887281D01*
X129583465Y-111883000D01*
X146500315Y-111883000D01*
X146691114Y-112073799D01*
X146791687Y-112141000D01*
X130305832Y-112141000D01*
X130011179Y-112123177D01*
X129724588Y-112070657D01*
X129446414Y-111983974D01*
X129180733Y-111864401D01*
X128931390Y-111713668D01*
X128702045Y-111533988D01*
X128496012Y-111327955D01*
X128316332Y-111098610D01*
X128165599Y-110849267D01*
X128046026Y-110583586D01*
X127959343Y-110305412D01*
X127906823Y-110018821D01*
X127889000Y-109724168D01*
X127889000Y-109470000D01*
X127903422Y-109470000D01*
X128147001Y-109713579D01*
X128147001Y-109713579D01*
G37*
X128147001Y-109713579D02*
X128147000Y-110446530D01*
X128142719Y-110490000D01*
X128147000Y-110533469D01*
X128147000Y-110533476D01*
X128152962Y-110594011D01*
X128159234Y-110657687D01*
X128159805Y-110663489D01*
X128210411Y-110830312D01*
X128292589Y-110984058D01*
X128403183Y-111118817D01*
X128436956Y-111146534D01*
X128883466Y-111593044D01*
X128911183Y-111626817D01*
X129045941Y-111737411D01*
X129199687Y-111819589D01*
X129366510Y-111870195D01*
X129496523Y-111883000D01*
X129496533Y-111883000D01*
X129539999Y-111887281D01*
X129583465Y-111883000D01*
X146500315Y-111883000D01*
X146691114Y-112073799D01*
X146791687Y-112141000D01*
X130305832Y-112141000D01*
X130011179Y-112123177D01*
X129724588Y-112070657D01*
X129446414Y-111983974D01*
X129180733Y-111864401D01*
X128931390Y-111713668D01*
X128702045Y-111533988D01*
X128496012Y-111327955D01*
X128316332Y-111098610D01*
X128165599Y-110849267D01*
X128046026Y-110583586D01*
X127959343Y-110305412D01*
X127906823Y-110018821D01*
X127889000Y-109724168D01*
X127889000Y-109470000D01*
X127903422Y-109470000D01*
X128147001Y-109713579D01*
G36*
X128147000Y-107456421D02*
G01*
X127903422Y-107700000D01*
X127889000Y-107700000D01*
X127889000Y-98427854D01*
X127889281Y-98425001D01*
X127889000Y-98422148D01*
X127889000Y-87633832D01*
X127906823Y-87339179D01*
X127959343Y-87052588D01*
X128046026Y-86774414D01*
X128147001Y-86550056D01*
X128147000Y-107456421D01*
X128147000Y-107456421D01*
G37*
X128147000Y-107456421D02*
X127903422Y-107700000D01*
X127889000Y-107700000D01*
X127889000Y-98427854D01*
X127889281Y-98425001D01*
X127889000Y-98422148D01*
X127889000Y-87633832D01*
X127906823Y-87339179D01*
X127959343Y-87052588D01*
X128046026Y-86774414D01*
X128147001Y-86550056D01*
X128147000Y-107456421D01*
G36*
X145181000Y-97729110D02*
G01*
X145181000Y-97850890D01*
X145094890Y-97937000D01*
X144973110Y-97937000D01*
X144887000Y-97850890D01*
X144887000Y-97729110D01*
X144973110Y-97643000D01*
X145094890Y-97643000D01*
X145181000Y-97729110D01*
X145181000Y-97729110D01*
G37*
X145181000Y-97729110D02*
X145181000Y-97850890D01*
X145094890Y-97937000D01*
X144973110Y-97937000D01*
X144887000Y-97850890D01*
X144887000Y-97729110D01*
X144973110Y-97643000D01*
X145094890Y-97643000D01*
X145181000Y-97729110D01*
G36*
X173228000Y-115443000D02*
G01*
X166397894Y-115443000D01*
X158242000Y-111678741D01*
X158242000Y-99822000D01*
X173228000Y-99822000D01*
X173228000Y-115443000D01*
X173228000Y-115443000D01*
G37*
X173228000Y-115443000D02*
X166397894Y-115443000D01*
X158242000Y-111678741D01*
X158242000Y-99822000D01*
X173228000Y-99822000D01*
X173228000Y-115443000D01*
M02*
