G04 #@! TF.GenerationSoftware,KiCad,Pcbnew,(5.1.2)-1*
G04 #@! TF.CreationDate,2019-06-11T18:42:14-07:00*
G04 #@! TF.ProjectId,psu,7073752e-6b69-4636-9164-5f7063625858,rev?*
G04 #@! TF.SameCoordinates,Original*
G04 #@! TF.FileFunction,Soldermask,Top*
G04 #@! TF.FilePolarity,Negative*
%FSLAX46Y46*%
G04 Gerber Fmt 4.6, Leading zero omitted, Abs format (unit mm)*
G04 Created by KiCad (PCBNEW (5.1.2)-1) date 2019-06-11 18:42:14*
%MOMM*%
%LPD*%
G04 APERTURE LIST*
%ADD10C,0.100000*%
G04 APERTURE END LIST*
D10*
G36*
X162954072Y-131415918D02*
G01*
X163199939Y-131517759D01*
X163211524Y-131525500D01*
X163421211Y-131665609D01*
X163609391Y-131853789D01*
X163726067Y-132028406D01*
X163741613Y-132047348D01*
X163760555Y-132062893D01*
X163782165Y-132074444D01*
X163805614Y-132081557D01*
X163830000Y-132083959D01*
X163854386Y-132081557D01*
X163877835Y-132074444D01*
X163899446Y-132062893D01*
X163918388Y-132047347D01*
X163933933Y-132028406D01*
X164050609Y-131853789D01*
X164238789Y-131665609D01*
X164448476Y-131525500D01*
X164460061Y-131517759D01*
X164705928Y-131415918D01*
X164966937Y-131364000D01*
X165233063Y-131364000D01*
X165494072Y-131415918D01*
X165739939Y-131517759D01*
X165961212Y-131665610D01*
X166149390Y-131853788D01*
X166296829Y-132074444D01*
X166297242Y-132075063D01*
X166399082Y-132320928D01*
X166429578Y-132474239D01*
X166451000Y-132581938D01*
X166451000Y-132848062D01*
X166399082Y-133109072D01*
X166297241Y-133354939D01*
X166278723Y-133382653D01*
X166149391Y-133576211D01*
X165961211Y-133764391D01*
X165851328Y-133837813D01*
X165739939Y-133912241D01*
X165739938Y-133912242D01*
X165739937Y-133912242D01*
X165494072Y-134014082D01*
X165233063Y-134066000D01*
X164966937Y-134066000D01*
X164705928Y-134014082D01*
X164460063Y-133912242D01*
X164460062Y-133912242D01*
X164460061Y-133912241D01*
X164348672Y-133837813D01*
X164238789Y-133764391D01*
X164050609Y-133576211D01*
X163933933Y-133401594D01*
X163918387Y-133382652D01*
X163899445Y-133367107D01*
X163877835Y-133355556D01*
X163854386Y-133348443D01*
X163830000Y-133346041D01*
X163805614Y-133348443D01*
X163782165Y-133355556D01*
X163760554Y-133367107D01*
X163741612Y-133382653D01*
X163726067Y-133401594D01*
X163609391Y-133576211D01*
X163421211Y-133764391D01*
X163311328Y-133837813D01*
X163199939Y-133912241D01*
X163199938Y-133912242D01*
X163199937Y-133912242D01*
X162954072Y-134014082D01*
X162693063Y-134066000D01*
X162426937Y-134066000D01*
X162165928Y-134014082D01*
X161920063Y-133912242D01*
X161920062Y-133912242D01*
X161920061Y-133912241D01*
X161808672Y-133837813D01*
X161698789Y-133764391D01*
X161510609Y-133576211D01*
X161381277Y-133382653D01*
X161362759Y-133354939D01*
X161260918Y-133109072D01*
X161209000Y-132848062D01*
X161209000Y-132581938D01*
X161230423Y-132474239D01*
X161260918Y-132320928D01*
X161362758Y-132075063D01*
X161363172Y-132074444D01*
X161510610Y-131853788D01*
X161698788Y-131665610D01*
X161920061Y-131517759D01*
X162165928Y-131415918D01*
X162426937Y-131364000D01*
X162693063Y-131364000D01*
X162954072Y-131415918D01*
X162954072Y-131415918D01*
G37*
G36*
X171871666Y-130215527D02*
G01*
X172055301Y-130252054D01*
X172401261Y-130395356D01*
X172712617Y-130603397D01*
X172977403Y-130868183D01*
X173185444Y-131179539D01*
X173328746Y-131525499D01*
X173340326Y-131583718D01*
X173394047Y-131853788D01*
X173401800Y-131892768D01*
X173401800Y-132267232D01*
X173328746Y-132634501D01*
X173185444Y-132980461D01*
X172977403Y-133291817D01*
X172712617Y-133556603D01*
X172401261Y-133764644D01*
X172055301Y-133907946D01*
X172033708Y-133912241D01*
X171688033Y-133981000D01*
X171313567Y-133981000D01*
X170967892Y-133912241D01*
X170946299Y-133907946D01*
X170600339Y-133764644D01*
X170288983Y-133556603D01*
X170024197Y-133291817D01*
X169816156Y-132980461D01*
X169672854Y-132634501D01*
X169599800Y-132267232D01*
X169599800Y-131892768D01*
X169607554Y-131853788D01*
X169661274Y-131583718D01*
X169672854Y-131525499D01*
X169816156Y-131179539D01*
X170024197Y-130868183D01*
X170288983Y-130603397D01*
X170600339Y-130395356D01*
X170946299Y-130252054D01*
X171129934Y-130215527D01*
X171313567Y-130179000D01*
X171688033Y-130179000D01*
X171871666Y-130215527D01*
X171871666Y-130215527D01*
G37*
G36*
X103164666Y-130215527D02*
G01*
X103348301Y-130252054D01*
X103694261Y-130395356D01*
X104005617Y-130603397D01*
X104270403Y-130868183D01*
X104478444Y-131179539D01*
X104621746Y-131525499D01*
X104633326Y-131583718D01*
X104687047Y-131853788D01*
X104694800Y-131892768D01*
X104694800Y-132267232D01*
X104621746Y-132634501D01*
X104478444Y-132980461D01*
X104270403Y-133291817D01*
X104005617Y-133556603D01*
X103694261Y-133764644D01*
X103348301Y-133907946D01*
X103326708Y-133912241D01*
X102981033Y-133981000D01*
X102606567Y-133981000D01*
X102260892Y-133912241D01*
X102239299Y-133907946D01*
X101893339Y-133764644D01*
X101581983Y-133556603D01*
X101317197Y-133291817D01*
X101109156Y-132980461D01*
X100965854Y-132634501D01*
X100892800Y-132267232D01*
X100892800Y-131892768D01*
X100900554Y-131853788D01*
X100954274Y-131583718D01*
X100965854Y-131525499D01*
X101109156Y-131179539D01*
X101317197Y-130868183D01*
X101581983Y-130603397D01*
X101893339Y-130395356D01*
X102239299Y-130252054D01*
X102422934Y-130215527D01*
X102606567Y-130179000D01*
X102981033Y-130179000D01*
X103164666Y-130215527D01*
X103164666Y-130215527D01*
G37*
G36*
X139251424Y-129399760D02*
G01*
X139251427Y-129399761D01*
X139251428Y-129399761D01*
X139430692Y-129454140D01*
X139430695Y-129454142D01*
X139430696Y-129454142D01*
X139595903Y-129542446D01*
X139740712Y-129661288D01*
X139859554Y-129806097D01*
X139947858Y-129971303D01*
X139947860Y-129971307D01*
X139979147Y-130074447D01*
X140002240Y-130150575D01*
X140016000Y-130290282D01*
X140016000Y-131583718D01*
X140002240Y-131723425D01*
X140002239Y-131723428D01*
X140002239Y-131723429D01*
X139947860Y-131902693D01*
X139947858Y-131902696D01*
X139947858Y-131902697D01*
X139859554Y-132067903D01*
X139740712Y-132212712D01*
X139595903Y-132331554D01*
X139430697Y-132419858D01*
X139430693Y-132419860D01*
X139251429Y-132474239D01*
X139251428Y-132474239D01*
X139251425Y-132474240D01*
X139065000Y-132492601D01*
X138878576Y-132474240D01*
X138878573Y-132474239D01*
X138878572Y-132474239D01*
X138699308Y-132419860D01*
X138699304Y-132419858D01*
X138534098Y-132331554D01*
X138389289Y-132212712D01*
X138270447Y-132067903D01*
X138182140Y-131902692D01*
X138127760Y-131723430D01*
X138114000Y-131583718D01*
X138114000Y-130290283D01*
X138127760Y-130150576D01*
X138127761Y-130150572D01*
X138182140Y-129971308D01*
X138202805Y-129932646D01*
X138270446Y-129806097D01*
X138389288Y-129661288D01*
X138534097Y-129542446D01*
X138699303Y-129454142D01*
X138699304Y-129454142D01*
X138699307Y-129454140D01*
X138878571Y-129399761D01*
X138878572Y-129399761D01*
X138878575Y-129399760D01*
X139065000Y-129381399D01*
X139251424Y-129399760D01*
X139251424Y-129399760D01*
G37*
G36*
X153451424Y-129399760D02*
G01*
X153451427Y-129399761D01*
X153451428Y-129399761D01*
X153630692Y-129454140D01*
X153630695Y-129454142D01*
X153630696Y-129454142D01*
X153795903Y-129542446D01*
X153940712Y-129661288D01*
X154059554Y-129806097D01*
X154147858Y-129971303D01*
X154147860Y-129971307D01*
X154179147Y-130074447D01*
X154202240Y-130150575D01*
X154216000Y-130290282D01*
X154216000Y-131583718D01*
X154202240Y-131723425D01*
X154202239Y-131723428D01*
X154202239Y-131723429D01*
X154147860Y-131902693D01*
X154147858Y-131902696D01*
X154147858Y-131902697D01*
X154059554Y-132067903D01*
X153940712Y-132212712D01*
X153795903Y-132331554D01*
X153630697Y-132419858D01*
X153630693Y-132419860D01*
X153451429Y-132474239D01*
X153451428Y-132474239D01*
X153451425Y-132474240D01*
X153265000Y-132492601D01*
X153078576Y-132474240D01*
X153078573Y-132474239D01*
X153078572Y-132474239D01*
X152899308Y-132419860D01*
X152899304Y-132419858D01*
X152734098Y-132331554D01*
X152589289Y-132212712D01*
X152470447Y-132067903D01*
X152382140Y-131902692D01*
X152327760Y-131723430D01*
X152314000Y-131583718D01*
X152314000Y-130290283D01*
X152327760Y-130150576D01*
X152327761Y-130150572D01*
X152382140Y-129971308D01*
X152402805Y-129932646D01*
X152470446Y-129806097D01*
X152589288Y-129661288D01*
X152734097Y-129542446D01*
X152899303Y-129454142D01*
X152899304Y-129454142D01*
X152899307Y-129454140D01*
X153078571Y-129399761D01*
X153078572Y-129399761D01*
X153078575Y-129399760D01*
X153265000Y-129381399D01*
X153451424Y-129399760D01*
X153451424Y-129399760D01*
G37*
G36*
X122118424Y-129399760D02*
G01*
X122118427Y-129399761D01*
X122118428Y-129399761D01*
X122297692Y-129454140D01*
X122297695Y-129454142D01*
X122297696Y-129454142D01*
X122462903Y-129542446D01*
X122607712Y-129661288D01*
X122726554Y-129806097D01*
X122814858Y-129971303D01*
X122814860Y-129971307D01*
X122846147Y-130074447D01*
X122869240Y-130150575D01*
X122883000Y-130290282D01*
X122883000Y-131583718D01*
X122869240Y-131723425D01*
X122869239Y-131723428D01*
X122869239Y-131723429D01*
X122814860Y-131902693D01*
X122814858Y-131902696D01*
X122814858Y-131902697D01*
X122726554Y-132067903D01*
X122607712Y-132212712D01*
X122462903Y-132331554D01*
X122297697Y-132419858D01*
X122297693Y-132419860D01*
X122118429Y-132474239D01*
X122118428Y-132474239D01*
X122118425Y-132474240D01*
X121932000Y-132492601D01*
X121745576Y-132474240D01*
X121745573Y-132474239D01*
X121745572Y-132474239D01*
X121566308Y-132419860D01*
X121566304Y-132419858D01*
X121401098Y-132331554D01*
X121256289Y-132212712D01*
X121137447Y-132067903D01*
X121049140Y-131902692D01*
X120994760Y-131723430D01*
X120981000Y-131583718D01*
X120981000Y-130290283D01*
X120994760Y-130150576D01*
X120994761Y-130150572D01*
X121049140Y-129971308D01*
X121069805Y-129932646D01*
X121137446Y-129806097D01*
X121256288Y-129661288D01*
X121401097Y-129542446D01*
X121566303Y-129454142D01*
X121566304Y-129454142D01*
X121566307Y-129454140D01*
X121745571Y-129399761D01*
X121745572Y-129399761D01*
X121745575Y-129399760D01*
X121932000Y-129381399D01*
X122118424Y-129399760D01*
X122118424Y-129399760D01*
G37*
G36*
X136318424Y-129399760D02*
G01*
X136318427Y-129399761D01*
X136318428Y-129399761D01*
X136497692Y-129454140D01*
X136497695Y-129454142D01*
X136497696Y-129454142D01*
X136662903Y-129542446D01*
X136807712Y-129661288D01*
X136926554Y-129806097D01*
X137014858Y-129971303D01*
X137014860Y-129971307D01*
X137046147Y-130074447D01*
X137069240Y-130150575D01*
X137083000Y-130290282D01*
X137083000Y-131583718D01*
X137069240Y-131723425D01*
X137069239Y-131723428D01*
X137069239Y-131723429D01*
X137014860Y-131902693D01*
X137014858Y-131902696D01*
X137014858Y-131902697D01*
X136926554Y-132067903D01*
X136807712Y-132212712D01*
X136662903Y-132331554D01*
X136497697Y-132419858D01*
X136497693Y-132419860D01*
X136318429Y-132474239D01*
X136318428Y-132474239D01*
X136318425Y-132474240D01*
X136132000Y-132492601D01*
X135945576Y-132474240D01*
X135945573Y-132474239D01*
X135945572Y-132474239D01*
X135766308Y-132419860D01*
X135766304Y-132419858D01*
X135601098Y-132331554D01*
X135456289Y-132212712D01*
X135337447Y-132067903D01*
X135249140Y-131902692D01*
X135194760Y-131723430D01*
X135181000Y-131583718D01*
X135181000Y-130290283D01*
X135194760Y-130150576D01*
X135194761Y-130150572D01*
X135249140Y-129971308D01*
X135269805Y-129932646D01*
X135337446Y-129806097D01*
X135456288Y-129661288D01*
X135601097Y-129542446D01*
X135766303Y-129454142D01*
X135766304Y-129454142D01*
X135766307Y-129454140D01*
X135945571Y-129399761D01*
X135945572Y-129399761D01*
X135945575Y-129399760D01*
X136132000Y-129381399D01*
X136318424Y-129399760D01*
X136318424Y-129399760D01*
G37*
G36*
X124159617Y-129895420D02*
G01*
X124250403Y-129922960D01*
X124282335Y-129932646D01*
X124395424Y-129993094D01*
X124494554Y-130074447D01*
X124575906Y-130173575D01*
X124636354Y-130286664D01*
X124637451Y-130290282D01*
X124673580Y-130409382D01*
X124683000Y-130505027D01*
X124683000Y-131368973D01*
X124673580Y-131464618D01*
X124646040Y-131555404D01*
X124636354Y-131587336D01*
X124575906Y-131700425D01*
X124494554Y-131799554D01*
X124395425Y-131880906D01*
X124282336Y-131941354D01*
X124250404Y-131951040D01*
X124159618Y-131978580D01*
X124032000Y-131991149D01*
X123904383Y-131978580D01*
X123813597Y-131951040D01*
X123781665Y-131941354D01*
X123668576Y-131880906D01*
X123569447Y-131799554D01*
X123488095Y-131700425D01*
X123427647Y-131587336D01*
X123423282Y-131572946D01*
X123390420Y-131464618D01*
X123381000Y-131368973D01*
X123381000Y-130505028D01*
X123390420Y-130409383D01*
X123427645Y-130286669D01*
X123427646Y-130286665D01*
X123488094Y-130173576D01*
X123569447Y-130074446D01*
X123668575Y-129993094D01*
X123781664Y-129932646D01*
X123813596Y-129922960D01*
X123904382Y-129895420D01*
X124032000Y-129882851D01*
X124159617Y-129895420D01*
X124159617Y-129895420D01*
G37*
G36*
X147292617Y-129895420D02*
G01*
X147383403Y-129922960D01*
X147415335Y-129932646D01*
X147528424Y-129993094D01*
X147627554Y-130074447D01*
X147708906Y-130173575D01*
X147769354Y-130286664D01*
X147770451Y-130290282D01*
X147806580Y-130409382D01*
X147816000Y-130505027D01*
X147816000Y-131368973D01*
X147806580Y-131464618D01*
X147779040Y-131555404D01*
X147769354Y-131587336D01*
X147708906Y-131700425D01*
X147627554Y-131799554D01*
X147528425Y-131880906D01*
X147415336Y-131941354D01*
X147383404Y-131951040D01*
X147292618Y-131978580D01*
X147165000Y-131991149D01*
X147037383Y-131978580D01*
X146946597Y-131951040D01*
X146914665Y-131941354D01*
X146801576Y-131880906D01*
X146702447Y-131799554D01*
X146621095Y-131700425D01*
X146560647Y-131587336D01*
X146556282Y-131572946D01*
X146523420Y-131464618D01*
X146514000Y-131368973D01*
X146514000Y-130505028D01*
X146523420Y-130409383D01*
X146560645Y-130286669D01*
X146560646Y-130286665D01*
X146621094Y-130173576D01*
X146702447Y-130074446D01*
X146801575Y-129993094D01*
X146914664Y-129932646D01*
X146946596Y-129922960D01*
X147037382Y-129895420D01*
X147165000Y-129882851D01*
X147292617Y-129895420D01*
X147292617Y-129895420D01*
G37*
G36*
X134159617Y-129895420D02*
G01*
X134250403Y-129922960D01*
X134282335Y-129932646D01*
X134395424Y-129993094D01*
X134494554Y-130074447D01*
X134575906Y-130173575D01*
X134636354Y-130286664D01*
X134637451Y-130290282D01*
X134673580Y-130409382D01*
X134683000Y-130505027D01*
X134683000Y-131368973D01*
X134673580Y-131464618D01*
X134646040Y-131555404D01*
X134636354Y-131587336D01*
X134575906Y-131700425D01*
X134494554Y-131799554D01*
X134395425Y-131880906D01*
X134282336Y-131941354D01*
X134250404Y-131951040D01*
X134159618Y-131978580D01*
X134032000Y-131991149D01*
X133904383Y-131978580D01*
X133813597Y-131951040D01*
X133781665Y-131941354D01*
X133668576Y-131880906D01*
X133569447Y-131799554D01*
X133488095Y-131700425D01*
X133427647Y-131587336D01*
X133423282Y-131572946D01*
X133390420Y-131464618D01*
X133381000Y-131368973D01*
X133381000Y-130505028D01*
X133390420Y-130409383D01*
X133427645Y-130286669D01*
X133427646Y-130286665D01*
X133488094Y-130173576D01*
X133569447Y-130074446D01*
X133668575Y-129993094D01*
X133781664Y-129932646D01*
X133813596Y-129922960D01*
X133904382Y-129895420D01*
X134032000Y-129882851D01*
X134159617Y-129895420D01*
X134159617Y-129895420D01*
G37*
G36*
X151292617Y-129895420D02*
G01*
X151383403Y-129922960D01*
X151415335Y-129932646D01*
X151528424Y-129993094D01*
X151627554Y-130074447D01*
X151708906Y-130173575D01*
X151769354Y-130286664D01*
X151770451Y-130290282D01*
X151806580Y-130409382D01*
X151816000Y-130505027D01*
X151816000Y-131368973D01*
X151806580Y-131464618D01*
X151779040Y-131555404D01*
X151769354Y-131587336D01*
X151708906Y-131700425D01*
X151627554Y-131799554D01*
X151528425Y-131880906D01*
X151415336Y-131941354D01*
X151383404Y-131951040D01*
X151292618Y-131978580D01*
X151165000Y-131991149D01*
X151037383Y-131978580D01*
X150946597Y-131951040D01*
X150914665Y-131941354D01*
X150801576Y-131880906D01*
X150702447Y-131799554D01*
X150621095Y-131700425D01*
X150560647Y-131587336D01*
X150556282Y-131572946D01*
X150523420Y-131464618D01*
X150514000Y-131368973D01*
X150514000Y-130505028D01*
X150523420Y-130409383D01*
X150560645Y-130286669D01*
X150560646Y-130286665D01*
X150621094Y-130173576D01*
X150702447Y-130074446D01*
X150801575Y-129993094D01*
X150914664Y-129932646D01*
X150946596Y-129922960D01*
X151037382Y-129895420D01*
X151165000Y-129882851D01*
X151292617Y-129895420D01*
X151292617Y-129895420D01*
G37*
G36*
X149292617Y-129895420D02*
G01*
X149383403Y-129922960D01*
X149415335Y-129932646D01*
X149528424Y-129993094D01*
X149627554Y-130074447D01*
X149708906Y-130173575D01*
X149769354Y-130286664D01*
X149770451Y-130290282D01*
X149806580Y-130409382D01*
X149816000Y-130505027D01*
X149816000Y-131368973D01*
X149806580Y-131464618D01*
X149779040Y-131555404D01*
X149769354Y-131587336D01*
X149708906Y-131700425D01*
X149627554Y-131799554D01*
X149528425Y-131880906D01*
X149415336Y-131941354D01*
X149383404Y-131951040D01*
X149292618Y-131978580D01*
X149165000Y-131991149D01*
X149037383Y-131978580D01*
X148946597Y-131951040D01*
X148914665Y-131941354D01*
X148801576Y-131880906D01*
X148702447Y-131799554D01*
X148621095Y-131700425D01*
X148560647Y-131587336D01*
X148556282Y-131572946D01*
X148523420Y-131464618D01*
X148514000Y-131368973D01*
X148514000Y-130505028D01*
X148523420Y-130409383D01*
X148560645Y-130286669D01*
X148560646Y-130286665D01*
X148621094Y-130173576D01*
X148702447Y-130074446D01*
X148801575Y-129993094D01*
X148914664Y-129932646D01*
X148946596Y-129922960D01*
X149037382Y-129895420D01*
X149165000Y-129882851D01*
X149292617Y-129895420D01*
X149292617Y-129895420D01*
G37*
G36*
X145292617Y-129895420D02*
G01*
X145383403Y-129922960D01*
X145415335Y-129932646D01*
X145528424Y-129993094D01*
X145627554Y-130074447D01*
X145708906Y-130173575D01*
X145769354Y-130286664D01*
X145770451Y-130290282D01*
X145806580Y-130409382D01*
X145816000Y-130505027D01*
X145816000Y-131368973D01*
X145806580Y-131464618D01*
X145779040Y-131555404D01*
X145769354Y-131587336D01*
X145708906Y-131700425D01*
X145627554Y-131799554D01*
X145528425Y-131880906D01*
X145415336Y-131941354D01*
X145383404Y-131951040D01*
X145292618Y-131978580D01*
X145165000Y-131991149D01*
X145037383Y-131978580D01*
X144946597Y-131951040D01*
X144914665Y-131941354D01*
X144801576Y-131880906D01*
X144702447Y-131799554D01*
X144621095Y-131700425D01*
X144560647Y-131587336D01*
X144556282Y-131572946D01*
X144523420Y-131464618D01*
X144514000Y-131368973D01*
X144514000Y-130505028D01*
X144523420Y-130409383D01*
X144560645Y-130286669D01*
X144560646Y-130286665D01*
X144621094Y-130173576D01*
X144702447Y-130074446D01*
X144801575Y-129993094D01*
X144914664Y-129932646D01*
X144946596Y-129922960D01*
X145037382Y-129895420D01*
X145165000Y-129882851D01*
X145292617Y-129895420D01*
X145292617Y-129895420D01*
G37*
G36*
X143292617Y-129895420D02*
G01*
X143383403Y-129922960D01*
X143415335Y-129932646D01*
X143528424Y-129993094D01*
X143627554Y-130074447D01*
X143708906Y-130173575D01*
X143769354Y-130286664D01*
X143770451Y-130290282D01*
X143806580Y-130409382D01*
X143816000Y-130505027D01*
X143816000Y-131368973D01*
X143806580Y-131464618D01*
X143779040Y-131555404D01*
X143769354Y-131587336D01*
X143708906Y-131700425D01*
X143627554Y-131799554D01*
X143528425Y-131880906D01*
X143415336Y-131941354D01*
X143383404Y-131951040D01*
X143292618Y-131978580D01*
X143165000Y-131991149D01*
X143037383Y-131978580D01*
X142946597Y-131951040D01*
X142914665Y-131941354D01*
X142801576Y-131880906D01*
X142702447Y-131799554D01*
X142621095Y-131700425D01*
X142560647Y-131587336D01*
X142556282Y-131572946D01*
X142523420Y-131464618D01*
X142514000Y-131368973D01*
X142514000Y-130505028D01*
X142523420Y-130409383D01*
X142560645Y-130286669D01*
X142560646Y-130286665D01*
X142621094Y-130173576D01*
X142702447Y-130074446D01*
X142801575Y-129993094D01*
X142914664Y-129932646D01*
X142946596Y-129922960D01*
X143037382Y-129895420D01*
X143165000Y-129882851D01*
X143292617Y-129895420D01*
X143292617Y-129895420D01*
G37*
G36*
X132159617Y-129895420D02*
G01*
X132250403Y-129922960D01*
X132282335Y-129932646D01*
X132395424Y-129993094D01*
X132494554Y-130074447D01*
X132575906Y-130173575D01*
X132636354Y-130286664D01*
X132637451Y-130290282D01*
X132673580Y-130409382D01*
X132683000Y-130505027D01*
X132683000Y-131368973D01*
X132673580Y-131464618D01*
X132646040Y-131555404D01*
X132636354Y-131587336D01*
X132575906Y-131700425D01*
X132494554Y-131799554D01*
X132395425Y-131880906D01*
X132282336Y-131941354D01*
X132250404Y-131951040D01*
X132159618Y-131978580D01*
X132032000Y-131991149D01*
X131904383Y-131978580D01*
X131813597Y-131951040D01*
X131781665Y-131941354D01*
X131668576Y-131880906D01*
X131569447Y-131799554D01*
X131488095Y-131700425D01*
X131427647Y-131587336D01*
X131423282Y-131572946D01*
X131390420Y-131464618D01*
X131381000Y-131368973D01*
X131381000Y-130505028D01*
X131390420Y-130409383D01*
X131427645Y-130286669D01*
X131427646Y-130286665D01*
X131488094Y-130173576D01*
X131569447Y-130074446D01*
X131668575Y-129993094D01*
X131781664Y-129932646D01*
X131813596Y-129922960D01*
X131904382Y-129895420D01*
X132032000Y-129882851D01*
X132159617Y-129895420D01*
X132159617Y-129895420D01*
G37*
G36*
X141292617Y-129895420D02*
G01*
X141383403Y-129922960D01*
X141415335Y-129932646D01*
X141528424Y-129993094D01*
X141627554Y-130074447D01*
X141708906Y-130173575D01*
X141769354Y-130286664D01*
X141770451Y-130290282D01*
X141806580Y-130409382D01*
X141816000Y-130505027D01*
X141816000Y-131368973D01*
X141806580Y-131464618D01*
X141779040Y-131555404D01*
X141769354Y-131587336D01*
X141708906Y-131700425D01*
X141627554Y-131799554D01*
X141528425Y-131880906D01*
X141415336Y-131941354D01*
X141383404Y-131951040D01*
X141292618Y-131978580D01*
X141165000Y-131991149D01*
X141037383Y-131978580D01*
X140946597Y-131951040D01*
X140914665Y-131941354D01*
X140801576Y-131880906D01*
X140702447Y-131799554D01*
X140621095Y-131700425D01*
X140560647Y-131587336D01*
X140556282Y-131572946D01*
X140523420Y-131464618D01*
X140514000Y-131368973D01*
X140514000Y-130505028D01*
X140523420Y-130409383D01*
X140560645Y-130286669D01*
X140560646Y-130286665D01*
X140621094Y-130173576D01*
X140702447Y-130074446D01*
X140801575Y-129993094D01*
X140914664Y-129932646D01*
X140946596Y-129922960D01*
X141037382Y-129895420D01*
X141165000Y-129882851D01*
X141292617Y-129895420D01*
X141292617Y-129895420D01*
G37*
G36*
X126159617Y-129895420D02*
G01*
X126250403Y-129922960D01*
X126282335Y-129932646D01*
X126395424Y-129993094D01*
X126494554Y-130074447D01*
X126575906Y-130173575D01*
X126636354Y-130286664D01*
X126637451Y-130290282D01*
X126673580Y-130409382D01*
X126683000Y-130505027D01*
X126683000Y-131368973D01*
X126673580Y-131464618D01*
X126646040Y-131555404D01*
X126636354Y-131587336D01*
X126575906Y-131700425D01*
X126494554Y-131799554D01*
X126395425Y-131880906D01*
X126282336Y-131941354D01*
X126250404Y-131951040D01*
X126159618Y-131978580D01*
X126032000Y-131991149D01*
X125904383Y-131978580D01*
X125813597Y-131951040D01*
X125781665Y-131941354D01*
X125668576Y-131880906D01*
X125569447Y-131799554D01*
X125488095Y-131700425D01*
X125427647Y-131587336D01*
X125423282Y-131572946D01*
X125390420Y-131464618D01*
X125381000Y-131368973D01*
X125381000Y-130505028D01*
X125390420Y-130409383D01*
X125427645Y-130286669D01*
X125427646Y-130286665D01*
X125488094Y-130173576D01*
X125569447Y-130074446D01*
X125668575Y-129993094D01*
X125781664Y-129932646D01*
X125813596Y-129922960D01*
X125904382Y-129895420D01*
X126032000Y-129882851D01*
X126159617Y-129895420D01*
X126159617Y-129895420D01*
G37*
G36*
X128159617Y-129895420D02*
G01*
X128250403Y-129922960D01*
X128282335Y-129932646D01*
X128395424Y-129993094D01*
X128494554Y-130074447D01*
X128575906Y-130173575D01*
X128636354Y-130286664D01*
X128637451Y-130290282D01*
X128673580Y-130409382D01*
X128683000Y-130505027D01*
X128683000Y-131368973D01*
X128673580Y-131464618D01*
X128646040Y-131555404D01*
X128636354Y-131587336D01*
X128575906Y-131700425D01*
X128494554Y-131799554D01*
X128395425Y-131880906D01*
X128282336Y-131941354D01*
X128250404Y-131951040D01*
X128159618Y-131978580D01*
X128032000Y-131991149D01*
X127904383Y-131978580D01*
X127813597Y-131951040D01*
X127781665Y-131941354D01*
X127668576Y-131880906D01*
X127569447Y-131799554D01*
X127488095Y-131700425D01*
X127427647Y-131587336D01*
X127423282Y-131572946D01*
X127390420Y-131464618D01*
X127381000Y-131368973D01*
X127381000Y-130505028D01*
X127390420Y-130409383D01*
X127427645Y-130286669D01*
X127427646Y-130286665D01*
X127488094Y-130173576D01*
X127569447Y-130074446D01*
X127668575Y-129993094D01*
X127781664Y-129932646D01*
X127813596Y-129922960D01*
X127904382Y-129895420D01*
X128032000Y-129882851D01*
X128159617Y-129895420D01*
X128159617Y-129895420D01*
G37*
G36*
X130159617Y-129895420D02*
G01*
X130250403Y-129922960D01*
X130282335Y-129932646D01*
X130395424Y-129993094D01*
X130494554Y-130074447D01*
X130575906Y-130173575D01*
X130636354Y-130286664D01*
X130637451Y-130290282D01*
X130673580Y-130409382D01*
X130683000Y-130505027D01*
X130683000Y-131368973D01*
X130673580Y-131464618D01*
X130646040Y-131555404D01*
X130636354Y-131587336D01*
X130575906Y-131700425D01*
X130494554Y-131799554D01*
X130395425Y-131880906D01*
X130282336Y-131941354D01*
X130250404Y-131951040D01*
X130159618Y-131978580D01*
X130032000Y-131991149D01*
X129904383Y-131978580D01*
X129813597Y-131951040D01*
X129781665Y-131941354D01*
X129668576Y-131880906D01*
X129569447Y-131799554D01*
X129488095Y-131700425D01*
X129427647Y-131587336D01*
X129423282Y-131572946D01*
X129390420Y-131464618D01*
X129381000Y-131368973D01*
X129381000Y-130505028D01*
X129390420Y-130409383D01*
X129427645Y-130286669D01*
X129427646Y-130286665D01*
X129488094Y-130173576D01*
X129569447Y-130074446D01*
X129668575Y-129993094D01*
X129781664Y-129932646D01*
X129813596Y-129922960D01*
X129904382Y-129895420D01*
X130032000Y-129882851D01*
X130159617Y-129895420D01*
X130159617Y-129895420D01*
G37*
G36*
X163334000Y-129298000D02*
G01*
X161532000Y-129298000D01*
X161532000Y-127496000D01*
X163334000Y-127496000D01*
X163334000Y-129298000D01*
X163334000Y-129298000D01*
G37*
G36*
X165083443Y-127502519D02*
G01*
X165149627Y-127509037D01*
X165319466Y-127560557D01*
X165475991Y-127644222D01*
X165476255Y-127644439D01*
X165613186Y-127756814D01*
X165696448Y-127858271D01*
X165725778Y-127894009D01*
X165809443Y-128050534D01*
X165860963Y-128220373D01*
X165878359Y-128397000D01*
X165860963Y-128573627D01*
X165809443Y-128743466D01*
X165725778Y-128899991D01*
X165696448Y-128935729D01*
X165613186Y-129037186D01*
X165511729Y-129120448D01*
X165475991Y-129149778D01*
X165319466Y-129233443D01*
X165149627Y-129284963D01*
X165083443Y-129291481D01*
X165017260Y-129298000D01*
X164928740Y-129298000D01*
X164862557Y-129291481D01*
X164796373Y-129284963D01*
X164626534Y-129233443D01*
X164470009Y-129149778D01*
X164434271Y-129120448D01*
X164332814Y-129037186D01*
X164249552Y-128935729D01*
X164220222Y-128899991D01*
X164136557Y-128743466D01*
X164085037Y-128573627D01*
X164067641Y-128397000D01*
X164085037Y-128220373D01*
X164136557Y-128050534D01*
X164220222Y-127894009D01*
X164249552Y-127858271D01*
X164332814Y-127756814D01*
X164469745Y-127644439D01*
X164470009Y-127644222D01*
X164626534Y-127560557D01*
X164796373Y-127509037D01*
X164862557Y-127502519D01*
X164928740Y-127496000D01*
X165017260Y-127496000D01*
X165083443Y-127502519D01*
X165083443Y-127502519D01*
G37*
G36*
X144920562Y-126240681D02*
G01*
X144955481Y-126251274D01*
X144987663Y-126268476D01*
X145015873Y-126291627D01*
X145039024Y-126319837D01*
X145056226Y-126352019D01*
X145066819Y-126386938D01*
X145071000Y-126429395D01*
X145071000Y-127570605D01*
X145066819Y-127613062D01*
X145056226Y-127647981D01*
X145039024Y-127680163D01*
X145015873Y-127708373D01*
X144987663Y-127731524D01*
X144955481Y-127748726D01*
X144920562Y-127759319D01*
X144878105Y-127763500D01*
X143411895Y-127763500D01*
X143369438Y-127759319D01*
X143334519Y-127748726D01*
X143302337Y-127731524D01*
X143274127Y-127708373D01*
X143250976Y-127680163D01*
X143233774Y-127647981D01*
X143223181Y-127613062D01*
X143219000Y-127570605D01*
X143219000Y-126429395D01*
X143223181Y-126386938D01*
X143233774Y-126352019D01*
X143250976Y-126319837D01*
X143274127Y-126291627D01*
X143302337Y-126268476D01*
X143334519Y-126251274D01*
X143369438Y-126240681D01*
X143411895Y-126236500D01*
X144878105Y-126236500D01*
X144920562Y-126240681D01*
X144920562Y-126240681D01*
G37*
G36*
X141110562Y-126240681D02*
G01*
X141145481Y-126251274D01*
X141177663Y-126268476D01*
X141205873Y-126291627D01*
X141229024Y-126319837D01*
X141246226Y-126352019D01*
X141256819Y-126386938D01*
X141261000Y-126429395D01*
X141261000Y-127570605D01*
X141256819Y-127613062D01*
X141246226Y-127647981D01*
X141229024Y-127680163D01*
X141205873Y-127708373D01*
X141177663Y-127731524D01*
X141145481Y-127748726D01*
X141110562Y-127759319D01*
X141068105Y-127763500D01*
X139601895Y-127763500D01*
X139559438Y-127759319D01*
X139524519Y-127748726D01*
X139492337Y-127731524D01*
X139464127Y-127708373D01*
X139440976Y-127680163D01*
X139423774Y-127647981D01*
X139413181Y-127613062D01*
X139409000Y-127570605D01*
X139409000Y-126429395D01*
X139413181Y-126386938D01*
X139423774Y-126352019D01*
X139440976Y-126319837D01*
X139464127Y-126291627D01*
X139492337Y-126268476D01*
X139524519Y-126251274D01*
X139559438Y-126240681D01*
X139601895Y-126236500D01*
X141068105Y-126236500D01*
X141110562Y-126240681D01*
X141110562Y-126240681D01*
G37*
G36*
X151270562Y-126240681D02*
G01*
X151305481Y-126251274D01*
X151337663Y-126268476D01*
X151365873Y-126291627D01*
X151389024Y-126319837D01*
X151406226Y-126352019D01*
X151416819Y-126386938D01*
X151421000Y-126429395D01*
X151421000Y-127570605D01*
X151416819Y-127613062D01*
X151406226Y-127647981D01*
X151389024Y-127680163D01*
X151365873Y-127708373D01*
X151337663Y-127731524D01*
X151305481Y-127748726D01*
X151270562Y-127759319D01*
X151228105Y-127763500D01*
X149761895Y-127763500D01*
X149719438Y-127759319D01*
X149684519Y-127748726D01*
X149652337Y-127731524D01*
X149624127Y-127708373D01*
X149600976Y-127680163D01*
X149583774Y-127647981D01*
X149573181Y-127613062D01*
X149569000Y-127570605D01*
X149569000Y-126429395D01*
X149573181Y-126386938D01*
X149583774Y-126352019D01*
X149600976Y-126319837D01*
X149624127Y-126291627D01*
X149652337Y-126268476D01*
X149684519Y-126251274D01*
X149719438Y-126240681D01*
X149761895Y-126236500D01*
X151228105Y-126236500D01*
X151270562Y-126240681D01*
X151270562Y-126240681D01*
G37*
G36*
X133490562Y-126240681D02*
G01*
X133525481Y-126251274D01*
X133557663Y-126268476D01*
X133585873Y-126291627D01*
X133609024Y-126319837D01*
X133626226Y-126352019D01*
X133636819Y-126386938D01*
X133641000Y-126429395D01*
X133641000Y-127570605D01*
X133636819Y-127613062D01*
X133626226Y-127647981D01*
X133609024Y-127680163D01*
X133585873Y-127708373D01*
X133557663Y-127731524D01*
X133525481Y-127748726D01*
X133490562Y-127759319D01*
X133448105Y-127763500D01*
X131981895Y-127763500D01*
X131939438Y-127759319D01*
X131904519Y-127748726D01*
X131872337Y-127731524D01*
X131844127Y-127708373D01*
X131820976Y-127680163D01*
X131803774Y-127647981D01*
X131793181Y-127613062D01*
X131789000Y-127570605D01*
X131789000Y-126429395D01*
X131793181Y-126386938D01*
X131803774Y-126352019D01*
X131820976Y-126319837D01*
X131844127Y-126291627D01*
X131872337Y-126268476D01*
X131904519Y-126251274D01*
X131939438Y-126240681D01*
X131981895Y-126236500D01*
X133448105Y-126236500D01*
X133490562Y-126240681D01*
X133490562Y-126240681D01*
G37*
G36*
X127140562Y-126240681D02*
G01*
X127175481Y-126251274D01*
X127207663Y-126268476D01*
X127235873Y-126291627D01*
X127259024Y-126319837D01*
X127276226Y-126352019D01*
X127286819Y-126386938D01*
X127291000Y-126429395D01*
X127291000Y-127570605D01*
X127286819Y-127613062D01*
X127276226Y-127647981D01*
X127259024Y-127680163D01*
X127235873Y-127708373D01*
X127207663Y-127731524D01*
X127175481Y-127748726D01*
X127140562Y-127759319D01*
X127098105Y-127763500D01*
X125631895Y-127763500D01*
X125589438Y-127759319D01*
X125554519Y-127748726D01*
X125522337Y-127731524D01*
X125494127Y-127708373D01*
X125470976Y-127680163D01*
X125453774Y-127647981D01*
X125443181Y-127613062D01*
X125439000Y-127570605D01*
X125439000Y-126429395D01*
X125443181Y-126386938D01*
X125453774Y-126352019D01*
X125470976Y-126319837D01*
X125494127Y-126291627D01*
X125522337Y-126268476D01*
X125554519Y-126251274D01*
X125589438Y-126240681D01*
X125631895Y-126236500D01*
X127098105Y-126236500D01*
X127140562Y-126240681D01*
X127140562Y-126240681D01*
G37*
G36*
X123330562Y-126240681D02*
G01*
X123365481Y-126251274D01*
X123397663Y-126268476D01*
X123425873Y-126291627D01*
X123449024Y-126319837D01*
X123466226Y-126352019D01*
X123476819Y-126386938D01*
X123481000Y-126429395D01*
X123481000Y-127570605D01*
X123476819Y-127613062D01*
X123466226Y-127647981D01*
X123449024Y-127680163D01*
X123425873Y-127708373D01*
X123397663Y-127731524D01*
X123365481Y-127748726D01*
X123330562Y-127759319D01*
X123288105Y-127763500D01*
X121821895Y-127763500D01*
X121779438Y-127759319D01*
X121744519Y-127748726D01*
X121712337Y-127731524D01*
X121684127Y-127708373D01*
X121660976Y-127680163D01*
X121643774Y-127647981D01*
X121633181Y-127613062D01*
X121629000Y-127570605D01*
X121629000Y-126429395D01*
X121633181Y-126386938D01*
X121643774Y-126352019D01*
X121660976Y-126319837D01*
X121684127Y-126291627D01*
X121712337Y-126268476D01*
X121744519Y-126251274D01*
X121779438Y-126240681D01*
X121821895Y-126236500D01*
X123288105Y-126236500D01*
X123330562Y-126240681D01*
X123330562Y-126240681D01*
G37*
G36*
X155080562Y-126240681D02*
G01*
X155115481Y-126251274D01*
X155147663Y-126268476D01*
X155175873Y-126291627D01*
X155199024Y-126319837D01*
X155216226Y-126352019D01*
X155226819Y-126386938D01*
X155231000Y-126429395D01*
X155231000Y-127570605D01*
X155226819Y-127613062D01*
X155216226Y-127647981D01*
X155199024Y-127680163D01*
X155175873Y-127708373D01*
X155147663Y-127731524D01*
X155115481Y-127748726D01*
X155080562Y-127759319D01*
X155038105Y-127763500D01*
X153571895Y-127763500D01*
X153529438Y-127759319D01*
X153494519Y-127748726D01*
X153462337Y-127731524D01*
X153434127Y-127708373D01*
X153410976Y-127680163D01*
X153393774Y-127647981D01*
X153383181Y-127613062D01*
X153379000Y-127570605D01*
X153379000Y-126429395D01*
X153383181Y-126386938D01*
X153393774Y-126352019D01*
X153410976Y-126319837D01*
X153434127Y-126291627D01*
X153462337Y-126268476D01*
X153494519Y-126251274D01*
X153529438Y-126240681D01*
X153571895Y-126236500D01*
X155038105Y-126236500D01*
X155080562Y-126240681D01*
X155080562Y-126240681D01*
G37*
G36*
X137426000Y-127266000D02*
G01*
X135624000Y-127266000D01*
X135624000Y-125464000D01*
X137426000Y-125464000D01*
X137426000Y-127266000D01*
X137426000Y-127266000D01*
G37*
G36*
X147568228Y-125506703D02*
G01*
X147723100Y-125570853D01*
X147862481Y-125663985D01*
X147981015Y-125782519D01*
X148074147Y-125921900D01*
X148138297Y-126076772D01*
X148171000Y-126241184D01*
X148171000Y-126408816D01*
X148138297Y-126573228D01*
X148074147Y-126728100D01*
X147981015Y-126867481D01*
X147862481Y-126986015D01*
X147723100Y-127079147D01*
X147568228Y-127143297D01*
X147403816Y-127176000D01*
X147236184Y-127176000D01*
X147071772Y-127143297D01*
X146916900Y-127079147D01*
X146777519Y-126986015D01*
X146658985Y-126867481D01*
X146565853Y-126728100D01*
X146501703Y-126573228D01*
X146469000Y-126408816D01*
X146469000Y-126241184D01*
X146501703Y-126076772D01*
X146565853Y-125921900D01*
X146658985Y-125782519D01*
X146777519Y-125663985D01*
X146916900Y-125570853D01*
X147071772Y-125506703D01*
X147236184Y-125474000D01*
X147403816Y-125474000D01*
X147568228Y-125506703D01*
X147568228Y-125506703D01*
G37*
G36*
X129706823Y-124256313D02*
G01*
X129867242Y-124304976D01*
X129999906Y-124375886D01*
X130015078Y-124383996D01*
X130144659Y-124490341D01*
X130251004Y-124619922D01*
X130251005Y-124619924D01*
X130330024Y-124767758D01*
X130378687Y-124928177D01*
X130395117Y-125095000D01*
X130378687Y-125261823D01*
X130330024Y-125422242D01*
X130259114Y-125554906D01*
X130251004Y-125570078D01*
X130144659Y-125699659D01*
X130015078Y-125806004D01*
X130015076Y-125806005D01*
X129867242Y-125885024D01*
X129706823Y-125933687D01*
X129581804Y-125946000D01*
X129498196Y-125946000D01*
X129373177Y-125933687D01*
X129212758Y-125885024D01*
X129064924Y-125806005D01*
X129064922Y-125806004D01*
X128935341Y-125699659D01*
X128828996Y-125570078D01*
X128820886Y-125554906D01*
X128749976Y-125422242D01*
X128701313Y-125261823D01*
X128684883Y-125095000D01*
X128701313Y-124928177D01*
X128749976Y-124767758D01*
X128828995Y-124619924D01*
X128828996Y-124619922D01*
X128935341Y-124490341D01*
X129064922Y-124383996D01*
X129080094Y-124375886D01*
X129212758Y-124304976D01*
X129373177Y-124256313D01*
X129498196Y-124244000D01*
X129581804Y-124244000D01*
X129706823Y-124256313D01*
X129706823Y-124256313D01*
G37*
G36*
X158789823Y-123748313D02*
G01*
X158950242Y-123796976D01*
X159017361Y-123832852D01*
X159098078Y-123875996D01*
X159227659Y-123982341D01*
X159334004Y-124111922D01*
X159334005Y-124111924D01*
X159413024Y-124259758D01*
X159461687Y-124420177D01*
X159478117Y-124587000D01*
X159461687Y-124753823D01*
X159413024Y-124914242D01*
X159372477Y-124990100D01*
X159334004Y-125062078D01*
X159227659Y-125191659D01*
X159098078Y-125298004D01*
X159098076Y-125298005D01*
X158950242Y-125377024D01*
X158789823Y-125425687D01*
X158664804Y-125438000D01*
X158581196Y-125438000D01*
X158456177Y-125425687D01*
X158295758Y-125377024D01*
X158147924Y-125298005D01*
X158147922Y-125298004D01*
X158018341Y-125191659D01*
X157911996Y-125062078D01*
X157873523Y-124990100D01*
X157832976Y-124914242D01*
X157784313Y-124753823D01*
X157767883Y-124587000D01*
X157784313Y-124420177D01*
X157832976Y-124259758D01*
X157911995Y-124111924D01*
X157911996Y-124111922D01*
X158018341Y-123982341D01*
X158147922Y-123875996D01*
X158228639Y-123832852D01*
X158295758Y-123796976D01*
X158456177Y-123748313D01*
X158581196Y-123736000D01*
X158664804Y-123736000D01*
X158789823Y-123748313D01*
X158789823Y-123748313D01*
G37*
G36*
X169031228Y-123768703D02*
G01*
X169186100Y-123832853D01*
X169325481Y-123925985D01*
X169444015Y-124044519D01*
X169537147Y-124183900D01*
X169601297Y-124338772D01*
X169634000Y-124503184D01*
X169634000Y-124670816D01*
X169601297Y-124835228D01*
X169537147Y-124990100D01*
X169444015Y-125129481D01*
X169325481Y-125248015D01*
X169186100Y-125341147D01*
X169031228Y-125405297D01*
X168866816Y-125438000D01*
X168699184Y-125438000D01*
X168534772Y-125405297D01*
X168379900Y-125341147D01*
X168240519Y-125248015D01*
X168121985Y-125129481D01*
X168028853Y-124990100D01*
X167964703Y-124835228D01*
X167932000Y-124670816D01*
X167932000Y-124503184D01*
X167964703Y-124338772D01*
X168028853Y-124183900D01*
X168121985Y-124044519D01*
X168240519Y-123925985D01*
X168379900Y-123832853D01*
X168534772Y-123768703D01*
X168699184Y-123736000D01*
X168866816Y-123736000D01*
X169031228Y-123768703D01*
X169031228Y-123768703D01*
G37*
G36*
X123330562Y-123265681D02*
G01*
X123365481Y-123276274D01*
X123397663Y-123293476D01*
X123425873Y-123316627D01*
X123449024Y-123344837D01*
X123466226Y-123377019D01*
X123476819Y-123411938D01*
X123481000Y-123454395D01*
X123481000Y-124595605D01*
X123476819Y-124638062D01*
X123466226Y-124672981D01*
X123449024Y-124705163D01*
X123425873Y-124733373D01*
X123397663Y-124756524D01*
X123365481Y-124773726D01*
X123330562Y-124784319D01*
X123288105Y-124788500D01*
X121821895Y-124788500D01*
X121779438Y-124784319D01*
X121744519Y-124773726D01*
X121712337Y-124756524D01*
X121684127Y-124733373D01*
X121660976Y-124705163D01*
X121643774Y-124672981D01*
X121633181Y-124638062D01*
X121629000Y-124595605D01*
X121629000Y-123454395D01*
X121633181Y-123411938D01*
X121643774Y-123377019D01*
X121660976Y-123344837D01*
X121684127Y-123316627D01*
X121712337Y-123293476D01*
X121744519Y-123276274D01*
X121779438Y-123265681D01*
X121821895Y-123261500D01*
X123288105Y-123261500D01*
X123330562Y-123265681D01*
X123330562Y-123265681D01*
G37*
G36*
X144920562Y-123265681D02*
G01*
X144955481Y-123276274D01*
X144987663Y-123293476D01*
X145015873Y-123316627D01*
X145039024Y-123344837D01*
X145056226Y-123377019D01*
X145066819Y-123411938D01*
X145071000Y-123454395D01*
X145071000Y-124595605D01*
X145066819Y-124638062D01*
X145056226Y-124672981D01*
X145039024Y-124705163D01*
X145015873Y-124733373D01*
X144987663Y-124756524D01*
X144955481Y-124773726D01*
X144920562Y-124784319D01*
X144878105Y-124788500D01*
X143411895Y-124788500D01*
X143369438Y-124784319D01*
X143334519Y-124773726D01*
X143302337Y-124756524D01*
X143274127Y-124733373D01*
X143250976Y-124705163D01*
X143233774Y-124672981D01*
X143223181Y-124638062D01*
X143219000Y-124595605D01*
X143219000Y-123454395D01*
X143223181Y-123411938D01*
X143233774Y-123377019D01*
X143250976Y-123344837D01*
X143274127Y-123316627D01*
X143302337Y-123293476D01*
X143334519Y-123276274D01*
X143369438Y-123265681D01*
X143411895Y-123261500D01*
X144878105Y-123261500D01*
X144920562Y-123265681D01*
X144920562Y-123265681D01*
G37*
G36*
X151270562Y-123265681D02*
G01*
X151305481Y-123276274D01*
X151337663Y-123293476D01*
X151365873Y-123316627D01*
X151389024Y-123344837D01*
X151406226Y-123377019D01*
X151416819Y-123411938D01*
X151421000Y-123454395D01*
X151421000Y-124595605D01*
X151416819Y-124638062D01*
X151406226Y-124672981D01*
X151389024Y-124705163D01*
X151365873Y-124733373D01*
X151337663Y-124756524D01*
X151305481Y-124773726D01*
X151270562Y-124784319D01*
X151228105Y-124788500D01*
X149761895Y-124788500D01*
X149719438Y-124784319D01*
X149684519Y-124773726D01*
X149652337Y-124756524D01*
X149624127Y-124733373D01*
X149600976Y-124705163D01*
X149583774Y-124672981D01*
X149573181Y-124638062D01*
X149569000Y-124595605D01*
X149569000Y-123454395D01*
X149573181Y-123411938D01*
X149583774Y-123377019D01*
X149600976Y-123344837D01*
X149624127Y-123316627D01*
X149652337Y-123293476D01*
X149684519Y-123276274D01*
X149719438Y-123265681D01*
X149761895Y-123261500D01*
X151228105Y-123261500D01*
X151270562Y-123265681D01*
X151270562Y-123265681D01*
G37*
G36*
X127140562Y-123265681D02*
G01*
X127175481Y-123276274D01*
X127207663Y-123293476D01*
X127235873Y-123316627D01*
X127259024Y-123344837D01*
X127276226Y-123377019D01*
X127286819Y-123411938D01*
X127291000Y-123454395D01*
X127291000Y-124595605D01*
X127286819Y-124638062D01*
X127276226Y-124672981D01*
X127259024Y-124705163D01*
X127235873Y-124733373D01*
X127207663Y-124756524D01*
X127175481Y-124773726D01*
X127140562Y-124784319D01*
X127098105Y-124788500D01*
X125631895Y-124788500D01*
X125589438Y-124784319D01*
X125554519Y-124773726D01*
X125522337Y-124756524D01*
X125494127Y-124733373D01*
X125470976Y-124705163D01*
X125453774Y-124672981D01*
X125443181Y-124638062D01*
X125439000Y-124595605D01*
X125439000Y-123454395D01*
X125443181Y-123411938D01*
X125453774Y-123377019D01*
X125470976Y-123344837D01*
X125494127Y-123316627D01*
X125522337Y-123293476D01*
X125554519Y-123276274D01*
X125589438Y-123265681D01*
X125631895Y-123261500D01*
X127098105Y-123261500D01*
X127140562Y-123265681D01*
X127140562Y-123265681D01*
G37*
G36*
X133490562Y-123265681D02*
G01*
X133525481Y-123276274D01*
X133557663Y-123293476D01*
X133585873Y-123316627D01*
X133609024Y-123344837D01*
X133626226Y-123377019D01*
X133636819Y-123411938D01*
X133641000Y-123454395D01*
X133641000Y-124595605D01*
X133636819Y-124638062D01*
X133626226Y-124672981D01*
X133609024Y-124705163D01*
X133585873Y-124733373D01*
X133557663Y-124756524D01*
X133525481Y-124773726D01*
X133490562Y-124784319D01*
X133448105Y-124788500D01*
X131981895Y-124788500D01*
X131939438Y-124784319D01*
X131904519Y-124773726D01*
X131872337Y-124756524D01*
X131844127Y-124733373D01*
X131820976Y-124705163D01*
X131803774Y-124672981D01*
X131793181Y-124638062D01*
X131789000Y-124595605D01*
X131789000Y-123454395D01*
X131793181Y-123411938D01*
X131803774Y-123377019D01*
X131820976Y-123344837D01*
X131844127Y-123316627D01*
X131872337Y-123293476D01*
X131904519Y-123276274D01*
X131939438Y-123265681D01*
X131981895Y-123261500D01*
X133448105Y-123261500D01*
X133490562Y-123265681D01*
X133490562Y-123265681D01*
G37*
G36*
X141110562Y-123265681D02*
G01*
X141145481Y-123276274D01*
X141177663Y-123293476D01*
X141205873Y-123316627D01*
X141229024Y-123344837D01*
X141246226Y-123377019D01*
X141256819Y-123411938D01*
X141261000Y-123454395D01*
X141261000Y-124595605D01*
X141256819Y-124638062D01*
X141246226Y-124672981D01*
X141229024Y-124705163D01*
X141205873Y-124733373D01*
X141177663Y-124756524D01*
X141145481Y-124773726D01*
X141110562Y-124784319D01*
X141068105Y-124788500D01*
X139601895Y-124788500D01*
X139559438Y-124784319D01*
X139524519Y-124773726D01*
X139492337Y-124756524D01*
X139464127Y-124733373D01*
X139440976Y-124705163D01*
X139423774Y-124672981D01*
X139413181Y-124638062D01*
X139409000Y-124595605D01*
X139409000Y-123454395D01*
X139413181Y-123411938D01*
X139423774Y-123377019D01*
X139440976Y-123344837D01*
X139464127Y-123316627D01*
X139492337Y-123293476D01*
X139524519Y-123276274D01*
X139559438Y-123265681D01*
X139601895Y-123261500D01*
X141068105Y-123261500D01*
X141110562Y-123265681D01*
X141110562Y-123265681D01*
G37*
G36*
X155080562Y-123265681D02*
G01*
X155115481Y-123276274D01*
X155147663Y-123293476D01*
X155175873Y-123316627D01*
X155199024Y-123344837D01*
X155216226Y-123377019D01*
X155226819Y-123411938D01*
X155231000Y-123454395D01*
X155231000Y-124595605D01*
X155226819Y-124638062D01*
X155216226Y-124672981D01*
X155199024Y-124705163D01*
X155175873Y-124733373D01*
X155147663Y-124756524D01*
X155115481Y-124773726D01*
X155080562Y-124784319D01*
X155038105Y-124788500D01*
X153571895Y-124788500D01*
X153529438Y-124784319D01*
X153494519Y-124773726D01*
X153462337Y-124756524D01*
X153434127Y-124733373D01*
X153410976Y-124705163D01*
X153393774Y-124672981D01*
X153383181Y-124638062D01*
X153379000Y-124595605D01*
X153379000Y-123454395D01*
X153383181Y-123411938D01*
X153393774Y-123377019D01*
X153410976Y-123344837D01*
X153434127Y-123316627D01*
X153462337Y-123293476D01*
X153494519Y-123276274D01*
X153529438Y-123265681D01*
X153571895Y-123261500D01*
X155038105Y-123261500D01*
X155080562Y-123265681D01*
X155080562Y-123265681D01*
G37*
G36*
X136635443Y-122930519D02*
G01*
X136701627Y-122937037D01*
X136871466Y-122988557D01*
X137027991Y-123072222D01*
X137063729Y-123101552D01*
X137165186Y-123184814D01*
X137232344Y-123266648D01*
X137277778Y-123322009D01*
X137361443Y-123478534D01*
X137412963Y-123648373D01*
X137430359Y-123825000D01*
X137412963Y-124001627D01*
X137361443Y-124171466D01*
X137277778Y-124327991D01*
X137268931Y-124338771D01*
X137165186Y-124465186D01*
X137063729Y-124548448D01*
X137027991Y-124577778D01*
X136871466Y-124661443D01*
X136701627Y-124712963D01*
X136635443Y-124719481D01*
X136569260Y-124726000D01*
X136480740Y-124726000D01*
X136414557Y-124719481D01*
X136348373Y-124712963D01*
X136178534Y-124661443D01*
X136022009Y-124577778D01*
X135986271Y-124548448D01*
X135884814Y-124465186D01*
X135781069Y-124338771D01*
X135772222Y-124327991D01*
X135688557Y-124171466D01*
X135637037Y-124001627D01*
X135619641Y-123825000D01*
X135637037Y-123648373D01*
X135688557Y-123478534D01*
X135772222Y-123322009D01*
X135817656Y-123266648D01*
X135884814Y-123184814D01*
X135986271Y-123101552D01*
X136022009Y-123072222D01*
X136178534Y-122988557D01*
X136348373Y-122937037D01*
X136414557Y-122930519D01*
X136480740Y-122924000D01*
X136569260Y-122924000D01*
X136635443Y-122930519D01*
X136635443Y-122930519D01*
G37*
G36*
X147568228Y-123006703D02*
G01*
X147723100Y-123070853D01*
X147862481Y-123163985D01*
X147981015Y-123282519D01*
X148074147Y-123421900D01*
X148138297Y-123576772D01*
X148171000Y-123741184D01*
X148171000Y-123908816D01*
X148138297Y-124073228D01*
X148074147Y-124228100D01*
X147981015Y-124367481D01*
X147862481Y-124486015D01*
X147723100Y-124579147D01*
X147568228Y-124643297D01*
X147403816Y-124676000D01*
X147236184Y-124676000D01*
X147071772Y-124643297D01*
X146916900Y-124579147D01*
X146777519Y-124486015D01*
X146658985Y-124367481D01*
X146565853Y-124228100D01*
X146501703Y-124073228D01*
X146469000Y-123908816D01*
X146469000Y-123741184D01*
X146501703Y-123576772D01*
X146565853Y-123421900D01*
X146658985Y-123282519D01*
X146777519Y-123163985D01*
X146916900Y-123070853D01*
X147071772Y-123006703D01*
X147236184Y-122974000D01*
X147403816Y-122974000D01*
X147568228Y-123006703D01*
X147568228Y-123006703D01*
G37*
G36*
X137376000Y-122361000D02*
G01*
X135674000Y-122361000D01*
X135674000Y-118759000D01*
X137376000Y-118759000D01*
X137376000Y-122361000D01*
X137376000Y-122361000D01*
G37*
G36*
X127140562Y-120525681D02*
G01*
X127175481Y-120536274D01*
X127207663Y-120553476D01*
X127235873Y-120576627D01*
X127259024Y-120604837D01*
X127276226Y-120637019D01*
X127286819Y-120671938D01*
X127291000Y-120714395D01*
X127291000Y-121855605D01*
X127286819Y-121898062D01*
X127276226Y-121932981D01*
X127259024Y-121965163D01*
X127235873Y-121993373D01*
X127207663Y-122016524D01*
X127175481Y-122033726D01*
X127140562Y-122044319D01*
X127098105Y-122048500D01*
X125631895Y-122048500D01*
X125589438Y-122044319D01*
X125554519Y-122033726D01*
X125522337Y-122016524D01*
X125494127Y-121993373D01*
X125470976Y-121965163D01*
X125453774Y-121932981D01*
X125443181Y-121898062D01*
X125439000Y-121855605D01*
X125439000Y-120714395D01*
X125443181Y-120671938D01*
X125453774Y-120637019D01*
X125470976Y-120604837D01*
X125494127Y-120576627D01*
X125522337Y-120553476D01*
X125554519Y-120536274D01*
X125589438Y-120525681D01*
X125631895Y-120521500D01*
X127098105Y-120521500D01*
X127140562Y-120525681D01*
X127140562Y-120525681D01*
G37*
G36*
X141110562Y-120525681D02*
G01*
X141145481Y-120536274D01*
X141177663Y-120553476D01*
X141205873Y-120576627D01*
X141229024Y-120604837D01*
X141246226Y-120637019D01*
X141256819Y-120671938D01*
X141261000Y-120714395D01*
X141261000Y-121855605D01*
X141256819Y-121898062D01*
X141246226Y-121932981D01*
X141229024Y-121965163D01*
X141205873Y-121993373D01*
X141177663Y-122016524D01*
X141145481Y-122033726D01*
X141110562Y-122044319D01*
X141068105Y-122048500D01*
X139601895Y-122048500D01*
X139559438Y-122044319D01*
X139524519Y-122033726D01*
X139492337Y-122016524D01*
X139464127Y-121993373D01*
X139440976Y-121965163D01*
X139423774Y-121932981D01*
X139413181Y-121898062D01*
X139409000Y-121855605D01*
X139409000Y-120714395D01*
X139413181Y-120671938D01*
X139423774Y-120637019D01*
X139440976Y-120604837D01*
X139464127Y-120576627D01*
X139492337Y-120553476D01*
X139524519Y-120536274D01*
X139559438Y-120525681D01*
X139601895Y-120521500D01*
X141068105Y-120521500D01*
X141110562Y-120525681D01*
X141110562Y-120525681D01*
G37*
G36*
X133490562Y-120525681D02*
G01*
X133525481Y-120536274D01*
X133557663Y-120553476D01*
X133585873Y-120576627D01*
X133609024Y-120604837D01*
X133626226Y-120637019D01*
X133636819Y-120671938D01*
X133641000Y-120714395D01*
X133641000Y-121855605D01*
X133636819Y-121898062D01*
X133626226Y-121932981D01*
X133609024Y-121965163D01*
X133585873Y-121993373D01*
X133557663Y-122016524D01*
X133525481Y-122033726D01*
X133490562Y-122044319D01*
X133448105Y-122048500D01*
X131981895Y-122048500D01*
X131939438Y-122044319D01*
X131904519Y-122033726D01*
X131872337Y-122016524D01*
X131844127Y-121993373D01*
X131820976Y-121965163D01*
X131803774Y-121932981D01*
X131793181Y-121898062D01*
X131789000Y-121855605D01*
X131789000Y-120714395D01*
X131793181Y-120671938D01*
X131803774Y-120637019D01*
X131820976Y-120604837D01*
X131844127Y-120576627D01*
X131872337Y-120553476D01*
X131904519Y-120536274D01*
X131939438Y-120525681D01*
X131981895Y-120521500D01*
X133448105Y-120521500D01*
X133490562Y-120525681D01*
X133490562Y-120525681D01*
G37*
G36*
X151270562Y-120525681D02*
G01*
X151305481Y-120536274D01*
X151337663Y-120553476D01*
X151365873Y-120576627D01*
X151389024Y-120604837D01*
X151406226Y-120637019D01*
X151416819Y-120671938D01*
X151421000Y-120714395D01*
X151421000Y-121855605D01*
X151416819Y-121898062D01*
X151406226Y-121932981D01*
X151389024Y-121965163D01*
X151365873Y-121993373D01*
X151337663Y-122016524D01*
X151305481Y-122033726D01*
X151270562Y-122044319D01*
X151228105Y-122048500D01*
X149761895Y-122048500D01*
X149719438Y-122044319D01*
X149684519Y-122033726D01*
X149652337Y-122016524D01*
X149624127Y-121993373D01*
X149600976Y-121965163D01*
X149583774Y-121932981D01*
X149573181Y-121898062D01*
X149569000Y-121855605D01*
X149569000Y-120714395D01*
X149573181Y-120671938D01*
X149583774Y-120637019D01*
X149600976Y-120604837D01*
X149624127Y-120576627D01*
X149652337Y-120553476D01*
X149684519Y-120536274D01*
X149719438Y-120525681D01*
X149761895Y-120521500D01*
X151228105Y-120521500D01*
X151270562Y-120525681D01*
X151270562Y-120525681D01*
G37*
G36*
X155080562Y-120525681D02*
G01*
X155115481Y-120536274D01*
X155147663Y-120553476D01*
X155175873Y-120576627D01*
X155199024Y-120604837D01*
X155216226Y-120637019D01*
X155226819Y-120671938D01*
X155231000Y-120714395D01*
X155231000Y-121855605D01*
X155226819Y-121898062D01*
X155216226Y-121932981D01*
X155199024Y-121965163D01*
X155175873Y-121993373D01*
X155147663Y-122016524D01*
X155115481Y-122033726D01*
X155080562Y-122044319D01*
X155038105Y-122048500D01*
X153571895Y-122048500D01*
X153529438Y-122044319D01*
X153494519Y-122033726D01*
X153462337Y-122016524D01*
X153434127Y-121993373D01*
X153410976Y-121965163D01*
X153393774Y-121932981D01*
X153383181Y-121898062D01*
X153379000Y-121855605D01*
X153379000Y-120714395D01*
X153383181Y-120671938D01*
X153393774Y-120637019D01*
X153410976Y-120604837D01*
X153434127Y-120576627D01*
X153462337Y-120553476D01*
X153494519Y-120536274D01*
X153529438Y-120525681D01*
X153571895Y-120521500D01*
X155038105Y-120521500D01*
X155080562Y-120525681D01*
X155080562Y-120525681D01*
G37*
G36*
X123330562Y-120525681D02*
G01*
X123365481Y-120536274D01*
X123397663Y-120553476D01*
X123425873Y-120576627D01*
X123449024Y-120604837D01*
X123466226Y-120637019D01*
X123476819Y-120671938D01*
X123481000Y-120714395D01*
X123481000Y-121855605D01*
X123476819Y-121898062D01*
X123466226Y-121932981D01*
X123449024Y-121965163D01*
X123425873Y-121993373D01*
X123397663Y-122016524D01*
X123365481Y-122033726D01*
X123330562Y-122044319D01*
X123288105Y-122048500D01*
X121821895Y-122048500D01*
X121779438Y-122044319D01*
X121744519Y-122033726D01*
X121712337Y-122016524D01*
X121684127Y-121993373D01*
X121660976Y-121965163D01*
X121643774Y-121932981D01*
X121633181Y-121898062D01*
X121629000Y-121855605D01*
X121629000Y-120714395D01*
X121633181Y-120671938D01*
X121643774Y-120637019D01*
X121660976Y-120604837D01*
X121684127Y-120576627D01*
X121712337Y-120553476D01*
X121744519Y-120536274D01*
X121779438Y-120525681D01*
X121821895Y-120521500D01*
X123288105Y-120521500D01*
X123330562Y-120525681D01*
X123330562Y-120525681D01*
G37*
G36*
X144920562Y-120525681D02*
G01*
X144955481Y-120536274D01*
X144987663Y-120553476D01*
X145015873Y-120576627D01*
X145039024Y-120604837D01*
X145056226Y-120637019D01*
X145066819Y-120671938D01*
X145071000Y-120714395D01*
X145071000Y-121855605D01*
X145066819Y-121898062D01*
X145056226Y-121932981D01*
X145039024Y-121965163D01*
X145015873Y-121993373D01*
X144987663Y-122016524D01*
X144955481Y-122033726D01*
X144920562Y-122044319D01*
X144878105Y-122048500D01*
X143411895Y-122048500D01*
X143369438Y-122044319D01*
X143334519Y-122033726D01*
X143302337Y-122016524D01*
X143274127Y-121993373D01*
X143250976Y-121965163D01*
X143233774Y-121932981D01*
X143223181Y-121898062D01*
X143219000Y-121855605D01*
X143219000Y-120714395D01*
X143223181Y-120671938D01*
X143233774Y-120637019D01*
X143250976Y-120604837D01*
X143274127Y-120576627D01*
X143302337Y-120553476D01*
X143334519Y-120536274D01*
X143369438Y-120525681D01*
X143411895Y-120521500D01*
X144878105Y-120521500D01*
X144920562Y-120525681D01*
X144920562Y-120525681D01*
G37*
G36*
X162097928Y-121063764D02*
G01*
X162119009Y-121070160D01*
X162138445Y-121080548D01*
X162155476Y-121094524D01*
X162169452Y-121111555D01*
X162179840Y-121130991D01*
X162186236Y-121152072D01*
X162189000Y-121180140D01*
X162189000Y-121643860D01*
X162186236Y-121671928D01*
X162179840Y-121693009D01*
X162169452Y-121712445D01*
X162155476Y-121729476D01*
X162138445Y-121743452D01*
X162119009Y-121753840D01*
X162097928Y-121760236D01*
X162069860Y-121763000D01*
X160256140Y-121763000D01*
X160228072Y-121760236D01*
X160206991Y-121753840D01*
X160187555Y-121743452D01*
X160170524Y-121729476D01*
X160156548Y-121712445D01*
X160146160Y-121693009D01*
X160139764Y-121671928D01*
X160137000Y-121643860D01*
X160137000Y-121180140D01*
X160139764Y-121152072D01*
X160146160Y-121130991D01*
X160156548Y-121111555D01*
X160170524Y-121094524D01*
X160187555Y-121080548D01*
X160206991Y-121070160D01*
X160228072Y-121063764D01*
X160256140Y-121061000D01*
X162069860Y-121061000D01*
X162097928Y-121063764D01*
X162097928Y-121063764D01*
G37*
G36*
X167047928Y-121063764D02*
G01*
X167069009Y-121070160D01*
X167088445Y-121080548D01*
X167105476Y-121094524D01*
X167119452Y-121111555D01*
X167129840Y-121130991D01*
X167136236Y-121152072D01*
X167139000Y-121180140D01*
X167139000Y-121643860D01*
X167136236Y-121671928D01*
X167129840Y-121693009D01*
X167119452Y-121712445D01*
X167105476Y-121729476D01*
X167088445Y-121743452D01*
X167069009Y-121753840D01*
X167047928Y-121760236D01*
X167019860Y-121763000D01*
X165206140Y-121763000D01*
X165178072Y-121760236D01*
X165156991Y-121753840D01*
X165137555Y-121743452D01*
X165120524Y-121729476D01*
X165106548Y-121712445D01*
X165096160Y-121693009D01*
X165089764Y-121671928D01*
X165087000Y-121643860D01*
X165087000Y-121180140D01*
X165089764Y-121152072D01*
X165096160Y-121130991D01*
X165106548Y-121111555D01*
X165120524Y-121094524D01*
X165137555Y-121080548D01*
X165156991Y-121070160D01*
X165178072Y-121063764D01*
X165206140Y-121061000D01*
X167019860Y-121061000D01*
X167047928Y-121063764D01*
X167047928Y-121063764D01*
G37*
G36*
X171194402Y-116300000D02*
G01*
X171209072Y-116302918D01*
X171454939Y-116404759D01*
X171566328Y-116479187D01*
X171676211Y-116552609D01*
X171864391Y-116740789D01*
X172012242Y-116962063D01*
X172114082Y-117207928D01*
X172166000Y-117468937D01*
X172166000Y-117735063D01*
X172140765Y-117861928D01*
X172114082Y-117996072D01*
X172012241Y-118241939D01*
X171937813Y-118353328D01*
X171864391Y-118463211D01*
X171676211Y-118651391D01*
X171501594Y-118768067D01*
X171482652Y-118783613D01*
X171467107Y-118802555D01*
X171455556Y-118824165D01*
X171448443Y-118847614D01*
X171446041Y-118872000D01*
X171448443Y-118896386D01*
X171455556Y-118919835D01*
X171467107Y-118941446D01*
X171482653Y-118960388D01*
X171501594Y-118975933D01*
X171676211Y-119092609D01*
X171864391Y-119280789D01*
X172012242Y-119502063D01*
X172114082Y-119747928D01*
X172166000Y-120008937D01*
X172166000Y-120275063D01*
X172114082Y-120536072D01*
X172070802Y-120640561D01*
X172012241Y-120781939D01*
X171864390Y-121003212D01*
X171676212Y-121191390D01*
X171454939Y-121339241D01*
X171454938Y-121339242D01*
X171454937Y-121339242D01*
X171209072Y-121441082D01*
X170948063Y-121493000D01*
X170681937Y-121493000D01*
X170420928Y-121441082D01*
X170175063Y-121339242D01*
X170175062Y-121339242D01*
X170175061Y-121339241D01*
X169953788Y-121191390D01*
X169765610Y-121003212D01*
X169617759Y-120781939D01*
X169559199Y-120640561D01*
X169515918Y-120536072D01*
X169464000Y-120275063D01*
X169464000Y-120008937D01*
X169515918Y-119747928D01*
X169617758Y-119502063D01*
X169765609Y-119280789D01*
X169953789Y-119092609D01*
X170128406Y-118975933D01*
X170147348Y-118960387D01*
X170162893Y-118941445D01*
X170174444Y-118919835D01*
X170181557Y-118896386D01*
X170183959Y-118872000D01*
X170181557Y-118847614D01*
X170174444Y-118824165D01*
X170162893Y-118802554D01*
X170147347Y-118783612D01*
X170128406Y-118768067D01*
X169953789Y-118651391D01*
X169765609Y-118463211D01*
X169692187Y-118353328D01*
X169617759Y-118241939D01*
X169515918Y-117996072D01*
X169489235Y-117861928D01*
X169464000Y-117735063D01*
X169464000Y-117468937D01*
X169515918Y-117207928D01*
X169617758Y-116962063D01*
X169765609Y-116740789D01*
X169953789Y-116552609D01*
X170063672Y-116479187D01*
X170175061Y-116404759D01*
X170420928Y-116302918D01*
X170435598Y-116300000D01*
X170681937Y-116251000D01*
X170948063Y-116251000D01*
X171194402Y-116300000D01*
X171194402Y-116300000D01*
G37*
G36*
X107488222Y-118995035D02*
G01*
X107671153Y-119031422D01*
X107709968Y-119047500D01*
X107893359Y-119123463D01*
X108093342Y-119257087D01*
X108263413Y-119427158D01*
X108397037Y-119627141D01*
X108450953Y-119757306D01*
X108489078Y-119849347D01*
X108536000Y-120085242D01*
X108536000Y-120325758D01*
X108489078Y-120561653D01*
X108471190Y-120604837D01*
X108397037Y-120783859D01*
X108263413Y-120983842D01*
X108093342Y-121153913D01*
X107893359Y-121287537D01*
X107768534Y-121339241D01*
X107671153Y-121379578D01*
X107553205Y-121403039D01*
X107435259Y-121426500D01*
X107194741Y-121426500D01*
X107076795Y-121403039D01*
X106958847Y-121379578D01*
X106861466Y-121339241D01*
X106736641Y-121287537D01*
X106536658Y-121153913D01*
X106366587Y-120983842D01*
X106232963Y-120783859D01*
X106158810Y-120604837D01*
X106140922Y-120561653D01*
X106094000Y-120325758D01*
X106094000Y-120085242D01*
X106140922Y-119849347D01*
X106179047Y-119757306D01*
X106232963Y-119627141D01*
X106366587Y-119427158D01*
X106536658Y-119257087D01*
X106736641Y-119123463D01*
X106920032Y-119047500D01*
X106958847Y-119031422D01*
X107141778Y-118995035D01*
X107194741Y-118984500D01*
X107435259Y-118984500D01*
X107488222Y-118995035D01*
X107488222Y-118995035D01*
G37*
G36*
X112488222Y-118995035D02*
G01*
X112671153Y-119031422D01*
X112709968Y-119047500D01*
X112893359Y-119123463D01*
X113093342Y-119257087D01*
X113263413Y-119427158D01*
X113397037Y-119627141D01*
X113450953Y-119757306D01*
X113489078Y-119849347D01*
X113536000Y-120085242D01*
X113536000Y-120325758D01*
X113489078Y-120561653D01*
X113471190Y-120604837D01*
X113397037Y-120783859D01*
X113263413Y-120983842D01*
X113093342Y-121153913D01*
X112893359Y-121287537D01*
X112768534Y-121339241D01*
X112671153Y-121379578D01*
X112553205Y-121403039D01*
X112435259Y-121426500D01*
X112194741Y-121426500D01*
X112076795Y-121403039D01*
X111958847Y-121379578D01*
X111861466Y-121339241D01*
X111736641Y-121287537D01*
X111536658Y-121153913D01*
X111366587Y-120983842D01*
X111232963Y-120783859D01*
X111158810Y-120604837D01*
X111140922Y-120561653D01*
X111094000Y-120325758D01*
X111094000Y-120085242D01*
X111140922Y-119849347D01*
X111179047Y-119757306D01*
X111232963Y-119627141D01*
X111366587Y-119427158D01*
X111536658Y-119257087D01*
X111736641Y-119123463D01*
X111920032Y-119047500D01*
X111958847Y-119031422D01*
X112141778Y-118995035D01*
X112194741Y-118984500D01*
X112435259Y-118984500D01*
X112488222Y-118995035D01*
X112488222Y-118995035D01*
G37*
G36*
X117488222Y-118995035D02*
G01*
X117671153Y-119031422D01*
X117709968Y-119047500D01*
X117893359Y-119123463D01*
X118093342Y-119257087D01*
X118263413Y-119427158D01*
X118397037Y-119627141D01*
X118450953Y-119757306D01*
X118489078Y-119849347D01*
X118536000Y-120085242D01*
X118536000Y-120325758D01*
X118489078Y-120561653D01*
X118471190Y-120604837D01*
X118397037Y-120783859D01*
X118263413Y-120983842D01*
X118093342Y-121153913D01*
X117893359Y-121287537D01*
X117768534Y-121339241D01*
X117671153Y-121379578D01*
X117553205Y-121403039D01*
X117435259Y-121426500D01*
X117194741Y-121426500D01*
X117076795Y-121403039D01*
X116958847Y-121379578D01*
X116861466Y-121339241D01*
X116736641Y-121287537D01*
X116536658Y-121153913D01*
X116366587Y-120983842D01*
X116232963Y-120783859D01*
X116158810Y-120604837D01*
X116140922Y-120561653D01*
X116094000Y-120325758D01*
X116094000Y-120085242D01*
X116140922Y-119849347D01*
X116179047Y-119757306D01*
X116232963Y-119627141D01*
X116366587Y-119427158D01*
X116536658Y-119257087D01*
X116736641Y-119123463D01*
X116920032Y-119047500D01*
X116958847Y-119031422D01*
X117141778Y-118995035D01*
X117194741Y-118984500D01*
X117435259Y-118984500D01*
X117488222Y-118995035D01*
X117488222Y-118995035D01*
G37*
G36*
X148221000Y-120916000D02*
G01*
X146419000Y-120916000D01*
X146419000Y-119114000D01*
X148221000Y-119114000D01*
X148221000Y-120916000D01*
X148221000Y-120916000D01*
G37*
G36*
X167047928Y-119793764D02*
G01*
X167069009Y-119800160D01*
X167088445Y-119810548D01*
X167105476Y-119824524D01*
X167119452Y-119841555D01*
X167129840Y-119860991D01*
X167136236Y-119882072D01*
X167139000Y-119910140D01*
X167139000Y-120373860D01*
X167136236Y-120401928D01*
X167129840Y-120423009D01*
X167119452Y-120442445D01*
X167105476Y-120459476D01*
X167088445Y-120473452D01*
X167069009Y-120483840D01*
X167047928Y-120490236D01*
X167019860Y-120493000D01*
X165206140Y-120493000D01*
X165178072Y-120490236D01*
X165156991Y-120483840D01*
X165137555Y-120473452D01*
X165120524Y-120459476D01*
X165106548Y-120442445D01*
X165096160Y-120423009D01*
X165089764Y-120401928D01*
X165087000Y-120373860D01*
X165087000Y-119910140D01*
X165089764Y-119882072D01*
X165096160Y-119860991D01*
X165106548Y-119841555D01*
X165120524Y-119824524D01*
X165137555Y-119810548D01*
X165156991Y-119800160D01*
X165178072Y-119793764D01*
X165206140Y-119791000D01*
X167019860Y-119791000D01*
X167047928Y-119793764D01*
X167047928Y-119793764D01*
G37*
G36*
X162097928Y-119793764D02*
G01*
X162119009Y-119800160D01*
X162138445Y-119810548D01*
X162155476Y-119824524D01*
X162169452Y-119841555D01*
X162179840Y-119860991D01*
X162186236Y-119882072D01*
X162189000Y-119910140D01*
X162189000Y-120373860D01*
X162186236Y-120401928D01*
X162179840Y-120423009D01*
X162169452Y-120442445D01*
X162155476Y-120459476D01*
X162138445Y-120473452D01*
X162119009Y-120483840D01*
X162097928Y-120490236D01*
X162069860Y-120493000D01*
X160256140Y-120493000D01*
X160228072Y-120490236D01*
X160206991Y-120483840D01*
X160187555Y-120473452D01*
X160170524Y-120459476D01*
X160156548Y-120442445D01*
X160146160Y-120423009D01*
X160139764Y-120401928D01*
X160137000Y-120373860D01*
X160137000Y-119910140D01*
X160139764Y-119882072D01*
X160146160Y-119860991D01*
X160156548Y-119841555D01*
X160170524Y-119824524D01*
X160187555Y-119810548D01*
X160206991Y-119800160D01*
X160228072Y-119793764D01*
X160256140Y-119791000D01*
X162069860Y-119791000D01*
X162097928Y-119793764D01*
X162097928Y-119793764D01*
G37*
G36*
X167047928Y-118523764D02*
G01*
X167069009Y-118530160D01*
X167088445Y-118540548D01*
X167105476Y-118554524D01*
X167119452Y-118571555D01*
X167129840Y-118590991D01*
X167136236Y-118612072D01*
X167139000Y-118640140D01*
X167139000Y-119103860D01*
X167136236Y-119131928D01*
X167129840Y-119153009D01*
X167119452Y-119172445D01*
X167105476Y-119189476D01*
X167088445Y-119203452D01*
X167069009Y-119213840D01*
X167047928Y-119220236D01*
X167019860Y-119223000D01*
X165206140Y-119223000D01*
X165178072Y-119220236D01*
X165156991Y-119213840D01*
X165137555Y-119203452D01*
X165120524Y-119189476D01*
X165106548Y-119172445D01*
X165096160Y-119153009D01*
X165089764Y-119131928D01*
X165087000Y-119103860D01*
X165087000Y-118640140D01*
X165089764Y-118612072D01*
X165096160Y-118590991D01*
X165106548Y-118571555D01*
X165120524Y-118554524D01*
X165137555Y-118540548D01*
X165156991Y-118530160D01*
X165178072Y-118523764D01*
X165206140Y-118521000D01*
X167019860Y-118521000D01*
X167047928Y-118523764D01*
X167047928Y-118523764D01*
G37*
G36*
X162097928Y-118523764D02*
G01*
X162119009Y-118530160D01*
X162138445Y-118540548D01*
X162155476Y-118554524D01*
X162169452Y-118571555D01*
X162179840Y-118590991D01*
X162186236Y-118612072D01*
X162189000Y-118640140D01*
X162189000Y-119103860D01*
X162186236Y-119131928D01*
X162179840Y-119153009D01*
X162169452Y-119172445D01*
X162155476Y-119189476D01*
X162138445Y-119203452D01*
X162119009Y-119213840D01*
X162097928Y-119220236D01*
X162069860Y-119223000D01*
X160256140Y-119223000D01*
X160228072Y-119220236D01*
X160206991Y-119213840D01*
X160187555Y-119203452D01*
X160170524Y-119189476D01*
X160156548Y-119172445D01*
X160146160Y-119153009D01*
X160139764Y-119131928D01*
X160137000Y-119103860D01*
X160137000Y-118640140D01*
X160139764Y-118612072D01*
X160146160Y-118590991D01*
X160156548Y-118571555D01*
X160170524Y-118554524D01*
X160187555Y-118540548D01*
X160206991Y-118530160D01*
X160228072Y-118523764D01*
X160256140Y-118521000D01*
X162069860Y-118521000D01*
X162097928Y-118523764D01*
X162097928Y-118523764D01*
G37*
G36*
X133490562Y-117550681D02*
G01*
X133525481Y-117561274D01*
X133557663Y-117578476D01*
X133585873Y-117601627D01*
X133609024Y-117629837D01*
X133626226Y-117662019D01*
X133636819Y-117696938D01*
X133641000Y-117739395D01*
X133641000Y-118880605D01*
X133636819Y-118923062D01*
X133626226Y-118957981D01*
X133609024Y-118990163D01*
X133585873Y-119018373D01*
X133557663Y-119041524D01*
X133525481Y-119058726D01*
X133490562Y-119069319D01*
X133448105Y-119073500D01*
X131981895Y-119073500D01*
X131939438Y-119069319D01*
X131904519Y-119058726D01*
X131872337Y-119041524D01*
X131844127Y-119018373D01*
X131820976Y-118990163D01*
X131803774Y-118957981D01*
X131793181Y-118923062D01*
X131789000Y-118880605D01*
X131789000Y-117739395D01*
X131793181Y-117696938D01*
X131803774Y-117662019D01*
X131820976Y-117629837D01*
X131844127Y-117601627D01*
X131872337Y-117578476D01*
X131904519Y-117561274D01*
X131939438Y-117550681D01*
X131981895Y-117546500D01*
X133448105Y-117546500D01*
X133490562Y-117550681D01*
X133490562Y-117550681D01*
G37*
G36*
X151270562Y-117550681D02*
G01*
X151305481Y-117561274D01*
X151337663Y-117578476D01*
X151365873Y-117601627D01*
X151389024Y-117629837D01*
X151406226Y-117662019D01*
X151416819Y-117696938D01*
X151421000Y-117739395D01*
X151421000Y-118880605D01*
X151416819Y-118923062D01*
X151406226Y-118957981D01*
X151389024Y-118990163D01*
X151365873Y-119018373D01*
X151337663Y-119041524D01*
X151305481Y-119058726D01*
X151270562Y-119069319D01*
X151228105Y-119073500D01*
X149761895Y-119073500D01*
X149719438Y-119069319D01*
X149684519Y-119058726D01*
X149652337Y-119041524D01*
X149624127Y-119018373D01*
X149600976Y-118990163D01*
X149583774Y-118957981D01*
X149573181Y-118923062D01*
X149569000Y-118880605D01*
X149569000Y-117739395D01*
X149573181Y-117696938D01*
X149583774Y-117662019D01*
X149600976Y-117629837D01*
X149624127Y-117601627D01*
X149652337Y-117578476D01*
X149684519Y-117561274D01*
X149719438Y-117550681D01*
X149761895Y-117546500D01*
X151228105Y-117546500D01*
X151270562Y-117550681D01*
X151270562Y-117550681D01*
G37*
G36*
X127140562Y-117550681D02*
G01*
X127175481Y-117561274D01*
X127207663Y-117578476D01*
X127235873Y-117601627D01*
X127259024Y-117629837D01*
X127276226Y-117662019D01*
X127286819Y-117696938D01*
X127291000Y-117739395D01*
X127291000Y-118880605D01*
X127286819Y-118923062D01*
X127276226Y-118957981D01*
X127259024Y-118990163D01*
X127235873Y-119018373D01*
X127207663Y-119041524D01*
X127175481Y-119058726D01*
X127140562Y-119069319D01*
X127098105Y-119073500D01*
X125631895Y-119073500D01*
X125589438Y-119069319D01*
X125554519Y-119058726D01*
X125522337Y-119041524D01*
X125494127Y-119018373D01*
X125470976Y-118990163D01*
X125453774Y-118957981D01*
X125443181Y-118923062D01*
X125439000Y-118880605D01*
X125439000Y-117739395D01*
X125443181Y-117696938D01*
X125453774Y-117662019D01*
X125470976Y-117629837D01*
X125494127Y-117601627D01*
X125522337Y-117578476D01*
X125554519Y-117561274D01*
X125589438Y-117550681D01*
X125631895Y-117546500D01*
X127098105Y-117546500D01*
X127140562Y-117550681D01*
X127140562Y-117550681D01*
G37*
G36*
X141110562Y-117550681D02*
G01*
X141145481Y-117561274D01*
X141177663Y-117578476D01*
X141205873Y-117601627D01*
X141229024Y-117629837D01*
X141246226Y-117662019D01*
X141256819Y-117696938D01*
X141261000Y-117739395D01*
X141261000Y-118880605D01*
X141256819Y-118923062D01*
X141246226Y-118957981D01*
X141229024Y-118990163D01*
X141205873Y-119018373D01*
X141177663Y-119041524D01*
X141145481Y-119058726D01*
X141110562Y-119069319D01*
X141068105Y-119073500D01*
X139601895Y-119073500D01*
X139559438Y-119069319D01*
X139524519Y-119058726D01*
X139492337Y-119041524D01*
X139464127Y-119018373D01*
X139440976Y-118990163D01*
X139423774Y-118957981D01*
X139413181Y-118923062D01*
X139409000Y-118880605D01*
X139409000Y-117739395D01*
X139413181Y-117696938D01*
X139423774Y-117662019D01*
X139440976Y-117629837D01*
X139464127Y-117601627D01*
X139492337Y-117578476D01*
X139524519Y-117561274D01*
X139559438Y-117550681D01*
X139601895Y-117546500D01*
X141068105Y-117546500D01*
X141110562Y-117550681D01*
X141110562Y-117550681D01*
G37*
G36*
X144920562Y-117550681D02*
G01*
X144955481Y-117561274D01*
X144987663Y-117578476D01*
X145015873Y-117601627D01*
X145039024Y-117629837D01*
X145056226Y-117662019D01*
X145066819Y-117696938D01*
X145071000Y-117739395D01*
X145071000Y-118880605D01*
X145066819Y-118923062D01*
X145056226Y-118957981D01*
X145039024Y-118990163D01*
X145015873Y-119018373D01*
X144987663Y-119041524D01*
X144955481Y-119058726D01*
X144920562Y-119069319D01*
X144878105Y-119073500D01*
X143411895Y-119073500D01*
X143369438Y-119069319D01*
X143334519Y-119058726D01*
X143302337Y-119041524D01*
X143274127Y-119018373D01*
X143250976Y-118990163D01*
X143233774Y-118957981D01*
X143223181Y-118923062D01*
X143219000Y-118880605D01*
X143219000Y-117739395D01*
X143223181Y-117696938D01*
X143233774Y-117662019D01*
X143250976Y-117629837D01*
X143274127Y-117601627D01*
X143302337Y-117578476D01*
X143334519Y-117561274D01*
X143369438Y-117550681D01*
X143411895Y-117546500D01*
X144878105Y-117546500D01*
X144920562Y-117550681D01*
X144920562Y-117550681D01*
G37*
G36*
X123330562Y-117550681D02*
G01*
X123365481Y-117561274D01*
X123397663Y-117578476D01*
X123425873Y-117601627D01*
X123449024Y-117629837D01*
X123466226Y-117662019D01*
X123476819Y-117696938D01*
X123481000Y-117739395D01*
X123481000Y-118880605D01*
X123476819Y-118923062D01*
X123466226Y-118957981D01*
X123449024Y-118990163D01*
X123425873Y-119018373D01*
X123397663Y-119041524D01*
X123365481Y-119058726D01*
X123330562Y-119069319D01*
X123288105Y-119073500D01*
X121821895Y-119073500D01*
X121779438Y-119069319D01*
X121744519Y-119058726D01*
X121712337Y-119041524D01*
X121684127Y-119018373D01*
X121660976Y-118990163D01*
X121643774Y-118957981D01*
X121633181Y-118923062D01*
X121629000Y-118880605D01*
X121629000Y-117739395D01*
X121633181Y-117696938D01*
X121643774Y-117662019D01*
X121660976Y-117629837D01*
X121684127Y-117601627D01*
X121712337Y-117578476D01*
X121744519Y-117561274D01*
X121779438Y-117550681D01*
X121821895Y-117546500D01*
X123288105Y-117546500D01*
X123330562Y-117550681D01*
X123330562Y-117550681D01*
G37*
G36*
X155080562Y-117550681D02*
G01*
X155115481Y-117561274D01*
X155147663Y-117578476D01*
X155175873Y-117601627D01*
X155199024Y-117629837D01*
X155216226Y-117662019D01*
X155226819Y-117696938D01*
X155231000Y-117739395D01*
X155231000Y-118880605D01*
X155226819Y-118923062D01*
X155216226Y-118957981D01*
X155199024Y-118990163D01*
X155175873Y-119018373D01*
X155147663Y-119041524D01*
X155115481Y-119058726D01*
X155080562Y-119069319D01*
X155038105Y-119073500D01*
X153571895Y-119073500D01*
X153529438Y-119069319D01*
X153494519Y-119058726D01*
X153462337Y-119041524D01*
X153434127Y-119018373D01*
X153410976Y-118990163D01*
X153393774Y-118957981D01*
X153383181Y-118923062D01*
X153379000Y-118880605D01*
X153379000Y-117739395D01*
X153383181Y-117696938D01*
X153393774Y-117662019D01*
X153410976Y-117629837D01*
X153434127Y-117601627D01*
X153462337Y-117578476D01*
X153494519Y-117561274D01*
X153529438Y-117550681D01*
X153571895Y-117546500D01*
X155038105Y-117546500D01*
X155080562Y-117550681D01*
X155080562Y-117550681D01*
G37*
G36*
X147430443Y-116580519D02*
G01*
X147496627Y-116587037D01*
X147666466Y-116638557D01*
X147822991Y-116722222D01*
X147845615Y-116740789D01*
X147960186Y-116834814D01*
X148043448Y-116936271D01*
X148072778Y-116972009D01*
X148156443Y-117128534D01*
X148207963Y-117298373D01*
X148225359Y-117475000D01*
X148207963Y-117651627D01*
X148156443Y-117821466D01*
X148072778Y-117977991D01*
X148057939Y-117996072D01*
X147960186Y-118115186D01*
X147858729Y-118198448D01*
X147822991Y-118227778D01*
X147666466Y-118311443D01*
X147496627Y-118362963D01*
X147430442Y-118369482D01*
X147364260Y-118376000D01*
X147275740Y-118376000D01*
X147209558Y-118369482D01*
X147143373Y-118362963D01*
X146973534Y-118311443D01*
X146817009Y-118227778D01*
X146781271Y-118198448D01*
X146679814Y-118115186D01*
X146582061Y-117996072D01*
X146567222Y-117977991D01*
X146483557Y-117821466D01*
X146432037Y-117651627D01*
X146414641Y-117475000D01*
X146432037Y-117298373D01*
X146483557Y-117128534D01*
X146567222Y-116972009D01*
X146596552Y-116936271D01*
X146679814Y-116834814D01*
X146794385Y-116740789D01*
X146817009Y-116722222D01*
X146973534Y-116638557D01*
X147143373Y-116587037D01*
X147209557Y-116580519D01*
X147275740Y-116574000D01*
X147364260Y-116574000D01*
X147430443Y-116580519D01*
X147430443Y-116580519D01*
G37*
G36*
X162097928Y-117253764D02*
G01*
X162119009Y-117260160D01*
X162138445Y-117270548D01*
X162155476Y-117284524D01*
X162169452Y-117301555D01*
X162179840Y-117320991D01*
X162186236Y-117342072D01*
X162189000Y-117370140D01*
X162189000Y-117833860D01*
X162186236Y-117861928D01*
X162179840Y-117883009D01*
X162169452Y-117902445D01*
X162155476Y-117919476D01*
X162138445Y-117933452D01*
X162119009Y-117943840D01*
X162097928Y-117950236D01*
X162069860Y-117953000D01*
X160256140Y-117953000D01*
X160228072Y-117950236D01*
X160206991Y-117943840D01*
X160187555Y-117933452D01*
X160170524Y-117919476D01*
X160156548Y-117902445D01*
X160146160Y-117883009D01*
X160139764Y-117861928D01*
X160137000Y-117833860D01*
X160137000Y-117370140D01*
X160139764Y-117342072D01*
X160146160Y-117320991D01*
X160156548Y-117301555D01*
X160170524Y-117284524D01*
X160187555Y-117270548D01*
X160206991Y-117260160D01*
X160228072Y-117253764D01*
X160256140Y-117251000D01*
X162069860Y-117251000D01*
X162097928Y-117253764D01*
X162097928Y-117253764D01*
G37*
G36*
X167047928Y-117253764D02*
G01*
X167069009Y-117260160D01*
X167088445Y-117270548D01*
X167105476Y-117284524D01*
X167119452Y-117301555D01*
X167129840Y-117320991D01*
X167136236Y-117342072D01*
X167139000Y-117370140D01*
X167139000Y-117833860D01*
X167136236Y-117861928D01*
X167129840Y-117883009D01*
X167119452Y-117902445D01*
X167105476Y-117919476D01*
X167088445Y-117933452D01*
X167069009Y-117943840D01*
X167047928Y-117950236D01*
X167019860Y-117953000D01*
X165206140Y-117953000D01*
X165178072Y-117950236D01*
X165156991Y-117943840D01*
X165137555Y-117933452D01*
X165120524Y-117919476D01*
X165106548Y-117902445D01*
X165096160Y-117883009D01*
X165089764Y-117861928D01*
X165087000Y-117833860D01*
X165087000Y-117370140D01*
X165089764Y-117342072D01*
X165096160Y-117320991D01*
X165106548Y-117301555D01*
X165120524Y-117284524D01*
X165137555Y-117270548D01*
X165156991Y-117260160D01*
X165178072Y-117253764D01*
X165206140Y-117251000D01*
X167019860Y-117251000D01*
X167047928Y-117253764D01*
X167047928Y-117253764D01*
G37*
G36*
X119756500Y-117602000D02*
G01*
X116454500Y-117602000D01*
X116454500Y-116300000D01*
X119756500Y-116300000D01*
X119756500Y-117602000D01*
X119756500Y-117602000D01*
G37*
G36*
X136176000Y-116961000D02*
G01*
X134874000Y-116961000D01*
X134874000Y-113659000D01*
X136176000Y-113659000D01*
X136176000Y-116961000D01*
X136176000Y-116961000D01*
G37*
G36*
X138176000Y-116961000D02*
G01*
X136874000Y-116961000D01*
X136874000Y-113659000D01*
X138176000Y-113659000D01*
X138176000Y-116961000D01*
X138176000Y-116961000D01*
G37*
G36*
X114656500Y-116802000D02*
G01*
X111054500Y-116802000D01*
X111054500Y-115100000D01*
X114656500Y-115100000D01*
X114656500Y-116802000D01*
X114656500Y-116802000D01*
G37*
G36*
X129788228Y-114116703D02*
G01*
X129943100Y-114180853D01*
X130082481Y-114273985D01*
X130201015Y-114392519D01*
X130294147Y-114531900D01*
X130358297Y-114686772D01*
X130391000Y-114851184D01*
X130391000Y-115018816D01*
X130358297Y-115183228D01*
X130294147Y-115338100D01*
X130201015Y-115477481D01*
X130082481Y-115596015D01*
X129943100Y-115689147D01*
X129788228Y-115753297D01*
X129623816Y-115786000D01*
X129456184Y-115786000D01*
X129291772Y-115753297D01*
X129136900Y-115689147D01*
X128997519Y-115596015D01*
X128878985Y-115477481D01*
X128785853Y-115338100D01*
X128721703Y-115183228D01*
X128689000Y-115018816D01*
X128689000Y-114851184D01*
X128721703Y-114686772D01*
X128785853Y-114531900D01*
X128878985Y-114392519D01*
X128997519Y-114273985D01*
X129136900Y-114180853D01*
X129291772Y-114116703D01*
X129456184Y-114084000D01*
X129623816Y-114084000D01*
X129788228Y-114116703D01*
X129788228Y-114116703D01*
G37*
G36*
X154172228Y-113989703D02*
G01*
X154327100Y-114053853D01*
X154466481Y-114146985D01*
X154585015Y-114265519D01*
X154678147Y-114404900D01*
X154742297Y-114559772D01*
X154775000Y-114724184D01*
X154775000Y-114891816D01*
X154742297Y-115056228D01*
X154678147Y-115211100D01*
X154585015Y-115350481D01*
X154466481Y-115469015D01*
X154327100Y-115562147D01*
X154172228Y-115626297D01*
X154007816Y-115659000D01*
X153840184Y-115659000D01*
X153675772Y-115626297D01*
X153520900Y-115562147D01*
X153381519Y-115469015D01*
X153262985Y-115350481D01*
X153169853Y-115211100D01*
X153105703Y-115056228D01*
X153073000Y-114891816D01*
X153073000Y-114724184D01*
X153105703Y-114559772D01*
X153169853Y-114404900D01*
X153262985Y-114265519D01*
X153381519Y-114146985D01*
X153520900Y-114053853D01*
X153675772Y-113989703D01*
X153840184Y-113957000D01*
X154007816Y-113957000D01*
X154172228Y-113989703D01*
X154172228Y-113989703D01*
G37*
G36*
X151672228Y-113989703D02*
G01*
X151827100Y-114053853D01*
X151966481Y-114146985D01*
X152085015Y-114265519D01*
X152178147Y-114404900D01*
X152242297Y-114559772D01*
X152275000Y-114724184D01*
X152275000Y-114891816D01*
X152242297Y-115056228D01*
X152178147Y-115211100D01*
X152085015Y-115350481D01*
X151966481Y-115469015D01*
X151827100Y-115562147D01*
X151672228Y-115626297D01*
X151507816Y-115659000D01*
X151340184Y-115659000D01*
X151175772Y-115626297D01*
X151020900Y-115562147D01*
X150881519Y-115469015D01*
X150762985Y-115350481D01*
X150669853Y-115211100D01*
X150605703Y-115056228D01*
X150573000Y-114891816D01*
X150573000Y-114724184D01*
X150605703Y-114559772D01*
X150669853Y-114404900D01*
X150762985Y-114265519D01*
X150881519Y-114146985D01*
X151020900Y-114053853D01*
X151175772Y-113989703D01*
X151340184Y-113957000D01*
X151507816Y-113957000D01*
X151672228Y-113989703D01*
X151672228Y-113989703D01*
G37*
G36*
X119756500Y-115602000D02*
G01*
X116454500Y-115602000D01*
X116454500Y-114300000D01*
X119756500Y-114300000D01*
X119756500Y-115602000D01*
X119756500Y-115602000D01*
G37*
G36*
X145521642Y-113529781D02*
G01*
X145667414Y-113590162D01*
X145667416Y-113590163D01*
X145798608Y-113677822D01*
X145910178Y-113789392D01*
X145997837Y-113920584D01*
X145997838Y-113920586D01*
X146058219Y-114066358D01*
X146089000Y-114221107D01*
X146089000Y-114378893D01*
X146058219Y-114533642D01*
X145997838Y-114679414D01*
X145997837Y-114679416D01*
X145910178Y-114810608D01*
X145798608Y-114922178D01*
X145667416Y-115009837D01*
X145667415Y-115009838D01*
X145667414Y-115009838D01*
X145521642Y-115070219D01*
X145366893Y-115101000D01*
X145209107Y-115101000D01*
X145054358Y-115070219D01*
X144908586Y-115009838D01*
X144908585Y-115009838D01*
X144908584Y-115009837D01*
X144777392Y-114922178D01*
X144665822Y-114810608D01*
X144578163Y-114679416D01*
X144578162Y-114679414D01*
X144517781Y-114533642D01*
X144487000Y-114378893D01*
X144487000Y-114221107D01*
X144517781Y-114066358D01*
X144578162Y-113920586D01*
X144578163Y-113920584D01*
X144665822Y-113789392D01*
X144777392Y-113677822D01*
X144908584Y-113590163D01*
X144908586Y-113590162D01*
X145054358Y-113529781D01*
X145209107Y-113499000D01*
X145366893Y-113499000D01*
X145521642Y-113529781D01*
X145521642Y-113529781D01*
G37*
G36*
X168005573Y-101923233D02*
G01*
X169014151Y-102341000D01*
X169026029Y-102345920D01*
X169041456Y-102356228D01*
X169944413Y-102959564D01*
X170725436Y-103740587D01*
X171045029Y-104218893D01*
X171336997Y-104655853D01*
X171339081Y-104658973D01*
X171761767Y-105679427D01*
X171977250Y-106762733D01*
X171977250Y-107867267D01*
X171761767Y-108950573D01*
X171339081Y-109971027D01*
X170725436Y-110889413D01*
X169944413Y-111670436D01*
X169257183Y-112129628D01*
X169026029Y-112284080D01*
X169026028Y-112284081D01*
X169026027Y-112284081D01*
X168005573Y-112706767D01*
X166922267Y-112922250D01*
X165817733Y-112922250D01*
X164734427Y-112706767D01*
X163713973Y-112284081D01*
X163713972Y-112284081D01*
X163713971Y-112284080D01*
X163482817Y-112129628D01*
X162795587Y-111670436D01*
X162014564Y-110889413D01*
X161400919Y-109971027D01*
X160978233Y-108950573D01*
X160762750Y-107867267D01*
X160762750Y-106762733D01*
X160978233Y-105679427D01*
X161400919Y-104658973D01*
X161403004Y-104655853D01*
X161694971Y-104218893D01*
X162014564Y-103740587D01*
X162795587Y-102959564D01*
X163698544Y-102356228D01*
X163713971Y-102345920D01*
X163725849Y-102341000D01*
X164734427Y-101923233D01*
X165817733Y-101707750D01*
X166922267Y-101707750D01*
X168005573Y-101923233D01*
X168005573Y-101923233D01*
G37*
G36*
X117707062Y-110838181D02*
G01*
X117741981Y-110848774D01*
X117774163Y-110865976D01*
X117802373Y-110889127D01*
X117825524Y-110917337D01*
X117842726Y-110949519D01*
X117853319Y-110984438D01*
X117857500Y-111026895D01*
X117857500Y-112493105D01*
X117853319Y-112535562D01*
X117842726Y-112570481D01*
X117825524Y-112602663D01*
X117802373Y-112630873D01*
X117774163Y-112654024D01*
X117741981Y-112671226D01*
X117707062Y-112681819D01*
X117664605Y-112686000D01*
X116523395Y-112686000D01*
X116480938Y-112681819D01*
X116446019Y-112671226D01*
X116413837Y-112654024D01*
X116385627Y-112630873D01*
X116362476Y-112602663D01*
X116345274Y-112570481D01*
X116334681Y-112535562D01*
X116330500Y-112493105D01*
X116330500Y-111026895D01*
X116334681Y-110984438D01*
X116345274Y-110949519D01*
X116362476Y-110917337D01*
X116385627Y-110889127D01*
X116413837Y-110865976D01*
X116446019Y-110848774D01*
X116480938Y-110838181D01*
X116523395Y-110834000D01*
X117664605Y-110834000D01*
X117707062Y-110838181D01*
X117707062Y-110838181D01*
G37*
G36*
X114732062Y-110838181D02*
G01*
X114766981Y-110848774D01*
X114799163Y-110865976D01*
X114827373Y-110889127D01*
X114850524Y-110917337D01*
X114867726Y-110949519D01*
X114878319Y-110984438D01*
X114882500Y-111026895D01*
X114882500Y-112493105D01*
X114878319Y-112535562D01*
X114867726Y-112570481D01*
X114850524Y-112602663D01*
X114827373Y-112630873D01*
X114799163Y-112654024D01*
X114766981Y-112671226D01*
X114732062Y-112681819D01*
X114689605Y-112686000D01*
X113548395Y-112686000D01*
X113505938Y-112681819D01*
X113471019Y-112671226D01*
X113438837Y-112654024D01*
X113410627Y-112630873D01*
X113387476Y-112602663D01*
X113370274Y-112570481D01*
X113359681Y-112535562D01*
X113355500Y-112493105D01*
X113355500Y-111026895D01*
X113359681Y-110984438D01*
X113370274Y-110949519D01*
X113387476Y-110917337D01*
X113410627Y-110889127D01*
X113438837Y-110865976D01*
X113471019Y-110848774D01*
X113505938Y-110838181D01*
X113548395Y-110834000D01*
X114689605Y-110834000D01*
X114732062Y-110838181D01*
X114732062Y-110838181D01*
G37*
G36*
X147807642Y-110227781D02*
G01*
X147953414Y-110288162D01*
X147953416Y-110288163D01*
X148084608Y-110375822D01*
X148196178Y-110487392D01*
X148260505Y-110583665D01*
X148283838Y-110618586D01*
X148344219Y-110764358D01*
X148375000Y-110919107D01*
X148375000Y-111076893D01*
X148344219Y-111231642D01*
X148302332Y-111332765D01*
X148283837Y-111377416D01*
X148196178Y-111508608D01*
X148084608Y-111620178D01*
X147953416Y-111707837D01*
X147953415Y-111707838D01*
X147953414Y-111707838D01*
X147807642Y-111768219D01*
X147652893Y-111799000D01*
X147495107Y-111799000D01*
X147340358Y-111768219D01*
X147194586Y-111707838D01*
X147194585Y-111707838D01*
X147194584Y-111707837D01*
X147063392Y-111620178D01*
X146951822Y-111508608D01*
X146864163Y-111377416D01*
X146845668Y-111332765D01*
X146803781Y-111231642D01*
X146773000Y-111076893D01*
X146773000Y-110919107D01*
X146803781Y-110764358D01*
X146864162Y-110618586D01*
X146887495Y-110583665D01*
X146951822Y-110487392D01*
X147063392Y-110375822D01*
X147194584Y-110288163D01*
X147194586Y-110288162D01*
X147340358Y-110227781D01*
X147495107Y-110197000D01*
X147652893Y-110197000D01*
X147807642Y-110227781D01*
X147807642Y-110227781D01*
G37*
G36*
X104417395Y-109575546D02*
G01*
X104590466Y-109647234D01*
X104652973Y-109689000D01*
X104746227Y-109751310D01*
X104878690Y-109883773D01*
X104878691Y-109883775D01*
X104982766Y-110039534D01*
X105054454Y-110212605D01*
X105091000Y-110396333D01*
X105091000Y-110583667D01*
X105054454Y-110767395D01*
X104982766Y-110940466D01*
X104941474Y-111002263D01*
X104878690Y-111096227D01*
X104746227Y-111228690D01*
X104667818Y-111281081D01*
X104590466Y-111332766D01*
X104417395Y-111404454D01*
X104233667Y-111441000D01*
X104046333Y-111441000D01*
X103862605Y-111404454D01*
X103689534Y-111332766D01*
X103612182Y-111281081D01*
X103533773Y-111228690D01*
X103401310Y-111096227D01*
X103338526Y-111002263D01*
X103297234Y-110940466D01*
X103225546Y-110767395D01*
X103189000Y-110583667D01*
X103189000Y-110396333D01*
X103225546Y-110212605D01*
X103297234Y-110039534D01*
X103401309Y-109883775D01*
X103401310Y-109883773D01*
X103533773Y-109751310D01*
X103627027Y-109689000D01*
X103689534Y-109647234D01*
X103862605Y-109575546D01*
X104046333Y-109539000D01*
X104233667Y-109539000D01*
X104417395Y-109575546D01*
X104417395Y-109575546D01*
G37*
G36*
X102551000Y-111441000D02*
G01*
X100649000Y-111441000D01*
X100649000Y-109539000D01*
X102551000Y-109539000D01*
X102551000Y-111441000D01*
X102551000Y-111441000D01*
G37*
G36*
X111364915Y-109697334D02*
G01*
X111473491Y-109730271D01*
X111473494Y-109730272D01*
X111509600Y-109749571D01*
X111573556Y-109783756D01*
X111661264Y-109855736D01*
X111733244Y-109943443D01*
X111767429Y-110007399D01*
X111786728Y-110043505D01*
X111786729Y-110043508D01*
X111819666Y-110152084D01*
X111828000Y-110236702D01*
X111828000Y-110743297D01*
X111819666Y-110827916D01*
X111787252Y-110934767D01*
X111786728Y-110936495D01*
X111779766Y-110949519D01*
X111733244Y-111036557D01*
X111661264Y-111124264D01*
X111573557Y-111196244D01*
X111512854Y-111228690D01*
X111473495Y-111249728D01*
X111473492Y-111249729D01*
X111364916Y-111282666D01*
X111252000Y-111293787D01*
X111139085Y-111282666D01*
X111030509Y-111249729D01*
X111030506Y-111249728D01*
X110991147Y-111228690D01*
X110930444Y-111196244D01*
X110842737Y-111124264D01*
X110770757Y-111036557D01*
X110727239Y-110955141D01*
X110713625Y-110934766D01*
X110696298Y-110917439D01*
X110675924Y-110903826D01*
X110653285Y-110894448D01*
X110629252Y-110889668D01*
X110604748Y-110889668D01*
X110580715Y-110894448D01*
X110558076Y-110903826D01*
X110537701Y-110917440D01*
X110520374Y-110934767D01*
X110506761Y-110955141D01*
X110463244Y-111036557D01*
X110391264Y-111124264D01*
X110303557Y-111196244D01*
X110242854Y-111228690D01*
X110203495Y-111249728D01*
X110203492Y-111249729D01*
X110094916Y-111282666D01*
X109982000Y-111293787D01*
X109869085Y-111282666D01*
X109760509Y-111249729D01*
X109760506Y-111249728D01*
X109721147Y-111228690D01*
X109660444Y-111196244D01*
X109572737Y-111124264D01*
X109509622Y-111047359D01*
X109492297Y-111030034D01*
X109471923Y-111016420D01*
X109449284Y-111007043D01*
X109425250Y-111002263D01*
X109400746Y-111002263D01*
X109376713Y-111007044D01*
X109354074Y-111016421D01*
X109333700Y-111030035D01*
X109316373Y-111047362D01*
X109302759Y-111067736D01*
X109293382Y-111090375D01*
X109288000Y-111126660D01*
X109288000Y-111291000D01*
X108136000Y-111291000D01*
X108136000Y-109689000D01*
X109288000Y-109689000D01*
X109288000Y-109853341D01*
X109290402Y-109877727D01*
X109297515Y-109901176D01*
X109309066Y-109922787D01*
X109324611Y-109941729D01*
X109343553Y-109957274D01*
X109365164Y-109968825D01*
X109388613Y-109975938D01*
X109412999Y-109978340D01*
X109437385Y-109975938D01*
X109460834Y-109968825D01*
X109482445Y-109957274D01*
X109501387Y-109941729D01*
X109509608Y-109932657D01*
X109572736Y-109855736D01*
X109660443Y-109783756D01*
X109724399Y-109749571D01*
X109760505Y-109730272D01*
X109760508Y-109730271D01*
X109869084Y-109697334D01*
X109982000Y-109686213D01*
X110094915Y-109697334D01*
X110203491Y-109730271D01*
X110203494Y-109730272D01*
X110239600Y-109749571D01*
X110303556Y-109783756D01*
X110391264Y-109855736D01*
X110463244Y-109943443D01*
X110506761Y-110024859D01*
X110520375Y-110045234D01*
X110537702Y-110062561D01*
X110558076Y-110076174D01*
X110580715Y-110085552D01*
X110604748Y-110090332D01*
X110629252Y-110090332D01*
X110653285Y-110085552D01*
X110675924Y-110076174D01*
X110696299Y-110062560D01*
X110713626Y-110045233D01*
X110727239Y-110024860D01*
X110770756Y-109943444D01*
X110842736Y-109855736D01*
X110930443Y-109783756D01*
X110994399Y-109749571D01*
X111030505Y-109730272D01*
X111030508Y-109730271D01*
X111139084Y-109697334D01*
X111252000Y-109686213D01*
X111364915Y-109697334D01*
X111364915Y-109697334D01*
G37*
G36*
X120410562Y-107663181D02*
G01*
X120445481Y-107673774D01*
X120477663Y-107690976D01*
X120505873Y-107714127D01*
X120529024Y-107742337D01*
X120546226Y-107774519D01*
X120556819Y-107809438D01*
X120561000Y-107851895D01*
X120561000Y-109318105D01*
X120556819Y-109360562D01*
X120546226Y-109395481D01*
X120529024Y-109427663D01*
X120505873Y-109455873D01*
X120477663Y-109479024D01*
X120445481Y-109496226D01*
X120410562Y-109506819D01*
X120368105Y-109511000D01*
X119226895Y-109511000D01*
X119184438Y-109506819D01*
X119149519Y-109496226D01*
X119117337Y-109479024D01*
X119089127Y-109455873D01*
X119065976Y-109427663D01*
X119048774Y-109395481D01*
X119038181Y-109360562D01*
X119034000Y-109318105D01*
X119034000Y-107851895D01*
X119038181Y-107809438D01*
X119048774Y-107774519D01*
X119065976Y-107742337D01*
X119089127Y-107714127D01*
X119117337Y-107690976D01*
X119149519Y-107673774D01*
X119184438Y-107663181D01*
X119226895Y-107659000D01*
X120368105Y-107659000D01*
X120410562Y-107663181D01*
X120410562Y-107663181D01*
G37*
G36*
X123385562Y-107663181D02*
G01*
X123420481Y-107673774D01*
X123452663Y-107690976D01*
X123480873Y-107714127D01*
X123504024Y-107742337D01*
X123521226Y-107774519D01*
X123531819Y-107809438D01*
X123536000Y-107851895D01*
X123536000Y-109318105D01*
X123531819Y-109360562D01*
X123521226Y-109395481D01*
X123504024Y-109427663D01*
X123480873Y-109455873D01*
X123452663Y-109479024D01*
X123420481Y-109496226D01*
X123385562Y-109506819D01*
X123343105Y-109511000D01*
X122201895Y-109511000D01*
X122159438Y-109506819D01*
X122124519Y-109496226D01*
X122092337Y-109479024D01*
X122064127Y-109455873D01*
X122040976Y-109427663D01*
X122023774Y-109395481D01*
X122013181Y-109360562D01*
X122009000Y-109318105D01*
X122009000Y-107851895D01*
X122013181Y-107809438D01*
X122023774Y-107774519D01*
X122040976Y-107742337D01*
X122064127Y-107714127D01*
X122092337Y-107690976D01*
X122124519Y-107673774D01*
X122159438Y-107663181D01*
X122201895Y-107659000D01*
X123343105Y-107659000D01*
X123385562Y-107663181D01*
X123385562Y-107663181D01*
G37*
G36*
X114695562Y-107663181D02*
G01*
X114730481Y-107673774D01*
X114762663Y-107690976D01*
X114790873Y-107714127D01*
X114814024Y-107742337D01*
X114831226Y-107774519D01*
X114841819Y-107809438D01*
X114846000Y-107851895D01*
X114846000Y-109318105D01*
X114841819Y-109360562D01*
X114831226Y-109395481D01*
X114814024Y-109427663D01*
X114790873Y-109455873D01*
X114762663Y-109479024D01*
X114730481Y-109496226D01*
X114695562Y-109506819D01*
X114653105Y-109511000D01*
X113511895Y-109511000D01*
X113469438Y-109506819D01*
X113434519Y-109496226D01*
X113402337Y-109479024D01*
X113374127Y-109455873D01*
X113350976Y-109427663D01*
X113333774Y-109395481D01*
X113323181Y-109360562D01*
X113319000Y-109318105D01*
X113319000Y-107851895D01*
X113323181Y-107809438D01*
X113333774Y-107774519D01*
X113350976Y-107742337D01*
X113374127Y-107714127D01*
X113402337Y-107690976D01*
X113434519Y-107673774D01*
X113469438Y-107663181D01*
X113511895Y-107659000D01*
X114653105Y-107659000D01*
X114695562Y-107663181D01*
X114695562Y-107663181D01*
G37*
G36*
X117670562Y-107663181D02*
G01*
X117705481Y-107673774D01*
X117737663Y-107690976D01*
X117765873Y-107714127D01*
X117789024Y-107742337D01*
X117806226Y-107774519D01*
X117816819Y-107809438D01*
X117821000Y-107851895D01*
X117821000Y-109318105D01*
X117816819Y-109360562D01*
X117806226Y-109395481D01*
X117789024Y-109427663D01*
X117765873Y-109455873D01*
X117737663Y-109479024D01*
X117705481Y-109496226D01*
X117670562Y-109506819D01*
X117628105Y-109511000D01*
X116486895Y-109511000D01*
X116444438Y-109506819D01*
X116409519Y-109496226D01*
X116377337Y-109479024D01*
X116349127Y-109455873D01*
X116325976Y-109427663D01*
X116308774Y-109395481D01*
X116298181Y-109360562D01*
X116294000Y-109318105D01*
X116294000Y-107851895D01*
X116298181Y-107809438D01*
X116308774Y-107774519D01*
X116325976Y-107742337D01*
X116349127Y-107714127D01*
X116377337Y-107690976D01*
X116409519Y-107673774D01*
X116444438Y-107663181D01*
X116486895Y-107659000D01*
X117628105Y-107659000D01*
X117670562Y-107663181D01*
X117670562Y-107663181D01*
G37*
G36*
X122814928Y-104891764D02*
G01*
X122836009Y-104898160D01*
X122855445Y-104908548D01*
X122872476Y-104922524D01*
X122886452Y-104939555D01*
X122896840Y-104958991D01*
X122903236Y-104980072D01*
X122906000Y-105008140D01*
X122906000Y-106821860D01*
X122903236Y-106849928D01*
X122896840Y-106871009D01*
X122886452Y-106890445D01*
X122872476Y-106907476D01*
X122855445Y-106921452D01*
X122836009Y-106931840D01*
X122814928Y-106938236D01*
X122786860Y-106941000D01*
X122323140Y-106941000D01*
X122295072Y-106938236D01*
X122273991Y-106931840D01*
X122254555Y-106921452D01*
X122237524Y-106907476D01*
X122223548Y-106890445D01*
X122213160Y-106871009D01*
X122206764Y-106849928D01*
X122204000Y-106821860D01*
X122204000Y-105008140D01*
X122206764Y-104980072D01*
X122213160Y-104958991D01*
X122223548Y-104939555D01*
X122237524Y-104922524D01*
X122254555Y-104908548D01*
X122273991Y-104898160D01*
X122295072Y-104891764D01*
X122323140Y-104889000D01*
X122786860Y-104889000D01*
X122814928Y-104891764D01*
X122814928Y-104891764D01*
G37*
G36*
X121544928Y-104891764D02*
G01*
X121566009Y-104898160D01*
X121585445Y-104908548D01*
X121602476Y-104922524D01*
X121616452Y-104939555D01*
X121626840Y-104958991D01*
X121633236Y-104980072D01*
X121636000Y-105008140D01*
X121636000Y-106821860D01*
X121633236Y-106849928D01*
X121626840Y-106871009D01*
X121616452Y-106890445D01*
X121602476Y-106907476D01*
X121585445Y-106921452D01*
X121566009Y-106931840D01*
X121544928Y-106938236D01*
X121516860Y-106941000D01*
X121053140Y-106941000D01*
X121025072Y-106938236D01*
X121003991Y-106931840D01*
X120984555Y-106921452D01*
X120967524Y-106907476D01*
X120953548Y-106890445D01*
X120943160Y-106871009D01*
X120936764Y-106849928D01*
X120934000Y-106821860D01*
X120934000Y-105008140D01*
X120936764Y-104980072D01*
X120943160Y-104958991D01*
X120953548Y-104939555D01*
X120967524Y-104922524D01*
X120984555Y-104908548D01*
X121003991Y-104898160D01*
X121025072Y-104891764D01*
X121053140Y-104889000D01*
X121516860Y-104889000D01*
X121544928Y-104891764D01*
X121544928Y-104891764D01*
G37*
G36*
X119004928Y-104891764D02*
G01*
X119026009Y-104898160D01*
X119045445Y-104908548D01*
X119062476Y-104922524D01*
X119076452Y-104939555D01*
X119086840Y-104958991D01*
X119093236Y-104980072D01*
X119096000Y-105008140D01*
X119096000Y-106821860D01*
X119093236Y-106849928D01*
X119086840Y-106871009D01*
X119076452Y-106890445D01*
X119062476Y-106907476D01*
X119045445Y-106921452D01*
X119026009Y-106931840D01*
X119004928Y-106938236D01*
X118976860Y-106941000D01*
X118513140Y-106941000D01*
X118485072Y-106938236D01*
X118463991Y-106931840D01*
X118444555Y-106921452D01*
X118427524Y-106907476D01*
X118413548Y-106890445D01*
X118403160Y-106871009D01*
X118396764Y-106849928D01*
X118394000Y-106821860D01*
X118394000Y-105008140D01*
X118396764Y-104980072D01*
X118403160Y-104958991D01*
X118413548Y-104939555D01*
X118427524Y-104922524D01*
X118444555Y-104908548D01*
X118463991Y-104898160D01*
X118485072Y-104891764D01*
X118513140Y-104889000D01*
X118976860Y-104889000D01*
X119004928Y-104891764D01*
X119004928Y-104891764D01*
G37*
G36*
X120274928Y-104891764D02*
G01*
X120296009Y-104898160D01*
X120315445Y-104908548D01*
X120332476Y-104922524D01*
X120346452Y-104939555D01*
X120356840Y-104958991D01*
X120363236Y-104980072D01*
X120366000Y-105008140D01*
X120366000Y-106821860D01*
X120363236Y-106849928D01*
X120356840Y-106871009D01*
X120346452Y-106890445D01*
X120332476Y-106907476D01*
X120315445Y-106921452D01*
X120296009Y-106931840D01*
X120274928Y-106938236D01*
X120246860Y-106941000D01*
X119783140Y-106941000D01*
X119755072Y-106938236D01*
X119733991Y-106931840D01*
X119714555Y-106921452D01*
X119697524Y-106907476D01*
X119683548Y-106890445D01*
X119673160Y-106871009D01*
X119666764Y-106849928D01*
X119664000Y-106821860D01*
X119664000Y-105008140D01*
X119666764Y-104980072D01*
X119673160Y-104958991D01*
X119683548Y-104939555D01*
X119697524Y-104922524D01*
X119714555Y-104908548D01*
X119733991Y-104898160D01*
X119755072Y-104891764D01*
X119783140Y-104889000D01*
X120246860Y-104889000D01*
X120274928Y-104891764D01*
X120274928Y-104891764D01*
G37*
G36*
X112008228Y-104591703D02*
G01*
X112163100Y-104655853D01*
X112302481Y-104748985D01*
X112421015Y-104867519D01*
X112514147Y-105006900D01*
X112578297Y-105161772D01*
X112611000Y-105326184D01*
X112611000Y-105493816D01*
X112578297Y-105658228D01*
X112514147Y-105813100D01*
X112421015Y-105952481D01*
X112302481Y-106071015D01*
X112163100Y-106164147D01*
X112008228Y-106228297D01*
X111843816Y-106261000D01*
X111676184Y-106261000D01*
X111511772Y-106228297D01*
X111356900Y-106164147D01*
X111217519Y-106071015D01*
X111098985Y-105952481D01*
X111005853Y-105813100D01*
X110941703Y-105658228D01*
X110909000Y-105493816D01*
X110909000Y-105326184D01*
X110941703Y-105161772D01*
X111005853Y-105006900D01*
X111098985Y-104867519D01*
X111217519Y-104748985D01*
X111356900Y-104655853D01*
X111511772Y-104591703D01*
X111676184Y-104559000D01*
X111843816Y-104559000D01*
X112008228Y-104591703D01*
X112008228Y-104591703D01*
G37*
G36*
X101766823Y-104571313D02*
G01*
X101927242Y-104619976D01*
X101994361Y-104655852D01*
X102075078Y-104698996D01*
X102204659Y-104805341D01*
X102311004Y-104934922D01*
X102311005Y-104934924D01*
X102390024Y-105082758D01*
X102438687Y-105243177D01*
X102455117Y-105410000D01*
X102438687Y-105576823D01*
X102390024Y-105737242D01*
X102349477Y-105813100D01*
X102311004Y-105885078D01*
X102204659Y-106014659D01*
X102075078Y-106121004D01*
X102075076Y-106121005D01*
X101927242Y-106200024D01*
X101766823Y-106248687D01*
X101641804Y-106261000D01*
X101558196Y-106261000D01*
X101433177Y-106248687D01*
X101272758Y-106200024D01*
X101124924Y-106121005D01*
X101124922Y-106121004D01*
X100995341Y-106014659D01*
X100888996Y-105885078D01*
X100850523Y-105813100D01*
X100809976Y-105737242D01*
X100761313Y-105576823D01*
X100744883Y-105410000D01*
X100761313Y-105243177D01*
X100809976Y-105082758D01*
X100888995Y-104934924D01*
X100888996Y-104934922D01*
X100995341Y-104805341D01*
X101124922Y-104698996D01*
X101205639Y-104655852D01*
X101272758Y-104619976D01*
X101433177Y-104571313D01*
X101558196Y-104559000D01*
X101641804Y-104559000D01*
X101766823Y-104571313D01*
X101766823Y-104571313D01*
G37*
G36*
X115818228Y-103916703D02*
G01*
X115973100Y-103980853D01*
X116112481Y-104073985D01*
X116231015Y-104192519D01*
X116324147Y-104331900D01*
X116388297Y-104486772D01*
X116421000Y-104651184D01*
X116421000Y-104818816D01*
X116388297Y-104983228D01*
X116324147Y-105138100D01*
X116231015Y-105277481D01*
X116112481Y-105396015D01*
X115973100Y-105489147D01*
X115818228Y-105553297D01*
X115653816Y-105586000D01*
X115486184Y-105586000D01*
X115321772Y-105553297D01*
X115166900Y-105489147D01*
X115027519Y-105396015D01*
X114908985Y-105277481D01*
X114815853Y-105138100D01*
X114751703Y-104983228D01*
X114719000Y-104818816D01*
X114719000Y-104651184D01*
X114751703Y-104486772D01*
X114815853Y-104331900D01*
X114908985Y-104192519D01*
X115027519Y-104073985D01*
X115166900Y-103980853D01*
X115321772Y-103916703D01*
X115486184Y-103884000D01*
X115653816Y-103884000D01*
X115818228Y-103916703D01*
X115818228Y-103916703D01*
G37*
G36*
X145521642Y-103369781D02*
G01*
X145667414Y-103430162D01*
X145667416Y-103430163D01*
X145798608Y-103517822D01*
X145910178Y-103629392D01*
X145997837Y-103760584D01*
X145997838Y-103760586D01*
X146058219Y-103906358D01*
X146089000Y-104061107D01*
X146089000Y-104218893D01*
X146058219Y-104373642D01*
X146011359Y-104486771D01*
X145997837Y-104519416D01*
X145910178Y-104650608D01*
X145798608Y-104762178D01*
X145667416Y-104849837D01*
X145667415Y-104849838D01*
X145667414Y-104849838D01*
X145521642Y-104910219D01*
X145366893Y-104941000D01*
X145209107Y-104941000D01*
X145054358Y-104910219D01*
X144908586Y-104849838D01*
X144908585Y-104849838D01*
X144908584Y-104849837D01*
X144777392Y-104762178D01*
X144665822Y-104650608D01*
X144578163Y-104519416D01*
X144564641Y-104486771D01*
X144517781Y-104373642D01*
X144487000Y-104218893D01*
X144487000Y-104061107D01*
X144517781Y-103906358D01*
X144578162Y-103760586D01*
X144578163Y-103760584D01*
X144665822Y-103629392D01*
X144777392Y-103517822D01*
X144908584Y-103430163D01*
X144908586Y-103430162D01*
X145054358Y-103369781D01*
X145209107Y-103339000D01*
X145366893Y-103339000D01*
X145521642Y-103369781D01*
X145521642Y-103369781D01*
G37*
G36*
X147807642Y-103369781D02*
G01*
X147953414Y-103430162D01*
X147953416Y-103430163D01*
X148084608Y-103517822D01*
X148196178Y-103629392D01*
X148283837Y-103760584D01*
X148283838Y-103760586D01*
X148344219Y-103906358D01*
X148375000Y-104061107D01*
X148375000Y-104218893D01*
X148344219Y-104373642D01*
X148297359Y-104486771D01*
X148283837Y-104519416D01*
X148196178Y-104650608D01*
X148084608Y-104762178D01*
X147953416Y-104849837D01*
X147953415Y-104849838D01*
X147953414Y-104849838D01*
X147807642Y-104910219D01*
X147652893Y-104941000D01*
X147495107Y-104941000D01*
X147340358Y-104910219D01*
X147194586Y-104849838D01*
X147194585Y-104849838D01*
X147194584Y-104849837D01*
X147063392Y-104762178D01*
X146951822Y-104650608D01*
X146864163Y-104519416D01*
X146850641Y-104486771D01*
X146803781Y-104373642D01*
X146773000Y-104218893D01*
X146773000Y-104061107D01*
X146803781Y-103906358D01*
X146864162Y-103760586D01*
X146864163Y-103760584D01*
X146951822Y-103629392D01*
X147063392Y-103517822D01*
X147194584Y-103430163D01*
X147194586Y-103430162D01*
X147340358Y-103369781D01*
X147495107Y-103339000D01*
X147652893Y-103339000D01*
X147807642Y-103369781D01*
X147807642Y-103369781D01*
G37*
G36*
X115818228Y-101416703D02*
G01*
X115973100Y-101480853D01*
X116112481Y-101573985D01*
X116231015Y-101692519D01*
X116324147Y-101831900D01*
X116388297Y-101986772D01*
X116421000Y-102151184D01*
X116421000Y-102318816D01*
X116388297Y-102483228D01*
X116324147Y-102638100D01*
X116231015Y-102777481D01*
X116112481Y-102896015D01*
X115973100Y-102989147D01*
X115818228Y-103053297D01*
X115653816Y-103086000D01*
X115486184Y-103086000D01*
X115321772Y-103053297D01*
X115166900Y-102989147D01*
X115027519Y-102896015D01*
X114908985Y-102777481D01*
X114815853Y-102638100D01*
X114751703Y-102483228D01*
X114719000Y-102318816D01*
X114719000Y-102151184D01*
X114751703Y-101986772D01*
X114815853Y-101831900D01*
X114908985Y-101692519D01*
X115027519Y-101573985D01*
X115166900Y-101480853D01*
X115321772Y-101416703D01*
X115486184Y-101384000D01*
X115653816Y-101384000D01*
X115818228Y-101416703D01*
X115818228Y-101416703D01*
G37*
G36*
X112008228Y-101289703D02*
G01*
X112163100Y-101353853D01*
X112302481Y-101446985D01*
X112421015Y-101565519D01*
X112514147Y-101704900D01*
X112578297Y-101859772D01*
X112611000Y-102024184D01*
X112611000Y-102191816D01*
X112578297Y-102356228D01*
X112514147Y-102511100D01*
X112421015Y-102650481D01*
X112302481Y-102769015D01*
X112163100Y-102862147D01*
X112008228Y-102926297D01*
X111843816Y-102959000D01*
X111676184Y-102959000D01*
X111511772Y-102926297D01*
X111356900Y-102862147D01*
X111217519Y-102769015D01*
X111098985Y-102650481D01*
X111005853Y-102511100D01*
X110941703Y-102356228D01*
X110909000Y-102191816D01*
X110909000Y-102024184D01*
X110941703Y-101859772D01*
X111005853Y-101704900D01*
X111098985Y-101565519D01*
X111217519Y-101446985D01*
X111356900Y-101353853D01*
X111511772Y-101289703D01*
X111676184Y-101257000D01*
X111843816Y-101257000D01*
X112008228Y-101289703D01*
X112008228Y-101289703D01*
G37*
G36*
X101766823Y-101269313D02*
G01*
X101927242Y-101317976D01*
X101994361Y-101353852D01*
X102075078Y-101396996D01*
X102204659Y-101503341D01*
X102311004Y-101632922D01*
X102311005Y-101632924D01*
X102390024Y-101780758D01*
X102438687Y-101941177D01*
X102455117Y-102108000D01*
X102438687Y-102274823D01*
X102390024Y-102435242D01*
X102349477Y-102511100D01*
X102311004Y-102583078D01*
X102204659Y-102712659D01*
X102075078Y-102819004D01*
X102075076Y-102819005D01*
X101927242Y-102898024D01*
X101766823Y-102946687D01*
X101641804Y-102959000D01*
X101558196Y-102959000D01*
X101433177Y-102946687D01*
X101272758Y-102898024D01*
X101124924Y-102819005D01*
X101124922Y-102819004D01*
X100995341Y-102712659D01*
X100888996Y-102583078D01*
X100850523Y-102511100D01*
X100809976Y-102435242D01*
X100761313Y-102274823D01*
X100744883Y-102108000D01*
X100761313Y-101941177D01*
X100809976Y-101780758D01*
X100888995Y-101632924D01*
X100888996Y-101632922D01*
X100995341Y-101503341D01*
X101124922Y-101396996D01*
X101205639Y-101353852D01*
X101272758Y-101317976D01*
X101433177Y-101269313D01*
X101558196Y-101257000D01*
X101641804Y-101257000D01*
X101766823Y-101269313D01*
X101766823Y-101269313D01*
G37*
G36*
X147585000Y-102341000D02*
G01*
X142483000Y-102341000D01*
X142483000Y-99989000D01*
X147585000Y-99989000D01*
X147585000Y-102341000D01*
X147585000Y-102341000D01*
G37*
G36*
X119004928Y-99941764D02*
G01*
X119026009Y-99948160D01*
X119045445Y-99958548D01*
X119062476Y-99972524D01*
X119076452Y-99989555D01*
X119086840Y-100008991D01*
X119093236Y-100030072D01*
X119096000Y-100058140D01*
X119096000Y-101871860D01*
X119093236Y-101899928D01*
X119086840Y-101921009D01*
X119076452Y-101940445D01*
X119062476Y-101957476D01*
X119045445Y-101971452D01*
X119026009Y-101981840D01*
X119004928Y-101988236D01*
X118976860Y-101991000D01*
X118513140Y-101991000D01*
X118485072Y-101988236D01*
X118463991Y-101981840D01*
X118444555Y-101971452D01*
X118427524Y-101957476D01*
X118413548Y-101940445D01*
X118403160Y-101921009D01*
X118396764Y-101899928D01*
X118394000Y-101871860D01*
X118394000Y-100058140D01*
X118396764Y-100030072D01*
X118403160Y-100008991D01*
X118413548Y-99989555D01*
X118427524Y-99972524D01*
X118444555Y-99958548D01*
X118463991Y-99948160D01*
X118485072Y-99941764D01*
X118513140Y-99939000D01*
X118976860Y-99939000D01*
X119004928Y-99941764D01*
X119004928Y-99941764D01*
G37*
G36*
X120274928Y-99941764D02*
G01*
X120296009Y-99948160D01*
X120315445Y-99958548D01*
X120332476Y-99972524D01*
X120346452Y-99989555D01*
X120356840Y-100008991D01*
X120363236Y-100030072D01*
X120366000Y-100058140D01*
X120366000Y-101871860D01*
X120363236Y-101899928D01*
X120356840Y-101921009D01*
X120346452Y-101940445D01*
X120332476Y-101957476D01*
X120315445Y-101971452D01*
X120296009Y-101981840D01*
X120274928Y-101988236D01*
X120246860Y-101991000D01*
X119783140Y-101991000D01*
X119755072Y-101988236D01*
X119733991Y-101981840D01*
X119714555Y-101971452D01*
X119697524Y-101957476D01*
X119683548Y-101940445D01*
X119673160Y-101921009D01*
X119666764Y-101899928D01*
X119664000Y-101871860D01*
X119664000Y-100058140D01*
X119666764Y-100030072D01*
X119673160Y-100008991D01*
X119683548Y-99989555D01*
X119697524Y-99972524D01*
X119714555Y-99958548D01*
X119733991Y-99948160D01*
X119755072Y-99941764D01*
X119783140Y-99939000D01*
X120246860Y-99939000D01*
X120274928Y-99941764D01*
X120274928Y-99941764D01*
G37*
G36*
X122814928Y-99941764D02*
G01*
X122836009Y-99948160D01*
X122855445Y-99958548D01*
X122872476Y-99972524D01*
X122886452Y-99989555D01*
X122896840Y-100008991D01*
X122903236Y-100030072D01*
X122906000Y-100058140D01*
X122906000Y-101871860D01*
X122903236Y-101899928D01*
X122896840Y-101921009D01*
X122886452Y-101940445D01*
X122872476Y-101957476D01*
X122855445Y-101971452D01*
X122836009Y-101981840D01*
X122814928Y-101988236D01*
X122786860Y-101991000D01*
X122323140Y-101991000D01*
X122295072Y-101988236D01*
X122273991Y-101981840D01*
X122254555Y-101971452D01*
X122237524Y-101957476D01*
X122223548Y-101940445D01*
X122213160Y-101921009D01*
X122206764Y-101899928D01*
X122204000Y-101871860D01*
X122204000Y-100058140D01*
X122206764Y-100030072D01*
X122213160Y-100008991D01*
X122223548Y-99989555D01*
X122237524Y-99972524D01*
X122254555Y-99958548D01*
X122273991Y-99948160D01*
X122295072Y-99941764D01*
X122323140Y-99939000D01*
X122786860Y-99939000D01*
X122814928Y-99941764D01*
X122814928Y-99941764D01*
G37*
G36*
X121544928Y-99941764D02*
G01*
X121566009Y-99948160D01*
X121585445Y-99958548D01*
X121602476Y-99972524D01*
X121616452Y-99989555D01*
X121626840Y-100008991D01*
X121633236Y-100030072D01*
X121636000Y-100058140D01*
X121636000Y-101871860D01*
X121633236Y-101899928D01*
X121626840Y-101921009D01*
X121616452Y-101940445D01*
X121602476Y-101957476D01*
X121585445Y-101971452D01*
X121566009Y-101981840D01*
X121544928Y-101988236D01*
X121516860Y-101991000D01*
X121053140Y-101991000D01*
X121025072Y-101988236D01*
X121003991Y-101981840D01*
X120984555Y-101971452D01*
X120967524Y-101957476D01*
X120953548Y-101940445D01*
X120943160Y-101921009D01*
X120936764Y-101899928D01*
X120934000Y-101871860D01*
X120934000Y-100058140D01*
X120936764Y-100030072D01*
X120943160Y-100008991D01*
X120953548Y-99989555D01*
X120967524Y-99972524D01*
X120984555Y-99958548D01*
X121003991Y-99948160D01*
X121025072Y-99941764D01*
X121053140Y-99939000D01*
X121516860Y-99939000D01*
X121544928Y-99941764D01*
X121544928Y-99941764D01*
G37*
G36*
X115736823Y-98221313D02*
G01*
X115897242Y-98269976D01*
X116029906Y-98340886D01*
X116045078Y-98348996D01*
X116174659Y-98455341D01*
X116281004Y-98584922D01*
X116281005Y-98584924D01*
X116360024Y-98732758D01*
X116408687Y-98893177D01*
X116425117Y-99060000D01*
X116408687Y-99226823D01*
X116360024Y-99387242D01*
X116289114Y-99519906D01*
X116281004Y-99535078D01*
X116174659Y-99664659D01*
X116045078Y-99771004D01*
X116045076Y-99771005D01*
X115897242Y-99850024D01*
X115736823Y-99898687D01*
X115611804Y-99911000D01*
X115528196Y-99911000D01*
X115403177Y-99898687D01*
X115242758Y-99850024D01*
X115094924Y-99771005D01*
X115094922Y-99771004D01*
X114965341Y-99664659D01*
X114858996Y-99535078D01*
X114850886Y-99519906D01*
X114779976Y-99387242D01*
X114731313Y-99226823D01*
X114714883Y-99060000D01*
X114731313Y-98893177D01*
X114779976Y-98732758D01*
X114858995Y-98584924D01*
X114858996Y-98584922D01*
X114965341Y-98455341D01*
X115094922Y-98348996D01*
X115110094Y-98340886D01*
X115242758Y-98269976D01*
X115403177Y-98221313D01*
X115528196Y-98209000D01*
X115611804Y-98209000D01*
X115736823Y-98221313D01*
X115736823Y-98221313D01*
G37*
G36*
X146534000Y-99290000D02*
G01*
X143534000Y-99290000D01*
X143534000Y-96290000D01*
X146534000Y-96290000D01*
X146534000Y-99290000D01*
X146534000Y-99290000D01*
G37*
G36*
X104417395Y-96367546D02*
G01*
X104590466Y-96439234D01*
X104652973Y-96481000D01*
X104746227Y-96543310D01*
X104878690Y-96675773D01*
X104878691Y-96675775D01*
X104982766Y-96831534D01*
X105054454Y-97004605D01*
X105091000Y-97188333D01*
X105091000Y-97375667D01*
X105054454Y-97559395D01*
X104982766Y-97732466D01*
X104982765Y-97732467D01*
X104878690Y-97888227D01*
X104746227Y-98020690D01*
X104667818Y-98073081D01*
X104590466Y-98124766D01*
X104417395Y-98196454D01*
X104233667Y-98233000D01*
X104046333Y-98233000D01*
X103862605Y-98196454D01*
X103689534Y-98124766D01*
X103612182Y-98073081D01*
X103533773Y-98020690D01*
X103401310Y-97888227D01*
X103297235Y-97732467D01*
X103297234Y-97732466D01*
X103225546Y-97559395D01*
X103189000Y-97375667D01*
X103189000Y-97188333D01*
X103225546Y-97004605D01*
X103297234Y-96831534D01*
X103401309Y-96675775D01*
X103401310Y-96675773D01*
X103533773Y-96543310D01*
X103627027Y-96481000D01*
X103689534Y-96439234D01*
X103862605Y-96367546D01*
X104046333Y-96331000D01*
X104233667Y-96331000D01*
X104417395Y-96367546D01*
X104417395Y-96367546D01*
G37*
G36*
X102551000Y-98233000D02*
G01*
X100649000Y-98233000D01*
X100649000Y-96331000D01*
X102551000Y-96331000D01*
X102551000Y-98233000D01*
X102551000Y-98233000D01*
G37*
G36*
X111364915Y-96489334D02*
G01*
X111473491Y-96522271D01*
X111473494Y-96522272D01*
X111509600Y-96541571D01*
X111573556Y-96575756D01*
X111661264Y-96647736D01*
X111733244Y-96735443D01*
X111767429Y-96799399D01*
X111786728Y-96835505D01*
X111786729Y-96835508D01*
X111819666Y-96944084D01*
X111828000Y-97028702D01*
X111828000Y-97535297D01*
X111819666Y-97619916D01*
X111787252Y-97726767D01*
X111786728Y-97728495D01*
X111776761Y-97747141D01*
X111733244Y-97828557D01*
X111661264Y-97916264D01*
X111573557Y-97988244D01*
X111512854Y-98020690D01*
X111473495Y-98041728D01*
X111473492Y-98041729D01*
X111364916Y-98074666D01*
X111252000Y-98085787D01*
X111139085Y-98074666D01*
X111030509Y-98041729D01*
X111030506Y-98041728D01*
X110991147Y-98020690D01*
X110930444Y-97988244D01*
X110842737Y-97916264D01*
X110770757Y-97828557D01*
X110727239Y-97747141D01*
X110713625Y-97726766D01*
X110696298Y-97709439D01*
X110675924Y-97695826D01*
X110653285Y-97686448D01*
X110629252Y-97681668D01*
X110604748Y-97681668D01*
X110580715Y-97686448D01*
X110558076Y-97695826D01*
X110537701Y-97709440D01*
X110520374Y-97726767D01*
X110506761Y-97747141D01*
X110463244Y-97828557D01*
X110391264Y-97916264D01*
X110303557Y-97988244D01*
X110242854Y-98020690D01*
X110203495Y-98041728D01*
X110203492Y-98041729D01*
X110094916Y-98074666D01*
X109982000Y-98085787D01*
X109869085Y-98074666D01*
X109760509Y-98041729D01*
X109760506Y-98041728D01*
X109721147Y-98020690D01*
X109660444Y-97988244D01*
X109572737Y-97916264D01*
X109509622Y-97839359D01*
X109492297Y-97822034D01*
X109471923Y-97808420D01*
X109449284Y-97799043D01*
X109425250Y-97794263D01*
X109400746Y-97794263D01*
X109376713Y-97799044D01*
X109354074Y-97808421D01*
X109333700Y-97822035D01*
X109316373Y-97839362D01*
X109302759Y-97859736D01*
X109293382Y-97882375D01*
X109288000Y-97918660D01*
X109288000Y-98083000D01*
X108136000Y-98083000D01*
X108136000Y-96481000D01*
X109288000Y-96481000D01*
X109288000Y-96645341D01*
X109290402Y-96669727D01*
X109297515Y-96693176D01*
X109309066Y-96714787D01*
X109324611Y-96733729D01*
X109343553Y-96749274D01*
X109365164Y-96760825D01*
X109388613Y-96767938D01*
X109412999Y-96770340D01*
X109437385Y-96767938D01*
X109460834Y-96760825D01*
X109482445Y-96749274D01*
X109501387Y-96733729D01*
X109509608Y-96724657D01*
X109572736Y-96647736D01*
X109660443Y-96575756D01*
X109724399Y-96541571D01*
X109760505Y-96522272D01*
X109760508Y-96522271D01*
X109869084Y-96489334D01*
X109982000Y-96478213D01*
X110094915Y-96489334D01*
X110203491Y-96522271D01*
X110203494Y-96522272D01*
X110239600Y-96541571D01*
X110303556Y-96575756D01*
X110391264Y-96647736D01*
X110463244Y-96735443D01*
X110506761Y-96816859D01*
X110520375Y-96837234D01*
X110537702Y-96854561D01*
X110558076Y-96868174D01*
X110580715Y-96877552D01*
X110604748Y-96882332D01*
X110629252Y-96882332D01*
X110653285Y-96877552D01*
X110675924Y-96868174D01*
X110696299Y-96854560D01*
X110713626Y-96837233D01*
X110727239Y-96816860D01*
X110770756Y-96735444D01*
X110842736Y-96647736D01*
X110930443Y-96575756D01*
X110994399Y-96541571D01*
X111030505Y-96522272D01*
X111030508Y-96522271D01*
X111139084Y-96489334D01*
X111252000Y-96478213D01*
X111364915Y-96489334D01*
X111364915Y-96489334D01*
G37*
G36*
X119775562Y-95598181D02*
G01*
X119810481Y-95608774D01*
X119842663Y-95625976D01*
X119870873Y-95649127D01*
X119894024Y-95677337D01*
X119911226Y-95709519D01*
X119921819Y-95744438D01*
X119926000Y-95786895D01*
X119926000Y-97253105D01*
X119921819Y-97295562D01*
X119911226Y-97330481D01*
X119894024Y-97362663D01*
X119870873Y-97390873D01*
X119842663Y-97414024D01*
X119810481Y-97431226D01*
X119775562Y-97441819D01*
X119733105Y-97446000D01*
X118591895Y-97446000D01*
X118549438Y-97441819D01*
X118514519Y-97431226D01*
X118482337Y-97414024D01*
X118454127Y-97390873D01*
X118430976Y-97362663D01*
X118413774Y-97330481D01*
X118403181Y-97295562D01*
X118399000Y-97253105D01*
X118399000Y-95786895D01*
X118403181Y-95744438D01*
X118413774Y-95709519D01*
X118430976Y-95677337D01*
X118454127Y-95649127D01*
X118482337Y-95625976D01*
X118514519Y-95608774D01*
X118549438Y-95598181D01*
X118591895Y-95594000D01*
X119733105Y-95594000D01*
X119775562Y-95598181D01*
X119775562Y-95598181D01*
G37*
G36*
X122750562Y-95598181D02*
G01*
X122785481Y-95608774D01*
X122817663Y-95625976D01*
X122845873Y-95649127D01*
X122869024Y-95677337D01*
X122886226Y-95709519D01*
X122896819Y-95744438D01*
X122901000Y-95786895D01*
X122901000Y-97253105D01*
X122896819Y-97295562D01*
X122886226Y-97330481D01*
X122869024Y-97362663D01*
X122845873Y-97390873D01*
X122817663Y-97414024D01*
X122785481Y-97431226D01*
X122750562Y-97441819D01*
X122708105Y-97446000D01*
X121566895Y-97446000D01*
X121524438Y-97441819D01*
X121489519Y-97431226D01*
X121457337Y-97414024D01*
X121429127Y-97390873D01*
X121405976Y-97362663D01*
X121388774Y-97330481D01*
X121378181Y-97295562D01*
X121374000Y-97253105D01*
X121374000Y-95786895D01*
X121378181Y-95744438D01*
X121388774Y-95709519D01*
X121405976Y-95677337D01*
X121429127Y-95649127D01*
X121457337Y-95625976D01*
X121489519Y-95608774D01*
X121524438Y-95598181D01*
X121566895Y-95594000D01*
X122708105Y-95594000D01*
X122750562Y-95598181D01*
X122750562Y-95598181D01*
G37*
G36*
X147585000Y-95591000D02*
G01*
X142483000Y-95591000D01*
X142483000Y-93239000D01*
X147585000Y-93239000D01*
X147585000Y-95591000D01*
X147585000Y-95591000D01*
G37*
G36*
X119775562Y-92423181D02*
G01*
X119810481Y-92433774D01*
X119842663Y-92450976D01*
X119870873Y-92474127D01*
X119894024Y-92502337D01*
X119911226Y-92534519D01*
X119921819Y-92569438D01*
X119926000Y-92611895D01*
X119926000Y-94078105D01*
X119921819Y-94120562D01*
X119911226Y-94155481D01*
X119894024Y-94187663D01*
X119870873Y-94215873D01*
X119842663Y-94239024D01*
X119810481Y-94256226D01*
X119775562Y-94266819D01*
X119733105Y-94271000D01*
X118591895Y-94271000D01*
X118549438Y-94266819D01*
X118514519Y-94256226D01*
X118482337Y-94239024D01*
X118454127Y-94215873D01*
X118430976Y-94187663D01*
X118413774Y-94155481D01*
X118403181Y-94120562D01*
X118399000Y-94078105D01*
X118399000Y-92611895D01*
X118403181Y-92569438D01*
X118413774Y-92534519D01*
X118430976Y-92502337D01*
X118454127Y-92474127D01*
X118482337Y-92450976D01*
X118514519Y-92433774D01*
X118549438Y-92423181D01*
X118591895Y-92419000D01*
X119733105Y-92419000D01*
X119775562Y-92423181D01*
X119775562Y-92423181D01*
G37*
G36*
X122750562Y-92423181D02*
G01*
X122785481Y-92433774D01*
X122817663Y-92450976D01*
X122845873Y-92474127D01*
X122869024Y-92502337D01*
X122886226Y-92534519D01*
X122896819Y-92569438D01*
X122901000Y-92611895D01*
X122901000Y-94078105D01*
X122896819Y-94120562D01*
X122886226Y-94155481D01*
X122869024Y-94187663D01*
X122845873Y-94215873D01*
X122817663Y-94239024D01*
X122785481Y-94256226D01*
X122750562Y-94266819D01*
X122708105Y-94271000D01*
X121566895Y-94271000D01*
X121524438Y-94266819D01*
X121489519Y-94256226D01*
X121457337Y-94239024D01*
X121429127Y-94215873D01*
X121405976Y-94187663D01*
X121388774Y-94155481D01*
X121378181Y-94120562D01*
X121374000Y-94078105D01*
X121374000Y-92611895D01*
X121378181Y-92569438D01*
X121388774Y-92534519D01*
X121405976Y-92502337D01*
X121429127Y-92474127D01*
X121457337Y-92450976D01*
X121489519Y-92433774D01*
X121524438Y-92423181D01*
X121566895Y-92419000D01*
X122708105Y-92419000D01*
X122750562Y-92423181D01*
X122750562Y-92423181D01*
G37*
G36*
X168005573Y-82873233D02*
G01*
X169020795Y-83293752D01*
X169026029Y-83295920D01*
X169183292Y-83401000D01*
X169944413Y-83909564D01*
X170725436Y-84690587D01*
X171339081Y-85608973D01*
X171761767Y-86629427D01*
X171977250Y-87712733D01*
X171977250Y-88817267D01*
X171761767Y-89900573D01*
X171339081Y-90921027D01*
X170725436Y-91839413D01*
X169944413Y-92620436D01*
X169257183Y-93079628D01*
X169026029Y-93234080D01*
X169026028Y-93234081D01*
X169026027Y-93234081D01*
X168005573Y-93656767D01*
X166922267Y-93872250D01*
X165817733Y-93872250D01*
X164734427Y-93656767D01*
X163713973Y-93234081D01*
X163713972Y-93234081D01*
X163713971Y-93234080D01*
X163482817Y-93079628D01*
X162795587Y-92620436D01*
X162014564Y-91839413D01*
X161400919Y-90921027D01*
X160978233Y-89900573D01*
X160762750Y-88817267D01*
X160762750Y-87712733D01*
X160978233Y-86629427D01*
X161400919Y-85608973D01*
X162014564Y-84690587D01*
X162795587Y-83909564D01*
X163556708Y-83401000D01*
X163713971Y-83295920D01*
X163719205Y-83293752D01*
X164734427Y-82873233D01*
X165817733Y-82657750D01*
X166922267Y-82657750D01*
X168005573Y-82873233D01*
X168005573Y-82873233D01*
G37*
G36*
X106761000Y-90251000D02*
G01*
X104059000Y-90251000D01*
X104059000Y-87549000D01*
X106761000Y-87549000D01*
X106761000Y-90251000D01*
X106761000Y-90251000D01*
G37*
G36*
X115818228Y-88081703D02*
G01*
X115973100Y-88145853D01*
X116112481Y-88238985D01*
X116231015Y-88357519D01*
X116324147Y-88496900D01*
X116388297Y-88651772D01*
X116421000Y-88816184D01*
X116421000Y-88983816D01*
X116388297Y-89148228D01*
X116324147Y-89303100D01*
X116231015Y-89442481D01*
X116112481Y-89561015D01*
X115973100Y-89654147D01*
X115818228Y-89718297D01*
X115653816Y-89751000D01*
X115486184Y-89751000D01*
X115321772Y-89718297D01*
X115166900Y-89654147D01*
X115027519Y-89561015D01*
X114908985Y-89442481D01*
X114815853Y-89303100D01*
X114751703Y-89148228D01*
X114719000Y-88983816D01*
X114719000Y-88816184D01*
X114751703Y-88651772D01*
X114815853Y-88496900D01*
X114908985Y-88357519D01*
X115027519Y-88238985D01*
X115166900Y-88145853D01*
X115321772Y-88081703D01*
X115486184Y-88049000D01*
X115653816Y-88049000D01*
X115818228Y-88081703D01*
X115818228Y-88081703D01*
G37*
G36*
X147861721Y-86465174D02*
G01*
X147961995Y-86506709D01*
X147961996Y-86506710D01*
X148052242Y-86567010D01*
X148128990Y-86643758D01*
X148128991Y-86643760D01*
X148189291Y-86734005D01*
X148230826Y-86834279D01*
X148252000Y-86940730D01*
X148252000Y-87049270D01*
X148230826Y-87155721D01*
X148189291Y-87255995D01*
X148189290Y-87255996D01*
X148128990Y-87346242D01*
X148052242Y-87422990D01*
X148006812Y-87453345D01*
X147961995Y-87483291D01*
X147861721Y-87524826D01*
X147755270Y-87546000D01*
X147646730Y-87546000D01*
X147540279Y-87524826D01*
X147440005Y-87483291D01*
X147395188Y-87453345D01*
X147349758Y-87422990D01*
X147273010Y-87346242D01*
X147212710Y-87255996D01*
X147210744Y-87253054D01*
X147202517Y-87237661D01*
X147186972Y-87218719D01*
X147168031Y-87203173D01*
X147146421Y-87191621D01*
X147122972Y-87184507D01*
X147098586Y-87182104D01*
X147074200Y-87184505D01*
X147050750Y-87191617D01*
X147029139Y-87203167D01*
X147010197Y-87218712D01*
X146994651Y-87237653D01*
X146983099Y-87259263D01*
X146975984Y-87282717D01*
X146960826Y-87358920D01*
X146919291Y-87459195D01*
X146889345Y-87504012D01*
X146858990Y-87549442D01*
X146782242Y-87626190D01*
X146736812Y-87656545D01*
X146691995Y-87686491D01*
X146591721Y-87728026D01*
X146485270Y-87749200D01*
X146376730Y-87749200D01*
X146270279Y-87728026D01*
X146170005Y-87686491D01*
X146125188Y-87656545D01*
X146079758Y-87626190D01*
X146003010Y-87549442D01*
X145972655Y-87504012D01*
X145942709Y-87459195D01*
X145901174Y-87358921D01*
X145880000Y-87252470D01*
X145880000Y-87143930D01*
X145901174Y-87037479D01*
X145942709Y-86937205D01*
X146003009Y-86846960D01*
X146003010Y-86846958D01*
X146079758Y-86770210D01*
X146133943Y-86734005D01*
X146170005Y-86709909D01*
X146270279Y-86668374D01*
X146376730Y-86647200D01*
X146485270Y-86647200D01*
X146591721Y-86668374D01*
X146691995Y-86709909D01*
X146728057Y-86734005D01*
X146782242Y-86770210D01*
X146858990Y-86846958D01*
X146858991Y-86846960D01*
X146921256Y-86940146D01*
X146929483Y-86955539D01*
X146945028Y-86974481D01*
X146963969Y-86990027D01*
X146985579Y-87001579D01*
X147009028Y-87008693D01*
X147033414Y-87011096D01*
X147057800Y-87008695D01*
X147081250Y-87001583D01*
X147102861Y-86990033D01*
X147121803Y-86974488D01*
X147137349Y-86955547D01*
X147148901Y-86933937D01*
X147156016Y-86910483D01*
X147171174Y-86834280D01*
X147212709Y-86734005D01*
X147273009Y-86643760D01*
X147273010Y-86643758D01*
X147349758Y-86567010D01*
X147440004Y-86506710D01*
X147440005Y-86506709D01*
X147540279Y-86465174D01*
X147646730Y-86444000D01*
X147755270Y-86444000D01*
X147861721Y-86465174D01*
X147861721Y-86465174D01*
G37*
G36*
X116871000Y-86938000D02*
G01*
X115069000Y-86938000D01*
X115069000Y-86036000D01*
X116871000Y-86036000D01*
X116871000Y-86938000D01*
X116871000Y-86938000D01*
G37*
G36*
X114071000Y-85988000D02*
G01*
X112269000Y-85988000D01*
X112269000Y-85086000D01*
X114071000Y-85086000D01*
X114071000Y-85988000D01*
X114071000Y-85988000D01*
G37*
G36*
X105804072Y-82600918D02*
G01*
X105930590Y-82653323D01*
X106049939Y-82702759D01*
X106097785Y-82734729D01*
X106271211Y-82850609D01*
X106459391Y-83038789D01*
X106495266Y-83092480D01*
X106605305Y-83257163D01*
X106607242Y-83260063D01*
X106709082Y-83505928D01*
X106761000Y-83766937D01*
X106761000Y-84033063D01*
X106709082Y-84294072D01*
X106607242Y-84539937D01*
X106506581Y-84690587D01*
X106459390Y-84761212D01*
X106271212Y-84949390D01*
X106049939Y-85097241D01*
X106049938Y-85097242D01*
X106049937Y-85097242D01*
X105804072Y-85199082D01*
X105543063Y-85251000D01*
X105276937Y-85251000D01*
X105015928Y-85199082D01*
X104770063Y-85097242D01*
X104770062Y-85097242D01*
X104770061Y-85097241D01*
X104548788Y-84949390D01*
X104360610Y-84761212D01*
X104313420Y-84690587D01*
X104212758Y-84539937D01*
X104110918Y-84294072D01*
X104059000Y-84033063D01*
X104059000Y-83766937D01*
X104110918Y-83505928D01*
X104212758Y-83260063D01*
X104214696Y-83257163D01*
X104324734Y-83092480D01*
X104360609Y-83038789D01*
X104548789Y-82850609D01*
X104722215Y-82734729D01*
X104770061Y-82702759D01*
X104889411Y-82653323D01*
X105015928Y-82600918D01*
X105276937Y-82549000D01*
X105543063Y-82549000D01*
X105804072Y-82600918D01*
X105804072Y-82600918D01*
G37*
G36*
X116871000Y-85038000D02*
G01*
X115069000Y-85038000D01*
X115069000Y-84136000D01*
X116871000Y-84136000D01*
X116871000Y-85038000D01*
X116871000Y-85038000D01*
G37*
G36*
X140202228Y-81731703D02*
G01*
X140357100Y-81795853D01*
X140496481Y-81888985D01*
X140615015Y-82007519D01*
X140708147Y-82146900D01*
X140772297Y-82301772D01*
X140805000Y-82466184D01*
X140805000Y-82633816D01*
X140772297Y-82798228D01*
X140708147Y-82953100D01*
X140615015Y-83092481D01*
X140496481Y-83211015D01*
X140357100Y-83304147D01*
X140202228Y-83368297D01*
X140037816Y-83401000D01*
X139870184Y-83401000D01*
X139705772Y-83368297D01*
X139550900Y-83304147D01*
X139411519Y-83211015D01*
X139292985Y-83092481D01*
X139199853Y-82953100D01*
X139135703Y-82798228D01*
X139103000Y-82633816D01*
X139103000Y-82466184D01*
X139135703Y-82301772D01*
X139199853Y-82146900D01*
X139292985Y-82007519D01*
X139411519Y-81888985D01*
X139550900Y-81795853D01*
X139705772Y-81731703D01*
X139870184Y-81699000D01*
X140037816Y-81699000D01*
X140202228Y-81731703D01*
X140202228Y-81731703D01*
G37*
G36*
X155442228Y-81731703D02*
G01*
X155597100Y-81795853D01*
X155736481Y-81888985D01*
X155855015Y-82007519D01*
X155948147Y-82146900D01*
X156012297Y-82301772D01*
X156045000Y-82466184D01*
X156045000Y-82633816D01*
X156012297Y-82798228D01*
X155948147Y-82953100D01*
X155855015Y-83092481D01*
X155736481Y-83211015D01*
X155597100Y-83304147D01*
X155442228Y-83368297D01*
X155277816Y-83401000D01*
X155110184Y-83401000D01*
X154945772Y-83368297D01*
X154790900Y-83304147D01*
X154651519Y-83211015D01*
X154532985Y-83092481D01*
X154439853Y-82953100D01*
X154375703Y-82798228D01*
X154343000Y-82633816D01*
X154343000Y-82466184D01*
X154375703Y-82301772D01*
X154439853Y-82146900D01*
X154532985Y-82007519D01*
X154651519Y-81888985D01*
X154790900Y-81795853D01*
X154945772Y-81731703D01*
X155110184Y-81699000D01*
X155277816Y-81699000D01*
X155442228Y-81731703D01*
X155442228Y-81731703D01*
G37*
G36*
X152159562Y-81817681D02*
G01*
X152194481Y-81828274D01*
X152226663Y-81845476D01*
X152254873Y-81868627D01*
X152278024Y-81896837D01*
X152295226Y-81929019D01*
X152305819Y-81963938D01*
X152310000Y-82006395D01*
X152310000Y-83147605D01*
X152305819Y-83190062D01*
X152295226Y-83224981D01*
X152278024Y-83257163D01*
X152254873Y-83285373D01*
X152226663Y-83308524D01*
X152194481Y-83325726D01*
X152159562Y-83336319D01*
X152117105Y-83340500D01*
X150650895Y-83340500D01*
X150608438Y-83336319D01*
X150573519Y-83325726D01*
X150541337Y-83308524D01*
X150513127Y-83285373D01*
X150489976Y-83257163D01*
X150472774Y-83224981D01*
X150462181Y-83190062D01*
X150458000Y-83147605D01*
X150458000Y-82006395D01*
X150462181Y-81963938D01*
X150472774Y-81929019D01*
X150489976Y-81896837D01*
X150513127Y-81868627D01*
X150541337Y-81845476D01*
X150573519Y-81828274D01*
X150608438Y-81817681D01*
X150650895Y-81813500D01*
X152117105Y-81813500D01*
X152159562Y-81817681D01*
X152159562Y-81817681D01*
G37*
G36*
X148349562Y-81817681D02*
G01*
X148384481Y-81828274D01*
X148416663Y-81845476D01*
X148444873Y-81868627D01*
X148468024Y-81896837D01*
X148485226Y-81929019D01*
X148495819Y-81963938D01*
X148500000Y-82006395D01*
X148500000Y-83147605D01*
X148495819Y-83190062D01*
X148485226Y-83224981D01*
X148468024Y-83257163D01*
X148444873Y-83285373D01*
X148416663Y-83308524D01*
X148384481Y-83325726D01*
X148349562Y-83336319D01*
X148307105Y-83340500D01*
X146840895Y-83340500D01*
X146798438Y-83336319D01*
X146763519Y-83325726D01*
X146731337Y-83308524D01*
X146703127Y-83285373D01*
X146679976Y-83257163D01*
X146662774Y-83224981D01*
X146652181Y-83190062D01*
X146648000Y-83147605D01*
X146648000Y-82006395D01*
X146652181Y-81963938D01*
X146662774Y-81929019D01*
X146679976Y-81896837D01*
X146703127Y-81868627D01*
X146731337Y-81845476D01*
X146763519Y-81828274D01*
X146798438Y-81817681D01*
X146840895Y-81813500D01*
X148307105Y-81813500D01*
X148349562Y-81817681D01*
X148349562Y-81817681D01*
G37*
G36*
X144539562Y-81816081D02*
G01*
X144574481Y-81826674D01*
X144606663Y-81843876D01*
X144634873Y-81867027D01*
X144658024Y-81895237D01*
X144675226Y-81927419D01*
X144685819Y-81962338D01*
X144690000Y-82004795D01*
X144690000Y-83146005D01*
X144685819Y-83188462D01*
X144675226Y-83223381D01*
X144658024Y-83255563D01*
X144634873Y-83283773D01*
X144606663Y-83306924D01*
X144574481Y-83324126D01*
X144539562Y-83334719D01*
X144497105Y-83338900D01*
X143030895Y-83338900D01*
X142988438Y-83334719D01*
X142953519Y-83324126D01*
X142921337Y-83306924D01*
X142893127Y-83283773D01*
X142869976Y-83255563D01*
X142852774Y-83223381D01*
X142842181Y-83188462D01*
X142838000Y-83146005D01*
X142838000Y-82004795D01*
X142842181Y-81962338D01*
X142852774Y-81927419D01*
X142869976Y-81895237D01*
X142893127Y-81867027D01*
X142921337Y-81843876D01*
X142953519Y-81826674D01*
X142988438Y-81816081D01*
X143030895Y-81811900D01*
X144497105Y-81811900D01*
X144539562Y-81816081D01*
X144539562Y-81816081D01*
G37*
G36*
X136056823Y-81647813D02*
G01*
X136217242Y-81696476D01*
X136284361Y-81732352D01*
X136365078Y-81775496D01*
X136494659Y-81881841D01*
X136601004Y-82011422D01*
X136601005Y-82011424D01*
X136680024Y-82159258D01*
X136728687Y-82319677D01*
X136745117Y-82486500D01*
X136728687Y-82653323D01*
X136680024Y-82813742D01*
X136639477Y-82889600D01*
X136601004Y-82961578D01*
X136494659Y-83091159D01*
X136365078Y-83197504D01*
X136365076Y-83197505D01*
X136217242Y-83276524D01*
X136217239Y-83276525D01*
X136188071Y-83285373D01*
X136056823Y-83325187D01*
X135931804Y-83337500D01*
X135848196Y-83337500D01*
X135723177Y-83325187D01*
X135591929Y-83285373D01*
X135562761Y-83276525D01*
X135562758Y-83276524D01*
X135414924Y-83197505D01*
X135414922Y-83197504D01*
X135285341Y-83091159D01*
X135178996Y-82961578D01*
X135140523Y-82889600D01*
X135099976Y-82813742D01*
X135051313Y-82653323D01*
X135034883Y-82486500D01*
X135051313Y-82319677D01*
X135099976Y-82159258D01*
X135178995Y-82011424D01*
X135178996Y-82011422D01*
X135285341Y-81881841D01*
X135414922Y-81775496D01*
X135495639Y-81732352D01*
X135562758Y-81696476D01*
X135723177Y-81647813D01*
X135848196Y-81635500D01*
X135931804Y-81635500D01*
X136056823Y-81647813D01*
X136056823Y-81647813D01*
G37*
G36*
X125978228Y-81668203D02*
G01*
X126133100Y-81732353D01*
X126272481Y-81825485D01*
X126391015Y-81944019D01*
X126484147Y-82083400D01*
X126548297Y-82238272D01*
X126581000Y-82402684D01*
X126581000Y-82570316D01*
X126548297Y-82734728D01*
X126484147Y-82889600D01*
X126391015Y-83028981D01*
X126272481Y-83147515D01*
X126133100Y-83240647D01*
X125978228Y-83304797D01*
X125813816Y-83337500D01*
X125646184Y-83337500D01*
X125481772Y-83304797D01*
X125326900Y-83240647D01*
X125187519Y-83147515D01*
X125068985Y-83028981D01*
X124975853Y-82889600D01*
X124911703Y-82734728D01*
X124879000Y-82570316D01*
X124879000Y-82402684D01*
X124911703Y-82238272D01*
X124975853Y-82083400D01*
X125068985Y-81944019D01*
X125187519Y-81825485D01*
X125326900Y-81732353D01*
X125481772Y-81668203D01*
X125646184Y-81635500D01*
X125813816Y-81635500D01*
X125978228Y-81668203D01*
X125978228Y-81668203D01*
G37*
G36*
X140202228Y-79231703D02*
G01*
X140357100Y-79295853D01*
X140496481Y-79388985D01*
X140615015Y-79507519D01*
X140708147Y-79646900D01*
X140772297Y-79801772D01*
X140805000Y-79966184D01*
X140805000Y-80133816D01*
X140772297Y-80298228D01*
X140708147Y-80453100D01*
X140615015Y-80592481D01*
X140496481Y-80711015D01*
X140357100Y-80804147D01*
X140202228Y-80868297D01*
X140037816Y-80901000D01*
X139870184Y-80901000D01*
X139705772Y-80868297D01*
X139550900Y-80804147D01*
X139411519Y-80711015D01*
X139292985Y-80592481D01*
X139199853Y-80453100D01*
X139135703Y-80298228D01*
X139103000Y-80133816D01*
X139103000Y-79966184D01*
X139135703Y-79801772D01*
X139199853Y-79646900D01*
X139292985Y-79507519D01*
X139411519Y-79388985D01*
X139550900Y-79295853D01*
X139705772Y-79231703D01*
X139870184Y-79199000D01*
X140037816Y-79199000D01*
X140202228Y-79231703D01*
X140202228Y-79231703D01*
G37*
G36*
X155442228Y-79231703D02*
G01*
X155597100Y-79295853D01*
X155736481Y-79388985D01*
X155855015Y-79507519D01*
X155948147Y-79646900D01*
X156012297Y-79801772D01*
X156045000Y-79966184D01*
X156045000Y-80133816D01*
X156012297Y-80298228D01*
X155948147Y-80453100D01*
X155855015Y-80592481D01*
X155736481Y-80711015D01*
X155597100Y-80804147D01*
X155442228Y-80868297D01*
X155277816Y-80901000D01*
X155110184Y-80901000D01*
X154945772Y-80868297D01*
X154790900Y-80804147D01*
X154651519Y-80711015D01*
X154532985Y-80592481D01*
X154439853Y-80453100D01*
X154375703Y-80298228D01*
X154343000Y-80133816D01*
X154343000Y-79966184D01*
X154375703Y-79801772D01*
X154439853Y-79646900D01*
X154532985Y-79507519D01*
X154651519Y-79388985D01*
X154790900Y-79295853D01*
X154945772Y-79231703D01*
X155110184Y-79199000D01*
X155277816Y-79199000D01*
X155442228Y-79231703D01*
X155442228Y-79231703D01*
G37*
G36*
X148349562Y-78842681D02*
G01*
X148384481Y-78853274D01*
X148416663Y-78870476D01*
X148444873Y-78893627D01*
X148468024Y-78921837D01*
X148485226Y-78954019D01*
X148495819Y-78988938D01*
X148500000Y-79031395D01*
X148500000Y-80172605D01*
X148495819Y-80215062D01*
X148485226Y-80249981D01*
X148468024Y-80282163D01*
X148444873Y-80310373D01*
X148416663Y-80333524D01*
X148384481Y-80350726D01*
X148349562Y-80361319D01*
X148307105Y-80365500D01*
X146840895Y-80365500D01*
X146798438Y-80361319D01*
X146763519Y-80350726D01*
X146731337Y-80333524D01*
X146703127Y-80310373D01*
X146679976Y-80282163D01*
X146662774Y-80249981D01*
X146652181Y-80215062D01*
X146648000Y-80172605D01*
X146648000Y-79031395D01*
X146652181Y-78988938D01*
X146662774Y-78954019D01*
X146679976Y-78921837D01*
X146703127Y-78893627D01*
X146731337Y-78870476D01*
X146763519Y-78853274D01*
X146798438Y-78842681D01*
X146840895Y-78838500D01*
X148307105Y-78838500D01*
X148349562Y-78842681D01*
X148349562Y-78842681D01*
G37*
G36*
X152159562Y-78842681D02*
G01*
X152194481Y-78853274D01*
X152226663Y-78870476D01*
X152254873Y-78893627D01*
X152278024Y-78921837D01*
X152295226Y-78954019D01*
X152305819Y-78988938D01*
X152310000Y-79031395D01*
X152310000Y-80172605D01*
X152305819Y-80215062D01*
X152295226Y-80249981D01*
X152278024Y-80282163D01*
X152254873Y-80310373D01*
X152226663Y-80333524D01*
X152194481Y-80350726D01*
X152159562Y-80361319D01*
X152117105Y-80365500D01*
X150650895Y-80365500D01*
X150608438Y-80361319D01*
X150573519Y-80350726D01*
X150541337Y-80333524D01*
X150513127Y-80310373D01*
X150489976Y-80282163D01*
X150472774Y-80249981D01*
X150462181Y-80215062D01*
X150458000Y-80172605D01*
X150458000Y-79031395D01*
X150462181Y-78988938D01*
X150472774Y-78954019D01*
X150489976Y-78921837D01*
X150513127Y-78893627D01*
X150541337Y-78870476D01*
X150573519Y-78853274D01*
X150608438Y-78842681D01*
X150650895Y-78838500D01*
X152117105Y-78838500D01*
X152159562Y-78842681D01*
X152159562Y-78842681D01*
G37*
G36*
X144539562Y-78841081D02*
G01*
X144574481Y-78851674D01*
X144606663Y-78868876D01*
X144634873Y-78892027D01*
X144658024Y-78920237D01*
X144675226Y-78952419D01*
X144685819Y-78987338D01*
X144690000Y-79029795D01*
X144690000Y-80171005D01*
X144685819Y-80213462D01*
X144675226Y-80248381D01*
X144658024Y-80280563D01*
X144634873Y-80308773D01*
X144606663Y-80331924D01*
X144574481Y-80349126D01*
X144539562Y-80359719D01*
X144497105Y-80363900D01*
X143030895Y-80363900D01*
X142988438Y-80359719D01*
X142953519Y-80349126D01*
X142921337Y-80331924D01*
X142893127Y-80308773D01*
X142869976Y-80280563D01*
X142852774Y-80248381D01*
X142842181Y-80213462D01*
X142838000Y-80171005D01*
X142838000Y-79029795D01*
X142842181Y-78987338D01*
X142852774Y-78952419D01*
X142869976Y-78920237D01*
X142893127Y-78892027D01*
X142921337Y-78868876D01*
X142953519Y-78851674D01*
X142988438Y-78841081D01*
X143030895Y-78836900D01*
X144497105Y-78836900D01*
X144539562Y-78841081D01*
X144539562Y-78841081D01*
G37*
G36*
X132004062Y-78453181D02*
G01*
X132038981Y-78463774D01*
X132071163Y-78480976D01*
X132099373Y-78504127D01*
X132122524Y-78532337D01*
X132139726Y-78564519D01*
X132150319Y-78599438D01*
X132154500Y-78641895D01*
X132154500Y-80108105D01*
X132150319Y-80150562D01*
X132139726Y-80185481D01*
X132122524Y-80217663D01*
X132099373Y-80245873D01*
X132071163Y-80269024D01*
X132038981Y-80286226D01*
X132004062Y-80296819D01*
X131961605Y-80301000D01*
X130820395Y-80301000D01*
X130777938Y-80296819D01*
X130743019Y-80286226D01*
X130710837Y-80269024D01*
X130682627Y-80245873D01*
X130659476Y-80217663D01*
X130642274Y-80185481D01*
X130631681Y-80150562D01*
X130627500Y-80108105D01*
X130627500Y-78641895D01*
X130631681Y-78599438D01*
X130642274Y-78564519D01*
X130659476Y-78532337D01*
X130682627Y-78504127D01*
X130710837Y-78480976D01*
X130743019Y-78463774D01*
X130777938Y-78453181D01*
X130820395Y-78449000D01*
X131961605Y-78449000D01*
X132004062Y-78453181D01*
X132004062Y-78453181D01*
G37*
G36*
X134979062Y-78453181D02*
G01*
X135013981Y-78463774D01*
X135046163Y-78480976D01*
X135074373Y-78504127D01*
X135097524Y-78532337D01*
X135114726Y-78564519D01*
X135125319Y-78599438D01*
X135129500Y-78641895D01*
X135129500Y-80108105D01*
X135125319Y-80150562D01*
X135114726Y-80185481D01*
X135097524Y-80217663D01*
X135074373Y-80245873D01*
X135046163Y-80269024D01*
X135013981Y-80286226D01*
X134979062Y-80296819D01*
X134936605Y-80301000D01*
X133795395Y-80301000D01*
X133752938Y-80296819D01*
X133718019Y-80286226D01*
X133685837Y-80269024D01*
X133657627Y-80245873D01*
X133634476Y-80217663D01*
X133617274Y-80185481D01*
X133606681Y-80150562D01*
X133602500Y-80108105D01*
X133602500Y-78641895D01*
X133606681Y-78599438D01*
X133617274Y-78564519D01*
X133634476Y-78532337D01*
X133657627Y-78504127D01*
X133685837Y-78480976D01*
X133718019Y-78463774D01*
X133752938Y-78453181D01*
X133795395Y-78449000D01*
X134936605Y-78449000D01*
X134979062Y-78453181D01*
X134979062Y-78453181D01*
G37*
G36*
X107758366Y-76575695D02*
G01*
X107915460Y-76623349D01*
X108060231Y-76700731D01*
X108187128Y-76804872D01*
X108291269Y-76931769D01*
X108368651Y-77076540D01*
X108416305Y-77233634D01*
X108433000Y-77403140D01*
X108433000Y-79316860D01*
X108416305Y-79486366D01*
X108368651Y-79643460D01*
X108291269Y-79788231D01*
X108187128Y-79915128D01*
X108060231Y-80019269D01*
X107915460Y-80096651D01*
X107758366Y-80144305D01*
X107588860Y-80161000D01*
X105675140Y-80161000D01*
X105505634Y-80144305D01*
X105348540Y-80096651D01*
X105203769Y-80019269D01*
X105076872Y-79915128D01*
X104972731Y-79788231D01*
X104895349Y-79643460D01*
X104847695Y-79486366D01*
X104831000Y-79316860D01*
X104831000Y-77403140D01*
X104847695Y-77233634D01*
X104895349Y-77076540D01*
X104972731Y-76931769D01*
X105076872Y-76804872D01*
X105203769Y-76700731D01*
X105348540Y-76623349D01*
X105505634Y-76575695D01*
X105675140Y-76559000D01*
X107588860Y-76559000D01*
X107758366Y-76575695D01*
X107758366Y-76575695D01*
G37*
G36*
X161928702Y-76490208D02*
G01*
X162237561Y-76583899D01*
X162522206Y-76736045D01*
X162771700Y-76940800D01*
X162976455Y-77190294D01*
X163128601Y-77474939D01*
X163222292Y-77783798D01*
X163253928Y-78105000D01*
X163222292Y-78426202D01*
X163128601Y-78735061D01*
X162976455Y-79019706D01*
X162771700Y-79269200D01*
X162522206Y-79473955D01*
X162237561Y-79626101D01*
X161928702Y-79719792D01*
X161687993Y-79743500D01*
X158352007Y-79743500D01*
X158111298Y-79719792D01*
X157802439Y-79626101D01*
X157517794Y-79473955D01*
X157268300Y-79269200D01*
X157063545Y-79019706D01*
X156911399Y-78735061D01*
X156817708Y-78426202D01*
X156786072Y-78105000D01*
X156817708Y-77783798D01*
X156911399Y-77474939D01*
X157063545Y-77190294D01*
X157268300Y-76940800D01*
X157517794Y-76736045D01*
X157802439Y-76583899D01*
X158111298Y-76490208D01*
X158352007Y-76466500D01*
X161687993Y-76466500D01*
X161928702Y-76490208D01*
X161928702Y-76490208D01*
G37*
G36*
X125866703Y-74982271D02*
G01*
X126086153Y-75025922D01*
X126178194Y-75064047D01*
X126308359Y-75117963D01*
X126508342Y-75251587D01*
X126678413Y-75421658D01*
X126812037Y-75621641D01*
X126865953Y-75751806D01*
X126896177Y-75824772D01*
X126904078Y-75843848D01*
X126951000Y-76079741D01*
X126951000Y-76320259D01*
X126934892Y-76401240D01*
X126904078Y-76556153D01*
X126893133Y-76582576D01*
X126812037Y-76778359D01*
X126678413Y-76978342D01*
X126508342Y-77148413D01*
X126308359Y-77282037D01*
X126178194Y-77335953D01*
X126086153Y-77374078D01*
X125850259Y-77421000D01*
X125609741Y-77421000D01*
X125373847Y-77374078D01*
X125281806Y-77335953D01*
X125151641Y-77282037D01*
X124951658Y-77148413D01*
X124781587Y-76978342D01*
X124647963Y-76778359D01*
X124566867Y-76582576D01*
X124555922Y-76556153D01*
X124525108Y-76401240D01*
X124509000Y-76320259D01*
X124509000Y-76079741D01*
X124555922Y-75843848D01*
X124563824Y-75824772D01*
X124594047Y-75751806D01*
X124647963Y-75621641D01*
X124781587Y-75421658D01*
X124951658Y-75251587D01*
X125151641Y-75117963D01*
X125281806Y-75064047D01*
X125373847Y-75025922D01*
X125593297Y-74982271D01*
X125609741Y-74979000D01*
X125850259Y-74979000D01*
X125866703Y-74982271D01*
X125866703Y-74982271D01*
G37*
G36*
X120866703Y-74982271D02*
G01*
X121086153Y-75025922D01*
X121178194Y-75064047D01*
X121308359Y-75117963D01*
X121508342Y-75251587D01*
X121678413Y-75421658D01*
X121812037Y-75621641D01*
X121865953Y-75751806D01*
X121896177Y-75824772D01*
X121904078Y-75843848D01*
X121951000Y-76079741D01*
X121951000Y-76320259D01*
X121934892Y-76401240D01*
X121904078Y-76556153D01*
X121893133Y-76582576D01*
X121812037Y-76778359D01*
X121678413Y-76978342D01*
X121508342Y-77148413D01*
X121308359Y-77282037D01*
X121178194Y-77335953D01*
X121086153Y-77374078D01*
X120850259Y-77421000D01*
X120609741Y-77421000D01*
X120373847Y-77374078D01*
X120281806Y-77335953D01*
X120151641Y-77282037D01*
X119951658Y-77148413D01*
X119781587Y-76978342D01*
X119647963Y-76778359D01*
X119566867Y-76582576D01*
X119555922Y-76556153D01*
X119525108Y-76401240D01*
X119509000Y-76320259D01*
X119509000Y-76079741D01*
X119555922Y-75843848D01*
X119563824Y-75824772D01*
X119594047Y-75751806D01*
X119647963Y-75621641D01*
X119781587Y-75421658D01*
X119951658Y-75251587D01*
X120151641Y-75117963D01*
X120281806Y-75064047D01*
X120373847Y-75025922D01*
X120593297Y-74982271D01*
X120609741Y-74979000D01*
X120850259Y-74979000D01*
X120866703Y-74982271D01*
X120866703Y-74982271D01*
G37*
G36*
X115866703Y-74982271D02*
G01*
X116086153Y-75025922D01*
X116178194Y-75064047D01*
X116308359Y-75117963D01*
X116508342Y-75251587D01*
X116678413Y-75421658D01*
X116812037Y-75621641D01*
X116865953Y-75751806D01*
X116896177Y-75824772D01*
X116904078Y-75843848D01*
X116951000Y-76079741D01*
X116951000Y-76320259D01*
X116934892Y-76401240D01*
X116904078Y-76556153D01*
X116893133Y-76582576D01*
X116812037Y-76778359D01*
X116678413Y-76978342D01*
X116508342Y-77148413D01*
X116308359Y-77282037D01*
X116178194Y-77335953D01*
X116086153Y-77374078D01*
X115850259Y-77421000D01*
X115609741Y-77421000D01*
X115373847Y-77374078D01*
X115281806Y-77335953D01*
X115151641Y-77282037D01*
X114951658Y-77148413D01*
X114781587Y-76978342D01*
X114647963Y-76778359D01*
X114566867Y-76582576D01*
X114555922Y-76556153D01*
X114525108Y-76401240D01*
X114509000Y-76320259D01*
X114509000Y-76079741D01*
X114555922Y-75843848D01*
X114563824Y-75824772D01*
X114594047Y-75751806D01*
X114647963Y-75621641D01*
X114781587Y-75421658D01*
X114951658Y-75251587D01*
X115151641Y-75117963D01*
X115281806Y-75064047D01*
X115373847Y-75025922D01*
X115593297Y-74982271D01*
X115609741Y-74979000D01*
X115850259Y-74979000D01*
X115866703Y-74982271D01*
X115866703Y-74982271D01*
G37*
G36*
X141106703Y-74982271D02*
G01*
X141326153Y-75025922D01*
X141418194Y-75064047D01*
X141548359Y-75117963D01*
X141748342Y-75251587D01*
X141918413Y-75421658D01*
X142052037Y-75621641D01*
X142105953Y-75751806D01*
X142136177Y-75824772D01*
X142144078Y-75843848D01*
X142191000Y-76079741D01*
X142191000Y-76320259D01*
X142174892Y-76401240D01*
X142144078Y-76556153D01*
X142133133Y-76582576D01*
X142052037Y-76778359D01*
X141918413Y-76978342D01*
X141748342Y-77148413D01*
X141548359Y-77282037D01*
X141418194Y-77335953D01*
X141326153Y-77374078D01*
X141090259Y-77421000D01*
X140849741Y-77421000D01*
X140613847Y-77374078D01*
X140521806Y-77335953D01*
X140391641Y-77282037D01*
X140191658Y-77148413D01*
X140021587Y-76978342D01*
X139887963Y-76778359D01*
X139806867Y-76582576D01*
X139795922Y-76556153D01*
X139765108Y-76401240D01*
X139749000Y-76320259D01*
X139749000Y-76079741D01*
X139795922Y-75843848D01*
X139803824Y-75824772D01*
X139834047Y-75751806D01*
X139887963Y-75621641D01*
X140021587Y-75421658D01*
X140191658Y-75251587D01*
X140391641Y-75117963D01*
X140521806Y-75064047D01*
X140613847Y-75025922D01*
X140833297Y-74982271D01*
X140849741Y-74979000D01*
X141090259Y-74979000D01*
X141106703Y-74982271D01*
X141106703Y-74982271D01*
G37*
G36*
X146106703Y-74982271D02*
G01*
X146326153Y-75025922D01*
X146418194Y-75064047D01*
X146548359Y-75117963D01*
X146748342Y-75251587D01*
X146918413Y-75421658D01*
X147052037Y-75621641D01*
X147105953Y-75751806D01*
X147136177Y-75824772D01*
X147144078Y-75843848D01*
X147191000Y-76079741D01*
X147191000Y-76320259D01*
X147174892Y-76401240D01*
X147144078Y-76556153D01*
X147133133Y-76582576D01*
X147052037Y-76778359D01*
X146918413Y-76978342D01*
X146748342Y-77148413D01*
X146548359Y-77282037D01*
X146418194Y-77335953D01*
X146326153Y-77374078D01*
X146090259Y-77421000D01*
X145849741Y-77421000D01*
X145613847Y-77374078D01*
X145521806Y-77335953D01*
X145391641Y-77282037D01*
X145191658Y-77148413D01*
X145021587Y-76978342D01*
X144887963Y-76778359D01*
X144806867Y-76582576D01*
X144795922Y-76556153D01*
X144765108Y-76401240D01*
X144749000Y-76320259D01*
X144749000Y-76079741D01*
X144795922Y-75843848D01*
X144803824Y-75824772D01*
X144834047Y-75751806D01*
X144887963Y-75621641D01*
X145021587Y-75421658D01*
X145191658Y-75251587D01*
X145391641Y-75117963D01*
X145521806Y-75064047D01*
X145613847Y-75025922D01*
X145833297Y-74982271D01*
X145849741Y-74979000D01*
X146090259Y-74979000D01*
X146106703Y-74982271D01*
X146106703Y-74982271D01*
G37*
G36*
X151106703Y-74982271D02*
G01*
X151326153Y-75025922D01*
X151418194Y-75064047D01*
X151548359Y-75117963D01*
X151748342Y-75251587D01*
X151918413Y-75421658D01*
X152052037Y-75621641D01*
X152105953Y-75751806D01*
X152136177Y-75824772D01*
X152144078Y-75843848D01*
X152191000Y-76079741D01*
X152191000Y-76320259D01*
X152174892Y-76401240D01*
X152144078Y-76556153D01*
X152133133Y-76582576D01*
X152052037Y-76778359D01*
X151918413Y-76978342D01*
X151748342Y-77148413D01*
X151548359Y-77282037D01*
X151418194Y-77335953D01*
X151326153Y-77374078D01*
X151090259Y-77421000D01*
X150849741Y-77421000D01*
X150613847Y-77374078D01*
X150521806Y-77335953D01*
X150391641Y-77282037D01*
X150191658Y-77148413D01*
X150021587Y-76978342D01*
X149887963Y-76778359D01*
X149806867Y-76582576D01*
X149795922Y-76556153D01*
X149765108Y-76401240D01*
X149749000Y-76320259D01*
X149749000Y-76079741D01*
X149795922Y-75843848D01*
X149803824Y-75824772D01*
X149834047Y-75751806D01*
X149887963Y-75621641D01*
X150021587Y-75421658D01*
X150191658Y-75251587D01*
X150391641Y-75117963D01*
X150521806Y-75064047D01*
X150613847Y-75025922D01*
X150833297Y-74982271D01*
X150849741Y-74979000D01*
X151090259Y-74979000D01*
X151106703Y-74982271D01*
X151106703Y-74982271D01*
G37*
G36*
X173512493Y-74492817D02*
G01*
X173617180Y-74524573D01*
X173713651Y-74576138D01*
X173798214Y-74645536D01*
X173867612Y-74730099D01*
X173919177Y-74826570D01*
X173950933Y-74931257D01*
X173962260Y-75046260D01*
X173962260Y-76401240D01*
X173950933Y-76516243D01*
X173919177Y-76620930D01*
X173867612Y-76717401D01*
X173798214Y-76801964D01*
X173713651Y-76871362D01*
X173617180Y-76922927D01*
X173512493Y-76954683D01*
X173397490Y-76966010D01*
X172042510Y-76966010D01*
X171927507Y-76954683D01*
X171822820Y-76922927D01*
X171726349Y-76871362D01*
X171641786Y-76801964D01*
X171572388Y-76717401D01*
X171520823Y-76620930D01*
X171489067Y-76516243D01*
X171477740Y-76401240D01*
X171477740Y-75046260D01*
X171489067Y-74931257D01*
X171520823Y-74826570D01*
X171572388Y-74730099D01*
X171641786Y-74645536D01*
X171726349Y-74576138D01*
X171822820Y-74524573D01*
X171927507Y-74492817D01*
X172042510Y-74481490D01*
X173397490Y-74481490D01*
X173512493Y-74492817D01*
X173512493Y-74492817D01*
G37*
G36*
X134193228Y-75254703D02*
G01*
X134348100Y-75318853D01*
X134487481Y-75411985D01*
X134606015Y-75530519D01*
X134699147Y-75669900D01*
X134763297Y-75824772D01*
X134796000Y-75989184D01*
X134796000Y-76156816D01*
X134763297Y-76321228D01*
X134699147Y-76476100D01*
X134606015Y-76615481D01*
X134487481Y-76734015D01*
X134348100Y-76827147D01*
X134193228Y-76891297D01*
X134028816Y-76924000D01*
X133861184Y-76924000D01*
X133696772Y-76891297D01*
X133541900Y-76827147D01*
X133402519Y-76734015D01*
X133283985Y-76615481D01*
X133190853Y-76476100D01*
X133126703Y-76321228D01*
X133094000Y-76156816D01*
X133094000Y-75989184D01*
X133126703Y-75824772D01*
X133190853Y-75669900D01*
X133283985Y-75530519D01*
X133402519Y-75411985D01*
X133541900Y-75318853D01*
X133696772Y-75254703D01*
X133861184Y-75222000D01*
X134028816Y-75222000D01*
X134193228Y-75254703D01*
X134193228Y-75254703D01*
G37*
G36*
X131693228Y-75254703D02*
G01*
X131848100Y-75318853D01*
X131987481Y-75411985D01*
X132106015Y-75530519D01*
X132199147Y-75669900D01*
X132263297Y-75824772D01*
X132296000Y-75989184D01*
X132296000Y-76156816D01*
X132263297Y-76321228D01*
X132199147Y-76476100D01*
X132106015Y-76615481D01*
X131987481Y-76734015D01*
X131848100Y-76827147D01*
X131693228Y-76891297D01*
X131528816Y-76924000D01*
X131361184Y-76924000D01*
X131196772Y-76891297D01*
X131041900Y-76827147D01*
X130902519Y-76734015D01*
X130783985Y-76615481D01*
X130690853Y-76476100D01*
X130626703Y-76321228D01*
X130594000Y-76156816D01*
X130594000Y-75989184D01*
X130626703Y-75824772D01*
X130690853Y-75669900D01*
X130783985Y-75530519D01*
X130902519Y-75411985D01*
X131041900Y-75318853D01*
X131196772Y-75254703D01*
X131361184Y-75222000D01*
X131528816Y-75222000D01*
X131693228Y-75254703D01*
X131693228Y-75254703D01*
G37*
G36*
X111433000Y-75461000D02*
G01*
X107831000Y-75461000D01*
X107831000Y-71859000D01*
X111433000Y-71859000D01*
X111433000Y-75461000D01*
X111433000Y-75461000D01*
G37*
G36*
X104608979Y-71873293D02*
G01*
X104742625Y-71913834D01*
X104865784Y-71979664D01*
X104973740Y-72068260D01*
X105062336Y-72176216D01*
X105128166Y-72299375D01*
X105168707Y-72433021D01*
X105183000Y-72578140D01*
X105183000Y-74741860D01*
X105168707Y-74886979D01*
X105128166Y-75020625D01*
X105062336Y-75143784D01*
X104973740Y-75251740D01*
X104865784Y-75340336D01*
X104742625Y-75406166D01*
X104608979Y-75446707D01*
X104463860Y-75461000D01*
X102800140Y-75461000D01*
X102655021Y-75446707D01*
X102521375Y-75406166D01*
X102398216Y-75340336D01*
X102290260Y-75251740D01*
X102201664Y-75143784D01*
X102135834Y-75020625D01*
X102095293Y-74886979D01*
X102081000Y-74741860D01*
X102081000Y-72578140D01*
X102095293Y-72433021D01*
X102135834Y-72299375D01*
X102201664Y-72176216D01*
X102290260Y-72068260D01*
X102398216Y-71979664D01*
X102521375Y-71913834D01*
X102655021Y-71873293D01*
X102800140Y-71859000D01*
X104463860Y-71859000D01*
X104608979Y-71873293D01*
X104608979Y-71873293D01*
G37*
G36*
X161928702Y-71727708D02*
G01*
X162237561Y-71821399D01*
X162522206Y-71973545D01*
X162771700Y-72178300D01*
X162976455Y-72427794D01*
X163128601Y-72712439D01*
X163222292Y-73021298D01*
X163253928Y-73342500D01*
X163222292Y-73663702D01*
X163128601Y-73972561D01*
X162976455Y-74257206D01*
X162771700Y-74506700D01*
X162522206Y-74711455D01*
X162237561Y-74863601D01*
X161928702Y-74957292D01*
X161687993Y-74981000D01*
X158352007Y-74981000D01*
X158111298Y-74957292D01*
X157802439Y-74863601D01*
X157517794Y-74711455D01*
X157268300Y-74506700D01*
X157063545Y-74257206D01*
X156911399Y-73972561D01*
X156817708Y-73663702D01*
X156786072Y-73342500D01*
X156817708Y-73021298D01*
X156911399Y-72712439D01*
X157063545Y-72427794D01*
X157268300Y-72178300D01*
X157517794Y-71973545D01*
X157802439Y-71821399D01*
X158111298Y-71727708D01*
X158352007Y-71704000D01*
X161687993Y-71704000D01*
X161928702Y-71727708D01*
X161928702Y-71727708D01*
G37*
G36*
X173512493Y-69730317D02*
G01*
X173617180Y-69762073D01*
X173713651Y-69813638D01*
X173798214Y-69883036D01*
X173867612Y-69967599D01*
X173919177Y-70064070D01*
X173950933Y-70168757D01*
X173962260Y-70283760D01*
X173962260Y-71638740D01*
X173950933Y-71753743D01*
X173919177Y-71858430D01*
X173867612Y-71954901D01*
X173798214Y-72039464D01*
X173713651Y-72108862D01*
X173617180Y-72160427D01*
X173512493Y-72192183D01*
X173397490Y-72203510D01*
X172042510Y-72203510D01*
X171927507Y-72192183D01*
X171822820Y-72160427D01*
X171726349Y-72108862D01*
X171641786Y-72039464D01*
X171572388Y-71954901D01*
X171520823Y-71858430D01*
X171489067Y-71753743D01*
X171477740Y-71638740D01*
X171477740Y-70283760D01*
X171489067Y-70168757D01*
X171520823Y-70064070D01*
X171572388Y-69967599D01*
X171641786Y-69883036D01*
X171726349Y-69813638D01*
X171822820Y-69762073D01*
X171927507Y-69730317D01*
X172042510Y-69718990D01*
X173397490Y-69718990D01*
X173512493Y-69730317D01*
X173512493Y-69730317D01*
G37*
G36*
X161928702Y-66965208D02*
G01*
X162237561Y-67058899D01*
X162522206Y-67211045D01*
X162771700Y-67415800D01*
X162976455Y-67665294D01*
X163128601Y-67949939D01*
X163222292Y-68258798D01*
X163253928Y-68580000D01*
X163222292Y-68901202D01*
X163128601Y-69210061D01*
X162976455Y-69494706D01*
X162771700Y-69744200D01*
X162522206Y-69948955D01*
X162237561Y-70101101D01*
X161928702Y-70194792D01*
X161687993Y-70218500D01*
X158352007Y-70218500D01*
X158111298Y-70194792D01*
X157802439Y-70101101D01*
X157517794Y-69948955D01*
X157268300Y-69744200D01*
X157063545Y-69494706D01*
X156911399Y-69210061D01*
X156817708Y-68901202D01*
X156786072Y-68580000D01*
X156817708Y-68258798D01*
X156911399Y-67949939D01*
X157063545Y-67665294D01*
X157268300Y-67415800D01*
X157517794Y-67211045D01*
X157802439Y-67058899D01*
X158111298Y-66965208D01*
X158352007Y-66941500D01*
X161687993Y-66941500D01*
X161928702Y-66965208D01*
X161928702Y-66965208D01*
G37*
G36*
X165875562Y-64228181D02*
G01*
X165910481Y-64238774D01*
X165942663Y-64255976D01*
X165970873Y-64279127D01*
X165994024Y-64307337D01*
X166011226Y-64339519D01*
X166021819Y-64374438D01*
X166026000Y-64416895D01*
X166026000Y-65558105D01*
X166021819Y-65600562D01*
X166011226Y-65635481D01*
X165994024Y-65667663D01*
X165970873Y-65695873D01*
X165942663Y-65719024D01*
X165910481Y-65736226D01*
X165875562Y-65746819D01*
X165833105Y-65751000D01*
X164366895Y-65751000D01*
X164324438Y-65746819D01*
X164289519Y-65736226D01*
X164257337Y-65719024D01*
X164229127Y-65695873D01*
X164205976Y-65667663D01*
X164188774Y-65635481D01*
X164178181Y-65600562D01*
X164174000Y-65558105D01*
X164174000Y-64416895D01*
X164178181Y-64374438D01*
X164188774Y-64339519D01*
X164205976Y-64307337D01*
X164229127Y-64279127D01*
X164257337Y-64255976D01*
X164289519Y-64238774D01*
X164324438Y-64228181D01*
X164366895Y-64224000D01*
X165833105Y-64224000D01*
X165875562Y-64228181D01*
X165875562Y-64228181D01*
G37*
G36*
X103164666Y-61508527D02*
G01*
X103348301Y-61545054D01*
X103694261Y-61688356D01*
X104005617Y-61896397D01*
X104270403Y-62161183D01*
X104478444Y-62472539D01*
X104621746Y-62818499D01*
X104694800Y-63185768D01*
X104694800Y-63560232D01*
X104621746Y-63927501D01*
X104478444Y-64273461D01*
X104270403Y-64584817D01*
X104005617Y-64849603D01*
X103694261Y-65057644D01*
X103348301Y-65200946D01*
X103164666Y-65237473D01*
X102981033Y-65274000D01*
X102606567Y-65274000D01*
X102422934Y-65237473D01*
X102239299Y-65200946D01*
X101893339Y-65057644D01*
X101581983Y-64849603D01*
X101317197Y-64584817D01*
X101109156Y-64273461D01*
X100965854Y-63927501D01*
X100892800Y-63560232D01*
X100892800Y-63185768D01*
X100965854Y-62818499D01*
X101109156Y-62472539D01*
X101317197Y-62161183D01*
X101581983Y-61896397D01*
X101893339Y-61688356D01*
X102239299Y-61545054D01*
X102422934Y-61508527D01*
X102606567Y-61472000D01*
X102981033Y-61472000D01*
X103164666Y-61508527D01*
X103164666Y-61508527D01*
G37*
G36*
X171871666Y-61508527D02*
G01*
X172055301Y-61545054D01*
X172401261Y-61688356D01*
X172712617Y-61896397D01*
X172977403Y-62161183D01*
X173185444Y-62472539D01*
X173328746Y-62818499D01*
X173401800Y-63185768D01*
X173401800Y-63560232D01*
X173328746Y-63927501D01*
X173185444Y-64273461D01*
X172977403Y-64584817D01*
X172712617Y-64849603D01*
X172401261Y-65057644D01*
X172055301Y-65200946D01*
X171871666Y-65237473D01*
X171688033Y-65274000D01*
X171313567Y-65274000D01*
X171129934Y-65237473D01*
X170946299Y-65200946D01*
X170600339Y-65057644D01*
X170288983Y-64849603D01*
X170024197Y-64584817D01*
X169816156Y-64273461D01*
X169672854Y-63927501D01*
X169599800Y-63560232D01*
X169599800Y-63185768D01*
X169672854Y-62818499D01*
X169816156Y-62472539D01*
X170024197Y-62161183D01*
X170288983Y-61896397D01*
X170600339Y-61688356D01*
X170946299Y-61545054D01*
X171129934Y-61508527D01*
X171313567Y-61472000D01*
X171688033Y-61472000D01*
X171871666Y-61508527D01*
X171871666Y-61508527D01*
G37*
G36*
X157874072Y-62200918D02*
G01*
X158119939Y-62302759D01*
X158231328Y-62377187D01*
X158341211Y-62450609D01*
X158529391Y-62638789D01*
X158646067Y-62813406D01*
X158661613Y-62832348D01*
X158680555Y-62847893D01*
X158702165Y-62859444D01*
X158725614Y-62866557D01*
X158750000Y-62868959D01*
X158774386Y-62866557D01*
X158797835Y-62859444D01*
X158819446Y-62847893D01*
X158838388Y-62832347D01*
X158853933Y-62813406D01*
X158970609Y-62638789D01*
X159158789Y-62450609D01*
X159268672Y-62377187D01*
X159380061Y-62302759D01*
X159625928Y-62200918D01*
X159886937Y-62149000D01*
X160153063Y-62149000D01*
X160414072Y-62200918D01*
X160659939Y-62302759D01*
X160771328Y-62377187D01*
X160881211Y-62450609D01*
X161069391Y-62638789D01*
X161108644Y-62697535D01*
X161217241Y-62860061D01*
X161319082Y-63105928D01*
X161371000Y-63366938D01*
X161371000Y-63633062D01*
X161319082Y-63894072D01*
X161217241Y-64139939D01*
X161198723Y-64167653D01*
X161105389Y-64307337D01*
X161069390Y-64361212D01*
X160881212Y-64549390D01*
X160659939Y-64697241D01*
X160659938Y-64697242D01*
X160659937Y-64697242D01*
X160414072Y-64799082D01*
X160153063Y-64851000D01*
X159886937Y-64851000D01*
X159625928Y-64799082D01*
X159380063Y-64697242D01*
X159380062Y-64697242D01*
X159380061Y-64697241D01*
X159158788Y-64549390D01*
X158970610Y-64361212D01*
X158958482Y-64343061D01*
X158853933Y-64186594D01*
X158838387Y-64167652D01*
X158819445Y-64152107D01*
X158797835Y-64140556D01*
X158774386Y-64133443D01*
X158750000Y-64131041D01*
X158725614Y-64133443D01*
X158702165Y-64140556D01*
X158680554Y-64152107D01*
X158661612Y-64167653D01*
X158646067Y-64186594D01*
X158541519Y-64343061D01*
X158529390Y-64361212D01*
X158341212Y-64549390D01*
X158119939Y-64697241D01*
X158119938Y-64697242D01*
X158119937Y-64697242D01*
X157874072Y-64799082D01*
X157613063Y-64851000D01*
X157346937Y-64851000D01*
X157085928Y-64799082D01*
X156840063Y-64697242D01*
X156840062Y-64697242D01*
X156840061Y-64697241D01*
X156618788Y-64549390D01*
X156430610Y-64361212D01*
X156394612Y-64307337D01*
X156301277Y-64167653D01*
X156282759Y-64139939D01*
X156180918Y-63894072D01*
X156129000Y-63633062D01*
X156129000Y-63366938D01*
X156180918Y-63105928D01*
X156282759Y-62860061D01*
X156391356Y-62697535D01*
X156430609Y-62638789D01*
X156618789Y-62450609D01*
X156728672Y-62377187D01*
X156840061Y-62302759D01*
X157085928Y-62200918D01*
X157346937Y-62149000D01*
X157613063Y-62149000D01*
X157874072Y-62200918D01*
X157874072Y-62200918D01*
G37*
G36*
X165875562Y-61253181D02*
G01*
X165910481Y-61263774D01*
X165942663Y-61280976D01*
X165970873Y-61304127D01*
X165994024Y-61332337D01*
X166011226Y-61364519D01*
X166021819Y-61399438D01*
X166026000Y-61441895D01*
X166026000Y-62583105D01*
X166021819Y-62625562D01*
X166011226Y-62660481D01*
X165994024Y-62692663D01*
X165970873Y-62720873D01*
X165942663Y-62744024D01*
X165910481Y-62761226D01*
X165875562Y-62771819D01*
X165833105Y-62776000D01*
X164366895Y-62776000D01*
X164324438Y-62771819D01*
X164289519Y-62761226D01*
X164257337Y-62744024D01*
X164229127Y-62720873D01*
X164205976Y-62692663D01*
X164188774Y-62660481D01*
X164178181Y-62625562D01*
X164174000Y-62583105D01*
X164174000Y-61441895D01*
X164178181Y-61399438D01*
X164188774Y-61364519D01*
X164205976Y-61332337D01*
X164229127Y-61304127D01*
X164257337Y-61280976D01*
X164289519Y-61263774D01*
X164324438Y-61253181D01*
X164366895Y-61249000D01*
X165833105Y-61249000D01*
X165875562Y-61253181D01*
X165875562Y-61253181D01*
G37*
M02*
