G04 #@! TF.GenerationSoftware,KiCad,Pcbnew,(5.1.2)-1*
G04 #@! TF.CreationDate,2019-06-11T18:42:14-07:00*
G04 #@! TF.ProjectId,psu,7073752e-6b69-4636-9164-5f7063625858,rev?*
G04 #@! TF.SameCoordinates,Original*
G04 #@! TF.FileFunction,Legend,Top*
G04 #@! TF.FilePolarity,Positive*
%FSLAX46Y46*%
G04 Gerber Fmt 4.6, Leading zero omitted, Abs format (unit mm)*
G04 Created by KiCad (PCBNEW (5.1.2)-1) date 2019-06-11 18:42:14*
%MOMM*%
%LPD*%
G04 APERTURE LIST*
%ADD10C,0.125000*%
%ADD11C,0.120000*%
%ADD12C,0.100000*%
%ADD13C,0.250000*%
%ADD14C,0.200000*%
%ADD15C,0.150000*%
G04 APERTURE END LIST*
D10*
X152161488Y-101169761D02*
X152786488Y-101039553D01*
X152161488Y-100753095D01*
X152786488Y-100622886D02*
X152369821Y-100570803D01*
X152161488Y-100544761D02*
X152191250Y-100578244D01*
X152221011Y-100552202D01*
X152191250Y-100518720D01*
X152161488Y-100544761D01*
X152221011Y-100552202D01*
X152369821Y-100273184D02*
X152786488Y-100325267D01*
X152429345Y-100280625D02*
X152399583Y-100247142D01*
X152369821Y-100183898D01*
X152369821Y-100094613D01*
X152399583Y-100038809D01*
X152459107Y-100016488D01*
X152786488Y-100057410D01*
X152726964Y-99752351D02*
X152756726Y-99726309D01*
X152786488Y-99759791D01*
X152756726Y-99785833D01*
X152726964Y-99752351D01*
X152786488Y-99759791D01*
X152399583Y-99711428D02*
X152429345Y-99685386D01*
X152459107Y-99718869D01*
X152429345Y-99744910D01*
X152399583Y-99711428D01*
X152459107Y-99718869D01*
X152161488Y-98610238D02*
X152161488Y-98907857D01*
X152459107Y-98974821D01*
X152429345Y-98941339D01*
X152399583Y-98878095D01*
X152399583Y-98729285D01*
X152429345Y-98673482D01*
X152459107Y-98647440D01*
X152518630Y-98625119D01*
X152667440Y-98643720D01*
X152726964Y-98680922D01*
X152756726Y-98714404D01*
X152786488Y-98777648D01*
X152786488Y-98926458D01*
X152756726Y-98982261D01*
X152726964Y-99008303D01*
X152161488Y-98401904D02*
X152786488Y-98271696D01*
X152161488Y-97985238D01*
X152369821Y-97416041D02*
X152369821Y-97177946D01*
X152161488Y-97300714D02*
X152697202Y-97367678D01*
X152756726Y-97345357D01*
X152786488Y-97289553D01*
X152786488Y-97230029D01*
X152786488Y-96932410D02*
X152756726Y-96988214D01*
X152726964Y-97014255D01*
X152667440Y-97036577D01*
X152488869Y-97014255D01*
X152429345Y-96977053D01*
X152399583Y-96943571D01*
X152369821Y-96880327D01*
X152369821Y-96791041D01*
X152399583Y-96735238D01*
X152429345Y-96709196D01*
X152488869Y-96686875D01*
X152667440Y-96709196D01*
X152726964Y-96746398D01*
X152756726Y-96779880D01*
X152786488Y-96843125D01*
X152786488Y-96932410D01*
X152161488Y-95961428D02*
X152161488Y-95574523D01*
X152399583Y-95812619D01*
X152399583Y-95723333D01*
X152429345Y-95667529D01*
X152459107Y-95641488D01*
X152518630Y-95619166D01*
X152667440Y-95637767D01*
X152726964Y-95674970D01*
X152756726Y-95708452D01*
X152786488Y-95771696D01*
X152786488Y-95950267D01*
X152756726Y-96006071D01*
X152726964Y-96032113D01*
X152221011Y-95343869D02*
X152191250Y-95310386D01*
X152161488Y-95247142D01*
X152161488Y-95098333D01*
X152191250Y-95042529D01*
X152221011Y-95016488D01*
X152280535Y-94994166D01*
X152340059Y-95001607D01*
X152429345Y-95042529D01*
X152786488Y-95444315D01*
X152786488Y-95057410D01*
X152161488Y-94800714D02*
X152786488Y-94670505D01*
X152161488Y-94384047D01*
X153223988Y-102717380D02*
X153848988Y-102587172D01*
X153223988Y-102300714D01*
X153848988Y-102081220D02*
X153819226Y-102137023D01*
X153789464Y-102163065D01*
X153729940Y-102185386D01*
X153551369Y-102163065D01*
X153491845Y-102125863D01*
X153462083Y-102092380D01*
X153432321Y-102029136D01*
X153432321Y-101939851D01*
X153462083Y-101884047D01*
X153491845Y-101858005D01*
X153551369Y-101835684D01*
X153729940Y-101858005D01*
X153789464Y-101895208D01*
X153819226Y-101928690D01*
X153848988Y-101991934D01*
X153848988Y-102081220D01*
X153432321Y-101285089D02*
X153848988Y-101337172D01*
X153432321Y-101552946D02*
X153759702Y-101593869D01*
X153819226Y-101571547D01*
X153848988Y-101515744D01*
X153848988Y-101426458D01*
X153819226Y-101363214D01*
X153789464Y-101329732D01*
X153432321Y-101076755D02*
X153432321Y-100838660D01*
X153223988Y-100961428D02*
X153759702Y-101028392D01*
X153819226Y-101006071D01*
X153848988Y-100950267D01*
X153848988Y-100890744D01*
X153789464Y-100674970D02*
X153819226Y-100648928D01*
X153848988Y-100682410D01*
X153819226Y-100708452D01*
X153789464Y-100674970D01*
X153848988Y-100682410D01*
X153462083Y-100634047D02*
X153491845Y-100608005D01*
X153521607Y-100641488D01*
X153491845Y-100667529D01*
X153462083Y-100634047D01*
X153521607Y-100641488D01*
X153223988Y-99711428D02*
X153223988Y-99651904D01*
X153253750Y-99596101D01*
X153283511Y-99570059D01*
X153343035Y-99547738D01*
X153462083Y-99532857D01*
X153610892Y-99551458D01*
X153729940Y-99596101D01*
X153789464Y-99633303D01*
X153819226Y-99666785D01*
X153848988Y-99730029D01*
X153848988Y-99789553D01*
X153819226Y-99845357D01*
X153789464Y-99871398D01*
X153729940Y-99893720D01*
X153610892Y-99908601D01*
X153462083Y-99890000D01*
X153343035Y-99845357D01*
X153283511Y-99808154D01*
X153253750Y-99774672D01*
X153223988Y-99711428D01*
X153223988Y-99324523D02*
X153848988Y-99194315D01*
X153223988Y-98907857D01*
X153432321Y-98338660D02*
X153432321Y-98100565D01*
X153223988Y-98223333D02*
X153759702Y-98290297D01*
X153819226Y-98267976D01*
X153848988Y-98212172D01*
X153848988Y-98152648D01*
X153848988Y-97855029D02*
X153819226Y-97910833D01*
X153789464Y-97936875D01*
X153729940Y-97959196D01*
X153551369Y-97936875D01*
X153491845Y-97899672D01*
X153462083Y-97866190D01*
X153432321Y-97802946D01*
X153432321Y-97713660D01*
X153462083Y-97657857D01*
X153491845Y-97631815D01*
X153551369Y-97609494D01*
X153729940Y-97631815D01*
X153789464Y-97669017D01*
X153819226Y-97702500D01*
X153848988Y-97765744D01*
X153848988Y-97855029D01*
X153223988Y-96913809D02*
X153848988Y-96783601D01*
X153223988Y-96497142D01*
X153848988Y-96366934D02*
X153432321Y-96314851D01*
X153223988Y-96288809D02*
X153253750Y-96322291D01*
X153283511Y-96296250D01*
X153253750Y-96262767D01*
X153223988Y-96288809D01*
X153283511Y-96296250D01*
X153432321Y-96017232D02*
X153848988Y-96069315D01*
X153491845Y-96024672D02*
X153462083Y-95991190D01*
X153432321Y-95927946D01*
X153432321Y-95838660D01*
X153462083Y-95782857D01*
X153521607Y-95760535D01*
X153848988Y-95801458D01*
X153610892Y-95474077D02*
X153610892Y-94997886D01*
X153848988Y-94402648D02*
X153848988Y-94759791D01*
X153848988Y-94581220D02*
X153223988Y-94503095D01*
X153313273Y-94573779D01*
X153372797Y-94640744D01*
X153402559Y-94703988D01*
X153789464Y-94127351D02*
X153819226Y-94101309D01*
X153848988Y-94134791D01*
X153819226Y-94160833D01*
X153789464Y-94127351D01*
X153848988Y-94134791D01*
X153223988Y-93461428D02*
X153223988Y-93759047D01*
X153521607Y-93826011D01*
X153491845Y-93792529D01*
X153462083Y-93729285D01*
X153462083Y-93580476D01*
X153491845Y-93524672D01*
X153521607Y-93498630D01*
X153581130Y-93476309D01*
X153729940Y-93494910D01*
X153789464Y-93532113D01*
X153819226Y-93565595D01*
X153848988Y-93628839D01*
X153848988Y-93777648D01*
X153819226Y-93833452D01*
X153789464Y-93859494D01*
X153223988Y-93253095D02*
X153848988Y-93122886D01*
X153223988Y-92836428D01*
D11*
X137160000Y-89865200D02*
G75*
G03X137160000Y-89865200I-50800J0D01*
G01*
X137160000Y-103784400D02*
G75*
G03X137160000Y-103784400I-50800J0D01*
G01*
D12*
X137192533Y-108087619D02*
X137192533Y-107849523D01*
X137335390Y-108135238D02*
X136835390Y-107968571D01*
X137335390Y-107801904D01*
X137335390Y-107563809D02*
X137311580Y-107611428D01*
X137263961Y-107635238D01*
X136835390Y-107635238D01*
X137311580Y-107182857D02*
X137335390Y-107230476D01*
X137335390Y-107325714D01*
X137311580Y-107373333D01*
X137263961Y-107397142D01*
X137073485Y-107397142D01*
X137025866Y-107373333D01*
X137002057Y-107325714D01*
X137002057Y-107230476D01*
X137025866Y-107182857D01*
X137073485Y-107159047D01*
X137121104Y-107159047D01*
X137168723Y-107397142D01*
X137335390Y-106992380D02*
X137002057Y-106730476D01*
X137002057Y-106992380D02*
X137335390Y-106730476D01*
X137311580Y-106182857D02*
X137335390Y-106111428D01*
X137335390Y-105992380D01*
X137311580Y-105944761D01*
X137287771Y-105920952D01*
X137240152Y-105897142D01*
X137192533Y-105897142D01*
X137144914Y-105920952D01*
X137121104Y-105944761D01*
X137097295Y-105992380D01*
X137073485Y-106087619D01*
X137049676Y-106135238D01*
X137025866Y-106159047D01*
X136978247Y-106182857D01*
X136930628Y-106182857D01*
X136883009Y-106159047D01*
X136859200Y-106135238D01*
X136835390Y-106087619D01*
X136835390Y-105968571D01*
X136859200Y-105897142D01*
X137002057Y-105754285D02*
X137002057Y-105563809D01*
X136835390Y-105682857D02*
X137263961Y-105682857D01*
X137311580Y-105659047D01*
X137335390Y-105611428D01*
X137335390Y-105563809D01*
X137335390Y-105397142D02*
X137002057Y-105397142D01*
X137097295Y-105397142D02*
X137049676Y-105373333D01*
X137025866Y-105349523D01*
X137002057Y-105301904D01*
X137002057Y-105254285D01*
X137335390Y-105087619D02*
X137002057Y-105087619D01*
X136835390Y-105087619D02*
X136859200Y-105111428D01*
X136883009Y-105087619D01*
X136859200Y-105063809D01*
X136835390Y-105087619D01*
X136883009Y-105087619D01*
X137002057Y-104920952D02*
X137002057Y-104730476D01*
X137335390Y-104849523D02*
X136906819Y-104849523D01*
X136859200Y-104825714D01*
X136835390Y-104778095D01*
X136835390Y-104730476D01*
X137002057Y-104635238D02*
X137002057Y-104444761D01*
X137335390Y-104563809D02*
X136906819Y-104563809D01*
X136859200Y-104539999D01*
X136835390Y-104492380D01*
X136835390Y-104444761D01*
X137335390Y-102849523D02*
X137097295Y-103016190D01*
X137335390Y-103135238D02*
X136835390Y-103135238D01*
X136835390Y-102944761D01*
X136859200Y-102897142D01*
X136883009Y-102873333D01*
X136930628Y-102849523D01*
X137002057Y-102849523D01*
X137049676Y-102873333D01*
X137073485Y-102897142D01*
X137097295Y-102944761D01*
X137097295Y-103135238D01*
X137311580Y-102444761D02*
X137335390Y-102492380D01*
X137335390Y-102587619D01*
X137311580Y-102635238D01*
X137263961Y-102659047D01*
X137073485Y-102659047D01*
X137025866Y-102635238D01*
X137002057Y-102587619D01*
X137002057Y-102492380D01*
X137025866Y-102444761D01*
X137073485Y-102420952D01*
X137121104Y-102420952D01*
X137168723Y-102659047D01*
X137311580Y-102016190D02*
X137335390Y-102063809D01*
X137335390Y-102159047D01*
X137311580Y-102206666D01*
X137263961Y-102230476D01*
X137073485Y-102230476D01*
X137025866Y-102206666D01*
X137002057Y-102159047D01*
X137002057Y-102063809D01*
X137025866Y-102016190D01*
X137073485Y-101992380D01*
X137121104Y-101992380D01*
X137168723Y-102230476D01*
X137335390Y-101563809D02*
X136835390Y-101563809D01*
X137311580Y-101563809D02*
X137335390Y-101611428D01*
X137335390Y-101706666D01*
X137311580Y-101754285D01*
X137287771Y-101778095D01*
X137240152Y-101801904D01*
X137097295Y-101801904D01*
X137049676Y-101778095D01*
X137025866Y-101754285D01*
X137002057Y-101706666D01*
X137002057Y-101611428D01*
X137025866Y-101563809D01*
X137287771Y-100659047D02*
X137311580Y-100682857D01*
X137335390Y-100754285D01*
X137335390Y-100801904D01*
X137311580Y-100873333D01*
X137263961Y-100920952D01*
X137216342Y-100944761D01*
X137121104Y-100968571D01*
X137049676Y-100968571D01*
X136954438Y-100944761D01*
X136906819Y-100920952D01*
X136859200Y-100873333D01*
X136835390Y-100801904D01*
X136835390Y-100754285D01*
X136859200Y-100682857D01*
X136883009Y-100659047D01*
X137335390Y-100373333D02*
X137311580Y-100420952D01*
X137287771Y-100444761D01*
X137240152Y-100468571D01*
X137097295Y-100468571D01*
X137049676Y-100444761D01*
X137025866Y-100420952D01*
X137002057Y-100373333D01*
X137002057Y-100301904D01*
X137025866Y-100254285D01*
X137049676Y-100230476D01*
X137097295Y-100206666D01*
X137240152Y-100206666D01*
X137287771Y-100230476D01*
X137311580Y-100254285D01*
X137335390Y-100301904D01*
X137335390Y-100373333D01*
X137335390Y-99920952D02*
X137311580Y-99968571D01*
X137263961Y-99992380D01*
X136835390Y-99992380D01*
X137335390Y-99659047D02*
X137311580Y-99706666D01*
X137263961Y-99730476D01*
X136835390Y-99730476D01*
X137311580Y-99278095D02*
X137335390Y-99325714D01*
X137335390Y-99420952D01*
X137311580Y-99468571D01*
X137263961Y-99492380D01*
X137073485Y-99492380D01*
X137025866Y-99468571D01*
X137002057Y-99420952D01*
X137002057Y-99325714D01*
X137025866Y-99278095D01*
X137073485Y-99254285D01*
X137121104Y-99254285D01*
X137168723Y-99492380D01*
X137002057Y-98825714D02*
X137406819Y-98825714D01*
X137454438Y-98849523D01*
X137478247Y-98873333D01*
X137502057Y-98920952D01*
X137502057Y-98992380D01*
X137478247Y-99040000D01*
X137311580Y-98825714D02*
X137335390Y-98873333D01*
X137335390Y-98968571D01*
X137311580Y-99016190D01*
X137287771Y-99040000D01*
X137240152Y-99063809D01*
X137097295Y-99063809D01*
X137049676Y-99040000D01*
X137025866Y-99016190D01*
X137002057Y-98968571D01*
X137002057Y-98873333D01*
X137025866Y-98825714D01*
X137311580Y-98397142D02*
X137335390Y-98444761D01*
X137335390Y-98540000D01*
X137311580Y-98587619D01*
X137263961Y-98611428D01*
X137073485Y-98611428D01*
X137025866Y-98587619D01*
X137002057Y-98540000D01*
X137002057Y-98444761D01*
X137025866Y-98397142D01*
X137073485Y-98373333D01*
X137121104Y-98373333D01*
X137168723Y-98611428D01*
X137335390Y-97778095D02*
X136835390Y-97778095D01*
X136835390Y-97587619D01*
X136859200Y-97540000D01*
X136883009Y-97516190D01*
X136930628Y-97492380D01*
X137002057Y-97492380D01*
X137049676Y-97516190D01*
X137073485Y-97540000D01*
X137097295Y-97587619D01*
X137097295Y-97778095D01*
X137335390Y-97278095D02*
X136835390Y-97278095D01*
X137335390Y-97063809D02*
X137073485Y-97063809D01*
X137025866Y-97087619D01*
X137002057Y-97135238D01*
X137002057Y-97206666D01*
X137025866Y-97254285D01*
X137049676Y-97278095D01*
X137002057Y-96873333D02*
X137335390Y-96754285D01*
X137002057Y-96635238D02*
X137335390Y-96754285D01*
X137454438Y-96801904D01*
X137478247Y-96825714D01*
X137502057Y-96873333D01*
X137311580Y-96468571D02*
X137335390Y-96420952D01*
X137335390Y-96325714D01*
X137311580Y-96278095D01*
X137263961Y-96254285D01*
X137240152Y-96254285D01*
X137192533Y-96278095D01*
X137168723Y-96325714D01*
X137168723Y-96397142D01*
X137144914Y-96444761D01*
X137097295Y-96468571D01*
X137073485Y-96468571D01*
X137025866Y-96444761D01*
X137002057Y-96397142D01*
X137002057Y-96325714D01*
X137025866Y-96278095D01*
X137335390Y-96040000D02*
X137002057Y-96040000D01*
X136835390Y-96040000D02*
X136859200Y-96063809D01*
X136883009Y-96040000D01*
X136859200Y-96016190D01*
X136835390Y-96040000D01*
X136883009Y-96040000D01*
X137311580Y-95587619D02*
X137335390Y-95635238D01*
X137335390Y-95730476D01*
X137311580Y-95778095D01*
X137287771Y-95801904D01*
X137240152Y-95825714D01*
X137097295Y-95825714D01*
X137049676Y-95801904D01*
X137025866Y-95778095D01*
X137002057Y-95730476D01*
X137002057Y-95635238D01*
X137025866Y-95587619D01*
X137311580Y-95397142D02*
X137335390Y-95349523D01*
X137335390Y-95254285D01*
X137311580Y-95206666D01*
X137263961Y-95182857D01*
X137240152Y-95182857D01*
X137192533Y-95206666D01*
X137168723Y-95254285D01*
X137168723Y-95325714D01*
X137144914Y-95373333D01*
X137097295Y-95397142D01*
X137073485Y-95397142D01*
X137025866Y-95373333D01*
X137002057Y-95325714D01*
X137002057Y-95254285D01*
X137025866Y-95206666D01*
X137335390Y-94587619D02*
X136835390Y-94587619D01*
X136835390Y-94468571D01*
X136859200Y-94397142D01*
X136906819Y-94349523D01*
X136954438Y-94325714D01*
X137049676Y-94301904D01*
X137121104Y-94301904D01*
X137216342Y-94325714D01*
X137263961Y-94349523D01*
X137311580Y-94397142D01*
X137335390Y-94468571D01*
X137335390Y-94587619D01*
X137311580Y-93897142D02*
X137335390Y-93944761D01*
X137335390Y-94040000D01*
X137311580Y-94087619D01*
X137263961Y-94111428D01*
X137073485Y-94111428D01*
X137025866Y-94087619D01*
X137002057Y-94040000D01*
X137002057Y-93944761D01*
X137025866Y-93897142D01*
X137073485Y-93873333D01*
X137121104Y-93873333D01*
X137168723Y-94111428D01*
X137002057Y-93659047D02*
X137502057Y-93659047D01*
X137025866Y-93659047D02*
X137002057Y-93611428D01*
X137002057Y-93516190D01*
X137025866Y-93468571D01*
X137049676Y-93444761D01*
X137097295Y-93420952D01*
X137240152Y-93420952D01*
X137287771Y-93444761D01*
X137311580Y-93468571D01*
X137335390Y-93516190D01*
X137335390Y-93611428D01*
X137311580Y-93659047D01*
X137335390Y-92992380D02*
X137073485Y-92992380D01*
X137025866Y-93016190D01*
X137002057Y-93063809D01*
X137002057Y-93159047D01*
X137025866Y-93206666D01*
X137311580Y-92992380D02*
X137335390Y-93040000D01*
X137335390Y-93159047D01*
X137311580Y-93206666D01*
X137263961Y-93230476D01*
X137216342Y-93230476D01*
X137168723Y-93206666D01*
X137144914Y-93159047D01*
X137144914Y-93040000D01*
X137121104Y-92992380D01*
X137335390Y-92754285D02*
X137002057Y-92754285D01*
X137097295Y-92754285D02*
X137049676Y-92730476D01*
X137025866Y-92706666D01*
X137002057Y-92659047D01*
X137002057Y-92611428D01*
X137002057Y-92516190D02*
X137002057Y-92325714D01*
X136835390Y-92444761D02*
X137263961Y-92444761D01*
X137311580Y-92420952D01*
X137335390Y-92373333D01*
X137335390Y-92325714D01*
X137335390Y-92159047D02*
X137002057Y-92159047D01*
X137049676Y-92159047D02*
X137025866Y-92135238D01*
X137002057Y-92087619D01*
X137002057Y-92016190D01*
X137025866Y-91968571D01*
X137073485Y-91944761D01*
X137335390Y-91944761D01*
X137073485Y-91944761D02*
X137025866Y-91920952D01*
X137002057Y-91873333D01*
X137002057Y-91801904D01*
X137025866Y-91754285D01*
X137073485Y-91730476D01*
X137335390Y-91730476D01*
X137311580Y-91301904D02*
X137335390Y-91349523D01*
X137335390Y-91444761D01*
X137311580Y-91492380D01*
X137263961Y-91516190D01*
X137073485Y-91516190D01*
X137025866Y-91492380D01*
X137002057Y-91444761D01*
X137002057Y-91349523D01*
X137025866Y-91301904D01*
X137073485Y-91278095D01*
X137121104Y-91278095D01*
X137168723Y-91516190D01*
X137002057Y-91063809D02*
X137335390Y-91063809D01*
X137049676Y-91063809D02*
X137025866Y-91040000D01*
X137002057Y-90992380D01*
X137002057Y-90920952D01*
X137025866Y-90873333D01*
X137073485Y-90849523D01*
X137335390Y-90849523D01*
X137002057Y-90682857D02*
X137002057Y-90492380D01*
X136835390Y-90611428D02*
X137263961Y-90611428D01*
X137311580Y-90587619D01*
X137335390Y-90540000D01*
X137335390Y-90492380D01*
X136883009Y-89206666D02*
X136859200Y-89182857D01*
X136835390Y-89135238D01*
X136835390Y-89016190D01*
X136859200Y-88968571D01*
X136883009Y-88944761D01*
X136930628Y-88920952D01*
X136978247Y-88920952D01*
X137049676Y-88944761D01*
X137335390Y-89230476D01*
X137335390Y-88920952D01*
X136835390Y-88611428D02*
X136835390Y-88563809D01*
X136859200Y-88516190D01*
X136883009Y-88492380D01*
X136930628Y-88468571D01*
X137025866Y-88444761D01*
X137144914Y-88444761D01*
X137240152Y-88468571D01*
X137287771Y-88492380D01*
X137311580Y-88516190D01*
X137335390Y-88563809D01*
X137335390Y-88611428D01*
X137311580Y-88659047D01*
X137287771Y-88682857D01*
X137240152Y-88706666D01*
X137144914Y-88730476D01*
X137025866Y-88730476D01*
X136930628Y-88706666D01*
X136883009Y-88682857D01*
X136859200Y-88659047D01*
X136835390Y-88611428D01*
X137335390Y-87968571D02*
X137335390Y-88254285D01*
X137335390Y-88111428D02*
X136835390Y-88111428D01*
X136906819Y-88159047D01*
X136954438Y-88206666D01*
X136978247Y-88254285D01*
X137335390Y-87730476D02*
X137335390Y-87635238D01*
X137311580Y-87587619D01*
X137287771Y-87563809D01*
X137216342Y-87516190D01*
X137121104Y-87492380D01*
X136930628Y-87492380D01*
X136883009Y-87516190D01*
X136859200Y-87540000D01*
X136835390Y-87587619D01*
X136835390Y-87682857D01*
X136859200Y-87730476D01*
X136883009Y-87754285D01*
X136930628Y-87778095D01*
X137049676Y-87778095D01*
X137097295Y-87754285D01*
X137121104Y-87730476D01*
X137144914Y-87682857D01*
X137144914Y-87587619D01*
X137121104Y-87540000D01*
X137097295Y-87516190D01*
X137049676Y-87492380D01*
D13*
X135806571Y-106861428D02*
X135806571Y-107575714D01*
X134306571Y-107575714D01*
X135806571Y-105718571D02*
X135020857Y-105718571D01*
X134878000Y-105789999D01*
X134806571Y-105932857D01*
X134806571Y-106218571D01*
X134878000Y-106361428D01*
X135735142Y-105718571D02*
X135806571Y-105861428D01*
X135806571Y-106218571D01*
X135735142Y-106361428D01*
X135592285Y-106432857D01*
X135449428Y-106432857D01*
X135306571Y-106361428D01*
X135235142Y-106218571D01*
X135235142Y-105861428D01*
X135163714Y-105718571D01*
X135806571Y-105004285D02*
X134306571Y-105004285D01*
X134878000Y-105004285D02*
X134806571Y-104861428D01*
X134806571Y-104575714D01*
X134878000Y-104432857D01*
X134949428Y-104361428D01*
X135092285Y-104289999D01*
X135520857Y-104289999D01*
X135663714Y-104361428D01*
X135735142Y-104432857D01*
X135806571Y-104575714D01*
X135806571Y-104861428D01*
X135735142Y-105004285D01*
X135806571Y-102504285D02*
X134306571Y-102504285D01*
X134306571Y-101932857D01*
X134378000Y-101790000D01*
X134449428Y-101718571D01*
X134592285Y-101647142D01*
X134806571Y-101647142D01*
X134949428Y-101718571D01*
X135020857Y-101790000D01*
X135092285Y-101932857D01*
X135092285Y-102504285D01*
X135806571Y-100790000D02*
X135735142Y-100932857D01*
X135663714Y-101004285D01*
X135520857Y-101075714D01*
X135092285Y-101075714D01*
X134949428Y-101004285D01*
X134878000Y-100932857D01*
X134806571Y-100790000D01*
X134806571Y-100575714D01*
X134878000Y-100432857D01*
X134949428Y-100361428D01*
X135092285Y-100290000D01*
X135520857Y-100290000D01*
X135663714Y-100361428D01*
X135735142Y-100432857D01*
X135806571Y-100575714D01*
X135806571Y-100790000D01*
X134806571Y-99789999D02*
X135806571Y-99504285D01*
X135092285Y-99218571D01*
X135806571Y-98932857D01*
X134806571Y-98647142D01*
X135735142Y-97504285D02*
X135806571Y-97647142D01*
X135806571Y-97932857D01*
X135735142Y-98075714D01*
X135592285Y-98147142D01*
X135020857Y-98147142D01*
X134878000Y-98075714D01*
X134806571Y-97932857D01*
X134806571Y-97647142D01*
X134878000Y-97504285D01*
X135020857Y-97432857D01*
X135163714Y-97432857D01*
X135306571Y-98147142D01*
X135806571Y-96790000D02*
X134806571Y-96790000D01*
X135092285Y-96790000D02*
X134949428Y-96718571D01*
X134878000Y-96647142D01*
X134806571Y-96504285D01*
X134806571Y-96361428D01*
X135735142Y-94790000D02*
X135806571Y-94575714D01*
X135806571Y-94218571D01*
X135735142Y-94075714D01*
X135663714Y-94004285D01*
X135520857Y-93932857D01*
X135378000Y-93932857D01*
X135235142Y-94004285D01*
X135163714Y-94075714D01*
X135092285Y-94218571D01*
X135020857Y-94504285D01*
X134949428Y-94647142D01*
X134878000Y-94718571D01*
X134735142Y-94790000D01*
X134592285Y-94790000D01*
X134449428Y-94718571D01*
X134378000Y-94647142D01*
X134306571Y-94504285D01*
X134306571Y-94147142D01*
X134378000Y-93932857D01*
X134806571Y-92647142D02*
X135806571Y-92647142D01*
X134806571Y-93290000D02*
X135592285Y-93290000D01*
X135735142Y-93218571D01*
X135806571Y-93075714D01*
X135806571Y-92861428D01*
X135735142Y-92718571D01*
X135663714Y-92647142D01*
X134806571Y-91932857D02*
X136306571Y-91932857D01*
X134878000Y-91932857D02*
X134806571Y-91790000D01*
X134806571Y-91504285D01*
X134878000Y-91361428D01*
X134949428Y-91290000D01*
X135092285Y-91218571D01*
X135520857Y-91218571D01*
X135663714Y-91290000D01*
X135735142Y-91361428D01*
X135806571Y-91504285D01*
X135806571Y-91790000D01*
X135735142Y-91932857D01*
X134806571Y-90575714D02*
X136306571Y-90575714D01*
X134878000Y-90575714D02*
X134806571Y-90432857D01*
X134806571Y-90147142D01*
X134878000Y-90004285D01*
X134949428Y-89932857D01*
X135092285Y-89861428D01*
X135520857Y-89861428D01*
X135663714Y-89932857D01*
X135735142Y-90004285D01*
X135806571Y-90147142D01*
X135806571Y-90432857D01*
X135735142Y-90575714D01*
X135806571Y-89004285D02*
X135735142Y-89147142D01*
X135592285Y-89218571D01*
X134306571Y-89218571D01*
X134806571Y-88575714D02*
X135806571Y-88218571D01*
X134806571Y-87861428D02*
X135806571Y-88218571D01*
X136163714Y-88361428D01*
X136235142Y-88432857D01*
X136306571Y-88575714D01*
D12*
G36*
X142798800Y-98806000D02*
G01*
X142925800Y-98679000D01*
X143052800Y-98679000D01*
X143052800Y-98806000D01*
X142925800Y-98933000D01*
X143052800Y-99060000D01*
X143052800Y-99187000D01*
X142925800Y-99187000D01*
X142798800Y-99060000D01*
X142671800Y-99187000D01*
X142544800Y-99187000D01*
X142544800Y-99060000D01*
X142671800Y-98933000D01*
X142544800Y-98806000D01*
X142544800Y-98679000D01*
X142671800Y-98679000D01*
X142798800Y-98806000D01*
G37*
X142798800Y-98806000D02*
X142925800Y-98679000D01*
X143052800Y-98679000D01*
X143052800Y-98806000D01*
X142925800Y-98933000D01*
X143052800Y-99060000D01*
X143052800Y-99187000D01*
X142925800Y-99187000D01*
X142798800Y-99060000D01*
X142671800Y-99187000D01*
X142544800Y-99187000D01*
X142544800Y-99060000D01*
X142671800Y-98933000D01*
X142544800Y-98806000D01*
X142544800Y-98679000D01*
X142671800Y-98679000D01*
X142798800Y-98806000D01*
G36*
X118795800Y-104076500D02*
G01*
X118922800Y-103949500D01*
X119049800Y-103949500D01*
X119049800Y-104076500D01*
X118922800Y-104203500D01*
X119049800Y-104330500D01*
X119049800Y-104457500D01*
X118922800Y-104457500D01*
X118795800Y-104330500D01*
X118668800Y-104457500D01*
X118541800Y-104457500D01*
X118541800Y-104330500D01*
X118668800Y-104203500D01*
X118541800Y-104076500D01*
X118541800Y-103949500D01*
X118668800Y-103949500D01*
X118795800Y-104076500D01*
G37*
X118795800Y-104076500D02*
X118922800Y-103949500D01*
X119049800Y-103949500D01*
X119049800Y-104076500D01*
X118922800Y-104203500D01*
X119049800Y-104330500D01*
X119049800Y-104457500D01*
X118922800Y-104457500D01*
X118795800Y-104330500D01*
X118668800Y-104457500D01*
X118541800Y-104457500D01*
X118541800Y-104330500D01*
X118668800Y-104203500D01*
X118541800Y-104076500D01*
X118541800Y-103949500D01*
X118668800Y-103949500D01*
X118795800Y-104076500D01*
G36*
X164388800Y-121221500D02*
G01*
X164515800Y-121094500D01*
X164642800Y-121094500D01*
X164642800Y-121221500D01*
X164515800Y-121348500D01*
X164642800Y-121475500D01*
X164642800Y-121602500D01*
X164515800Y-121602500D01*
X164388800Y-121475500D01*
X164261800Y-121602500D01*
X164134800Y-121602500D01*
X164134800Y-121475500D01*
X164261800Y-121348500D01*
X164134800Y-121221500D01*
X164134800Y-121094500D01*
X164261800Y-121094500D01*
X164388800Y-121221500D01*
G37*
X164388800Y-121221500D02*
X164515800Y-121094500D01*
X164642800Y-121094500D01*
X164642800Y-121221500D01*
X164515800Y-121348500D01*
X164642800Y-121475500D01*
X164642800Y-121602500D01*
X164515800Y-121602500D01*
X164388800Y-121475500D01*
X164261800Y-121602500D01*
X164134800Y-121602500D01*
X164134800Y-121475500D01*
X164261800Y-121348500D01*
X164134800Y-121221500D01*
X164134800Y-121094500D01*
X164261800Y-121094500D01*
X164388800Y-121221500D01*
D10*
X167633685Y-130455147D02*
X166883685Y-130361397D01*
X167133685Y-130035504D02*
X167633685Y-130098004D01*
X167205114Y-130044433D02*
X167169400Y-130004254D01*
X167133685Y-129928361D01*
X167133685Y-129821218D01*
X167169400Y-129754254D01*
X167240828Y-129727468D01*
X167633685Y-129776575D01*
X167133685Y-129464075D02*
X167133685Y-129178361D01*
X166883685Y-129325683D02*
X167526542Y-129406040D01*
X167597971Y-129379254D01*
X167633685Y-129312290D01*
X167633685Y-129240861D01*
X167597971Y-128700683D02*
X167633685Y-128776575D01*
X167633685Y-128919433D01*
X167597971Y-128986397D01*
X167526542Y-129013183D01*
X167240828Y-128977468D01*
X167169400Y-128932825D01*
X167133685Y-128856933D01*
X167133685Y-128714075D01*
X167169400Y-128647111D01*
X167240828Y-128620325D01*
X167312257Y-128629254D01*
X167383685Y-128995325D01*
X167633685Y-128348004D02*
X167133685Y-128285504D01*
X167276542Y-128303361D02*
X167205114Y-128258718D01*
X167169400Y-128218540D01*
X167133685Y-128142647D01*
X167133685Y-128071218D01*
X167133685Y-127821218D02*
X167633685Y-127883718D01*
X167205114Y-127830147D02*
X167169400Y-127789968D01*
X167133685Y-127714075D01*
X167133685Y-127606933D01*
X167169400Y-127539968D01*
X167240828Y-127513183D01*
X167633685Y-127562290D01*
X167633685Y-126883718D02*
X167240828Y-126834611D01*
X167169400Y-126861397D01*
X167133685Y-126928361D01*
X167133685Y-127071218D01*
X167169400Y-127147111D01*
X167597971Y-126879254D02*
X167633685Y-126955147D01*
X167633685Y-127133718D01*
X167597971Y-127200683D01*
X167526542Y-127227468D01*
X167455114Y-127218540D01*
X167383685Y-127173897D01*
X167347971Y-127098004D01*
X167347971Y-126919433D01*
X167312257Y-126843540D01*
X167633685Y-126419433D02*
X167597971Y-126486397D01*
X167526542Y-126513183D01*
X166883685Y-126432825D01*
X168883685Y-129258718D02*
X168883685Y-129615861D01*
X168133685Y-129522111D01*
X168883685Y-128901575D02*
X168847971Y-128968540D01*
X168812257Y-128999790D01*
X168740828Y-129026575D01*
X168526542Y-128999790D01*
X168455114Y-128955147D01*
X168419400Y-128914968D01*
X168383685Y-128839075D01*
X168383685Y-128731933D01*
X168419400Y-128664968D01*
X168455114Y-128633718D01*
X168526542Y-128606933D01*
X168740828Y-128633718D01*
X168812257Y-128678361D01*
X168847971Y-128718540D01*
X168883685Y-128794433D01*
X168883685Y-128901575D01*
X168883685Y-128008718D02*
X168490828Y-127959611D01*
X168419400Y-127986397D01*
X168383685Y-128053361D01*
X168383685Y-128196218D01*
X168419400Y-128272111D01*
X168847971Y-128004254D02*
X168883685Y-128080147D01*
X168883685Y-128258718D01*
X168847971Y-128325683D01*
X168776542Y-128352468D01*
X168705114Y-128343540D01*
X168633685Y-128298897D01*
X168597971Y-128223004D01*
X168597971Y-128044433D01*
X168562257Y-127968540D01*
X168883685Y-127330147D02*
X168133685Y-127236397D01*
X168847971Y-127325683D02*
X168883685Y-127401575D01*
X168883685Y-127544433D01*
X168847971Y-127611397D01*
X168812257Y-127642647D01*
X168740828Y-127669433D01*
X168526542Y-127642647D01*
X168455114Y-127598004D01*
X168419400Y-127557825D01*
X168383685Y-127481933D01*
X168383685Y-127339075D01*
X168419400Y-127272111D01*
X122995885Y-87820718D02*
X122245885Y-87726968D01*
X122995885Y-87356433D02*
X122960171Y-87423397D01*
X122924457Y-87454647D01*
X122853028Y-87481433D01*
X122638742Y-87454647D01*
X122567314Y-87410004D01*
X122531600Y-87369825D01*
X122495885Y-87293933D01*
X122495885Y-87186790D01*
X122531600Y-87119825D01*
X122567314Y-87088575D01*
X122638742Y-87061790D01*
X122853028Y-87088575D01*
X122924457Y-87133218D01*
X122960171Y-87173397D01*
X122995885Y-87249290D01*
X122995885Y-87356433D01*
X122495885Y-86401075D02*
X122995885Y-86463575D01*
X122495885Y-86722504D02*
X122888742Y-86771611D01*
X122960171Y-86744825D01*
X122995885Y-86677861D01*
X122995885Y-86570718D01*
X122960171Y-86494825D01*
X122924457Y-86454647D01*
X122495885Y-86151075D02*
X122495885Y-85865361D01*
X122245885Y-86012683D02*
X122888742Y-86093040D01*
X122960171Y-86066254D01*
X122995885Y-85999290D01*
X122995885Y-85927861D01*
X122924457Y-85668933D02*
X122960171Y-85637683D01*
X122995885Y-85677861D01*
X122960171Y-85709111D01*
X122924457Y-85668933D01*
X122995885Y-85677861D01*
X122531600Y-85619825D02*
X122567314Y-85588575D01*
X122603028Y-85628754D01*
X122567314Y-85660004D01*
X122531600Y-85619825D01*
X122603028Y-85628754D01*
X122995885Y-84356433D02*
X122995885Y-84785004D01*
X122995885Y-84570718D02*
X122245885Y-84476968D01*
X122353028Y-84561790D01*
X122424457Y-84642147D01*
X122460171Y-84718040D01*
X122245885Y-83476968D02*
X122995885Y-83320718D01*
X122245885Y-82976968D01*
X122210171Y-82186790D02*
X123174457Y-82950183D01*
X122781600Y-82043933D02*
X122781600Y-81686790D01*
X122995885Y-82142147D02*
X122245885Y-81798397D01*
X122995885Y-81642147D01*
X120975885Y-88591197D02*
X120975885Y-88162625D01*
X121725885Y-88470661D02*
X120975885Y-88376911D01*
X121690171Y-87716197D02*
X121725885Y-87792090D01*
X121725885Y-87934947D01*
X121690171Y-88001911D01*
X121618742Y-88028697D01*
X121333028Y-87992983D01*
X121261600Y-87948340D01*
X121225885Y-87872447D01*
X121225885Y-87729590D01*
X121261600Y-87662625D01*
X121333028Y-87635840D01*
X121404457Y-87644768D01*
X121475885Y-88010840D01*
X121725885Y-87363518D02*
X121225885Y-87301018D01*
X121297314Y-87309947D02*
X121261600Y-87269768D01*
X121225885Y-87193875D01*
X121225885Y-87086733D01*
X121261600Y-87019768D01*
X121333028Y-86992983D01*
X121725885Y-87042090D01*
X121333028Y-86992983D02*
X121261600Y-86948340D01*
X121225885Y-86872447D01*
X121225885Y-86765304D01*
X121261600Y-86698340D01*
X121333028Y-86671554D01*
X121725885Y-86720661D01*
X121225885Y-86301018D02*
X121975885Y-86394768D01*
X121261600Y-86305483D02*
X121225885Y-86229590D01*
X121225885Y-86086733D01*
X121261600Y-86019768D01*
X121297314Y-85988518D01*
X121368742Y-85961733D01*
X121583028Y-85988518D01*
X121654457Y-86033161D01*
X121690171Y-86073340D01*
X121725885Y-86149233D01*
X121725885Y-86292090D01*
X121690171Y-86359054D01*
X121654457Y-85676018D02*
X121690171Y-85644768D01*
X121725885Y-85684947D01*
X121690171Y-85716197D01*
X121654457Y-85676018D01*
X121725885Y-85684947D01*
X121261600Y-85626911D02*
X121297314Y-85595661D01*
X121333028Y-85635840D01*
X121297314Y-85667090D01*
X121261600Y-85626911D01*
X121333028Y-85635840D01*
X121725885Y-84363518D02*
X121725885Y-84792090D01*
X121725885Y-84577804D02*
X120975885Y-84484054D01*
X121083028Y-84568875D01*
X121154457Y-84649233D01*
X121190171Y-84725125D01*
X121725885Y-83470661D02*
X121225885Y-83408161D01*
X121297314Y-83417090D02*
X121261600Y-83376911D01*
X121225885Y-83301018D01*
X121225885Y-83193875D01*
X121261600Y-83126911D01*
X121333028Y-83100125D01*
X121725885Y-83149233D01*
X121333028Y-83100125D02*
X121261600Y-83055483D01*
X121225885Y-82979590D01*
X121225885Y-82872447D01*
X121261600Y-82805483D01*
X121333028Y-82778697D01*
X121725885Y-82827804D01*
X120975885Y-82484054D02*
X121725885Y-82327804D01*
X120975885Y-81984054D01*
X120940171Y-81193875D02*
X121904457Y-81957268D01*
X120975885Y-80841197D02*
X121011600Y-80917090D01*
X121083028Y-80961733D01*
X121154457Y-80934947D01*
X121190171Y-80867983D01*
X121154457Y-80792090D01*
X121083028Y-80747447D01*
X121011600Y-80774233D01*
X120975885Y-80841197D01*
X121654457Y-80033161D02*
X121690171Y-80073340D01*
X121725885Y-80184947D01*
X121725885Y-80256375D01*
X121690171Y-80359054D01*
X121618742Y-80421554D01*
X121547314Y-80448340D01*
X121404457Y-80466197D01*
X121297314Y-80452804D01*
X121154457Y-80399233D01*
X121083028Y-80354590D01*
X121011600Y-80274233D01*
X120975885Y-80162625D01*
X120975885Y-80091197D01*
X121011600Y-79988518D01*
X121047314Y-79957268D01*
D11*
X155371800Y-116840000D02*
X148894800Y-116840000D01*
D10*
X156302585Y-117469575D02*
X155552585Y-117375825D01*
X156302585Y-117041004D01*
X155552585Y-116947254D01*
X156302585Y-116576718D02*
X156266871Y-116643683D01*
X156231157Y-116674933D01*
X156159728Y-116701718D01*
X155945442Y-116674933D01*
X155874014Y-116630290D01*
X155838300Y-116590111D01*
X155802585Y-116514218D01*
X155802585Y-116407075D01*
X155838300Y-116340111D01*
X155874014Y-116308861D01*
X155945442Y-116282075D01*
X156159728Y-116308861D01*
X156231157Y-116353504D01*
X156266871Y-116393683D01*
X156302585Y-116469575D01*
X156302585Y-116576718D01*
X157552585Y-117755290D02*
X157552585Y-118112433D01*
X156802585Y-118018683D01*
X157552585Y-117505290D02*
X157052585Y-117442790D01*
X156802585Y-117411540D02*
X156838300Y-117451718D01*
X156874014Y-117420468D01*
X156838300Y-117380290D01*
X156802585Y-117411540D01*
X156874014Y-117420468D01*
X157552585Y-117148147D02*
X157052585Y-117085647D01*
X157124014Y-117094575D02*
X157088300Y-117054397D01*
X157052585Y-116978504D01*
X157052585Y-116871361D01*
X157088300Y-116804397D01*
X157159728Y-116777611D01*
X157552585Y-116826718D01*
X157159728Y-116777611D02*
X157088300Y-116732968D01*
X157052585Y-116657075D01*
X157052585Y-116549933D01*
X157088300Y-116482968D01*
X157159728Y-116456183D01*
X157552585Y-116505290D01*
X157552585Y-116148147D02*
X157052585Y-116085647D01*
X156802585Y-116054397D02*
X156838300Y-116094575D01*
X156874014Y-116063325D01*
X156838300Y-116023147D01*
X156802585Y-116054397D01*
X156874014Y-116063325D01*
X157052585Y-115835647D02*
X157052585Y-115549933D01*
X156802585Y-115697254D02*
X157445442Y-115777611D01*
X157516871Y-115750825D01*
X157552585Y-115683861D01*
X157552585Y-115612433D01*
X159088300Y-118398147D02*
X159052585Y-118429397D01*
X158945442Y-118487433D01*
X158874014Y-118514218D01*
X158766871Y-118536540D01*
X158588300Y-118549933D01*
X158445442Y-118532075D01*
X158266871Y-118474040D01*
X158159728Y-118424933D01*
X158088300Y-118380290D01*
X157981157Y-118295468D01*
X157945442Y-118255290D01*
X158802585Y-117969575D02*
X158766871Y-118036540D01*
X158731157Y-118067790D01*
X158659728Y-118094575D01*
X158445442Y-118067790D01*
X158374014Y-118023147D01*
X158338300Y-117982968D01*
X158302585Y-117907075D01*
X158302585Y-117799933D01*
X158338300Y-117732968D01*
X158374014Y-117701718D01*
X158445442Y-117674933D01*
X158659728Y-117701718D01*
X158731157Y-117746361D01*
X158766871Y-117786540D01*
X158802585Y-117862433D01*
X158802585Y-117969575D01*
X158302585Y-117335647D02*
X159052585Y-117429397D01*
X158338300Y-117340111D02*
X158302585Y-117264218D01*
X158302585Y-117121361D01*
X158338300Y-117054397D01*
X158374014Y-117023147D01*
X158445442Y-116996361D01*
X158659728Y-117023147D01*
X158731157Y-117067790D01*
X158766871Y-117107968D01*
X158802585Y-117183861D01*
X158802585Y-117326718D01*
X158766871Y-117393683D01*
X158766871Y-116429397D02*
X158802585Y-116505290D01*
X158802585Y-116648147D01*
X158766871Y-116715111D01*
X158695442Y-116741897D01*
X158409728Y-116706183D01*
X158338300Y-116661540D01*
X158302585Y-116585647D01*
X158302585Y-116442790D01*
X158338300Y-116375825D01*
X158409728Y-116349040D01*
X158481157Y-116357968D01*
X158552585Y-116724040D01*
X158302585Y-116014218D02*
X158802585Y-116076718D01*
X158374014Y-116023147D02*
X158338300Y-115982968D01*
X158302585Y-115907075D01*
X158302585Y-115799933D01*
X158338300Y-115732968D01*
X158409728Y-115706183D01*
X158802585Y-115755290D01*
X159088300Y-115505290D02*
X159052585Y-115465111D01*
X158945442Y-115380290D01*
X158874014Y-115335647D01*
X158766871Y-115286540D01*
X158588300Y-115228504D01*
X158445442Y-115210647D01*
X158266871Y-115224040D01*
X158159728Y-115246361D01*
X158088300Y-115273147D01*
X157981157Y-115331183D01*
X157945442Y-115362433D01*
X131845085Y-115542718D02*
X131845085Y-115899861D01*
X131095085Y-115806111D01*
X131845085Y-115185575D02*
X131809371Y-115252540D01*
X131773657Y-115283790D01*
X131702228Y-115310575D01*
X131487942Y-115283790D01*
X131416514Y-115239147D01*
X131380800Y-115198968D01*
X131345085Y-115123075D01*
X131345085Y-115015933D01*
X131380800Y-114948968D01*
X131416514Y-114917718D01*
X131487942Y-114890933D01*
X131702228Y-114917718D01*
X131773657Y-114962361D01*
X131809371Y-115002540D01*
X131845085Y-115078433D01*
X131845085Y-115185575D01*
X131845085Y-114292718D02*
X131452228Y-114243611D01*
X131380800Y-114270397D01*
X131345085Y-114337361D01*
X131345085Y-114480218D01*
X131380800Y-114556111D01*
X131809371Y-114288254D02*
X131845085Y-114364147D01*
X131845085Y-114542718D01*
X131809371Y-114609683D01*
X131737942Y-114636468D01*
X131666514Y-114627540D01*
X131595085Y-114582897D01*
X131559371Y-114507004D01*
X131559371Y-114328433D01*
X131523657Y-114252540D01*
X131845085Y-113614147D02*
X131095085Y-113520397D01*
X131809371Y-113609683D02*
X131845085Y-113685575D01*
X131845085Y-113828433D01*
X131809371Y-113895397D01*
X131773657Y-113926647D01*
X131702228Y-113953433D01*
X131487942Y-113926647D01*
X131416514Y-113882004D01*
X131380800Y-113841825D01*
X131345085Y-113765933D01*
X131345085Y-113623075D01*
X131380800Y-113556111D01*
X132345085Y-116002540D02*
X132345085Y-115859683D01*
X132380800Y-115792718D01*
X132452228Y-115730218D01*
X132595085Y-115712361D01*
X132845085Y-115743611D01*
X132987942Y-115797183D01*
X133059371Y-115877540D01*
X133095085Y-115953433D01*
X133095085Y-116096290D01*
X133059371Y-116163254D01*
X132987942Y-116225754D01*
X132845085Y-116243611D01*
X132595085Y-116212361D01*
X132452228Y-116158790D01*
X132380800Y-116078433D01*
X132345085Y-116002540D01*
X132595085Y-115498075D02*
X132595085Y-115212361D01*
X133095085Y-115453433D02*
X132452228Y-115373075D01*
X132380800Y-115328433D01*
X132345085Y-115252540D01*
X132345085Y-115181111D01*
X132595085Y-115069504D02*
X132595085Y-114783790D01*
X133095085Y-115024861D02*
X132452228Y-114944504D01*
X132380800Y-114899861D01*
X132345085Y-114823968D01*
X132345085Y-114752540D01*
X133059371Y-114627540D02*
X133095085Y-114560575D01*
X133095085Y-114417718D01*
X133059371Y-114341825D01*
X132987942Y-114297183D01*
X132952228Y-114292718D01*
X132880800Y-114319504D01*
X132845085Y-114386468D01*
X132845085Y-114493611D01*
X132809371Y-114560575D01*
X132737942Y-114587361D01*
X132702228Y-114582897D01*
X132630800Y-114538254D01*
X132595085Y-114462361D01*
X132595085Y-114355218D01*
X132630800Y-114288254D01*
X133059371Y-113698968D02*
X133095085Y-113774861D01*
X133095085Y-113917718D01*
X133059371Y-113984683D01*
X132987942Y-114011468D01*
X132702228Y-113975754D01*
X132630800Y-113931111D01*
X132595085Y-113855218D01*
X132595085Y-113712361D01*
X132630800Y-113645397D01*
X132702228Y-113618611D01*
X132773657Y-113627540D01*
X132845085Y-113993611D01*
X132595085Y-113390933D02*
X132595085Y-113105218D01*
X132345085Y-113252540D02*
X132987942Y-113332897D01*
X133059371Y-113306111D01*
X133095085Y-113239147D01*
X133095085Y-113167718D01*
X122054228Y-116539325D02*
X122054228Y-116289325D01*
X122447085Y-116231290D02*
X122447085Y-116588433D01*
X121697085Y-116494683D01*
X121697085Y-116137540D01*
X122447085Y-115909861D02*
X121947085Y-115847361D01*
X122089942Y-115865218D02*
X122018514Y-115820575D01*
X121982800Y-115780397D01*
X121947085Y-115704504D01*
X121947085Y-115633075D01*
X122447085Y-115445575D02*
X121947085Y-115383075D01*
X122089942Y-115400933D02*
X122018514Y-115356290D01*
X121982800Y-115316111D01*
X121947085Y-115240218D01*
X121947085Y-115168790D01*
X122447085Y-114874147D02*
X122411371Y-114941111D01*
X122375657Y-114972361D01*
X122304228Y-114999147D01*
X122089942Y-114972361D01*
X122018514Y-114927718D01*
X121982800Y-114887540D01*
X121947085Y-114811647D01*
X121947085Y-114704504D01*
X121982800Y-114637540D01*
X122018514Y-114606290D01*
X122089942Y-114579504D01*
X122304228Y-114606290D01*
X122375657Y-114650933D01*
X122411371Y-114691111D01*
X122447085Y-114767004D01*
X122447085Y-114874147D01*
X122447085Y-114302718D02*
X121947085Y-114240218D01*
X122089942Y-114258075D02*
X122018514Y-114213433D01*
X121982800Y-114173254D01*
X121947085Y-114097361D01*
X121947085Y-114025933D01*
X122947085Y-116637540D02*
X122947085Y-116494683D01*
X122982800Y-116427718D01*
X123054228Y-116365218D01*
X123197085Y-116347361D01*
X123447085Y-116378611D01*
X123589942Y-116432183D01*
X123661371Y-116512540D01*
X123697085Y-116588433D01*
X123697085Y-116731290D01*
X123661371Y-116798254D01*
X123589942Y-116860754D01*
X123447085Y-116878611D01*
X123197085Y-116847361D01*
X123054228Y-116793790D01*
X122982800Y-116713433D01*
X122947085Y-116637540D01*
X123197085Y-116133075D02*
X123197085Y-115847361D01*
X123697085Y-116088433D02*
X123054228Y-116008075D01*
X122982800Y-115963433D01*
X122947085Y-115887540D01*
X122947085Y-115816111D01*
X123197085Y-115704504D02*
X123197085Y-115418790D01*
X123697085Y-115659861D02*
X123054228Y-115579504D01*
X122982800Y-115534861D01*
X122947085Y-115458968D01*
X122947085Y-115387540D01*
X123661371Y-115262540D02*
X123697085Y-115195575D01*
X123697085Y-115052718D01*
X123661371Y-114976825D01*
X123589942Y-114932183D01*
X123554228Y-114927718D01*
X123482800Y-114954504D01*
X123447085Y-115021468D01*
X123447085Y-115128611D01*
X123411371Y-115195575D01*
X123339942Y-115222361D01*
X123304228Y-115217897D01*
X123232800Y-115173254D01*
X123197085Y-115097361D01*
X123197085Y-114990218D01*
X123232800Y-114923254D01*
X123661371Y-114333968D02*
X123697085Y-114409861D01*
X123697085Y-114552718D01*
X123661371Y-114619683D01*
X123589942Y-114646468D01*
X123304228Y-114610754D01*
X123232800Y-114566111D01*
X123197085Y-114490218D01*
X123197085Y-114347361D01*
X123232800Y-114280397D01*
X123304228Y-114253611D01*
X123375657Y-114262540D01*
X123447085Y-114628611D01*
X123197085Y-114025933D02*
X123197085Y-113740218D01*
X122947085Y-113887540D02*
X123589942Y-113967897D01*
X123661371Y-113941111D01*
X123697085Y-113874147D01*
X123697085Y-113802718D01*
X110626085Y-115897861D02*
X110626085Y-116255004D01*
X109876085Y-116161254D01*
X110626085Y-115647861D02*
X109876085Y-115554111D01*
X110411800Y-115371075D01*
X109876085Y-115054111D01*
X110626085Y-115147861D01*
X109876085Y-114768397D02*
X109876085Y-114304111D01*
X110161800Y-114589825D01*
X110161800Y-114482683D01*
X110197514Y-114415718D01*
X110233228Y-114384468D01*
X110304657Y-114357683D01*
X110483228Y-114380004D01*
X110554657Y-114424647D01*
X110590371Y-114464825D01*
X110626085Y-114540718D01*
X110626085Y-114755004D01*
X110590371Y-114821968D01*
X110554657Y-114853218D01*
X110626085Y-113683575D02*
X110626085Y-114112147D01*
X110626085Y-113897861D02*
X109876085Y-113804111D01*
X109983228Y-113888933D01*
X110054657Y-113969290D01*
X110090371Y-114045183D01*
X109876085Y-113339825D02*
X109876085Y-112839825D01*
X110626085Y-113255004D01*
X110753085Y-93926861D02*
X110753085Y-94284004D01*
X110003085Y-94190254D01*
X110753085Y-93676861D02*
X110003085Y-93583111D01*
X110538800Y-93400075D01*
X110003085Y-93083111D01*
X110753085Y-93176861D01*
X110003085Y-92797397D02*
X110003085Y-92333111D01*
X110288800Y-92618825D01*
X110288800Y-92511683D01*
X110324514Y-92444718D01*
X110360228Y-92413468D01*
X110431657Y-92386683D01*
X110610228Y-92409004D01*
X110681657Y-92453647D01*
X110717371Y-92493825D01*
X110753085Y-92569718D01*
X110753085Y-92784004D01*
X110717371Y-92850968D01*
X110681657Y-92882218D01*
X110753085Y-91712575D02*
X110753085Y-92141147D01*
X110753085Y-91926861D02*
X110003085Y-91833111D01*
X110110228Y-91917933D01*
X110181657Y-91998290D01*
X110217371Y-92074183D01*
X110003085Y-91368825D02*
X110003085Y-90868825D01*
X110753085Y-91284004D01*
X125866085Y-104721861D02*
X125866085Y-105079004D01*
X125116085Y-104985254D01*
X125866085Y-104471861D02*
X125116085Y-104378111D01*
X125651800Y-104195075D01*
X125116085Y-103878111D01*
X125866085Y-103971861D01*
X125116085Y-103592397D02*
X125116085Y-103128111D01*
X125401800Y-103413825D01*
X125401800Y-103306683D01*
X125437514Y-103239718D01*
X125473228Y-103208468D01*
X125544657Y-103181683D01*
X125723228Y-103204004D01*
X125794657Y-103248647D01*
X125830371Y-103288825D01*
X125866085Y-103364718D01*
X125866085Y-103579004D01*
X125830371Y-103645968D01*
X125794657Y-103677218D01*
X125866085Y-102864718D02*
X125866085Y-102721861D01*
X125830371Y-102645968D01*
X125794657Y-102605790D01*
X125687514Y-102520968D01*
X125544657Y-102467397D01*
X125258942Y-102431683D01*
X125187514Y-102458468D01*
X125151800Y-102489718D01*
X125116085Y-102556683D01*
X125116085Y-102699540D01*
X125151800Y-102775433D01*
X125187514Y-102815611D01*
X125258942Y-102860254D01*
X125437514Y-102882575D01*
X125508942Y-102855790D01*
X125544657Y-102824540D01*
X125580371Y-102757575D01*
X125580371Y-102614718D01*
X125544657Y-102538825D01*
X125508942Y-102498647D01*
X125437514Y-102454004D01*
X125116085Y-102163825D02*
X125116085Y-101699540D01*
X125401800Y-101985254D01*
X125401800Y-101878111D01*
X125437514Y-101811147D01*
X125473228Y-101779897D01*
X125544657Y-101753111D01*
X125723228Y-101775433D01*
X125794657Y-101820075D01*
X125830371Y-101860254D01*
X125866085Y-101936147D01*
X125866085Y-102150433D01*
X125830371Y-102217397D01*
X125794657Y-102248647D01*
X118002085Y-87299004D02*
X118002085Y-87656147D01*
X117252085Y-87562397D01*
X118002085Y-87049004D02*
X117252085Y-86955254D01*
X117787800Y-86772218D01*
X117252085Y-86455254D01*
X118002085Y-86549004D01*
X117502085Y-85807933D02*
X118002085Y-85870433D01*
X117216371Y-85950790D02*
X117752085Y-86196325D01*
X117752085Y-85732040D01*
X117252085Y-85240968D02*
X117252085Y-85169540D01*
X117287800Y-85102575D01*
X117323514Y-85071325D01*
X117394942Y-85044540D01*
X117537800Y-85026683D01*
X117716371Y-85049004D01*
X117859228Y-85102575D01*
X117930657Y-85147218D01*
X117966371Y-85187397D01*
X118002085Y-85263290D01*
X118002085Y-85334718D01*
X117966371Y-85401683D01*
X117930657Y-85432933D01*
X117859228Y-85459718D01*
X117716371Y-85477575D01*
X117537800Y-85455254D01*
X117394942Y-85401683D01*
X117323514Y-85357040D01*
X117287800Y-85316861D01*
X117252085Y-85240968D01*
X117502085Y-84379361D02*
X118002085Y-84441861D01*
X117216371Y-84522218D02*
X117752085Y-84767754D01*
X117752085Y-84303468D01*
X117252085Y-83812397D02*
X117252085Y-83740968D01*
X117287800Y-83674004D01*
X117323514Y-83642754D01*
X117394942Y-83615968D01*
X117537800Y-83598111D01*
X117716371Y-83620433D01*
X117859228Y-83674004D01*
X117930657Y-83718647D01*
X117966371Y-83758825D01*
X118002085Y-83834718D01*
X118002085Y-83906147D01*
X117966371Y-83973111D01*
X117930657Y-84004361D01*
X117859228Y-84031147D01*
X117716371Y-84049004D01*
X117537800Y-84026683D01*
X117394942Y-83973111D01*
X117323514Y-83928468D01*
X117287800Y-83888290D01*
X117252085Y-83812397D01*
X119537800Y-87031147D02*
X119502085Y-87062397D01*
X119394942Y-87120433D01*
X119323514Y-87147218D01*
X119216371Y-87169540D01*
X119037800Y-87182933D01*
X118894942Y-87165075D01*
X118716371Y-87107040D01*
X118609228Y-87057933D01*
X118537800Y-87013290D01*
X118430657Y-86928468D01*
X118394942Y-86888290D01*
X118573514Y-86660611D02*
X118537800Y-86620433D01*
X118502085Y-86544540D01*
X118502085Y-86365968D01*
X118537800Y-86299004D01*
X118573514Y-86267754D01*
X118644942Y-86240968D01*
X118716371Y-86249897D01*
X118823514Y-86299004D01*
X119252085Y-86781147D01*
X119252085Y-86316861D01*
X119180657Y-85986504D02*
X119216371Y-85955254D01*
X119252085Y-85995433D01*
X119216371Y-86026683D01*
X119180657Y-85986504D01*
X119252085Y-85995433D01*
X118502085Y-85187397D02*
X118502085Y-85544540D01*
X118859228Y-85624897D01*
X118823514Y-85584718D01*
X118787800Y-85508825D01*
X118787800Y-85330254D01*
X118823514Y-85263290D01*
X118859228Y-85232040D01*
X118930657Y-85205254D01*
X119109228Y-85227575D01*
X119180657Y-85272218D01*
X119216371Y-85312397D01*
X119252085Y-85388290D01*
X119252085Y-85566861D01*
X119216371Y-85633825D01*
X119180657Y-85665075D01*
X118502085Y-84937397D02*
X119252085Y-84781147D01*
X118502085Y-84437397D01*
X119537800Y-84388290D02*
X119502085Y-84348111D01*
X119394942Y-84263290D01*
X119323514Y-84218647D01*
X119216371Y-84169540D01*
X119037800Y-84111504D01*
X118894942Y-84093647D01*
X118716371Y-84107040D01*
X118609228Y-84129361D01*
X118537800Y-84156147D01*
X118430657Y-84214183D01*
X118394942Y-84245433D01*
X148726085Y-99475147D02*
X148726085Y-99832290D01*
X147976085Y-99738540D01*
X147976085Y-99238540D02*
X147976085Y-98809968D01*
X148726085Y-99118004D02*
X147976085Y-99024254D01*
X147976085Y-98631397D02*
X147976085Y-98167111D01*
X148261800Y-98452825D01*
X148261800Y-98345683D01*
X148297514Y-98278718D01*
X148333228Y-98247468D01*
X148404657Y-98220683D01*
X148583228Y-98243004D01*
X148654657Y-98287647D01*
X148690371Y-98327825D01*
X148726085Y-98403718D01*
X148726085Y-98618004D01*
X148690371Y-98684968D01*
X148654657Y-98716218D01*
X147976085Y-97702825D02*
X147976085Y-97631397D01*
X148011800Y-97564433D01*
X148047514Y-97533183D01*
X148118942Y-97506397D01*
X148261800Y-97488540D01*
X148440371Y-97510861D01*
X148583228Y-97564433D01*
X148654657Y-97609075D01*
X148690371Y-97649254D01*
X148726085Y-97725147D01*
X148726085Y-97796575D01*
X148690371Y-97863540D01*
X148654657Y-97894790D01*
X148583228Y-97921575D01*
X148440371Y-97939433D01*
X148261800Y-97917111D01*
X148118942Y-97863540D01*
X148047514Y-97818897D01*
X148011800Y-97778718D01*
X147976085Y-97702825D01*
X148297514Y-97064433D02*
X148261800Y-97131397D01*
X148226085Y-97162647D01*
X148154657Y-97189433D01*
X148118942Y-97184968D01*
X148047514Y-97140325D01*
X148011800Y-97100147D01*
X147976085Y-97024254D01*
X147976085Y-96881397D01*
X148011800Y-96814433D01*
X148047514Y-96783183D01*
X148118942Y-96756397D01*
X148154657Y-96760861D01*
X148226085Y-96805504D01*
X148261800Y-96845683D01*
X148297514Y-96921575D01*
X148297514Y-97064433D01*
X148333228Y-97140325D01*
X148368942Y-97180504D01*
X148440371Y-97225147D01*
X148583228Y-97243004D01*
X148654657Y-97216218D01*
X148690371Y-97184968D01*
X148726085Y-97118004D01*
X148726085Y-96975147D01*
X148690371Y-96899254D01*
X148654657Y-96859075D01*
X148583228Y-96814433D01*
X148440371Y-96796575D01*
X148368942Y-96823361D01*
X148333228Y-96854611D01*
X148297514Y-96921575D01*
X148726085Y-96118004D02*
X148726085Y-96546575D01*
X148726085Y-96332290D02*
X147976085Y-96238540D01*
X148083228Y-96323361D01*
X148154657Y-96403718D01*
X148190371Y-96479611D01*
X168284085Y-120850861D02*
X168284085Y-121208004D01*
X167534085Y-121114254D01*
X168284085Y-120600861D02*
X167534085Y-120507111D01*
X168069800Y-120324075D01*
X167534085Y-120007111D01*
X168284085Y-120100861D01*
X167534085Y-119721397D02*
X167534085Y-119257111D01*
X167819800Y-119542825D01*
X167819800Y-119435683D01*
X167855514Y-119368718D01*
X167891228Y-119337468D01*
X167962657Y-119310683D01*
X168141228Y-119333004D01*
X168212657Y-119377647D01*
X168248371Y-119417825D01*
X168284085Y-119493718D01*
X168284085Y-119708004D01*
X168248371Y-119774968D01*
X168212657Y-119806218D01*
X167534085Y-119007111D02*
X167534085Y-118542825D01*
X167819800Y-118828540D01*
X167819800Y-118721397D01*
X167855514Y-118654433D01*
X167891228Y-118623183D01*
X167962657Y-118596397D01*
X168141228Y-118618718D01*
X168212657Y-118663361D01*
X168248371Y-118703540D01*
X168284085Y-118779433D01*
X168284085Y-118993718D01*
X168248371Y-119060683D01*
X168212657Y-119091933D01*
X167784085Y-117931218D02*
X168284085Y-117993718D01*
X167498371Y-118074075D02*
X168034085Y-118319611D01*
X168034085Y-117855325D01*
D13*
X135778023Y-69000428D02*
X135465523Y-67500428D01*
X134778023Y-69000428D01*
X134251237Y-67500428D02*
X134385166Y-67571857D01*
X134447666Y-67643285D01*
X134501237Y-67786142D01*
X134447666Y-68214714D01*
X134358380Y-68357571D01*
X134278023Y-68429000D01*
X134126237Y-68500428D01*
X133911951Y-68500428D01*
X133778023Y-68429000D01*
X133715523Y-68357571D01*
X133661951Y-68214714D01*
X133715523Y-67786142D01*
X133804808Y-67643285D01*
X133885166Y-67571857D01*
X134036951Y-67500428D01*
X134251237Y-67500428D01*
X132340523Y-68500428D02*
X132465523Y-67500428D01*
X132983380Y-68500428D02*
X133081594Y-67714714D01*
X133028023Y-67571857D01*
X132894094Y-67500428D01*
X132679808Y-67500428D01*
X132528023Y-67571857D01*
X132447666Y-67643285D01*
X131840523Y-68500428D02*
X131269094Y-68500428D01*
X131563737Y-69000428D02*
X131724451Y-67714714D01*
X131670880Y-67571857D01*
X131536951Y-67500428D01*
X131394094Y-67500428D01*
X136733380Y-65429000D02*
X136019094Y-65429000D01*
X136929808Y-65000428D02*
X136242308Y-66500428D01*
X135929808Y-65000428D01*
X134786951Y-65000428D02*
X134599451Y-66500428D01*
X134778023Y-65071857D02*
X134929808Y-65000428D01*
X135215523Y-65000428D01*
X135349451Y-65071857D01*
X135411951Y-65143285D01*
X135465523Y-65286142D01*
X135411951Y-65714714D01*
X135322666Y-65857571D01*
X135242308Y-65929000D01*
X135090523Y-66000428D01*
X134804808Y-66000428D01*
X134670880Y-65929000D01*
X133947666Y-66000428D02*
X134108380Y-64714714D01*
X134197666Y-64571857D01*
X134349451Y-64500428D01*
X134420880Y-64500428D01*
X133885166Y-66500428D02*
X133965523Y-66429000D01*
X133903023Y-66357571D01*
X133822666Y-66429000D01*
X133885166Y-66500428D01*
X133903023Y-66357571D01*
X132590523Y-66000428D02*
X132715523Y-65000428D01*
X133233380Y-66000428D02*
X133331594Y-65214714D01*
X133278023Y-65071857D01*
X133144094Y-65000428D01*
X132929808Y-65000428D01*
X132778023Y-65071857D01*
X132697666Y-65143285D01*
X132063737Y-65071857D02*
X131929808Y-65000428D01*
X131644094Y-65000428D01*
X131492308Y-65071857D01*
X131403023Y-65214714D01*
X131394094Y-65286142D01*
X131447666Y-65429000D01*
X131581594Y-65500428D01*
X131795880Y-65500428D01*
X131929808Y-65571857D01*
X131983380Y-65714714D01*
X131974451Y-65786142D01*
X131885166Y-65929000D01*
X131733380Y-66000428D01*
X131519094Y-66000428D01*
X131385166Y-65929000D01*
X130876237Y-66000428D02*
X130304808Y-66000428D01*
X130599451Y-66500428D02*
X130760166Y-65214714D01*
X130706594Y-65071857D01*
X130572666Y-65000428D01*
X130429808Y-65000428D01*
X104170800Y-122877294D02*
X104099371Y-122939794D01*
X103885085Y-123055866D01*
X103742228Y-123109437D01*
X103527942Y-123154080D01*
X103170800Y-123180866D01*
X102885085Y-123145151D01*
X102527942Y-123029080D01*
X102313657Y-122930866D01*
X102170800Y-122841580D01*
X101956514Y-122671937D01*
X101885085Y-122591580D01*
X103599371Y-122234437D02*
X102099371Y-122046937D01*
X103599371Y-120163008D02*
X103527942Y-120296937D01*
X103385085Y-120350508D01*
X102099371Y-120189794D01*
X103599371Y-119591580D02*
X102599371Y-119466580D01*
X102099371Y-119404080D02*
X102170800Y-119484437D01*
X102242228Y-119421937D01*
X102170800Y-119341580D01*
X102099371Y-119404080D01*
X102242228Y-119421937D01*
X103599371Y-118877294D02*
X102599371Y-118752294D01*
X102742228Y-118770151D02*
X102670800Y-118689794D01*
X102599371Y-118538008D01*
X102599371Y-118323723D01*
X102670800Y-118189794D01*
X102813657Y-118136223D01*
X103599371Y-118234437D01*
X102813657Y-118136223D02*
X102670800Y-118046937D01*
X102599371Y-117895151D01*
X102599371Y-117680866D01*
X102670800Y-117546937D01*
X102813657Y-117493366D01*
X103599371Y-117591580D01*
X104170800Y-117091580D02*
X104099371Y-117011223D01*
X103885085Y-116841580D01*
X103742228Y-116752294D01*
X103527942Y-116654080D01*
X103170800Y-116538008D01*
X102885085Y-116502294D01*
X102527942Y-116529080D01*
X102313657Y-116573723D01*
X102170800Y-116627294D01*
X101956514Y-116743366D01*
X101885085Y-116805866D01*
X99940371Y-124570651D02*
X101440371Y-124258151D01*
X99940371Y-123570651D01*
X101440371Y-123043866D02*
X101368942Y-123177794D01*
X101297514Y-123240294D01*
X101154657Y-123293866D01*
X100726085Y-123240294D01*
X100583228Y-123151008D01*
X100511800Y-123070651D01*
X100440371Y-122918866D01*
X100440371Y-122704580D01*
X100511800Y-122570651D01*
X100583228Y-122508151D01*
X100726085Y-122454580D01*
X101154657Y-122508151D01*
X101297514Y-122597437D01*
X101368942Y-122677794D01*
X101440371Y-122829580D01*
X101440371Y-123043866D01*
X100440371Y-121133151D02*
X101440371Y-121258151D01*
X100440371Y-121776008D02*
X101226085Y-121874223D01*
X101368942Y-121820651D01*
X101440371Y-121686723D01*
X101440371Y-121472437D01*
X101368942Y-121320651D01*
X101297514Y-121240294D01*
X100440371Y-120633151D02*
X100440371Y-120061723D01*
X99940371Y-120356366D02*
X101226085Y-120517080D01*
X101368942Y-120463508D01*
X101440371Y-120329580D01*
X101440371Y-120186723D01*
X100654657Y-118445651D02*
X100654657Y-117945651D01*
X101440371Y-117829580D02*
X101440371Y-118543866D01*
X99940371Y-118356366D01*
X99940371Y-117642080D01*
X101440371Y-117186723D02*
X100440371Y-117061723D01*
X100726085Y-117097437D02*
X100583228Y-117008151D01*
X100511800Y-116927794D01*
X100440371Y-116776008D01*
X100440371Y-116633151D01*
X101440371Y-116258151D02*
X100440371Y-116133151D01*
X100726085Y-116168866D02*
X100583228Y-116079580D01*
X100511800Y-115999223D01*
X100440371Y-115847437D01*
X100440371Y-115704580D01*
X101440371Y-115115294D02*
X101368942Y-115249223D01*
X101297514Y-115311723D01*
X101154657Y-115365294D01*
X100726085Y-115311723D01*
X100583228Y-115222437D01*
X100511800Y-115142080D01*
X100440371Y-114990294D01*
X100440371Y-114776008D01*
X100511800Y-114642080D01*
X100583228Y-114579580D01*
X100726085Y-114526008D01*
X101154657Y-114579580D01*
X101297514Y-114668866D01*
X101368942Y-114749223D01*
X101440371Y-114901008D01*
X101440371Y-115115294D01*
X101440371Y-113972437D02*
X100440371Y-113847437D01*
X100726085Y-113883151D02*
X100583228Y-113793866D01*
X100511800Y-113713508D01*
X100440371Y-113561723D01*
X100440371Y-113418866D01*
X101440371Y-95286723D02*
X99940371Y-95099223D01*
X100654657Y-95188508D02*
X100654657Y-94331366D01*
X101440371Y-94429580D02*
X99940371Y-94242080D01*
X101440371Y-93501008D02*
X101368942Y-93634937D01*
X101297514Y-93697437D01*
X101154657Y-93751008D01*
X100726085Y-93697437D01*
X100583228Y-93608151D01*
X100511800Y-93527794D01*
X100440371Y-93376008D01*
X100440371Y-93161723D01*
X100511800Y-93027794D01*
X100583228Y-92965294D01*
X100726085Y-92911723D01*
X101154657Y-92965294D01*
X101297514Y-93054580D01*
X101368942Y-93134937D01*
X101440371Y-93286723D01*
X101440371Y-93501008D01*
X100440371Y-92447437D02*
X100440371Y-91876008D01*
X99940371Y-92170651D02*
X101226085Y-92331366D01*
X101368942Y-92277794D01*
X101440371Y-92143866D01*
X101440371Y-92001008D01*
D11*
X140004800Y-134543800D02*
X139369800Y-134239000D01*
X126669800Y-62992000D02*
X127304800Y-62738000D01*
X140004800Y-61087000D02*
X139369800Y-61341000D01*
X135178800Y-61087000D02*
X140004800Y-61087000D01*
X130860800Y-62992000D02*
X126669800Y-62992000D01*
D13*
X134481624Y-61285428D02*
X134814957Y-61285428D01*
X134880433Y-60761619D02*
X134755433Y-61761619D01*
X134279243Y-61761619D01*
X134023291Y-60761619D02*
X133939957Y-61428285D01*
X133898291Y-61761619D02*
X133951862Y-61714000D01*
X133910195Y-61666380D01*
X133856624Y-61714000D01*
X133898291Y-61761619D01*
X133910195Y-61666380D01*
X133463767Y-61428285D02*
X133547100Y-60761619D01*
X133475672Y-61333047D02*
X133422100Y-61380666D01*
X133320910Y-61428285D01*
X133178052Y-61428285D01*
X133088767Y-61380666D01*
X133053052Y-61285428D01*
X133118529Y-60761619D01*
X132255433Y-60809238D02*
X132356624Y-60761619D01*
X132547100Y-60761619D01*
X132636386Y-60809238D01*
X132672100Y-60904476D01*
X132624481Y-61285428D01*
X132564957Y-61380666D01*
X132463767Y-61428285D01*
X132273291Y-61428285D01*
X132184005Y-61380666D01*
X132148291Y-61285428D01*
X132160195Y-61190190D01*
X132648291Y-61094952D01*
X135297100Y-62761857D02*
X135350672Y-62714238D01*
X135499481Y-62666619D01*
X135594719Y-62666619D01*
X135731624Y-62714238D01*
X135814957Y-62809476D01*
X135850672Y-62904714D01*
X135874481Y-63095190D01*
X135856624Y-63238047D01*
X135785195Y-63428523D01*
X135725672Y-63523761D01*
X135618529Y-63619000D01*
X135469719Y-63666619D01*
X135374481Y-63666619D01*
X135237576Y-63619000D01*
X135195910Y-63571380D01*
X134737576Y-62666619D02*
X134826862Y-62714238D01*
X134868529Y-62761857D01*
X134904243Y-62857095D01*
X134868529Y-63142809D01*
X134809005Y-63238047D01*
X134755433Y-63285666D01*
X134654243Y-63333285D01*
X134511386Y-63333285D01*
X134422100Y-63285666D01*
X134380433Y-63238047D01*
X134344719Y-63142809D01*
X134380433Y-62857095D01*
X134439957Y-62761857D01*
X134493529Y-62714238D01*
X134594719Y-62666619D01*
X134737576Y-62666619D01*
X133547100Y-62666619D02*
X133481624Y-63190428D01*
X133517338Y-63285666D01*
X133606624Y-63333285D01*
X133797100Y-63333285D01*
X133898291Y-63285666D01*
X133541148Y-62714238D02*
X133642338Y-62666619D01*
X133880433Y-62666619D01*
X133969719Y-62714238D01*
X134005433Y-62809476D01*
X133993529Y-62904714D01*
X133934005Y-62999952D01*
X133832814Y-63047571D01*
X133594719Y-63047571D01*
X133493529Y-63095190D01*
X133070910Y-62666619D02*
X132987576Y-63333285D01*
X133011386Y-63142809D02*
X132951862Y-63238047D01*
X132898291Y-63285666D01*
X132797100Y-63333285D01*
X132701862Y-63333285D01*
X132493529Y-62714238D02*
X132404243Y-62666619D01*
X132213767Y-62666619D01*
X132112576Y-62714238D01*
X132053052Y-62809476D01*
X132047100Y-62857095D01*
X132082814Y-62952333D01*
X132172100Y-62999952D01*
X132314957Y-62999952D01*
X132404243Y-63047571D01*
X132439957Y-63142809D01*
X132434005Y-63190428D01*
X132374481Y-63285666D01*
X132273291Y-63333285D01*
X132130433Y-63333285D01*
X132041148Y-63285666D01*
X131255433Y-62714238D02*
X131356624Y-62666619D01*
X131547100Y-62666619D01*
X131636386Y-62714238D01*
X131672100Y-62809476D01*
X131624481Y-63190428D01*
X131564957Y-63285666D01*
X131463767Y-63333285D01*
X131273291Y-63333285D01*
X131184005Y-63285666D01*
X131148291Y-63190428D01*
X131160195Y-63095190D01*
X131648291Y-62999952D01*
D10*
X148091085Y-86185861D02*
X147341085Y-86092111D01*
X148091085Y-85721575D02*
X148055371Y-85788540D01*
X148019657Y-85819790D01*
X147948228Y-85846575D01*
X147733942Y-85819790D01*
X147662514Y-85775147D01*
X147626800Y-85734968D01*
X147591085Y-85659075D01*
X147591085Y-85551933D01*
X147626800Y-85484968D01*
X147662514Y-85453718D01*
X147733942Y-85426933D01*
X147948228Y-85453718D01*
X148019657Y-85498361D01*
X148055371Y-85538540D01*
X148091085Y-85614433D01*
X148091085Y-85721575D01*
X147591085Y-84766218D02*
X148091085Y-84828718D01*
X147591085Y-85087647D02*
X147983942Y-85136754D01*
X148055371Y-85109968D01*
X148091085Y-85043004D01*
X148091085Y-84935861D01*
X148055371Y-84859968D01*
X148019657Y-84819790D01*
X147591085Y-84516218D02*
X147591085Y-84230504D01*
X147341085Y-84377825D02*
X147983942Y-84458183D01*
X148055371Y-84431397D01*
X148091085Y-84364433D01*
X148091085Y-84293004D01*
X146071085Y-86320254D02*
X146071085Y-85891683D01*
X146821085Y-86199718D02*
X146071085Y-86105968D01*
X146785371Y-85445254D02*
X146821085Y-85521147D01*
X146821085Y-85664004D01*
X146785371Y-85730968D01*
X146713942Y-85757754D01*
X146428228Y-85722040D01*
X146356800Y-85677397D01*
X146321085Y-85601504D01*
X146321085Y-85458647D01*
X146356800Y-85391683D01*
X146428228Y-85364897D01*
X146499657Y-85373825D01*
X146571085Y-85739897D01*
X146821085Y-85092575D02*
X146321085Y-85030075D01*
X146392514Y-85039004D02*
X146356800Y-84998825D01*
X146321085Y-84922933D01*
X146321085Y-84815790D01*
X146356800Y-84748825D01*
X146428228Y-84722040D01*
X146821085Y-84771147D01*
X146428228Y-84722040D02*
X146356800Y-84677397D01*
X146321085Y-84601504D01*
X146321085Y-84494361D01*
X146356800Y-84427397D01*
X146428228Y-84400611D01*
X146821085Y-84449718D01*
X146321085Y-84030075D02*
X147071085Y-84123825D01*
X146356800Y-84034540D02*
X146321085Y-83958647D01*
X146321085Y-83815790D01*
X146356800Y-83748825D01*
X146392514Y-83717575D01*
X146463942Y-83690790D01*
X146678228Y-83717575D01*
X146749657Y-83762218D01*
X146785371Y-83802397D01*
X146821085Y-83878290D01*
X146821085Y-84021147D01*
X146785371Y-84088111D01*
X138763538Y-128126458D02*
X138138538Y-128048333D01*
X138584966Y-127895803D01*
X138138538Y-127631666D01*
X138763538Y-127709791D01*
X138763538Y-127412172D02*
X138346871Y-127360089D01*
X138138538Y-127334047D02*
X138168300Y-127367529D01*
X138198061Y-127341488D01*
X138168300Y-127308005D01*
X138138538Y-127334047D01*
X138198061Y-127341488D01*
X138346871Y-127062470D02*
X138763538Y-127114553D01*
X138406395Y-127069910D02*
X138376633Y-127036428D01*
X138346871Y-126973184D01*
X138346871Y-126883898D01*
X138376633Y-126828095D01*
X138436157Y-126805773D01*
X138763538Y-126846696D01*
X138763538Y-125775267D02*
X138763538Y-126072886D01*
X138138538Y-125994761D01*
X138763538Y-125566934D02*
X138346871Y-125514851D01*
X138138538Y-125488809D02*
X138168300Y-125522291D01*
X138198061Y-125496250D01*
X138168300Y-125462767D01*
X138138538Y-125488809D01*
X138198061Y-125496250D01*
X138763538Y-125269315D02*
X138346871Y-125217232D01*
X138406395Y-125224672D02*
X138376633Y-125191190D01*
X138346871Y-125127946D01*
X138346871Y-125038660D01*
X138376633Y-124982857D01*
X138436157Y-124960535D01*
X138763538Y-125001458D01*
X138436157Y-124960535D02*
X138376633Y-124923333D01*
X138346871Y-124860089D01*
X138346871Y-124770803D01*
X138376633Y-124715000D01*
X138436157Y-124692678D01*
X138763538Y-124733601D01*
X161819085Y-64250111D02*
X162569085Y-64093861D01*
X161819085Y-63750111D01*
X162569085Y-63593861D02*
X162069085Y-63531361D01*
X161819085Y-63500111D02*
X161854800Y-63540290D01*
X161890514Y-63509040D01*
X161854800Y-63468861D01*
X161819085Y-63500111D01*
X161890514Y-63509040D01*
X162069085Y-63174218D02*
X162569085Y-63236718D01*
X162140514Y-63183147D02*
X162104800Y-63142968D01*
X162069085Y-63067075D01*
X162069085Y-62959933D01*
X162104800Y-62892968D01*
X162176228Y-62866183D01*
X162569085Y-62915290D01*
X172741085Y-119997111D02*
X173491085Y-119840861D01*
X172741085Y-119497111D01*
X173491085Y-119233718D02*
X173455371Y-119300683D01*
X173419657Y-119331933D01*
X173348228Y-119358718D01*
X173133942Y-119331933D01*
X173062514Y-119287290D01*
X173026800Y-119247111D01*
X172991085Y-119171218D01*
X172991085Y-119064075D01*
X173026800Y-118997111D01*
X173062514Y-118965861D01*
X173133942Y-118939075D01*
X173348228Y-118965861D01*
X173419657Y-119010504D01*
X173455371Y-119050683D01*
X173491085Y-119126575D01*
X173491085Y-119233718D01*
X172991085Y-118278361D02*
X173491085Y-118340861D01*
X172991085Y-118599790D02*
X173383942Y-118648897D01*
X173455371Y-118622111D01*
X173491085Y-118555147D01*
X173491085Y-118448004D01*
X173455371Y-118372111D01*
X173419657Y-118331933D01*
X172991085Y-118028361D02*
X172991085Y-117742647D01*
X172741085Y-117889968D02*
X173383942Y-117970325D01*
X173455371Y-117943540D01*
X173491085Y-117876575D01*
X173491085Y-117805147D01*
X166934800Y-133273147D02*
X166899085Y-133340111D01*
X166899085Y-133447254D01*
X166934800Y-133558861D01*
X167006228Y-133639218D01*
X167077657Y-133683861D01*
X167220514Y-133737433D01*
X167327657Y-133750825D01*
X167470514Y-133732968D01*
X167541942Y-133706183D01*
X167613371Y-133643683D01*
X167649085Y-133541004D01*
X167649085Y-133469575D01*
X167613371Y-133357968D01*
X167577657Y-133317790D01*
X167327657Y-133286540D01*
X167327657Y-133429397D01*
X167649085Y-133005290D02*
X166899085Y-132911540D01*
X167649085Y-132576718D01*
X166899085Y-132482968D01*
X167649085Y-132219575D02*
X166899085Y-132125825D01*
X166899085Y-131947254D01*
X166934800Y-131844575D01*
X167006228Y-131782075D01*
X167077657Y-131755290D01*
X167220514Y-131737433D01*
X167327657Y-131750825D01*
X167470514Y-131804397D01*
X167541942Y-131849040D01*
X167613371Y-131929397D01*
X167649085Y-132041004D01*
X167649085Y-132219575D01*
D13*
X154653433Y-133544571D02*
X154939148Y-133544571D01*
X155073076Y-133616000D01*
X155198076Y-133758857D01*
X155233791Y-134044571D01*
X155171291Y-134544571D01*
X155064148Y-134830285D01*
X154903433Y-134973142D01*
X154751648Y-135044571D01*
X154465933Y-135044571D01*
X154332005Y-134973142D01*
X154207005Y-134830285D01*
X154171291Y-134544571D01*
X154233791Y-134044571D01*
X154340933Y-133758857D01*
X154501648Y-133616000D01*
X154653433Y-133544571D01*
X156626648Y-134901714D02*
X156546291Y-134973142D01*
X156323076Y-135044571D01*
X156180219Y-135044571D01*
X155974862Y-134973142D01*
X155849862Y-134830285D01*
X155796291Y-134687428D01*
X155760576Y-134401714D01*
X155787362Y-134187428D01*
X155894505Y-133901714D01*
X155983791Y-133758857D01*
X156144505Y-133616000D01*
X156367719Y-133544571D01*
X156510576Y-133544571D01*
X156715933Y-133616000D01*
X156778433Y-133687428D01*
X157251648Y-135044571D02*
X157439148Y-133544571D01*
X158010576Y-133544571D01*
X158144505Y-133616000D01*
X158207005Y-133687428D01*
X158260576Y-133830285D01*
X158233791Y-134044571D01*
X158144505Y-134187428D01*
X158064148Y-134258857D01*
X157912362Y-134330285D01*
X157340933Y-134330285D01*
D11*
X133527800Y-134543800D02*
X140004800Y-134543800D01*
X132842000Y-133858000D02*
X133527800Y-134543800D01*
X149148800Y-133096000D02*
X150164800Y-133858000D01*
X149148800Y-132207000D02*
X149148800Y-133096000D01*
X147116800Y-133096000D02*
X147751800Y-133858000D01*
X147116800Y-132207000D02*
X147116800Y-133096000D01*
X145211800Y-133096000D02*
X144703800Y-133858000D01*
X145211800Y-132207000D02*
X145211800Y-133096000D01*
X143179800Y-133096000D02*
X142417800Y-133858000D01*
X143179800Y-132207000D02*
X143179800Y-133096000D01*
D14*
X150537085Y-135072380D02*
X149965657Y-135072380D01*
X150251371Y-135072380D02*
X150376371Y-134072380D01*
X150263276Y-134215238D01*
X150156133Y-134310476D01*
X150054942Y-134358095D01*
X151281133Y-134072380D02*
X151376371Y-134072380D01*
X151465657Y-134120000D01*
X151507323Y-134167619D01*
X151543038Y-134262857D01*
X151566847Y-134453333D01*
X151537085Y-134691428D01*
X151465657Y-134881904D01*
X151406133Y-134977142D01*
X151352561Y-135024761D01*
X151251371Y-135072380D01*
X151156133Y-135072380D01*
X151066847Y-135024761D01*
X151025180Y-134977142D01*
X150989466Y-134881904D01*
X150965657Y-134691428D01*
X150995419Y-134453333D01*
X151066847Y-134262857D01*
X151126371Y-134167619D01*
X151179942Y-134120000D01*
X151281133Y-134072380D01*
X152233514Y-134072380D02*
X152328752Y-134072380D01*
X152418038Y-134120000D01*
X152459704Y-134167619D01*
X152495419Y-134262857D01*
X152519228Y-134453333D01*
X152489466Y-134691428D01*
X152418038Y-134881904D01*
X152358514Y-134977142D01*
X152304942Y-135024761D01*
X152203752Y-135072380D01*
X152108514Y-135072380D01*
X152019228Y-135024761D01*
X151977561Y-134977142D01*
X151941847Y-134881904D01*
X151918038Y-134691428D01*
X151947800Y-134453333D01*
X152019228Y-134262857D01*
X152078752Y-134167619D01*
X152132323Y-134120000D01*
X152233514Y-134072380D01*
X147534657Y-134072380D02*
X147058466Y-134072380D01*
X146951323Y-134548571D01*
X147004895Y-134500952D01*
X147106085Y-134453333D01*
X147344180Y-134453333D01*
X147433466Y-134500952D01*
X147475133Y-134548571D01*
X147510847Y-134643809D01*
X147481085Y-134881904D01*
X147421561Y-134977142D01*
X147367990Y-135024761D01*
X147266800Y-135072380D01*
X147028704Y-135072380D01*
X146939419Y-135024761D01*
X146897752Y-134977142D01*
X148201323Y-134072380D02*
X148296561Y-134072380D01*
X148385847Y-134120000D01*
X148427514Y-134167619D01*
X148463228Y-134262857D01*
X148487038Y-134453333D01*
X148457276Y-134691428D01*
X148385847Y-134881904D01*
X148326323Y-134977142D01*
X148272752Y-135024761D01*
X148171561Y-135072380D01*
X148076323Y-135072380D01*
X147987038Y-135024761D01*
X147945371Y-134977142D01*
X147909657Y-134881904D01*
X147885847Y-134691428D01*
X147915609Y-134453333D01*
X147987038Y-134262857D01*
X148046561Y-134167619D01*
X148100133Y-134120000D01*
X148201323Y-134072380D01*
X143950942Y-134167619D02*
X144004514Y-134120000D01*
X144105704Y-134072380D01*
X144343800Y-134072380D01*
X144433085Y-134120000D01*
X144474752Y-134167619D01*
X144510466Y-134262857D01*
X144498561Y-134358095D01*
X144433085Y-134500952D01*
X143790228Y-135072380D01*
X144409276Y-135072380D01*
X145439038Y-134072380D02*
X144962847Y-134072380D01*
X144855704Y-134548571D01*
X144909276Y-134500952D01*
X145010466Y-134453333D01*
X145248561Y-134453333D01*
X145337847Y-134500952D01*
X145379514Y-134548571D01*
X145415228Y-134643809D01*
X145385466Y-134881904D01*
X145325942Y-134977142D01*
X145272371Y-135024761D01*
X145171180Y-135072380D01*
X144933085Y-135072380D01*
X144843800Y-135024761D01*
X144802133Y-134977142D01*
X141361276Y-135072380D02*
X140789847Y-135072380D01*
X141075561Y-135072380D02*
X141200561Y-134072380D01*
X141087466Y-134215238D01*
X140980323Y-134310476D01*
X140879133Y-134358095D01*
X142105323Y-134072380D02*
X142200561Y-134072380D01*
X142289847Y-134120000D01*
X142331514Y-134167619D01*
X142367228Y-134262857D01*
X142391038Y-134453333D01*
X142361276Y-134691428D01*
X142289847Y-134881904D01*
X142230323Y-134977142D01*
X142176752Y-135024761D01*
X142075561Y-135072380D01*
X141980323Y-135072380D01*
X141891038Y-135024761D01*
X141849371Y-134977142D01*
X141813657Y-134881904D01*
X141789847Y-134691428D01*
X141819609Y-134453333D01*
X141891038Y-134262857D01*
X141950561Y-134167619D01*
X142004133Y-134120000D01*
X142105323Y-134072380D01*
D11*
X132080000Y-133096000D02*
X132842000Y-133858000D01*
X132080000Y-132334000D02*
X132080000Y-133096000D01*
X130048000Y-133096000D02*
X130556000Y-133858000D01*
X130048000Y-132334000D02*
X130048000Y-133096000D01*
X128016000Y-133096000D02*
X127508000Y-133858000D01*
X128016000Y-132334000D02*
X128016000Y-133096000D01*
X125984000Y-133096000D02*
X125222000Y-133858000D01*
X125984000Y-132334000D02*
X125984000Y-133096000D01*
D14*
X130815047Y-134072380D02*
X130338857Y-134072380D01*
X130231714Y-134548571D01*
X130285285Y-134500952D01*
X130386476Y-134453333D01*
X130624571Y-134453333D01*
X130713857Y-134500952D01*
X130755523Y-134548571D01*
X130791238Y-134643809D01*
X130761476Y-134881904D01*
X130701952Y-134977142D01*
X130648380Y-135024761D01*
X130547190Y-135072380D01*
X130309095Y-135072380D01*
X130219809Y-135024761D01*
X130178142Y-134977142D01*
X126517047Y-134167619D02*
X126570619Y-134120000D01*
X126671809Y-134072380D01*
X126909904Y-134072380D01*
X126999190Y-134120000D01*
X127040857Y-134167619D01*
X127076571Y-134262857D01*
X127064666Y-134358095D01*
X126999190Y-134500952D01*
X126356333Y-135072380D01*
X126975380Y-135072380D01*
X127415857Y-134977142D02*
X127457523Y-135024761D01*
X127403952Y-135072380D01*
X127362285Y-135024761D01*
X127415857Y-134977142D01*
X127403952Y-135072380D01*
X128481333Y-134072380D02*
X128005142Y-134072380D01*
X127898000Y-134548571D01*
X127951571Y-134500952D01*
X128052761Y-134453333D01*
X128290857Y-134453333D01*
X128380142Y-134500952D01*
X128421809Y-134548571D01*
X128457523Y-134643809D01*
X128427761Y-134881904D01*
X128368238Y-134977142D01*
X128314666Y-135024761D01*
X128213476Y-135072380D01*
X127975380Y-135072380D01*
X127886095Y-135024761D01*
X127844428Y-134977142D01*
X125149666Y-135072380D02*
X124578238Y-135072380D01*
X124863952Y-135072380D02*
X124988952Y-134072380D01*
X124875857Y-134215238D01*
X124768714Y-134310476D01*
X124667523Y-134358095D01*
D13*
X118703832Y-134691380D02*
X118828832Y-133691380D01*
X120180023Y-135072333D02*
X120138356Y-135024714D01*
X120060975Y-134881857D01*
X120025261Y-134786619D01*
X119995499Y-134643761D01*
X119977642Y-134405666D01*
X120001451Y-134215190D01*
X120078832Y-133977095D01*
X120144308Y-133834238D01*
X120203832Y-133739000D01*
X120316927Y-133596142D01*
X120370499Y-133548523D01*
X120608594Y-134691380D02*
X120691927Y-134024714D01*
X120680023Y-134119952D02*
X120733594Y-134072333D01*
X120834785Y-134024714D01*
X120977642Y-134024714D01*
X121066927Y-134072333D01*
X121102642Y-134167571D01*
X121037166Y-134691380D01*
X121102642Y-134167571D02*
X121162166Y-134072333D01*
X121263356Y-134024714D01*
X121406213Y-134024714D01*
X121495499Y-134072333D01*
X121531213Y-134167571D01*
X121465737Y-134691380D01*
X121930023Y-134405666D02*
X122406213Y-134405666D01*
X121799070Y-134691380D02*
X122257404Y-133691380D01*
X122465737Y-134691380D01*
X122656213Y-135072333D02*
X122709785Y-135024714D01*
X122822880Y-134881857D01*
X122882404Y-134786619D01*
X122947880Y-134643761D01*
X123025261Y-134405666D01*
X123049070Y-134215190D01*
X123031213Y-133977095D01*
X123001451Y-133834238D01*
X122965737Y-133739000D01*
X122888356Y-133596142D01*
X122846689Y-133548523D01*
D11*
X139509500Y-76200000D02*
X137795000Y-76200000D01*
X114300000Y-76200000D02*
X112585500Y-76200000D01*
X158623000Y-126809500D02*
X158623000Y-125666500D01*
D15*
X143962380Y-116217699D02*
X142962380Y-116092699D01*
X143914761Y-116211747D02*
X143962380Y-116312937D01*
X143962380Y-116503413D01*
X143914761Y-116592699D01*
X143867142Y-116634366D01*
X143771904Y-116670080D01*
X143486190Y-116634366D01*
X143390952Y-116574842D01*
X143343333Y-116521270D01*
X143295714Y-116420080D01*
X143295714Y-116229604D01*
X143343333Y-116140318D01*
X142390761Y-116187937D02*
X142438380Y-116289127D01*
X142438380Y-116479604D01*
X142390761Y-116568889D01*
X142343142Y-116610556D01*
X142247904Y-116646270D01*
X141962190Y-116610556D01*
X141866952Y-116551032D01*
X141819333Y-116497461D01*
X141771714Y-116396270D01*
X141771714Y-116205794D01*
X141819333Y-116116508D01*
X140914380Y-116646270D02*
X139914380Y-116521270D01*
X140295333Y-116568889D02*
X140247714Y-116467699D01*
X140247714Y-116277223D01*
X140295333Y-116187937D01*
X140342952Y-116146270D01*
X140438190Y-116110556D01*
X140723904Y-116146270D01*
X140819142Y-116205794D01*
X140866761Y-116259366D01*
X140914380Y-116360556D01*
X140914380Y-116551032D01*
X140866761Y-116640318D01*
X139390380Y-116217699D02*
X138866571Y-116152223D01*
X138771333Y-116187937D01*
X138723714Y-116277223D01*
X138723714Y-116467699D01*
X138771333Y-116568889D01*
X139342761Y-116211747D02*
X139390380Y-116312937D01*
X139390380Y-116551032D01*
X139342761Y-116640318D01*
X139247523Y-116676032D01*
X139152285Y-116664127D01*
X139057047Y-116604604D01*
X139009428Y-116503413D01*
X139009428Y-116265318D01*
X138961809Y-116164127D01*
X149169380Y-121678699D02*
X148169380Y-121553699D01*
X149121761Y-121672747D02*
X149169380Y-121773937D01*
X149169380Y-121964413D01*
X149121761Y-122053699D01*
X149074142Y-122095366D01*
X148978904Y-122131080D01*
X148693190Y-122095366D01*
X148597952Y-122035842D01*
X148550333Y-121982270D01*
X148502714Y-121881080D01*
X148502714Y-121690604D01*
X148550333Y-121601318D01*
X149185261Y-128062437D02*
X149232880Y-128163627D01*
X149232880Y-128354104D01*
X149185261Y-128443389D01*
X149137642Y-128485056D01*
X149042404Y-128520770D01*
X148756690Y-128485056D01*
X148661452Y-128425532D01*
X148613833Y-128371961D01*
X148566214Y-128270770D01*
X148566214Y-128080294D01*
X148613833Y-127991008D01*
X145613380Y-122742270D02*
X144613380Y-122617270D01*
X144994333Y-122664889D02*
X144946714Y-122563699D01*
X144946714Y-122373223D01*
X144994333Y-122283937D01*
X145041952Y-122242270D01*
X145137190Y-122206556D01*
X145422904Y-122242270D01*
X145518142Y-122301794D01*
X145565761Y-122355366D01*
X145613380Y-122456556D01*
X145613380Y-122647032D01*
X145565761Y-122736318D01*
X145740380Y-127965199D02*
X145216571Y-127899723D01*
X145121333Y-127935437D01*
X145073714Y-128024723D01*
X145073714Y-128215199D01*
X145121333Y-128316389D01*
X145692761Y-127959247D02*
X145740380Y-128060437D01*
X145740380Y-128298532D01*
X145692761Y-128387818D01*
X145597523Y-128423532D01*
X145502285Y-128411627D01*
X145407047Y-128352104D01*
X145359428Y-128250913D01*
X145359428Y-128012818D01*
X145311809Y-127911627D01*
X100325228Y-84200952D02*
X100325228Y-83439047D01*
X100325228Y-89280952D02*
X100325228Y-88519047D01*
X100706180Y-88900000D02*
X99944276Y-88900000D01*
D11*
X106944756Y-88216682D02*
G75*
G02X107090000Y-88900000I-1534756J-683318D01*
G01*
X104726958Y-87364574D02*
G75*
G02X106094000Y-87365000I683042J-1535426D01*
G01*
X103874574Y-89583042D02*
G75*
G02X103875000Y-88216000I1535426J683042D01*
G01*
X106093042Y-90435426D02*
G75*
G02X104726000Y-90435000I-683042J1535426D01*
G01*
X107090253Y-88871195D02*
G75*
G02X106945000Y-89584000I-1680253J-28805D01*
G01*
X107090000Y-83900000D02*
G75*
G03X107090000Y-83900000I-1680000J0D01*
G01*
X104341000Y-82625000D02*
X104387000Y-82672000D01*
X106649000Y-84934000D02*
X106684000Y-84969000D01*
X104135000Y-82830000D02*
X104171000Y-82865000D01*
X106433000Y-85127000D02*
X106479000Y-85174000D01*
X163638000Y-116947000D02*
X161688000Y-116947000D01*
X163638000Y-116947000D02*
X165588000Y-116947000D01*
X163638000Y-122067000D02*
X161688000Y-122067000D01*
X163638000Y-122067000D02*
X165588000Y-122067000D01*
X123210000Y-103440000D02*
X123210000Y-101490000D01*
X123210000Y-103440000D02*
X123210000Y-105390000D01*
X118090000Y-103440000D02*
X118090000Y-101490000D01*
X118090000Y-103440000D02*
X118090000Y-105390000D01*
X113810000Y-83957000D02*
X113810000Y-84887000D01*
X113810000Y-87117000D02*
X113810000Y-86187000D01*
X113810000Y-87117000D02*
X115270000Y-87117000D01*
X113810000Y-83957000D02*
X115270000Y-83957000D01*
D15*
X147759000Y-100040000D02*
X147759000Y-95540000D01*
X142209000Y-100040000D02*
X142209000Y-95540000D01*
D11*
X135025000Y-120010000D02*
X135025000Y-117310000D01*
X138025000Y-120010000D02*
X138025000Y-117310000D01*
X113405500Y-114451000D02*
X116105500Y-114451000D01*
X113405500Y-117451000D02*
X116105500Y-117451000D01*
X108182000Y-99132000D02*
X111782000Y-99132000D01*
X108143522Y-99120478D02*
G75*
G02X109982000Y-94682000I1838478J1838478D01*
G01*
X111820478Y-99120478D02*
G75*
G03X109982000Y-94682000I-1838478J1838478D01*
G01*
X104542335Y-109411392D02*
G75*
G03X101310000Y-109254484I-1672335J-1078608D01*
G01*
X104542335Y-111568608D02*
G75*
G02X101310000Y-111725516I-1672335J1078608D01*
G01*
X103911130Y-109410163D02*
G75*
G03X101829039Y-109410000I-1041130J-1079837D01*
G01*
X103911130Y-111569837D02*
G75*
G02X101829039Y-111570000I-1041130J1079837D01*
G01*
X101310000Y-109254000D02*
X101310000Y-109410000D01*
X101310000Y-111570000D02*
X101310000Y-111726000D01*
X108182000Y-112340000D02*
X111782000Y-112340000D01*
X108143522Y-112328478D02*
G75*
G02X109982000Y-107890000I1838478J1838478D01*
G01*
X111820478Y-112328478D02*
G75*
G03X109982000Y-107890000I-1838478J1838478D01*
G01*
X104542335Y-96203392D02*
G75*
G03X101310000Y-96046484I-1672335J-1078608D01*
G01*
X104542335Y-98360608D02*
G75*
G02X101310000Y-98517516I-1672335J1078608D01*
G01*
X103911130Y-96202163D02*
G75*
G03X101829039Y-96202000I-1041130J-1079837D01*
G01*
X103911130Y-98361837D02*
G75*
G02X101829039Y-98362000I-1041130J1079837D01*
G01*
X101310000Y-96046000D02*
X101310000Y-96202000D01*
X101310000Y-98362000D02*
X101310000Y-98518000D01*
X141245000Y-119195436D02*
X141245000Y-120399564D01*
X139425000Y-119195436D02*
X139425000Y-120399564D01*
X141245000Y-124910436D02*
X141245000Y-126114564D01*
X139425000Y-124910436D02*
X139425000Y-126114564D01*
X145055000Y-119195436D02*
X145055000Y-120399564D01*
X143235000Y-119195436D02*
X143235000Y-120399564D01*
X145055000Y-124910436D02*
X145055000Y-126114564D01*
X143235000Y-124910436D02*
X143235000Y-126114564D01*
X138865000Y-128787000D02*
X153465000Y-128787000D01*
X142165000Y-133087000D02*
X138865000Y-133087000D01*
X153465000Y-133087000D02*
X150165000Y-133087000D01*
X121732000Y-128787000D02*
X136332000Y-128787000D01*
X125032000Y-133087000D02*
X121732000Y-133087000D01*
X136332000Y-133087000D02*
X133032000Y-133087000D01*
X142854000Y-81689964D02*
X142854000Y-80485836D01*
X144674000Y-81689964D02*
X144674000Y-80485836D01*
X150474000Y-81691564D02*
X150474000Y-80487436D01*
X152294000Y-81691564D02*
X152294000Y-80487436D01*
X146664000Y-81691564D02*
X146664000Y-80487436D01*
X148484000Y-81691564D02*
X148484000Y-80487436D01*
X116208564Y-112670000D02*
X115004436Y-112670000D01*
X116208564Y-110850000D02*
X115004436Y-110850000D01*
X120047936Y-95610000D02*
X121252064Y-95610000D01*
X120047936Y-97430000D02*
X121252064Y-97430000D01*
X120047936Y-92435000D02*
X121252064Y-92435000D01*
X120047936Y-94255000D02*
X121252064Y-94255000D01*
X116172064Y-109495000D02*
X114967936Y-109495000D01*
X116172064Y-107675000D02*
X114967936Y-107675000D01*
X121887064Y-109495000D02*
X120682936Y-109495000D01*
X121887064Y-107675000D02*
X120682936Y-107675000D01*
X155215000Y-124910436D02*
X155215000Y-126114564D01*
X153395000Y-124910436D02*
X153395000Y-126114564D01*
X151405000Y-124910436D02*
X151405000Y-126114564D01*
X149585000Y-124910436D02*
X149585000Y-126114564D01*
X133625000Y-124910436D02*
X133625000Y-126114564D01*
X131805000Y-124910436D02*
X131805000Y-126114564D01*
X125455000Y-124910436D02*
X125455000Y-126114564D01*
X127275000Y-124910436D02*
X127275000Y-126114564D01*
X123465000Y-124910436D02*
X123465000Y-126114564D01*
X121645000Y-124910436D02*
X121645000Y-126114564D01*
X155215000Y-119195436D02*
X155215000Y-120399564D01*
X153395000Y-119195436D02*
X153395000Y-120399564D01*
X151405000Y-119195436D02*
X151405000Y-120399564D01*
X149585000Y-119195436D02*
X149585000Y-120399564D01*
X133625000Y-119195436D02*
X133625000Y-120399564D01*
X131805000Y-119195436D02*
X131805000Y-120399564D01*
X127275000Y-119195436D02*
X127275000Y-120399564D01*
X125455000Y-119195436D02*
X125455000Y-120399564D01*
X121645000Y-120399564D02*
X121645000Y-119195436D01*
X123465000Y-120399564D02*
X123465000Y-119195436D01*
X148650000Y-116145000D02*
X145990000Y-116145000D01*
X148650000Y-118745000D02*
X148650000Y-116145000D01*
X145990000Y-118745000D02*
X145990000Y-116145000D01*
X148650000Y-118745000D02*
X145990000Y-118745000D01*
X148650000Y-120015000D02*
X148650000Y-121345000D01*
X148650000Y-121345000D02*
X147320000Y-121345000D01*
X164190000Y-64102064D02*
X164190000Y-62897936D01*
X166010000Y-64102064D02*
X166010000Y-62897936D01*
X132276436Y-78465000D02*
X133480564Y-78465000D01*
X132276436Y-80285000D02*
X133480564Y-80285000D01*
D15*
X147026380Y-114498333D02*
X147740666Y-114498333D01*
X147883523Y-114545952D01*
X147978761Y-114641190D01*
X148026380Y-114784047D01*
X148026380Y-114879285D01*
X148026380Y-114022142D02*
X147026380Y-114022142D01*
X147026380Y-113641190D01*
X147074000Y-113545952D01*
X147121619Y-113498333D01*
X147216857Y-113450714D01*
X147359714Y-113450714D01*
X147454952Y-113498333D01*
X147502571Y-113545952D01*
X147550190Y-113641190D01*
X147550190Y-114022142D01*
X147026380Y-112545952D02*
X147026380Y-113022142D01*
X147502571Y-113069761D01*
X147454952Y-113022142D01*
X147407333Y-112926904D01*
X147407333Y-112688809D01*
X147454952Y-112593571D01*
X147502571Y-112545952D01*
X147597809Y-112498333D01*
X147835904Y-112498333D01*
X147931142Y-112545952D01*
X147978761Y-112593571D01*
X148026380Y-112688809D01*
X148026380Y-112926904D01*
X147978761Y-113022142D01*
X147931142Y-113069761D01*
X106878380Y-109100857D02*
X106402190Y-109434190D01*
X106878380Y-109672285D02*
X105878380Y-109672285D01*
X105878380Y-109291333D01*
X105926000Y-109196095D01*
X105973619Y-109148476D01*
X106068857Y-109100857D01*
X106211714Y-109100857D01*
X106306952Y-109148476D01*
X106354571Y-109196095D01*
X106402190Y-109291333D01*
X106402190Y-109672285D01*
X105973619Y-108719904D02*
X105926000Y-108672285D01*
X105878380Y-108577047D01*
X105878380Y-108338952D01*
X105926000Y-108243714D01*
X105973619Y-108196095D01*
X106068857Y-108148476D01*
X106164095Y-108148476D01*
X106306952Y-108196095D01*
X106878380Y-108767523D01*
X106878380Y-108148476D01*
X105878380Y-107815142D02*
X105878380Y-107148476D01*
X106878380Y-107577047D01*
X106878380Y-99702857D02*
X106402190Y-100036190D01*
X106878380Y-100274285D02*
X105878380Y-100274285D01*
X105878380Y-99893333D01*
X105926000Y-99798095D01*
X105973619Y-99750476D01*
X106068857Y-99702857D01*
X106211714Y-99702857D01*
X106306952Y-99750476D01*
X106354571Y-99798095D01*
X106402190Y-99893333D01*
X106402190Y-100274285D01*
X105973619Y-99321904D02*
X105926000Y-99274285D01*
X105878380Y-99179047D01*
X105878380Y-98940952D01*
X105926000Y-98845714D01*
X105973619Y-98798095D01*
X106068857Y-98750476D01*
X106164095Y-98750476D01*
X106306952Y-98798095D01*
X106878380Y-99369523D01*
X106878380Y-98750476D01*
X106306952Y-98179047D02*
X106259333Y-98274285D01*
X106211714Y-98321904D01*
X106116476Y-98369523D01*
X106068857Y-98369523D01*
X105973619Y-98321904D01*
X105926000Y-98274285D01*
X105878380Y-98179047D01*
X105878380Y-97988571D01*
X105926000Y-97893333D01*
X105973619Y-97845714D01*
X106068857Y-97798095D01*
X106116476Y-97798095D01*
X106211714Y-97845714D01*
X106259333Y-97893333D01*
X106306952Y-97988571D01*
X106306952Y-98179047D01*
X106354571Y-98274285D01*
X106402190Y-98321904D01*
X106497428Y-98369523D01*
X106687904Y-98369523D01*
X106783142Y-98321904D01*
X106830761Y-98274285D01*
X106878380Y-98179047D01*
X106878380Y-97988571D01*
X106830761Y-97893333D01*
X106783142Y-97845714D01*
X106687904Y-97798095D01*
X106497428Y-97798095D01*
X106402190Y-97845714D01*
X106354571Y-97893333D01*
X106306952Y-97988571D01*
X126182380Y-80652857D02*
X125706190Y-80986190D01*
X126182380Y-81224285D02*
X125182380Y-81224285D01*
X125182380Y-80843333D01*
X125230000Y-80748095D01*
X125277619Y-80700476D01*
X125372857Y-80652857D01*
X125515714Y-80652857D01*
X125610952Y-80700476D01*
X125658571Y-80748095D01*
X125706190Y-80843333D01*
X125706190Y-81224285D01*
X125277619Y-80271904D02*
X125230000Y-80224285D01*
X125182380Y-80129047D01*
X125182380Y-79890952D01*
X125230000Y-79795714D01*
X125277619Y-79748095D01*
X125372857Y-79700476D01*
X125468095Y-79700476D01*
X125610952Y-79748095D01*
X126182380Y-80319523D01*
X126182380Y-79700476D01*
X125277619Y-79319523D02*
X125230000Y-79271904D01*
X125182380Y-79176666D01*
X125182380Y-78938571D01*
X125230000Y-78843333D01*
X125277619Y-78795714D01*
X125372857Y-78748095D01*
X125468095Y-78748095D01*
X125610952Y-78795714D01*
X126182380Y-79367142D01*
X126182380Y-78748095D01*
X113863380Y-94622857D02*
X113387190Y-94956190D01*
X113863380Y-95194285D02*
X112863380Y-95194285D01*
X112863380Y-94813333D01*
X112911000Y-94718095D01*
X112958619Y-94670476D01*
X113053857Y-94622857D01*
X113196714Y-94622857D01*
X113291952Y-94670476D01*
X113339571Y-94718095D01*
X113387190Y-94813333D01*
X113387190Y-95194285D01*
X113863380Y-93670476D02*
X113863380Y-94241904D01*
X113863380Y-93956190D02*
X112863380Y-93956190D01*
X113006238Y-94051428D01*
X113101476Y-94146666D01*
X113149095Y-94241904D01*
X112863380Y-92765714D02*
X112863380Y-93241904D01*
X113339571Y-93289523D01*
X113291952Y-93241904D01*
X113244333Y-93146666D01*
X113244333Y-92908571D01*
X113291952Y-92813333D01*
X113339571Y-92765714D01*
X113434809Y-92718095D01*
X113672904Y-92718095D01*
X113768142Y-92765714D01*
X113815761Y-92813333D01*
X113863380Y-92908571D01*
X113863380Y-93146666D01*
X113815761Y-93241904D01*
X113768142Y-93289523D01*
X128392180Y-115577857D02*
X127915990Y-115911190D01*
X128392180Y-116149285D02*
X127392180Y-116149285D01*
X127392180Y-115768333D01*
X127439800Y-115673095D01*
X127487419Y-115625476D01*
X127582657Y-115577857D01*
X127725514Y-115577857D01*
X127820752Y-115625476D01*
X127868371Y-115673095D01*
X127915990Y-115768333D01*
X127915990Y-116149285D01*
X128392180Y-114625476D02*
X128392180Y-115196904D01*
X128392180Y-114911190D02*
X127392180Y-114911190D01*
X127535038Y-115006428D01*
X127630276Y-115101666D01*
X127677895Y-115196904D01*
X127392180Y-113768333D02*
X127392180Y-113958809D01*
X127439800Y-114054047D01*
X127487419Y-114101666D01*
X127630276Y-114196904D01*
X127820752Y-114244523D01*
X128201704Y-114244523D01*
X128296942Y-114196904D01*
X128344561Y-114149285D01*
X128392180Y-114054047D01*
X128392180Y-113863571D01*
X128344561Y-113768333D01*
X128296942Y-113720714D01*
X128201704Y-113673095D01*
X127963609Y-113673095D01*
X127868371Y-113720714D01*
X127820752Y-113768333D01*
X127773133Y-113863571D01*
X127773133Y-114054047D01*
X127820752Y-114149285D01*
X127868371Y-114196904D01*
X127963609Y-114244523D01*
X138060180Y-123769333D02*
X138774466Y-123769333D01*
X138917323Y-123816952D01*
X139012561Y-123912190D01*
X139060180Y-124055047D01*
X139060180Y-124150285D01*
X139060180Y-123293142D02*
X138060180Y-123293142D01*
X138060180Y-122912190D01*
X138107800Y-122816952D01*
X138155419Y-122769333D01*
X138250657Y-122721714D01*
X138393514Y-122721714D01*
X138488752Y-122769333D01*
X138536371Y-122816952D01*
X138583990Y-122912190D01*
X138583990Y-123293142D01*
X139060180Y-121769333D02*
X139060180Y-122340761D01*
X139060180Y-122055047D02*
X138060180Y-122055047D01*
X138203038Y-122150285D01*
X138298276Y-122245523D01*
X138345895Y-122340761D01*
X154519380Y-64761904D02*
X154519380Y-64190476D01*
X155519380Y-64476190D02*
X154519380Y-64476190D01*
X155519380Y-63857142D02*
X154519380Y-63857142D01*
X154519380Y-63476190D01*
X154567000Y-63380952D01*
X154614619Y-63333333D01*
X154709857Y-63285714D01*
X154852714Y-63285714D01*
X154947952Y-63333333D01*
X154995571Y-63380952D01*
X155043190Y-63476190D01*
X155043190Y-63857142D01*
X155519380Y-62333333D02*
X155519380Y-62904761D01*
X155519380Y-62619047D02*
X154519380Y-62619047D01*
X154662238Y-62714285D01*
X154757476Y-62809523D01*
X154805095Y-62904761D01*
X159599380Y-133976904D02*
X159599380Y-133405476D01*
X160599380Y-133691190D02*
X159599380Y-133691190D01*
X160599380Y-133072142D02*
X159599380Y-133072142D01*
X159599380Y-132691190D01*
X159647000Y-132595952D01*
X159694619Y-132548333D01*
X159789857Y-132500714D01*
X159932714Y-132500714D01*
X160027952Y-132548333D01*
X160075571Y-132595952D01*
X160123190Y-132691190D01*
X160123190Y-133072142D01*
X159599380Y-131595952D02*
X159599380Y-132072142D01*
X160075571Y-132119761D01*
X160027952Y-132072142D01*
X159980333Y-131976904D01*
X159980333Y-131738809D01*
X160027952Y-131643571D01*
X160075571Y-131595952D01*
X160170809Y-131548333D01*
X160408904Y-131548333D01*
X160504142Y-131595952D01*
X160551761Y-131643571D01*
X160599380Y-131738809D01*
X160599380Y-131976904D01*
X160551761Y-132072142D01*
X160504142Y-132119761D01*
X159075380Y-129039857D02*
X158599190Y-129373190D01*
X159075380Y-129611285D02*
X158075380Y-129611285D01*
X158075380Y-129230333D01*
X158123000Y-129135095D01*
X158170619Y-129087476D01*
X158265857Y-129039857D01*
X158408714Y-129039857D01*
X158503952Y-129087476D01*
X158551571Y-129135095D01*
X158599190Y-129230333D01*
X158599190Y-129611285D01*
X158170619Y-128658904D02*
X158123000Y-128611285D01*
X158075380Y-128516047D01*
X158075380Y-128277952D01*
X158123000Y-128182714D01*
X158170619Y-128135095D01*
X158265857Y-128087476D01*
X158361095Y-128087476D01*
X158503952Y-128135095D01*
X159075380Y-128706523D01*
X159075380Y-128087476D01*
X158075380Y-127754142D02*
X158075380Y-127135095D01*
X158456333Y-127468428D01*
X158456333Y-127325571D01*
X158503952Y-127230333D01*
X158551571Y-127182714D01*
X158646809Y-127135095D01*
X158884904Y-127135095D01*
X158980142Y-127182714D01*
X159027761Y-127230333D01*
X159075380Y-127325571D01*
X159075380Y-127611285D01*
X159027761Y-127706523D01*
X158980142Y-127754142D01*
X159555380Y-129230333D02*
X160269666Y-129230333D01*
X160412523Y-129277952D01*
X160507761Y-129373190D01*
X160555380Y-129516047D01*
X160555380Y-129611285D01*
X160555380Y-128754142D02*
X159555380Y-128754142D01*
X159555380Y-128373190D01*
X159603000Y-128277952D01*
X159650619Y-128230333D01*
X159745857Y-128182714D01*
X159888714Y-128182714D01*
X159983952Y-128230333D01*
X160031571Y-128277952D01*
X160079190Y-128373190D01*
X160079190Y-128754142D01*
X159555380Y-127849380D02*
X159555380Y-127230333D01*
X159936333Y-127563666D01*
X159936333Y-127420809D01*
X159983952Y-127325571D01*
X160031571Y-127277952D01*
X160126809Y-127230333D01*
X160364904Y-127230333D01*
X160460142Y-127277952D01*
X160507761Y-127325571D01*
X160555380Y-127420809D01*
X160555380Y-127706523D01*
X160507761Y-127801761D01*
X160460142Y-127849380D01*
X170318180Y-124705904D02*
X170318180Y-124134476D01*
X171318180Y-124420190D02*
X170318180Y-124420190D01*
X171318180Y-123801142D02*
X170318180Y-123801142D01*
X170318180Y-123420190D01*
X170365800Y-123324952D01*
X170413419Y-123277333D01*
X170508657Y-123229714D01*
X170651514Y-123229714D01*
X170746752Y-123277333D01*
X170794371Y-123324952D01*
X170841990Y-123420190D01*
X170841990Y-123801142D01*
X170413419Y-122848761D02*
X170365800Y-122801142D01*
X170318180Y-122705904D01*
X170318180Y-122467809D01*
X170365800Y-122372571D01*
X170413419Y-122324952D01*
X170508657Y-122277333D01*
X170603895Y-122277333D01*
X170746752Y-122324952D01*
X171318180Y-122896380D01*
X171318180Y-122277333D01*
X153519142Y-81466666D02*
X153566761Y-81514285D01*
X153614380Y-81657142D01*
X153614380Y-81752380D01*
X153566761Y-81895238D01*
X153471523Y-81990476D01*
X153376285Y-82038095D01*
X153185809Y-82085714D01*
X153042952Y-82085714D01*
X152852476Y-82038095D01*
X152757238Y-81990476D01*
X152662000Y-81895238D01*
X152614380Y-81752380D01*
X152614380Y-81657142D01*
X152662000Y-81514285D01*
X152709619Y-81466666D01*
X152614380Y-80609523D02*
X152614380Y-80800000D01*
X152662000Y-80895238D01*
X152709619Y-80942857D01*
X152852476Y-81038095D01*
X153042952Y-81085714D01*
X153423904Y-81085714D01*
X153519142Y-81038095D01*
X153566761Y-80990476D01*
X153614380Y-80895238D01*
X153614380Y-80704761D01*
X153566761Y-80609523D01*
X153519142Y-80561904D01*
X153423904Y-80514285D01*
X153185809Y-80514285D01*
X153090571Y-80561904D01*
X153042952Y-80609523D01*
X152995333Y-80704761D01*
X152995333Y-80895238D01*
X153042952Y-80990476D01*
X153090571Y-81038095D01*
X153185809Y-81085714D01*
X138152142Y-81446666D02*
X138199761Y-81494285D01*
X138247380Y-81637142D01*
X138247380Y-81732380D01*
X138199761Y-81875238D01*
X138104523Y-81970476D01*
X138009285Y-82018095D01*
X137818809Y-82065714D01*
X137675952Y-82065714D01*
X137485476Y-82018095D01*
X137390238Y-81970476D01*
X137295000Y-81875238D01*
X137247380Y-81732380D01*
X137247380Y-81637142D01*
X137295000Y-81494285D01*
X137342619Y-81446666D01*
X137247380Y-81113333D02*
X137247380Y-80446666D01*
X138247380Y-80875238D01*
X133052142Y-73739666D02*
X133099761Y-73787285D01*
X133147380Y-73930142D01*
X133147380Y-74025380D01*
X133099761Y-74168238D01*
X133004523Y-74263476D01*
X132909285Y-74311095D01*
X132718809Y-74358714D01*
X132575952Y-74358714D01*
X132385476Y-74311095D01*
X132290238Y-74263476D01*
X132195000Y-74168238D01*
X132147380Y-74025380D01*
X132147380Y-73930142D01*
X132195000Y-73787285D01*
X132242619Y-73739666D01*
X132575952Y-73168238D02*
X132528333Y-73263476D01*
X132480714Y-73311095D01*
X132385476Y-73358714D01*
X132337857Y-73358714D01*
X132242619Y-73311095D01*
X132195000Y-73263476D01*
X132147380Y-73168238D01*
X132147380Y-72977761D01*
X132195000Y-72882523D01*
X132242619Y-72834904D01*
X132337857Y-72787285D01*
X132385476Y-72787285D01*
X132480714Y-72834904D01*
X132528333Y-72882523D01*
X132575952Y-72977761D01*
X132575952Y-73168238D01*
X132623571Y-73263476D01*
X132671190Y-73311095D01*
X132766428Y-73358714D01*
X132956904Y-73358714D01*
X133052142Y-73311095D01*
X133099761Y-73263476D01*
X133147380Y-73168238D01*
X133147380Y-72977761D01*
X133099761Y-72882523D01*
X133052142Y-72834904D01*
X132956904Y-72787285D01*
X132766428Y-72787285D01*
X132671190Y-72834904D01*
X132623571Y-72882523D01*
X132575952Y-72977761D01*
X113831642Y-103671666D02*
X113879261Y-103719285D01*
X113926880Y-103862142D01*
X113926880Y-103957380D01*
X113879261Y-104100238D01*
X113784023Y-104195476D01*
X113688785Y-104243095D01*
X113498309Y-104290714D01*
X113355452Y-104290714D01*
X113164976Y-104243095D01*
X113069738Y-104195476D01*
X112974500Y-104100238D01*
X112926880Y-103957380D01*
X112926880Y-103862142D01*
X112974500Y-103719285D01*
X113022119Y-103671666D01*
X112926880Y-102766904D02*
X112926880Y-103243095D01*
X113403071Y-103290714D01*
X113355452Y-103243095D01*
X113307833Y-103147857D01*
X113307833Y-102909761D01*
X113355452Y-102814523D01*
X113403071Y-102766904D01*
X113498309Y-102719285D01*
X113736404Y-102719285D01*
X113831642Y-102766904D01*
X113879261Y-102814523D01*
X113926880Y-102909761D01*
X113926880Y-103147857D01*
X113879261Y-103243095D01*
X113831642Y-103290714D01*
X142470142Y-114466666D02*
X142517761Y-114514285D01*
X142565380Y-114657142D01*
X142565380Y-114752380D01*
X142517761Y-114895238D01*
X142422523Y-114990476D01*
X142327285Y-115038095D01*
X142136809Y-115085714D01*
X141993952Y-115085714D01*
X141803476Y-115038095D01*
X141708238Y-114990476D01*
X141613000Y-114895238D01*
X141565380Y-114752380D01*
X141565380Y-114657142D01*
X141613000Y-114514285D01*
X141660619Y-114466666D01*
X142565380Y-113514285D02*
X142565380Y-114085714D01*
X142565380Y-113800000D02*
X141565380Y-113800000D01*
X141708238Y-113895238D01*
X141803476Y-113990476D01*
X141851095Y-114085714D01*
X149709142Y-114974666D02*
X149756761Y-115022285D01*
X149804380Y-115165142D01*
X149804380Y-115260380D01*
X149756761Y-115403238D01*
X149661523Y-115498476D01*
X149566285Y-115546095D01*
X149375809Y-115593714D01*
X149232952Y-115593714D01*
X149042476Y-115546095D01*
X148947238Y-115498476D01*
X148852000Y-115403238D01*
X148804380Y-115260380D01*
X148804380Y-115165142D01*
X148852000Y-115022285D01*
X148899619Y-114974666D01*
X148899619Y-114593714D02*
X148852000Y-114546095D01*
X148804380Y-114450857D01*
X148804380Y-114212761D01*
X148852000Y-114117523D01*
X148899619Y-114069904D01*
X148994857Y-114022285D01*
X149090095Y-114022285D01*
X149232952Y-114069904D01*
X149804380Y-114641333D01*
X149804380Y-114022285D01*
X104862380Y-92789333D02*
X105576666Y-92789333D01*
X105719523Y-92836952D01*
X105814761Y-92932190D01*
X105862380Y-93075047D01*
X105862380Y-93170285D01*
X105862380Y-91789333D02*
X105862380Y-92360761D01*
X105862380Y-92075047D02*
X104862380Y-92075047D01*
X105005238Y-92170285D01*
X105100476Y-92265523D01*
X105148095Y-92360761D01*
X109180380Y-79835333D02*
X109894666Y-79835333D01*
X110037523Y-79882952D01*
X110132761Y-79978190D01*
X110180380Y-80121047D01*
X110180380Y-80216285D01*
X109275619Y-79406761D02*
X109228000Y-79359142D01*
X109180380Y-79263904D01*
X109180380Y-79025809D01*
X109228000Y-78930571D01*
X109275619Y-78882952D01*
X109370857Y-78835333D01*
X109466095Y-78835333D01*
X109608952Y-78882952D01*
X110180380Y-79454380D01*
X110180380Y-78835333D01*
X158697680Y-120903904D02*
X159507204Y-120903904D01*
X159602442Y-120856285D01*
X159650061Y-120808666D01*
X159697680Y-120713428D01*
X159697680Y-120522952D01*
X159650061Y-120427714D01*
X159602442Y-120380095D01*
X159507204Y-120332476D01*
X158697680Y-120332476D01*
X159031014Y-119427714D02*
X159697680Y-119427714D01*
X158650061Y-119665809D02*
X159364347Y-119903904D01*
X159364347Y-119284857D01*
X137485380Y-76795238D02*
X137009190Y-77128571D01*
X137485380Y-77366666D02*
X136485380Y-77366666D01*
X136485380Y-76985714D01*
X136533000Y-76890476D01*
X136580619Y-76842857D01*
X136675857Y-76795238D01*
X136818714Y-76795238D01*
X136913952Y-76842857D01*
X136961571Y-76890476D01*
X137009190Y-76985714D01*
X137009190Y-77366666D01*
X136485380Y-76509523D02*
X137485380Y-76176190D01*
X136485380Y-75842857D01*
X136485380Y-75604761D02*
X136485380Y-74985714D01*
X136866333Y-75319047D01*
X136866333Y-75176190D01*
X136913952Y-75080952D01*
X136961571Y-75033333D01*
X137056809Y-74985714D01*
X137294904Y-74985714D01*
X137390142Y-75033333D01*
X137437761Y-75080952D01*
X137485380Y-75176190D01*
X137485380Y-75461904D01*
X137437761Y-75557142D01*
X137390142Y-75604761D01*
X112275880Y-77811238D02*
X111799690Y-78144571D01*
X112275880Y-78382666D02*
X111275880Y-78382666D01*
X111275880Y-78001714D01*
X111323500Y-77906476D01*
X111371119Y-77858857D01*
X111466357Y-77811238D01*
X111609214Y-77811238D01*
X111704452Y-77858857D01*
X111752071Y-77906476D01*
X111799690Y-78001714D01*
X111799690Y-78382666D01*
X111275880Y-77525523D02*
X112275880Y-77192190D01*
X111275880Y-76858857D01*
X111371119Y-76573142D02*
X111323500Y-76525523D01*
X111275880Y-76430285D01*
X111275880Y-76192190D01*
X111323500Y-76096952D01*
X111371119Y-76049333D01*
X111466357Y-76001714D01*
X111561595Y-76001714D01*
X111704452Y-76049333D01*
X112275880Y-76620761D01*
X112275880Y-76001714D01*
X107767380Y-117689238D02*
X107291190Y-118022571D01*
X107767380Y-118260666D02*
X106767380Y-118260666D01*
X106767380Y-117879714D01*
X106815000Y-117784476D01*
X106862619Y-117736857D01*
X106957857Y-117689238D01*
X107100714Y-117689238D01*
X107195952Y-117736857D01*
X107243571Y-117784476D01*
X107291190Y-117879714D01*
X107291190Y-118260666D01*
X106767380Y-117403523D02*
X107767380Y-117070190D01*
X106767380Y-116736857D01*
X107100714Y-115974952D02*
X107767380Y-115974952D01*
X106719761Y-116213047D02*
X107434047Y-116451142D01*
X107434047Y-115832095D01*
X123658380Y-104139904D02*
X124467904Y-104139904D01*
X124563142Y-104092285D01*
X124610761Y-104044666D01*
X124658380Y-103949428D01*
X124658380Y-103758952D01*
X124610761Y-103663714D01*
X124563142Y-103616095D01*
X124467904Y-103568476D01*
X123658380Y-103568476D01*
X123658380Y-103187523D02*
X123658380Y-102568476D01*
X124039333Y-102901809D01*
X124039333Y-102758952D01*
X124086952Y-102663714D01*
X124134571Y-102616095D01*
X124229809Y-102568476D01*
X124467904Y-102568476D01*
X124563142Y-102616095D01*
X124610761Y-102663714D01*
X124658380Y-102758952D01*
X124658380Y-103044666D01*
X124610761Y-103139904D01*
X124563142Y-103187523D01*
X110882180Y-86298944D02*
X111691704Y-86298944D01*
X111786942Y-86251325D01*
X111834561Y-86203706D01*
X111882180Y-86108468D01*
X111882180Y-85917992D01*
X111834561Y-85822754D01*
X111786942Y-85775135D01*
X111691704Y-85727516D01*
X110882180Y-85727516D01*
X111882180Y-84727516D02*
X111882180Y-85298944D01*
X111882180Y-85013230D02*
X110882180Y-85013230D01*
X111025038Y-85108468D01*
X111120276Y-85203706D01*
X111167895Y-85298944D01*
X140936380Y-98551904D02*
X141745904Y-98551904D01*
X141841142Y-98504285D01*
X141888761Y-98456666D01*
X141936380Y-98361428D01*
X141936380Y-98170952D01*
X141888761Y-98075714D01*
X141841142Y-98028095D01*
X141745904Y-97980476D01*
X140936380Y-97980476D01*
X141031619Y-97551904D02*
X140984000Y-97504285D01*
X140936380Y-97409047D01*
X140936380Y-97170952D01*
X140984000Y-97075714D01*
X141031619Y-97028095D01*
X141126857Y-96980476D01*
X141222095Y-96980476D01*
X141364952Y-97028095D01*
X141936380Y-97599523D01*
X141936380Y-96980476D01*
X134564380Y-115657238D02*
X134088190Y-115990571D01*
X134564380Y-116228666D02*
X133564380Y-116228666D01*
X133564380Y-115847714D01*
X133612000Y-115752476D01*
X133659619Y-115704857D01*
X133754857Y-115657238D01*
X133897714Y-115657238D01*
X133992952Y-115704857D01*
X134040571Y-115752476D01*
X134088190Y-115847714D01*
X134088190Y-116228666D01*
X133564380Y-115371523D02*
X134564380Y-115038190D01*
X133564380Y-114704857D01*
X134564380Y-113847714D02*
X134564380Y-114419142D01*
X134564380Y-114133428D02*
X133564380Y-114133428D01*
X133707238Y-114228666D01*
X133802476Y-114323904D01*
X133850095Y-114419142D01*
X121356380Y-116419238D02*
X120880190Y-116752571D01*
X121356380Y-116990666D02*
X120356380Y-116990666D01*
X120356380Y-116609714D01*
X120404000Y-116514476D01*
X120451619Y-116466857D01*
X120546857Y-116419238D01*
X120689714Y-116419238D01*
X120784952Y-116466857D01*
X120832571Y-116514476D01*
X120880190Y-116609714D01*
X120880190Y-116990666D01*
X120356380Y-116133523D02*
X121356380Y-115800190D01*
X120356380Y-115466857D01*
X120356380Y-114657333D02*
X120356380Y-115133523D01*
X120832571Y-115181142D01*
X120784952Y-115133523D01*
X120737333Y-115038285D01*
X120737333Y-114800190D01*
X120784952Y-114704952D01*
X120832571Y-114657333D01*
X120927809Y-114609714D01*
X121165904Y-114609714D01*
X121261142Y-114657333D01*
X121308761Y-114704952D01*
X121356380Y-114800190D01*
X121356380Y-115038285D01*
X121308761Y-115133523D01*
X121261142Y-115181142D01*
X108469180Y-94233904D02*
X109278704Y-94233904D01*
X109373942Y-94186285D01*
X109421561Y-94138666D01*
X109469180Y-94043428D01*
X109469180Y-93852952D01*
X109421561Y-93757714D01*
X109373942Y-93710095D01*
X109278704Y-93662476D01*
X108469180Y-93662476D01*
X108469180Y-92757714D02*
X108469180Y-92948190D01*
X108516800Y-93043428D01*
X108564419Y-93091047D01*
X108707276Y-93186285D01*
X108897752Y-93233904D01*
X109278704Y-93233904D01*
X109373942Y-93186285D01*
X109421561Y-93138666D01*
X109469180Y-93043428D01*
X109469180Y-92852952D01*
X109421561Y-92757714D01*
X109373942Y-92710095D01*
X109278704Y-92662476D01*
X109040609Y-92662476D01*
X108945371Y-92710095D01*
X108897752Y-92757714D01*
X108850133Y-92852952D01*
X108850133Y-93043428D01*
X108897752Y-93138666D01*
X108945371Y-93186285D01*
X109040609Y-93233904D01*
X103322380Y-114276095D02*
X102322380Y-114276095D01*
X102322380Y-114038000D01*
X102370000Y-113895142D01*
X102465238Y-113799904D01*
X102560476Y-113752285D01*
X102750952Y-113704666D01*
X102893809Y-113704666D01*
X103084285Y-113752285D01*
X103179523Y-113799904D01*
X103274761Y-113895142D01*
X103322380Y-114038000D01*
X103322380Y-114276095D01*
X103322380Y-112752285D02*
X103322380Y-113323714D01*
X103322380Y-113038000D02*
X102322380Y-113038000D01*
X102465238Y-113133238D01*
X102560476Y-113228476D01*
X102608095Y-113323714D01*
X144740380Y-112847333D02*
X145454666Y-112847333D01*
X145597523Y-112894952D01*
X145692761Y-112990190D01*
X145740380Y-113133047D01*
X145740380Y-113228285D01*
X145740380Y-112371142D02*
X144740380Y-112371142D01*
X144740380Y-111990190D01*
X144788000Y-111894952D01*
X144835619Y-111847333D01*
X144930857Y-111799714D01*
X145073714Y-111799714D01*
X145168952Y-111847333D01*
X145216571Y-111894952D01*
X145264190Y-111990190D01*
X145264190Y-112371142D01*
X145073714Y-110942571D02*
X145740380Y-110942571D01*
X144692761Y-111180666D02*
X145407047Y-111418761D01*
X145407047Y-110799714D01*
X158202380Y-83391333D02*
X158916666Y-83391333D01*
X159059523Y-83438952D01*
X159154761Y-83534190D01*
X159202380Y-83677047D01*
X159202380Y-83772285D01*
X158202380Y-83010380D02*
X158202380Y-82391333D01*
X158583333Y-82724666D01*
X158583333Y-82581809D01*
X158630952Y-82486571D01*
X158678571Y-82438952D01*
X158773809Y-82391333D01*
X159011904Y-82391333D01*
X159107142Y-82438952D01*
X159154761Y-82486571D01*
X159202380Y-82581809D01*
X159202380Y-82867523D01*
X159154761Y-82962761D01*
X159107142Y-83010380D01*
X108342180Y-114426904D02*
X109151704Y-114426904D01*
X109246942Y-114379285D01*
X109294561Y-114331666D01*
X109342180Y-114236428D01*
X109342180Y-114045952D01*
X109294561Y-113950714D01*
X109246942Y-113903095D01*
X109151704Y-113855476D01*
X108342180Y-113855476D01*
X108342180Y-112903095D02*
X108342180Y-113379285D01*
X108818371Y-113426904D01*
X108770752Y-113379285D01*
X108723133Y-113284047D01*
X108723133Y-113045952D01*
X108770752Y-112950714D01*
X108818371Y-112903095D01*
X108913609Y-112855476D01*
X109151704Y-112855476D01*
X109246942Y-112903095D01*
X109294561Y-112950714D01*
X109342180Y-113045952D01*
X109342180Y-113284047D01*
X109294561Y-113379285D01*
X109246942Y-113426904D01*
X103322380Y-94718095D02*
X102322380Y-94718095D01*
X102322380Y-94480000D01*
X102370000Y-94337142D01*
X102465238Y-94241904D01*
X102560476Y-94194285D01*
X102750952Y-94146666D01*
X102893809Y-94146666D01*
X103084285Y-94194285D01*
X103179523Y-94241904D01*
X103274761Y-94337142D01*
X103322380Y-94480000D01*
X103322380Y-94718095D01*
X102417619Y-93765714D02*
X102370000Y-93718095D01*
X102322380Y-93622857D01*
X102322380Y-93384761D01*
X102370000Y-93289523D01*
X102417619Y-93241904D01*
X102512857Y-93194285D01*
X102608095Y-93194285D01*
X102750952Y-93241904D01*
X103322380Y-93813333D01*
X103322380Y-93194285D01*
X142607380Y-119964166D02*
X142131190Y-120297500D01*
X142607380Y-120535595D02*
X141607380Y-120535595D01*
X141607380Y-120154642D01*
X141655000Y-120059404D01*
X141702619Y-120011785D01*
X141797857Y-119964166D01*
X141940714Y-119964166D01*
X142035952Y-120011785D01*
X142083571Y-120059404D01*
X142131190Y-120154642D01*
X142131190Y-120535595D01*
X141940714Y-119107023D02*
X142607380Y-119107023D01*
X141559761Y-119345119D02*
X142274047Y-119583214D01*
X142274047Y-118964166D01*
X142607380Y-126155357D02*
X142131190Y-126488690D01*
X142607380Y-126726785D02*
X141607380Y-126726785D01*
X141607380Y-126345833D01*
X141655000Y-126250595D01*
X141702619Y-126202976D01*
X141797857Y-126155357D01*
X141940714Y-126155357D01*
X142035952Y-126202976D01*
X142083571Y-126250595D01*
X142131190Y-126345833D01*
X142131190Y-126726785D01*
X142607380Y-125202976D02*
X142607380Y-125774404D01*
X142607380Y-125488690D02*
X141607380Y-125488690D01*
X141750238Y-125583928D01*
X141845476Y-125679166D01*
X141893095Y-125774404D01*
X142607380Y-124250595D02*
X142607380Y-124822023D01*
X142607380Y-124536309D02*
X141607380Y-124536309D01*
X141750238Y-124631547D01*
X141845476Y-124726785D01*
X141893095Y-124822023D01*
X141041380Y-114466666D02*
X140565190Y-114800000D01*
X141041380Y-115038095D02*
X140041380Y-115038095D01*
X140041380Y-114657142D01*
X140089000Y-114561904D01*
X140136619Y-114514285D01*
X140231857Y-114466666D01*
X140374714Y-114466666D01*
X140469952Y-114514285D01*
X140517571Y-114561904D01*
X140565190Y-114657142D01*
X140565190Y-115038095D01*
X140041380Y-113561904D02*
X140041380Y-114038095D01*
X140517571Y-114085714D01*
X140469952Y-114038095D01*
X140422333Y-113942857D01*
X140422333Y-113704761D01*
X140469952Y-113609523D01*
X140517571Y-113561904D01*
X140612809Y-113514285D01*
X140850904Y-113514285D01*
X140946142Y-113561904D01*
X140993761Y-113609523D01*
X141041380Y-113704761D01*
X141041380Y-113942857D01*
X140993761Y-114038095D01*
X140946142Y-114085714D01*
X139517380Y-114942857D02*
X139041190Y-115276190D01*
X139517380Y-115514285D02*
X138517380Y-115514285D01*
X138517380Y-115133333D01*
X138565000Y-115038095D01*
X138612619Y-114990476D01*
X138707857Y-114942857D01*
X138850714Y-114942857D01*
X138945952Y-114990476D01*
X138993571Y-115038095D01*
X139041190Y-115133333D01*
X139041190Y-115514285D01*
X139517380Y-113990476D02*
X139517380Y-114561904D01*
X139517380Y-114276190D02*
X138517380Y-114276190D01*
X138660238Y-114371428D01*
X138755476Y-114466666D01*
X138803095Y-114561904D01*
X138612619Y-113609523D02*
X138565000Y-113561904D01*
X138517380Y-113466666D01*
X138517380Y-113228571D01*
X138565000Y-113133333D01*
X138612619Y-113085714D01*
X138707857Y-113038095D01*
X138803095Y-113038095D01*
X138945952Y-113085714D01*
X139517380Y-113657142D01*
X139517380Y-113038095D01*
X156360761Y-74675833D02*
X156408380Y-74532976D01*
X156408380Y-74294880D01*
X156360761Y-74199642D01*
X156313142Y-74152023D01*
X156217904Y-74104404D01*
X156122666Y-74104404D01*
X156027428Y-74152023D01*
X155979809Y-74199642D01*
X155932190Y-74294880D01*
X155884571Y-74485357D01*
X155836952Y-74580595D01*
X155789333Y-74628214D01*
X155694095Y-74675833D01*
X155598857Y-74675833D01*
X155503619Y-74628214D01*
X155456000Y-74580595D01*
X155408380Y-74485357D01*
X155408380Y-74247261D01*
X155456000Y-74104404D01*
X155408380Y-73771071D02*
X156408380Y-73532976D01*
X155694095Y-73342500D01*
X156408380Y-73152023D01*
X155408380Y-72913928D01*
X155408380Y-72628214D02*
X155408380Y-72009166D01*
X155789333Y-72342500D01*
X155789333Y-72199642D01*
X155836952Y-72104404D01*
X155884571Y-72056785D01*
X155979809Y-72009166D01*
X156217904Y-72009166D01*
X156313142Y-72056785D01*
X156360761Y-72104404D01*
X156408380Y-72199642D01*
X156408380Y-72485357D01*
X156360761Y-72580595D01*
X156313142Y-72628214D01*
X155725761Y-132270333D02*
X155773380Y-132127476D01*
X155773380Y-131889380D01*
X155725761Y-131794142D01*
X155678142Y-131746523D01*
X155582904Y-131698904D01*
X155487666Y-131698904D01*
X155392428Y-131746523D01*
X155344809Y-131794142D01*
X155297190Y-131889380D01*
X155249571Y-132079857D01*
X155201952Y-132175095D01*
X155154333Y-132222714D01*
X155059095Y-132270333D01*
X154963857Y-132270333D01*
X154868619Y-132222714D01*
X154821000Y-132175095D01*
X154773380Y-132079857D01*
X154773380Y-131841761D01*
X154821000Y-131698904D01*
X154773380Y-131365571D02*
X155773380Y-131127476D01*
X155059095Y-130937000D01*
X155773380Y-130746523D01*
X154773380Y-130508428D01*
X154868619Y-130175095D02*
X154821000Y-130127476D01*
X154773380Y-130032238D01*
X154773380Y-129794142D01*
X154821000Y-129698904D01*
X154868619Y-129651285D01*
X154963857Y-129603666D01*
X155059095Y-129603666D01*
X155201952Y-129651285D01*
X155773380Y-130222714D01*
X155773380Y-129603666D01*
X120419761Y-132270333D02*
X120467380Y-132127476D01*
X120467380Y-131889380D01*
X120419761Y-131794142D01*
X120372142Y-131746523D01*
X120276904Y-131698904D01*
X120181666Y-131698904D01*
X120086428Y-131746523D01*
X120038809Y-131794142D01*
X119991190Y-131889380D01*
X119943571Y-132079857D01*
X119895952Y-132175095D01*
X119848333Y-132222714D01*
X119753095Y-132270333D01*
X119657857Y-132270333D01*
X119562619Y-132222714D01*
X119515000Y-132175095D01*
X119467380Y-132079857D01*
X119467380Y-131841761D01*
X119515000Y-131698904D01*
X119467380Y-131365571D02*
X120467380Y-131127476D01*
X119753095Y-130937000D01*
X120467380Y-130746523D01*
X119467380Y-130508428D01*
X120467380Y-129603666D02*
X120467380Y-130175095D01*
X120467380Y-129889380D02*
X119467380Y-129889380D01*
X119610238Y-129984619D01*
X119705476Y-130079857D01*
X119753095Y-130175095D01*
X142565380Y-81730757D02*
X142089190Y-82064090D01*
X142565380Y-82302185D02*
X141565380Y-82302185D01*
X141565380Y-81921233D01*
X141613000Y-81825995D01*
X141660619Y-81778376D01*
X141755857Y-81730757D01*
X141898714Y-81730757D01*
X141993952Y-81778376D01*
X142041571Y-81825995D01*
X142089190Y-81921233D01*
X142089190Y-82302185D01*
X141660619Y-81349804D02*
X141613000Y-81302185D01*
X141565380Y-81206947D01*
X141565380Y-80968852D01*
X141613000Y-80873614D01*
X141660619Y-80825995D01*
X141755857Y-80778376D01*
X141851095Y-80778376D01*
X141993952Y-80825995D01*
X142565380Y-81397423D01*
X142565380Y-80778376D01*
X141565380Y-79921233D02*
X141565380Y-80111709D01*
X141613000Y-80206947D01*
X141660619Y-80254566D01*
X141803476Y-80349804D01*
X141993952Y-80397423D01*
X142374904Y-80397423D01*
X142470142Y-80349804D01*
X142517761Y-80302185D01*
X142565380Y-80206947D01*
X142565380Y-80016471D01*
X142517761Y-79921233D01*
X142470142Y-79873614D01*
X142374904Y-79825995D01*
X142136809Y-79825995D01*
X142041571Y-79873614D01*
X141993952Y-79921233D01*
X141946333Y-80016471D01*
X141946333Y-80206947D01*
X141993952Y-80302185D01*
X142041571Y-80349804D01*
X142136809Y-80397423D01*
X150016380Y-81732357D02*
X149540190Y-82065690D01*
X150016380Y-82303785D02*
X149016380Y-82303785D01*
X149016380Y-81922833D01*
X149064000Y-81827595D01*
X149111619Y-81779976D01*
X149206857Y-81732357D01*
X149349714Y-81732357D01*
X149444952Y-81779976D01*
X149492571Y-81827595D01*
X149540190Y-81922833D01*
X149540190Y-82303785D01*
X149111619Y-81351404D02*
X149064000Y-81303785D01*
X149016380Y-81208547D01*
X149016380Y-80970452D01*
X149064000Y-80875214D01*
X149111619Y-80827595D01*
X149206857Y-80779976D01*
X149302095Y-80779976D01*
X149444952Y-80827595D01*
X150016380Y-81399023D01*
X150016380Y-80779976D01*
X149016380Y-79875214D02*
X149016380Y-80351404D01*
X149492571Y-80399023D01*
X149444952Y-80351404D01*
X149397333Y-80256166D01*
X149397333Y-80018071D01*
X149444952Y-79922833D01*
X149492571Y-79875214D01*
X149587809Y-79827595D01*
X149825904Y-79827595D01*
X149921142Y-79875214D01*
X149968761Y-79922833D01*
X150016380Y-80018071D01*
X150016380Y-80256166D01*
X149968761Y-80351404D01*
X149921142Y-80399023D01*
X146206380Y-81732357D02*
X145730190Y-82065690D01*
X146206380Y-82303785D02*
X145206380Y-82303785D01*
X145206380Y-81922833D01*
X145254000Y-81827595D01*
X145301619Y-81779976D01*
X145396857Y-81732357D01*
X145539714Y-81732357D01*
X145634952Y-81779976D01*
X145682571Y-81827595D01*
X145730190Y-81922833D01*
X145730190Y-82303785D01*
X145301619Y-81351404D02*
X145254000Y-81303785D01*
X145206380Y-81208547D01*
X145206380Y-80970452D01*
X145254000Y-80875214D01*
X145301619Y-80827595D01*
X145396857Y-80779976D01*
X145492095Y-80779976D01*
X145634952Y-80827595D01*
X146206380Y-81399023D01*
X146206380Y-80779976D01*
X145539714Y-79922833D02*
X146206380Y-79922833D01*
X145158761Y-80160928D02*
X145873047Y-80399023D01*
X145873047Y-79779976D01*
X119324380Y-112656857D02*
X118848190Y-112990190D01*
X119324380Y-113228285D02*
X118324380Y-113228285D01*
X118324380Y-112847333D01*
X118372000Y-112752095D01*
X118419619Y-112704476D01*
X118514857Y-112656857D01*
X118657714Y-112656857D01*
X118752952Y-112704476D01*
X118800571Y-112752095D01*
X118848190Y-112847333D01*
X118848190Y-113228285D01*
X118419619Y-112275904D02*
X118372000Y-112228285D01*
X118324380Y-112133047D01*
X118324380Y-111894952D01*
X118372000Y-111799714D01*
X118419619Y-111752095D01*
X118514857Y-111704476D01*
X118610095Y-111704476D01*
X118752952Y-111752095D01*
X119324380Y-112323523D01*
X119324380Y-111704476D01*
X119324380Y-110752095D02*
X119324380Y-111323523D01*
X119324380Y-111037809D02*
X118324380Y-111037809D01*
X118467238Y-111133047D01*
X118562476Y-111228285D01*
X118610095Y-111323523D01*
X124404380Y-97162857D02*
X123928190Y-97496190D01*
X124404380Y-97734285D02*
X123404380Y-97734285D01*
X123404380Y-97353333D01*
X123452000Y-97258095D01*
X123499619Y-97210476D01*
X123594857Y-97162857D01*
X123737714Y-97162857D01*
X123832952Y-97210476D01*
X123880571Y-97258095D01*
X123928190Y-97353333D01*
X123928190Y-97734285D01*
X123499619Y-96781904D02*
X123452000Y-96734285D01*
X123404380Y-96639047D01*
X123404380Y-96400952D01*
X123452000Y-96305714D01*
X123499619Y-96258095D01*
X123594857Y-96210476D01*
X123690095Y-96210476D01*
X123832952Y-96258095D01*
X124404380Y-96829523D01*
X124404380Y-96210476D01*
X123404380Y-95591428D02*
X123404380Y-95496190D01*
X123452000Y-95400952D01*
X123499619Y-95353333D01*
X123594857Y-95305714D01*
X123785333Y-95258095D01*
X124023428Y-95258095D01*
X124213904Y-95305714D01*
X124309142Y-95353333D01*
X124356761Y-95400952D01*
X124404380Y-95496190D01*
X124404380Y-95591428D01*
X124356761Y-95686666D01*
X124309142Y-95734285D01*
X124213904Y-95781904D01*
X124023428Y-95829523D01*
X123785333Y-95829523D01*
X123594857Y-95781904D01*
X123499619Y-95734285D01*
X123452000Y-95686666D01*
X123404380Y-95591428D01*
X124404380Y-93860857D02*
X123928190Y-94194190D01*
X124404380Y-94432285D02*
X123404380Y-94432285D01*
X123404380Y-94051333D01*
X123452000Y-93956095D01*
X123499619Y-93908476D01*
X123594857Y-93860857D01*
X123737714Y-93860857D01*
X123832952Y-93908476D01*
X123880571Y-93956095D01*
X123928190Y-94051333D01*
X123928190Y-94432285D01*
X124404380Y-92908476D02*
X124404380Y-93479904D01*
X124404380Y-93194190D02*
X123404380Y-93194190D01*
X123547238Y-93289428D01*
X123642476Y-93384666D01*
X123690095Y-93479904D01*
X124404380Y-92432285D02*
X124404380Y-92241809D01*
X124356761Y-92146571D01*
X124309142Y-92098952D01*
X124166285Y-92003714D01*
X123975809Y-91956095D01*
X123594857Y-91956095D01*
X123499619Y-92003714D01*
X123452000Y-92051333D01*
X123404380Y-92146571D01*
X123404380Y-92337047D01*
X123452000Y-92432285D01*
X123499619Y-92479904D01*
X123594857Y-92527523D01*
X123832952Y-92527523D01*
X123928190Y-92479904D01*
X123975809Y-92432285D01*
X124023428Y-92337047D01*
X124023428Y-92146571D01*
X123975809Y-92051333D01*
X123928190Y-92003714D01*
X123832952Y-91956095D01*
X113926880Y-106751357D02*
X113450690Y-107084690D01*
X113926880Y-107322785D02*
X112926880Y-107322785D01*
X112926880Y-106941833D01*
X112974500Y-106846595D01*
X113022119Y-106798976D01*
X113117357Y-106751357D01*
X113260214Y-106751357D01*
X113355452Y-106798976D01*
X113403071Y-106846595D01*
X113450690Y-106941833D01*
X113450690Y-107322785D01*
X113926880Y-105798976D02*
X113926880Y-106370404D01*
X113926880Y-106084690D02*
X112926880Y-106084690D01*
X113069738Y-106179928D01*
X113164976Y-106275166D01*
X113212595Y-106370404D01*
X113355452Y-105227547D02*
X113307833Y-105322785D01*
X113260214Y-105370404D01*
X113164976Y-105418023D01*
X113117357Y-105418023D01*
X113022119Y-105370404D01*
X112974500Y-105322785D01*
X112926880Y-105227547D01*
X112926880Y-105037071D01*
X112974500Y-104941833D01*
X113022119Y-104894214D01*
X113117357Y-104846595D01*
X113164976Y-104846595D01*
X113260214Y-104894214D01*
X113307833Y-104941833D01*
X113355452Y-105037071D01*
X113355452Y-105227547D01*
X113403071Y-105322785D01*
X113450690Y-105370404D01*
X113545928Y-105418023D01*
X113736404Y-105418023D01*
X113831642Y-105370404D01*
X113879261Y-105322785D01*
X113926880Y-105227547D01*
X113926880Y-105037071D01*
X113879261Y-104941833D01*
X113831642Y-104894214D01*
X113736404Y-104846595D01*
X113545928Y-104846595D01*
X113450690Y-104894214D01*
X113403071Y-104941833D01*
X113355452Y-105037071D01*
X124912380Y-109354857D02*
X124436190Y-109688190D01*
X124912380Y-109926285D02*
X123912380Y-109926285D01*
X123912380Y-109545333D01*
X123960000Y-109450095D01*
X124007619Y-109402476D01*
X124102857Y-109354857D01*
X124245714Y-109354857D01*
X124340952Y-109402476D01*
X124388571Y-109450095D01*
X124436190Y-109545333D01*
X124436190Y-109926285D01*
X124912380Y-108402476D02*
X124912380Y-108973904D01*
X124912380Y-108688190D02*
X123912380Y-108688190D01*
X124055238Y-108783428D01*
X124150476Y-108878666D01*
X124198095Y-108973904D01*
X123912380Y-108069142D02*
X123912380Y-107402476D01*
X124912380Y-107831047D01*
X156577380Y-126155357D02*
X156101190Y-126488690D01*
X156577380Y-126726785D02*
X155577380Y-126726785D01*
X155577380Y-126345833D01*
X155625000Y-126250595D01*
X155672619Y-126202976D01*
X155767857Y-126155357D01*
X155910714Y-126155357D01*
X156005952Y-126202976D01*
X156053571Y-126250595D01*
X156101190Y-126345833D01*
X156101190Y-126726785D01*
X156577380Y-125202976D02*
X156577380Y-125774404D01*
X156577380Y-125488690D02*
X155577380Y-125488690D01*
X155720238Y-125583928D01*
X155815476Y-125679166D01*
X155863095Y-125774404D01*
X155910714Y-124345833D02*
X156577380Y-124345833D01*
X155529761Y-124583928D02*
X156244047Y-124822023D01*
X156244047Y-124202976D01*
X152767380Y-126155357D02*
X152291190Y-126488690D01*
X152767380Y-126726785D02*
X151767380Y-126726785D01*
X151767380Y-126345833D01*
X151815000Y-126250595D01*
X151862619Y-126202976D01*
X151957857Y-126155357D01*
X152100714Y-126155357D01*
X152195952Y-126202976D01*
X152243571Y-126250595D01*
X152291190Y-126345833D01*
X152291190Y-126726785D01*
X152767380Y-125202976D02*
X152767380Y-125774404D01*
X152767380Y-125488690D02*
X151767380Y-125488690D01*
X151910238Y-125583928D01*
X152005476Y-125679166D01*
X152053095Y-125774404D01*
X151767380Y-124869642D02*
X151767380Y-124250595D01*
X152148333Y-124583928D01*
X152148333Y-124441071D01*
X152195952Y-124345833D01*
X152243571Y-124298214D01*
X152338809Y-124250595D01*
X152576904Y-124250595D01*
X152672142Y-124298214D01*
X152719761Y-124345833D01*
X152767380Y-124441071D01*
X152767380Y-124726785D01*
X152719761Y-124822023D01*
X152672142Y-124869642D01*
X134987380Y-126155357D02*
X134511190Y-126488690D01*
X134987380Y-126726785D02*
X133987380Y-126726785D01*
X133987380Y-126345833D01*
X134035000Y-126250595D01*
X134082619Y-126202976D01*
X134177857Y-126155357D01*
X134320714Y-126155357D01*
X134415952Y-126202976D01*
X134463571Y-126250595D01*
X134511190Y-126345833D01*
X134511190Y-126726785D01*
X134987380Y-125202976D02*
X134987380Y-125774404D01*
X134987380Y-125488690D02*
X133987380Y-125488690D01*
X134130238Y-125583928D01*
X134225476Y-125679166D01*
X134273095Y-125774404D01*
X133987380Y-124583928D02*
X133987380Y-124488690D01*
X134035000Y-124393452D01*
X134082619Y-124345833D01*
X134177857Y-124298214D01*
X134368333Y-124250595D01*
X134606428Y-124250595D01*
X134796904Y-124298214D01*
X134892142Y-124345833D01*
X134939761Y-124393452D01*
X134987380Y-124488690D01*
X134987380Y-124583928D01*
X134939761Y-124679166D01*
X134892142Y-124726785D01*
X134796904Y-124774404D01*
X134606428Y-124822023D01*
X134368333Y-124822023D01*
X134177857Y-124774404D01*
X134082619Y-124726785D01*
X134035000Y-124679166D01*
X133987380Y-124583928D01*
X128637380Y-125679166D02*
X128161190Y-126012500D01*
X128637380Y-126250595D02*
X127637380Y-126250595D01*
X127637380Y-125869642D01*
X127685000Y-125774404D01*
X127732619Y-125726785D01*
X127827857Y-125679166D01*
X127970714Y-125679166D01*
X128065952Y-125726785D01*
X128113571Y-125774404D01*
X128161190Y-125869642D01*
X128161190Y-126250595D01*
X128637380Y-125202976D02*
X128637380Y-125012500D01*
X128589761Y-124917261D01*
X128542142Y-124869642D01*
X128399285Y-124774404D01*
X128208809Y-124726785D01*
X127827857Y-124726785D01*
X127732619Y-124774404D01*
X127685000Y-124822023D01*
X127637380Y-124917261D01*
X127637380Y-125107738D01*
X127685000Y-125202976D01*
X127732619Y-125250595D01*
X127827857Y-125298214D01*
X128065952Y-125298214D01*
X128161190Y-125250595D01*
X128208809Y-125202976D01*
X128256428Y-125107738D01*
X128256428Y-124917261D01*
X128208809Y-124822023D01*
X128161190Y-124774404D01*
X128065952Y-124726785D01*
X124827380Y-125679166D02*
X124351190Y-126012500D01*
X124827380Y-126250595D02*
X123827380Y-126250595D01*
X123827380Y-125869642D01*
X123875000Y-125774404D01*
X123922619Y-125726785D01*
X124017857Y-125679166D01*
X124160714Y-125679166D01*
X124255952Y-125726785D01*
X124303571Y-125774404D01*
X124351190Y-125869642D01*
X124351190Y-126250595D01*
X124255952Y-125107738D02*
X124208333Y-125202976D01*
X124160714Y-125250595D01*
X124065476Y-125298214D01*
X124017857Y-125298214D01*
X123922619Y-125250595D01*
X123875000Y-125202976D01*
X123827380Y-125107738D01*
X123827380Y-124917261D01*
X123875000Y-124822023D01*
X123922619Y-124774404D01*
X124017857Y-124726785D01*
X124065476Y-124726785D01*
X124160714Y-124774404D01*
X124208333Y-124822023D01*
X124255952Y-124917261D01*
X124255952Y-125107738D01*
X124303571Y-125202976D01*
X124351190Y-125250595D01*
X124446428Y-125298214D01*
X124636904Y-125298214D01*
X124732142Y-125250595D01*
X124779761Y-125202976D01*
X124827380Y-125107738D01*
X124827380Y-124917261D01*
X124779761Y-124822023D01*
X124732142Y-124774404D01*
X124636904Y-124726785D01*
X124446428Y-124726785D01*
X124351190Y-124774404D01*
X124303571Y-124822023D01*
X124255952Y-124917261D01*
X156577380Y-119964166D02*
X156101190Y-120297500D01*
X156577380Y-120535595D02*
X155577380Y-120535595D01*
X155577380Y-120154642D01*
X155625000Y-120059404D01*
X155672619Y-120011785D01*
X155767857Y-119964166D01*
X155910714Y-119964166D01*
X156005952Y-120011785D01*
X156053571Y-120059404D01*
X156101190Y-120154642D01*
X156101190Y-120535595D01*
X155577380Y-119630833D02*
X155577380Y-118964166D01*
X156577380Y-119392738D01*
X152767380Y-119964166D02*
X152291190Y-120297500D01*
X152767380Y-120535595D02*
X151767380Y-120535595D01*
X151767380Y-120154642D01*
X151815000Y-120059404D01*
X151862619Y-120011785D01*
X151957857Y-119964166D01*
X152100714Y-119964166D01*
X152195952Y-120011785D01*
X152243571Y-120059404D01*
X152291190Y-120154642D01*
X152291190Y-120535595D01*
X151767380Y-119107023D02*
X151767380Y-119297500D01*
X151815000Y-119392738D01*
X151862619Y-119440357D01*
X152005476Y-119535595D01*
X152195952Y-119583214D01*
X152576904Y-119583214D01*
X152672142Y-119535595D01*
X152719761Y-119487976D01*
X152767380Y-119392738D01*
X152767380Y-119202261D01*
X152719761Y-119107023D01*
X152672142Y-119059404D01*
X152576904Y-119011785D01*
X152338809Y-119011785D01*
X152243571Y-119059404D01*
X152195952Y-119107023D01*
X152148333Y-119202261D01*
X152148333Y-119392738D01*
X152195952Y-119487976D01*
X152243571Y-119535595D01*
X152338809Y-119583214D01*
X134987380Y-121578666D02*
X134511190Y-121912000D01*
X134987380Y-122150095D02*
X133987380Y-122150095D01*
X133987380Y-121769142D01*
X134035000Y-121673904D01*
X134082619Y-121626285D01*
X134177857Y-121578666D01*
X134320714Y-121578666D01*
X134415952Y-121626285D01*
X134463571Y-121673904D01*
X134511190Y-121769142D01*
X134511190Y-122150095D01*
X133987380Y-121245333D02*
X133987380Y-120626285D01*
X134368333Y-120959619D01*
X134368333Y-120816761D01*
X134415952Y-120721523D01*
X134463571Y-120673904D01*
X134558809Y-120626285D01*
X134796904Y-120626285D01*
X134892142Y-120673904D01*
X134939761Y-120721523D01*
X134987380Y-120816761D01*
X134987380Y-121102476D01*
X134939761Y-121197714D01*
X134892142Y-121245333D01*
X126817380Y-116498666D02*
X126341190Y-116832000D01*
X126817380Y-117070095D02*
X125817380Y-117070095D01*
X125817380Y-116689142D01*
X125865000Y-116593904D01*
X125912619Y-116546285D01*
X126007857Y-116498666D01*
X126150714Y-116498666D01*
X126245952Y-116546285D01*
X126293571Y-116593904D01*
X126341190Y-116689142D01*
X126341190Y-117070095D01*
X125912619Y-116117714D02*
X125865000Y-116070095D01*
X125817380Y-115974857D01*
X125817380Y-115736761D01*
X125865000Y-115641523D01*
X125912619Y-115593904D01*
X126007857Y-115546285D01*
X126103095Y-115546285D01*
X126245952Y-115593904D01*
X126817380Y-116165333D01*
X126817380Y-115546285D01*
X124912380Y-119964166D02*
X124436190Y-120297500D01*
X124912380Y-120535595D02*
X123912380Y-120535595D01*
X123912380Y-120154642D01*
X123960000Y-120059404D01*
X124007619Y-120011785D01*
X124102857Y-119964166D01*
X124245714Y-119964166D01*
X124340952Y-120011785D01*
X124388571Y-120059404D01*
X124436190Y-120154642D01*
X124436190Y-120535595D01*
X124912380Y-119011785D02*
X124912380Y-119583214D01*
X124912380Y-119297500D02*
X123912380Y-119297500D01*
X124055238Y-119392738D01*
X124150476Y-119487976D01*
X124198095Y-119583214D01*
X143089380Y-115133333D02*
X143803666Y-115133333D01*
X143946523Y-115180952D01*
X144041761Y-115276190D01*
X144089380Y-115419047D01*
X144089380Y-115514285D01*
X144089380Y-114657142D02*
X143089380Y-114657142D01*
X143089380Y-114276190D01*
X143137000Y-114180952D01*
X143184619Y-114133333D01*
X143279857Y-114085714D01*
X143422714Y-114085714D01*
X143517952Y-114133333D01*
X143565571Y-114180952D01*
X143613190Y-114276190D01*
X143613190Y-114657142D01*
X143184619Y-113704761D02*
X143137000Y-113657142D01*
X143089380Y-113561904D01*
X143089380Y-113323809D01*
X143137000Y-113228571D01*
X143184619Y-113180952D01*
X143279857Y-113133333D01*
X143375095Y-113133333D01*
X143517952Y-113180952D01*
X144089380Y-113752380D01*
X144089380Y-113133333D01*
X167158942Y-63666666D02*
X167206561Y-63714285D01*
X167254180Y-63857142D01*
X167254180Y-63952380D01*
X167206561Y-64095238D01*
X167111323Y-64190476D01*
X167016085Y-64238095D01*
X166825609Y-64285714D01*
X166682752Y-64285714D01*
X166492276Y-64238095D01*
X166397038Y-64190476D01*
X166301800Y-64095238D01*
X166254180Y-63952380D01*
X166254180Y-63857142D01*
X166301800Y-63714285D01*
X166349419Y-63666666D01*
X166587514Y-62809523D02*
X167254180Y-62809523D01*
X166206561Y-63047619D02*
X166920847Y-63285714D01*
X166920847Y-62666666D01*
X136374142Y-79541666D02*
X136421761Y-79589285D01*
X136469380Y-79732142D01*
X136469380Y-79827380D01*
X136421761Y-79970238D01*
X136326523Y-80065476D01*
X136231285Y-80113095D01*
X136040809Y-80160714D01*
X135897952Y-80160714D01*
X135707476Y-80113095D01*
X135612238Y-80065476D01*
X135517000Y-79970238D01*
X135469380Y-79827380D01*
X135469380Y-79732142D01*
X135517000Y-79589285D01*
X135564619Y-79541666D01*
X135469380Y-79208333D02*
X135469380Y-78589285D01*
X135850333Y-78922619D01*
X135850333Y-78779761D01*
X135897952Y-78684523D01*
X135945571Y-78636904D01*
X136040809Y-78589285D01*
X136278904Y-78589285D01*
X136374142Y-78636904D01*
X136421761Y-78684523D01*
X136469380Y-78779761D01*
X136469380Y-79065476D01*
X136421761Y-79160714D01*
X136374142Y-79208333D01*
M02*
