G04 #@! TF.GenerationSoftware,KiCad,Pcbnew,(5.1.2)-1*
G04 #@! TF.CreationDate,2019-06-11T18:42:14-07:00*
G04 #@! TF.ProjectId,psu,7073752e-6b69-4636-9164-5f7063625858,rev?*
G04 #@! TF.SameCoordinates,Original*
G04 #@! TF.FileFunction,Copper,L2,Bot*
G04 #@! TF.FilePolarity,Positive*
%FSLAX46Y46*%
G04 Gerber Fmt 4.6, Leading zero omitted, Abs format (unit mm)*
G04 Created by KiCad (PCBNEW (5.1.2)-1) date 2019-06-11 18:42:14*
%MOMM*%
%LPD*%
G04 APERTURE LIST*
%ADD10C,1.600000*%
%ADD11O,1.600000X1.600000*%
%ADD12R,1.700000X1.700000*%
%ADD13O,1.700000X1.700000*%
%ADD14C,2.600000*%
%ADD15R,2.600000X2.600000*%
%ADD16R,3.500000X3.500000*%
%ADD17C,0.100000*%
%ADD18C,3.000000*%
%ADD19C,3.500000*%
%ADD20C,2.340000*%
%ADD21R,5.000000X3.400000*%
%ADD22C,0.600000*%
%ADD23O,1.050000X1.500000*%
%ADD24R,1.050000X1.500000*%
%ADD25R,1.800000X1.800000*%
%ADD26C,1.800000*%
%ADD27C,11.112500*%
%ADD28O,6.350000X3.175000*%
%ADD29C,2.382520*%
%ADD30O,1.800000X3.000000*%
%ADD31O,1.200000X2.000000*%
%ADD32C,0.800000*%
%ADD33C,1.000000*%
%ADD34C,2.000000*%
%ADD35C,0.500000*%
%ADD36C,0.250000*%
%ADD37C,0.254000*%
G04 APERTURE END LIST*
D10*
X111760000Y-105410000D03*
D11*
X101600000Y-105410000D03*
D10*
X111760000Y-102108000D03*
D11*
X101600000Y-102108000D03*
D10*
X125730000Y-82486500D03*
D11*
X135890000Y-82486500D03*
D10*
X115570000Y-88900000D03*
D11*
X115570000Y-99060000D03*
D10*
X129540000Y-114935000D03*
D11*
X129540000Y-125095000D03*
D12*
X136525000Y-126365000D03*
D13*
X136525000Y-123825000D03*
D14*
X157480000Y-63500000D03*
X160020000Y-63500000D03*
X162560000Y-132715000D03*
X165100000Y-132715000D03*
D10*
X168783000Y-124587000D03*
D11*
X158623000Y-124587000D03*
D12*
X162433000Y-128397000D03*
D13*
X164973000Y-128397000D03*
D14*
X170815000Y-117602000D03*
X170815000Y-120142000D03*
D10*
X155194000Y-80050000D03*
X155194000Y-82550000D03*
X139954000Y-80050000D03*
X139954000Y-82550000D03*
X131445000Y-76073000D03*
X133945000Y-76073000D03*
X115570000Y-104735000D03*
X115570000Y-102235000D03*
X147320000Y-126325000D03*
X147320000Y-123825000D03*
X153924000Y-114808000D03*
X151424000Y-114808000D03*
D15*
X105410000Y-88900000D03*
D14*
X105410000Y-83900000D03*
D16*
X109632000Y-73660000D03*
D17*
G36*
X104455513Y-71913611D02*
G01*
X104528318Y-71924411D01*
X104599714Y-71942295D01*
X104669013Y-71967090D01*
X104735548Y-71998559D01*
X104798678Y-72036398D01*
X104857795Y-72080242D01*
X104912330Y-72129670D01*
X104961758Y-72184205D01*
X105005602Y-72243322D01*
X105043441Y-72306452D01*
X105074910Y-72372987D01*
X105099705Y-72442286D01*
X105117589Y-72513682D01*
X105128389Y-72586487D01*
X105132000Y-72660000D01*
X105132000Y-74660000D01*
X105128389Y-74733513D01*
X105117589Y-74806318D01*
X105099705Y-74877714D01*
X105074910Y-74947013D01*
X105043441Y-75013548D01*
X105005602Y-75076678D01*
X104961758Y-75135795D01*
X104912330Y-75190330D01*
X104857795Y-75239758D01*
X104798678Y-75283602D01*
X104735548Y-75321441D01*
X104669013Y-75352910D01*
X104599714Y-75377705D01*
X104528318Y-75395589D01*
X104455513Y-75406389D01*
X104382000Y-75410000D01*
X102882000Y-75410000D01*
X102808487Y-75406389D01*
X102735682Y-75395589D01*
X102664286Y-75377705D01*
X102594987Y-75352910D01*
X102528452Y-75321441D01*
X102465322Y-75283602D01*
X102406205Y-75239758D01*
X102351670Y-75190330D01*
X102302242Y-75135795D01*
X102258398Y-75076678D01*
X102220559Y-75013548D01*
X102189090Y-74947013D01*
X102164295Y-74877714D01*
X102146411Y-74806318D01*
X102135611Y-74733513D01*
X102132000Y-74660000D01*
X102132000Y-72660000D01*
X102135611Y-72586487D01*
X102146411Y-72513682D01*
X102164295Y-72442286D01*
X102189090Y-72372987D01*
X102220559Y-72306452D01*
X102258398Y-72243322D01*
X102302242Y-72184205D01*
X102351670Y-72129670D01*
X102406205Y-72080242D01*
X102465322Y-72036398D01*
X102528452Y-71998559D01*
X102594987Y-71967090D01*
X102664286Y-71942295D01*
X102735682Y-71924411D01*
X102808487Y-71913611D01*
X102882000Y-71910000D01*
X104382000Y-71910000D01*
X104455513Y-71913611D01*
X104455513Y-71913611D01*
G37*
D18*
X103632000Y-73660000D03*
D17*
G36*
X107592765Y-76614213D02*
G01*
X107677704Y-76626813D01*
X107760999Y-76647677D01*
X107841848Y-76676605D01*
X107919472Y-76713319D01*
X107993124Y-76757464D01*
X108062094Y-76808616D01*
X108125718Y-76866282D01*
X108183384Y-76929906D01*
X108234536Y-76998876D01*
X108278681Y-77072528D01*
X108315395Y-77150152D01*
X108344323Y-77231001D01*
X108365187Y-77314296D01*
X108377787Y-77399235D01*
X108382000Y-77485000D01*
X108382000Y-79235000D01*
X108377787Y-79320765D01*
X108365187Y-79405704D01*
X108344323Y-79488999D01*
X108315395Y-79569848D01*
X108278681Y-79647472D01*
X108234536Y-79721124D01*
X108183384Y-79790094D01*
X108125718Y-79853718D01*
X108062094Y-79911384D01*
X107993124Y-79962536D01*
X107919472Y-80006681D01*
X107841848Y-80043395D01*
X107760999Y-80072323D01*
X107677704Y-80093187D01*
X107592765Y-80105787D01*
X107507000Y-80110000D01*
X105757000Y-80110000D01*
X105671235Y-80105787D01*
X105586296Y-80093187D01*
X105503001Y-80072323D01*
X105422152Y-80043395D01*
X105344528Y-80006681D01*
X105270876Y-79962536D01*
X105201906Y-79911384D01*
X105138282Y-79853718D01*
X105080616Y-79790094D01*
X105029464Y-79721124D01*
X104985319Y-79647472D01*
X104948605Y-79569848D01*
X104919677Y-79488999D01*
X104898813Y-79405704D01*
X104886213Y-79320765D01*
X104882000Y-79235000D01*
X104882000Y-77485000D01*
X104886213Y-77399235D01*
X104898813Y-77314296D01*
X104919677Y-77231001D01*
X104948605Y-77150152D01*
X104985319Y-77072528D01*
X105029464Y-76998876D01*
X105080616Y-76929906D01*
X105138282Y-76866282D01*
X105201906Y-76808616D01*
X105270876Y-76757464D01*
X105344528Y-76713319D01*
X105422152Y-76676605D01*
X105503001Y-76647677D01*
X105586296Y-76626813D01*
X105671235Y-76614213D01*
X105757000Y-76610000D01*
X107507000Y-76610000D01*
X107592765Y-76614213D01*
X107592765Y-76614213D01*
G37*
D19*
X106632000Y-78360000D03*
D20*
X140970000Y-76200000D03*
X145970000Y-76200000D03*
X150970000Y-76200000D03*
X115730000Y-76200000D03*
X120730000Y-76200000D03*
X125730000Y-76200000D03*
X107315000Y-120205500D03*
X112315000Y-120205500D03*
X117315000Y-120205500D03*
D21*
X145034000Y-97790000D03*
D22*
X147234000Y-98890000D03*
X147234000Y-97790000D03*
X147234000Y-96690000D03*
X146134000Y-96690000D03*
X146134000Y-97790000D03*
X146134000Y-98890000D03*
X145034000Y-96690000D03*
X145034000Y-97790000D03*
X145034000Y-98890000D03*
X143934000Y-96690000D03*
X143934000Y-97790000D03*
X143934000Y-98890000D03*
X142834000Y-96690000D03*
X142834000Y-97790000D03*
X142834000Y-98890000D03*
D23*
X109982000Y-97282000D03*
X111252000Y-97282000D03*
D24*
X108712000Y-97282000D03*
D25*
X101600000Y-110490000D03*
D26*
X104140000Y-110490000D03*
D27*
X166370000Y-107315000D03*
X166370000Y-88265000D03*
D23*
X109982000Y-110490000D03*
X111252000Y-110490000D03*
D24*
X108712000Y-110490000D03*
D25*
X101600000Y-97282000D03*
D26*
X104140000Y-97282000D03*
D28*
X160020000Y-73342500D03*
X160020000Y-78105000D03*
X160020000Y-68580000D03*
D17*
G36*
X173374012Y-69772858D02*
G01*
X173431832Y-69781435D01*
X173488532Y-69795638D01*
X173543568Y-69815330D01*
X173596408Y-69840321D01*
X173646544Y-69870372D01*
X173693494Y-69905192D01*
X173736804Y-69944446D01*
X173776058Y-69987756D01*
X173810878Y-70034706D01*
X173840929Y-70084842D01*
X173865920Y-70137682D01*
X173885612Y-70192718D01*
X173899815Y-70249418D01*
X173908392Y-70307238D01*
X173911260Y-70365620D01*
X173911260Y-71556880D01*
X173908392Y-71615262D01*
X173899815Y-71673082D01*
X173885612Y-71729782D01*
X173865920Y-71784818D01*
X173840929Y-71837658D01*
X173810878Y-71887794D01*
X173776058Y-71934744D01*
X173736804Y-71978054D01*
X173693494Y-72017308D01*
X173646544Y-72052128D01*
X173596408Y-72082179D01*
X173543568Y-72107170D01*
X173488532Y-72126862D01*
X173431832Y-72141065D01*
X173374012Y-72149642D01*
X173315630Y-72152510D01*
X172124370Y-72152510D01*
X172065988Y-72149642D01*
X172008168Y-72141065D01*
X171951468Y-72126862D01*
X171896432Y-72107170D01*
X171843592Y-72082179D01*
X171793456Y-72052128D01*
X171746506Y-72017308D01*
X171703196Y-71978054D01*
X171663942Y-71934744D01*
X171629122Y-71887794D01*
X171599071Y-71837658D01*
X171574080Y-71784818D01*
X171554388Y-71729782D01*
X171540185Y-71673082D01*
X171531608Y-71615262D01*
X171528740Y-71556880D01*
X171528740Y-70365620D01*
X171531608Y-70307238D01*
X171540185Y-70249418D01*
X171554388Y-70192718D01*
X171574080Y-70137682D01*
X171599071Y-70084842D01*
X171629122Y-70034706D01*
X171663942Y-69987756D01*
X171703196Y-69944446D01*
X171746506Y-69905192D01*
X171793456Y-69870372D01*
X171843592Y-69840321D01*
X171896432Y-69815330D01*
X171951468Y-69795638D01*
X172008168Y-69781435D01*
X172065988Y-69772858D01*
X172124370Y-69769990D01*
X173315630Y-69769990D01*
X173374012Y-69772858D01*
X173374012Y-69772858D01*
G37*
D29*
X172720000Y-70961250D03*
D17*
G36*
X173374012Y-74535358D02*
G01*
X173431832Y-74543935D01*
X173488532Y-74558138D01*
X173543568Y-74577830D01*
X173596408Y-74602821D01*
X173646544Y-74632872D01*
X173693494Y-74667692D01*
X173736804Y-74706946D01*
X173776058Y-74750256D01*
X173810878Y-74797206D01*
X173840929Y-74847342D01*
X173865920Y-74900182D01*
X173885612Y-74955218D01*
X173899815Y-75011918D01*
X173908392Y-75069738D01*
X173911260Y-75128120D01*
X173911260Y-76319380D01*
X173908392Y-76377762D01*
X173899815Y-76435582D01*
X173885612Y-76492282D01*
X173865920Y-76547318D01*
X173840929Y-76600158D01*
X173810878Y-76650294D01*
X173776058Y-76697244D01*
X173736804Y-76740554D01*
X173693494Y-76779808D01*
X173646544Y-76814628D01*
X173596408Y-76844679D01*
X173543568Y-76869670D01*
X173488532Y-76889362D01*
X173431832Y-76903565D01*
X173374012Y-76912142D01*
X173315630Y-76915010D01*
X172124370Y-76915010D01*
X172065988Y-76912142D01*
X172008168Y-76903565D01*
X171951468Y-76889362D01*
X171896432Y-76869670D01*
X171843592Y-76844679D01*
X171793456Y-76814628D01*
X171746506Y-76779808D01*
X171703196Y-76740554D01*
X171663942Y-76697244D01*
X171629122Y-76650294D01*
X171599071Y-76600158D01*
X171574080Y-76547318D01*
X171554388Y-76492282D01*
X171540185Y-76435582D01*
X171531608Y-76377762D01*
X171528740Y-76319380D01*
X171528740Y-75128120D01*
X171531608Y-75069738D01*
X171540185Y-75011918D01*
X171554388Y-74955218D01*
X171574080Y-74900182D01*
X171599071Y-74847342D01*
X171629122Y-74797206D01*
X171663942Y-74750256D01*
X171703196Y-74706946D01*
X171746506Y-74667692D01*
X171793456Y-74632872D01*
X171843592Y-74602821D01*
X171896432Y-74577830D01*
X171951468Y-74558138D01*
X172008168Y-74543935D01*
X172065988Y-74535358D01*
X172124370Y-74532490D01*
X173315630Y-74532490D01*
X173374012Y-74535358D01*
X173374012Y-74535358D01*
G37*
D29*
X172720000Y-75723750D03*
D30*
X153265000Y-130937000D03*
X139065000Y-130937000D03*
D31*
X141165000Y-130937000D03*
X143165000Y-130937000D03*
X145165000Y-130937000D03*
X147165000Y-130937000D03*
X149165000Y-130937000D03*
X151165000Y-130937000D03*
D30*
X136132000Y-130937000D03*
X121932000Y-130937000D03*
D31*
X124032000Y-130937000D03*
X126032000Y-130937000D03*
X128032000Y-130937000D03*
X130032000Y-130937000D03*
X132032000Y-130937000D03*
X134032000Y-130937000D03*
D12*
X147320000Y-120015000D03*
D13*
X147320000Y-117475000D03*
D32*
X103632000Y-71120000D03*
X103632000Y-76200000D03*
X106172000Y-73660000D03*
X101092000Y-73660000D03*
X166370000Y-94615000D03*
X166370000Y-81915000D03*
X160020000Y-88265000D03*
X172720000Y-88265000D03*
X170815000Y-92710000D03*
X161925000Y-92710000D03*
X161925000Y-83820000D03*
X170815000Y-83820000D03*
X114300000Y-84455000D03*
X115570000Y-108585000D03*
X165100000Y-63500000D03*
X107315000Y-81915000D03*
X107315000Y-85725000D03*
X103505000Y-85725000D03*
X103505000Y-81915000D03*
X120650000Y-96520000D03*
X122580400Y-103835200D03*
X166370000Y-113665000D03*
X170815000Y-111760000D03*
X161925000Y-102870000D03*
X161925000Y-111760000D03*
X160020000Y-107315000D03*
X170815000Y-102870000D03*
X166370000Y-100965000D03*
X172720000Y-107315000D03*
X128016000Y-86169500D03*
X128016000Y-106997500D03*
X128524000Y-111506000D03*
X127000000Y-84074000D03*
X132715000Y-82550000D03*
X143764000Y-81087900D03*
X146435167Y-87210514D03*
X147574000Y-81089500D03*
X147701000Y-86995000D03*
D33*
X105410000Y-83900000D02*
X105410000Y-83820000D01*
X105410000Y-83820000D02*
X103505000Y-81915000D01*
X105410000Y-83820000D02*
X107315000Y-81915000D01*
X105410000Y-83900000D02*
X105330000Y-83900000D01*
X105330000Y-83900000D02*
X103505000Y-85725000D01*
X105490000Y-83900000D02*
X107315000Y-85725000D01*
X105410000Y-83900000D02*
X105490000Y-83900000D01*
D34*
X147955000Y-97790000D02*
X147955000Y-99695000D01*
X145034000Y-97790000D02*
X147955000Y-97790000D01*
X147955000Y-97790000D02*
X147955000Y-95250000D01*
X141605000Y-95250000D02*
X141605000Y-99695000D01*
X147955000Y-95250000D02*
X141605000Y-95250000D01*
X143129000Y-99695000D02*
X147955000Y-99695000D01*
X141605000Y-99695000D02*
X143129000Y-99695000D01*
D35*
X170415001Y-111360001D02*
X166370000Y-107315000D01*
X170815000Y-111760000D02*
X170415001Y-111360001D01*
X166370000Y-113665000D02*
X166370000Y-107315000D01*
X162324999Y-111360001D02*
X166370000Y-107315000D01*
X161925000Y-111760000D02*
X162324999Y-111360001D01*
X172720000Y-107315000D02*
X166370000Y-107315000D01*
X170415001Y-103269999D02*
X166370000Y-107315000D01*
X170815000Y-102870000D02*
X170415001Y-103269999D01*
X166370000Y-100965000D02*
X166370000Y-107315000D01*
X162324999Y-103269999D02*
X166370000Y-107315000D01*
X161925000Y-102870000D02*
X162324999Y-103269999D01*
X160020000Y-107315000D02*
X166370000Y-107315000D01*
X128524000Y-82550000D02*
X132715000Y-82550000D01*
X127000000Y-84074000D02*
X128524000Y-82550000D01*
D36*
X143764000Y-83947003D02*
X143764000Y-81087900D01*
X146435167Y-87210514D02*
X146435167Y-86618170D01*
X146435167Y-86618170D02*
X143764000Y-83947003D01*
X147701000Y-81216500D02*
X147574000Y-81089500D01*
X147701000Y-86995000D02*
X147701000Y-81216500D01*
D37*
G36*
X145501704Y-86759509D02*
G01*
X145439941Y-86908616D01*
X145400167Y-87108575D01*
X145400167Y-87312453D01*
X145439941Y-87512412D01*
X145517962Y-87700770D01*
X145631230Y-87870288D01*
X145775393Y-88014451D01*
X145944911Y-88127719D01*
X146133269Y-88205740D01*
X146333228Y-88245514D01*
X146537106Y-88245514D01*
X146737065Y-88205740D01*
X146925423Y-88127719D01*
X147094941Y-88014451D01*
X147202617Y-87906775D01*
X147210744Y-87912205D01*
X147399102Y-87990226D01*
X147599061Y-88030000D01*
X147802939Y-88030000D01*
X148002898Y-87990226D01*
X148191256Y-87912205D01*
X148360774Y-87798937D01*
X148504937Y-87654774D01*
X148618205Y-87485256D01*
X148696226Y-87296898D01*
X148736000Y-87096939D01*
X148736000Y-86893061D01*
X148696226Y-86693102D01*
X148618205Y-86504744D01*
X148504937Y-86335226D01*
X148461000Y-86291289D01*
X148461000Y-85217000D01*
X157947394Y-85217000D01*
X158623000Y-85892606D01*
X158623000Y-111465394D01*
X157947394Y-112141000D01*
X124627606Y-112141000D01*
X123952000Y-111465394D01*
X123952000Y-96090000D01*
X141895928Y-96090000D01*
X141899000Y-97504250D01*
X141931243Y-97536493D01*
X141905836Y-97662998D01*
X141899000Y-97662998D01*
X141899000Y-97788534D01*
X141898829Y-97880355D01*
X141899000Y-97881223D01*
X141899000Y-97917002D01*
X141906048Y-97917002D01*
X141931013Y-98043737D01*
X141899000Y-98075750D01*
X141895928Y-99490000D01*
X141908188Y-99614482D01*
X141944498Y-99734180D01*
X142003463Y-99844494D01*
X142082815Y-99941185D01*
X142179506Y-100020537D01*
X142289820Y-100079502D01*
X142409518Y-100115812D01*
X142534000Y-100128072D01*
X144748250Y-100125000D01*
X144907000Y-99966250D01*
X144907000Y-99818165D01*
X144940176Y-99824828D01*
X145124355Y-99825171D01*
X145161000Y-99817952D01*
X145161000Y-99966250D01*
X145319750Y-100125000D01*
X147534000Y-100128072D01*
X147658482Y-100115812D01*
X147778180Y-100079502D01*
X147888494Y-100020537D01*
X147985185Y-99941185D01*
X148064537Y-99844494D01*
X148123502Y-99734180D01*
X148159812Y-99614482D01*
X148172072Y-99490000D01*
X148169000Y-98075750D01*
X148136757Y-98043507D01*
X148162164Y-97917002D01*
X148169000Y-97917002D01*
X148169000Y-97791466D01*
X148169171Y-97699645D01*
X148169000Y-97698777D01*
X148169000Y-97662998D01*
X148161952Y-97662998D01*
X148136987Y-97536263D01*
X148169000Y-97504250D01*
X148172072Y-96090000D01*
X148159812Y-95965518D01*
X148123502Y-95845820D01*
X148064537Y-95735506D01*
X147985185Y-95638815D01*
X147888494Y-95559463D01*
X147778180Y-95500498D01*
X147658482Y-95464188D01*
X147534000Y-95451928D01*
X145319750Y-95455000D01*
X145161000Y-95613750D01*
X145161000Y-95761835D01*
X145127824Y-95755172D01*
X144943645Y-95754829D01*
X144907000Y-95762048D01*
X144907000Y-95613750D01*
X144748250Y-95455000D01*
X142534000Y-95451928D01*
X142409518Y-95464188D01*
X142289820Y-95500498D01*
X142179506Y-95559463D01*
X142082815Y-95638815D01*
X142003463Y-95735506D01*
X141944498Y-95845820D01*
X141908188Y-95965518D01*
X141895928Y-96090000D01*
X123952000Y-96090000D01*
X123952000Y-85892606D01*
X124627606Y-85217000D01*
X143959196Y-85217000D01*
X145501704Y-86759509D01*
X145501704Y-86759509D01*
G37*
X145501704Y-86759509D02*
X145439941Y-86908616D01*
X145400167Y-87108575D01*
X145400167Y-87312453D01*
X145439941Y-87512412D01*
X145517962Y-87700770D01*
X145631230Y-87870288D01*
X145775393Y-88014451D01*
X145944911Y-88127719D01*
X146133269Y-88205740D01*
X146333228Y-88245514D01*
X146537106Y-88245514D01*
X146737065Y-88205740D01*
X146925423Y-88127719D01*
X147094941Y-88014451D01*
X147202617Y-87906775D01*
X147210744Y-87912205D01*
X147399102Y-87990226D01*
X147599061Y-88030000D01*
X147802939Y-88030000D01*
X148002898Y-87990226D01*
X148191256Y-87912205D01*
X148360774Y-87798937D01*
X148504937Y-87654774D01*
X148618205Y-87485256D01*
X148696226Y-87296898D01*
X148736000Y-87096939D01*
X148736000Y-86893061D01*
X148696226Y-86693102D01*
X148618205Y-86504744D01*
X148504937Y-86335226D01*
X148461000Y-86291289D01*
X148461000Y-85217000D01*
X157947394Y-85217000D01*
X158623000Y-85892606D01*
X158623000Y-111465394D01*
X157947394Y-112141000D01*
X124627606Y-112141000D01*
X123952000Y-111465394D01*
X123952000Y-96090000D01*
X141895928Y-96090000D01*
X141899000Y-97504250D01*
X141931243Y-97536493D01*
X141905836Y-97662998D01*
X141899000Y-97662998D01*
X141899000Y-97788534D01*
X141898829Y-97880355D01*
X141899000Y-97881223D01*
X141899000Y-97917002D01*
X141906048Y-97917002D01*
X141931013Y-98043737D01*
X141899000Y-98075750D01*
X141895928Y-99490000D01*
X141908188Y-99614482D01*
X141944498Y-99734180D01*
X142003463Y-99844494D01*
X142082815Y-99941185D01*
X142179506Y-100020537D01*
X142289820Y-100079502D01*
X142409518Y-100115812D01*
X142534000Y-100128072D01*
X144748250Y-100125000D01*
X144907000Y-99966250D01*
X144907000Y-99818165D01*
X144940176Y-99824828D01*
X145124355Y-99825171D01*
X145161000Y-99817952D01*
X145161000Y-99966250D01*
X145319750Y-100125000D01*
X147534000Y-100128072D01*
X147658482Y-100115812D01*
X147778180Y-100079502D01*
X147888494Y-100020537D01*
X147985185Y-99941185D01*
X148064537Y-99844494D01*
X148123502Y-99734180D01*
X148159812Y-99614482D01*
X148172072Y-99490000D01*
X148169000Y-98075750D01*
X148136757Y-98043507D01*
X148162164Y-97917002D01*
X148169000Y-97917002D01*
X148169000Y-97791466D01*
X148169171Y-97699645D01*
X148169000Y-97698777D01*
X148169000Y-97662998D01*
X148161952Y-97662998D01*
X148136987Y-97536263D01*
X148169000Y-97504250D01*
X148172072Y-96090000D01*
X148159812Y-95965518D01*
X148123502Y-95845820D01*
X148064537Y-95735506D01*
X147985185Y-95638815D01*
X147888494Y-95559463D01*
X147778180Y-95500498D01*
X147658482Y-95464188D01*
X147534000Y-95451928D01*
X145319750Y-95455000D01*
X145161000Y-95613750D01*
X145161000Y-95761835D01*
X145127824Y-95755172D01*
X144943645Y-95754829D01*
X144907000Y-95762048D01*
X144907000Y-95613750D01*
X144748250Y-95455000D01*
X142534000Y-95451928D01*
X142409518Y-95464188D01*
X142289820Y-95500498D01*
X142179506Y-95559463D01*
X142082815Y-95638815D01*
X142003463Y-95735506D01*
X141944498Y-95845820D01*
X141908188Y-95965518D01*
X141895928Y-96090000D01*
X123952000Y-96090000D01*
X123952000Y-85892606D01*
X124627606Y-85217000D01*
X143959196Y-85217000D01*
X145501704Y-86759509D01*
G36*
X145076973Y-98725083D02*
G01*
X145161000Y-98809110D01*
X145161000Y-98970890D01*
X145048143Y-99083748D01*
X145034000Y-99069605D01*
X145019858Y-99083748D01*
X144907000Y-98970890D01*
X144907000Y-98809110D01*
X144991187Y-98724923D01*
X145076973Y-98725083D01*
X145076973Y-98725083D01*
G37*
X145076973Y-98725083D02*
X145161000Y-98809110D01*
X145161000Y-98970890D01*
X145048143Y-99083748D01*
X145034000Y-99069605D01*
X145019858Y-99083748D01*
X144907000Y-98970890D01*
X144907000Y-98809110D01*
X144991187Y-98724923D01*
X145076973Y-98725083D01*
G36*
X145076973Y-97625083D02*
G01*
X145181000Y-97729110D01*
X145181000Y-97850890D01*
X145076813Y-97955077D01*
X144991027Y-97954917D01*
X144887000Y-97850890D01*
X144887000Y-97729110D01*
X144991187Y-97624923D01*
X145076973Y-97625083D01*
X145076973Y-97625083D01*
G37*
X145076973Y-97625083D02*
X145181000Y-97729110D01*
X145181000Y-97850890D01*
X145076813Y-97955077D01*
X144991027Y-97954917D01*
X144887000Y-97850890D01*
X144887000Y-97729110D01*
X144991187Y-97624923D01*
X145076973Y-97625083D01*
G36*
X145161000Y-96609110D02*
G01*
X145161000Y-96770890D01*
X145076813Y-96855077D01*
X144991027Y-96854917D01*
X144907000Y-96770890D01*
X144907000Y-96609110D01*
X145019858Y-96496253D01*
X145034000Y-96510395D01*
X145048143Y-96496253D01*
X145161000Y-96609110D01*
X145161000Y-96609110D01*
G37*
X145161000Y-96609110D02*
X145161000Y-96770890D01*
X145076813Y-96855077D01*
X144991027Y-96854917D01*
X144907000Y-96770890D01*
X144907000Y-96609110D01*
X145019858Y-96496253D01*
X145034000Y-96510395D01*
X145048143Y-96496253D01*
X145161000Y-96609110D01*
G36*
X174319955Y-60424012D02*
G01*
X174525988Y-60630045D01*
X174600000Y-60724515D01*
X174600001Y-134855484D01*
X174525988Y-134949955D01*
X174319955Y-135155988D01*
X174225485Y-135230000D01*
X100094515Y-135230000D01*
X100000045Y-135155988D01*
X99794012Y-134949955D01*
X99720000Y-134855485D01*
X99720000Y-131835249D01*
X100308800Y-131835249D01*
X100308800Y-132324751D01*
X100404297Y-132804848D01*
X100591621Y-133257089D01*
X100863574Y-133664095D01*
X101209705Y-134010226D01*
X101616711Y-134282179D01*
X102068952Y-134469503D01*
X102549049Y-134565000D01*
X103038551Y-134565000D01*
X103518648Y-134469503D01*
X103970889Y-134282179D01*
X104297081Y-134064224D01*
X161390381Y-134064224D01*
X161522317Y-134359312D01*
X161863045Y-134530159D01*
X162230557Y-134631250D01*
X162610729Y-134658701D01*
X162988951Y-134611457D01*
X163350690Y-134491333D01*
X163597683Y-134359312D01*
X163729619Y-134064224D01*
X163930381Y-134064224D01*
X164062317Y-134359312D01*
X164403045Y-134530159D01*
X164770557Y-134631250D01*
X165150729Y-134658701D01*
X165528951Y-134611457D01*
X165890690Y-134491333D01*
X166137683Y-134359312D01*
X166269619Y-134064224D01*
X165100000Y-132894605D01*
X163930381Y-134064224D01*
X163729619Y-134064224D01*
X162560000Y-132894605D01*
X161390381Y-134064224D01*
X104297081Y-134064224D01*
X104377895Y-134010226D01*
X104724026Y-133664095D01*
X104995979Y-133257089D01*
X105183303Y-132804848D01*
X105278800Y-132324751D01*
X105278800Y-131835249D01*
X105183303Y-131355152D01*
X104995979Y-130902911D01*
X104724026Y-130495905D01*
X104489714Y-130261593D01*
X120397000Y-130261593D01*
X120397000Y-131612408D01*
X120419210Y-131837913D01*
X120506983Y-132127261D01*
X120649520Y-132393927D01*
X120841340Y-132627661D01*
X121075074Y-132819481D01*
X121341740Y-132962017D01*
X121631088Y-133049790D01*
X121932000Y-133079427D01*
X122232913Y-133049790D01*
X122522261Y-132962017D01*
X122788927Y-132819481D01*
X123022661Y-132627661D01*
X123214481Y-132393927D01*
X123262854Y-132303427D01*
X123342552Y-132368833D01*
X123557100Y-132483511D01*
X123789899Y-132554130D01*
X124032000Y-132577975D01*
X124274102Y-132554130D01*
X124506901Y-132483511D01*
X124721449Y-132368833D01*
X124909502Y-132214502D01*
X125032001Y-132065237D01*
X125154499Y-132214502D01*
X125342552Y-132368833D01*
X125557100Y-132483511D01*
X125789899Y-132554130D01*
X126032000Y-132577975D01*
X126274102Y-132554130D01*
X126506901Y-132483511D01*
X126721449Y-132368833D01*
X126909502Y-132214502D01*
X127032001Y-132065237D01*
X127154499Y-132214502D01*
X127342552Y-132368833D01*
X127557100Y-132483511D01*
X127789899Y-132554130D01*
X128032000Y-132577975D01*
X128274102Y-132554130D01*
X128506901Y-132483511D01*
X128721449Y-132368833D01*
X128909502Y-132214502D01*
X129032001Y-132065237D01*
X129154499Y-132214502D01*
X129342552Y-132368833D01*
X129557100Y-132483511D01*
X129789899Y-132554130D01*
X130032000Y-132577975D01*
X130274102Y-132554130D01*
X130506901Y-132483511D01*
X130721449Y-132368833D01*
X130909502Y-132214502D01*
X131032001Y-132065237D01*
X131154499Y-132214502D01*
X131342552Y-132368833D01*
X131557100Y-132483511D01*
X131789899Y-132554130D01*
X132032000Y-132577975D01*
X132274102Y-132554130D01*
X132506901Y-132483511D01*
X132721449Y-132368833D01*
X132909502Y-132214502D01*
X133032001Y-132065237D01*
X133154499Y-132214502D01*
X133342552Y-132368833D01*
X133557100Y-132483511D01*
X133789899Y-132554130D01*
X134032000Y-132577975D01*
X134274102Y-132554130D01*
X134506901Y-132483511D01*
X134721449Y-132368833D01*
X134801146Y-132303427D01*
X134849520Y-132393927D01*
X135041340Y-132627661D01*
X135275074Y-132819481D01*
X135541740Y-132962017D01*
X135831088Y-133049790D01*
X136132000Y-133079427D01*
X136432913Y-133049790D01*
X136722261Y-132962017D01*
X136988927Y-132819481D01*
X137222661Y-132627661D01*
X137414481Y-132393927D01*
X137557017Y-132127261D01*
X137598500Y-131990510D01*
X137639983Y-132127261D01*
X137782520Y-132393927D01*
X137974340Y-132627661D01*
X138208074Y-132819481D01*
X138474740Y-132962017D01*
X138764088Y-133049790D01*
X139065000Y-133079427D01*
X139365913Y-133049790D01*
X139655261Y-132962017D01*
X139921927Y-132819481D01*
X140155661Y-132627661D01*
X140347481Y-132393927D01*
X140395854Y-132303427D01*
X140475552Y-132368833D01*
X140690100Y-132483511D01*
X140922899Y-132554130D01*
X141165000Y-132577975D01*
X141407102Y-132554130D01*
X141639901Y-132483511D01*
X141854449Y-132368833D01*
X142042502Y-132214502D01*
X142165001Y-132065237D01*
X142287499Y-132214502D01*
X142475552Y-132368833D01*
X142690100Y-132483511D01*
X142922899Y-132554130D01*
X143165000Y-132577975D01*
X143407102Y-132554130D01*
X143639901Y-132483511D01*
X143854449Y-132368833D01*
X144042502Y-132214502D01*
X144165001Y-132065237D01*
X144287499Y-132214502D01*
X144475552Y-132368833D01*
X144690100Y-132483511D01*
X144922899Y-132554130D01*
X145165000Y-132577975D01*
X145407102Y-132554130D01*
X145639901Y-132483511D01*
X145854449Y-132368833D01*
X146042502Y-132214502D01*
X146165001Y-132065237D01*
X146287499Y-132214502D01*
X146475552Y-132368833D01*
X146690100Y-132483511D01*
X146922899Y-132554130D01*
X147165000Y-132577975D01*
X147407102Y-132554130D01*
X147639901Y-132483511D01*
X147854449Y-132368833D01*
X148042502Y-132214502D01*
X148165001Y-132065237D01*
X148287499Y-132214502D01*
X148475552Y-132368833D01*
X148690100Y-132483511D01*
X148922899Y-132554130D01*
X149165000Y-132577975D01*
X149407102Y-132554130D01*
X149639901Y-132483511D01*
X149854449Y-132368833D01*
X150042502Y-132214502D01*
X150165001Y-132065237D01*
X150287499Y-132214502D01*
X150475552Y-132368833D01*
X150690100Y-132483511D01*
X150922899Y-132554130D01*
X151165000Y-132577975D01*
X151407102Y-132554130D01*
X151639901Y-132483511D01*
X151854449Y-132368833D01*
X151934146Y-132303427D01*
X151982520Y-132393927D01*
X152174340Y-132627661D01*
X152408074Y-132819481D01*
X152674740Y-132962017D01*
X152964088Y-133049790D01*
X153265000Y-133079427D01*
X153565913Y-133049790D01*
X153855261Y-132962017D01*
X154121927Y-132819481D01*
X154187424Y-132765729D01*
X160616299Y-132765729D01*
X160663543Y-133143951D01*
X160783667Y-133505690D01*
X160915688Y-133752683D01*
X161210776Y-133884619D01*
X162380395Y-132715000D01*
X162739605Y-132715000D01*
X163220938Y-133196333D01*
X163323667Y-133505690D01*
X163455688Y-133752683D01*
X163750776Y-133884619D01*
X163830000Y-133805395D01*
X163909224Y-133884619D01*
X164204312Y-133752683D01*
X164375159Y-133411955D01*
X164432727Y-133202668D01*
X164920395Y-132715000D01*
X165279605Y-132715000D01*
X166449224Y-133884619D01*
X166744312Y-133752683D01*
X166915159Y-133411955D01*
X167016250Y-133044443D01*
X167043701Y-132664271D01*
X166996457Y-132286049D01*
X166876333Y-131924310D01*
X166828729Y-131835249D01*
X169015800Y-131835249D01*
X169015800Y-132324751D01*
X169111297Y-132804848D01*
X169298621Y-133257089D01*
X169570574Y-133664095D01*
X169916705Y-134010226D01*
X170323711Y-134282179D01*
X170775952Y-134469503D01*
X171256049Y-134565000D01*
X171745551Y-134565000D01*
X172225648Y-134469503D01*
X172677889Y-134282179D01*
X173084895Y-134010226D01*
X173431026Y-133664095D01*
X173702979Y-133257089D01*
X173890303Y-132804848D01*
X173985800Y-132324751D01*
X173985800Y-131835249D01*
X173890303Y-131355152D01*
X173702979Y-130902911D01*
X173431026Y-130495905D01*
X173084895Y-130149774D01*
X172677889Y-129877821D01*
X172225648Y-129690497D01*
X171745551Y-129595000D01*
X171256049Y-129595000D01*
X170775952Y-129690497D01*
X170323711Y-129877821D01*
X169916705Y-130149774D01*
X169570574Y-130495905D01*
X169298621Y-130902911D01*
X169111297Y-131355152D01*
X169015800Y-131835249D01*
X166828729Y-131835249D01*
X166744312Y-131677317D01*
X166449224Y-131545381D01*
X165279605Y-132715000D01*
X164920395Y-132715000D01*
X164439062Y-132233667D01*
X164336333Y-131924310D01*
X164204312Y-131677317D01*
X163909224Y-131545381D01*
X163830000Y-131624605D01*
X163750776Y-131545381D01*
X163455688Y-131677317D01*
X163284841Y-132018045D01*
X163227273Y-132227332D01*
X162739605Y-132715000D01*
X162380395Y-132715000D01*
X161210776Y-131545381D01*
X160915688Y-131677317D01*
X160744841Y-132018045D01*
X160643750Y-132385557D01*
X160616299Y-132765729D01*
X154187424Y-132765729D01*
X154355661Y-132627661D01*
X154547481Y-132393927D01*
X154690017Y-132127261D01*
X154777790Y-131837913D01*
X154800000Y-131612408D01*
X154800000Y-131365776D01*
X161390381Y-131365776D01*
X162560000Y-132535395D01*
X163729619Y-131365776D01*
X163930381Y-131365776D01*
X165100000Y-132535395D01*
X166269619Y-131365776D01*
X166137683Y-131070688D01*
X165796955Y-130899841D01*
X165429443Y-130798750D01*
X165049271Y-130771299D01*
X164671049Y-130818543D01*
X164309310Y-130938667D01*
X164062317Y-131070688D01*
X163930381Y-131365776D01*
X163729619Y-131365776D01*
X163597683Y-131070688D01*
X163256955Y-130899841D01*
X162889443Y-130798750D01*
X162509271Y-130771299D01*
X162131049Y-130818543D01*
X161769310Y-130938667D01*
X161522317Y-131070688D01*
X161390381Y-131365776D01*
X154800000Y-131365776D01*
X154800000Y-130261592D01*
X154777790Y-130036087D01*
X154690017Y-129746739D01*
X154547481Y-129480073D01*
X154355661Y-129246339D01*
X154121926Y-129054519D01*
X153855260Y-128911983D01*
X153565912Y-128824210D01*
X153265000Y-128794573D01*
X152964087Y-128824210D01*
X152674739Y-128911983D01*
X152408073Y-129054519D01*
X152174339Y-129246339D01*
X151982519Y-129480074D01*
X151934146Y-129570573D01*
X151854448Y-129505167D01*
X151639900Y-129390489D01*
X151407101Y-129319870D01*
X151165000Y-129296025D01*
X150922898Y-129319870D01*
X150690099Y-129390489D01*
X150475551Y-129505167D01*
X150287498Y-129659498D01*
X150165000Y-129808763D01*
X150042502Y-129659498D01*
X149854448Y-129505167D01*
X149639900Y-129390489D01*
X149407101Y-129319870D01*
X149165000Y-129296025D01*
X148922898Y-129319870D01*
X148690099Y-129390489D01*
X148475551Y-129505167D01*
X148287498Y-129659498D01*
X148165000Y-129808763D01*
X148042502Y-129659498D01*
X147854448Y-129505167D01*
X147639900Y-129390489D01*
X147407101Y-129319870D01*
X147165000Y-129296025D01*
X146922898Y-129319870D01*
X146690099Y-129390489D01*
X146475551Y-129505167D01*
X146287498Y-129659498D01*
X146165000Y-129808763D01*
X146042502Y-129659498D01*
X145854448Y-129505167D01*
X145639900Y-129390489D01*
X145407101Y-129319870D01*
X145165000Y-129296025D01*
X144922898Y-129319870D01*
X144690099Y-129390489D01*
X144475551Y-129505167D01*
X144287498Y-129659498D01*
X144165000Y-129808763D01*
X144042502Y-129659498D01*
X143854448Y-129505167D01*
X143639900Y-129390489D01*
X143407101Y-129319870D01*
X143165000Y-129296025D01*
X142922898Y-129319870D01*
X142690099Y-129390489D01*
X142475551Y-129505167D01*
X142287498Y-129659498D01*
X142165000Y-129808763D01*
X142042502Y-129659498D01*
X141854448Y-129505167D01*
X141639900Y-129390489D01*
X141407101Y-129319870D01*
X141165000Y-129296025D01*
X140922898Y-129319870D01*
X140690099Y-129390489D01*
X140475551Y-129505167D01*
X140395854Y-129570573D01*
X140347481Y-129480073D01*
X140155661Y-129246339D01*
X139921926Y-129054519D01*
X139655260Y-128911983D01*
X139365912Y-128824210D01*
X139065000Y-128794573D01*
X138764087Y-128824210D01*
X138474739Y-128911983D01*
X138208073Y-129054519D01*
X137974339Y-129246339D01*
X137782519Y-129480074D01*
X137639983Y-129746740D01*
X137598500Y-129883490D01*
X137557017Y-129746739D01*
X137414481Y-129480073D01*
X137222661Y-129246339D01*
X136988926Y-129054519D01*
X136722260Y-128911983D01*
X136432912Y-128824210D01*
X136132000Y-128794573D01*
X135831087Y-128824210D01*
X135541739Y-128911983D01*
X135275073Y-129054519D01*
X135041339Y-129246339D01*
X134849519Y-129480074D01*
X134801146Y-129570573D01*
X134721448Y-129505167D01*
X134506900Y-129390489D01*
X134274101Y-129319870D01*
X134032000Y-129296025D01*
X133789898Y-129319870D01*
X133557099Y-129390489D01*
X133342551Y-129505167D01*
X133154498Y-129659498D01*
X133032000Y-129808763D01*
X132909502Y-129659498D01*
X132721448Y-129505167D01*
X132506900Y-129390489D01*
X132274101Y-129319870D01*
X132032000Y-129296025D01*
X131789898Y-129319870D01*
X131557099Y-129390489D01*
X131342551Y-129505167D01*
X131154498Y-129659498D01*
X131032000Y-129808763D01*
X130909502Y-129659498D01*
X130721448Y-129505167D01*
X130506900Y-129390489D01*
X130274101Y-129319870D01*
X130032000Y-129296025D01*
X129789898Y-129319870D01*
X129557099Y-129390489D01*
X129342551Y-129505167D01*
X129154498Y-129659498D01*
X129032000Y-129808763D01*
X128909502Y-129659498D01*
X128721448Y-129505167D01*
X128506900Y-129390489D01*
X128274101Y-129319870D01*
X128032000Y-129296025D01*
X127789898Y-129319870D01*
X127557099Y-129390489D01*
X127342551Y-129505167D01*
X127154498Y-129659498D01*
X127032000Y-129808763D01*
X126909502Y-129659498D01*
X126721448Y-129505167D01*
X126506900Y-129390489D01*
X126274101Y-129319870D01*
X126032000Y-129296025D01*
X125789898Y-129319870D01*
X125557099Y-129390489D01*
X125342551Y-129505167D01*
X125154498Y-129659498D01*
X125032000Y-129808763D01*
X124909502Y-129659498D01*
X124721448Y-129505167D01*
X124506900Y-129390489D01*
X124274101Y-129319870D01*
X124032000Y-129296025D01*
X123789898Y-129319870D01*
X123557099Y-129390489D01*
X123342551Y-129505167D01*
X123262854Y-129570573D01*
X123214481Y-129480073D01*
X123022661Y-129246339D01*
X122788926Y-129054519D01*
X122522260Y-128911983D01*
X122232912Y-128824210D01*
X121932000Y-128794573D01*
X121631087Y-128824210D01*
X121341739Y-128911983D01*
X121075073Y-129054519D01*
X120841339Y-129246339D01*
X120649519Y-129480074D01*
X120506983Y-129746740D01*
X120419210Y-130036088D01*
X120397000Y-130261593D01*
X104489714Y-130261593D01*
X104377895Y-130149774D01*
X103970889Y-129877821D01*
X103518648Y-129690497D01*
X103038551Y-129595000D01*
X102549049Y-129595000D01*
X102068952Y-129690497D01*
X101616711Y-129877821D01*
X101209705Y-130149774D01*
X100863574Y-130495905D01*
X100591621Y-130902911D01*
X100404297Y-131355152D01*
X100308800Y-131835249D01*
X99720000Y-131835249D01*
X99720000Y-125095000D01*
X128098057Y-125095000D01*
X128125764Y-125376309D01*
X128207818Y-125646808D01*
X128341068Y-125896101D01*
X128520392Y-126114608D01*
X128738899Y-126293932D01*
X128988192Y-126427182D01*
X129258691Y-126509236D01*
X129469508Y-126530000D01*
X129610492Y-126530000D01*
X129821309Y-126509236D01*
X130091808Y-126427182D01*
X130341101Y-126293932D01*
X130559608Y-126114608D01*
X130738932Y-125896101D01*
X130872182Y-125646808D01*
X130954236Y-125376309D01*
X130981943Y-125095000D01*
X130954236Y-124813691D01*
X130872182Y-124543192D01*
X130738932Y-124293899D01*
X130559608Y-124075392D01*
X130341101Y-123896068D01*
X130208143Y-123825000D01*
X135032815Y-123825000D01*
X135061487Y-124116111D01*
X135146401Y-124396034D01*
X135284294Y-124654014D01*
X135469866Y-124880134D01*
X135499687Y-124904607D01*
X135430820Y-124925498D01*
X135320506Y-124984463D01*
X135223815Y-125063815D01*
X135144463Y-125160506D01*
X135085498Y-125270820D01*
X135049188Y-125390518D01*
X135036928Y-125515000D01*
X135036928Y-127215000D01*
X135049188Y-127339482D01*
X135085498Y-127459180D01*
X135144463Y-127569494D01*
X135223815Y-127666185D01*
X135320506Y-127745537D01*
X135430820Y-127804502D01*
X135550518Y-127840812D01*
X135675000Y-127853072D01*
X137375000Y-127853072D01*
X137499482Y-127840812D01*
X137619180Y-127804502D01*
X137729494Y-127745537D01*
X137826185Y-127666185D01*
X137905537Y-127569494D01*
X137964502Y-127459180D01*
X138000812Y-127339482D01*
X138013072Y-127215000D01*
X138013072Y-125515000D01*
X138000812Y-125390518D01*
X137964502Y-125270820D01*
X137905537Y-125160506D01*
X137826185Y-125063815D01*
X137729494Y-124984463D01*
X137619180Y-124925498D01*
X137550313Y-124904607D01*
X137580134Y-124880134D01*
X137765706Y-124654014D01*
X137903599Y-124396034D01*
X137988513Y-124116111D01*
X138017185Y-123825000D01*
X138003265Y-123683665D01*
X145885000Y-123683665D01*
X145885000Y-123966335D01*
X145940147Y-124243574D01*
X146048320Y-124504727D01*
X146205363Y-124739759D01*
X146405241Y-124939637D01*
X146607827Y-125075000D01*
X146405241Y-125210363D01*
X146205363Y-125410241D01*
X146048320Y-125645273D01*
X145940147Y-125906426D01*
X145885000Y-126183665D01*
X145885000Y-126466335D01*
X145940147Y-126743574D01*
X146048320Y-127004727D01*
X146205363Y-127239759D01*
X146405241Y-127439637D01*
X146640273Y-127596680D01*
X146901426Y-127704853D01*
X147178665Y-127760000D01*
X147461335Y-127760000D01*
X147738574Y-127704853D01*
X147999727Y-127596680D01*
X148074078Y-127547000D01*
X160944928Y-127547000D01*
X160944928Y-129247000D01*
X160957188Y-129371482D01*
X160993498Y-129491180D01*
X161052463Y-129601494D01*
X161131815Y-129698185D01*
X161228506Y-129777537D01*
X161338820Y-129836502D01*
X161458518Y-129872812D01*
X161583000Y-129885072D01*
X163283000Y-129885072D01*
X163407482Y-129872812D01*
X163527180Y-129836502D01*
X163637494Y-129777537D01*
X163734185Y-129698185D01*
X163813537Y-129601494D01*
X163872502Y-129491180D01*
X163896966Y-129410534D01*
X163972731Y-129494588D01*
X164206080Y-129668641D01*
X164468901Y-129793825D01*
X164616110Y-129838476D01*
X164846000Y-129717155D01*
X164846000Y-128524000D01*
X165100000Y-128524000D01*
X165100000Y-129717155D01*
X165329890Y-129838476D01*
X165477099Y-129793825D01*
X165739920Y-129668641D01*
X165973269Y-129494588D01*
X166168178Y-129278355D01*
X166317157Y-129028252D01*
X166414481Y-128753891D01*
X166293814Y-128524000D01*
X165100000Y-128524000D01*
X164846000Y-128524000D01*
X164826000Y-128524000D01*
X164826000Y-128270000D01*
X164846000Y-128270000D01*
X164846000Y-127076845D01*
X165100000Y-127076845D01*
X165100000Y-128270000D01*
X166293814Y-128270000D01*
X166414481Y-128040109D01*
X166317157Y-127765748D01*
X166168178Y-127515645D01*
X165973269Y-127299412D01*
X165739920Y-127125359D01*
X165477099Y-127000175D01*
X165329890Y-126955524D01*
X165100000Y-127076845D01*
X164846000Y-127076845D01*
X164616110Y-126955524D01*
X164468901Y-127000175D01*
X164206080Y-127125359D01*
X163972731Y-127299412D01*
X163896966Y-127383466D01*
X163872502Y-127302820D01*
X163813537Y-127192506D01*
X163734185Y-127095815D01*
X163637494Y-127016463D01*
X163527180Y-126957498D01*
X163407482Y-126921188D01*
X163283000Y-126908928D01*
X161583000Y-126908928D01*
X161458518Y-126921188D01*
X161338820Y-126957498D01*
X161228506Y-127016463D01*
X161131815Y-127095815D01*
X161052463Y-127192506D01*
X160993498Y-127302820D01*
X160957188Y-127422518D01*
X160944928Y-127547000D01*
X148074078Y-127547000D01*
X148234759Y-127439637D01*
X148434637Y-127239759D01*
X148591680Y-127004727D01*
X148699853Y-126743574D01*
X148755000Y-126466335D01*
X148755000Y-126183665D01*
X148699853Y-125906426D01*
X148591680Y-125645273D01*
X148434637Y-125410241D01*
X148234759Y-125210363D01*
X148032173Y-125075000D01*
X148234759Y-124939637D01*
X148434637Y-124739759D01*
X148536707Y-124587000D01*
X157181057Y-124587000D01*
X157208764Y-124868309D01*
X157290818Y-125138808D01*
X157424068Y-125388101D01*
X157603392Y-125606608D01*
X157821899Y-125785932D01*
X158071192Y-125919182D01*
X158341691Y-126001236D01*
X158552508Y-126022000D01*
X158693492Y-126022000D01*
X158904309Y-126001236D01*
X159174808Y-125919182D01*
X159424101Y-125785932D01*
X159642608Y-125606608D01*
X159821932Y-125388101D01*
X159955182Y-125138808D01*
X160037236Y-124868309D01*
X160064943Y-124587000D01*
X160051023Y-124445665D01*
X167348000Y-124445665D01*
X167348000Y-124728335D01*
X167403147Y-125005574D01*
X167511320Y-125266727D01*
X167668363Y-125501759D01*
X167868241Y-125701637D01*
X168103273Y-125858680D01*
X168364426Y-125966853D01*
X168641665Y-126022000D01*
X168924335Y-126022000D01*
X169201574Y-125966853D01*
X169462727Y-125858680D01*
X169697759Y-125701637D01*
X169897637Y-125501759D01*
X170054680Y-125266727D01*
X170162853Y-125005574D01*
X170218000Y-124728335D01*
X170218000Y-124445665D01*
X170162853Y-124168426D01*
X170054680Y-123907273D01*
X169897637Y-123672241D01*
X169697759Y-123472363D01*
X169462727Y-123315320D01*
X169201574Y-123207147D01*
X168924335Y-123152000D01*
X168641665Y-123152000D01*
X168364426Y-123207147D01*
X168103273Y-123315320D01*
X167868241Y-123472363D01*
X167668363Y-123672241D01*
X167511320Y-123907273D01*
X167403147Y-124168426D01*
X167348000Y-124445665D01*
X160051023Y-124445665D01*
X160037236Y-124305691D01*
X159955182Y-124035192D01*
X159821932Y-123785899D01*
X159642608Y-123567392D01*
X159424101Y-123388068D01*
X159174808Y-123254818D01*
X158904309Y-123172764D01*
X158693492Y-123152000D01*
X158552508Y-123152000D01*
X158341691Y-123172764D01*
X158071192Y-123254818D01*
X157821899Y-123388068D01*
X157603392Y-123567392D01*
X157424068Y-123785899D01*
X157290818Y-124035192D01*
X157208764Y-124305691D01*
X157181057Y-124587000D01*
X148536707Y-124587000D01*
X148591680Y-124504727D01*
X148699853Y-124243574D01*
X148755000Y-123966335D01*
X148755000Y-123683665D01*
X148699853Y-123406426D01*
X148591680Y-123145273D01*
X148434637Y-122910241D01*
X148234759Y-122710363D01*
X147999727Y-122553320D01*
X147738574Y-122445147D01*
X147461335Y-122390000D01*
X147178665Y-122390000D01*
X146901426Y-122445147D01*
X146640273Y-122553320D01*
X146405241Y-122710363D01*
X146205363Y-122910241D01*
X146048320Y-123145273D01*
X145940147Y-123406426D01*
X145885000Y-123683665D01*
X138003265Y-123683665D01*
X137988513Y-123533889D01*
X137903599Y-123253966D01*
X137765706Y-122995986D01*
X137580134Y-122769866D01*
X137354014Y-122584294D01*
X137096034Y-122446401D01*
X136816111Y-122361487D01*
X136597950Y-122340000D01*
X136452050Y-122340000D01*
X136233889Y-122361487D01*
X135953966Y-122446401D01*
X135695986Y-122584294D01*
X135469866Y-122769866D01*
X135284294Y-122995986D01*
X135146401Y-123253966D01*
X135061487Y-123533889D01*
X135032815Y-123825000D01*
X130208143Y-123825000D01*
X130091808Y-123762818D01*
X129821309Y-123680764D01*
X129610492Y-123660000D01*
X129469508Y-123660000D01*
X129258691Y-123680764D01*
X128988192Y-123762818D01*
X128738899Y-123896068D01*
X128520392Y-124075392D01*
X128341068Y-124293899D01*
X128207818Y-124543192D01*
X128125764Y-124813691D01*
X128098057Y-125095000D01*
X99720000Y-125095000D01*
X99720000Y-120027723D01*
X105510000Y-120027723D01*
X105510000Y-120383277D01*
X105579365Y-120731999D01*
X105715429Y-121060488D01*
X105912965Y-121356121D01*
X106164379Y-121607535D01*
X106460012Y-121805071D01*
X106788501Y-121941135D01*
X107137223Y-122010500D01*
X107492777Y-122010500D01*
X107841499Y-121941135D01*
X108169988Y-121805071D01*
X108465621Y-121607535D01*
X108717035Y-121356121D01*
X108914571Y-121060488D01*
X109050635Y-120731999D01*
X109120000Y-120383277D01*
X109120000Y-120027723D01*
X110510000Y-120027723D01*
X110510000Y-120383277D01*
X110579365Y-120731999D01*
X110715429Y-121060488D01*
X110912965Y-121356121D01*
X111164379Y-121607535D01*
X111460012Y-121805071D01*
X111788501Y-121941135D01*
X112137223Y-122010500D01*
X112492777Y-122010500D01*
X112841499Y-121941135D01*
X113169988Y-121805071D01*
X113465621Y-121607535D01*
X113717035Y-121356121D01*
X113914571Y-121060488D01*
X114050635Y-120731999D01*
X114120000Y-120383277D01*
X114120000Y-120027723D01*
X115510000Y-120027723D01*
X115510000Y-120383277D01*
X115579365Y-120731999D01*
X115715429Y-121060488D01*
X115912965Y-121356121D01*
X116164379Y-121607535D01*
X116460012Y-121805071D01*
X116788501Y-121941135D01*
X117137223Y-122010500D01*
X117492777Y-122010500D01*
X117841499Y-121941135D01*
X118169988Y-121805071D01*
X118465621Y-121607535D01*
X118717035Y-121356121D01*
X118914571Y-121060488D01*
X119050635Y-120731999D01*
X119120000Y-120383277D01*
X119120000Y-120027723D01*
X119050635Y-119679001D01*
X118914571Y-119350512D01*
X118717035Y-119054879D01*
X118465621Y-118803465D01*
X118169988Y-118605929D01*
X117841499Y-118469865D01*
X117492777Y-118400500D01*
X117137223Y-118400500D01*
X116788501Y-118469865D01*
X116460012Y-118605929D01*
X116164379Y-118803465D01*
X115912965Y-119054879D01*
X115715429Y-119350512D01*
X115579365Y-119679001D01*
X115510000Y-120027723D01*
X114120000Y-120027723D01*
X114050635Y-119679001D01*
X113914571Y-119350512D01*
X113717035Y-119054879D01*
X113465621Y-118803465D01*
X113169988Y-118605929D01*
X112841499Y-118469865D01*
X112492777Y-118400500D01*
X112137223Y-118400500D01*
X111788501Y-118469865D01*
X111460012Y-118605929D01*
X111164379Y-118803465D01*
X110912965Y-119054879D01*
X110715429Y-119350512D01*
X110579365Y-119679001D01*
X110510000Y-120027723D01*
X109120000Y-120027723D01*
X109050635Y-119679001D01*
X108914571Y-119350512D01*
X108717035Y-119054879D01*
X108465621Y-118803465D01*
X108169988Y-118605929D01*
X107841499Y-118469865D01*
X107492777Y-118400500D01*
X107137223Y-118400500D01*
X106788501Y-118469865D01*
X106460012Y-118605929D01*
X106164379Y-118803465D01*
X105912965Y-119054879D01*
X105715429Y-119350512D01*
X105579365Y-119679001D01*
X105510000Y-120027723D01*
X99720000Y-120027723D01*
X99720000Y-117475000D01*
X145827815Y-117475000D01*
X145856487Y-117766111D01*
X145941401Y-118046034D01*
X146079294Y-118304014D01*
X146264866Y-118530134D01*
X146294687Y-118554607D01*
X146225820Y-118575498D01*
X146115506Y-118634463D01*
X146018815Y-118713815D01*
X145939463Y-118810506D01*
X145880498Y-118920820D01*
X145844188Y-119040518D01*
X145831928Y-119165000D01*
X145831928Y-120865000D01*
X145844188Y-120989482D01*
X145880498Y-121109180D01*
X145939463Y-121219494D01*
X146018815Y-121316185D01*
X146115506Y-121395537D01*
X146225820Y-121454502D01*
X146345518Y-121490812D01*
X146470000Y-121503072D01*
X148170000Y-121503072D01*
X148294482Y-121490812D01*
X148414180Y-121454502D01*
X148524494Y-121395537D01*
X148621185Y-121316185D01*
X148700537Y-121219494D01*
X148759502Y-121109180D01*
X148795812Y-120989482D01*
X148808072Y-120865000D01*
X148808072Y-119165000D01*
X148795812Y-119040518D01*
X148759502Y-118920820D01*
X148700537Y-118810506D01*
X148621185Y-118713815D01*
X148524494Y-118634463D01*
X148414180Y-118575498D01*
X148345313Y-118554607D01*
X148375134Y-118530134D01*
X148560706Y-118304014D01*
X148698599Y-118046034D01*
X148783513Y-117766111D01*
X148812185Y-117475000D01*
X148805923Y-117411419D01*
X168880000Y-117411419D01*
X168880000Y-117792581D01*
X168954361Y-118166419D01*
X169100225Y-118518566D01*
X169311987Y-118835491D01*
X169348496Y-118872000D01*
X169311987Y-118908509D01*
X169100225Y-119225434D01*
X168954361Y-119577581D01*
X168880000Y-119951419D01*
X168880000Y-120332581D01*
X168954361Y-120706419D01*
X169100225Y-121058566D01*
X169311987Y-121375491D01*
X169581509Y-121645013D01*
X169898434Y-121856775D01*
X170250581Y-122002639D01*
X170624419Y-122077000D01*
X171005581Y-122077000D01*
X171379419Y-122002639D01*
X171731566Y-121856775D01*
X172048491Y-121645013D01*
X172318013Y-121375491D01*
X172529775Y-121058566D01*
X172675639Y-120706419D01*
X172750000Y-120332581D01*
X172750000Y-119951419D01*
X172675639Y-119577581D01*
X172529775Y-119225434D01*
X172318013Y-118908509D01*
X172281504Y-118872000D01*
X172318013Y-118835491D01*
X172529775Y-118518566D01*
X172675639Y-118166419D01*
X172750000Y-117792581D01*
X172750000Y-117411419D01*
X172675639Y-117037581D01*
X172529775Y-116685434D01*
X172318013Y-116368509D01*
X172048491Y-116098987D01*
X171731566Y-115887225D01*
X171379419Y-115741361D01*
X171005581Y-115667000D01*
X170624419Y-115667000D01*
X170250581Y-115741361D01*
X169898434Y-115887225D01*
X169581509Y-116098987D01*
X169311987Y-116368509D01*
X169100225Y-116685434D01*
X168954361Y-117037581D01*
X168880000Y-117411419D01*
X148805923Y-117411419D01*
X148783513Y-117183889D01*
X148698599Y-116903966D01*
X148560706Y-116645986D01*
X148375134Y-116419866D01*
X148149014Y-116234294D01*
X147891034Y-116096401D01*
X147611111Y-116011487D01*
X147392950Y-115990000D01*
X147247050Y-115990000D01*
X147028889Y-116011487D01*
X146748966Y-116096401D01*
X146490986Y-116234294D01*
X146264866Y-116419866D01*
X146079294Y-116645986D01*
X145941401Y-116903966D01*
X145856487Y-117183889D01*
X145827815Y-117475000D01*
X99720000Y-117475000D01*
X99720000Y-114793665D01*
X128105000Y-114793665D01*
X128105000Y-115076335D01*
X128160147Y-115353574D01*
X128268320Y-115614727D01*
X128425363Y-115849759D01*
X128625241Y-116049637D01*
X128860273Y-116206680D01*
X129121426Y-116314853D01*
X129398665Y-116370000D01*
X129681335Y-116370000D01*
X129958574Y-116314853D01*
X130219727Y-116206680D01*
X130454759Y-116049637D01*
X130654637Y-115849759D01*
X130811680Y-115614727D01*
X130919853Y-115353574D01*
X130975000Y-115076335D01*
X130975000Y-114793665D01*
X130949738Y-114666665D01*
X149989000Y-114666665D01*
X149989000Y-114949335D01*
X150044147Y-115226574D01*
X150152320Y-115487727D01*
X150309363Y-115722759D01*
X150509241Y-115922637D01*
X150744273Y-116079680D01*
X151005426Y-116187853D01*
X151282665Y-116243000D01*
X151565335Y-116243000D01*
X151842574Y-116187853D01*
X152103727Y-116079680D01*
X152338759Y-115922637D01*
X152460694Y-115800702D01*
X153110903Y-115800702D01*
X153182486Y-116044671D01*
X153437996Y-116165571D01*
X153712184Y-116234300D01*
X153994512Y-116248217D01*
X154274130Y-116206787D01*
X154540292Y-116111603D01*
X154665514Y-116044671D01*
X154737097Y-115800702D01*
X153924000Y-114987605D01*
X153110903Y-115800702D01*
X152460694Y-115800702D01*
X152538637Y-115722759D01*
X152672692Y-115522131D01*
X152687329Y-115549514D01*
X152931298Y-115621097D01*
X153744395Y-114808000D01*
X154103605Y-114808000D01*
X154916702Y-115621097D01*
X155160671Y-115549514D01*
X155281571Y-115294004D01*
X155350300Y-115019816D01*
X155364217Y-114737488D01*
X155322787Y-114457870D01*
X155227603Y-114191708D01*
X155160671Y-114066486D01*
X154916702Y-113994903D01*
X154103605Y-114808000D01*
X153744395Y-114808000D01*
X152931298Y-113994903D01*
X152687329Y-114066486D01*
X152673676Y-114095341D01*
X152538637Y-113893241D01*
X152460694Y-113815298D01*
X153110903Y-113815298D01*
X153924000Y-114628395D01*
X154737097Y-113815298D01*
X154665514Y-113571329D01*
X154410004Y-113450429D01*
X154135816Y-113381700D01*
X153853488Y-113367783D01*
X153573870Y-113409213D01*
X153307708Y-113504397D01*
X153182486Y-113571329D01*
X153110903Y-113815298D01*
X152460694Y-113815298D01*
X152338759Y-113693363D01*
X152103727Y-113536320D01*
X151842574Y-113428147D01*
X151565335Y-113373000D01*
X151282665Y-113373000D01*
X151005426Y-113428147D01*
X150744273Y-113536320D01*
X150509241Y-113693363D01*
X150309363Y-113893241D01*
X150152320Y-114128273D01*
X150044147Y-114389426D01*
X149989000Y-114666665D01*
X130949738Y-114666665D01*
X130919853Y-114516426D01*
X130811680Y-114255273D01*
X130654637Y-114020241D01*
X130454759Y-113820363D01*
X130219727Y-113663320D01*
X129958574Y-113555147D01*
X129681335Y-113500000D01*
X129398665Y-113500000D01*
X129121426Y-113555147D01*
X128860273Y-113663320D01*
X128625241Y-113820363D01*
X128425363Y-114020241D01*
X128268320Y-114255273D01*
X128160147Y-114516426D01*
X128105000Y-114793665D01*
X99720000Y-114793665D01*
X99720000Y-109590000D01*
X100061928Y-109590000D01*
X100061928Y-111390000D01*
X100074188Y-111514482D01*
X100110498Y-111634180D01*
X100169463Y-111744494D01*
X100248815Y-111841185D01*
X100345506Y-111920537D01*
X100455820Y-111979502D01*
X100575518Y-112015812D01*
X100700000Y-112028072D01*
X102500000Y-112028072D01*
X102624482Y-112015812D01*
X102744180Y-111979502D01*
X102854494Y-111920537D01*
X102951185Y-111841185D01*
X103030537Y-111744494D01*
X103089502Y-111634180D01*
X103095056Y-111615873D01*
X103161495Y-111682312D01*
X103412905Y-111850299D01*
X103692257Y-111966011D01*
X103988816Y-112025000D01*
X104291184Y-112025000D01*
X104587743Y-111966011D01*
X104867095Y-111850299D01*
X105118505Y-111682312D01*
X105332312Y-111468505D01*
X105500299Y-111217095D01*
X105616011Y-110937743D01*
X105675000Y-110641184D01*
X105675000Y-110338816D01*
X105616011Y-110042257D01*
X105500299Y-109762905D01*
X105484995Y-109740000D01*
X107548928Y-109740000D01*
X107548928Y-111240000D01*
X107561188Y-111364482D01*
X107597498Y-111484180D01*
X107656463Y-111594494D01*
X107735815Y-111691185D01*
X107832506Y-111770537D01*
X107942820Y-111829502D01*
X108062518Y-111865812D01*
X108187000Y-111878072D01*
X109237000Y-111878072D01*
X109361482Y-111865812D01*
X109481180Y-111829502D01*
X109545902Y-111794907D01*
X109754601Y-111858215D01*
X109982000Y-111880612D01*
X110209400Y-111858215D01*
X110428060Y-111791885D01*
X110617000Y-111690894D01*
X110805941Y-111791885D01*
X111024601Y-111858215D01*
X111252000Y-111880612D01*
X111479400Y-111858215D01*
X111698060Y-111791885D01*
X111899579Y-111684171D01*
X112076212Y-111539212D01*
X112221171Y-111362579D01*
X112328885Y-111161059D01*
X112395215Y-110942399D01*
X112412000Y-110771978D01*
X112412000Y-110208021D01*
X112395215Y-110037600D01*
X112328885Y-109818940D01*
X112221171Y-109617421D01*
X112076212Y-109440788D01*
X111899578Y-109295829D01*
X111698059Y-109188115D01*
X111479399Y-109121785D01*
X111252000Y-109099388D01*
X111024600Y-109121785D01*
X110805940Y-109188115D01*
X110617000Y-109289106D01*
X110428059Y-109188115D01*
X110209399Y-109121785D01*
X109982000Y-109099388D01*
X109754600Y-109121785D01*
X109545902Y-109185093D01*
X109481180Y-109150498D01*
X109361482Y-109114188D01*
X109237000Y-109101928D01*
X108187000Y-109101928D01*
X108062518Y-109114188D01*
X107942820Y-109150498D01*
X107832506Y-109209463D01*
X107735815Y-109288815D01*
X107656463Y-109385506D01*
X107597498Y-109495820D01*
X107561188Y-109615518D01*
X107548928Y-109740000D01*
X105484995Y-109740000D01*
X105332312Y-109511495D01*
X105118505Y-109297688D01*
X104867095Y-109129701D01*
X104587743Y-109013989D01*
X104291184Y-108955000D01*
X103988816Y-108955000D01*
X103692257Y-109013989D01*
X103412905Y-109129701D01*
X103161495Y-109297688D01*
X103095056Y-109364127D01*
X103089502Y-109345820D01*
X103030537Y-109235506D01*
X102951185Y-109138815D01*
X102854494Y-109059463D01*
X102744180Y-109000498D01*
X102624482Y-108964188D01*
X102500000Y-108951928D01*
X100700000Y-108951928D01*
X100575518Y-108964188D01*
X100455820Y-109000498D01*
X100345506Y-109059463D01*
X100248815Y-109138815D01*
X100169463Y-109235506D01*
X100110498Y-109345820D01*
X100074188Y-109465518D01*
X100061928Y-109590000D01*
X99720000Y-109590000D01*
X99720000Y-105410000D01*
X100158057Y-105410000D01*
X100185764Y-105691309D01*
X100267818Y-105961808D01*
X100401068Y-106211101D01*
X100580392Y-106429608D01*
X100798899Y-106608932D01*
X101048192Y-106742182D01*
X101318691Y-106824236D01*
X101529508Y-106845000D01*
X101670492Y-106845000D01*
X101881309Y-106824236D01*
X102151808Y-106742182D01*
X102401101Y-106608932D01*
X102619608Y-106429608D01*
X102798932Y-106211101D01*
X102932182Y-105961808D01*
X103014236Y-105691309D01*
X103041943Y-105410000D01*
X103028023Y-105268665D01*
X110325000Y-105268665D01*
X110325000Y-105551335D01*
X110380147Y-105828574D01*
X110488320Y-106089727D01*
X110645363Y-106324759D01*
X110845241Y-106524637D01*
X111080273Y-106681680D01*
X111341426Y-106789853D01*
X111618665Y-106845000D01*
X111901335Y-106845000D01*
X112178574Y-106789853D01*
X112439727Y-106681680D01*
X112674759Y-106524637D01*
X112874637Y-106324759D01*
X113031680Y-106089727D01*
X113139853Y-105828574D01*
X113159917Y-105727702D01*
X114756903Y-105727702D01*
X114828486Y-105971671D01*
X115083996Y-106092571D01*
X115358184Y-106161300D01*
X115640512Y-106175217D01*
X115920130Y-106133787D01*
X116186292Y-106038603D01*
X116311514Y-105971671D01*
X116383097Y-105727702D01*
X115570000Y-104914605D01*
X114756903Y-105727702D01*
X113159917Y-105727702D01*
X113195000Y-105551335D01*
X113195000Y-105268665D01*
X113139853Y-104991426D01*
X113062845Y-104805512D01*
X114129783Y-104805512D01*
X114171213Y-105085130D01*
X114266397Y-105351292D01*
X114333329Y-105476514D01*
X114577298Y-105548097D01*
X115390395Y-104735000D01*
X115749605Y-104735000D01*
X116562702Y-105548097D01*
X116806671Y-105476514D01*
X116927571Y-105221004D01*
X116996300Y-104946816D01*
X117010217Y-104664488D01*
X116968787Y-104384870D01*
X116873603Y-104118708D01*
X116806671Y-103993486D01*
X116562702Y-103921903D01*
X115749605Y-104735000D01*
X115390395Y-104735000D01*
X114577298Y-103921903D01*
X114333329Y-103993486D01*
X114212429Y-104248996D01*
X114143700Y-104523184D01*
X114129783Y-104805512D01*
X113062845Y-104805512D01*
X113031680Y-104730273D01*
X112874637Y-104495241D01*
X112674759Y-104295363D01*
X112439727Y-104138320D01*
X112178574Y-104030147D01*
X111901335Y-103975000D01*
X111618665Y-103975000D01*
X111341426Y-104030147D01*
X111080273Y-104138320D01*
X110845241Y-104295363D01*
X110645363Y-104495241D01*
X110488320Y-104730273D01*
X110380147Y-104991426D01*
X110325000Y-105268665D01*
X103028023Y-105268665D01*
X103014236Y-105128691D01*
X102932182Y-104858192D01*
X102798932Y-104608899D01*
X102619608Y-104390392D01*
X102401101Y-104211068D01*
X102151808Y-104077818D01*
X101881309Y-103995764D01*
X101670492Y-103975000D01*
X101529508Y-103975000D01*
X101318691Y-103995764D01*
X101048192Y-104077818D01*
X100798899Y-104211068D01*
X100580392Y-104390392D01*
X100401068Y-104608899D01*
X100267818Y-104858192D01*
X100185764Y-105128691D01*
X100158057Y-105410000D01*
X99720000Y-105410000D01*
X99720000Y-102108000D01*
X100158057Y-102108000D01*
X100185764Y-102389309D01*
X100267818Y-102659808D01*
X100401068Y-102909101D01*
X100580392Y-103127608D01*
X100798899Y-103306932D01*
X101048192Y-103440182D01*
X101318691Y-103522236D01*
X101529508Y-103543000D01*
X101670492Y-103543000D01*
X101881309Y-103522236D01*
X102151808Y-103440182D01*
X102401101Y-103306932D01*
X102619608Y-103127608D01*
X102798932Y-102909101D01*
X102932182Y-102659808D01*
X103014236Y-102389309D01*
X103041943Y-102108000D01*
X103028023Y-101966665D01*
X110325000Y-101966665D01*
X110325000Y-102249335D01*
X110380147Y-102526574D01*
X110488320Y-102787727D01*
X110645363Y-103022759D01*
X110845241Y-103222637D01*
X111080273Y-103379680D01*
X111341426Y-103487853D01*
X111618665Y-103543000D01*
X111901335Y-103543000D01*
X112178574Y-103487853D01*
X112439727Y-103379680D01*
X112674759Y-103222637D01*
X112874637Y-103022759D01*
X113031680Y-102787727D01*
X113139853Y-102526574D01*
X113195000Y-102249335D01*
X113195000Y-102093665D01*
X114135000Y-102093665D01*
X114135000Y-102376335D01*
X114190147Y-102653574D01*
X114298320Y-102914727D01*
X114455363Y-103149759D01*
X114655241Y-103349637D01*
X114855869Y-103483692D01*
X114828486Y-103498329D01*
X114756903Y-103742298D01*
X115570000Y-104555395D01*
X116383097Y-103742298D01*
X116311514Y-103498329D01*
X116282659Y-103484676D01*
X116484759Y-103349637D01*
X116684637Y-103149759D01*
X116841680Y-102914727D01*
X116949853Y-102653574D01*
X117005000Y-102376335D01*
X117005000Y-102093665D01*
X116949853Y-101816426D01*
X116841680Y-101555273D01*
X116684637Y-101320241D01*
X116484759Y-101120363D01*
X116249727Y-100963320D01*
X115988574Y-100855147D01*
X115711335Y-100800000D01*
X115428665Y-100800000D01*
X115151426Y-100855147D01*
X114890273Y-100963320D01*
X114655241Y-101120363D01*
X114455363Y-101320241D01*
X114298320Y-101555273D01*
X114190147Y-101816426D01*
X114135000Y-102093665D01*
X113195000Y-102093665D01*
X113195000Y-101966665D01*
X113139853Y-101689426D01*
X113031680Y-101428273D01*
X112874637Y-101193241D01*
X112674759Y-100993363D01*
X112439727Y-100836320D01*
X112178574Y-100728147D01*
X111901335Y-100673000D01*
X111618665Y-100673000D01*
X111341426Y-100728147D01*
X111080273Y-100836320D01*
X110845241Y-100993363D01*
X110645363Y-101193241D01*
X110488320Y-101428273D01*
X110380147Y-101689426D01*
X110325000Y-101966665D01*
X103028023Y-101966665D01*
X103014236Y-101826691D01*
X102932182Y-101556192D01*
X102798932Y-101306899D01*
X102619608Y-101088392D01*
X102401101Y-100909068D01*
X102151808Y-100775818D01*
X101881309Y-100693764D01*
X101670492Y-100673000D01*
X101529508Y-100673000D01*
X101318691Y-100693764D01*
X101048192Y-100775818D01*
X100798899Y-100909068D01*
X100580392Y-101088392D01*
X100401068Y-101306899D01*
X100267818Y-101556192D01*
X100185764Y-101826691D01*
X100158057Y-102108000D01*
X99720000Y-102108000D01*
X99720000Y-99060000D01*
X114128057Y-99060000D01*
X114155764Y-99341309D01*
X114237818Y-99611808D01*
X114371068Y-99861101D01*
X114550392Y-100079608D01*
X114768899Y-100258932D01*
X115018192Y-100392182D01*
X115288691Y-100474236D01*
X115499508Y-100495000D01*
X115640492Y-100495000D01*
X115851309Y-100474236D01*
X116121808Y-100392182D01*
X116371101Y-100258932D01*
X116589608Y-100079608D01*
X116768932Y-99861101D01*
X116902182Y-99611808D01*
X116984236Y-99341309D01*
X117011943Y-99060000D01*
X116984236Y-98778691D01*
X116902182Y-98508192D01*
X116768932Y-98258899D01*
X116589608Y-98040392D01*
X116371101Y-97861068D01*
X116121808Y-97727818D01*
X115851309Y-97645764D01*
X115640492Y-97625000D01*
X115499508Y-97625000D01*
X115288691Y-97645764D01*
X115018192Y-97727818D01*
X114768899Y-97861068D01*
X114550392Y-98040392D01*
X114371068Y-98258899D01*
X114237818Y-98508192D01*
X114155764Y-98778691D01*
X114128057Y-99060000D01*
X99720000Y-99060000D01*
X99720000Y-96382000D01*
X100061928Y-96382000D01*
X100061928Y-98182000D01*
X100074188Y-98306482D01*
X100110498Y-98426180D01*
X100169463Y-98536494D01*
X100248815Y-98633185D01*
X100345506Y-98712537D01*
X100455820Y-98771502D01*
X100575518Y-98807812D01*
X100700000Y-98820072D01*
X102500000Y-98820072D01*
X102624482Y-98807812D01*
X102744180Y-98771502D01*
X102854494Y-98712537D01*
X102951185Y-98633185D01*
X103030537Y-98536494D01*
X103089502Y-98426180D01*
X103095056Y-98407873D01*
X103161495Y-98474312D01*
X103412905Y-98642299D01*
X103692257Y-98758011D01*
X103988816Y-98817000D01*
X104291184Y-98817000D01*
X104587743Y-98758011D01*
X104867095Y-98642299D01*
X105118505Y-98474312D01*
X105332312Y-98260505D01*
X105500299Y-98009095D01*
X105616011Y-97729743D01*
X105675000Y-97433184D01*
X105675000Y-97130816D01*
X105616011Y-96834257D01*
X105500299Y-96554905D01*
X105484995Y-96532000D01*
X107548928Y-96532000D01*
X107548928Y-98032000D01*
X107561188Y-98156482D01*
X107597498Y-98276180D01*
X107656463Y-98386494D01*
X107735815Y-98483185D01*
X107832506Y-98562537D01*
X107942820Y-98621502D01*
X108062518Y-98657812D01*
X108187000Y-98670072D01*
X109237000Y-98670072D01*
X109361482Y-98657812D01*
X109481180Y-98621502D01*
X109545902Y-98586907D01*
X109754601Y-98650215D01*
X109982000Y-98672612D01*
X110209400Y-98650215D01*
X110428060Y-98583885D01*
X110617001Y-98482894D01*
X110805941Y-98583885D01*
X111024601Y-98650215D01*
X111252000Y-98672612D01*
X111479400Y-98650215D01*
X111698060Y-98583885D01*
X111899579Y-98476171D01*
X112076212Y-98331212D01*
X112221171Y-98154579D01*
X112328885Y-97953059D01*
X112395215Y-97734399D01*
X112412000Y-97563978D01*
X112412000Y-97000021D01*
X112395215Y-96829600D01*
X112328885Y-96610940D01*
X112221171Y-96409421D01*
X112076212Y-96232788D01*
X111899578Y-96087829D01*
X111698059Y-95980115D01*
X111479399Y-95913785D01*
X111252000Y-95891388D01*
X111024600Y-95913785D01*
X110805940Y-95980115D01*
X110617000Y-96081106D01*
X110428059Y-95980115D01*
X110209399Y-95913785D01*
X109982000Y-95891388D01*
X109754600Y-95913785D01*
X109545902Y-95977093D01*
X109481180Y-95942498D01*
X109361482Y-95906188D01*
X109237000Y-95893928D01*
X108187000Y-95893928D01*
X108062518Y-95906188D01*
X107942820Y-95942498D01*
X107832506Y-96001463D01*
X107735815Y-96080815D01*
X107656463Y-96177506D01*
X107597498Y-96287820D01*
X107561188Y-96407518D01*
X107548928Y-96532000D01*
X105484995Y-96532000D01*
X105332312Y-96303495D01*
X105118505Y-96089688D01*
X104867095Y-95921701D01*
X104587743Y-95805989D01*
X104291184Y-95747000D01*
X103988816Y-95747000D01*
X103692257Y-95805989D01*
X103412905Y-95921701D01*
X103161495Y-96089688D01*
X103095056Y-96156127D01*
X103089502Y-96137820D01*
X103030537Y-96027506D01*
X102951185Y-95930815D01*
X102854494Y-95851463D01*
X102744180Y-95792498D01*
X102624482Y-95756188D01*
X102500000Y-95743928D01*
X100700000Y-95743928D01*
X100575518Y-95756188D01*
X100455820Y-95792498D01*
X100345506Y-95851463D01*
X100248815Y-95930815D01*
X100169463Y-96027506D01*
X100110498Y-96137820D01*
X100074188Y-96257518D01*
X100061928Y-96382000D01*
X99720000Y-96382000D01*
X99720000Y-87600000D01*
X103471928Y-87600000D01*
X103471928Y-90200000D01*
X103484188Y-90324482D01*
X103520498Y-90444180D01*
X103579463Y-90554494D01*
X103658815Y-90651185D01*
X103755506Y-90730537D01*
X103865820Y-90789502D01*
X103985518Y-90825812D01*
X104110000Y-90838072D01*
X106710000Y-90838072D01*
X106834482Y-90825812D01*
X106954180Y-90789502D01*
X107064494Y-90730537D01*
X107161185Y-90651185D01*
X107240537Y-90554494D01*
X107299502Y-90444180D01*
X107335812Y-90324482D01*
X107348072Y-90200000D01*
X107348072Y-88758665D01*
X114135000Y-88758665D01*
X114135000Y-89041335D01*
X114190147Y-89318574D01*
X114298320Y-89579727D01*
X114455363Y-89814759D01*
X114655241Y-90014637D01*
X114890273Y-90171680D01*
X115151426Y-90279853D01*
X115428665Y-90335000D01*
X115711335Y-90335000D01*
X115988574Y-90279853D01*
X116249727Y-90171680D01*
X116484759Y-90014637D01*
X116684637Y-89814759D01*
X116841680Y-89579727D01*
X116949853Y-89318574D01*
X117005000Y-89041335D01*
X117005000Y-88758665D01*
X116949853Y-88481426D01*
X116841680Y-88220273D01*
X116684637Y-87985241D01*
X116484759Y-87785363D01*
X116249727Y-87628320D01*
X115988574Y-87520147D01*
X115711335Y-87465000D01*
X115428665Y-87465000D01*
X115151426Y-87520147D01*
X114890273Y-87628320D01*
X114655241Y-87785363D01*
X114455363Y-87985241D01*
X114298320Y-88220273D01*
X114190147Y-88481426D01*
X114135000Y-88758665D01*
X107348072Y-88758665D01*
X107348072Y-87600000D01*
X107335812Y-87475518D01*
X107299502Y-87355820D01*
X107240537Y-87245506D01*
X107161185Y-87148815D01*
X107064494Y-87069463D01*
X106954180Y-87010498D01*
X106834482Y-86974188D01*
X106710000Y-86961928D01*
X104110000Y-86961928D01*
X103985518Y-86974188D01*
X103865820Y-87010498D01*
X103755506Y-87069463D01*
X103658815Y-87148815D01*
X103579463Y-87245506D01*
X103520498Y-87355820D01*
X103484188Y-87475518D01*
X103471928Y-87600000D01*
X99720000Y-87600000D01*
X99720000Y-85249224D01*
X104240381Y-85249224D01*
X104372317Y-85544312D01*
X104713045Y-85715159D01*
X105080557Y-85816250D01*
X105460729Y-85843701D01*
X105490358Y-85840000D01*
X123190000Y-85840000D01*
X123190000Y-111518000D01*
X123202201Y-111641882D01*
X123238336Y-111761004D01*
X123297017Y-111870787D01*
X123375987Y-111967013D01*
X124125987Y-112717013D01*
X124222213Y-112795983D01*
X124331996Y-112854664D01*
X124451118Y-112890799D01*
X124575000Y-112903000D01*
X158000000Y-112903000D01*
X158123882Y-112890799D01*
X158243004Y-112854664D01*
X158352787Y-112795983D01*
X158449013Y-112717013D01*
X159199013Y-111967013D01*
X159277983Y-111870787D01*
X159336664Y-111761004D01*
X159372799Y-111641882D01*
X159385000Y-111518000D01*
X159385000Y-108135490D01*
X159452736Y-108180750D01*
X159683959Y-109343188D01*
X160208110Y-110608599D01*
X160894436Y-111635759D01*
X160890000Y-111658061D01*
X160890000Y-111861939D01*
X160929774Y-112061898D01*
X161007795Y-112250256D01*
X161121063Y-112419774D01*
X161265226Y-112563937D01*
X161434744Y-112677205D01*
X161623102Y-112755226D01*
X161823061Y-112795000D01*
X162026939Y-112795000D01*
X162049241Y-112790564D01*
X163076401Y-113476890D01*
X164341812Y-114001041D01*
X165504250Y-114232264D01*
X165566063Y-114324774D01*
X165710226Y-114468937D01*
X165879744Y-114582205D01*
X166068102Y-114660226D01*
X166268061Y-114700000D01*
X166471939Y-114700000D01*
X166671898Y-114660226D01*
X166860256Y-114582205D01*
X167029774Y-114468937D01*
X167173937Y-114324774D01*
X167235750Y-114232264D01*
X168398188Y-114001041D01*
X169663599Y-113476890D01*
X170690759Y-112790564D01*
X170713061Y-112795000D01*
X170916939Y-112795000D01*
X171116898Y-112755226D01*
X171305256Y-112677205D01*
X171474774Y-112563937D01*
X171618937Y-112419774D01*
X171732205Y-112250256D01*
X171810226Y-112061898D01*
X171850000Y-111861939D01*
X171850000Y-111658061D01*
X171845564Y-111635759D01*
X172531890Y-110608599D01*
X173056041Y-109343188D01*
X173287264Y-108180750D01*
X173379774Y-108118937D01*
X173523937Y-107974774D01*
X173637205Y-107805256D01*
X173715226Y-107616898D01*
X173755000Y-107416939D01*
X173755000Y-107213061D01*
X173715226Y-107013102D01*
X173637205Y-106824744D01*
X173523937Y-106655226D01*
X173379774Y-106511063D01*
X173287264Y-106449250D01*
X173056041Y-105286812D01*
X172531890Y-104021401D01*
X171845564Y-102994241D01*
X171850000Y-102971939D01*
X171850000Y-102768061D01*
X171810226Y-102568102D01*
X171732205Y-102379744D01*
X171618937Y-102210226D01*
X171474774Y-102066063D01*
X171305256Y-101952795D01*
X171116898Y-101874774D01*
X170916939Y-101835000D01*
X170713061Y-101835000D01*
X170690759Y-101839436D01*
X169663599Y-101153110D01*
X168398188Y-100628959D01*
X167235750Y-100397736D01*
X167173937Y-100305226D01*
X167029774Y-100161063D01*
X166860256Y-100047795D01*
X166671898Y-99969774D01*
X166471939Y-99930000D01*
X166268061Y-99930000D01*
X166068102Y-99969774D01*
X165879744Y-100047795D01*
X165710226Y-100161063D01*
X165566063Y-100305226D01*
X165504250Y-100397736D01*
X164341812Y-100628959D01*
X163076401Y-101153110D01*
X162049241Y-101839436D01*
X162026939Y-101835000D01*
X161823061Y-101835000D01*
X161623102Y-101874774D01*
X161434744Y-101952795D01*
X161265226Y-102066063D01*
X161121063Y-102210226D01*
X161007795Y-102379744D01*
X160929774Y-102568102D01*
X160890000Y-102768061D01*
X160890000Y-102971939D01*
X160894436Y-102994241D01*
X160208110Y-104021401D01*
X159683959Y-105286812D01*
X159452736Y-106449250D01*
X159385000Y-106494510D01*
X159385000Y-85840000D01*
X159372799Y-85716118D01*
X159336664Y-85596996D01*
X159277983Y-85487213D01*
X159199013Y-85390987D01*
X158449013Y-84640987D01*
X158352787Y-84562017D01*
X158243004Y-84503336D01*
X158123882Y-84467201D01*
X158000000Y-84455000D01*
X148461000Y-84455000D01*
X148461000Y-82408665D01*
X153759000Y-82408665D01*
X153759000Y-82691335D01*
X153814147Y-82968574D01*
X153922320Y-83229727D01*
X154079363Y-83464759D01*
X154279241Y-83664637D01*
X154514273Y-83821680D01*
X154775426Y-83929853D01*
X155052665Y-83985000D01*
X155335335Y-83985000D01*
X155612574Y-83929853D01*
X155873727Y-83821680D01*
X156108759Y-83664637D01*
X156308637Y-83464759D01*
X156465680Y-83229727D01*
X156573853Y-82968574D01*
X156629000Y-82691335D01*
X156629000Y-82408665D01*
X156573853Y-82131426D01*
X156465680Y-81870273D01*
X156308637Y-81635241D01*
X156108759Y-81435363D01*
X155908131Y-81301308D01*
X155935514Y-81286671D01*
X156007097Y-81042702D01*
X155194000Y-80229605D01*
X154380903Y-81042702D01*
X154452486Y-81286671D01*
X154481341Y-81300324D01*
X154279241Y-81435363D01*
X154079363Y-81635241D01*
X153922320Y-81870273D01*
X153814147Y-82131426D01*
X153759000Y-82408665D01*
X148461000Y-82408665D01*
X148461000Y-81624961D01*
X148491205Y-81579756D01*
X148569226Y-81391398D01*
X148609000Y-81191439D01*
X148609000Y-80987561D01*
X148569226Y-80787602D01*
X148491205Y-80599244D01*
X148377937Y-80429726D01*
X148233774Y-80285563D01*
X148064256Y-80172295D01*
X147939242Y-80120512D01*
X153753783Y-80120512D01*
X153795213Y-80400130D01*
X153890397Y-80666292D01*
X153957329Y-80791514D01*
X154201298Y-80863097D01*
X155014395Y-80050000D01*
X155373605Y-80050000D01*
X156186702Y-80863097D01*
X156430671Y-80791514D01*
X156551571Y-80536004D01*
X156620300Y-80261816D01*
X156634217Y-79979488D01*
X156592787Y-79699870D01*
X156497603Y-79433708D01*
X156430671Y-79308486D01*
X156186702Y-79236903D01*
X155373605Y-80050000D01*
X155014395Y-80050000D01*
X154201298Y-79236903D01*
X153957329Y-79308486D01*
X153836429Y-79563996D01*
X153767700Y-79838184D01*
X153753783Y-80120512D01*
X147939242Y-80120512D01*
X147875898Y-80094274D01*
X147675939Y-80054500D01*
X147472061Y-80054500D01*
X147272102Y-80094274D01*
X147083744Y-80172295D01*
X146914226Y-80285563D01*
X146770063Y-80429726D01*
X146656795Y-80599244D01*
X146578774Y-80787602D01*
X146539000Y-80987561D01*
X146539000Y-81191439D01*
X146578774Y-81391398D01*
X146656795Y-81579756D01*
X146770063Y-81749274D01*
X146914226Y-81893437D01*
X146941001Y-81911327D01*
X146941000Y-84455000D01*
X145346798Y-84455000D01*
X144524000Y-83632202D01*
X144524000Y-81791611D01*
X144567937Y-81747674D01*
X144681205Y-81578156D01*
X144759226Y-81389798D01*
X144799000Y-81189839D01*
X144799000Y-80985961D01*
X144759226Y-80786002D01*
X144681205Y-80597644D01*
X144567937Y-80428126D01*
X144423774Y-80283963D01*
X144254256Y-80170695D01*
X144065898Y-80092674D01*
X143865939Y-80052900D01*
X143662061Y-80052900D01*
X143462102Y-80092674D01*
X143273744Y-80170695D01*
X143104226Y-80283963D01*
X142960063Y-80428126D01*
X142846795Y-80597644D01*
X142768774Y-80786002D01*
X142729000Y-80985961D01*
X142729000Y-81189839D01*
X142768774Y-81389798D01*
X142846795Y-81578156D01*
X142960063Y-81747674D01*
X143004001Y-81791612D01*
X143004000Y-83909680D01*
X143000324Y-83947003D01*
X143004000Y-83984325D01*
X143004000Y-83984335D01*
X143014997Y-84095988D01*
X143058454Y-84239249D01*
X143129026Y-84371279D01*
X143168871Y-84419829D01*
X143197734Y-84455000D01*
X127962461Y-84455000D01*
X127995226Y-84375898D01*
X128006535Y-84319043D01*
X128890579Y-83435000D01*
X132176546Y-83435000D01*
X132224744Y-83467205D01*
X132413102Y-83545226D01*
X132613061Y-83585000D01*
X132816939Y-83585000D01*
X133016898Y-83545226D01*
X133205256Y-83467205D01*
X133374774Y-83353937D01*
X133518937Y-83209774D01*
X133632205Y-83040256D01*
X133710226Y-82851898D01*
X133750000Y-82651939D01*
X133750000Y-82486500D01*
X134448057Y-82486500D01*
X134475764Y-82767809D01*
X134557818Y-83038308D01*
X134691068Y-83287601D01*
X134870392Y-83506108D01*
X135088899Y-83685432D01*
X135338192Y-83818682D01*
X135608691Y-83900736D01*
X135819508Y-83921500D01*
X135960492Y-83921500D01*
X136171309Y-83900736D01*
X136441808Y-83818682D01*
X136691101Y-83685432D01*
X136909608Y-83506108D01*
X137088932Y-83287601D01*
X137222182Y-83038308D01*
X137304236Y-82767809D01*
X137331943Y-82486500D01*
X137324277Y-82408665D01*
X138519000Y-82408665D01*
X138519000Y-82691335D01*
X138574147Y-82968574D01*
X138682320Y-83229727D01*
X138839363Y-83464759D01*
X139039241Y-83664637D01*
X139274273Y-83821680D01*
X139535426Y-83929853D01*
X139812665Y-83985000D01*
X140095335Y-83985000D01*
X140372574Y-83929853D01*
X140633727Y-83821680D01*
X140868759Y-83664637D01*
X141068637Y-83464759D01*
X141225680Y-83229727D01*
X141333853Y-82968574D01*
X141389000Y-82691335D01*
X141389000Y-82408665D01*
X141333853Y-82131426D01*
X141225680Y-81870273D01*
X141068637Y-81635241D01*
X140868759Y-81435363D01*
X140668131Y-81301308D01*
X140695514Y-81286671D01*
X140767097Y-81042702D01*
X139954000Y-80229605D01*
X139140903Y-81042702D01*
X139212486Y-81286671D01*
X139241341Y-81300324D01*
X139039241Y-81435363D01*
X138839363Y-81635241D01*
X138682320Y-81870273D01*
X138574147Y-82131426D01*
X138519000Y-82408665D01*
X137324277Y-82408665D01*
X137304236Y-82205191D01*
X137222182Y-81934692D01*
X137088932Y-81685399D01*
X136909608Y-81466892D01*
X136691101Y-81287568D01*
X136441808Y-81154318D01*
X136171309Y-81072264D01*
X135960492Y-81051500D01*
X135819508Y-81051500D01*
X135608691Y-81072264D01*
X135338192Y-81154318D01*
X135088899Y-81287568D01*
X134870392Y-81466892D01*
X134691068Y-81685399D01*
X134557818Y-81934692D01*
X134475764Y-82205191D01*
X134448057Y-82486500D01*
X133750000Y-82486500D01*
X133750000Y-82448061D01*
X133710226Y-82248102D01*
X133632205Y-82059744D01*
X133518937Y-81890226D01*
X133374774Y-81746063D01*
X133205256Y-81632795D01*
X133016898Y-81554774D01*
X132816939Y-81515000D01*
X132613061Y-81515000D01*
X132413102Y-81554774D01*
X132224744Y-81632795D01*
X132176546Y-81665000D01*
X128567465Y-81665000D01*
X128523999Y-81660719D01*
X128480533Y-81665000D01*
X128480523Y-81665000D01*
X128350510Y-81677805D01*
X128183687Y-81728411D01*
X128029941Y-81810589D01*
X128029939Y-81810590D01*
X128029940Y-81810590D01*
X127928953Y-81893468D01*
X127928951Y-81893470D01*
X127895183Y-81921183D01*
X127867470Y-81954951D01*
X127157653Y-82664768D01*
X127165000Y-82627835D01*
X127165000Y-82345165D01*
X127109853Y-82067926D01*
X127001680Y-81806773D01*
X126844637Y-81571741D01*
X126644759Y-81371863D01*
X126409727Y-81214820D01*
X126148574Y-81106647D01*
X125871335Y-81051500D01*
X125588665Y-81051500D01*
X125311426Y-81106647D01*
X125050273Y-81214820D01*
X124815241Y-81371863D01*
X124615363Y-81571741D01*
X124458320Y-81806773D01*
X124350147Y-82067926D01*
X124295000Y-82345165D01*
X124295000Y-82627835D01*
X124350147Y-82905074D01*
X124458320Y-83166227D01*
X124615363Y-83401259D01*
X124815241Y-83601137D01*
X125050273Y-83758180D01*
X125311426Y-83866353D01*
X125588665Y-83921500D01*
X125871335Y-83921500D01*
X125979330Y-83900018D01*
X125965000Y-83972061D01*
X125965000Y-84175939D01*
X126004774Y-84375898D01*
X126037539Y-84455000D01*
X124575000Y-84455000D01*
X124451118Y-84467201D01*
X124331996Y-84503336D01*
X124222213Y-84562017D01*
X124125987Y-84640987D01*
X123375987Y-85390987D01*
X123297017Y-85487213D01*
X123238336Y-85596996D01*
X123202201Y-85716118D01*
X123190000Y-85840000D01*
X105490358Y-85840000D01*
X105838951Y-85796457D01*
X106200690Y-85676333D01*
X106447683Y-85544312D01*
X106579619Y-85249224D01*
X105410000Y-84079605D01*
X104240381Y-85249224D01*
X99720000Y-85249224D01*
X99720000Y-83950729D01*
X103466299Y-83950729D01*
X103513543Y-84328951D01*
X103633667Y-84690690D01*
X103765688Y-84937683D01*
X104060776Y-85069619D01*
X105230395Y-83900000D01*
X105589605Y-83900000D01*
X106759224Y-85069619D01*
X107054312Y-84937683D01*
X107225159Y-84596955D01*
X107326250Y-84229443D01*
X107353701Y-83849271D01*
X107306457Y-83471049D01*
X107186333Y-83109310D01*
X107054312Y-82862317D01*
X106759224Y-82730381D01*
X105589605Y-83900000D01*
X105230395Y-83900000D01*
X104060776Y-82730381D01*
X103765688Y-82862317D01*
X103594841Y-83203045D01*
X103493750Y-83570557D01*
X103466299Y-83950729D01*
X99720000Y-83950729D01*
X99720000Y-82550776D01*
X104240381Y-82550776D01*
X105410000Y-83720395D01*
X106579619Y-82550776D01*
X106447683Y-82255688D01*
X106106955Y-82084841D01*
X105739443Y-81983750D01*
X105359271Y-81956299D01*
X104981049Y-82003543D01*
X104619310Y-82123667D01*
X104372317Y-82255688D01*
X104240381Y-82550776D01*
X99720000Y-82550776D01*
X99720000Y-77485000D01*
X104243928Y-77485000D01*
X104243928Y-79235000D01*
X104273001Y-79530186D01*
X104359104Y-79814028D01*
X104498927Y-80075618D01*
X104687097Y-80304903D01*
X104916382Y-80493073D01*
X105177972Y-80632896D01*
X105461814Y-80718999D01*
X105757000Y-80748072D01*
X107507000Y-80748072D01*
X107802186Y-80718999D01*
X108086028Y-80632896D01*
X108347618Y-80493073D01*
X108576903Y-80304903D01*
X108728229Y-80120512D01*
X138513783Y-80120512D01*
X138555213Y-80400130D01*
X138650397Y-80666292D01*
X138717329Y-80791514D01*
X138961298Y-80863097D01*
X139774395Y-80050000D01*
X140133605Y-80050000D01*
X140946702Y-80863097D01*
X141190671Y-80791514D01*
X141311571Y-80536004D01*
X141380300Y-80261816D01*
X141394217Y-79979488D01*
X141352787Y-79699870D01*
X141257603Y-79433708D01*
X141190671Y-79308486D01*
X140946702Y-79236903D01*
X140133605Y-80050000D01*
X139774395Y-80050000D01*
X138961298Y-79236903D01*
X138717329Y-79308486D01*
X138596429Y-79563996D01*
X138527700Y-79838184D01*
X138513783Y-80120512D01*
X108728229Y-80120512D01*
X108765073Y-80075618D01*
X108904896Y-79814028D01*
X108990999Y-79530186D01*
X109020072Y-79235000D01*
X109020072Y-79057298D01*
X139140903Y-79057298D01*
X139954000Y-79870395D01*
X140767097Y-79057298D01*
X154380903Y-79057298D01*
X155194000Y-79870395D01*
X156007097Y-79057298D01*
X155935514Y-78813329D01*
X155680004Y-78692429D01*
X155405816Y-78623700D01*
X155123488Y-78609783D01*
X154843870Y-78651213D01*
X154577708Y-78746397D01*
X154452486Y-78813329D01*
X154380903Y-79057298D01*
X140767097Y-79057298D01*
X140695514Y-78813329D01*
X140440004Y-78692429D01*
X140165816Y-78623700D01*
X139883488Y-78609783D01*
X139603870Y-78651213D01*
X139337708Y-78746397D01*
X139212486Y-78813329D01*
X139140903Y-79057298D01*
X109020072Y-79057298D01*
X109020072Y-78105000D01*
X156199247Y-78105000D01*
X156242158Y-78540686D01*
X156369243Y-78959629D01*
X156575618Y-79345729D01*
X156853352Y-79684148D01*
X157191771Y-79961882D01*
X157577871Y-80168257D01*
X157996814Y-80295342D01*
X158323322Y-80327500D01*
X161716678Y-80327500D01*
X162043186Y-80295342D01*
X162462129Y-80168257D01*
X162848229Y-79961882D01*
X163186648Y-79684148D01*
X163464382Y-79345729D01*
X163670757Y-78959629D01*
X163797842Y-78540686D01*
X163840753Y-78105000D01*
X163797842Y-77669314D01*
X163670757Y-77250371D01*
X163464382Y-76864271D01*
X163186648Y-76525852D01*
X162848229Y-76248118D01*
X162462129Y-76041743D01*
X162043186Y-75914658D01*
X161716678Y-75882500D01*
X158323322Y-75882500D01*
X157996814Y-75914658D01*
X157577871Y-76041743D01*
X157191771Y-76248118D01*
X156853352Y-76525852D01*
X156575618Y-76864271D01*
X156369243Y-77250371D01*
X156242158Y-77669314D01*
X156199247Y-78105000D01*
X109020072Y-78105000D01*
X109020072Y-77485000D01*
X108990999Y-77189814D01*
X108904896Y-76905972D01*
X108765073Y-76644382D01*
X108576903Y-76415097D01*
X108347618Y-76226927D01*
X108086028Y-76087104D01*
X107957357Y-76048072D01*
X111382000Y-76048072D01*
X111506482Y-76035812D01*
X111551278Y-76022223D01*
X113925000Y-76022223D01*
X113925000Y-76377777D01*
X113994365Y-76726499D01*
X114130429Y-77054988D01*
X114327965Y-77350621D01*
X114579379Y-77602035D01*
X114875012Y-77799571D01*
X115203501Y-77935635D01*
X115552223Y-78005000D01*
X115907777Y-78005000D01*
X116256499Y-77935635D01*
X116584988Y-77799571D01*
X116880621Y-77602035D01*
X117132035Y-77350621D01*
X117329571Y-77054988D01*
X117465635Y-76726499D01*
X117535000Y-76377777D01*
X117535000Y-76022223D01*
X118925000Y-76022223D01*
X118925000Y-76377777D01*
X118994365Y-76726499D01*
X119130429Y-77054988D01*
X119327965Y-77350621D01*
X119579379Y-77602035D01*
X119875012Y-77799571D01*
X120203501Y-77935635D01*
X120552223Y-78005000D01*
X120907777Y-78005000D01*
X121256499Y-77935635D01*
X121584988Y-77799571D01*
X121880621Y-77602035D01*
X122132035Y-77350621D01*
X122329571Y-77054988D01*
X122465635Y-76726499D01*
X122535000Y-76377777D01*
X122535000Y-76022223D01*
X123925000Y-76022223D01*
X123925000Y-76377777D01*
X123994365Y-76726499D01*
X124130429Y-77054988D01*
X124327965Y-77350621D01*
X124579379Y-77602035D01*
X124875012Y-77799571D01*
X125203501Y-77935635D01*
X125552223Y-78005000D01*
X125907777Y-78005000D01*
X126256499Y-77935635D01*
X126584988Y-77799571D01*
X126880621Y-77602035D01*
X127132035Y-77350621D01*
X127329571Y-77054988D01*
X127465635Y-76726499D01*
X127535000Y-76377777D01*
X127535000Y-76022223D01*
X127516987Y-75931665D01*
X130010000Y-75931665D01*
X130010000Y-76214335D01*
X130065147Y-76491574D01*
X130173320Y-76752727D01*
X130330363Y-76987759D01*
X130530241Y-77187637D01*
X130765273Y-77344680D01*
X131026426Y-77452853D01*
X131303665Y-77508000D01*
X131586335Y-77508000D01*
X131863574Y-77452853D01*
X132124727Y-77344680D01*
X132359759Y-77187637D01*
X132481694Y-77065702D01*
X133131903Y-77065702D01*
X133203486Y-77309671D01*
X133458996Y-77430571D01*
X133733184Y-77499300D01*
X134015512Y-77513217D01*
X134295130Y-77471787D01*
X134337591Y-77456602D01*
X139893003Y-77456602D01*
X140009275Y-77738389D01*
X140327860Y-77896257D01*
X140671122Y-77988938D01*
X141025869Y-78012873D01*
X141378470Y-77967139D01*
X141715373Y-77853495D01*
X141930725Y-77738389D01*
X142046997Y-77456602D01*
X144893003Y-77456602D01*
X145009275Y-77738389D01*
X145327860Y-77896257D01*
X145671122Y-77988938D01*
X146025869Y-78012873D01*
X146378470Y-77967139D01*
X146715373Y-77853495D01*
X146930725Y-77738389D01*
X147046997Y-77456602D01*
X145970000Y-76379605D01*
X144893003Y-77456602D01*
X142046997Y-77456602D01*
X140970000Y-76379605D01*
X139893003Y-77456602D01*
X134337591Y-77456602D01*
X134561292Y-77376603D01*
X134686514Y-77309671D01*
X134758097Y-77065702D01*
X133945000Y-76252605D01*
X133131903Y-77065702D01*
X132481694Y-77065702D01*
X132559637Y-76987759D01*
X132693692Y-76787131D01*
X132708329Y-76814514D01*
X132952298Y-76886097D01*
X133765395Y-76073000D01*
X134124605Y-76073000D01*
X134937702Y-76886097D01*
X135181671Y-76814514D01*
X135302571Y-76559004D01*
X135371300Y-76284816D01*
X135372726Y-76255869D01*
X139157127Y-76255869D01*
X139202861Y-76608470D01*
X139316505Y-76945373D01*
X139431611Y-77160725D01*
X139713398Y-77276997D01*
X140790395Y-76200000D01*
X141149605Y-76200000D01*
X142226602Y-77276997D01*
X142508389Y-77160725D01*
X142666257Y-76842140D01*
X142758938Y-76498878D01*
X142775333Y-76255869D01*
X144157127Y-76255869D01*
X144202861Y-76608470D01*
X144316505Y-76945373D01*
X144431611Y-77160725D01*
X144713398Y-77276997D01*
X145790395Y-76200000D01*
X146149605Y-76200000D01*
X147226602Y-77276997D01*
X147508389Y-77160725D01*
X147666257Y-76842140D01*
X147758938Y-76498878D01*
X147782873Y-76144131D01*
X147767061Y-76022223D01*
X149165000Y-76022223D01*
X149165000Y-76377777D01*
X149234365Y-76726499D01*
X149370429Y-77054988D01*
X149567965Y-77350621D01*
X149819379Y-77602035D01*
X150115012Y-77799571D01*
X150443501Y-77935635D01*
X150792223Y-78005000D01*
X151147777Y-78005000D01*
X151496499Y-77935635D01*
X151824988Y-77799571D01*
X152120621Y-77602035D01*
X152372035Y-77350621D01*
X152569571Y-77054988D01*
X152705635Y-76726499D01*
X152775000Y-76377777D01*
X152775000Y-76022223D01*
X152705635Y-75673501D01*
X152569571Y-75345012D01*
X152372035Y-75049379D01*
X152120621Y-74797965D01*
X151824988Y-74600429D01*
X151496499Y-74464365D01*
X151147777Y-74395000D01*
X150792223Y-74395000D01*
X150443501Y-74464365D01*
X150115012Y-74600429D01*
X149819379Y-74797965D01*
X149567965Y-75049379D01*
X149370429Y-75345012D01*
X149234365Y-75673501D01*
X149165000Y-76022223D01*
X147767061Y-76022223D01*
X147737139Y-75791530D01*
X147623495Y-75454627D01*
X147508389Y-75239275D01*
X147226602Y-75123003D01*
X146149605Y-76200000D01*
X145790395Y-76200000D01*
X144713398Y-75123003D01*
X144431611Y-75239275D01*
X144273743Y-75557860D01*
X144181062Y-75901122D01*
X144157127Y-76255869D01*
X142775333Y-76255869D01*
X142782873Y-76144131D01*
X142737139Y-75791530D01*
X142623495Y-75454627D01*
X142508389Y-75239275D01*
X142226602Y-75123003D01*
X141149605Y-76200000D01*
X140790395Y-76200000D01*
X139713398Y-75123003D01*
X139431611Y-75239275D01*
X139273743Y-75557860D01*
X139181062Y-75901122D01*
X139157127Y-76255869D01*
X135372726Y-76255869D01*
X135385217Y-76002488D01*
X135343787Y-75722870D01*
X135248603Y-75456708D01*
X135181671Y-75331486D01*
X134937702Y-75259903D01*
X134124605Y-76073000D01*
X133765395Y-76073000D01*
X132952298Y-75259903D01*
X132708329Y-75331486D01*
X132694676Y-75360341D01*
X132559637Y-75158241D01*
X132481694Y-75080298D01*
X133131903Y-75080298D01*
X133945000Y-75893395D01*
X134758097Y-75080298D01*
X134717930Y-74943398D01*
X139893003Y-74943398D01*
X140970000Y-76020395D01*
X142046997Y-74943398D01*
X144893003Y-74943398D01*
X145970000Y-76020395D01*
X147046997Y-74943398D01*
X146930725Y-74661611D01*
X146612140Y-74503743D01*
X146268878Y-74411062D01*
X145914131Y-74387127D01*
X145561530Y-74432861D01*
X145224627Y-74546505D01*
X145009275Y-74661611D01*
X144893003Y-74943398D01*
X142046997Y-74943398D01*
X141930725Y-74661611D01*
X141612140Y-74503743D01*
X141268878Y-74411062D01*
X140914131Y-74387127D01*
X140561530Y-74432861D01*
X140224627Y-74546505D01*
X140009275Y-74661611D01*
X139893003Y-74943398D01*
X134717930Y-74943398D01*
X134686514Y-74836329D01*
X134431004Y-74715429D01*
X134156816Y-74646700D01*
X133874488Y-74632783D01*
X133594870Y-74674213D01*
X133328708Y-74769397D01*
X133203486Y-74836329D01*
X133131903Y-75080298D01*
X132481694Y-75080298D01*
X132359759Y-74958363D01*
X132124727Y-74801320D01*
X131863574Y-74693147D01*
X131586335Y-74638000D01*
X131303665Y-74638000D01*
X131026426Y-74693147D01*
X130765273Y-74801320D01*
X130530241Y-74958363D01*
X130330363Y-75158241D01*
X130173320Y-75393273D01*
X130065147Y-75654426D01*
X130010000Y-75931665D01*
X127516987Y-75931665D01*
X127465635Y-75673501D01*
X127329571Y-75345012D01*
X127132035Y-75049379D01*
X126880621Y-74797965D01*
X126584988Y-74600429D01*
X126256499Y-74464365D01*
X125907777Y-74395000D01*
X125552223Y-74395000D01*
X125203501Y-74464365D01*
X124875012Y-74600429D01*
X124579379Y-74797965D01*
X124327965Y-75049379D01*
X124130429Y-75345012D01*
X123994365Y-75673501D01*
X123925000Y-76022223D01*
X122535000Y-76022223D01*
X122465635Y-75673501D01*
X122329571Y-75345012D01*
X122132035Y-75049379D01*
X121880621Y-74797965D01*
X121584988Y-74600429D01*
X121256499Y-74464365D01*
X120907777Y-74395000D01*
X120552223Y-74395000D01*
X120203501Y-74464365D01*
X119875012Y-74600429D01*
X119579379Y-74797965D01*
X119327965Y-75049379D01*
X119130429Y-75345012D01*
X118994365Y-75673501D01*
X118925000Y-76022223D01*
X117535000Y-76022223D01*
X117465635Y-75673501D01*
X117329571Y-75345012D01*
X117132035Y-75049379D01*
X116880621Y-74797965D01*
X116584988Y-74600429D01*
X116256499Y-74464365D01*
X115907777Y-74395000D01*
X115552223Y-74395000D01*
X115203501Y-74464365D01*
X114875012Y-74600429D01*
X114579379Y-74797965D01*
X114327965Y-75049379D01*
X114130429Y-75345012D01*
X113994365Y-75673501D01*
X113925000Y-76022223D01*
X111551278Y-76022223D01*
X111626180Y-75999502D01*
X111736494Y-75940537D01*
X111833185Y-75861185D01*
X111912537Y-75764494D01*
X111971502Y-75654180D01*
X112007812Y-75534482D01*
X112020072Y-75410000D01*
X112020072Y-73342500D01*
X156199247Y-73342500D01*
X156242158Y-73778186D01*
X156369243Y-74197129D01*
X156575618Y-74583229D01*
X156853352Y-74921648D01*
X157191771Y-75199382D01*
X157577871Y-75405757D01*
X157996814Y-75532842D01*
X158323322Y-75565000D01*
X161716678Y-75565000D01*
X162043186Y-75532842D01*
X162462129Y-75405757D01*
X162848229Y-75199382D01*
X162935061Y-75128120D01*
X170890668Y-75128120D01*
X170890668Y-76319380D01*
X170914373Y-76560063D01*
X170984578Y-76791497D01*
X171098584Y-77004788D01*
X171252011Y-77191739D01*
X171438962Y-77345166D01*
X171652253Y-77459172D01*
X171883687Y-77529377D01*
X172124370Y-77553082D01*
X173315630Y-77553082D01*
X173556313Y-77529377D01*
X173787747Y-77459172D01*
X174001038Y-77345166D01*
X174187989Y-77191739D01*
X174341416Y-77004788D01*
X174455422Y-76791497D01*
X174525627Y-76560063D01*
X174549332Y-76319380D01*
X174549332Y-75128120D01*
X174525627Y-74887437D01*
X174455422Y-74656003D01*
X174341416Y-74442712D01*
X174187989Y-74255761D01*
X174001038Y-74102334D01*
X173787747Y-73988328D01*
X173556313Y-73918123D01*
X173315630Y-73894418D01*
X172124370Y-73894418D01*
X171883687Y-73918123D01*
X171652253Y-73988328D01*
X171438962Y-74102334D01*
X171252011Y-74255761D01*
X171098584Y-74442712D01*
X170984578Y-74656003D01*
X170914373Y-74887437D01*
X170890668Y-75128120D01*
X162935061Y-75128120D01*
X163186648Y-74921648D01*
X163464382Y-74583229D01*
X163670757Y-74197129D01*
X163797842Y-73778186D01*
X163840753Y-73342500D01*
X163797842Y-72906814D01*
X163670757Y-72487871D01*
X163464382Y-72101771D01*
X163186648Y-71763352D01*
X162848229Y-71485618D01*
X162462129Y-71279243D01*
X162043186Y-71152158D01*
X161716678Y-71120000D01*
X158323322Y-71120000D01*
X157996814Y-71152158D01*
X157577871Y-71279243D01*
X157191771Y-71485618D01*
X156853352Y-71763352D01*
X156575618Y-72101771D01*
X156369243Y-72487871D01*
X156242158Y-72906814D01*
X156199247Y-73342500D01*
X112020072Y-73342500D01*
X112020072Y-71910000D01*
X112007812Y-71785518D01*
X111971502Y-71665820D01*
X111912537Y-71555506D01*
X111833185Y-71458815D01*
X111736494Y-71379463D01*
X111626180Y-71320498D01*
X111506482Y-71284188D01*
X111382000Y-71271928D01*
X107882000Y-71271928D01*
X107757518Y-71284188D01*
X107637820Y-71320498D01*
X107527506Y-71379463D01*
X107430815Y-71458815D01*
X107351463Y-71555506D01*
X107292498Y-71665820D01*
X107256188Y-71785518D01*
X107243928Y-71910000D01*
X107243928Y-75410000D01*
X107256188Y-75534482D01*
X107292498Y-75654180D01*
X107351463Y-75764494D01*
X107430815Y-75861185D01*
X107527506Y-75940537D01*
X107604131Y-75981494D01*
X107507000Y-75971928D01*
X105757000Y-75971928D01*
X105461814Y-76001001D01*
X105177972Y-76087104D01*
X104916382Y-76226927D01*
X104687097Y-76415097D01*
X104498927Y-76644382D01*
X104359104Y-76905972D01*
X104273001Y-77189814D01*
X104243928Y-77485000D01*
X99720000Y-77485000D01*
X99720000Y-75410000D01*
X101493928Y-75410000D01*
X101506188Y-75534482D01*
X101542498Y-75654180D01*
X101601463Y-75764494D01*
X101680815Y-75861185D01*
X101777506Y-75940537D01*
X101887820Y-75999502D01*
X102007518Y-76035812D01*
X102132000Y-76048072D01*
X103346250Y-76045000D01*
X103505000Y-75886250D01*
X103505000Y-73787000D01*
X103759000Y-73787000D01*
X103759000Y-75886250D01*
X103917750Y-76045000D01*
X105132000Y-76048072D01*
X105256482Y-76035812D01*
X105376180Y-75999502D01*
X105486494Y-75940537D01*
X105583185Y-75861185D01*
X105662537Y-75764494D01*
X105721502Y-75654180D01*
X105757812Y-75534482D01*
X105770072Y-75410000D01*
X105767000Y-73945750D01*
X105608250Y-73787000D01*
X103759000Y-73787000D01*
X103505000Y-73787000D01*
X101655750Y-73787000D01*
X101497000Y-73945750D01*
X101493928Y-75410000D01*
X99720000Y-75410000D01*
X99720000Y-71910000D01*
X101493928Y-71910000D01*
X101497000Y-73374250D01*
X101655750Y-73533000D01*
X103505000Y-73533000D01*
X103505000Y-71433750D01*
X103759000Y-71433750D01*
X103759000Y-73533000D01*
X105608250Y-73533000D01*
X105767000Y-73374250D01*
X105770072Y-71910000D01*
X105757812Y-71785518D01*
X105721502Y-71665820D01*
X105662537Y-71555506D01*
X105583185Y-71458815D01*
X105486494Y-71379463D01*
X105376180Y-71320498D01*
X105256482Y-71284188D01*
X105132000Y-71271928D01*
X103917750Y-71275000D01*
X103759000Y-71433750D01*
X103505000Y-71433750D01*
X103346250Y-71275000D01*
X102132000Y-71271928D01*
X102007518Y-71284188D01*
X101887820Y-71320498D01*
X101777506Y-71379463D01*
X101680815Y-71458815D01*
X101601463Y-71555506D01*
X101542498Y-71665820D01*
X101506188Y-71785518D01*
X101493928Y-71910000D01*
X99720000Y-71910000D01*
X99720000Y-68580000D01*
X156199247Y-68580000D01*
X156242158Y-69015686D01*
X156369243Y-69434629D01*
X156575618Y-69820729D01*
X156853352Y-70159148D01*
X157191771Y-70436882D01*
X157577871Y-70643257D01*
X157996814Y-70770342D01*
X158323322Y-70802500D01*
X161716678Y-70802500D01*
X162043186Y-70770342D01*
X162462129Y-70643257D01*
X162848229Y-70436882D01*
X162935061Y-70365620D01*
X170890668Y-70365620D01*
X170890668Y-71556880D01*
X170914373Y-71797563D01*
X170984578Y-72028997D01*
X171098584Y-72242288D01*
X171252011Y-72429239D01*
X171438962Y-72582666D01*
X171652253Y-72696672D01*
X171883687Y-72766877D01*
X172124370Y-72790582D01*
X173315630Y-72790582D01*
X173556313Y-72766877D01*
X173787747Y-72696672D01*
X174001038Y-72582666D01*
X174187989Y-72429239D01*
X174341416Y-72242288D01*
X174455422Y-72028997D01*
X174525627Y-71797563D01*
X174549332Y-71556880D01*
X174549332Y-70365620D01*
X174525627Y-70124937D01*
X174455422Y-69893503D01*
X174341416Y-69680212D01*
X174187989Y-69493261D01*
X174001038Y-69339834D01*
X173787747Y-69225828D01*
X173556313Y-69155623D01*
X173315630Y-69131918D01*
X172124370Y-69131918D01*
X171883687Y-69155623D01*
X171652253Y-69225828D01*
X171438962Y-69339834D01*
X171252011Y-69493261D01*
X171098584Y-69680212D01*
X170984578Y-69893503D01*
X170914373Y-70124937D01*
X170890668Y-70365620D01*
X162935061Y-70365620D01*
X163186648Y-70159148D01*
X163464382Y-69820729D01*
X163670757Y-69434629D01*
X163797842Y-69015686D01*
X163840753Y-68580000D01*
X163797842Y-68144314D01*
X163670757Y-67725371D01*
X163464382Y-67339271D01*
X163186648Y-67000852D01*
X162848229Y-66723118D01*
X162462129Y-66516743D01*
X162043186Y-66389658D01*
X161716678Y-66357500D01*
X158323322Y-66357500D01*
X157996814Y-66389658D01*
X157577871Y-66516743D01*
X157191771Y-66723118D01*
X156853352Y-67000852D01*
X156575618Y-67339271D01*
X156369243Y-67725371D01*
X156242158Y-68144314D01*
X156199247Y-68580000D01*
X99720000Y-68580000D01*
X99720000Y-63128249D01*
X100308800Y-63128249D01*
X100308800Y-63617751D01*
X100404297Y-64097848D01*
X100591621Y-64550089D01*
X100863574Y-64957095D01*
X101209705Y-65303226D01*
X101616711Y-65575179D01*
X102068952Y-65762503D01*
X102549049Y-65858000D01*
X103038551Y-65858000D01*
X103518648Y-65762503D01*
X103970889Y-65575179D01*
X104377895Y-65303226D01*
X104724026Y-64957095D01*
X104995979Y-64550089D01*
X105183303Y-64097848D01*
X105278800Y-63617751D01*
X105278800Y-63309419D01*
X155545000Y-63309419D01*
X155545000Y-63690581D01*
X155619361Y-64064419D01*
X155765225Y-64416566D01*
X155976987Y-64733491D01*
X156246509Y-65003013D01*
X156563434Y-65214775D01*
X156915581Y-65360639D01*
X157289419Y-65435000D01*
X157670581Y-65435000D01*
X158044419Y-65360639D01*
X158396566Y-65214775D01*
X158713491Y-65003013D01*
X158750000Y-64966504D01*
X158786509Y-65003013D01*
X159103434Y-65214775D01*
X159455581Y-65360639D01*
X159829419Y-65435000D01*
X160210581Y-65435000D01*
X160584419Y-65360639D01*
X160936566Y-65214775D01*
X161253491Y-65003013D01*
X161523013Y-64733491D01*
X161734775Y-64416566D01*
X161880639Y-64064419D01*
X161955000Y-63690581D01*
X161955000Y-63309419D01*
X161918964Y-63128249D01*
X169015800Y-63128249D01*
X169015800Y-63617751D01*
X169111297Y-64097848D01*
X169298621Y-64550089D01*
X169570574Y-64957095D01*
X169916705Y-65303226D01*
X170323711Y-65575179D01*
X170775952Y-65762503D01*
X171256049Y-65858000D01*
X171745551Y-65858000D01*
X172225648Y-65762503D01*
X172677889Y-65575179D01*
X173084895Y-65303226D01*
X173431026Y-64957095D01*
X173702979Y-64550089D01*
X173890303Y-64097848D01*
X173985800Y-63617751D01*
X173985800Y-63128249D01*
X173890303Y-62648152D01*
X173702979Y-62195911D01*
X173431026Y-61788905D01*
X173084895Y-61442774D01*
X172677889Y-61170821D01*
X172225648Y-60983497D01*
X171745551Y-60888000D01*
X171256049Y-60888000D01*
X170775952Y-60983497D01*
X170323711Y-61170821D01*
X169916705Y-61442774D01*
X169570574Y-61788905D01*
X169298621Y-62195911D01*
X169111297Y-62648152D01*
X169015800Y-63128249D01*
X161918964Y-63128249D01*
X161880639Y-62935581D01*
X161734775Y-62583434D01*
X161523013Y-62266509D01*
X161253491Y-61996987D01*
X160936566Y-61785225D01*
X160584419Y-61639361D01*
X160210581Y-61565000D01*
X159829419Y-61565000D01*
X159455581Y-61639361D01*
X159103434Y-61785225D01*
X158786509Y-61996987D01*
X158750000Y-62033496D01*
X158713491Y-61996987D01*
X158396566Y-61785225D01*
X158044419Y-61639361D01*
X157670581Y-61565000D01*
X157289419Y-61565000D01*
X156915581Y-61639361D01*
X156563434Y-61785225D01*
X156246509Y-61996987D01*
X155976987Y-62266509D01*
X155765225Y-62583434D01*
X155619361Y-62935581D01*
X155545000Y-63309419D01*
X105278800Y-63309419D01*
X105278800Y-63128249D01*
X105183303Y-62648152D01*
X104995979Y-62195911D01*
X104724026Y-61788905D01*
X104377895Y-61442774D01*
X103970889Y-61170821D01*
X103518648Y-60983497D01*
X103038551Y-60888000D01*
X102549049Y-60888000D01*
X102068952Y-60983497D01*
X101616711Y-61170821D01*
X101209705Y-61442774D01*
X100863574Y-61788905D01*
X100591621Y-62195911D01*
X100404297Y-62648152D01*
X100308800Y-63128249D01*
X99720000Y-63128249D01*
X99720000Y-60724515D01*
X99794012Y-60630045D01*
X100000045Y-60424012D01*
X100094515Y-60350000D01*
X174225485Y-60350000D01*
X174319955Y-60424012D01*
X174319955Y-60424012D01*
G37*
X174319955Y-60424012D02*
X174525988Y-60630045D01*
X174600000Y-60724515D01*
X174600001Y-134855484D01*
X174525988Y-134949955D01*
X174319955Y-135155988D01*
X174225485Y-135230000D01*
X100094515Y-135230000D01*
X100000045Y-135155988D01*
X99794012Y-134949955D01*
X99720000Y-134855485D01*
X99720000Y-131835249D01*
X100308800Y-131835249D01*
X100308800Y-132324751D01*
X100404297Y-132804848D01*
X100591621Y-133257089D01*
X100863574Y-133664095D01*
X101209705Y-134010226D01*
X101616711Y-134282179D01*
X102068952Y-134469503D01*
X102549049Y-134565000D01*
X103038551Y-134565000D01*
X103518648Y-134469503D01*
X103970889Y-134282179D01*
X104297081Y-134064224D01*
X161390381Y-134064224D01*
X161522317Y-134359312D01*
X161863045Y-134530159D01*
X162230557Y-134631250D01*
X162610729Y-134658701D01*
X162988951Y-134611457D01*
X163350690Y-134491333D01*
X163597683Y-134359312D01*
X163729619Y-134064224D01*
X163930381Y-134064224D01*
X164062317Y-134359312D01*
X164403045Y-134530159D01*
X164770557Y-134631250D01*
X165150729Y-134658701D01*
X165528951Y-134611457D01*
X165890690Y-134491333D01*
X166137683Y-134359312D01*
X166269619Y-134064224D01*
X165100000Y-132894605D01*
X163930381Y-134064224D01*
X163729619Y-134064224D01*
X162560000Y-132894605D01*
X161390381Y-134064224D01*
X104297081Y-134064224D01*
X104377895Y-134010226D01*
X104724026Y-133664095D01*
X104995979Y-133257089D01*
X105183303Y-132804848D01*
X105278800Y-132324751D01*
X105278800Y-131835249D01*
X105183303Y-131355152D01*
X104995979Y-130902911D01*
X104724026Y-130495905D01*
X104489714Y-130261593D01*
X120397000Y-130261593D01*
X120397000Y-131612408D01*
X120419210Y-131837913D01*
X120506983Y-132127261D01*
X120649520Y-132393927D01*
X120841340Y-132627661D01*
X121075074Y-132819481D01*
X121341740Y-132962017D01*
X121631088Y-133049790D01*
X121932000Y-133079427D01*
X122232913Y-133049790D01*
X122522261Y-132962017D01*
X122788927Y-132819481D01*
X123022661Y-132627661D01*
X123214481Y-132393927D01*
X123262854Y-132303427D01*
X123342552Y-132368833D01*
X123557100Y-132483511D01*
X123789899Y-132554130D01*
X124032000Y-132577975D01*
X124274102Y-132554130D01*
X124506901Y-132483511D01*
X124721449Y-132368833D01*
X124909502Y-132214502D01*
X125032001Y-132065237D01*
X125154499Y-132214502D01*
X125342552Y-132368833D01*
X125557100Y-132483511D01*
X125789899Y-132554130D01*
X126032000Y-132577975D01*
X126274102Y-132554130D01*
X126506901Y-132483511D01*
X126721449Y-132368833D01*
X126909502Y-132214502D01*
X127032001Y-132065237D01*
X127154499Y-132214502D01*
X127342552Y-132368833D01*
X127557100Y-132483511D01*
X127789899Y-132554130D01*
X128032000Y-132577975D01*
X128274102Y-132554130D01*
X128506901Y-132483511D01*
X128721449Y-132368833D01*
X128909502Y-132214502D01*
X129032001Y-132065237D01*
X129154499Y-132214502D01*
X129342552Y-132368833D01*
X129557100Y-132483511D01*
X129789899Y-132554130D01*
X130032000Y-132577975D01*
X130274102Y-132554130D01*
X130506901Y-132483511D01*
X130721449Y-132368833D01*
X130909502Y-132214502D01*
X131032001Y-132065237D01*
X131154499Y-132214502D01*
X131342552Y-132368833D01*
X131557100Y-132483511D01*
X131789899Y-132554130D01*
X132032000Y-132577975D01*
X132274102Y-132554130D01*
X132506901Y-132483511D01*
X132721449Y-132368833D01*
X132909502Y-132214502D01*
X133032001Y-132065237D01*
X133154499Y-132214502D01*
X133342552Y-132368833D01*
X133557100Y-132483511D01*
X133789899Y-132554130D01*
X134032000Y-132577975D01*
X134274102Y-132554130D01*
X134506901Y-132483511D01*
X134721449Y-132368833D01*
X134801146Y-132303427D01*
X134849520Y-132393927D01*
X135041340Y-132627661D01*
X135275074Y-132819481D01*
X135541740Y-132962017D01*
X135831088Y-133049790D01*
X136132000Y-133079427D01*
X136432913Y-133049790D01*
X136722261Y-132962017D01*
X136988927Y-132819481D01*
X137222661Y-132627661D01*
X137414481Y-132393927D01*
X137557017Y-132127261D01*
X137598500Y-131990510D01*
X137639983Y-132127261D01*
X137782520Y-132393927D01*
X137974340Y-132627661D01*
X138208074Y-132819481D01*
X138474740Y-132962017D01*
X138764088Y-133049790D01*
X139065000Y-133079427D01*
X139365913Y-133049790D01*
X139655261Y-132962017D01*
X139921927Y-132819481D01*
X140155661Y-132627661D01*
X140347481Y-132393927D01*
X140395854Y-132303427D01*
X140475552Y-132368833D01*
X140690100Y-132483511D01*
X140922899Y-132554130D01*
X141165000Y-132577975D01*
X141407102Y-132554130D01*
X141639901Y-132483511D01*
X141854449Y-132368833D01*
X142042502Y-132214502D01*
X142165001Y-132065237D01*
X142287499Y-132214502D01*
X142475552Y-132368833D01*
X142690100Y-132483511D01*
X142922899Y-132554130D01*
X143165000Y-132577975D01*
X143407102Y-132554130D01*
X143639901Y-132483511D01*
X143854449Y-132368833D01*
X144042502Y-132214502D01*
X144165001Y-132065237D01*
X144287499Y-132214502D01*
X144475552Y-132368833D01*
X144690100Y-132483511D01*
X144922899Y-132554130D01*
X145165000Y-132577975D01*
X145407102Y-132554130D01*
X145639901Y-132483511D01*
X145854449Y-132368833D01*
X146042502Y-132214502D01*
X146165001Y-132065237D01*
X146287499Y-132214502D01*
X146475552Y-132368833D01*
X146690100Y-132483511D01*
X146922899Y-132554130D01*
X147165000Y-132577975D01*
X147407102Y-132554130D01*
X147639901Y-132483511D01*
X147854449Y-132368833D01*
X148042502Y-132214502D01*
X148165001Y-132065237D01*
X148287499Y-132214502D01*
X148475552Y-132368833D01*
X148690100Y-132483511D01*
X148922899Y-132554130D01*
X149165000Y-132577975D01*
X149407102Y-132554130D01*
X149639901Y-132483511D01*
X149854449Y-132368833D01*
X150042502Y-132214502D01*
X150165001Y-132065237D01*
X150287499Y-132214502D01*
X150475552Y-132368833D01*
X150690100Y-132483511D01*
X150922899Y-132554130D01*
X151165000Y-132577975D01*
X151407102Y-132554130D01*
X151639901Y-132483511D01*
X151854449Y-132368833D01*
X151934146Y-132303427D01*
X151982520Y-132393927D01*
X152174340Y-132627661D01*
X152408074Y-132819481D01*
X152674740Y-132962017D01*
X152964088Y-133049790D01*
X153265000Y-133079427D01*
X153565913Y-133049790D01*
X153855261Y-132962017D01*
X154121927Y-132819481D01*
X154187424Y-132765729D01*
X160616299Y-132765729D01*
X160663543Y-133143951D01*
X160783667Y-133505690D01*
X160915688Y-133752683D01*
X161210776Y-133884619D01*
X162380395Y-132715000D01*
X162739605Y-132715000D01*
X163220938Y-133196333D01*
X163323667Y-133505690D01*
X163455688Y-133752683D01*
X163750776Y-133884619D01*
X163830000Y-133805395D01*
X163909224Y-133884619D01*
X164204312Y-133752683D01*
X164375159Y-133411955D01*
X164432727Y-133202668D01*
X164920395Y-132715000D01*
X165279605Y-132715000D01*
X166449224Y-133884619D01*
X166744312Y-133752683D01*
X166915159Y-133411955D01*
X167016250Y-133044443D01*
X167043701Y-132664271D01*
X166996457Y-132286049D01*
X166876333Y-131924310D01*
X166828729Y-131835249D01*
X169015800Y-131835249D01*
X169015800Y-132324751D01*
X169111297Y-132804848D01*
X169298621Y-133257089D01*
X169570574Y-133664095D01*
X169916705Y-134010226D01*
X170323711Y-134282179D01*
X170775952Y-134469503D01*
X171256049Y-134565000D01*
X171745551Y-134565000D01*
X172225648Y-134469503D01*
X172677889Y-134282179D01*
X173084895Y-134010226D01*
X173431026Y-133664095D01*
X173702979Y-133257089D01*
X173890303Y-132804848D01*
X173985800Y-132324751D01*
X173985800Y-131835249D01*
X173890303Y-131355152D01*
X173702979Y-130902911D01*
X173431026Y-130495905D01*
X173084895Y-130149774D01*
X172677889Y-129877821D01*
X172225648Y-129690497D01*
X171745551Y-129595000D01*
X171256049Y-129595000D01*
X170775952Y-129690497D01*
X170323711Y-129877821D01*
X169916705Y-130149774D01*
X169570574Y-130495905D01*
X169298621Y-130902911D01*
X169111297Y-131355152D01*
X169015800Y-131835249D01*
X166828729Y-131835249D01*
X166744312Y-131677317D01*
X166449224Y-131545381D01*
X165279605Y-132715000D01*
X164920395Y-132715000D01*
X164439062Y-132233667D01*
X164336333Y-131924310D01*
X164204312Y-131677317D01*
X163909224Y-131545381D01*
X163830000Y-131624605D01*
X163750776Y-131545381D01*
X163455688Y-131677317D01*
X163284841Y-132018045D01*
X163227273Y-132227332D01*
X162739605Y-132715000D01*
X162380395Y-132715000D01*
X161210776Y-131545381D01*
X160915688Y-131677317D01*
X160744841Y-132018045D01*
X160643750Y-132385557D01*
X160616299Y-132765729D01*
X154187424Y-132765729D01*
X154355661Y-132627661D01*
X154547481Y-132393927D01*
X154690017Y-132127261D01*
X154777790Y-131837913D01*
X154800000Y-131612408D01*
X154800000Y-131365776D01*
X161390381Y-131365776D01*
X162560000Y-132535395D01*
X163729619Y-131365776D01*
X163930381Y-131365776D01*
X165100000Y-132535395D01*
X166269619Y-131365776D01*
X166137683Y-131070688D01*
X165796955Y-130899841D01*
X165429443Y-130798750D01*
X165049271Y-130771299D01*
X164671049Y-130818543D01*
X164309310Y-130938667D01*
X164062317Y-131070688D01*
X163930381Y-131365776D01*
X163729619Y-131365776D01*
X163597683Y-131070688D01*
X163256955Y-130899841D01*
X162889443Y-130798750D01*
X162509271Y-130771299D01*
X162131049Y-130818543D01*
X161769310Y-130938667D01*
X161522317Y-131070688D01*
X161390381Y-131365776D01*
X154800000Y-131365776D01*
X154800000Y-130261592D01*
X154777790Y-130036087D01*
X154690017Y-129746739D01*
X154547481Y-129480073D01*
X154355661Y-129246339D01*
X154121926Y-129054519D01*
X153855260Y-128911983D01*
X153565912Y-128824210D01*
X153265000Y-128794573D01*
X152964087Y-128824210D01*
X152674739Y-128911983D01*
X152408073Y-129054519D01*
X152174339Y-129246339D01*
X151982519Y-129480074D01*
X151934146Y-129570573D01*
X151854448Y-129505167D01*
X151639900Y-129390489D01*
X151407101Y-129319870D01*
X151165000Y-129296025D01*
X150922898Y-129319870D01*
X150690099Y-129390489D01*
X150475551Y-129505167D01*
X150287498Y-129659498D01*
X150165000Y-129808763D01*
X150042502Y-129659498D01*
X149854448Y-129505167D01*
X149639900Y-129390489D01*
X149407101Y-129319870D01*
X149165000Y-129296025D01*
X148922898Y-129319870D01*
X148690099Y-129390489D01*
X148475551Y-129505167D01*
X148287498Y-129659498D01*
X148165000Y-129808763D01*
X148042502Y-129659498D01*
X147854448Y-129505167D01*
X147639900Y-129390489D01*
X147407101Y-129319870D01*
X147165000Y-129296025D01*
X146922898Y-129319870D01*
X146690099Y-129390489D01*
X146475551Y-129505167D01*
X146287498Y-129659498D01*
X146165000Y-129808763D01*
X146042502Y-129659498D01*
X145854448Y-129505167D01*
X145639900Y-129390489D01*
X145407101Y-129319870D01*
X145165000Y-129296025D01*
X144922898Y-129319870D01*
X144690099Y-129390489D01*
X144475551Y-129505167D01*
X144287498Y-129659498D01*
X144165000Y-129808763D01*
X144042502Y-129659498D01*
X143854448Y-129505167D01*
X143639900Y-129390489D01*
X143407101Y-129319870D01*
X143165000Y-129296025D01*
X142922898Y-129319870D01*
X142690099Y-129390489D01*
X142475551Y-129505167D01*
X142287498Y-129659498D01*
X142165000Y-129808763D01*
X142042502Y-129659498D01*
X141854448Y-129505167D01*
X141639900Y-129390489D01*
X141407101Y-129319870D01*
X141165000Y-129296025D01*
X140922898Y-129319870D01*
X140690099Y-129390489D01*
X140475551Y-129505167D01*
X140395854Y-129570573D01*
X140347481Y-129480073D01*
X140155661Y-129246339D01*
X139921926Y-129054519D01*
X139655260Y-128911983D01*
X139365912Y-128824210D01*
X139065000Y-128794573D01*
X138764087Y-128824210D01*
X138474739Y-128911983D01*
X138208073Y-129054519D01*
X137974339Y-129246339D01*
X137782519Y-129480074D01*
X137639983Y-129746740D01*
X137598500Y-129883490D01*
X137557017Y-129746739D01*
X137414481Y-129480073D01*
X137222661Y-129246339D01*
X136988926Y-129054519D01*
X136722260Y-128911983D01*
X136432912Y-128824210D01*
X136132000Y-128794573D01*
X135831087Y-128824210D01*
X135541739Y-128911983D01*
X135275073Y-129054519D01*
X135041339Y-129246339D01*
X134849519Y-129480074D01*
X134801146Y-129570573D01*
X134721448Y-129505167D01*
X134506900Y-129390489D01*
X134274101Y-129319870D01*
X134032000Y-129296025D01*
X133789898Y-129319870D01*
X133557099Y-129390489D01*
X133342551Y-129505167D01*
X133154498Y-129659498D01*
X133032000Y-129808763D01*
X132909502Y-129659498D01*
X132721448Y-129505167D01*
X132506900Y-129390489D01*
X132274101Y-129319870D01*
X132032000Y-129296025D01*
X131789898Y-129319870D01*
X131557099Y-129390489D01*
X131342551Y-129505167D01*
X131154498Y-129659498D01*
X131032000Y-129808763D01*
X130909502Y-129659498D01*
X130721448Y-129505167D01*
X130506900Y-129390489D01*
X130274101Y-129319870D01*
X130032000Y-129296025D01*
X129789898Y-129319870D01*
X129557099Y-129390489D01*
X129342551Y-129505167D01*
X129154498Y-129659498D01*
X129032000Y-129808763D01*
X128909502Y-129659498D01*
X128721448Y-129505167D01*
X128506900Y-129390489D01*
X128274101Y-129319870D01*
X128032000Y-129296025D01*
X127789898Y-129319870D01*
X127557099Y-129390489D01*
X127342551Y-129505167D01*
X127154498Y-129659498D01*
X127032000Y-129808763D01*
X126909502Y-129659498D01*
X126721448Y-129505167D01*
X126506900Y-129390489D01*
X126274101Y-129319870D01*
X126032000Y-129296025D01*
X125789898Y-129319870D01*
X125557099Y-129390489D01*
X125342551Y-129505167D01*
X125154498Y-129659498D01*
X125032000Y-129808763D01*
X124909502Y-129659498D01*
X124721448Y-129505167D01*
X124506900Y-129390489D01*
X124274101Y-129319870D01*
X124032000Y-129296025D01*
X123789898Y-129319870D01*
X123557099Y-129390489D01*
X123342551Y-129505167D01*
X123262854Y-129570573D01*
X123214481Y-129480073D01*
X123022661Y-129246339D01*
X122788926Y-129054519D01*
X122522260Y-128911983D01*
X122232912Y-128824210D01*
X121932000Y-128794573D01*
X121631087Y-128824210D01*
X121341739Y-128911983D01*
X121075073Y-129054519D01*
X120841339Y-129246339D01*
X120649519Y-129480074D01*
X120506983Y-129746740D01*
X120419210Y-130036088D01*
X120397000Y-130261593D01*
X104489714Y-130261593D01*
X104377895Y-130149774D01*
X103970889Y-129877821D01*
X103518648Y-129690497D01*
X103038551Y-129595000D01*
X102549049Y-129595000D01*
X102068952Y-129690497D01*
X101616711Y-129877821D01*
X101209705Y-130149774D01*
X100863574Y-130495905D01*
X100591621Y-130902911D01*
X100404297Y-131355152D01*
X100308800Y-131835249D01*
X99720000Y-131835249D01*
X99720000Y-125095000D01*
X128098057Y-125095000D01*
X128125764Y-125376309D01*
X128207818Y-125646808D01*
X128341068Y-125896101D01*
X128520392Y-126114608D01*
X128738899Y-126293932D01*
X128988192Y-126427182D01*
X129258691Y-126509236D01*
X129469508Y-126530000D01*
X129610492Y-126530000D01*
X129821309Y-126509236D01*
X130091808Y-126427182D01*
X130341101Y-126293932D01*
X130559608Y-126114608D01*
X130738932Y-125896101D01*
X130872182Y-125646808D01*
X130954236Y-125376309D01*
X130981943Y-125095000D01*
X130954236Y-124813691D01*
X130872182Y-124543192D01*
X130738932Y-124293899D01*
X130559608Y-124075392D01*
X130341101Y-123896068D01*
X130208143Y-123825000D01*
X135032815Y-123825000D01*
X135061487Y-124116111D01*
X135146401Y-124396034D01*
X135284294Y-124654014D01*
X135469866Y-124880134D01*
X135499687Y-124904607D01*
X135430820Y-124925498D01*
X135320506Y-124984463D01*
X135223815Y-125063815D01*
X135144463Y-125160506D01*
X135085498Y-125270820D01*
X135049188Y-125390518D01*
X135036928Y-125515000D01*
X135036928Y-127215000D01*
X135049188Y-127339482D01*
X135085498Y-127459180D01*
X135144463Y-127569494D01*
X135223815Y-127666185D01*
X135320506Y-127745537D01*
X135430820Y-127804502D01*
X135550518Y-127840812D01*
X135675000Y-127853072D01*
X137375000Y-127853072D01*
X137499482Y-127840812D01*
X137619180Y-127804502D01*
X137729494Y-127745537D01*
X137826185Y-127666185D01*
X137905537Y-127569494D01*
X137964502Y-127459180D01*
X138000812Y-127339482D01*
X138013072Y-127215000D01*
X138013072Y-125515000D01*
X138000812Y-125390518D01*
X137964502Y-125270820D01*
X137905537Y-125160506D01*
X137826185Y-125063815D01*
X137729494Y-124984463D01*
X137619180Y-124925498D01*
X137550313Y-124904607D01*
X137580134Y-124880134D01*
X137765706Y-124654014D01*
X137903599Y-124396034D01*
X137988513Y-124116111D01*
X138017185Y-123825000D01*
X138003265Y-123683665D01*
X145885000Y-123683665D01*
X145885000Y-123966335D01*
X145940147Y-124243574D01*
X146048320Y-124504727D01*
X146205363Y-124739759D01*
X146405241Y-124939637D01*
X146607827Y-125075000D01*
X146405241Y-125210363D01*
X146205363Y-125410241D01*
X146048320Y-125645273D01*
X145940147Y-125906426D01*
X145885000Y-126183665D01*
X145885000Y-126466335D01*
X145940147Y-126743574D01*
X146048320Y-127004727D01*
X146205363Y-127239759D01*
X146405241Y-127439637D01*
X146640273Y-127596680D01*
X146901426Y-127704853D01*
X147178665Y-127760000D01*
X147461335Y-127760000D01*
X147738574Y-127704853D01*
X147999727Y-127596680D01*
X148074078Y-127547000D01*
X160944928Y-127547000D01*
X160944928Y-129247000D01*
X160957188Y-129371482D01*
X160993498Y-129491180D01*
X161052463Y-129601494D01*
X161131815Y-129698185D01*
X161228506Y-129777537D01*
X161338820Y-129836502D01*
X161458518Y-129872812D01*
X161583000Y-129885072D01*
X163283000Y-129885072D01*
X163407482Y-129872812D01*
X163527180Y-129836502D01*
X163637494Y-129777537D01*
X163734185Y-129698185D01*
X163813537Y-129601494D01*
X163872502Y-129491180D01*
X163896966Y-129410534D01*
X163972731Y-129494588D01*
X164206080Y-129668641D01*
X164468901Y-129793825D01*
X164616110Y-129838476D01*
X164846000Y-129717155D01*
X164846000Y-128524000D01*
X165100000Y-128524000D01*
X165100000Y-129717155D01*
X165329890Y-129838476D01*
X165477099Y-129793825D01*
X165739920Y-129668641D01*
X165973269Y-129494588D01*
X166168178Y-129278355D01*
X166317157Y-129028252D01*
X166414481Y-128753891D01*
X166293814Y-128524000D01*
X165100000Y-128524000D01*
X164846000Y-128524000D01*
X164826000Y-128524000D01*
X164826000Y-128270000D01*
X164846000Y-128270000D01*
X164846000Y-127076845D01*
X165100000Y-127076845D01*
X165100000Y-128270000D01*
X166293814Y-128270000D01*
X166414481Y-128040109D01*
X166317157Y-127765748D01*
X166168178Y-127515645D01*
X165973269Y-127299412D01*
X165739920Y-127125359D01*
X165477099Y-127000175D01*
X165329890Y-126955524D01*
X165100000Y-127076845D01*
X164846000Y-127076845D01*
X164616110Y-126955524D01*
X164468901Y-127000175D01*
X164206080Y-127125359D01*
X163972731Y-127299412D01*
X163896966Y-127383466D01*
X163872502Y-127302820D01*
X163813537Y-127192506D01*
X163734185Y-127095815D01*
X163637494Y-127016463D01*
X163527180Y-126957498D01*
X163407482Y-126921188D01*
X163283000Y-126908928D01*
X161583000Y-126908928D01*
X161458518Y-126921188D01*
X161338820Y-126957498D01*
X161228506Y-127016463D01*
X161131815Y-127095815D01*
X161052463Y-127192506D01*
X160993498Y-127302820D01*
X160957188Y-127422518D01*
X160944928Y-127547000D01*
X148074078Y-127547000D01*
X148234759Y-127439637D01*
X148434637Y-127239759D01*
X148591680Y-127004727D01*
X148699853Y-126743574D01*
X148755000Y-126466335D01*
X148755000Y-126183665D01*
X148699853Y-125906426D01*
X148591680Y-125645273D01*
X148434637Y-125410241D01*
X148234759Y-125210363D01*
X148032173Y-125075000D01*
X148234759Y-124939637D01*
X148434637Y-124739759D01*
X148536707Y-124587000D01*
X157181057Y-124587000D01*
X157208764Y-124868309D01*
X157290818Y-125138808D01*
X157424068Y-125388101D01*
X157603392Y-125606608D01*
X157821899Y-125785932D01*
X158071192Y-125919182D01*
X158341691Y-126001236D01*
X158552508Y-126022000D01*
X158693492Y-126022000D01*
X158904309Y-126001236D01*
X159174808Y-125919182D01*
X159424101Y-125785932D01*
X159642608Y-125606608D01*
X159821932Y-125388101D01*
X159955182Y-125138808D01*
X160037236Y-124868309D01*
X160064943Y-124587000D01*
X160051023Y-124445665D01*
X167348000Y-124445665D01*
X167348000Y-124728335D01*
X167403147Y-125005574D01*
X167511320Y-125266727D01*
X167668363Y-125501759D01*
X167868241Y-125701637D01*
X168103273Y-125858680D01*
X168364426Y-125966853D01*
X168641665Y-126022000D01*
X168924335Y-126022000D01*
X169201574Y-125966853D01*
X169462727Y-125858680D01*
X169697759Y-125701637D01*
X169897637Y-125501759D01*
X170054680Y-125266727D01*
X170162853Y-125005574D01*
X170218000Y-124728335D01*
X170218000Y-124445665D01*
X170162853Y-124168426D01*
X170054680Y-123907273D01*
X169897637Y-123672241D01*
X169697759Y-123472363D01*
X169462727Y-123315320D01*
X169201574Y-123207147D01*
X168924335Y-123152000D01*
X168641665Y-123152000D01*
X168364426Y-123207147D01*
X168103273Y-123315320D01*
X167868241Y-123472363D01*
X167668363Y-123672241D01*
X167511320Y-123907273D01*
X167403147Y-124168426D01*
X167348000Y-124445665D01*
X160051023Y-124445665D01*
X160037236Y-124305691D01*
X159955182Y-124035192D01*
X159821932Y-123785899D01*
X159642608Y-123567392D01*
X159424101Y-123388068D01*
X159174808Y-123254818D01*
X158904309Y-123172764D01*
X158693492Y-123152000D01*
X158552508Y-123152000D01*
X158341691Y-123172764D01*
X158071192Y-123254818D01*
X157821899Y-123388068D01*
X157603392Y-123567392D01*
X157424068Y-123785899D01*
X157290818Y-124035192D01*
X157208764Y-124305691D01*
X157181057Y-124587000D01*
X148536707Y-124587000D01*
X148591680Y-124504727D01*
X148699853Y-124243574D01*
X148755000Y-123966335D01*
X148755000Y-123683665D01*
X148699853Y-123406426D01*
X148591680Y-123145273D01*
X148434637Y-122910241D01*
X148234759Y-122710363D01*
X147999727Y-122553320D01*
X147738574Y-122445147D01*
X147461335Y-122390000D01*
X147178665Y-122390000D01*
X146901426Y-122445147D01*
X146640273Y-122553320D01*
X146405241Y-122710363D01*
X146205363Y-122910241D01*
X146048320Y-123145273D01*
X145940147Y-123406426D01*
X145885000Y-123683665D01*
X138003265Y-123683665D01*
X137988513Y-123533889D01*
X137903599Y-123253966D01*
X137765706Y-122995986D01*
X137580134Y-122769866D01*
X137354014Y-122584294D01*
X137096034Y-122446401D01*
X136816111Y-122361487D01*
X136597950Y-122340000D01*
X136452050Y-122340000D01*
X136233889Y-122361487D01*
X135953966Y-122446401D01*
X135695986Y-122584294D01*
X135469866Y-122769866D01*
X135284294Y-122995986D01*
X135146401Y-123253966D01*
X135061487Y-123533889D01*
X135032815Y-123825000D01*
X130208143Y-123825000D01*
X130091808Y-123762818D01*
X129821309Y-123680764D01*
X129610492Y-123660000D01*
X129469508Y-123660000D01*
X129258691Y-123680764D01*
X128988192Y-123762818D01*
X128738899Y-123896068D01*
X128520392Y-124075392D01*
X128341068Y-124293899D01*
X128207818Y-124543192D01*
X128125764Y-124813691D01*
X128098057Y-125095000D01*
X99720000Y-125095000D01*
X99720000Y-120027723D01*
X105510000Y-120027723D01*
X105510000Y-120383277D01*
X105579365Y-120731999D01*
X105715429Y-121060488D01*
X105912965Y-121356121D01*
X106164379Y-121607535D01*
X106460012Y-121805071D01*
X106788501Y-121941135D01*
X107137223Y-122010500D01*
X107492777Y-122010500D01*
X107841499Y-121941135D01*
X108169988Y-121805071D01*
X108465621Y-121607535D01*
X108717035Y-121356121D01*
X108914571Y-121060488D01*
X109050635Y-120731999D01*
X109120000Y-120383277D01*
X109120000Y-120027723D01*
X110510000Y-120027723D01*
X110510000Y-120383277D01*
X110579365Y-120731999D01*
X110715429Y-121060488D01*
X110912965Y-121356121D01*
X111164379Y-121607535D01*
X111460012Y-121805071D01*
X111788501Y-121941135D01*
X112137223Y-122010500D01*
X112492777Y-122010500D01*
X112841499Y-121941135D01*
X113169988Y-121805071D01*
X113465621Y-121607535D01*
X113717035Y-121356121D01*
X113914571Y-121060488D01*
X114050635Y-120731999D01*
X114120000Y-120383277D01*
X114120000Y-120027723D01*
X115510000Y-120027723D01*
X115510000Y-120383277D01*
X115579365Y-120731999D01*
X115715429Y-121060488D01*
X115912965Y-121356121D01*
X116164379Y-121607535D01*
X116460012Y-121805071D01*
X116788501Y-121941135D01*
X117137223Y-122010500D01*
X117492777Y-122010500D01*
X117841499Y-121941135D01*
X118169988Y-121805071D01*
X118465621Y-121607535D01*
X118717035Y-121356121D01*
X118914571Y-121060488D01*
X119050635Y-120731999D01*
X119120000Y-120383277D01*
X119120000Y-120027723D01*
X119050635Y-119679001D01*
X118914571Y-119350512D01*
X118717035Y-119054879D01*
X118465621Y-118803465D01*
X118169988Y-118605929D01*
X117841499Y-118469865D01*
X117492777Y-118400500D01*
X117137223Y-118400500D01*
X116788501Y-118469865D01*
X116460012Y-118605929D01*
X116164379Y-118803465D01*
X115912965Y-119054879D01*
X115715429Y-119350512D01*
X115579365Y-119679001D01*
X115510000Y-120027723D01*
X114120000Y-120027723D01*
X114050635Y-119679001D01*
X113914571Y-119350512D01*
X113717035Y-119054879D01*
X113465621Y-118803465D01*
X113169988Y-118605929D01*
X112841499Y-118469865D01*
X112492777Y-118400500D01*
X112137223Y-118400500D01*
X111788501Y-118469865D01*
X111460012Y-118605929D01*
X111164379Y-118803465D01*
X110912965Y-119054879D01*
X110715429Y-119350512D01*
X110579365Y-119679001D01*
X110510000Y-120027723D01*
X109120000Y-120027723D01*
X109050635Y-119679001D01*
X108914571Y-119350512D01*
X108717035Y-119054879D01*
X108465621Y-118803465D01*
X108169988Y-118605929D01*
X107841499Y-118469865D01*
X107492777Y-118400500D01*
X107137223Y-118400500D01*
X106788501Y-118469865D01*
X106460012Y-118605929D01*
X106164379Y-118803465D01*
X105912965Y-119054879D01*
X105715429Y-119350512D01*
X105579365Y-119679001D01*
X105510000Y-120027723D01*
X99720000Y-120027723D01*
X99720000Y-117475000D01*
X145827815Y-117475000D01*
X145856487Y-117766111D01*
X145941401Y-118046034D01*
X146079294Y-118304014D01*
X146264866Y-118530134D01*
X146294687Y-118554607D01*
X146225820Y-118575498D01*
X146115506Y-118634463D01*
X146018815Y-118713815D01*
X145939463Y-118810506D01*
X145880498Y-118920820D01*
X145844188Y-119040518D01*
X145831928Y-119165000D01*
X145831928Y-120865000D01*
X145844188Y-120989482D01*
X145880498Y-121109180D01*
X145939463Y-121219494D01*
X146018815Y-121316185D01*
X146115506Y-121395537D01*
X146225820Y-121454502D01*
X146345518Y-121490812D01*
X146470000Y-121503072D01*
X148170000Y-121503072D01*
X148294482Y-121490812D01*
X148414180Y-121454502D01*
X148524494Y-121395537D01*
X148621185Y-121316185D01*
X148700537Y-121219494D01*
X148759502Y-121109180D01*
X148795812Y-120989482D01*
X148808072Y-120865000D01*
X148808072Y-119165000D01*
X148795812Y-119040518D01*
X148759502Y-118920820D01*
X148700537Y-118810506D01*
X148621185Y-118713815D01*
X148524494Y-118634463D01*
X148414180Y-118575498D01*
X148345313Y-118554607D01*
X148375134Y-118530134D01*
X148560706Y-118304014D01*
X148698599Y-118046034D01*
X148783513Y-117766111D01*
X148812185Y-117475000D01*
X148805923Y-117411419D01*
X168880000Y-117411419D01*
X168880000Y-117792581D01*
X168954361Y-118166419D01*
X169100225Y-118518566D01*
X169311987Y-118835491D01*
X169348496Y-118872000D01*
X169311987Y-118908509D01*
X169100225Y-119225434D01*
X168954361Y-119577581D01*
X168880000Y-119951419D01*
X168880000Y-120332581D01*
X168954361Y-120706419D01*
X169100225Y-121058566D01*
X169311987Y-121375491D01*
X169581509Y-121645013D01*
X169898434Y-121856775D01*
X170250581Y-122002639D01*
X170624419Y-122077000D01*
X171005581Y-122077000D01*
X171379419Y-122002639D01*
X171731566Y-121856775D01*
X172048491Y-121645013D01*
X172318013Y-121375491D01*
X172529775Y-121058566D01*
X172675639Y-120706419D01*
X172750000Y-120332581D01*
X172750000Y-119951419D01*
X172675639Y-119577581D01*
X172529775Y-119225434D01*
X172318013Y-118908509D01*
X172281504Y-118872000D01*
X172318013Y-118835491D01*
X172529775Y-118518566D01*
X172675639Y-118166419D01*
X172750000Y-117792581D01*
X172750000Y-117411419D01*
X172675639Y-117037581D01*
X172529775Y-116685434D01*
X172318013Y-116368509D01*
X172048491Y-116098987D01*
X171731566Y-115887225D01*
X171379419Y-115741361D01*
X171005581Y-115667000D01*
X170624419Y-115667000D01*
X170250581Y-115741361D01*
X169898434Y-115887225D01*
X169581509Y-116098987D01*
X169311987Y-116368509D01*
X169100225Y-116685434D01*
X168954361Y-117037581D01*
X168880000Y-117411419D01*
X148805923Y-117411419D01*
X148783513Y-117183889D01*
X148698599Y-116903966D01*
X148560706Y-116645986D01*
X148375134Y-116419866D01*
X148149014Y-116234294D01*
X147891034Y-116096401D01*
X147611111Y-116011487D01*
X147392950Y-115990000D01*
X147247050Y-115990000D01*
X147028889Y-116011487D01*
X146748966Y-116096401D01*
X146490986Y-116234294D01*
X146264866Y-116419866D01*
X146079294Y-116645986D01*
X145941401Y-116903966D01*
X145856487Y-117183889D01*
X145827815Y-117475000D01*
X99720000Y-117475000D01*
X99720000Y-114793665D01*
X128105000Y-114793665D01*
X128105000Y-115076335D01*
X128160147Y-115353574D01*
X128268320Y-115614727D01*
X128425363Y-115849759D01*
X128625241Y-116049637D01*
X128860273Y-116206680D01*
X129121426Y-116314853D01*
X129398665Y-116370000D01*
X129681335Y-116370000D01*
X129958574Y-116314853D01*
X130219727Y-116206680D01*
X130454759Y-116049637D01*
X130654637Y-115849759D01*
X130811680Y-115614727D01*
X130919853Y-115353574D01*
X130975000Y-115076335D01*
X130975000Y-114793665D01*
X130949738Y-114666665D01*
X149989000Y-114666665D01*
X149989000Y-114949335D01*
X150044147Y-115226574D01*
X150152320Y-115487727D01*
X150309363Y-115722759D01*
X150509241Y-115922637D01*
X150744273Y-116079680D01*
X151005426Y-116187853D01*
X151282665Y-116243000D01*
X151565335Y-116243000D01*
X151842574Y-116187853D01*
X152103727Y-116079680D01*
X152338759Y-115922637D01*
X152460694Y-115800702D01*
X153110903Y-115800702D01*
X153182486Y-116044671D01*
X153437996Y-116165571D01*
X153712184Y-116234300D01*
X153994512Y-116248217D01*
X154274130Y-116206787D01*
X154540292Y-116111603D01*
X154665514Y-116044671D01*
X154737097Y-115800702D01*
X153924000Y-114987605D01*
X153110903Y-115800702D01*
X152460694Y-115800702D01*
X152538637Y-115722759D01*
X152672692Y-115522131D01*
X152687329Y-115549514D01*
X152931298Y-115621097D01*
X153744395Y-114808000D01*
X154103605Y-114808000D01*
X154916702Y-115621097D01*
X155160671Y-115549514D01*
X155281571Y-115294004D01*
X155350300Y-115019816D01*
X155364217Y-114737488D01*
X155322787Y-114457870D01*
X155227603Y-114191708D01*
X155160671Y-114066486D01*
X154916702Y-113994903D01*
X154103605Y-114808000D01*
X153744395Y-114808000D01*
X152931298Y-113994903D01*
X152687329Y-114066486D01*
X152673676Y-114095341D01*
X152538637Y-113893241D01*
X152460694Y-113815298D01*
X153110903Y-113815298D01*
X153924000Y-114628395D01*
X154737097Y-113815298D01*
X154665514Y-113571329D01*
X154410004Y-113450429D01*
X154135816Y-113381700D01*
X153853488Y-113367783D01*
X153573870Y-113409213D01*
X153307708Y-113504397D01*
X153182486Y-113571329D01*
X153110903Y-113815298D01*
X152460694Y-113815298D01*
X152338759Y-113693363D01*
X152103727Y-113536320D01*
X151842574Y-113428147D01*
X151565335Y-113373000D01*
X151282665Y-113373000D01*
X151005426Y-113428147D01*
X150744273Y-113536320D01*
X150509241Y-113693363D01*
X150309363Y-113893241D01*
X150152320Y-114128273D01*
X150044147Y-114389426D01*
X149989000Y-114666665D01*
X130949738Y-114666665D01*
X130919853Y-114516426D01*
X130811680Y-114255273D01*
X130654637Y-114020241D01*
X130454759Y-113820363D01*
X130219727Y-113663320D01*
X129958574Y-113555147D01*
X129681335Y-113500000D01*
X129398665Y-113500000D01*
X129121426Y-113555147D01*
X128860273Y-113663320D01*
X128625241Y-113820363D01*
X128425363Y-114020241D01*
X128268320Y-114255273D01*
X128160147Y-114516426D01*
X128105000Y-114793665D01*
X99720000Y-114793665D01*
X99720000Y-109590000D01*
X100061928Y-109590000D01*
X100061928Y-111390000D01*
X100074188Y-111514482D01*
X100110498Y-111634180D01*
X100169463Y-111744494D01*
X100248815Y-111841185D01*
X100345506Y-111920537D01*
X100455820Y-111979502D01*
X100575518Y-112015812D01*
X100700000Y-112028072D01*
X102500000Y-112028072D01*
X102624482Y-112015812D01*
X102744180Y-111979502D01*
X102854494Y-111920537D01*
X102951185Y-111841185D01*
X103030537Y-111744494D01*
X103089502Y-111634180D01*
X103095056Y-111615873D01*
X103161495Y-111682312D01*
X103412905Y-111850299D01*
X103692257Y-111966011D01*
X103988816Y-112025000D01*
X104291184Y-112025000D01*
X104587743Y-111966011D01*
X104867095Y-111850299D01*
X105118505Y-111682312D01*
X105332312Y-111468505D01*
X105500299Y-111217095D01*
X105616011Y-110937743D01*
X105675000Y-110641184D01*
X105675000Y-110338816D01*
X105616011Y-110042257D01*
X105500299Y-109762905D01*
X105484995Y-109740000D01*
X107548928Y-109740000D01*
X107548928Y-111240000D01*
X107561188Y-111364482D01*
X107597498Y-111484180D01*
X107656463Y-111594494D01*
X107735815Y-111691185D01*
X107832506Y-111770537D01*
X107942820Y-111829502D01*
X108062518Y-111865812D01*
X108187000Y-111878072D01*
X109237000Y-111878072D01*
X109361482Y-111865812D01*
X109481180Y-111829502D01*
X109545902Y-111794907D01*
X109754601Y-111858215D01*
X109982000Y-111880612D01*
X110209400Y-111858215D01*
X110428060Y-111791885D01*
X110617000Y-111690894D01*
X110805941Y-111791885D01*
X111024601Y-111858215D01*
X111252000Y-111880612D01*
X111479400Y-111858215D01*
X111698060Y-111791885D01*
X111899579Y-111684171D01*
X112076212Y-111539212D01*
X112221171Y-111362579D01*
X112328885Y-111161059D01*
X112395215Y-110942399D01*
X112412000Y-110771978D01*
X112412000Y-110208021D01*
X112395215Y-110037600D01*
X112328885Y-109818940D01*
X112221171Y-109617421D01*
X112076212Y-109440788D01*
X111899578Y-109295829D01*
X111698059Y-109188115D01*
X111479399Y-109121785D01*
X111252000Y-109099388D01*
X111024600Y-109121785D01*
X110805940Y-109188115D01*
X110617000Y-109289106D01*
X110428059Y-109188115D01*
X110209399Y-109121785D01*
X109982000Y-109099388D01*
X109754600Y-109121785D01*
X109545902Y-109185093D01*
X109481180Y-109150498D01*
X109361482Y-109114188D01*
X109237000Y-109101928D01*
X108187000Y-109101928D01*
X108062518Y-109114188D01*
X107942820Y-109150498D01*
X107832506Y-109209463D01*
X107735815Y-109288815D01*
X107656463Y-109385506D01*
X107597498Y-109495820D01*
X107561188Y-109615518D01*
X107548928Y-109740000D01*
X105484995Y-109740000D01*
X105332312Y-109511495D01*
X105118505Y-109297688D01*
X104867095Y-109129701D01*
X104587743Y-109013989D01*
X104291184Y-108955000D01*
X103988816Y-108955000D01*
X103692257Y-109013989D01*
X103412905Y-109129701D01*
X103161495Y-109297688D01*
X103095056Y-109364127D01*
X103089502Y-109345820D01*
X103030537Y-109235506D01*
X102951185Y-109138815D01*
X102854494Y-109059463D01*
X102744180Y-109000498D01*
X102624482Y-108964188D01*
X102500000Y-108951928D01*
X100700000Y-108951928D01*
X100575518Y-108964188D01*
X100455820Y-109000498D01*
X100345506Y-109059463D01*
X100248815Y-109138815D01*
X100169463Y-109235506D01*
X100110498Y-109345820D01*
X100074188Y-109465518D01*
X100061928Y-109590000D01*
X99720000Y-109590000D01*
X99720000Y-105410000D01*
X100158057Y-105410000D01*
X100185764Y-105691309D01*
X100267818Y-105961808D01*
X100401068Y-106211101D01*
X100580392Y-106429608D01*
X100798899Y-106608932D01*
X101048192Y-106742182D01*
X101318691Y-106824236D01*
X101529508Y-106845000D01*
X101670492Y-106845000D01*
X101881309Y-106824236D01*
X102151808Y-106742182D01*
X102401101Y-106608932D01*
X102619608Y-106429608D01*
X102798932Y-106211101D01*
X102932182Y-105961808D01*
X103014236Y-105691309D01*
X103041943Y-105410000D01*
X103028023Y-105268665D01*
X110325000Y-105268665D01*
X110325000Y-105551335D01*
X110380147Y-105828574D01*
X110488320Y-106089727D01*
X110645363Y-106324759D01*
X110845241Y-106524637D01*
X111080273Y-106681680D01*
X111341426Y-106789853D01*
X111618665Y-106845000D01*
X111901335Y-106845000D01*
X112178574Y-106789853D01*
X112439727Y-106681680D01*
X112674759Y-106524637D01*
X112874637Y-106324759D01*
X113031680Y-106089727D01*
X113139853Y-105828574D01*
X113159917Y-105727702D01*
X114756903Y-105727702D01*
X114828486Y-105971671D01*
X115083996Y-106092571D01*
X115358184Y-106161300D01*
X115640512Y-106175217D01*
X115920130Y-106133787D01*
X116186292Y-106038603D01*
X116311514Y-105971671D01*
X116383097Y-105727702D01*
X115570000Y-104914605D01*
X114756903Y-105727702D01*
X113159917Y-105727702D01*
X113195000Y-105551335D01*
X113195000Y-105268665D01*
X113139853Y-104991426D01*
X113062845Y-104805512D01*
X114129783Y-104805512D01*
X114171213Y-105085130D01*
X114266397Y-105351292D01*
X114333329Y-105476514D01*
X114577298Y-105548097D01*
X115390395Y-104735000D01*
X115749605Y-104735000D01*
X116562702Y-105548097D01*
X116806671Y-105476514D01*
X116927571Y-105221004D01*
X116996300Y-104946816D01*
X117010217Y-104664488D01*
X116968787Y-104384870D01*
X116873603Y-104118708D01*
X116806671Y-103993486D01*
X116562702Y-103921903D01*
X115749605Y-104735000D01*
X115390395Y-104735000D01*
X114577298Y-103921903D01*
X114333329Y-103993486D01*
X114212429Y-104248996D01*
X114143700Y-104523184D01*
X114129783Y-104805512D01*
X113062845Y-104805512D01*
X113031680Y-104730273D01*
X112874637Y-104495241D01*
X112674759Y-104295363D01*
X112439727Y-104138320D01*
X112178574Y-104030147D01*
X111901335Y-103975000D01*
X111618665Y-103975000D01*
X111341426Y-104030147D01*
X111080273Y-104138320D01*
X110845241Y-104295363D01*
X110645363Y-104495241D01*
X110488320Y-104730273D01*
X110380147Y-104991426D01*
X110325000Y-105268665D01*
X103028023Y-105268665D01*
X103014236Y-105128691D01*
X102932182Y-104858192D01*
X102798932Y-104608899D01*
X102619608Y-104390392D01*
X102401101Y-104211068D01*
X102151808Y-104077818D01*
X101881309Y-103995764D01*
X101670492Y-103975000D01*
X101529508Y-103975000D01*
X101318691Y-103995764D01*
X101048192Y-104077818D01*
X100798899Y-104211068D01*
X100580392Y-104390392D01*
X100401068Y-104608899D01*
X100267818Y-104858192D01*
X100185764Y-105128691D01*
X100158057Y-105410000D01*
X99720000Y-105410000D01*
X99720000Y-102108000D01*
X100158057Y-102108000D01*
X100185764Y-102389309D01*
X100267818Y-102659808D01*
X100401068Y-102909101D01*
X100580392Y-103127608D01*
X100798899Y-103306932D01*
X101048192Y-103440182D01*
X101318691Y-103522236D01*
X101529508Y-103543000D01*
X101670492Y-103543000D01*
X101881309Y-103522236D01*
X102151808Y-103440182D01*
X102401101Y-103306932D01*
X102619608Y-103127608D01*
X102798932Y-102909101D01*
X102932182Y-102659808D01*
X103014236Y-102389309D01*
X103041943Y-102108000D01*
X103028023Y-101966665D01*
X110325000Y-101966665D01*
X110325000Y-102249335D01*
X110380147Y-102526574D01*
X110488320Y-102787727D01*
X110645363Y-103022759D01*
X110845241Y-103222637D01*
X111080273Y-103379680D01*
X111341426Y-103487853D01*
X111618665Y-103543000D01*
X111901335Y-103543000D01*
X112178574Y-103487853D01*
X112439727Y-103379680D01*
X112674759Y-103222637D01*
X112874637Y-103022759D01*
X113031680Y-102787727D01*
X113139853Y-102526574D01*
X113195000Y-102249335D01*
X113195000Y-102093665D01*
X114135000Y-102093665D01*
X114135000Y-102376335D01*
X114190147Y-102653574D01*
X114298320Y-102914727D01*
X114455363Y-103149759D01*
X114655241Y-103349637D01*
X114855869Y-103483692D01*
X114828486Y-103498329D01*
X114756903Y-103742298D01*
X115570000Y-104555395D01*
X116383097Y-103742298D01*
X116311514Y-103498329D01*
X116282659Y-103484676D01*
X116484759Y-103349637D01*
X116684637Y-103149759D01*
X116841680Y-102914727D01*
X116949853Y-102653574D01*
X117005000Y-102376335D01*
X117005000Y-102093665D01*
X116949853Y-101816426D01*
X116841680Y-101555273D01*
X116684637Y-101320241D01*
X116484759Y-101120363D01*
X116249727Y-100963320D01*
X115988574Y-100855147D01*
X115711335Y-100800000D01*
X115428665Y-100800000D01*
X115151426Y-100855147D01*
X114890273Y-100963320D01*
X114655241Y-101120363D01*
X114455363Y-101320241D01*
X114298320Y-101555273D01*
X114190147Y-101816426D01*
X114135000Y-102093665D01*
X113195000Y-102093665D01*
X113195000Y-101966665D01*
X113139853Y-101689426D01*
X113031680Y-101428273D01*
X112874637Y-101193241D01*
X112674759Y-100993363D01*
X112439727Y-100836320D01*
X112178574Y-100728147D01*
X111901335Y-100673000D01*
X111618665Y-100673000D01*
X111341426Y-100728147D01*
X111080273Y-100836320D01*
X110845241Y-100993363D01*
X110645363Y-101193241D01*
X110488320Y-101428273D01*
X110380147Y-101689426D01*
X110325000Y-101966665D01*
X103028023Y-101966665D01*
X103014236Y-101826691D01*
X102932182Y-101556192D01*
X102798932Y-101306899D01*
X102619608Y-101088392D01*
X102401101Y-100909068D01*
X102151808Y-100775818D01*
X101881309Y-100693764D01*
X101670492Y-100673000D01*
X101529508Y-100673000D01*
X101318691Y-100693764D01*
X101048192Y-100775818D01*
X100798899Y-100909068D01*
X100580392Y-101088392D01*
X100401068Y-101306899D01*
X100267818Y-101556192D01*
X100185764Y-101826691D01*
X100158057Y-102108000D01*
X99720000Y-102108000D01*
X99720000Y-99060000D01*
X114128057Y-99060000D01*
X114155764Y-99341309D01*
X114237818Y-99611808D01*
X114371068Y-99861101D01*
X114550392Y-100079608D01*
X114768899Y-100258932D01*
X115018192Y-100392182D01*
X115288691Y-100474236D01*
X115499508Y-100495000D01*
X115640492Y-100495000D01*
X115851309Y-100474236D01*
X116121808Y-100392182D01*
X116371101Y-100258932D01*
X116589608Y-100079608D01*
X116768932Y-99861101D01*
X116902182Y-99611808D01*
X116984236Y-99341309D01*
X117011943Y-99060000D01*
X116984236Y-98778691D01*
X116902182Y-98508192D01*
X116768932Y-98258899D01*
X116589608Y-98040392D01*
X116371101Y-97861068D01*
X116121808Y-97727818D01*
X115851309Y-97645764D01*
X115640492Y-97625000D01*
X115499508Y-97625000D01*
X115288691Y-97645764D01*
X115018192Y-97727818D01*
X114768899Y-97861068D01*
X114550392Y-98040392D01*
X114371068Y-98258899D01*
X114237818Y-98508192D01*
X114155764Y-98778691D01*
X114128057Y-99060000D01*
X99720000Y-99060000D01*
X99720000Y-96382000D01*
X100061928Y-96382000D01*
X100061928Y-98182000D01*
X100074188Y-98306482D01*
X100110498Y-98426180D01*
X100169463Y-98536494D01*
X100248815Y-98633185D01*
X100345506Y-98712537D01*
X100455820Y-98771502D01*
X100575518Y-98807812D01*
X100700000Y-98820072D01*
X102500000Y-98820072D01*
X102624482Y-98807812D01*
X102744180Y-98771502D01*
X102854494Y-98712537D01*
X102951185Y-98633185D01*
X103030537Y-98536494D01*
X103089502Y-98426180D01*
X103095056Y-98407873D01*
X103161495Y-98474312D01*
X103412905Y-98642299D01*
X103692257Y-98758011D01*
X103988816Y-98817000D01*
X104291184Y-98817000D01*
X104587743Y-98758011D01*
X104867095Y-98642299D01*
X105118505Y-98474312D01*
X105332312Y-98260505D01*
X105500299Y-98009095D01*
X105616011Y-97729743D01*
X105675000Y-97433184D01*
X105675000Y-97130816D01*
X105616011Y-96834257D01*
X105500299Y-96554905D01*
X105484995Y-96532000D01*
X107548928Y-96532000D01*
X107548928Y-98032000D01*
X107561188Y-98156482D01*
X107597498Y-98276180D01*
X107656463Y-98386494D01*
X107735815Y-98483185D01*
X107832506Y-98562537D01*
X107942820Y-98621502D01*
X108062518Y-98657812D01*
X108187000Y-98670072D01*
X109237000Y-98670072D01*
X109361482Y-98657812D01*
X109481180Y-98621502D01*
X109545902Y-98586907D01*
X109754601Y-98650215D01*
X109982000Y-98672612D01*
X110209400Y-98650215D01*
X110428060Y-98583885D01*
X110617001Y-98482894D01*
X110805941Y-98583885D01*
X111024601Y-98650215D01*
X111252000Y-98672612D01*
X111479400Y-98650215D01*
X111698060Y-98583885D01*
X111899579Y-98476171D01*
X112076212Y-98331212D01*
X112221171Y-98154579D01*
X112328885Y-97953059D01*
X112395215Y-97734399D01*
X112412000Y-97563978D01*
X112412000Y-97000021D01*
X112395215Y-96829600D01*
X112328885Y-96610940D01*
X112221171Y-96409421D01*
X112076212Y-96232788D01*
X111899578Y-96087829D01*
X111698059Y-95980115D01*
X111479399Y-95913785D01*
X111252000Y-95891388D01*
X111024600Y-95913785D01*
X110805940Y-95980115D01*
X110617000Y-96081106D01*
X110428059Y-95980115D01*
X110209399Y-95913785D01*
X109982000Y-95891388D01*
X109754600Y-95913785D01*
X109545902Y-95977093D01*
X109481180Y-95942498D01*
X109361482Y-95906188D01*
X109237000Y-95893928D01*
X108187000Y-95893928D01*
X108062518Y-95906188D01*
X107942820Y-95942498D01*
X107832506Y-96001463D01*
X107735815Y-96080815D01*
X107656463Y-96177506D01*
X107597498Y-96287820D01*
X107561188Y-96407518D01*
X107548928Y-96532000D01*
X105484995Y-96532000D01*
X105332312Y-96303495D01*
X105118505Y-96089688D01*
X104867095Y-95921701D01*
X104587743Y-95805989D01*
X104291184Y-95747000D01*
X103988816Y-95747000D01*
X103692257Y-95805989D01*
X103412905Y-95921701D01*
X103161495Y-96089688D01*
X103095056Y-96156127D01*
X103089502Y-96137820D01*
X103030537Y-96027506D01*
X102951185Y-95930815D01*
X102854494Y-95851463D01*
X102744180Y-95792498D01*
X102624482Y-95756188D01*
X102500000Y-95743928D01*
X100700000Y-95743928D01*
X100575518Y-95756188D01*
X100455820Y-95792498D01*
X100345506Y-95851463D01*
X100248815Y-95930815D01*
X100169463Y-96027506D01*
X100110498Y-96137820D01*
X100074188Y-96257518D01*
X100061928Y-96382000D01*
X99720000Y-96382000D01*
X99720000Y-87600000D01*
X103471928Y-87600000D01*
X103471928Y-90200000D01*
X103484188Y-90324482D01*
X103520498Y-90444180D01*
X103579463Y-90554494D01*
X103658815Y-90651185D01*
X103755506Y-90730537D01*
X103865820Y-90789502D01*
X103985518Y-90825812D01*
X104110000Y-90838072D01*
X106710000Y-90838072D01*
X106834482Y-90825812D01*
X106954180Y-90789502D01*
X107064494Y-90730537D01*
X107161185Y-90651185D01*
X107240537Y-90554494D01*
X107299502Y-90444180D01*
X107335812Y-90324482D01*
X107348072Y-90200000D01*
X107348072Y-88758665D01*
X114135000Y-88758665D01*
X114135000Y-89041335D01*
X114190147Y-89318574D01*
X114298320Y-89579727D01*
X114455363Y-89814759D01*
X114655241Y-90014637D01*
X114890273Y-90171680D01*
X115151426Y-90279853D01*
X115428665Y-90335000D01*
X115711335Y-90335000D01*
X115988574Y-90279853D01*
X116249727Y-90171680D01*
X116484759Y-90014637D01*
X116684637Y-89814759D01*
X116841680Y-89579727D01*
X116949853Y-89318574D01*
X117005000Y-89041335D01*
X117005000Y-88758665D01*
X116949853Y-88481426D01*
X116841680Y-88220273D01*
X116684637Y-87985241D01*
X116484759Y-87785363D01*
X116249727Y-87628320D01*
X115988574Y-87520147D01*
X115711335Y-87465000D01*
X115428665Y-87465000D01*
X115151426Y-87520147D01*
X114890273Y-87628320D01*
X114655241Y-87785363D01*
X114455363Y-87985241D01*
X114298320Y-88220273D01*
X114190147Y-88481426D01*
X114135000Y-88758665D01*
X107348072Y-88758665D01*
X107348072Y-87600000D01*
X107335812Y-87475518D01*
X107299502Y-87355820D01*
X107240537Y-87245506D01*
X107161185Y-87148815D01*
X107064494Y-87069463D01*
X106954180Y-87010498D01*
X106834482Y-86974188D01*
X106710000Y-86961928D01*
X104110000Y-86961928D01*
X103985518Y-86974188D01*
X103865820Y-87010498D01*
X103755506Y-87069463D01*
X103658815Y-87148815D01*
X103579463Y-87245506D01*
X103520498Y-87355820D01*
X103484188Y-87475518D01*
X103471928Y-87600000D01*
X99720000Y-87600000D01*
X99720000Y-85249224D01*
X104240381Y-85249224D01*
X104372317Y-85544312D01*
X104713045Y-85715159D01*
X105080557Y-85816250D01*
X105460729Y-85843701D01*
X105490358Y-85840000D01*
X123190000Y-85840000D01*
X123190000Y-111518000D01*
X123202201Y-111641882D01*
X123238336Y-111761004D01*
X123297017Y-111870787D01*
X123375987Y-111967013D01*
X124125987Y-112717013D01*
X124222213Y-112795983D01*
X124331996Y-112854664D01*
X124451118Y-112890799D01*
X124575000Y-112903000D01*
X158000000Y-112903000D01*
X158123882Y-112890799D01*
X158243004Y-112854664D01*
X158352787Y-112795983D01*
X158449013Y-112717013D01*
X159199013Y-111967013D01*
X159277983Y-111870787D01*
X159336664Y-111761004D01*
X159372799Y-111641882D01*
X159385000Y-111518000D01*
X159385000Y-108135490D01*
X159452736Y-108180750D01*
X159683959Y-109343188D01*
X160208110Y-110608599D01*
X160894436Y-111635759D01*
X160890000Y-111658061D01*
X160890000Y-111861939D01*
X160929774Y-112061898D01*
X161007795Y-112250256D01*
X161121063Y-112419774D01*
X161265226Y-112563937D01*
X161434744Y-112677205D01*
X161623102Y-112755226D01*
X161823061Y-112795000D01*
X162026939Y-112795000D01*
X162049241Y-112790564D01*
X163076401Y-113476890D01*
X164341812Y-114001041D01*
X165504250Y-114232264D01*
X165566063Y-114324774D01*
X165710226Y-114468937D01*
X165879744Y-114582205D01*
X166068102Y-114660226D01*
X166268061Y-114700000D01*
X166471939Y-114700000D01*
X166671898Y-114660226D01*
X166860256Y-114582205D01*
X167029774Y-114468937D01*
X167173937Y-114324774D01*
X167235750Y-114232264D01*
X168398188Y-114001041D01*
X169663599Y-113476890D01*
X170690759Y-112790564D01*
X170713061Y-112795000D01*
X170916939Y-112795000D01*
X171116898Y-112755226D01*
X171305256Y-112677205D01*
X171474774Y-112563937D01*
X171618937Y-112419774D01*
X171732205Y-112250256D01*
X171810226Y-112061898D01*
X171850000Y-111861939D01*
X171850000Y-111658061D01*
X171845564Y-111635759D01*
X172531890Y-110608599D01*
X173056041Y-109343188D01*
X173287264Y-108180750D01*
X173379774Y-108118937D01*
X173523937Y-107974774D01*
X173637205Y-107805256D01*
X173715226Y-107616898D01*
X173755000Y-107416939D01*
X173755000Y-107213061D01*
X173715226Y-107013102D01*
X173637205Y-106824744D01*
X173523937Y-106655226D01*
X173379774Y-106511063D01*
X173287264Y-106449250D01*
X173056041Y-105286812D01*
X172531890Y-104021401D01*
X171845564Y-102994241D01*
X171850000Y-102971939D01*
X171850000Y-102768061D01*
X171810226Y-102568102D01*
X171732205Y-102379744D01*
X171618937Y-102210226D01*
X171474774Y-102066063D01*
X171305256Y-101952795D01*
X171116898Y-101874774D01*
X170916939Y-101835000D01*
X170713061Y-101835000D01*
X170690759Y-101839436D01*
X169663599Y-101153110D01*
X168398188Y-100628959D01*
X167235750Y-100397736D01*
X167173937Y-100305226D01*
X167029774Y-100161063D01*
X166860256Y-100047795D01*
X166671898Y-99969774D01*
X166471939Y-99930000D01*
X166268061Y-99930000D01*
X166068102Y-99969774D01*
X165879744Y-100047795D01*
X165710226Y-100161063D01*
X165566063Y-100305226D01*
X165504250Y-100397736D01*
X164341812Y-100628959D01*
X163076401Y-101153110D01*
X162049241Y-101839436D01*
X162026939Y-101835000D01*
X161823061Y-101835000D01*
X161623102Y-101874774D01*
X161434744Y-101952795D01*
X161265226Y-102066063D01*
X161121063Y-102210226D01*
X161007795Y-102379744D01*
X160929774Y-102568102D01*
X160890000Y-102768061D01*
X160890000Y-102971939D01*
X160894436Y-102994241D01*
X160208110Y-104021401D01*
X159683959Y-105286812D01*
X159452736Y-106449250D01*
X159385000Y-106494510D01*
X159385000Y-85840000D01*
X159372799Y-85716118D01*
X159336664Y-85596996D01*
X159277983Y-85487213D01*
X159199013Y-85390987D01*
X158449013Y-84640987D01*
X158352787Y-84562017D01*
X158243004Y-84503336D01*
X158123882Y-84467201D01*
X158000000Y-84455000D01*
X148461000Y-84455000D01*
X148461000Y-82408665D01*
X153759000Y-82408665D01*
X153759000Y-82691335D01*
X153814147Y-82968574D01*
X153922320Y-83229727D01*
X154079363Y-83464759D01*
X154279241Y-83664637D01*
X154514273Y-83821680D01*
X154775426Y-83929853D01*
X155052665Y-83985000D01*
X155335335Y-83985000D01*
X155612574Y-83929853D01*
X155873727Y-83821680D01*
X156108759Y-83664637D01*
X156308637Y-83464759D01*
X156465680Y-83229727D01*
X156573853Y-82968574D01*
X156629000Y-82691335D01*
X156629000Y-82408665D01*
X156573853Y-82131426D01*
X156465680Y-81870273D01*
X156308637Y-81635241D01*
X156108759Y-81435363D01*
X155908131Y-81301308D01*
X155935514Y-81286671D01*
X156007097Y-81042702D01*
X155194000Y-80229605D01*
X154380903Y-81042702D01*
X154452486Y-81286671D01*
X154481341Y-81300324D01*
X154279241Y-81435363D01*
X154079363Y-81635241D01*
X153922320Y-81870273D01*
X153814147Y-82131426D01*
X153759000Y-82408665D01*
X148461000Y-82408665D01*
X148461000Y-81624961D01*
X148491205Y-81579756D01*
X148569226Y-81391398D01*
X148609000Y-81191439D01*
X148609000Y-80987561D01*
X148569226Y-80787602D01*
X148491205Y-80599244D01*
X148377937Y-80429726D01*
X148233774Y-80285563D01*
X148064256Y-80172295D01*
X147939242Y-80120512D01*
X153753783Y-80120512D01*
X153795213Y-80400130D01*
X153890397Y-80666292D01*
X153957329Y-80791514D01*
X154201298Y-80863097D01*
X155014395Y-80050000D01*
X155373605Y-80050000D01*
X156186702Y-80863097D01*
X156430671Y-80791514D01*
X156551571Y-80536004D01*
X156620300Y-80261816D01*
X156634217Y-79979488D01*
X156592787Y-79699870D01*
X156497603Y-79433708D01*
X156430671Y-79308486D01*
X156186702Y-79236903D01*
X155373605Y-80050000D01*
X155014395Y-80050000D01*
X154201298Y-79236903D01*
X153957329Y-79308486D01*
X153836429Y-79563996D01*
X153767700Y-79838184D01*
X153753783Y-80120512D01*
X147939242Y-80120512D01*
X147875898Y-80094274D01*
X147675939Y-80054500D01*
X147472061Y-80054500D01*
X147272102Y-80094274D01*
X147083744Y-80172295D01*
X146914226Y-80285563D01*
X146770063Y-80429726D01*
X146656795Y-80599244D01*
X146578774Y-80787602D01*
X146539000Y-80987561D01*
X146539000Y-81191439D01*
X146578774Y-81391398D01*
X146656795Y-81579756D01*
X146770063Y-81749274D01*
X146914226Y-81893437D01*
X146941001Y-81911327D01*
X146941000Y-84455000D01*
X145346798Y-84455000D01*
X144524000Y-83632202D01*
X144524000Y-81791611D01*
X144567937Y-81747674D01*
X144681205Y-81578156D01*
X144759226Y-81389798D01*
X144799000Y-81189839D01*
X144799000Y-80985961D01*
X144759226Y-80786002D01*
X144681205Y-80597644D01*
X144567937Y-80428126D01*
X144423774Y-80283963D01*
X144254256Y-80170695D01*
X144065898Y-80092674D01*
X143865939Y-80052900D01*
X143662061Y-80052900D01*
X143462102Y-80092674D01*
X143273744Y-80170695D01*
X143104226Y-80283963D01*
X142960063Y-80428126D01*
X142846795Y-80597644D01*
X142768774Y-80786002D01*
X142729000Y-80985961D01*
X142729000Y-81189839D01*
X142768774Y-81389798D01*
X142846795Y-81578156D01*
X142960063Y-81747674D01*
X143004001Y-81791612D01*
X143004000Y-83909680D01*
X143000324Y-83947003D01*
X143004000Y-83984325D01*
X143004000Y-83984335D01*
X143014997Y-84095988D01*
X143058454Y-84239249D01*
X143129026Y-84371279D01*
X143168871Y-84419829D01*
X143197734Y-84455000D01*
X127962461Y-84455000D01*
X127995226Y-84375898D01*
X128006535Y-84319043D01*
X128890579Y-83435000D01*
X132176546Y-83435000D01*
X132224744Y-83467205D01*
X132413102Y-83545226D01*
X132613061Y-83585000D01*
X132816939Y-83585000D01*
X133016898Y-83545226D01*
X133205256Y-83467205D01*
X133374774Y-83353937D01*
X133518937Y-83209774D01*
X133632205Y-83040256D01*
X133710226Y-82851898D01*
X133750000Y-82651939D01*
X133750000Y-82486500D01*
X134448057Y-82486500D01*
X134475764Y-82767809D01*
X134557818Y-83038308D01*
X134691068Y-83287601D01*
X134870392Y-83506108D01*
X135088899Y-83685432D01*
X135338192Y-83818682D01*
X135608691Y-83900736D01*
X135819508Y-83921500D01*
X135960492Y-83921500D01*
X136171309Y-83900736D01*
X136441808Y-83818682D01*
X136691101Y-83685432D01*
X136909608Y-83506108D01*
X137088932Y-83287601D01*
X137222182Y-83038308D01*
X137304236Y-82767809D01*
X137331943Y-82486500D01*
X137324277Y-82408665D01*
X138519000Y-82408665D01*
X138519000Y-82691335D01*
X138574147Y-82968574D01*
X138682320Y-83229727D01*
X138839363Y-83464759D01*
X139039241Y-83664637D01*
X139274273Y-83821680D01*
X139535426Y-83929853D01*
X139812665Y-83985000D01*
X140095335Y-83985000D01*
X140372574Y-83929853D01*
X140633727Y-83821680D01*
X140868759Y-83664637D01*
X141068637Y-83464759D01*
X141225680Y-83229727D01*
X141333853Y-82968574D01*
X141389000Y-82691335D01*
X141389000Y-82408665D01*
X141333853Y-82131426D01*
X141225680Y-81870273D01*
X141068637Y-81635241D01*
X140868759Y-81435363D01*
X140668131Y-81301308D01*
X140695514Y-81286671D01*
X140767097Y-81042702D01*
X139954000Y-80229605D01*
X139140903Y-81042702D01*
X139212486Y-81286671D01*
X139241341Y-81300324D01*
X139039241Y-81435363D01*
X138839363Y-81635241D01*
X138682320Y-81870273D01*
X138574147Y-82131426D01*
X138519000Y-82408665D01*
X137324277Y-82408665D01*
X137304236Y-82205191D01*
X137222182Y-81934692D01*
X137088932Y-81685399D01*
X136909608Y-81466892D01*
X136691101Y-81287568D01*
X136441808Y-81154318D01*
X136171309Y-81072264D01*
X135960492Y-81051500D01*
X135819508Y-81051500D01*
X135608691Y-81072264D01*
X135338192Y-81154318D01*
X135088899Y-81287568D01*
X134870392Y-81466892D01*
X134691068Y-81685399D01*
X134557818Y-81934692D01*
X134475764Y-82205191D01*
X134448057Y-82486500D01*
X133750000Y-82486500D01*
X133750000Y-82448061D01*
X133710226Y-82248102D01*
X133632205Y-82059744D01*
X133518937Y-81890226D01*
X133374774Y-81746063D01*
X133205256Y-81632795D01*
X133016898Y-81554774D01*
X132816939Y-81515000D01*
X132613061Y-81515000D01*
X132413102Y-81554774D01*
X132224744Y-81632795D01*
X132176546Y-81665000D01*
X128567465Y-81665000D01*
X128523999Y-81660719D01*
X128480533Y-81665000D01*
X128480523Y-81665000D01*
X128350510Y-81677805D01*
X128183687Y-81728411D01*
X128029941Y-81810589D01*
X128029939Y-81810590D01*
X128029940Y-81810590D01*
X127928953Y-81893468D01*
X127928951Y-81893470D01*
X127895183Y-81921183D01*
X127867470Y-81954951D01*
X127157653Y-82664768D01*
X127165000Y-82627835D01*
X127165000Y-82345165D01*
X127109853Y-82067926D01*
X127001680Y-81806773D01*
X126844637Y-81571741D01*
X126644759Y-81371863D01*
X126409727Y-81214820D01*
X126148574Y-81106647D01*
X125871335Y-81051500D01*
X125588665Y-81051500D01*
X125311426Y-81106647D01*
X125050273Y-81214820D01*
X124815241Y-81371863D01*
X124615363Y-81571741D01*
X124458320Y-81806773D01*
X124350147Y-82067926D01*
X124295000Y-82345165D01*
X124295000Y-82627835D01*
X124350147Y-82905074D01*
X124458320Y-83166227D01*
X124615363Y-83401259D01*
X124815241Y-83601137D01*
X125050273Y-83758180D01*
X125311426Y-83866353D01*
X125588665Y-83921500D01*
X125871335Y-83921500D01*
X125979330Y-83900018D01*
X125965000Y-83972061D01*
X125965000Y-84175939D01*
X126004774Y-84375898D01*
X126037539Y-84455000D01*
X124575000Y-84455000D01*
X124451118Y-84467201D01*
X124331996Y-84503336D01*
X124222213Y-84562017D01*
X124125987Y-84640987D01*
X123375987Y-85390987D01*
X123297017Y-85487213D01*
X123238336Y-85596996D01*
X123202201Y-85716118D01*
X123190000Y-85840000D01*
X105490358Y-85840000D01*
X105838951Y-85796457D01*
X106200690Y-85676333D01*
X106447683Y-85544312D01*
X106579619Y-85249224D01*
X105410000Y-84079605D01*
X104240381Y-85249224D01*
X99720000Y-85249224D01*
X99720000Y-83950729D01*
X103466299Y-83950729D01*
X103513543Y-84328951D01*
X103633667Y-84690690D01*
X103765688Y-84937683D01*
X104060776Y-85069619D01*
X105230395Y-83900000D01*
X105589605Y-83900000D01*
X106759224Y-85069619D01*
X107054312Y-84937683D01*
X107225159Y-84596955D01*
X107326250Y-84229443D01*
X107353701Y-83849271D01*
X107306457Y-83471049D01*
X107186333Y-83109310D01*
X107054312Y-82862317D01*
X106759224Y-82730381D01*
X105589605Y-83900000D01*
X105230395Y-83900000D01*
X104060776Y-82730381D01*
X103765688Y-82862317D01*
X103594841Y-83203045D01*
X103493750Y-83570557D01*
X103466299Y-83950729D01*
X99720000Y-83950729D01*
X99720000Y-82550776D01*
X104240381Y-82550776D01*
X105410000Y-83720395D01*
X106579619Y-82550776D01*
X106447683Y-82255688D01*
X106106955Y-82084841D01*
X105739443Y-81983750D01*
X105359271Y-81956299D01*
X104981049Y-82003543D01*
X104619310Y-82123667D01*
X104372317Y-82255688D01*
X104240381Y-82550776D01*
X99720000Y-82550776D01*
X99720000Y-77485000D01*
X104243928Y-77485000D01*
X104243928Y-79235000D01*
X104273001Y-79530186D01*
X104359104Y-79814028D01*
X104498927Y-80075618D01*
X104687097Y-80304903D01*
X104916382Y-80493073D01*
X105177972Y-80632896D01*
X105461814Y-80718999D01*
X105757000Y-80748072D01*
X107507000Y-80748072D01*
X107802186Y-80718999D01*
X108086028Y-80632896D01*
X108347618Y-80493073D01*
X108576903Y-80304903D01*
X108728229Y-80120512D01*
X138513783Y-80120512D01*
X138555213Y-80400130D01*
X138650397Y-80666292D01*
X138717329Y-80791514D01*
X138961298Y-80863097D01*
X139774395Y-80050000D01*
X140133605Y-80050000D01*
X140946702Y-80863097D01*
X141190671Y-80791514D01*
X141311571Y-80536004D01*
X141380300Y-80261816D01*
X141394217Y-79979488D01*
X141352787Y-79699870D01*
X141257603Y-79433708D01*
X141190671Y-79308486D01*
X140946702Y-79236903D01*
X140133605Y-80050000D01*
X139774395Y-80050000D01*
X138961298Y-79236903D01*
X138717329Y-79308486D01*
X138596429Y-79563996D01*
X138527700Y-79838184D01*
X138513783Y-80120512D01*
X108728229Y-80120512D01*
X108765073Y-80075618D01*
X108904896Y-79814028D01*
X108990999Y-79530186D01*
X109020072Y-79235000D01*
X109020072Y-79057298D01*
X139140903Y-79057298D01*
X139954000Y-79870395D01*
X140767097Y-79057298D01*
X154380903Y-79057298D01*
X155194000Y-79870395D01*
X156007097Y-79057298D01*
X155935514Y-78813329D01*
X155680004Y-78692429D01*
X155405816Y-78623700D01*
X155123488Y-78609783D01*
X154843870Y-78651213D01*
X154577708Y-78746397D01*
X154452486Y-78813329D01*
X154380903Y-79057298D01*
X140767097Y-79057298D01*
X140695514Y-78813329D01*
X140440004Y-78692429D01*
X140165816Y-78623700D01*
X139883488Y-78609783D01*
X139603870Y-78651213D01*
X139337708Y-78746397D01*
X139212486Y-78813329D01*
X139140903Y-79057298D01*
X109020072Y-79057298D01*
X109020072Y-78105000D01*
X156199247Y-78105000D01*
X156242158Y-78540686D01*
X156369243Y-78959629D01*
X156575618Y-79345729D01*
X156853352Y-79684148D01*
X157191771Y-79961882D01*
X157577871Y-80168257D01*
X157996814Y-80295342D01*
X158323322Y-80327500D01*
X161716678Y-80327500D01*
X162043186Y-80295342D01*
X162462129Y-80168257D01*
X162848229Y-79961882D01*
X163186648Y-79684148D01*
X163464382Y-79345729D01*
X163670757Y-78959629D01*
X163797842Y-78540686D01*
X163840753Y-78105000D01*
X163797842Y-77669314D01*
X163670757Y-77250371D01*
X163464382Y-76864271D01*
X163186648Y-76525852D01*
X162848229Y-76248118D01*
X162462129Y-76041743D01*
X162043186Y-75914658D01*
X161716678Y-75882500D01*
X158323322Y-75882500D01*
X157996814Y-75914658D01*
X157577871Y-76041743D01*
X157191771Y-76248118D01*
X156853352Y-76525852D01*
X156575618Y-76864271D01*
X156369243Y-77250371D01*
X156242158Y-77669314D01*
X156199247Y-78105000D01*
X109020072Y-78105000D01*
X109020072Y-77485000D01*
X108990999Y-77189814D01*
X108904896Y-76905972D01*
X108765073Y-76644382D01*
X108576903Y-76415097D01*
X108347618Y-76226927D01*
X108086028Y-76087104D01*
X107957357Y-76048072D01*
X111382000Y-76048072D01*
X111506482Y-76035812D01*
X111551278Y-76022223D01*
X113925000Y-76022223D01*
X113925000Y-76377777D01*
X113994365Y-76726499D01*
X114130429Y-77054988D01*
X114327965Y-77350621D01*
X114579379Y-77602035D01*
X114875012Y-77799571D01*
X115203501Y-77935635D01*
X115552223Y-78005000D01*
X115907777Y-78005000D01*
X116256499Y-77935635D01*
X116584988Y-77799571D01*
X116880621Y-77602035D01*
X117132035Y-77350621D01*
X117329571Y-77054988D01*
X117465635Y-76726499D01*
X117535000Y-76377777D01*
X117535000Y-76022223D01*
X118925000Y-76022223D01*
X118925000Y-76377777D01*
X118994365Y-76726499D01*
X119130429Y-77054988D01*
X119327965Y-77350621D01*
X119579379Y-77602035D01*
X119875012Y-77799571D01*
X120203501Y-77935635D01*
X120552223Y-78005000D01*
X120907777Y-78005000D01*
X121256499Y-77935635D01*
X121584988Y-77799571D01*
X121880621Y-77602035D01*
X122132035Y-77350621D01*
X122329571Y-77054988D01*
X122465635Y-76726499D01*
X122535000Y-76377777D01*
X122535000Y-76022223D01*
X123925000Y-76022223D01*
X123925000Y-76377777D01*
X123994365Y-76726499D01*
X124130429Y-77054988D01*
X124327965Y-77350621D01*
X124579379Y-77602035D01*
X124875012Y-77799571D01*
X125203501Y-77935635D01*
X125552223Y-78005000D01*
X125907777Y-78005000D01*
X126256499Y-77935635D01*
X126584988Y-77799571D01*
X126880621Y-77602035D01*
X127132035Y-77350621D01*
X127329571Y-77054988D01*
X127465635Y-76726499D01*
X127535000Y-76377777D01*
X127535000Y-76022223D01*
X127516987Y-75931665D01*
X130010000Y-75931665D01*
X130010000Y-76214335D01*
X130065147Y-76491574D01*
X130173320Y-76752727D01*
X130330363Y-76987759D01*
X130530241Y-77187637D01*
X130765273Y-77344680D01*
X131026426Y-77452853D01*
X131303665Y-77508000D01*
X131586335Y-77508000D01*
X131863574Y-77452853D01*
X132124727Y-77344680D01*
X132359759Y-77187637D01*
X132481694Y-77065702D01*
X133131903Y-77065702D01*
X133203486Y-77309671D01*
X133458996Y-77430571D01*
X133733184Y-77499300D01*
X134015512Y-77513217D01*
X134295130Y-77471787D01*
X134337591Y-77456602D01*
X139893003Y-77456602D01*
X140009275Y-77738389D01*
X140327860Y-77896257D01*
X140671122Y-77988938D01*
X141025869Y-78012873D01*
X141378470Y-77967139D01*
X141715373Y-77853495D01*
X141930725Y-77738389D01*
X142046997Y-77456602D01*
X144893003Y-77456602D01*
X145009275Y-77738389D01*
X145327860Y-77896257D01*
X145671122Y-77988938D01*
X146025869Y-78012873D01*
X146378470Y-77967139D01*
X146715373Y-77853495D01*
X146930725Y-77738389D01*
X147046997Y-77456602D01*
X145970000Y-76379605D01*
X144893003Y-77456602D01*
X142046997Y-77456602D01*
X140970000Y-76379605D01*
X139893003Y-77456602D01*
X134337591Y-77456602D01*
X134561292Y-77376603D01*
X134686514Y-77309671D01*
X134758097Y-77065702D01*
X133945000Y-76252605D01*
X133131903Y-77065702D01*
X132481694Y-77065702D01*
X132559637Y-76987759D01*
X132693692Y-76787131D01*
X132708329Y-76814514D01*
X132952298Y-76886097D01*
X133765395Y-76073000D01*
X134124605Y-76073000D01*
X134937702Y-76886097D01*
X135181671Y-76814514D01*
X135302571Y-76559004D01*
X135371300Y-76284816D01*
X135372726Y-76255869D01*
X139157127Y-76255869D01*
X139202861Y-76608470D01*
X139316505Y-76945373D01*
X139431611Y-77160725D01*
X139713398Y-77276997D01*
X140790395Y-76200000D01*
X141149605Y-76200000D01*
X142226602Y-77276997D01*
X142508389Y-77160725D01*
X142666257Y-76842140D01*
X142758938Y-76498878D01*
X142775333Y-76255869D01*
X144157127Y-76255869D01*
X144202861Y-76608470D01*
X144316505Y-76945373D01*
X144431611Y-77160725D01*
X144713398Y-77276997D01*
X145790395Y-76200000D01*
X146149605Y-76200000D01*
X147226602Y-77276997D01*
X147508389Y-77160725D01*
X147666257Y-76842140D01*
X147758938Y-76498878D01*
X147782873Y-76144131D01*
X147767061Y-76022223D01*
X149165000Y-76022223D01*
X149165000Y-76377777D01*
X149234365Y-76726499D01*
X149370429Y-77054988D01*
X149567965Y-77350621D01*
X149819379Y-77602035D01*
X150115012Y-77799571D01*
X150443501Y-77935635D01*
X150792223Y-78005000D01*
X151147777Y-78005000D01*
X151496499Y-77935635D01*
X151824988Y-77799571D01*
X152120621Y-77602035D01*
X152372035Y-77350621D01*
X152569571Y-77054988D01*
X152705635Y-76726499D01*
X152775000Y-76377777D01*
X152775000Y-76022223D01*
X152705635Y-75673501D01*
X152569571Y-75345012D01*
X152372035Y-75049379D01*
X152120621Y-74797965D01*
X151824988Y-74600429D01*
X151496499Y-74464365D01*
X151147777Y-74395000D01*
X150792223Y-74395000D01*
X150443501Y-74464365D01*
X150115012Y-74600429D01*
X149819379Y-74797965D01*
X149567965Y-75049379D01*
X149370429Y-75345012D01*
X149234365Y-75673501D01*
X149165000Y-76022223D01*
X147767061Y-76022223D01*
X147737139Y-75791530D01*
X147623495Y-75454627D01*
X147508389Y-75239275D01*
X147226602Y-75123003D01*
X146149605Y-76200000D01*
X145790395Y-76200000D01*
X144713398Y-75123003D01*
X144431611Y-75239275D01*
X144273743Y-75557860D01*
X144181062Y-75901122D01*
X144157127Y-76255869D01*
X142775333Y-76255869D01*
X142782873Y-76144131D01*
X142737139Y-75791530D01*
X142623495Y-75454627D01*
X142508389Y-75239275D01*
X142226602Y-75123003D01*
X141149605Y-76200000D01*
X140790395Y-76200000D01*
X139713398Y-75123003D01*
X139431611Y-75239275D01*
X139273743Y-75557860D01*
X139181062Y-75901122D01*
X139157127Y-76255869D01*
X135372726Y-76255869D01*
X135385217Y-76002488D01*
X135343787Y-75722870D01*
X135248603Y-75456708D01*
X135181671Y-75331486D01*
X134937702Y-75259903D01*
X134124605Y-76073000D01*
X133765395Y-76073000D01*
X132952298Y-75259903D01*
X132708329Y-75331486D01*
X132694676Y-75360341D01*
X132559637Y-75158241D01*
X132481694Y-75080298D01*
X133131903Y-75080298D01*
X133945000Y-75893395D01*
X134758097Y-75080298D01*
X134717930Y-74943398D01*
X139893003Y-74943398D01*
X140970000Y-76020395D01*
X142046997Y-74943398D01*
X144893003Y-74943398D01*
X145970000Y-76020395D01*
X147046997Y-74943398D01*
X146930725Y-74661611D01*
X146612140Y-74503743D01*
X146268878Y-74411062D01*
X145914131Y-74387127D01*
X145561530Y-74432861D01*
X145224627Y-74546505D01*
X145009275Y-74661611D01*
X144893003Y-74943398D01*
X142046997Y-74943398D01*
X141930725Y-74661611D01*
X141612140Y-74503743D01*
X141268878Y-74411062D01*
X140914131Y-74387127D01*
X140561530Y-74432861D01*
X140224627Y-74546505D01*
X140009275Y-74661611D01*
X139893003Y-74943398D01*
X134717930Y-74943398D01*
X134686514Y-74836329D01*
X134431004Y-74715429D01*
X134156816Y-74646700D01*
X133874488Y-74632783D01*
X133594870Y-74674213D01*
X133328708Y-74769397D01*
X133203486Y-74836329D01*
X133131903Y-75080298D01*
X132481694Y-75080298D01*
X132359759Y-74958363D01*
X132124727Y-74801320D01*
X131863574Y-74693147D01*
X131586335Y-74638000D01*
X131303665Y-74638000D01*
X131026426Y-74693147D01*
X130765273Y-74801320D01*
X130530241Y-74958363D01*
X130330363Y-75158241D01*
X130173320Y-75393273D01*
X130065147Y-75654426D01*
X130010000Y-75931665D01*
X127516987Y-75931665D01*
X127465635Y-75673501D01*
X127329571Y-75345012D01*
X127132035Y-75049379D01*
X126880621Y-74797965D01*
X126584988Y-74600429D01*
X126256499Y-74464365D01*
X125907777Y-74395000D01*
X125552223Y-74395000D01*
X125203501Y-74464365D01*
X124875012Y-74600429D01*
X124579379Y-74797965D01*
X124327965Y-75049379D01*
X124130429Y-75345012D01*
X123994365Y-75673501D01*
X123925000Y-76022223D01*
X122535000Y-76022223D01*
X122465635Y-75673501D01*
X122329571Y-75345012D01*
X122132035Y-75049379D01*
X121880621Y-74797965D01*
X121584988Y-74600429D01*
X121256499Y-74464365D01*
X120907777Y-74395000D01*
X120552223Y-74395000D01*
X120203501Y-74464365D01*
X119875012Y-74600429D01*
X119579379Y-74797965D01*
X119327965Y-75049379D01*
X119130429Y-75345012D01*
X118994365Y-75673501D01*
X118925000Y-76022223D01*
X117535000Y-76022223D01*
X117465635Y-75673501D01*
X117329571Y-75345012D01*
X117132035Y-75049379D01*
X116880621Y-74797965D01*
X116584988Y-74600429D01*
X116256499Y-74464365D01*
X115907777Y-74395000D01*
X115552223Y-74395000D01*
X115203501Y-74464365D01*
X114875012Y-74600429D01*
X114579379Y-74797965D01*
X114327965Y-75049379D01*
X114130429Y-75345012D01*
X113994365Y-75673501D01*
X113925000Y-76022223D01*
X111551278Y-76022223D01*
X111626180Y-75999502D01*
X111736494Y-75940537D01*
X111833185Y-75861185D01*
X111912537Y-75764494D01*
X111971502Y-75654180D01*
X112007812Y-75534482D01*
X112020072Y-75410000D01*
X112020072Y-73342500D01*
X156199247Y-73342500D01*
X156242158Y-73778186D01*
X156369243Y-74197129D01*
X156575618Y-74583229D01*
X156853352Y-74921648D01*
X157191771Y-75199382D01*
X157577871Y-75405757D01*
X157996814Y-75532842D01*
X158323322Y-75565000D01*
X161716678Y-75565000D01*
X162043186Y-75532842D01*
X162462129Y-75405757D01*
X162848229Y-75199382D01*
X162935061Y-75128120D01*
X170890668Y-75128120D01*
X170890668Y-76319380D01*
X170914373Y-76560063D01*
X170984578Y-76791497D01*
X171098584Y-77004788D01*
X171252011Y-77191739D01*
X171438962Y-77345166D01*
X171652253Y-77459172D01*
X171883687Y-77529377D01*
X172124370Y-77553082D01*
X173315630Y-77553082D01*
X173556313Y-77529377D01*
X173787747Y-77459172D01*
X174001038Y-77345166D01*
X174187989Y-77191739D01*
X174341416Y-77004788D01*
X174455422Y-76791497D01*
X174525627Y-76560063D01*
X174549332Y-76319380D01*
X174549332Y-75128120D01*
X174525627Y-74887437D01*
X174455422Y-74656003D01*
X174341416Y-74442712D01*
X174187989Y-74255761D01*
X174001038Y-74102334D01*
X173787747Y-73988328D01*
X173556313Y-73918123D01*
X173315630Y-73894418D01*
X172124370Y-73894418D01*
X171883687Y-73918123D01*
X171652253Y-73988328D01*
X171438962Y-74102334D01*
X171252011Y-74255761D01*
X171098584Y-74442712D01*
X170984578Y-74656003D01*
X170914373Y-74887437D01*
X170890668Y-75128120D01*
X162935061Y-75128120D01*
X163186648Y-74921648D01*
X163464382Y-74583229D01*
X163670757Y-74197129D01*
X163797842Y-73778186D01*
X163840753Y-73342500D01*
X163797842Y-72906814D01*
X163670757Y-72487871D01*
X163464382Y-72101771D01*
X163186648Y-71763352D01*
X162848229Y-71485618D01*
X162462129Y-71279243D01*
X162043186Y-71152158D01*
X161716678Y-71120000D01*
X158323322Y-71120000D01*
X157996814Y-71152158D01*
X157577871Y-71279243D01*
X157191771Y-71485618D01*
X156853352Y-71763352D01*
X156575618Y-72101771D01*
X156369243Y-72487871D01*
X156242158Y-72906814D01*
X156199247Y-73342500D01*
X112020072Y-73342500D01*
X112020072Y-71910000D01*
X112007812Y-71785518D01*
X111971502Y-71665820D01*
X111912537Y-71555506D01*
X111833185Y-71458815D01*
X111736494Y-71379463D01*
X111626180Y-71320498D01*
X111506482Y-71284188D01*
X111382000Y-71271928D01*
X107882000Y-71271928D01*
X107757518Y-71284188D01*
X107637820Y-71320498D01*
X107527506Y-71379463D01*
X107430815Y-71458815D01*
X107351463Y-71555506D01*
X107292498Y-71665820D01*
X107256188Y-71785518D01*
X107243928Y-71910000D01*
X107243928Y-75410000D01*
X107256188Y-75534482D01*
X107292498Y-75654180D01*
X107351463Y-75764494D01*
X107430815Y-75861185D01*
X107527506Y-75940537D01*
X107604131Y-75981494D01*
X107507000Y-75971928D01*
X105757000Y-75971928D01*
X105461814Y-76001001D01*
X105177972Y-76087104D01*
X104916382Y-76226927D01*
X104687097Y-76415097D01*
X104498927Y-76644382D01*
X104359104Y-76905972D01*
X104273001Y-77189814D01*
X104243928Y-77485000D01*
X99720000Y-77485000D01*
X99720000Y-75410000D01*
X101493928Y-75410000D01*
X101506188Y-75534482D01*
X101542498Y-75654180D01*
X101601463Y-75764494D01*
X101680815Y-75861185D01*
X101777506Y-75940537D01*
X101887820Y-75999502D01*
X102007518Y-76035812D01*
X102132000Y-76048072D01*
X103346250Y-76045000D01*
X103505000Y-75886250D01*
X103505000Y-73787000D01*
X103759000Y-73787000D01*
X103759000Y-75886250D01*
X103917750Y-76045000D01*
X105132000Y-76048072D01*
X105256482Y-76035812D01*
X105376180Y-75999502D01*
X105486494Y-75940537D01*
X105583185Y-75861185D01*
X105662537Y-75764494D01*
X105721502Y-75654180D01*
X105757812Y-75534482D01*
X105770072Y-75410000D01*
X105767000Y-73945750D01*
X105608250Y-73787000D01*
X103759000Y-73787000D01*
X103505000Y-73787000D01*
X101655750Y-73787000D01*
X101497000Y-73945750D01*
X101493928Y-75410000D01*
X99720000Y-75410000D01*
X99720000Y-71910000D01*
X101493928Y-71910000D01*
X101497000Y-73374250D01*
X101655750Y-73533000D01*
X103505000Y-73533000D01*
X103505000Y-71433750D01*
X103759000Y-71433750D01*
X103759000Y-73533000D01*
X105608250Y-73533000D01*
X105767000Y-73374250D01*
X105770072Y-71910000D01*
X105757812Y-71785518D01*
X105721502Y-71665820D01*
X105662537Y-71555506D01*
X105583185Y-71458815D01*
X105486494Y-71379463D01*
X105376180Y-71320498D01*
X105256482Y-71284188D01*
X105132000Y-71271928D01*
X103917750Y-71275000D01*
X103759000Y-71433750D01*
X103505000Y-71433750D01*
X103346250Y-71275000D01*
X102132000Y-71271928D01*
X102007518Y-71284188D01*
X101887820Y-71320498D01*
X101777506Y-71379463D01*
X101680815Y-71458815D01*
X101601463Y-71555506D01*
X101542498Y-71665820D01*
X101506188Y-71785518D01*
X101493928Y-71910000D01*
X99720000Y-71910000D01*
X99720000Y-68580000D01*
X156199247Y-68580000D01*
X156242158Y-69015686D01*
X156369243Y-69434629D01*
X156575618Y-69820729D01*
X156853352Y-70159148D01*
X157191771Y-70436882D01*
X157577871Y-70643257D01*
X157996814Y-70770342D01*
X158323322Y-70802500D01*
X161716678Y-70802500D01*
X162043186Y-70770342D01*
X162462129Y-70643257D01*
X162848229Y-70436882D01*
X162935061Y-70365620D01*
X170890668Y-70365620D01*
X170890668Y-71556880D01*
X170914373Y-71797563D01*
X170984578Y-72028997D01*
X171098584Y-72242288D01*
X171252011Y-72429239D01*
X171438962Y-72582666D01*
X171652253Y-72696672D01*
X171883687Y-72766877D01*
X172124370Y-72790582D01*
X173315630Y-72790582D01*
X173556313Y-72766877D01*
X173787747Y-72696672D01*
X174001038Y-72582666D01*
X174187989Y-72429239D01*
X174341416Y-72242288D01*
X174455422Y-72028997D01*
X174525627Y-71797563D01*
X174549332Y-71556880D01*
X174549332Y-70365620D01*
X174525627Y-70124937D01*
X174455422Y-69893503D01*
X174341416Y-69680212D01*
X174187989Y-69493261D01*
X174001038Y-69339834D01*
X173787747Y-69225828D01*
X173556313Y-69155623D01*
X173315630Y-69131918D01*
X172124370Y-69131918D01*
X171883687Y-69155623D01*
X171652253Y-69225828D01*
X171438962Y-69339834D01*
X171252011Y-69493261D01*
X171098584Y-69680212D01*
X170984578Y-69893503D01*
X170914373Y-70124937D01*
X170890668Y-70365620D01*
X162935061Y-70365620D01*
X163186648Y-70159148D01*
X163464382Y-69820729D01*
X163670757Y-69434629D01*
X163797842Y-69015686D01*
X163840753Y-68580000D01*
X163797842Y-68144314D01*
X163670757Y-67725371D01*
X163464382Y-67339271D01*
X163186648Y-67000852D01*
X162848229Y-66723118D01*
X162462129Y-66516743D01*
X162043186Y-66389658D01*
X161716678Y-66357500D01*
X158323322Y-66357500D01*
X157996814Y-66389658D01*
X157577871Y-66516743D01*
X157191771Y-66723118D01*
X156853352Y-67000852D01*
X156575618Y-67339271D01*
X156369243Y-67725371D01*
X156242158Y-68144314D01*
X156199247Y-68580000D01*
X99720000Y-68580000D01*
X99720000Y-63128249D01*
X100308800Y-63128249D01*
X100308800Y-63617751D01*
X100404297Y-64097848D01*
X100591621Y-64550089D01*
X100863574Y-64957095D01*
X101209705Y-65303226D01*
X101616711Y-65575179D01*
X102068952Y-65762503D01*
X102549049Y-65858000D01*
X103038551Y-65858000D01*
X103518648Y-65762503D01*
X103970889Y-65575179D01*
X104377895Y-65303226D01*
X104724026Y-64957095D01*
X104995979Y-64550089D01*
X105183303Y-64097848D01*
X105278800Y-63617751D01*
X105278800Y-63309419D01*
X155545000Y-63309419D01*
X155545000Y-63690581D01*
X155619361Y-64064419D01*
X155765225Y-64416566D01*
X155976987Y-64733491D01*
X156246509Y-65003013D01*
X156563434Y-65214775D01*
X156915581Y-65360639D01*
X157289419Y-65435000D01*
X157670581Y-65435000D01*
X158044419Y-65360639D01*
X158396566Y-65214775D01*
X158713491Y-65003013D01*
X158750000Y-64966504D01*
X158786509Y-65003013D01*
X159103434Y-65214775D01*
X159455581Y-65360639D01*
X159829419Y-65435000D01*
X160210581Y-65435000D01*
X160584419Y-65360639D01*
X160936566Y-65214775D01*
X161253491Y-65003013D01*
X161523013Y-64733491D01*
X161734775Y-64416566D01*
X161880639Y-64064419D01*
X161955000Y-63690581D01*
X161955000Y-63309419D01*
X161918964Y-63128249D01*
X169015800Y-63128249D01*
X169015800Y-63617751D01*
X169111297Y-64097848D01*
X169298621Y-64550089D01*
X169570574Y-64957095D01*
X169916705Y-65303226D01*
X170323711Y-65575179D01*
X170775952Y-65762503D01*
X171256049Y-65858000D01*
X171745551Y-65858000D01*
X172225648Y-65762503D01*
X172677889Y-65575179D01*
X173084895Y-65303226D01*
X173431026Y-64957095D01*
X173702979Y-64550089D01*
X173890303Y-64097848D01*
X173985800Y-63617751D01*
X173985800Y-63128249D01*
X173890303Y-62648152D01*
X173702979Y-62195911D01*
X173431026Y-61788905D01*
X173084895Y-61442774D01*
X172677889Y-61170821D01*
X172225648Y-60983497D01*
X171745551Y-60888000D01*
X171256049Y-60888000D01*
X170775952Y-60983497D01*
X170323711Y-61170821D01*
X169916705Y-61442774D01*
X169570574Y-61788905D01*
X169298621Y-62195911D01*
X169111297Y-62648152D01*
X169015800Y-63128249D01*
X161918964Y-63128249D01*
X161880639Y-62935581D01*
X161734775Y-62583434D01*
X161523013Y-62266509D01*
X161253491Y-61996987D01*
X160936566Y-61785225D01*
X160584419Y-61639361D01*
X160210581Y-61565000D01*
X159829419Y-61565000D01*
X159455581Y-61639361D01*
X159103434Y-61785225D01*
X158786509Y-61996987D01*
X158750000Y-62033496D01*
X158713491Y-61996987D01*
X158396566Y-61785225D01*
X158044419Y-61639361D01*
X157670581Y-61565000D01*
X157289419Y-61565000D01*
X156915581Y-61639361D01*
X156563434Y-61785225D01*
X156246509Y-61996987D01*
X155976987Y-62266509D01*
X155765225Y-62583434D01*
X155619361Y-62935581D01*
X155545000Y-63309419D01*
X105278800Y-63309419D01*
X105278800Y-63128249D01*
X105183303Y-62648152D01*
X104995979Y-62195911D01*
X104724026Y-61788905D01*
X104377895Y-61442774D01*
X103970889Y-61170821D01*
X103518648Y-60983497D01*
X103038551Y-60888000D01*
X102549049Y-60888000D01*
X102068952Y-60983497D01*
X101616711Y-61170821D01*
X101209705Y-61442774D01*
X100863574Y-61788905D01*
X100591621Y-62195911D01*
X100404297Y-62648152D01*
X100308800Y-63128249D01*
X99720000Y-63128249D01*
X99720000Y-60724515D01*
X99794012Y-60630045D01*
X100000045Y-60424012D01*
X100094515Y-60350000D01*
X174225485Y-60350000D01*
X174319955Y-60424012D01*
M02*
